<svg width="45" height="30" viewBox="0 0 45 30" fill="none" xmlns="http://www.w3.org/2000/svg">
<path d="M2.88623 13C1.78166 13 0.88623 13.8954 0.88623 15C0.88623 16.1046 1.78166 17 2.88623 17V13ZM44.3004 16.4142C45.0815 15.6332 45.0815 14.3668 44.3004 13.5858L31.5725 0.857864C30.7915 0.0768156 29.5251 0.0768156 28.7441 0.857864C27.963 1.63891 27.963 2.90524 28.7441 3.68629L40.0578 15L28.7441 26.3137C27.963 27.0948 27.963 28.3611 28.7441 29.1421C29.5251 29.9232 30.7915 29.9232 31.5725 29.1421L44.3004 16.4142ZM2.88623 17H42.8862V13H2.88623V17Z" fill="#123041"/>
</svg>
