<svg width="208" height="74" viewBox="0 0 208 74" fill="none" xmlns="http://www.w3.org/2000/svg">
<circle cx="4" cy="37" r="4" fill="#005271"/>
<line x1="8" y1="36.5" x2="24" y2="36.5" stroke="#005271" stroke-dasharray="2 2"/>
<g filter="url(#filter0_d_162_5902)">
<rect x="24" y="8" width="176" height="58" rx="4" fill="white" shape-rendering="crispEdges"/>
<path d="M35.597 27.132C35.069 27.132 34.5887 27.0293 34.156 26.824C33.7307 26.6113 33.3897 26.285 33.133 25.845C32.8763 25.405 32.748 24.844 32.748 24.162V19.3H33.672V24.173C33.672 24.921 33.8517 25.4637 34.211 25.801C34.5703 26.1383 35.0397 26.307 35.619 26.307C36.1983 26.307 36.664 26.1383 37.016 25.801C37.368 25.4637 37.544 24.921 37.544 24.173V19.3H38.468V24.162C38.468 24.844 38.3397 25.405 38.083 25.845C37.8263 26.285 37.4817 26.6113 37.049 26.824C36.6163 27.0293 36.1323 27.132 35.597 27.132ZM42.0678 27.132C41.4151 27.132 40.8724 26.967 40.4398 26.637C40.0071 26.307 39.7541 25.8597 39.6808 25.295H40.6268C40.6854 25.581 40.8358 25.8303 41.0778 26.043C41.3271 26.2483 41.6608 26.351 42.0788 26.351C42.4674 26.351 42.7534 26.2703 42.9368 26.109C43.1201 25.9403 43.2118 25.7423 43.2118 25.515C43.2118 25.185 43.0908 24.965 42.8488 24.855C42.6141 24.745 42.2804 24.646 41.8478 24.558C41.5544 24.4993 41.2611 24.415 40.9678 24.305C40.6744 24.195 40.4288 24.041 40.2308 23.843C40.0328 23.6377 39.9338 23.37 39.9338 23.04C39.9338 22.5633 40.1098 22.1747 40.4618 21.874C40.8211 21.566 41.3051 21.412 41.9138 21.412C42.4931 21.412 42.9661 21.5587 43.3328 21.852C43.7068 22.138 43.9231 22.5487 43.9818 23.084H43.0688C43.0321 22.8053 42.9111 22.589 42.7058 22.435C42.5078 22.2737 42.2401 22.193 41.9028 22.193C41.5728 22.193 41.3161 22.2627 41.1328 22.402C40.9568 22.5413 40.8688 22.7247 40.8688 22.952C40.8688 23.172 40.9824 23.3443 41.2098 23.469C41.4444 23.5937 41.7598 23.7 42.1558 23.788C42.4931 23.8613 42.8121 23.953 43.1128 24.063C43.4208 24.1657 43.6701 24.3233 43.8608 24.536C44.0588 24.7413 44.1578 25.042 44.1578 25.438C44.1651 25.9293 43.9781 26.3363 43.5968 26.659C43.2228 26.9743 42.7131 27.132 42.0678 27.132ZM47.9308 27.132C47.4101 27.132 46.9481 27.0147 46.5448 26.78C46.1414 26.538 45.8224 26.2043 45.5878 25.779C45.3604 25.3537 45.2468 24.8513 45.2468 24.272C45.2468 23.7 45.3604 23.2013 45.5878 22.776C45.8151 22.3433 46.1304 22.0097 46.5338 21.775C46.9444 21.533 47.4174 21.412 47.9527 21.412C48.4808 21.412 48.9354 21.533 49.3168 21.775C49.7054 22.0097 50.0024 22.3213 50.2078 22.71C50.4131 23.0987 50.5158 23.5167 50.5158 23.964C50.5158 24.0447 50.5121 24.1253 50.5048 24.206C50.5048 24.2867 50.5048 24.3783 50.5048 24.481H46.1598C46.1818 24.899 46.2771 25.2473 46.4458 25.526C46.6218 25.7973 46.8381 26.0027 47.0948 26.142C47.3588 26.2813 47.6374 26.351 47.9308 26.351C48.3121 26.351 48.6311 26.263 48.8878 26.087C49.1444 25.911 49.3314 25.6727 49.4488 25.372H50.3618C50.2151 25.878 49.9328 26.2997 49.5148 26.637C49.1041 26.967 48.5761 27.132 47.9308 27.132ZM47.9308 22.193C47.4908 22.193 47.0984 22.3287 46.7538 22.6C46.4164 22.864 46.2221 23.2527 46.1707 23.766H49.6028C49.5808 23.2747 49.4121 22.8897 49.0968 22.611C48.7814 22.3323 48.3928 22.193 47.9308 22.193ZM51.7404 27V21.544H52.5764L52.6534 22.589C52.8221 22.2297 53.0788 21.9437 53.4234 21.731C53.7681 21.5183 54.1934 21.412 54.6994 21.412V22.38H54.4464C54.1238 22.38 53.8268 22.4387 53.5554 22.556C53.2841 22.666 53.0678 22.8567 52.9064 23.128C52.7451 23.3993 52.6644 23.7733 52.6644 24.25V27H51.7404ZM57.8265 27.132C57.1739 27.132 56.6312 26.967 56.1985 26.637C55.7659 26.307 55.5129 25.8597 55.4395 25.295H56.3855C56.4442 25.581 56.5945 25.8303 56.8365 26.043C57.0859 26.2483 57.4195 26.351 57.8375 26.351C58.2262 26.351 58.5122 26.2703 58.6955 26.109C58.8789 25.9403 58.9705 25.7423 58.9705 25.515C58.9705 25.185 58.8495 24.965 58.6075 24.855C58.3729 24.745 58.0392 24.646 57.6065 24.558C57.3132 24.4993 57.0199 24.415 56.7265 24.305C56.4332 24.195 56.1875 24.041 55.9895 23.843C55.7915 23.6377 55.6925 23.37 55.6925 23.04C55.6925 22.5633 55.8685 22.1747 56.2205 21.874C56.5799 21.566 57.0639 21.412 57.6725 21.412C58.2519 21.412 58.7249 21.5587 59.0915 21.852C59.4655 22.138 59.6819 22.5487 59.7405 23.084H58.8275C58.7909 22.8053 58.6699 22.589 58.4645 22.435C58.2665 22.2737 57.9989 22.193 57.6615 22.193C57.3315 22.193 57.0749 22.2627 56.8915 22.402C56.7155 22.5413 56.6275 22.7247 56.6275 22.952C56.6275 23.172 56.7412 23.3443 56.9685 23.469C57.2032 23.5937 57.5185 23.7 57.9145 23.788C58.2519 23.8613 58.5709 23.953 58.8715 24.063C59.1795 24.1657 59.4289 24.3233 59.6195 24.536C59.8175 24.7413 59.9165 25.042 59.9165 25.438C59.9239 25.9293 59.7369 26.3363 59.3555 26.659C58.9815 26.9743 58.4719 27.132 57.8265 27.132ZM66.6557 27.132C66.135 27.132 65.6657 27.0147 65.2477 26.78C64.837 26.538 64.5107 26.2043 64.2687 25.779C64.034 25.3463 63.9167 24.844 63.9167 24.272C63.9167 23.7 64.034 23.2013 64.2687 22.776C64.5107 22.3433 64.837 22.0097 65.2477 21.775C65.6657 21.533 66.135 21.412 66.6557 21.412C67.301 21.412 67.8437 21.5807 68.2837 21.918C68.731 22.2553 69.0133 22.7063 69.1307 23.271H68.1847C68.1113 22.9337 67.9317 22.6733 67.6457 22.49C67.3597 22.2993 67.026 22.204 66.6447 22.204C66.3367 22.204 66.047 22.281 65.7757 22.435C65.5043 22.589 65.2843 22.82 65.1157 23.128C64.947 23.436 64.8627 23.8173 64.8627 24.272C64.8627 24.7267 64.947 25.108 65.1157 25.416C65.2843 25.724 65.5043 25.9587 65.7757 26.12C66.047 26.274 66.3367 26.351 66.6447 26.351C67.026 26.351 67.3597 26.2593 67.6457 26.076C67.9317 25.8853 68.1113 25.6177 68.1847 25.273H69.1307C69.0207 25.823 68.742 26.2703 68.2947 26.615C67.8473 26.9597 67.301 27.132 66.6557 27.132ZM72.2361 27.132C71.7814 27.132 71.4038 27.055 71.1031 26.901C70.8024 26.747 70.5788 26.5417 70.4321 26.285C70.2854 26.0283 70.2121 25.7497 70.2121 25.449C70.2121 24.8917 70.4248 24.4627 70.8501 24.162C71.2754 23.8613 71.8548 23.711 72.5881 23.711H74.0621V23.645C74.0621 23.1683 73.9374 22.809 73.6881 22.567C73.4388 22.3177 73.1051 22.193 72.6871 22.193C72.3278 22.193 72.0161 22.2847 71.7521 22.468C71.4954 22.644 71.3341 22.9043 71.2681 23.249H70.3221C70.3588 22.853 70.4908 22.5193 70.7181 22.248C70.9528 21.9767 71.2424 21.7713 71.5871 21.632C71.9318 21.4853 72.2984 21.412 72.6871 21.412C73.4498 21.412 74.0218 21.6173 74.4031 22.028C74.7918 22.4313 74.9861 22.9703 74.9861 23.645V27H74.1611L74.1061 26.021C73.9521 26.329 73.7248 26.593 73.4241 26.813C73.1308 27.0257 72.7348 27.132 72.2361 27.132ZM72.3791 26.351C72.7311 26.351 73.0318 26.2593 73.2811 26.076C73.5378 25.8927 73.7321 25.6543 73.8641 25.361C73.9961 25.0677 74.0621 24.7597 74.0621 24.437V24.426H72.6651C72.1224 24.426 71.7374 24.5213 71.5101 24.712C71.2901 24.8953 71.1801 25.1263 71.1801 25.405C71.1801 25.691 71.2828 25.922 71.4881 26.098C71.7008 26.2667 71.9978 26.351 72.3791 26.351ZM76.3723 27V21.544H77.2083L77.2633 22.523C77.4393 22.1783 77.6923 21.907 78.0223 21.709C78.3523 21.511 78.7263 21.412 79.1443 21.412C79.7896 21.412 80.3029 21.61 80.6843 22.006C81.0729 22.3947 81.2673 22.996 81.2673 23.81V27H80.3433V23.909C80.3433 22.7723 79.8739 22.204 78.9353 22.204C78.4659 22.204 78.0736 22.3763 77.7583 22.721C77.4503 23.0583 77.2963 23.5423 77.2963 24.173V27H76.3723ZM85.5783 27V19.08H86.5023V27H85.5783ZM90.4698 27.132C89.9491 27.132 89.4871 27.0147 89.0838 26.78C88.6805 26.538 88.3615 26.2043 88.1268 25.779C87.8995 25.3537 87.7858 24.8513 87.7858 24.272C87.7858 23.7 87.8995 23.2013 88.1268 22.776C88.3541 22.3433 88.6695 22.0097 89.0728 21.775C89.4835 21.533 89.9565 21.412 90.4918 21.412C91.0198 21.412 91.4745 21.533 91.8558 21.775C92.2445 22.0097 92.5415 22.3213 92.7468 22.71C92.9521 23.0987 93.0548 23.5167 93.0548 23.964C93.0548 24.0447 93.0511 24.1253 93.0438 24.206C93.0438 24.2867 93.0438 24.3783 93.0438 24.481H88.6988C88.7208 24.899 88.8161 25.2473 88.9848 25.526C89.1608 25.7973 89.3771 26.0027 89.6338 26.142C89.8978 26.2813 90.1765 26.351 90.4698 26.351C90.8511 26.351 91.1701 26.263 91.4268 26.087C91.6835 25.911 91.8705 25.6727 91.9878 25.372H92.9008C92.7541 25.878 92.4718 26.2997 92.0538 26.637C91.6431 26.967 91.1151 27.132 90.4698 27.132ZM90.4698 22.193C90.0298 22.193 89.6375 22.3287 89.2928 22.6C88.9555 22.864 88.7611 23.2527 88.7098 23.766H92.1418C92.1198 23.2747 91.9511 22.8897 91.6358 22.611C91.3205 22.3323 90.9318 22.193 90.4698 22.193ZM96.0945 27.132C95.6398 27.132 95.2622 27.055 94.9615 26.901C94.6608 26.747 94.4372 26.5417 94.2905 26.285C94.1438 26.0283 94.0705 25.7497 94.0705 25.449C94.0705 24.8917 94.2832 24.4627 94.7085 24.162C95.1338 23.8613 95.7132 23.711 96.4465 23.711H97.9205V23.645C97.9205 23.1683 97.7958 22.809 97.5465 22.567C97.2972 22.3177 96.9635 22.193 96.5455 22.193C96.1862 22.193 95.8745 22.2847 95.6105 22.468C95.3538 22.644 95.1925 22.9043 95.1265 23.249H94.1805C94.2172 22.853 94.3492 22.5193 94.5765 22.248C94.8112 21.9767 95.1008 21.7713 95.4455 21.632C95.7902 21.4853 96.1568 21.412 96.5455 21.412C97.3082 21.412 97.8802 21.6173 98.2615 22.028C98.6502 22.4313 98.8445 22.9703 98.8445 23.645V27H98.0195L97.9645 26.021C97.8105 26.329 97.5832 26.593 97.2825 26.813C96.9892 27.0257 96.5932 27.132 96.0945 27.132ZM96.2375 26.351C96.5895 26.351 96.8902 26.2593 97.1395 26.076C97.3962 25.8927 97.5905 25.6543 97.7225 25.361C97.8545 25.0677 97.9205 24.7597 97.9205 24.437V24.426H96.5235C95.9808 24.426 95.5958 24.5213 95.3685 24.712C95.1485 24.8953 95.0385 25.1263 95.0385 25.405C95.0385 25.691 95.1412 25.922 95.3465 26.098C95.5592 26.2667 95.8562 26.351 96.2375 26.351ZM100.231 27V21.544H101.067L101.144 22.589C101.312 22.2297 101.569 21.9437 101.914 21.731C102.258 21.5183 102.684 21.412 103.19 21.412V22.38H102.937C102.614 22.38 102.317 22.4387 102.046 22.556C101.774 22.666 101.558 22.8567 101.397 23.128C101.235 23.3993 101.155 23.7733 101.155 24.25V27H100.231ZM104.227 27V21.544H105.063L105.118 22.523C105.294 22.1783 105.547 21.907 105.877 21.709C106.207 21.511 106.581 21.412 106.999 21.412C107.644 21.412 108.157 21.61 108.539 22.006C108.927 22.3947 109.122 22.996 109.122 23.81V27H108.198V23.909C108.198 22.7723 107.728 22.204 106.79 22.204C106.32 22.204 105.928 22.3763 105.613 22.721C105.305 23.0583 105.151 23.5423 105.151 24.173V27H104.227ZM115.248 27.132C114.793 27.132 114.415 27.055 114.115 26.901C113.814 26.747 113.59 26.5417 113.444 26.285C113.297 26.0283 113.224 25.7497 113.224 25.449C113.224 24.8917 113.436 24.4627 113.862 24.162C114.287 23.8613 114.866 23.711 115.6 23.711H117.074V23.645C117.074 23.1683 116.949 22.809 116.7 22.567C116.45 22.3177 116.117 22.193 115.699 22.193C115.339 22.193 115.028 22.2847 114.764 22.468C114.507 22.644 114.346 22.9043 114.28 23.249H113.334C113.37 22.853 113.502 22.5193 113.73 22.248C113.964 21.9767 114.254 21.7713 114.599 21.632C114.943 21.4853 115.31 21.412 115.699 21.412C116.461 21.412 117.033 21.6173 117.415 22.028C117.803 22.4313 117.998 22.9703 117.998 23.645V27H117.173L117.118 26.021C116.964 26.329 116.736 26.593 116.436 26.813C116.142 27.0257 115.746 27.132 115.248 27.132ZM115.391 26.351C115.743 26.351 116.043 26.2593 116.293 26.076C116.549 25.8927 116.744 25.6543 116.876 25.361C117.008 25.0677 117.074 24.7597 117.074 24.437V24.426H115.677C115.134 24.426 114.749 24.5213 114.522 24.712C114.302 24.8953 114.192 25.1263 114.192 25.405C114.192 25.691 114.294 25.922 114.5 26.098C114.712 26.2667 115.009 26.351 115.391 26.351ZM122.299 27.132C121.852 27.132 121.452 27.0403 121.1 26.857C120.755 26.6737 120.491 26.417 120.308 26.087L120.22 27H119.384V19.08H120.308V22.446C120.484 22.182 120.733 21.9437 121.056 21.731C121.386 21.5183 121.804 21.412 122.31 21.412C122.853 21.412 123.326 21.5367 123.729 21.786C124.132 22.0353 124.444 22.3763 124.664 22.809C124.891 23.2417 125.005 23.733 125.005 24.283C125.005 24.833 124.891 25.3243 124.664 25.757C124.444 26.1823 124.129 26.5197 123.718 26.769C123.315 27.011 122.842 27.132 122.299 27.132ZM122.2 26.329C122.567 26.329 122.889 26.2447 123.168 26.076C123.447 25.9 123.667 25.658 123.828 25.35C123.989 25.042 124.07 24.6827 124.07 24.272C124.07 23.8613 123.989 23.502 123.828 23.194C123.667 22.886 123.447 22.6477 123.168 22.479C122.889 22.303 122.567 22.215 122.2 22.215C121.833 22.215 121.511 22.303 121.232 22.479C120.953 22.6477 120.733 22.886 120.572 23.194C120.411 23.502 120.33 23.8613 120.33 24.272C120.33 24.6827 120.411 25.042 120.572 25.35C120.733 25.658 120.953 25.9 121.232 26.076C121.511 26.2447 121.833 26.329 122.2 26.329ZM128.777 27.132C128.264 27.132 127.802 27.0147 127.391 26.78C126.981 26.5453 126.654 26.2153 126.412 25.79C126.178 25.3573 126.06 24.8513 126.06 24.272C126.06 23.6927 126.181 23.1903 126.423 22.765C126.665 22.3323 126.992 21.9987 127.402 21.764C127.82 21.5293 128.286 21.412 128.799 21.412C129.313 21.412 129.775 21.5293 130.185 21.764C130.596 21.9987 130.919 22.3323 131.153 22.765C131.395 23.1903 131.516 23.6927 131.516 24.272C131.516 24.8513 131.395 25.3573 131.153 25.79C130.911 26.2153 130.581 26.5453 130.163 26.78C129.753 27.0147 129.291 27.132 128.777 27.132ZM128.777 26.34C129.093 26.34 129.386 26.263 129.657 26.109C129.929 25.955 130.149 25.724 130.317 25.416C130.486 25.108 130.57 24.7267 130.57 24.272C130.57 23.8173 130.486 23.436 130.317 23.128C130.156 22.82 129.94 22.589 129.668 22.435C129.397 22.281 129.107 22.204 128.799 22.204C128.484 22.204 128.191 22.281 127.919 22.435C127.648 22.589 127.428 22.82 127.259 23.128C127.091 23.436 127.006 23.8173 127.006 24.272C127.006 24.7267 127.091 25.108 127.259 25.416C127.428 25.724 127.644 25.955 127.908 26.109C128.18 26.263 128.469 26.34 128.777 26.34ZM134.792 27.132C134.147 27.132 133.633 26.9377 133.252 26.549C132.871 26.153 132.68 25.548 132.68 24.734V21.544H133.604V24.635C133.604 25.7717 134.07 26.34 135.001 26.34C135.478 26.34 135.87 26.1713 136.178 25.834C136.493 25.4893 136.651 25.0017 136.651 24.371V21.544H137.575V27H136.739L136.673 26.021C136.504 26.3657 136.251 26.637 135.914 26.835C135.584 27.033 135.21 27.132 134.792 27.132ZM141.252 27C140.753 27 140.361 26.879 140.075 26.637C139.789 26.395 139.646 25.9587 139.646 25.328V22.325H138.7V21.544H139.646L139.767 20.235H140.57V21.544H142.176V22.325H140.57V25.328C140.57 25.6727 140.64 25.9073 140.779 26.032C140.918 26.1493 141.164 26.208 141.516 26.208H142.088V27H141.252ZM32.814 41V33.3H33.738V36.699H37.731V33.3H38.655V41H37.731V37.458H33.738V41H32.814ZM42.0398 41.132C41.5852 41.132 41.2075 41.055 40.9068 40.901C40.6062 40.747 40.3825 40.5417 40.2358 40.285C40.0892 40.0283 40.0158 39.7497 40.0158 39.449C40.0158 38.8917 40.2285 38.4627 40.6538 38.162C41.0792 37.8613 41.6585 37.711 42.3918 37.711H43.8658V37.645C43.8658 37.1683 43.7412 36.809 43.4918 36.567C43.2425 36.3177 42.9088 36.193 42.4908 36.193C42.1315 36.193 41.8198 36.2847 41.5558 36.468C41.2992 36.644 41.1378 36.9043 41.0718 37.249H40.1258C40.1625 36.853 40.2945 36.5193 40.5218 36.248C40.7565 35.9767 41.0462 35.7713 41.3908 35.632C41.7355 35.4853 42.1022 35.412 42.4908 35.412C43.2535 35.412 43.8255 35.6173 44.2068 36.028C44.5955 36.4313 44.7898 36.9703 44.7898 37.645V41H43.9648L43.9098 40.021C43.7558 40.329 43.5285 40.593 43.2278 40.813C42.9345 41.0257 42.5385 41.132 42.0398 41.132ZM42.1828 40.351C42.5348 40.351 42.8355 40.2593 43.0848 40.076C43.3415 39.8927 43.5358 39.6543 43.6678 39.361C43.7998 39.0677 43.8658 38.7597 43.8658 38.437V38.426H42.4688C41.9262 38.426 41.5412 38.5213 41.3138 38.712C41.0938 38.8953 40.9838 39.1263 40.9838 39.405C40.9838 39.691 41.0865 39.922 41.2918 40.098C41.5045 40.2667 41.8015 40.351 42.1828 40.351ZM48.684 41.132C48.1633 41.132 47.694 41.0147 47.276 40.78C46.8653 40.538 46.539 40.2043 46.297 39.779C46.0623 39.3463 45.945 38.844 45.945 38.272C45.945 37.7 46.0623 37.2013 46.297 36.776C46.539 36.3433 46.8653 36.0097 47.276 35.775C47.694 35.533 48.1633 35.412 48.684 35.412C49.3293 35.412 49.872 35.5807 50.312 35.918C50.7593 36.2553 51.0417 36.7063 51.159 37.271H50.213C50.1397 36.9337 49.96 36.6733 49.674 36.49C49.388 36.2993 49.0543 36.204 48.673 36.204C48.365 36.204 48.0753 36.281 47.804 36.435C47.5327 36.589 47.3127 36.82 47.144 37.128C46.9753 37.436 46.891 37.8173 46.891 38.272C46.891 38.7267 46.9753 39.108 47.144 39.416C47.3127 39.724 47.5327 39.9587 47.804 40.12C48.0753 40.274 48.365 40.351 48.673 40.351C49.0543 40.351 49.388 40.2593 49.674 40.076C49.96 39.8853 50.1397 39.6177 50.213 39.273H51.159C51.049 39.823 50.7703 40.2703 50.323 40.615C49.8757 40.9597 49.3293 41.132 48.684 41.132ZM52.4494 41V33.08H53.3734V37.843L55.6064 35.544H56.7394L54.3194 38.008L57.0474 41H55.8704L53.3734 38.173V41H52.4494ZM58.0474 41V33.3H60.4124C61.7691 33.3 62.7664 33.6447 63.4044 34.334C64.0497 35.0233 64.3724 35.9693 64.3724 37.172C64.3724 38.3527 64.0497 39.2877 63.4044 39.977C62.7664 40.659 61.7691 41 60.4124 41H58.0474ZM58.9714 40.23H60.3904C61.1384 40.23 61.7324 40.109 62.1724 39.867C62.6197 39.6177 62.9387 39.2657 63.1294 38.811C63.3201 38.349 63.4154 37.8027 63.4154 37.172C63.4154 36.5267 63.3201 35.973 63.1294 35.511C62.9387 35.049 62.6197 34.6933 62.1724 34.444C61.7324 34.1947 61.1384 34.07 60.3904 34.07H58.9714V40.23ZM67.4666 41.132C67.0119 41.132 66.6342 41.055 66.3336 40.901C66.0329 40.747 65.8092 40.5417 65.6626 40.285C65.5159 40.0283 65.4426 39.7497 65.4426 39.449C65.4426 38.8917 65.6552 38.4627 66.0806 38.162C66.5059 37.8613 67.0852 37.711 67.8186 37.711H69.2926V37.645C69.2926 37.1683 69.1679 36.809 68.9186 36.567C68.6692 36.3177 68.3356 36.193 67.9176 36.193C67.5582 36.193 67.2466 36.2847 66.9826 36.468C66.7259 36.644 66.5646 36.9043 66.4986 37.249H65.5526C65.5892 36.853 65.7212 36.5193 65.9486 36.248C66.1832 35.9767 66.4729 35.7713 66.8176 35.632C67.1622 35.4853 67.5289 35.412 67.9176 35.412C68.6802 35.412 69.2522 35.6173 69.6336 36.028C70.0222 36.4313 70.2166 36.9703 70.2166 37.645V41H69.3916L69.3366 40.021C69.1826 40.329 68.9552 40.593 68.6546 40.813C68.3612 41.0257 67.9652 41.132 67.4666 41.132ZM67.6096 40.351C67.9616 40.351 68.2622 40.2593 68.5116 40.076C68.7682 39.8927 68.9626 39.6543 69.0946 39.361C69.2266 39.0677 69.2926 38.7597 69.2926 38.437V38.426H67.8956C67.3529 38.426 66.9679 38.5213 66.7406 38.712C66.5206 38.8953 66.4106 39.1263 66.4106 39.405C66.4106 39.691 66.5132 39.922 66.7186 40.098C66.9312 40.2667 67.2282 40.351 67.6096 40.351ZM72.9716 41L70.9036 35.544H71.8716L73.5106 40.109L75.1606 35.544H76.1066L74.0386 41H72.9716ZM77.696 34.334C77.5126 34.334 77.3586 34.2753 77.234 34.158C77.1166 34.0333 77.058 33.8793 77.058 33.696C77.058 33.52 77.1166 33.3733 77.234 33.256C77.3586 33.1387 77.5126 33.08 77.696 33.08C77.872 33.08 78.0223 33.1387 78.147 33.256C78.2716 33.3733 78.334 33.52 78.334 33.696C78.334 33.8793 78.2716 34.0333 78.147 34.158C78.0223 34.2753 77.872 34.334 77.696 34.334ZM77.234 41V35.544H78.158V41H77.234ZM81.8568 41.132C81.2041 41.132 80.6615 40.967 80.2288 40.637C79.7961 40.307 79.5431 39.8597 79.4698 39.295H80.4158C80.4745 39.581 80.6248 39.8303 80.8668 40.043C81.1161 40.2483 81.4498 40.351 81.8678 40.351C82.2565 40.351 82.5425 40.2703 82.7258 40.109C82.9091 39.9403 83.0008 39.7423 83.0008 39.515C83.0008 39.185 82.8798 38.965 82.6378 38.855C82.4031 38.745 82.0695 38.646 81.6368 38.558C81.3435 38.4993 81.0501 38.415 80.7568 38.305C80.4635 38.195 80.2178 38.041 80.0198 37.843C79.8218 37.6377 79.7228 37.37 79.7228 37.04C79.7228 36.5633 79.8988 36.1747 80.2508 35.874C80.6101 35.566 81.0941 35.412 81.7028 35.412C82.2821 35.412 82.7551 35.5587 83.1218 35.852C83.4958 36.138 83.7121 36.5487 83.7708 37.084H82.8578C82.8211 36.8053 82.7001 36.589 82.4948 36.435C82.2968 36.2737 82.0291 36.193 81.6918 36.193C81.3618 36.193 81.1051 36.2627 80.9218 36.402C80.7458 36.5413 80.6578 36.7247 80.6578 36.952C80.6578 37.172 80.7715 37.3443 80.9988 37.469C81.2335 37.5937 81.5488 37.7 81.9448 37.788C82.2821 37.8613 82.6011 37.953 82.9018 38.063C83.2098 38.1657 83.4591 38.3233 83.6498 38.536C83.8478 38.7413 83.9468 39.042 83.9468 39.438C83.9541 39.9293 83.7671 40.3363 83.3858 40.659C83.0118 40.9743 82.5021 41.132 81.8568 41.132ZM85.0578 34.862L84.9148 32.695H85.8278L85.6958 34.862H85.0578ZM89.0863 41.132C88.4336 41.132 87.891 40.967 87.4583 40.637C87.0256 40.307 86.7726 39.8597 86.6993 39.295H87.6453C87.704 39.581 87.8543 39.8303 88.0963 40.043C88.3456 40.2483 88.6793 40.351 89.0973 40.351C89.486 40.351 89.772 40.2703 89.9553 40.109C90.1386 39.9403 90.2303 39.7423 90.2303 39.515C90.2303 39.185 90.1093 38.965 89.8673 38.855C89.6326 38.745 89.299 38.646 88.8663 38.558C88.573 38.4993 88.2796 38.415 87.9863 38.305C87.693 38.195 87.4473 38.041 87.2493 37.843C87.0513 37.6377 86.9523 37.37 86.9523 37.04C86.9523 36.5633 87.1283 36.1747 87.4803 35.874C87.8396 35.566 88.3236 35.412 88.9323 35.412C89.5116 35.412 89.9846 35.5587 90.3513 35.852C90.7253 36.138 90.9416 36.5487 91.0003 37.084H90.0873C90.0506 36.8053 89.9296 36.589 89.7243 36.435C89.5263 36.2737 89.2586 36.193 88.9213 36.193C88.5913 36.193 88.3346 36.2627 88.1513 36.402C87.9753 36.5413 87.8873 36.7247 87.8873 36.952C87.8873 37.172 88.001 37.3443 88.2283 37.469C88.463 37.5937 88.7783 37.7 89.1743 37.788C89.5116 37.8613 89.8306 37.953 90.1313 38.063C90.4393 38.1657 90.6886 38.3233 90.8793 38.536C91.0773 38.7413 91.1763 39.042 91.1763 39.438C91.1836 39.9293 90.9966 40.3363 90.6153 40.659C90.2413 40.9743 89.7316 41.132 89.0863 41.132ZM97.9154 41.132C97.3948 41.132 96.9254 41.0147 96.5074 40.78C96.0968 40.538 95.7704 40.2043 95.5284 39.779C95.2938 39.3463 95.1764 38.844 95.1764 38.272C95.1764 37.7 95.2938 37.2013 95.5284 36.776C95.7704 36.3433 96.0968 36.0097 96.5074 35.775C96.9254 35.533 97.3948 35.412 97.9154 35.412C98.5608 35.412 99.1034 35.5807 99.5434 35.918C99.9908 36.2553 100.273 36.7063 100.39 37.271H99.4444C99.3711 36.9337 99.1914 36.6733 98.9054 36.49C98.6194 36.2993 98.2858 36.204 97.9044 36.204C97.5964 36.204 97.3068 36.281 97.0354 36.435C96.7641 36.589 96.5441 36.82 96.3754 37.128C96.2068 37.436 96.1224 37.8173 96.1224 38.272C96.1224 38.7267 96.2068 39.108 96.3754 39.416C96.5441 39.724 96.7641 39.9587 97.0354 40.12C97.3068 40.274 97.5964 40.351 97.9044 40.351C98.2858 40.351 98.6194 40.2593 98.9054 40.076C99.1914 39.8853 99.3711 39.6177 99.4444 39.273H100.39C100.28 39.823 100.002 40.2703 99.5544 40.615C99.1071 40.9597 98.5608 41.132 97.9154 41.132ZM104.167 41.132C103.654 41.132 103.192 41.0147 102.781 40.78C102.37 40.5453 102.044 40.2153 101.802 39.79C101.567 39.3573 101.45 38.8513 101.45 38.272C101.45 37.6927 101.571 37.1903 101.813 36.765C102.055 36.3323 102.381 35.9987 102.792 35.764C103.21 35.5293 103.676 35.412 104.189 35.412C104.702 35.412 105.164 35.5293 105.575 35.764C105.986 35.9987 106.308 36.3323 106.543 36.765C106.785 37.1903 106.906 37.6927 106.906 38.272C106.906 38.8513 106.785 39.3573 106.543 39.79C106.301 40.2153 105.971 40.5453 105.553 40.78C105.142 41.0147 104.68 41.132 104.167 41.132ZM104.167 40.34C104.482 40.34 104.776 40.263 105.047 40.109C105.318 39.955 105.538 39.724 105.707 39.416C105.876 39.108 105.96 38.7267 105.96 38.272C105.96 37.8173 105.876 37.436 105.707 37.128C105.546 36.82 105.329 36.589 105.058 36.435C104.787 36.281 104.497 36.204 104.189 36.204C103.874 36.204 103.58 36.281 103.309 36.435C103.038 36.589 102.818 36.82 102.649 37.128C102.48 37.436 102.396 37.8173 102.396 38.272C102.396 38.7267 102.48 39.108 102.649 39.416C102.818 39.724 103.034 39.955 103.298 40.109C103.569 40.263 103.859 40.34 104.167 40.34ZM108.191 41V35.544H109.027L109.104 36.589C109.272 36.2297 109.529 35.9437 109.874 35.731C110.218 35.5183 110.644 35.412 111.15 35.412V36.38H110.897C110.574 36.38 110.277 36.4387 110.006 36.556C109.734 36.666 109.518 36.8567 109.357 37.128C109.195 37.3993 109.115 37.7733 109.115 38.25V41H108.191ZM114.436 41.132C113.915 41.132 113.453 41.0147 113.05 40.78C112.646 40.538 112.327 40.2043 112.093 39.779C111.865 39.3537 111.752 38.8513 111.752 38.272C111.752 37.7 111.865 37.2013 112.093 36.776C112.32 36.3433 112.635 36.0097 113.039 35.775C113.449 35.533 113.922 35.412 114.458 35.412C114.986 35.412 115.44 35.533 115.822 35.775C116.21 36.0097 116.507 36.3213 116.713 36.71C116.918 37.0987 117.021 37.5167 117.021 37.964C117.021 38.0447 117.017 38.1253 117.01 38.206C117.01 38.2867 117.01 38.3783 117.01 38.481H112.665C112.687 38.899 112.782 39.2473 112.951 39.526C113.127 39.7973 113.343 40.0027 113.6 40.142C113.864 40.2813 114.142 40.351 114.436 40.351C114.817 40.351 115.136 40.263 115.393 40.087C115.649 39.911 115.836 39.6727 115.954 39.372H116.867C116.72 39.878 116.438 40.2997 116.02 40.637C115.609 40.967 115.081 41.132 114.436 41.132ZM114.436 36.193C113.996 36.193 113.603 36.3287 113.259 36.6C112.921 36.864 112.727 37.2527 112.676 37.766H116.108C116.086 37.2747 115.917 36.8897 115.602 36.611C115.286 36.3323 114.898 36.193 114.436 36.193ZM122.729 41L120.661 35.544H121.629L123.268 40.109L124.918 35.544H125.864L123.796 41H122.729ZM128.428 41.132C127.974 41.132 127.596 41.055 127.295 40.901C126.995 40.747 126.771 40.5417 126.624 40.285C126.478 40.0283 126.404 39.7497 126.404 39.449C126.404 38.8917 126.617 38.4627 127.042 38.162C127.468 37.8613 128.047 37.711 128.78 37.711H130.254V37.645C130.254 37.1683 130.13 36.809 129.88 36.567C129.631 36.3177 129.297 36.193 128.879 36.193C128.52 36.193 128.208 36.2847 127.944 36.468C127.688 36.644 127.526 36.9043 127.46 37.249H126.514C126.551 36.853 126.683 36.5193 126.91 36.248C127.145 35.9767 127.435 35.7713 127.779 35.632C128.124 35.4853 128.491 35.412 128.879 35.412C129.642 35.412 130.214 35.6173 130.595 36.028C130.984 36.4313 131.178 36.9703 131.178 37.645V41H130.353L130.298 40.021C130.144 40.329 129.917 40.593 129.616 40.813C129.323 41.0257 128.927 41.132 128.428 41.132ZM128.571 40.351C128.923 40.351 129.224 40.2593 129.473 40.076C129.73 39.8927 129.924 39.6543 130.056 39.361C130.188 39.0677 130.254 38.7597 130.254 38.437V38.426H128.857C128.315 38.426 127.93 38.5213 127.702 38.712C127.482 38.8953 127.372 39.1263 127.372 39.405C127.372 39.691 127.475 39.922 127.68 40.098C127.893 40.2667 128.19 40.351 128.571 40.351ZM132.565 41V33.08H133.489V41H132.565ZM136.994 41.132C136.349 41.132 135.835 40.9377 135.454 40.549C135.073 40.153 134.882 39.548 134.882 38.734V35.544H135.806V38.635C135.806 39.7717 136.272 40.34 137.203 40.34C137.68 40.34 138.072 40.1713 138.38 39.834C138.695 39.4893 138.853 39.0017 138.853 38.371V35.544H139.777V41H138.941L138.875 40.021C138.706 40.3657 138.453 40.637 138.116 40.835C137.786 41.033 137.412 41.132 136.994 41.132ZM143.751 41.132C143.23 41.132 142.768 41.0147 142.365 40.78C141.962 40.538 141.643 40.2043 141.408 39.779C141.181 39.3537 141.067 38.8513 141.067 38.272C141.067 37.7 141.181 37.2013 141.408 36.776C141.635 36.3433 141.951 36.0097 142.354 35.775C142.765 35.533 143.238 35.412 143.773 35.412C144.301 35.412 144.756 35.533 145.137 35.775C145.526 36.0097 145.823 36.3213 146.028 36.71C146.233 37.0987 146.336 37.5167 146.336 37.964C146.336 38.0447 146.332 38.1253 146.325 38.206C146.325 38.2867 146.325 38.3783 146.325 38.481H141.98C142.002 38.899 142.097 39.2473 142.266 39.526C142.442 39.7973 142.658 40.0027 142.915 40.142C143.179 40.2813 143.458 40.351 143.751 40.351C144.132 40.351 144.451 40.263 144.708 40.087C144.965 39.911 145.152 39.6727 145.269 39.372H146.182C146.035 39.878 145.753 40.2997 145.335 40.637C144.924 40.967 144.396 41.132 143.751 41.132ZM143.751 36.193C143.311 36.193 142.919 36.3287 142.574 36.6C142.237 36.864 142.042 37.2527 141.991 37.766H145.423C145.401 37.2747 145.232 36.8897 144.917 36.611C144.602 36.3323 144.213 36.193 143.751 36.193ZM149.651 41.132C148.998 41.132 148.455 40.967 148.023 40.637C147.59 40.307 147.337 39.8597 147.264 39.295H148.21C148.268 39.581 148.419 39.8303 148.661 40.043C148.91 40.2483 149.244 40.351 149.662 40.351C150.05 40.351 150.336 40.2703 150.52 40.109C150.703 39.9403 150.795 39.7423 150.795 39.515C150.795 39.185 150.674 38.965 150.432 38.855C150.197 38.745 149.863 38.646 149.431 38.558C149.137 38.4993 148.844 38.415 148.551 38.305C148.257 38.195 148.012 38.041 147.814 37.843C147.616 37.6377 147.517 37.37 147.517 37.04C147.517 36.5633 147.693 36.1747 148.045 35.874C148.404 35.566 148.888 35.412 149.497 35.412C150.076 35.412 150.549 35.5587 150.916 35.852C151.29 36.138 151.506 36.5487 151.565 37.084H150.652C150.615 36.8053 150.494 36.589 150.289 36.435C150.091 36.2737 149.823 36.193 149.486 36.193C149.156 36.193 148.899 36.2627 148.716 36.402C148.54 36.5413 148.452 36.7247 148.452 36.952C148.452 37.172 148.565 37.3443 148.793 37.469C149.027 37.5937 149.343 37.7 149.739 37.788C150.076 37.8613 150.395 37.953 150.696 38.063C151.004 38.1657 151.253 38.3233 151.444 38.536C151.642 38.7413 151.741 39.042 151.741 39.438C151.748 39.9293 151.561 40.3363 151.18 40.659C150.806 40.9743 150.296 41.132 149.651 41.132ZM157.787 41.132C157.332 41.132 156.955 41.055 156.654 40.901C156.353 40.747 156.13 40.5417 155.983 40.285C155.836 40.0283 155.763 39.7497 155.763 39.449C155.763 38.8917 155.976 38.4627 156.401 38.162C156.826 37.8613 157.406 37.711 158.139 37.711H159.613V37.645C159.613 37.1683 159.488 36.809 159.239 36.567C158.99 36.3177 158.656 36.193 158.238 36.193C157.879 36.193 157.567 36.2847 157.303 36.468C157.046 36.644 156.885 36.9043 156.819 37.249H155.873C155.91 36.853 156.042 36.5193 156.269 36.248C156.504 35.9767 156.793 35.7713 157.138 35.632C157.483 35.4853 157.849 35.412 158.238 35.412C159.001 35.412 159.573 35.6173 159.954 36.028C160.343 36.4313 160.537 36.9703 160.537 37.645V41H159.712L159.657 40.021C159.503 40.329 159.276 40.593 158.975 40.813C158.682 41.0257 158.286 41.132 157.787 41.132ZM157.93 40.351C158.282 40.351 158.583 40.2593 158.832 40.076C159.089 39.8927 159.283 39.6543 159.415 39.361C159.547 39.0677 159.613 38.7597 159.613 38.437V38.426H158.216C157.673 38.426 157.288 38.5213 157.061 38.712C156.841 38.8953 156.731 39.1263 156.731 39.405C156.731 39.691 156.834 39.922 157.039 40.098C157.252 40.2667 157.549 40.351 157.93 40.351ZM161.923 41V35.544H162.759L162.814 36.523C162.99 36.1783 163.243 35.907 163.573 35.709C163.903 35.511 164.277 35.412 164.695 35.412C165.34 35.412 165.854 35.61 166.235 36.006C166.624 36.3947 166.818 36.996 166.818 37.81V41H165.894V37.909C165.894 36.7723 165.425 36.204 164.486 36.204C164.017 36.204 163.624 36.3763 163.309 36.721C163.001 37.0583 162.847 37.5423 162.847 38.173V41H161.923ZM170.693 41.132C170.15 41.132 169.674 41.0073 169.263 40.758C168.86 40.5087 168.544 40.1677 168.317 39.735C168.097 39.3023 167.987 38.811 167.987 38.261C167.987 37.711 168.101 37.2233 168.328 36.798C168.555 36.3653 168.871 36.028 169.274 35.786C169.677 35.5367 170.154 35.412 170.704 35.412C171.151 35.412 171.547 35.5037 171.892 35.687C172.237 35.8703 172.504 36.127 172.695 36.457V33.08H173.619V41H172.783L172.695 40.098C172.519 40.362 172.266 40.6003 171.936 40.813C171.606 41.0257 171.192 41.132 170.693 41.132ZM170.792 40.329C171.159 40.329 171.481 40.2447 171.76 40.076C172.046 39.9 172.266 39.658 172.42 39.35C172.581 39.042 172.662 38.6827 172.662 38.272C172.662 37.8613 172.581 37.502 172.42 37.194C172.266 36.886 172.046 36.6477 171.76 36.479C171.481 36.303 171.159 36.215 170.792 36.215C170.433 36.215 170.11 36.303 169.824 36.479C169.545 36.6477 169.325 36.886 169.164 37.194C169.01 37.502 168.933 37.8613 168.933 38.272C168.933 38.6827 169.01 39.042 169.164 39.35C169.325 39.658 169.545 39.9 169.824 40.076C170.11 40.2447 170.433 40.329 170.792 40.329ZM33.859 55L32.264 49.544H33.188L34.343 53.823L35.619 49.544H36.664L37.951 53.823L39.095 49.544H40.03L38.435 55H37.489L36.147 50.501L34.805 55H33.859ZM41.052 55V47.08H41.976V50.479C42.1593 50.1417 42.4196 49.8813 42.757 49.698C43.0943 49.5073 43.461 49.412 43.857 49.412C44.4876 49.412 44.9936 49.61 45.375 50.006C45.7563 50.3947 45.947 50.996 45.947 51.81V55H45.034V51.909C45.034 50.7723 44.5756 50.204 43.659 50.204C43.1823 50.204 42.7826 50.3763 42.46 50.721C42.1373 51.0583 41.976 51.5423 41.976 52.173V55H41.052ZM49.1619 55.132C48.7072 55.132 48.3296 55.055 48.0289 54.901C47.7282 54.747 47.5046 54.5417 47.3579 54.285C47.2112 54.0283 47.1379 53.7497 47.1379 53.449C47.1379 52.8917 47.3506 52.4627 47.7759 52.162C48.2012 51.8613 48.7806 51.711 49.5139 51.711H50.9879V51.645C50.9879 51.1683 50.8632 50.809 50.6139 50.567C50.3646 50.3177 50.0309 50.193 49.6129 50.193C49.2536 50.193 48.9419 50.2847 48.6779 50.468C48.4212 50.644 48.2599 50.9043 48.1939 51.249H47.2479C47.2846 50.853 47.4166 50.5193 47.6439 50.248C47.8786 49.9767 48.1682 49.7713 48.5129 49.632C48.8576 49.4853 49.2242 49.412 49.6129 49.412C50.3756 49.412 50.9476 49.6173 51.3289 50.028C51.7176 50.4313 51.9119 50.9703 51.9119 51.645V55H51.0869L51.0319 54.021C50.8779 54.329 50.6506 54.593 50.3499 54.813C50.0566 55.0257 49.6606 55.132 49.1619 55.132ZM49.3049 54.351C49.6569 54.351 49.9576 54.2593 50.2069 54.076C50.4636 53.8927 50.6579 53.6543 50.7899 53.361C50.9219 53.0677 50.9879 52.7597 50.9879 52.437V52.426H49.5909C49.0482 52.426 48.6632 52.5213 48.4359 52.712C48.2159 52.8953 48.1059 53.1263 48.1059 53.405C48.1059 53.691 48.2086 53.922 48.4139 54.098C48.6266 54.2667 48.9236 54.351 49.3049 54.351ZM55.3037 55C54.805 55 54.4127 54.879 54.1267 54.637C53.8407 54.395 53.6977 53.9587 53.6977 53.328V50.325H52.7517V49.544H53.6977L53.8187 48.235H54.6217V49.544H56.2277V50.325H54.6217V53.328C54.6217 53.6727 54.6913 53.9073 54.8307 54.032C54.97 54.1493 55.2157 54.208 55.5677 54.208H56.1397V55H55.3037ZM61.4127 55L59.8177 49.544H60.7417L61.8967 53.823L63.1727 49.544H64.2177L65.5047 53.823L66.6487 49.544H67.5837L65.9887 55H65.0427L63.7007 50.501L62.3587 55H61.4127ZM70.8546 55.132C70.3339 55.132 69.8719 55.0147 69.4686 54.78C69.0652 54.538 68.7462 54.2043 68.5116 53.779C68.2842 53.3537 68.1706 52.8513 68.1706 52.272C68.1706 51.7 68.2842 51.2013 68.5116 50.776C68.7389 50.3433 69.0542 50.0097 69.4576 49.775C69.8682 49.533 70.3412 49.412 70.8766 49.412C71.4046 49.412 71.8592 49.533 72.2406 49.775C72.6292 50.0097 72.9262 50.3213 73.1316 50.71C73.3369 51.0987 73.4396 51.5167 73.4396 51.964C73.4396 52.0447 73.4359 52.1253 73.4286 52.206C73.4286 52.2867 73.4286 52.3783 73.4286 52.481H69.0836C69.1056 52.899 69.2009 53.2473 69.3696 53.526C69.5456 53.7973 69.7619 54.0027 70.0186 54.142C70.2826 54.2813 70.5612 54.351 70.8546 54.351C71.2359 54.351 71.5549 54.263 71.8116 54.087C72.0682 53.911 72.2552 53.6727 72.3726 53.372H73.2856C73.1389 53.878 72.8566 54.2997 72.4386 54.637C72.0279 54.967 71.4999 55.132 70.8546 55.132ZM70.8546 50.193C70.4146 50.193 70.0222 50.3287 69.6776 50.6C69.3402 50.864 69.1459 51.2527 69.0946 51.766H72.5266C72.5046 51.2747 72.3359 50.8897 72.0206 50.611C71.7052 50.3323 71.3166 50.193 70.8546 50.193ZM79.6654 55.132C79.0127 55.132 78.4701 54.967 78.0374 54.637C77.6047 54.307 77.3517 53.8597 77.2784 53.295H78.2244C78.2831 53.581 78.4334 53.8303 78.6754 54.043C78.9247 54.2483 79.2584 54.351 79.6764 54.351C80.0651 54.351 80.3511 54.2703 80.5344 54.109C80.7177 53.9403 80.8094 53.7423 80.8094 53.515C80.8094 53.185 80.6884 52.965 80.4464 52.855C80.2117 52.745 79.8781 52.646 79.4454 52.558C79.1521 52.4993 78.8587 52.415 78.5654 52.305C78.2721 52.195 78.0264 52.041 77.8284 51.843C77.6304 51.6377 77.5314 51.37 77.5314 51.04C77.5314 50.5633 77.7074 50.1747 78.0594 49.874C78.4187 49.566 78.9027 49.412 79.5114 49.412C80.0907 49.412 80.5637 49.5587 80.9304 49.852C81.3044 50.138 81.5207 50.5487 81.5794 51.084H80.6664C80.6297 50.8053 80.5087 50.589 80.3034 50.435C80.1054 50.2737 79.8377 50.193 79.5004 50.193C79.1704 50.193 78.9137 50.2627 78.7304 50.402C78.5544 50.5413 78.4664 50.7247 78.4664 50.952C78.4664 51.172 78.5801 51.3443 78.8074 51.469C79.0421 51.5937 79.3574 51.7 79.7534 51.788C80.0907 51.8613 80.4097 51.953 80.7104 52.063C81.0184 52.1657 81.2677 52.3233 81.4584 52.536C81.6564 52.7413 81.7554 53.042 81.7554 53.438C81.7627 53.9293 81.5757 54.3363 81.1944 54.659C80.8204 54.9743 80.3107 55.132 79.6654 55.132ZM84.9843 55C84.4857 55 84.0933 54.879 83.8073 54.637C83.5213 54.395 83.3783 53.9587 83.3783 53.328V50.325H82.4323V49.544H83.3783L83.4993 48.235H84.3023V49.544H85.9083V50.325H84.3023V53.328C84.3023 53.6727 84.372 53.9073 84.5113 54.032C84.6507 54.1493 84.8963 54.208 85.2483 54.208H85.8203V55H84.9843ZM88.8972 55.132C88.4426 55.132 88.0649 55.055 87.7642 54.901C87.4636 54.747 87.2399 54.5417 87.0932 54.285C86.9466 54.0283 86.8732 53.7497 86.8732 53.449C86.8732 52.8917 87.0859 52.4627 87.5112 52.162C87.9366 51.8613 88.5159 51.711 89.2492 51.711H90.7232V51.645C90.7232 51.1683 90.5986 50.809 90.3492 50.567C90.0999 50.3177 89.7662 50.193 89.3482 50.193C88.9889 50.193 88.6772 50.2847 88.4132 50.468C88.1566 50.644 87.9952 50.9043 87.9292 51.249H86.9832C87.0199 50.853 87.1519 50.5193 87.3792 50.248C87.6139 49.9767 87.9036 49.7713 88.2482 49.632C88.5929 49.4853 88.9596 49.412 89.3482 49.412C90.1109 49.412 90.6829 49.6173 91.0642 50.028C91.4529 50.4313 91.6472 50.9703 91.6472 51.645V55H90.8222L90.7672 54.021C90.6132 54.329 90.3859 54.593 90.0852 54.813C89.7919 55.0257 89.3959 55.132 88.8972 55.132ZM89.0402 54.351C89.3922 54.351 89.6929 54.2593 89.9422 54.076C90.1989 53.8927 90.3932 53.6543 90.5252 53.361C90.6572 53.0677 90.7232 52.7597 90.7232 52.437V52.426H89.3262C88.7836 52.426 88.3986 52.5213 88.1712 52.712C87.9512 52.8953 87.8412 53.1263 87.8412 53.405C87.8412 53.691 87.9439 53.922 88.1492 54.098C88.3619 54.2667 88.6589 54.351 89.0402 54.351ZM93.0334 55V49.544H93.8694L93.9244 50.523C94.1004 50.1783 94.3534 49.907 94.6834 49.709C95.0134 49.511 95.3874 49.412 95.8054 49.412C96.4507 49.412 96.9641 49.61 97.3454 50.006C97.7341 50.3947 97.9284 50.996 97.9284 51.81V55H97.0044V51.909C97.0044 50.7723 96.5351 50.204 95.5964 50.204C95.1271 50.204 94.7347 50.3763 94.4194 50.721C94.1114 51.0583 93.9574 51.5423 93.9574 52.173V55H93.0334ZM101.803 55.132C101.261 55.132 100.784 55.0073 100.373 54.758C99.97 54.5087 99.6547 54.1677 99.4273 53.735C99.2073 53.3023 99.0973 52.811 99.0973 52.261C99.0973 51.711 99.211 51.2233 99.4383 50.798C99.6657 50.3653 99.981 50.028 100.384 49.786C100.788 49.5367 101.264 49.412 101.814 49.412C102.262 49.412 102.658 49.5037 103.002 49.687C103.347 49.8703 103.615 50.127 103.805 50.457V47.08H104.729V55H103.893L103.805 54.098C103.629 54.362 103.376 54.6003 103.046 54.813C102.716 55.0257 102.302 55.132 101.803 55.132ZM101.902 54.329C102.269 54.329 102.592 54.2447 102.87 54.076C103.156 53.9 103.376 53.658 103.53 53.35C103.692 53.042 103.772 52.6827 103.772 52.272C103.772 51.8613 103.692 51.502 103.53 51.194C103.376 50.886 103.156 50.6477 102.87 50.479C102.592 50.303 102.269 50.215 101.902 50.215C101.543 50.215 101.22 50.303 100.934 50.479C100.656 50.6477 100.436 50.886 100.274 51.194C100.12 51.502 100.043 51.8613 100.043 52.272C100.043 52.6827 100.12 53.042 100.274 53.35C100.436 53.658 100.656 53.9 100.934 54.076C101.22 54.2447 101.543 54.329 101.902 54.329ZM109.444 55V50.325H108.619V49.544H109.444V48.598C109.444 48.07 109.576 47.685 109.84 47.443C110.104 47.201 110.489 47.08 110.995 47.08H111.545V47.872H111.138C110.859 47.872 110.661 47.9307 110.544 48.048C110.426 48.158 110.368 48.3487 110.368 48.62V49.544H111.71V50.325H110.368V55H109.444ZM115.081 55.132C114.568 55.132 114.106 55.0147 113.695 54.78C113.284 54.5453 112.958 54.2153 112.716 53.79C112.481 53.3573 112.364 52.8513 112.364 52.272C112.364 51.6927 112.485 51.1903 112.727 50.765C112.969 50.3323 113.295 49.9987 113.706 49.764C114.124 49.5293 114.59 49.412 115.103 49.412C115.616 49.412 116.078 49.5293 116.489 49.764C116.9 49.9987 117.222 50.3323 117.457 50.765C117.699 51.1903 117.82 51.6927 117.82 52.272C117.82 52.8513 117.699 53.3573 117.457 53.79C117.215 54.2153 116.885 54.5453 116.467 54.78C116.056 55.0147 115.594 55.132 115.081 55.132ZM115.081 54.34C115.396 54.34 115.69 54.263 115.961 54.109C116.232 53.955 116.452 53.724 116.621 53.416C116.79 53.108 116.874 52.7267 116.874 52.272C116.874 51.8173 116.79 51.436 116.621 51.128C116.46 50.82 116.243 50.589 115.972 50.435C115.701 50.281 115.411 50.204 115.103 50.204C114.788 50.204 114.494 50.281 114.223 50.435C113.952 50.589 113.732 50.82 113.563 51.128C113.394 51.436 113.31 51.8173 113.31 52.272C113.31 52.7267 113.394 53.108 113.563 53.416C113.732 53.724 113.948 53.955 114.212 54.109C114.483 54.263 114.773 54.34 115.081 54.34ZM119.105 55V49.544H119.941L120.018 50.589C120.186 50.2297 120.443 49.9437 120.788 49.731C121.132 49.5183 121.558 49.412 122.064 49.412V50.38H121.811C121.488 50.38 121.191 50.4387 120.92 50.556C120.648 50.666 120.432 50.8567 120.271 51.128C120.109 51.3993 120.029 51.7733 120.029 52.25V55H119.105Z" fill="black"/>
</g>
<defs>
<filter id="filter0_d_162_5902" x="16" y="0" width="192" height="74" filterUnits="userSpaceOnUse" color-interpolation-filters="sRGB">
<feFlood flood-opacity="0" result="BackgroundImageFix"/>
<feColorMatrix in="SourceAlpha" type="matrix" values="0 0 0 0 0 0 0 0 0 0 0 0 0 0 0 0 0 0 127 0" result="hardAlpha"/>
<feOffset/>
<feGaussianBlur stdDeviation="4"/>
<feComposite in2="hardAlpha" operator="out"/>
<feColorMatrix type="matrix" values="0 0 0 0 0 0 0 0 0 0 0 0 0 0 0 0 0 0 0.15 0"/>
<feBlend mode="normal" in2="BackgroundImageFix" result="effect1_dropShadow_162_5902"/>
<feBlend mode="normal" in="SourceGraphic" in2="effect1_dropShadow_162_5902" result="shape"/>
</filter>
</defs>
</svg>
