<svg width="208" height="88" viewBox="0 0 208 88" fill="none" xmlns="http://www.w3.org/2000/svg">
<circle cx="4" cy="44" r="4" fill="#005271"/>
<line x1="8" y1="43.5" x2="24" y2="43.5" stroke="#005271" stroke-dasharray="2 2"/>
<g filter="url(#filter0_d_162_5920)">
<rect x="24" y="8" width="176" height="72" rx="4" fill="white" shape-rendering="crispEdges"/>
<path d="M32.814 27V19.3H35.344C35.9453 19.3 36.4403 19.399 36.829 19.597C37.2177 19.795 37.5037 20.0627 37.687 20.4C37.8777 20.7373 37.973 21.1187 37.973 21.544C37.973 21.962 37.8813 22.3397 37.698 22.677C37.5147 23.0143 37.2287 23.2857 36.84 23.491C36.4513 23.689 35.9527 23.788 35.344 23.788H33.738V27H32.814ZM33.738 23.007H35.322C35.938 23.007 36.3743 22.8787 36.631 22.622C36.895 22.358 37.027 21.9987 37.027 21.544C37.027 21.082 36.895 20.7227 36.631 20.466C36.3743 20.202 35.938 20.07 35.322 20.07H33.738V23.007ZM41.2929 27.132C40.7795 27.132 40.3175 27.0147 39.9069 26.78C39.4962 26.5453 39.1699 26.2153 38.9279 25.79C38.6932 25.3573 38.5759 24.8513 38.5759 24.272C38.5759 23.6927 38.6969 23.1903 38.9389 22.765C39.1809 22.3323 39.5072 21.9987 39.9179 21.764C40.3359 21.5293 40.8015 21.412 41.3149 21.412C41.8282 21.412 42.2902 21.5293 42.7009 21.764C43.1115 21.9987 43.4342 22.3323 43.6689 22.765C43.9109 23.1903 44.0319 23.6927 44.0319 24.272C44.0319 24.8513 43.9109 25.3573 43.6689 25.79C43.4269 26.2153 43.0969 26.5453 42.6789 26.78C42.2682 27.0147 41.8062 27.132 41.2929 27.132ZM41.2929 26.34C41.6082 26.34 41.9015 26.263 42.1729 26.109C42.4442 25.955 42.6642 25.724 42.8329 25.416C43.0015 25.108 43.0859 24.7267 43.0859 24.272C43.0859 23.8173 43.0015 23.436 42.8329 23.128C42.6715 22.82 42.4552 22.589 42.1839 22.435C41.9125 22.281 41.6229 22.204 41.3149 22.204C40.9995 22.204 40.7062 22.281 40.4349 22.435C40.1635 22.589 39.9435 22.82 39.7749 23.128C39.6062 23.436 39.5219 23.8173 39.5219 24.272C39.5219 24.7267 39.6062 25.108 39.7749 25.416C39.9435 25.724 40.1599 25.955 40.4239 26.109C40.6952 26.263 40.9849 26.34 41.2929 26.34ZM47.2578 27C46.7591 27 46.3668 26.879 46.0808 26.637C45.7948 26.395 45.6518 25.9587 45.6518 25.328V22.325H44.7058V21.544H45.6518L45.7728 20.235H46.5758V21.544H48.1818V22.325H46.5758V25.328C46.5758 25.6727 46.6454 25.9073 46.7848 26.032C46.9241 26.1493 47.1698 26.208 47.5218 26.208H48.0938V27H47.2578ZM51.6583 27.132C51.1376 27.132 50.6756 27.0147 50.2723 26.78C49.869 26.538 49.55 26.2043 49.3153 25.779C49.088 25.3537 48.9743 24.8513 48.9743 24.272C48.9743 23.7 49.088 23.2013 49.3153 22.776C49.5426 22.3433 49.858 22.0097 50.2613 21.775C50.672 21.533 51.145 21.412 51.6803 21.412C52.2083 21.412 52.663 21.533 53.0443 21.775C53.433 22.0097 53.73 22.3213 53.9353 22.71C54.1406 23.0987 54.2433 23.5167 54.2433 23.964C54.2433 24.0447 54.2396 24.1253 54.2323 24.206C54.2323 24.2867 54.2323 24.3783 54.2323 24.481H49.8873C49.9093 24.899 50.0046 25.2473 50.1733 25.526C50.3493 25.7973 50.5656 26.0027 50.8223 26.142C51.0863 26.2813 51.365 26.351 51.6583 26.351C52.0396 26.351 52.3586 26.263 52.6153 26.087C52.872 25.911 53.059 25.6727 53.1763 25.372H54.0893C53.9426 25.878 53.6603 26.2997 53.2423 26.637C52.8316 26.967 52.3036 27.132 51.6583 27.132ZM51.6583 22.193C51.2183 22.193 50.826 22.3287 50.4813 22.6C50.144 22.864 49.9496 23.2527 49.8983 23.766H53.3303C53.3083 23.2747 53.1396 22.8897 52.8243 22.611C52.509 22.3323 52.1203 22.193 51.6583 22.193ZM55.468 27V21.544H56.304L56.359 22.523C56.535 22.1783 56.788 21.907 57.118 21.709C57.448 21.511 57.822 21.412 58.24 21.412C58.8853 21.412 59.3987 21.61 59.78 22.006C60.1687 22.3947 60.363 22.996 60.363 23.81V27H59.439V23.909C59.439 22.7723 58.9697 22.204 58.031 22.204C57.5617 22.204 57.1693 22.3763 56.854 22.721C56.546 23.0583 56.392 23.5423 56.392 24.173V27H55.468ZM63.9189 27C63.4202 27 63.0279 26.879 62.7419 26.637C62.4559 26.395 62.3129 25.9587 62.3129 25.328V22.325H61.3669V21.544H62.3129L62.4339 20.235H63.2369V21.544H64.8429V22.325H63.2369V25.328C63.2369 25.6727 63.3066 25.9073 63.4459 26.032C63.5852 26.1493 63.8309 26.208 64.1829 26.208H64.7549V27H63.9189ZM66.5778 20.334C66.3945 20.334 66.2405 20.2753 66.1158 20.158C65.9985 20.0333 65.9398 19.8793 65.9398 19.696C65.9398 19.52 65.9985 19.3733 66.1158 19.256C66.2405 19.1387 66.3945 19.08 66.5778 19.08C66.7538 19.08 66.9041 19.1387 67.0288 19.256C67.1535 19.3733 67.2158 19.52 67.2158 19.696C67.2158 19.8793 67.1535 20.0333 67.0288 20.158C66.9041 20.2753 66.7538 20.334 66.5778 20.334ZM66.1158 27V21.544H67.0398V27H66.1158ZM70.4636 27.132C70.009 27.132 69.6313 27.055 69.3306 26.901C69.03 26.747 68.8063 26.5417 68.6596 26.285C68.513 26.0283 68.4396 25.7497 68.4396 25.449C68.4396 24.8917 68.6523 24.4627 69.0776 24.162C69.503 23.8613 70.0823 23.711 70.8156 23.711H72.2896V23.645C72.2896 23.1683 72.165 22.809 71.9156 22.567C71.6663 22.3177 71.3326 22.193 70.9146 22.193C70.5553 22.193 70.2436 22.2847 69.9796 22.468C69.723 22.644 69.5616 22.9043 69.4956 23.249H68.5496C68.5863 22.853 68.7183 22.5193 68.9456 22.248C69.1803 21.9767 69.47 21.7713 69.8146 21.632C70.1593 21.4853 70.526 21.412 70.9146 21.412C71.6773 21.412 72.2493 21.6173 72.6306 22.028C73.0193 22.4313 73.2136 22.9703 73.2136 23.645V27H72.3886L72.3336 26.021C72.1796 26.329 71.9523 26.593 71.6516 26.813C71.3583 27.0257 70.9623 27.132 70.4636 27.132ZM70.6066 26.351C70.9586 26.351 71.2593 26.2593 71.5086 26.076C71.7653 25.8927 71.9596 25.6543 72.0916 25.361C72.2236 25.0677 72.2896 24.7597 72.2896 24.437V24.426H70.8926C70.35 24.426 69.965 24.5213 69.7376 24.712C69.5176 24.8953 69.4076 25.1263 69.4076 25.405C69.4076 25.691 69.5103 25.922 69.7156 26.098C69.9283 26.2667 70.2253 26.351 70.6066 26.351ZM74.5998 27V19.08H75.5238V27H74.5998ZM79.9494 29.42V21.544H80.7854L80.8734 22.446C81.0494 22.182 81.2988 21.9437 81.6214 21.731C81.9514 21.5183 82.3694 21.412 82.8754 21.412C83.4181 21.412 83.8911 21.5367 84.2944 21.786C84.6978 22.0353 85.0094 22.3763 85.2294 22.809C85.4568 23.2417 85.5704 23.733 85.5704 24.283C85.5704 24.833 85.4568 25.3243 85.2294 25.757C85.0094 26.1823 84.6941 26.5197 84.2834 26.769C83.8801 27.011 83.4071 27.132 82.8644 27.132C82.4171 27.132 82.0174 27.0403 81.6654 26.857C81.3208 26.6737 81.0568 26.417 80.8734 26.087V29.42H79.9494ZM82.7654 26.329C83.1321 26.329 83.4548 26.2447 83.7334 26.076C84.0121 25.9 84.2321 25.658 84.3934 25.35C84.5548 25.042 84.6354 24.6827 84.6354 24.272C84.6354 23.8613 84.5548 23.502 84.3934 23.194C84.2321 22.886 84.0121 22.6477 83.7334 22.479C83.4548 22.303 83.1321 22.215 82.7654 22.215C82.3988 22.215 82.0761 22.303 81.7974 22.479C81.5188 22.6477 81.2988 22.886 81.1374 23.194C80.9761 23.502 80.8954 23.8613 80.8954 24.272C80.8954 24.6827 80.9761 25.042 81.1374 25.35C81.2988 25.658 81.5188 25.9 81.7974 26.076C82.0761 26.2447 82.3988 26.329 82.7654 26.329ZM88.6717 27.132C88.217 27.132 87.8393 27.055 87.5387 26.901C87.238 26.747 87.0143 26.5417 86.8677 26.285C86.721 26.0283 86.6477 25.7497 86.6477 25.449C86.6477 24.8917 86.8603 24.4627 87.2857 24.162C87.711 23.8613 88.2903 23.711 89.0237 23.711H90.4977V23.645C90.4977 23.1683 90.373 22.809 90.1237 22.567C89.8743 22.3177 89.5407 22.193 89.1227 22.193C88.7633 22.193 88.4517 22.2847 88.1877 22.468C87.931 22.644 87.7697 22.9043 87.7037 23.249H86.7577C86.7943 22.853 86.9263 22.5193 87.1537 22.248C87.3883 21.9767 87.678 21.7713 88.0227 21.632C88.3673 21.4853 88.734 21.412 89.1227 21.412C89.8853 21.412 90.4573 21.6173 90.8387 22.028C91.2273 22.4313 91.4217 22.9703 91.4217 23.645V27H90.5967L90.5417 26.021C90.3877 26.329 90.1603 26.593 89.8597 26.813C89.5663 27.0257 89.1703 27.132 88.6717 27.132ZM88.8147 26.351C89.1667 26.351 89.4673 26.2593 89.7167 26.076C89.9733 25.8927 90.1677 25.6543 90.2997 25.361C90.4317 25.0677 90.4977 24.7597 90.4977 24.437V24.426H89.1007C88.558 24.426 88.173 24.5213 87.9457 24.712C87.7257 24.8953 87.6157 25.1263 87.6157 25.405C87.6157 25.691 87.7183 25.922 87.9237 26.098C88.1363 26.2667 88.4333 26.351 88.8147 26.351ZM92.8078 27V21.544H93.6438L93.7208 22.589C93.8895 22.2297 94.1462 21.9437 94.4908 21.731C94.8355 21.5183 95.2608 21.412 95.7668 21.412V22.38H95.5138C95.1912 22.38 94.8942 22.4387 94.6228 22.556C94.3515 22.666 94.1352 22.8567 93.9738 23.128C93.8125 23.3993 93.7318 23.7733 93.7318 24.25V27H92.8078ZM98.9599 27C98.4613 27 98.0689 26.879 97.7829 26.637C97.4969 26.395 97.3539 25.9587 97.3539 25.328V22.325H96.4079V21.544H97.3539L97.4749 20.235H98.2779V21.544H99.8839V22.325H98.2779V25.328C98.2779 25.6727 98.3476 25.9073 98.4869 26.032C98.6263 26.1493 98.8719 26.208 99.2239 26.208H99.7959V27H98.9599ZM101.619 20.334C101.435 20.334 101.281 20.2753 101.157 20.158C101.039 20.0333 100.981 19.8793 100.981 19.696C100.981 19.52 101.039 19.3733 101.157 19.256C101.281 19.1387 101.435 19.08 101.619 19.08C101.795 19.08 101.945 19.1387 102.07 19.256C102.194 19.3733 102.257 19.52 102.257 19.696C102.257 19.8793 102.194 20.0333 102.07 20.158C101.945 20.2753 101.795 20.334 101.619 20.334ZM101.157 27V21.544H102.081V27H101.157ZM106.198 27.132C105.677 27.132 105.208 27.0147 104.79 26.78C104.379 26.538 104.053 26.2043 103.811 25.779C103.576 25.3463 103.459 24.844 103.459 24.272C103.459 23.7 103.576 23.2013 103.811 22.776C104.053 22.3433 104.379 22.0097 104.79 21.775C105.208 21.533 105.677 21.412 106.198 21.412C106.843 21.412 107.386 21.5807 107.826 21.918C108.273 22.2553 108.555 22.7063 108.673 23.271H107.727C107.653 22.9337 107.474 22.6733 107.188 22.49C106.902 22.2993 106.568 22.204 106.187 22.204C105.879 22.204 105.589 22.281 105.318 22.435C105.046 22.589 104.826 22.82 104.658 23.128C104.489 23.436 104.405 23.8173 104.405 24.272C104.405 24.7267 104.489 25.108 104.658 25.416C104.826 25.724 105.046 25.9587 105.318 26.12C105.589 26.274 105.879 26.351 106.187 26.351C106.568 26.351 106.902 26.2593 107.188 26.076C107.474 25.8853 107.653 25.6177 107.727 25.273H108.673C108.563 25.823 108.284 26.2703 107.837 26.615C107.389 26.9597 106.843 27.132 106.198 27.132ZM110.524 20.334C110.341 20.334 110.187 20.2753 110.062 20.158C109.945 20.0333 109.886 19.8793 109.886 19.696C109.886 19.52 109.945 19.3733 110.062 19.256C110.187 19.1387 110.341 19.08 110.524 19.08C110.7 19.08 110.85 19.1387 110.975 19.256C111.1 19.3733 111.162 19.52 111.162 19.696C111.162 19.8793 111.1 20.0333 110.975 20.158C110.85 20.2753 110.7 20.334 110.524 20.334ZM110.062 27V21.544H110.986V27H110.062ZM112.595 29.42V21.544H113.431L113.519 22.446C113.695 22.182 113.944 21.9437 114.267 21.731C114.597 21.5183 115.015 21.412 115.521 21.412C116.064 21.412 116.537 21.5367 116.94 21.786C117.343 22.0353 117.655 22.3763 117.875 22.809C118.102 23.2417 118.216 23.733 118.216 24.283C118.216 24.833 118.102 25.3243 117.875 25.757C117.655 26.1823 117.34 26.5197 116.929 26.769C116.526 27.011 116.053 27.132 115.51 27.132C115.063 27.132 114.663 27.0403 114.311 26.857C113.966 26.6737 113.702 26.417 113.519 26.087V29.42H112.595ZM115.411 26.329C115.778 26.329 116.1 26.2447 116.379 26.076C116.658 25.9 116.878 25.658 117.039 25.35C117.2 25.042 117.281 24.6827 117.281 24.272C117.281 23.8613 117.2 23.502 117.039 23.194C116.878 22.886 116.658 22.6477 116.379 22.479C116.1 22.303 115.778 22.215 115.411 22.215C115.044 22.215 114.722 22.303 114.443 22.479C114.164 22.6477 113.944 22.886 113.783 23.194C113.622 23.502 113.541 23.8613 113.541 24.272C113.541 24.6827 113.622 25.042 113.783 25.35C113.944 25.658 114.164 25.9 114.443 26.076C114.722 26.2447 115.044 26.329 115.411 26.329ZM121.317 27.132C120.862 27.132 120.485 27.055 120.184 26.901C119.883 26.747 119.66 26.5417 119.513 26.285C119.366 26.0283 119.293 25.7497 119.293 25.449C119.293 24.8917 119.506 24.4627 119.931 24.162C120.356 23.8613 120.936 23.711 121.669 23.711H123.143V23.645C123.143 23.1683 123.018 22.809 122.769 22.567C122.52 22.3177 122.186 22.193 121.768 22.193C121.409 22.193 121.097 22.2847 120.833 22.468C120.576 22.644 120.415 22.9043 120.349 23.249H119.403C119.44 22.853 119.572 22.5193 119.799 22.248C120.034 21.9767 120.323 21.7713 120.668 21.632C121.013 21.4853 121.379 21.412 121.768 21.412C122.531 21.412 123.103 21.6173 123.484 22.028C123.873 22.4313 124.067 22.9703 124.067 23.645V27H123.242L123.187 26.021C123.033 26.329 122.806 26.593 122.505 26.813C122.212 27.0257 121.816 27.132 121.317 27.132ZM121.46 26.351C121.812 26.351 122.113 26.2593 122.362 26.076C122.619 25.8927 122.813 25.6543 122.945 25.361C123.077 25.0677 123.143 24.7597 123.143 24.437V24.426H121.746C121.203 24.426 120.818 24.5213 120.591 24.712C120.371 24.8953 120.261 25.1263 120.261 25.405C120.261 25.691 120.364 25.922 120.569 26.098C120.782 26.2667 121.079 26.351 121.46 26.351ZM125.453 27V21.544H126.289L126.344 22.523C126.52 22.1783 126.773 21.907 127.103 21.709C127.433 21.511 127.807 21.412 128.225 21.412C128.871 21.412 129.384 21.61 129.765 22.006C130.154 22.3947 130.348 22.996 130.348 23.81V27H129.424V23.909C129.424 22.7723 128.955 22.204 128.016 22.204C127.547 22.204 127.155 22.3763 126.839 22.721C126.531 23.0583 126.377 23.5423 126.377 24.173V27H125.453ZM133.904 27C133.406 27 133.013 26.879 132.727 26.637C132.441 26.395 132.298 25.9587 132.298 25.328V22.325H131.352V21.544H132.298L132.419 20.235H133.222V21.544H134.828V22.325H133.222V25.328C133.222 25.6727 133.292 25.9073 133.431 26.032C133.571 26.1493 133.816 26.208 134.168 26.208H134.74V27H133.904ZM138.092 27.132C137.439 27.132 136.897 26.967 136.464 26.637C136.031 26.307 135.778 25.8597 135.705 25.295H136.651C136.71 25.581 136.86 25.8303 137.102 26.043C137.351 26.2483 137.685 26.351 138.103 26.351C138.492 26.351 138.778 26.2703 138.961 26.109C139.144 25.9403 139.236 25.7423 139.236 25.515C139.236 25.185 139.115 24.965 138.873 24.855C138.638 24.745 138.305 24.646 137.872 24.558C137.579 24.4993 137.285 24.415 136.992 24.305C136.699 24.195 136.453 24.041 136.255 23.843C136.057 23.6377 135.958 23.37 135.958 23.04C135.958 22.5633 136.134 22.1747 136.486 21.874C136.845 21.566 137.329 21.412 137.938 21.412C138.517 21.412 138.99 21.5587 139.357 21.852C139.731 22.138 139.947 22.5487 140.006 23.084H139.093C139.056 22.8053 138.935 22.589 138.73 22.435C138.532 22.2737 138.264 22.193 137.927 22.193C137.597 22.193 137.34 22.2627 137.157 22.402C136.981 22.5413 136.893 22.7247 136.893 22.952C136.893 23.172 137.007 23.3443 137.234 23.469C137.469 23.5937 137.784 23.7 138.18 23.788C138.517 23.8613 138.836 23.953 139.137 24.063C139.445 24.1657 139.694 24.3233 139.885 24.536C140.083 24.7413 140.182 25.042 140.182 25.438C140.189 25.9293 140.002 26.3363 139.621 26.659C139.247 26.9743 138.737 27.132 138.092 27.132ZM144.413 27V21.544H145.249L145.326 22.589C145.495 22.2297 145.752 21.9437 146.096 21.731C146.441 21.5183 146.866 21.412 147.372 21.412V22.38H147.119C146.797 22.38 146.5 22.4387 146.228 22.556C145.957 22.666 145.741 22.8567 145.579 23.128C145.418 23.3993 145.337 23.7733 145.337 24.25V27H144.413ZM150.658 27.132C150.138 27.132 149.676 27.0147 149.272 26.78C148.869 26.538 148.55 26.2043 148.315 25.779C148.088 25.3537 147.974 24.8513 147.974 24.272C147.974 23.7 148.088 23.2013 148.315 22.776C148.543 22.3433 148.858 22.0097 149.261 21.775C149.672 21.533 150.145 21.412 150.68 21.412C151.208 21.412 151.663 21.533 152.044 21.775C152.433 22.0097 152.73 22.3213 152.935 22.71C153.141 23.0987 153.243 23.5167 153.243 23.964C153.243 24.0447 153.24 24.1253 153.232 24.206C153.232 24.2867 153.232 24.3783 153.232 24.481H148.887C148.909 24.899 149.005 25.2473 149.173 25.526C149.349 25.7973 149.566 26.0027 149.822 26.142C150.086 26.2813 150.365 26.351 150.658 26.351C151.04 26.351 151.359 26.263 151.615 26.087C151.872 25.911 152.059 25.6727 152.176 25.372H153.089C152.943 25.878 152.66 26.2997 152.242 26.637C151.832 26.967 151.304 27.132 150.658 27.132ZM150.658 22.193C150.218 22.193 149.826 22.3287 149.481 22.6C149.144 22.864 148.95 23.2527 148.898 23.766H152.33C152.308 23.2747 152.14 22.8897 151.824 22.611C151.509 22.3323 151.12 22.193 150.658 22.193ZM156.976 27.132C156.455 27.132 155.986 27.0147 155.568 26.78C155.157 26.538 154.831 26.2043 154.589 25.779C154.354 25.3463 154.237 24.844 154.237 24.272C154.237 23.7 154.354 23.2013 154.589 22.776C154.831 22.3433 155.157 22.0097 155.568 21.775C155.986 21.533 156.455 21.412 156.976 21.412C157.621 21.412 158.164 21.5807 158.604 21.918C159.051 22.2553 159.334 22.7063 159.451 23.271H158.505C158.432 22.9337 158.252 22.6733 157.966 22.49C157.68 22.2993 157.346 22.204 156.965 22.204C156.657 22.204 156.367 22.281 156.096 22.435C155.825 22.589 155.605 22.82 155.436 23.128C155.267 23.436 155.183 23.8173 155.183 24.272C155.183 24.7267 155.267 25.108 155.436 25.416C155.605 25.724 155.825 25.9587 156.096 26.12C156.367 26.274 156.657 26.351 156.965 26.351C157.346 26.351 157.68 26.2593 157.966 26.076C158.252 25.8853 158.432 25.6177 158.505 25.273H159.451C159.341 25.823 159.062 26.2703 158.615 26.615C158.168 26.9597 157.621 27.132 156.976 27.132ZM163.194 27.132C162.674 27.132 162.212 27.0147 161.808 26.78C161.405 26.538 161.086 26.2043 160.851 25.779C160.624 25.3537 160.51 24.8513 160.51 24.272C160.51 23.7 160.624 23.2013 160.851 22.776C161.079 22.3433 161.394 22.0097 161.797 21.775C162.208 21.533 162.681 21.412 163.216 21.412C163.744 21.412 164.199 21.533 164.58 21.775C164.969 22.0097 165.266 22.3213 165.471 22.71C165.677 23.0987 165.779 23.5167 165.779 23.964C165.779 24.0447 165.776 24.1253 165.768 24.206C165.768 24.2867 165.768 24.3783 165.768 24.481H161.423C161.445 24.899 161.541 25.2473 161.709 25.526C161.885 25.7973 162.102 26.0027 162.358 26.142C162.622 26.2813 162.901 26.351 163.194 26.351C163.576 26.351 163.895 26.263 164.151 26.087C164.408 25.911 164.595 25.6727 164.712 25.372H165.625C165.479 25.878 165.196 26.2997 164.778 26.637C164.368 26.967 163.84 27.132 163.194 27.132ZM163.194 22.193C162.754 22.193 162.362 22.3287 162.017 22.6C161.68 22.864 161.486 23.2527 161.434 23.766H164.866C164.844 23.2747 164.676 22.8897 164.36 22.611C164.045 22.3323 163.656 22.193 163.194 22.193ZM167.565 20.334C167.382 20.334 167.228 20.2753 167.103 20.158C166.986 20.0333 166.927 19.8793 166.927 19.696C166.927 19.52 166.986 19.3733 167.103 19.256C167.228 19.1387 167.382 19.08 167.565 19.08C167.741 19.08 167.891 19.1387 168.016 19.256C168.141 19.3733 168.203 19.52 168.203 19.696C168.203 19.8793 168.141 20.0333 168.016 20.158C167.891 20.2753 167.741 20.334 167.565 20.334ZM167.103 27V21.544H168.027V27H167.103ZM171.209 27L169.141 21.544H170.109L171.748 26.109L173.398 21.544H174.344L172.276 27H171.209ZM177.546 27.132C177.025 27.132 176.563 27.0147 176.16 26.78C175.757 26.538 175.438 26.2043 175.203 25.779C174.976 25.3537 174.862 24.8513 174.862 24.272C174.862 23.7 174.976 23.2013 175.203 22.776C175.43 22.3433 175.746 22.0097 176.149 21.775C176.56 21.533 177.033 21.412 177.568 21.412C178.096 21.412 178.551 21.533 178.932 21.775C179.321 22.0097 179.618 22.3213 179.823 22.71C180.028 23.0987 180.131 23.5167 180.131 23.964C180.131 24.0447 180.127 24.1253 180.12 24.206C180.12 24.2867 180.12 24.3783 180.12 24.481H175.775C175.797 24.899 175.892 25.2473 176.061 25.526C176.237 25.7973 176.453 26.0027 176.71 26.142C176.974 26.2813 177.253 26.351 177.546 26.351C177.927 26.351 178.246 26.263 178.503 26.087C178.76 25.911 178.947 25.6727 179.064 25.372H179.977C179.83 25.878 179.548 26.2997 179.13 26.637C178.719 26.967 178.191 27.132 177.546 27.132ZM177.546 22.193C177.106 22.193 176.714 22.3287 176.369 22.6C176.032 22.864 175.837 23.2527 175.786 23.766H179.218C179.196 23.2747 179.027 22.8897 178.712 22.611C178.397 22.3323 178.008 22.193 177.546 22.193ZM32.759 41V35.544H33.595L33.672 36.589C33.8407 36.2297 34.0973 35.9437 34.442 35.731C34.7867 35.5183 35.212 35.412 35.718 35.412V36.38H35.465C35.1423 36.38 34.8453 36.4387 34.574 36.556C34.3027 36.666 34.0863 36.8567 33.925 37.128C33.7637 37.3993 33.683 37.7733 33.683 38.25V41H32.759ZM39.004 41.132C38.4833 41.132 38.0213 41.0147 37.618 40.78C37.2147 40.538 36.8957 40.2043 36.661 39.779C36.4337 39.3537 36.32 38.8513 36.32 38.272C36.32 37.7 36.4337 37.2013 36.661 36.776C36.8883 36.3433 37.2037 36.0097 37.607 35.775C38.0177 35.533 38.4907 35.412 39.026 35.412C39.554 35.412 40.0087 35.533 40.39 35.775C40.7787 36.0097 41.0757 36.3213 41.281 36.71C41.4863 37.0987 41.589 37.5167 41.589 37.964C41.589 38.0447 41.5853 38.1253 41.578 38.206C41.578 38.2867 41.578 38.3783 41.578 38.481H37.233C37.255 38.899 37.3503 39.2473 37.519 39.526C37.695 39.7973 37.9113 40.0027 38.168 40.142C38.432 40.2813 38.7107 40.351 39.004 40.351C39.3853 40.351 39.7043 40.263 39.961 40.087C40.2177 39.911 40.4047 39.6727 40.522 39.372H41.435C41.2883 39.878 41.006 40.2997 40.588 40.637C40.1773 40.967 39.6493 41.132 39.004 41.132ZM39.004 36.193C38.564 36.193 38.1717 36.3287 37.827 36.6C37.4897 36.864 37.2953 37.2527 37.244 37.766H40.676C40.654 37.2747 40.4853 36.8897 40.17 36.611C39.8547 36.3323 39.466 36.193 39.004 36.193ZM44.6287 41.132C44.174 41.132 43.7964 41.055 43.4957 40.901C43.195 40.747 42.9714 40.5417 42.8247 40.285C42.678 40.0283 42.6047 39.7497 42.6047 39.449C42.6047 38.8917 42.8174 38.4627 43.2427 38.162C43.668 37.8613 44.2474 37.711 44.9807 37.711H46.4547V37.645C46.4547 37.1683 46.33 36.809 46.0807 36.567C45.8314 36.3177 45.4977 36.193 45.0797 36.193C44.7204 36.193 44.4087 36.2847 44.1447 36.468C43.888 36.644 43.7267 36.9043 43.6607 37.249H42.7147C42.7514 36.853 42.8834 36.5193 43.1107 36.248C43.3454 35.9767 43.635 35.7713 43.9797 35.632C44.3244 35.4853 44.691 35.412 45.0797 35.412C45.8424 35.412 46.4144 35.6173 46.7957 36.028C47.1844 36.4313 47.3787 36.9703 47.3787 37.645V41H46.5537L46.4987 40.021C46.3447 40.329 46.1174 40.593 45.8167 40.813C45.5234 41.0257 45.1274 41.132 44.6287 41.132ZM44.7717 40.351C45.1237 40.351 45.4244 40.2593 45.6737 40.076C45.9304 39.8927 46.1247 39.6543 46.2567 39.361C46.3887 39.0677 46.4547 38.7597 46.4547 38.437V38.426H45.0577C44.515 38.426 44.13 38.5213 43.9027 38.712C43.6827 38.8953 43.5727 39.1263 43.5727 39.405C43.5727 39.691 43.6754 39.922 43.8807 40.098C44.0934 40.2667 44.3904 40.351 44.7717 40.351ZM50.8549 41.132C50.2022 41.132 49.6595 40.967 49.2269 40.637C48.7942 40.307 48.5412 39.8597 48.4679 39.295H49.4139C49.4725 39.581 49.6229 39.8303 49.8649 40.043C50.1142 40.2483 50.4479 40.351 50.8659 40.351C51.2545 40.351 51.5405 40.2703 51.7239 40.109C51.9072 39.9403 51.9989 39.7423 51.9989 39.515C51.9989 39.185 51.8779 38.965 51.6359 38.855C51.4012 38.745 51.0675 38.646 50.6349 38.558C50.3415 38.4993 50.0482 38.415 49.7549 38.305C49.4615 38.195 49.2159 38.041 49.0179 37.843C48.8199 37.6377 48.7209 37.37 48.7209 37.04C48.7209 36.5633 48.8969 36.1747 49.2489 35.874C49.6082 35.566 50.0922 35.412 50.7009 35.412C51.2802 35.412 51.7532 35.5587 52.1199 35.852C52.4939 36.138 52.7102 36.5487 52.7689 37.084H51.8559C51.8192 36.8053 51.6982 36.589 51.4929 36.435C51.2949 36.2737 51.0272 36.193 50.6899 36.193C50.3599 36.193 50.1032 36.2627 49.9199 36.402C49.7439 36.5413 49.6559 36.7247 49.6559 36.952C49.6559 37.172 49.7695 37.3443 49.9969 37.469C50.2315 37.5937 50.5469 37.7 50.9429 37.788C51.2802 37.8613 51.5992 37.953 51.8999 38.063C52.2079 38.1657 52.4572 38.3233 52.6479 38.536C52.8459 38.7413 52.9449 39.042 52.9449 39.438C52.9522 39.9293 52.7652 40.3363 52.3839 40.659C52.0099 40.9743 51.5002 41.132 50.8549 41.132ZM56.3549 41.132C55.7022 41.132 55.1595 40.967 54.7269 40.637C54.2942 40.307 54.0412 39.8597 53.9679 39.295H54.9139C54.9725 39.581 55.1229 39.8303 55.3649 40.043C55.6142 40.2483 55.9479 40.351 56.3659 40.351C56.7545 40.351 57.0405 40.2703 57.2239 40.109C57.4072 39.9403 57.4989 39.7423 57.4989 39.515C57.4989 39.185 57.3779 38.965 57.1359 38.855C56.9012 38.745 56.5675 38.646 56.1349 38.558C55.8415 38.4993 55.5482 38.415 55.2549 38.305C54.9615 38.195 54.7159 38.041 54.5179 37.843C54.3199 37.6377 54.2209 37.37 54.2209 37.04C54.2209 36.5633 54.3969 36.1747 54.7489 35.874C55.1082 35.566 55.5922 35.412 56.2009 35.412C56.7802 35.412 57.2532 35.5587 57.6199 35.852C57.9939 36.138 58.2102 36.5487 58.2689 37.084H57.3559C57.3192 36.8053 57.1982 36.589 56.9929 36.435C56.7949 36.2737 56.5272 36.193 56.1899 36.193C55.8599 36.193 55.6032 36.2627 55.4199 36.402C55.2439 36.5413 55.1559 36.7247 55.1559 36.952C55.1559 37.172 55.2695 37.3443 55.4969 37.469C55.7315 37.5937 56.0469 37.7 56.4429 37.788C56.7802 37.8613 57.0992 37.953 57.3999 38.063C57.7079 38.1657 57.9572 38.3233 58.1479 38.536C58.3459 38.7413 58.4449 39.042 58.4449 39.438C58.4522 39.9293 58.2652 40.3363 57.8839 40.659C57.5099 40.9743 57.0002 41.132 56.3549 41.132ZM61.7559 41.132C61.1105 41.132 60.5972 40.9377 60.2159 40.549C59.8345 40.153 59.6439 39.548 59.6439 38.734V35.544H60.5679V38.635C60.5679 39.7717 61.0335 40.34 61.9649 40.34C62.4415 40.34 62.8339 40.1713 63.1419 39.834C63.4572 39.4893 63.6149 39.0017 63.6149 38.371V35.544H64.5389V41H63.7029L63.6369 40.021C63.4682 40.3657 63.2152 40.637 62.8779 40.835C62.5479 41.033 62.1739 41.132 61.7559 41.132ZM66.0598 41V35.544H66.8958L66.9728 36.589C67.1414 36.2297 67.3981 35.9437 67.7428 35.731C68.0874 35.5183 68.5128 35.412 69.0188 35.412V36.38H68.7658C68.4431 36.38 68.1461 36.4387 67.8748 36.556C67.6034 36.666 67.3871 36.8567 67.2258 37.128C67.0644 37.3993 66.9838 37.7733 66.9838 38.25V41H66.0598ZM71.8709 41.132C71.4162 41.132 71.0385 41.055 70.7379 40.901C70.4372 40.747 70.2135 40.5417 70.0669 40.285C69.9202 40.0283 69.8469 39.7497 69.8469 39.449C69.8469 38.8917 70.0595 38.4627 70.4849 38.162C70.9102 37.8613 71.4895 37.711 72.2229 37.711H73.6969V37.645C73.6969 37.1683 73.5722 36.809 73.3229 36.567C73.0735 36.3177 72.7399 36.193 72.3219 36.193C71.9625 36.193 71.6509 36.2847 71.3869 36.468C71.1302 36.644 70.9689 36.9043 70.9029 37.249H69.9569C69.9935 36.853 70.1255 36.5193 70.3529 36.248C70.5875 35.9767 70.8772 35.7713 71.2219 35.632C71.5665 35.4853 71.9332 35.412 72.3219 35.412C73.0845 35.412 73.6565 35.6173 74.0379 36.028C74.4265 36.4313 74.6209 36.9703 74.6209 37.645V41H73.7959L73.7409 40.021C73.5869 40.329 73.3595 40.593 73.0589 40.813C72.7655 41.0257 72.3695 41.132 71.8709 41.132ZM72.0139 40.351C72.3659 40.351 72.6665 40.2593 72.9159 40.076C73.1725 39.8927 73.3669 39.6543 73.4989 39.361C73.6309 39.0677 73.6969 38.7597 73.6969 38.437V38.426H72.2999C71.7572 38.426 71.3722 38.5213 71.1449 38.712C70.9249 38.8953 70.8149 39.1263 70.8149 39.405C70.8149 39.691 70.9175 39.922 71.1229 40.098C71.3355 40.2667 71.6325 40.351 72.0139 40.351ZM76.007 41V35.544H76.843L76.898 36.523C77.074 36.1783 77.327 35.907 77.657 35.709C77.987 35.511 78.361 35.412 78.779 35.412C79.4244 35.412 79.9377 35.61 80.319 36.006C80.7077 36.3947 80.902 36.996 80.902 37.81V41H79.978V37.909C79.978 36.7723 79.5087 36.204 78.57 36.204C78.1007 36.204 77.7084 36.3763 77.393 36.721C77.085 37.0583 76.931 37.5423 76.931 38.173V41H76.007ZM84.81 41.132C84.2893 41.132 83.82 41.0147 83.402 40.78C82.9913 40.538 82.665 40.2043 82.423 39.779C82.1883 39.3463 82.071 38.844 82.071 38.272C82.071 37.7 82.1883 37.2013 82.423 36.776C82.665 36.3433 82.9913 36.0097 83.402 35.775C83.82 35.533 84.2893 35.412 84.81 35.412C85.4553 35.412 85.998 35.5807 86.438 35.918C86.8853 36.2553 87.1676 36.7063 87.285 37.271H86.339C86.2656 36.9337 86.086 36.6733 85.8 36.49C85.514 36.2993 85.1803 36.204 84.799 36.204C84.491 36.204 84.2013 36.281 83.93 36.435C83.6586 36.589 83.4386 36.82 83.27 37.128C83.1013 37.436 83.017 37.8173 83.017 38.272C83.017 38.7267 83.1013 39.108 83.27 39.416C83.4386 39.724 83.6586 39.9587 83.93 40.12C84.2013 40.274 84.491 40.351 84.799 40.351C85.1803 40.351 85.514 40.2593 85.8 40.076C86.086 39.8853 86.2656 39.6177 86.339 39.273H87.285C87.175 39.823 86.8963 40.2703 86.449 40.615C86.0016 40.9597 85.4553 41.132 84.81 41.132ZM91.0284 41.132C90.5077 41.132 90.0457 41.0147 89.6424 40.78C89.2391 40.538 88.9201 40.2043 88.6854 39.779C88.4581 39.3537 88.3444 38.8513 88.3444 38.272C88.3444 37.7 88.4581 37.2013 88.6854 36.776C88.9127 36.3433 89.2281 36.0097 89.6314 35.775C90.0421 35.533 90.5151 35.412 91.0504 35.412C91.5784 35.412 92.0331 35.533 92.4144 35.775C92.8031 36.0097 93.1001 36.3213 93.3054 36.71C93.5107 37.0987 93.6134 37.5167 93.6134 37.964C93.6134 38.0447 93.6097 38.1253 93.6024 38.206C93.6024 38.2867 93.6024 38.3783 93.6024 38.481H89.2574C89.2794 38.899 89.3747 39.2473 89.5434 39.526C89.7194 39.7973 89.9357 40.0027 90.1924 40.142C90.4564 40.2813 90.7351 40.351 91.0284 40.351C91.4097 40.351 91.7287 40.263 91.9854 40.087C92.2421 39.911 92.4291 39.6727 92.5464 39.372H93.4594C93.3127 39.878 93.0304 40.2997 92.6124 40.637C92.2017 40.967 91.6737 41.132 91.0284 41.132ZM91.0284 36.193C90.5884 36.193 90.1961 36.3287 89.8514 36.6C89.5141 36.864 89.3197 37.2527 89.2684 37.766H92.7004C92.6784 37.2747 92.5097 36.8897 92.1944 36.611C91.8791 36.3323 91.4904 36.193 91.0284 36.193ZM99.9052 41C99.4066 41 99.0142 40.879 98.7282 40.637C98.4422 40.395 98.2992 39.9587 98.2992 39.328V36.325H97.3532V35.544H98.2992L98.4202 34.235H99.2232V35.544H100.829V36.325H99.2232V39.328C99.2232 39.6727 99.2929 39.9073 99.4322 40.032C99.5716 40.1493 99.8172 40.208 100.169 40.208H100.741V41H99.9052ZM102.003 41V33.08H102.927V36.479C103.11 36.1417 103.371 35.8813 103.708 35.698C104.045 35.5073 104.412 35.412 104.808 35.412C105.439 35.412 105.945 35.61 106.326 36.006C106.707 36.3947 106.898 36.996 106.898 37.81V41H105.985V37.909C105.985 36.7723 105.527 36.204 104.61 36.204C104.133 36.204 103.734 36.3763 103.411 36.721C103.088 37.0583 102.927 37.5423 102.927 38.173V41H102.003ZM110.113 41.132C109.658 41.132 109.281 41.055 108.98 40.901C108.679 40.747 108.456 40.5417 108.309 40.285C108.162 40.0283 108.089 39.7497 108.089 39.449C108.089 38.8917 108.302 38.4627 108.727 38.162C109.152 37.8613 109.732 37.711 110.465 37.711H111.939V37.645C111.939 37.1683 111.814 36.809 111.565 36.567C111.316 36.3177 110.982 36.193 110.564 36.193C110.205 36.193 109.893 36.2847 109.629 36.468C109.372 36.644 109.211 36.9043 109.145 37.249H108.199C108.236 36.853 108.368 36.5193 108.595 36.248C108.83 35.9767 109.119 35.7713 109.464 35.632C109.809 35.4853 110.175 35.412 110.564 35.412C111.327 35.412 111.899 35.6173 112.28 36.028C112.669 36.4313 112.863 36.9703 112.863 37.645V41H112.038L111.983 40.021C111.829 40.329 111.602 40.593 111.301 40.813C111.008 41.0257 110.612 41.132 110.113 41.132ZM110.256 40.351C110.608 40.351 110.909 40.2593 111.158 40.076C111.415 39.8927 111.609 39.6543 111.741 39.361C111.873 39.0677 111.939 38.7597 111.939 38.437V38.426H110.542C109.999 38.426 109.614 38.5213 109.387 38.712C109.167 38.8953 109.057 39.1263 109.057 39.405C109.057 39.691 109.16 39.922 109.365 40.098C109.578 40.2667 109.875 40.351 110.256 40.351ZM116.255 41C115.756 41 115.364 40.879 115.078 40.637C114.792 40.395 114.649 39.9587 114.649 39.328V36.325H113.703V35.544H114.649L114.77 34.235H115.573V35.544H117.179V36.325H115.573V39.328C115.573 39.6727 115.643 39.9073 115.782 40.032C115.921 40.1493 116.167 40.208 116.519 40.208H117.091V41H116.255ZM123.772 41.132C123.251 41.132 122.782 41.0147 122.364 40.78C121.953 40.538 121.627 40.2043 121.385 39.779C121.15 39.3463 121.033 38.844 121.033 38.272C121.033 37.7 121.15 37.2013 121.385 36.776C121.627 36.3433 121.953 36.0097 122.364 35.775C122.782 35.533 123.251 35.412 123.772 35.412C124.417 35.412 124.96 35.5807 125.4 35.918C125.847 36.2553 126.13 36.7063 126.247 37.271H125.301C125.228 36.9337 125.048 36.6733 124.762 36.49C124.476 36.2993 124.142 36.204 123.761 36.204C123.453 36.204 123.163 36.281 122.892 36.435C122.621 36.589 122.401 36.82 122.232 37.128C122.063 37.436 121.979 37.8173 121.979 38.272C121.979 38.7267 122.063 39.108 122.232 39.416C122.401 39.724 122.621 39.9587 122.892 40.12C123.163 40.274 123.453 40.351 123.761 40.351C124.142 40.351 124.476 40.2593 124.762 40.076C125.048 39.8853 125.228 39.6177 125.301 39.273H126.247C126.137 39.823 125.858 40.2703 125.411 40.615C124.964 40.9597 124.417 41.132 123.772 41.132ZM127.537 41V35.544H128.373L128.45 36.589C128.619 36.2297 128.876 35.9437 129.22 35.731C129.565 35.5183 129.99 35.412 130.496 35.412V36.38H130.243C129.921 36.38 129.624 36.4387 129.352 36.556C129.081 36.666 128.865 36.8567 128.703 37.128C128.542 37.3993 128.461 37.7733 128.461 38.25V41H127.537ZM133.782 41.132C133.262 41.132 132.8 41.0147 132.396 40.78C131.993 40.538 131.674 40.2043 131.439 39.779C131.212 39.3537 131.098 38.8513 131.098 38.272C131.098 37.7 131.212 37.2013 131.439 36.776C131.667 36.3433 131.982 36.0097 132.385 35.775C132.796 35.533 133.269 35.412 133.804 35.412C134.332 35.412 134.787 35.533 135.168 35.775C135.557 36.0097 135.854 36.3213 136.059 36.71C136.265 37.0987 136.367 37.5167 136.367 37.964C136.367 38.0447 136.364 38.1253 136.356 38.206C136.356 38.2867 136.356 38.3783 136.356 38.481H132.011C132.033 38.899 132.129 39.2473 132.297 39.526C132.473 39.7973 132.69 40.0027 132.946 40.142C133.21 40.2813 133.489 40.351 133.782 40.351C134.164 40.351 134.483 40.263 134.739 40.087C134.996 39.911 135.183 39.6727 135.3 39.372H136.213C136.067 39.878 135.784 40.2997 135.366 40.637C134.956 40.967 134.428 41.132 133.782 41.132ZM133.782 36.193C133.342 36.193 132.95 36.3287 132.605 36.6C132.268 36.864 132.074 37.2527 132.022 37.766H135.454C135.432 37.2747 135.264 36.8897 134.948 36.611C134.633 36.3323 134.244 36.193 133.782 36.193ZM139.407 41.132C138.952 41.132 138.575 41.055 138.274 40.901C137.973 40.747 137.75 40.5417 137.603 40.285C137.456 40.0283 137.383 39.7497 137.383 39.449C137.383 38.8917 137.596 38.4627 138.021 38.162C138.446 37.8613 139.026 37.711 139.759 37.711H141.233V37.645C141.233 37.1683 141.108 36.809 140.859 36.567C140.61 36.3177 140.276 36.193 139.858 36.193C139.499 36.193 139.187 36.2847 138.923 36.468C138.666 36.644 138.505 36.9043 138.439 37.249H137.493C137.53 36.853 137.662 36.5193 137.889 36.248C138.124 35.9767 138.413 35.7713 138.758 35.632C139.103 35.4853 139.469 35.412 139.858 35.412C140.621 35.412 141.193 35.6173 141.574 36.028C141.963 36.4313 142.157 36.9703 142.157 37.645V41H141.332L141.277 40.021C141.123 40.329 140.896 40.593 140.595 40.813C140.302 41.0257 139.906 41.132 139.407 41.132ZM139.55 40.351C139.902 40.351 140.203 40.2593 140.452 40.076C140.709 39.8927 140.903 39.6543 141.035 39.361C141.167 39.0677 141.233 38.7597 141.233 38.437V38.426H139.836C139.293 38.426 138.908 38.5213 138.681 38.712C138.461 38.8953 138.351 39.1263 138.351 39.405C138.351 39.691 138.454 39.922 138.659 40.098C138.872 40.2667 139.169 40.351 139.55 40.351ZM145.549 41C145.05 41 144.658 40.879 144.372 40.637C144.086 40.395 143.943 39.9587 143.943 39.328V36.325H142.997V35.544H143.943L144.064 34.235H144.867V35.544H146.473V36.325H144.867V39.328C144.867 39.6727 144.936 39.9073 145.076 40.032C145.215 40.1493 145.461 40.208 145.813 40.208H146.385V41H145.549ZM149.982 41.132C149.469 41.132 149.007 41.0147 148.596 40.78C148.186 40.5453 147.859 40.2153 147.617 39.79C147.383 39.3573 147.265 38.8513 147.265 38.272C147.265 37.6927 147.386 37.1903 147.628 36.765C147.87 36.3323 148.197 35.9987 148.607 35.764C149.025 35.5293 149.491 35.412 150.004 35.412C150.518 35.412 150.98 35.5293 151.39 35.764C151.801 35.9987 152.124 36.3323 152.358 36.765C152.6 37.1903 152.721 37.6927 152.721 38.272C152.721 38.8513 152.6 39.3573 152.358 39.79C152.116 40.2153 151.786 40.5453 151.368 40.78C150.958 41.0147 150.496 41.132 149.982 41.132ZM149.982 40.34C150.298 40.34 150.591 40.263 150.862 40.109C151.134 39.955 151.354 39.724 151.522 39.416C151.691 39.108 151.775 38.7267 151.775 38.272C151.775 37.8173 151.691 37.436 151.522 37.128C151.361 36.82 151.145 36.589 150.873 36.435C150.602 36.281 150.312 36.204 150.004 36.204C149.689 36.204 149.396 36.281 149.124 36.435C148.853 36.589 148.633 36.82 148.464 37.128C148.296 37.436 148.211 37.8173 148.211 38.272C148.211 38.7267 148.296 39.108 148.464 39.416C148.633 39.724 148.849 39.955 149.113 40.109C149.385 40.263 149.674 40.34 149.982 40.34ZM154.006 41V35.544H154.842L154.919 36.589C155.088 36.2297 155.344 35.9437 155.689 35.731C156.034 35.5183 156.459 35.412 156.965 35.412V36.38H156.712C156.389 36.38 156.092 36.4387 155.821 36.556C155.55 36.666 155.333 36.8567 155.172 37.128C155.011 37.3993 154.93 37.7733 154.93 38.25V41H154.006ZM160.092 41.132C159.439 41.132 158.897 40.967 158.464 40.637C158.031 40.307 157.778 39.8597 157.705 39.295H158.651C158.71 39.581 158.86 39.8303 159.102 40.043C159.351 40.2483 159.685 40.351 160.103 40.351C160.492 40.351 160.778 40.2703 160.961 40.109C161.144 39.9403 161.236 39.7423 161.236 39.515C161.236 39.185 161.115 38.965 160.873 38.855C160.638 38.745 160.305 38.646 159.872 38.558C159.579 38.4993 159.285 38.415 158.992 38.305C158.699 38.195 158.453 38.041 158.255 37.843C158.057 37.6377 157.958 37.37 157.958 37.04C157.958 36.5633 158.134 36.1747 158.486 35.874C158.845 35.566 159.329 35.412 159.938 35.412C160.517 35.412 160.99 35.5587 161.357 35.852C161.731 36.138 161.947 36.5487 162.006 37.084H161.093C161.056 36.8053 160.935 36.589 160.73 36.435C160.532 36.2737 160.264 36.193 159.927 36.193C159.597 36.193 159.34 36.2627 159.157 36.402C158.981 36.5413 158.893 36.7247 158.893 36.952C158.893 37.172 159.007 37.3443 159.234 37.469C159.469 37.5937 159.784 37.7 160.18 37.788C160.517 37.8613 160.836 37.953 161.137 38.063C161.445 38.1657 161.694 38.3233 161.885 38.536C162.083 38.7413 162.182 39.042 162.182 39.438C162.189 39.9293 162.002 40.3363 161.621 40.659C161.247 40.9743 160.737 41.132 160.092 41.132ZM168.899 41.132C168.386 41.132 167.924 41.0147 167.513 40.78C167.103 40.5453 166.776 40.2153 166.534 39.79C166.3 39.3573 166.182 38.8513 166.182 38.272C166.182 37.6927 166.303 37.1903 166.545 36.765C166.787 36.3323 167.114 35.9987 167.524 35.764C167.942 35.5293 168.408 35.412 168.921 35.412C169.435 35.412 169.897 35.5293 170.307 35.764C170.718 35.9987 171.041 36.3323 171.275 36.765C171.517 37.1903 171.638 37.6927 171.638 38.272C171.638 38.8513 171.517 39.3573 171.275 39.79C171.033 40.2153 170.703 40.5453 170.285 40.78C169.875 41.0147 169.413 41.132 168.899 41.132ZM168.899 40.34C169.215 40.34 169.508 40.263 169.779 40.109C170.051 39.955 170.271 39.724 170.439 39.416C170.608 39.108 170.692 38.7267 170.692 38.272C170.692 37.8173 170.608 37.436 170.439 37.128C170.278 36.82 170.062 36.589 169.79 36.435C169.519 36.281 169.229 36.204 168.921 36.204C168.606 36.204 168.313 36.281 168.041 36.435C167.77 36.589 167.55 36.82 167.381 37.128C167.213 37.436 167.128 37.8173 167.128 38.272C167.128 38.7267 167.213 39.108 167.381 39.416C167.55 39.724 167.766 39.955 168.03 40.109C168.302 40.263 168.591 40.34 168.899 40.34ZM173.22 41V36.325H172.395V35.544H173.22V34.598C173.22 34.07 173.352 33.685 173.616 33.443C173.88 33.201 174.265 33.08 174.771 33.08H175.321V33.872H174.914C174.635 33.872 174.437 33.9307 174.32 34.048C174.203 34.158 174.144 34.3487 174.144 34.62V35.544H175.486V36.325H174.144V41H173.22ZM181.312 41.132C180.858 41.132 180.48 41.055 180.179 40.901C179.879 40.747 179.655 40.5417 179.508 40.285C179.362 40.0283 179.288 39.7497 179.288 39.449C179.288 38.8917 179.501 38.4627 179.926 38.162C180.352 37.8613 180.931 37.711 181.664 37.711H183.138V37.645C183.138 37.1683 183.014 36.809 182.764 36.567C182.515 36.3177 182.181 36.193 181.763 36.193C181.404 36.193 181.092 36.2847 180.828 36.468C180.572 36.644 180.41 36.9043 180.344 37.249H179.398C179.435 36.853 179.567 36.5193 179.794 36.248C180.029 35.9767 180.319 35.7713 180.663 35.632C181.008 35.4853 181.375 35.412 181.763 35.412C182.526 35.412 183.098 35.6173 183.479 36.028C183.868 36.4313 184.062 36.9703 184.062 37.645V41H183.237L183.182 40.021C183.028 40.329 182.801 40.593 182.5 40.813C182.207 41.0257 181.811 41.132 181.312 41.132ZM181.455 40.351C181.807 40.351 182.108 40.2593 182.357 40.076C182.614 39.8927 182.808 39.6543 182.94 39.361C183.072 39.0677 183.138 38.7597 183.138 38.437V38.426H181.741C181.199 38.426 180.814 38.5213 180.586 38.712C180.366 38.8953 180.256 39.1263 180.256 39.405C180.256 39.691 180.359 39.922 180.564 40.098C180.777 40.2667 181.074 40.351 181.455 40.351ZM185.448 41V33.08H186.372V41H185.448ZM187.887 41V33.08H188.811V41H187.887ZM35.674 55.132C35.2267 55.132 34.827 55.0403 34.475 54.857C34.1303 54.6737 33.8663 54.417 33.683 54.087L33.595 55H32.759V47.08H33.683V50.446C33.859 50.182 34.1083 49.9437 34.431 49.731C34.761 49.5183 35.179 49.412 35.685 49.412C36.2277 49.412 36.7007 49.5367 37.104 49.786C37.5073 50.0353 37.819 50.3763 38.039 50.809C38.2663 51.2417 38.38 51.733 38.38 52.283C38.38 52.833 38.2663 53.3243 38.039 53.757C37.819 54.1823 37.5037 54.5197 37.093 54.769C36.6897 55.011 36.2167 55.132 35.674 55.132ZM35.575 54.329C35.9417 54.329 36.2643 54.2447 36.543 54.076C36.8217 53.9 37.0417 53.658 37.203 53.35C37.3643 53.042 37.445 52.6827 37.445 52.272C37.445 51.8613 37.3643 51.502 37.203 51.194C37.0417 50.886 36.8217 50.6477 36.543 50.479C36.2643 50.303 35.9417 50.215 35.575 50.215C35.2083 50.215 34.8857 50.303 34.607 50.479C34.3283 50.6477 34.1083 50.886 33.947 51.194C33.7857 51.502 33.705 51.8613 33.705 52.272C33.705 52.6827 33.7857 53.042 33.947 53.35C34.1083 53.658 34.3283 53.9 34.607 54.076C34.8857 54.2447 35.2083 54.329 35.575 54.329ZM41.4812 55.132C41.0266 55.132 40.6489 55.055 40.3482 54.901C40.0476 54.747 39.8239 54.5417 39.6772 54.285C39.5306 54.0283 39.4572 53.7497 39.4572 53.449C39.4572 52.8917 39.6699 52.4627 40.0952 52.162C40.5206 51.8613 41.0999 51.711 41.8332 51.711H43.3072V51.645C43.3072 51.1683 43.1826 50.809 42.9332 50.567C42.6839 50.3177 42.3502 50.193 41.9322 50.193C41.5729 50.193 41.2612 50.2847 40.9972 50.468C40.7406 50.644 40.5792 50.9043 40.5132 51.249H39.5672C39.6039 50.853 39.7359 50.5193 39.9632 50.248C40.1979 49.9767 40.4876 49.7713 40.8322 49.632C41.1769 49.4853 41.5436 49.412 41.9322 49.412C42.6949 49.412 43.2669 49.6173 43.6482 50.028C44.0369 50.4313 44.2312 50.9703 44.2312 51.645V55H43.4062L43.3512 54.021C43.1972 54.329 42.9699 54.593 42.6692 54.813C42.3759 55.0257 41.9799 55.132 41.4812 55.132ZM41.6242 54.351C41.9762 54.351 42.2769 54.2593 42.5262 54.076C42.7829 53.8927 42.9772 53.6543 43.1092 53.361C43.2412 53.0677 43.3072 52.7597 43.3072 52.437V52.426H41.9102C41.3676 52.426 40.9826 52.5213 40.7552 52.712C40.5352 52.8953 40.4252 53.1263 40.4252 53.405C40.4252 53.691 40.5279 53.922 40.7332 54.098C40.9459 54.2667 41.2429 54.351 41.6242 54.351ZM48.1254 55.132C47.6047 55.132 47.1354 55.0147 46.7174 54.78C46.3067 54.538 45.9804 54.2043 45.7384 53.779C45.5037 53.3463 45.3864 52.844 45.3864 52.272C45.3864 51.7 45.5037 51.2013 45.7384 50.776C45.9804 50.3433 46.3067 50.0097 46.7174 49.775C47.1354 49.533 47.6047 49.412 48.1254 49.412C48.7707 49.412 49.3134 49.5807 49.7534 49.918C50.2007 50.2553 50.4831 50.7063 50.6004 51.271H49.6544C49.5811 50.9337 49.4014 50.6733 49.1154 50.49C48.8294 50.2993 48.4957 50.204 48.1144 50.204C47.8064 50.204 47.5167 50.281 47.2454 50.435C46.9741 50.589 46.7541 50.82 46.5854 51.128C46.4167 51.436 46.3324 51.8173 46.3324 52.272C46.3324 52.7267 46.4167 53.108 46.5854 53.416C46.7541 53.724 46.9741 53.9587 47.2454 54.12C47.5167 54.274 47.8064 54.351 48.1144 54.351C48.4957 54.351 48.8294 54.2593 49.1154 54.076C49.4014 53.8853 49.5811 53.6177 49.6544 53.273H50.6004C50.4904 53.823 50.2117 54.2703 49.7644 54.615C49.3171 54.9597 48.7707 55.132 48.1254 55.132ZM51.8908 55V47.08H52.8148V51.843L55.0478 49.544H56.1808L53.7608 52.008L56.4888 55H55.3118L52.8148 52.173V55H51.8908ZM59.5898 53.284C59.2818 53.284 58.9995 53.2437 58.7428 53.163L58.1928 53.68C58.2735 53.7387 58.3725 53.79 58.4898 53.834C58.6145 53.8707 58.7905 53.9073 59.0178 53.944C59.2451 53.9733 59.5641 54.0063 59.9748 54.043C60.7081 54.0943 61.2325 54.263 61.5478 54.549C61.8631 54.835 62.0208 55.209 62.0208 55.671C62.0208 55.9863 61.9328 56.287 61.7568 56.573C61.5881 56.859 61.3241 57.0937 60.9648 57.277C60.6128 57.4603 60.1581 57.552 59.6008 57.552C59.1095 57.552 58.6731 57.486 58.2918 57.354C57.9105 57.2293 57.6135 57.035 57.4008 56.771C57.1881 56.5143 57.0818 56.188 57.0818 55.792C57.0818 55.5867 57.1368 55.363 57.2468 55.121C57.3568 54.8863 57.5621 54.6627 57.8628 54.45C57.7015 54.384 57.5621 54.3143 57.4448 54.241C57.3348 54.1603 57.2321 54.0723 57.1368 53.977V53.724L58.0718 52.8C57.6391 52.4333 57.4228 51.9493 57.4228 51.348C57.4228 50.9887 57.5071 50.6623 57.6758 50.369C57.8445 50.0757 58.0901 49.8447 58.4128 49.676C58.7355 49.5 59.1278 49.412 59.5898 49.412C59.9051 49.412 60.1911 49.456 60.4478 49.544H62.4608V50.237L61.4378 50.281C61.6505 50.589 61.7568 50.9447 61.7568 51.348C61.7568 51.7073 61.6688 52.0337 61.4928 52.327C61.3241 52.6203 61.0785 52.855 60.7558 53.031C60.4405 53.1997 60.0518 53.284 59.5898 53.284ZM59.5898 52.525C59.9785 52.525 60.2865 52.426 60.5138 52.228C60.7485 52.0227 60.8658 51.7293 60.8658 51.348C60.8658 50.974 60.7485 50.688 60.5138 50.49C60.2865 50.2847 59.9785 50.182 59.5898 50.182C59.1938 50.182 58.8785 50.2847 58.6438 50.49C58.4165 50.688 58.3028 50.974 58.3028 51.348C58.3028 51.7293 58.4165 52.0227 58.6438 52.228C58.8785 52.426 59.1938 52.525 59.5898 52.525ZM57.9838 55.704C57.9838 56.0707 58.1378 56.342 58.4458 56.518C58.7538 56.7013 59.1388 56.793 59.6008 56.793C60.0555 56.793 60.4185 56.694 60.6898 56.496C60.9685 56.298 61.1078 56.034 61.1078 55.704C61.1078 55.4693 61.0125 55.264 60.8218 55.088C60.6311 54.9193 60.2791 54.8203 59.7658 54.791C59.3625 54.7617 59.0141 54.725 58.7208 54.681C58.4201 54.8423 58.2221 55.0147 58.1268 55.198C58.0315 55.3887 57.9838 55.5573 57.9838 55.704ZM63.5031 55V49.544H64.3391L64.4161 50.589C64.5848 50.2297 64.8415 49.9437 65.1861 49.731C65.5308 49.5183 65.9561 49.412 66.4621 49.412V50.38H66.2091C65.8865 50.38 65.5895 50.4387 65.3181 50.556C65.0468 50.666 64.8305 50.8567 64.6691 51.128C64.5078 51.3993 64.4271 51.7733 64.4271 52.25V55H63.5031ZM69.7811 55.132C69.2678 55.132 68.8058 55.0147 68.3951 54.78C67.9845 54.5453 67.6581 54.2153 67.4161 53.79C67.1815 53.3573 67.0641 52.8513 67.0641 52.272C67.0641 51.6927 67.1851 51.1903 67.4271 50.765C67.6691 50.3323 67.9955 49.9987 68.4061 49.764C68.8241 49.5293 69.2898 49.412 69.8031 49.412C70.3165 49.412 70.7785 49.5293 71.1891 49.764C71.5998 49.9987 71.9225 50.3323 72.1571 50.765C72.3991 51.1903 72.5201 51.6927 72.5201 52.272C72.5201 52.8513 72.3991 53.3573 72.1571 53.79C71.9151 54.2153 71.5851 54.5453 71.1671 54.78C70.7565 55.0147 70.2945 55.132 69.7811 55.132ZM69.7811 54.34C70.0965 54.34 70.3898 54.263 70.6611 54.109C70.9325 53.955 71.1525 53.724 71.3211 53.416C71.4898 53.108 71.5741 52.7267 71.5741 52.272C71.5741 51.8173 71.4898 51.436 71.3211 51.128C71.1598 50.82 70.9435 50.589 70.6721 50.435C70.4008 50.281 70.1111 50.204 69.8031 50.204C69.4878 50.204 69.1945 50.281 68.9231 50.435C68.6518 50.589 68.4318 50.82 68.2631 51.128C68.0945 51.436 68.0101 51.8173 68.0101 52.272C68.0101 52.7267 68.0945 53.108 68.2631 53.416C68.4318 53.724 68.6481 53.955 68.9121 54.109C69.1835 54.263 69.4731 54.34 69.7811 54.34ZM75.7959 55.132C75.1506 55.132 74.6372 54.9377 74.2559 54.549C73.8746 54.153 73.6839 53.548 73.6839 52.734V49.544H74.6079V52.635C74.6079 53.7717 75.0736 54.34 76.0049 54.34C76.4816 54.34 76.8739 54.1713 77.1819 53.834C77.4972 53.4893 77.6549 53.0017 77.6549 52.371V49.544H78.5789V55H77.7429L77.6769 54.021C77.5082 54.3657 77.2552 54.637 76.9179 54.835C76.5879 55.033 76.2139 55.132 75.7959 55.132ZM80.0998 55V49.544H80.9358L80.9908 50.523C81.1668 50.1783 81.4198 49.907 81.7498 49.709C82.0798 49.511 82.4538 49.412 82.8718 49.412C83.5172 49.412 84.0305 49.61 84.4118 50.006C84.8005 50.3947 84.9948 50.996 84.9948 51.81V55H84.0708V51.909C84.0708 50.7723 83.6015 50.204 82.6628 50.204C82.1935 50.204 81.8012 50.3763 81.4858 50.721C81.1778 51.0583 81.0238 51.5423 81.0238 52.173V55H80.0998ZM88.8697 55.132C88.3271 55.132 87.8504 55.0073 87.4397 54.758C87.0364 54.5087 86.7211 54.1677 86.4937 53.735C86.2737 53.3023 86.1637 52.811 86.1637 52.261C86.1637 51.711 86.2774 51.2233 86.5047 50.798C86.7321 50.3653 87.0474 50.028 87.4507 49.786C87.8541 49.5367 88.3307 49.412 88.8807 49.412C89.3281 49.412 89.7241 49.5037 90.0687 49.687C90.4134 49.8703 90.6811 50.127 90.8717 50.457V47.08H91.7957V55H90.9597L90.8717 54.098C90.6957 54.362 90.4427 54.6003 90.1127 54.813C89.7827 55.0257 89.3684 55.132 88.8697 55.132ZM88.9687 54.329C89.3354 54.329 89.6581 54.2447 89.9367 54.076C90.2227 53.9 90.4427 53.658 90.5967 53.35C90.7581 53.042 90.8387 52.6827 90.8387 52.272C90.8387 51.8613 90.7581 51.502 90.5967 51.194C90.4427 50.886 90.2227 50.6477 89.9367 50.479C89.6581 50.303 89.3354 50.215 88.9687 50.215C88.6094 50.215 88.2867 50.303 88.0007 50.479C87.7221 50.6477 87.5021 50.886 87.3407 51.194C87.1867 51.502 87.1097 51.8613 87.1097 52.272C87.1097 52.6827 87.1867 53.042 87.3407 53.35C87.5021 53.658 87.7221 53.9 88.0007 54.076C88.2867 54.2447 88.6094 54.329 88.9687 54.329ZM95.392 55.132C94.7393 55.132 94.1966 54.967 93.764 54.637C93.3313 54.307 93.0783 53.8597 93.005 53.295H93.951C94.0096 53.581 94.16 53.8303 94.402 54.043C94.6513 54.2483 94.985 54.351 95.403 54.351C95.7916 54.351 96.0776 54.2703 96.261 54.109C96.4443 53.9403 96.536 53.7423 96.536 53.515C96.536 53.185 96.415 52.965 96.173 52.855C95.9383 52.745 95.6046 52.646 95.172 52.558C94.8786 52.4993 94.5853 52.415 94.292 52.305C93.9986 52.195 93.753 52.041 93.555 51.843C93.357 51.6377 93.258 51.37 93.258 51.04C93.258 50.5633 93.434 50.1747 93.786 49.874C94.1453 49.566 94.6293 49.412 95.238 49.412C95.8173 49.412 96.2903 49.5587 96.657 49.852C97.031 50.138 97.2473 50.5487 97.306 51.084H96.393C96.3563 50.8053 96.2353 50.589 96.03 50.435C95.832 50.2737 95.5643 50.193 95.227 50.193C94.897 50.193 94.6403 50.2627 94.457 50.402C94.281 50.5413 94.193 50.7247 94.193 50.952C94.193 51.172 94.3066 51.3443 94.534 51.469C94.7686 51.5937 95.084 51.7 95.48 51.788C95.8173 51.8613 96.1363 51.953 96.437 52.063C96.745 52.1657 96.9943 52.3233 97.185 52.536C97.383 52.7413 97.482 53.042 97.482 53.438C97.4893 53.9293 97.3023 54.3363 96.921 54.659C96.547 54.9743 96.0373 55.132 95.392 55.132ZM103.528 55.132C103.073 55.132 102.696 55.055 102.395 54.901C102.094 54.747 101.871 54.5417 101.724 54.285C101.577 54.0283 101.504 53.7497 101.504 53.449C101.504 52.8917 101.717 52.4627 102.142 52.162C102.567 51.8613 103.147 51.711 103.88 51.711H105.354V51.645C105.354 51.1683 105.229 50.809 104.98 50.567C104.731 50.3177 104.397 50.193 103.979 50.193C103.62 50.193 103.308 50.2847 103.044 50.468C102.787 50.644 102.626 50.9043 102.56 51.249H101.614C101.651 50.853 101.783 50.5193 102.01 50.248C102.245 49.9767 102.534 49.7713 102.879 49.632C103.224 49.4853 103.59 49.412 103.979 49.412C104.742 49.412 105.314 49.6173 105.695 50.028C106.084 50.4313 106.278 50.9703 106.278 51.645V55H105.453L105.398 54.021C105.244 54.329 105.017 54.593 104.716 54.813C104.423 55.0257 104.027 55.132 103.528 55.132ZM103.671 54.351C104.023 54.351 104.324 54.2593 104.573 54.076C104.83 53.8927 105.024 53.6543 105.156 53.361C105.288 53.0677 105.354 52.7597 105.354 52.437V52.426H103.957C103.414 52.426 103.029 52.5213 102.802 52.712C102.582 52.8953 102.472 53.1263 102.472 53.405C102.472 53.691 102.575 53.922 102.78 54.098C102.993 54.2667 103.29 54.351 103.671 54.351ZM107.664 55V49.544H108.5L108.555 50.523C108.731 50.1783 108.984 49.907 109.314 49.709C109.644 49.511 110.018 49.412 110.436 49.412C111.082 49.412 111.595 49.61 111.976 50.006C112.365 50.3947 112.559 50.996 112.559 51.81V55H111.635V51.909C111.635 50.7723 111.166 50.204 110.227 50.204C109.758 50.204 109.366 50.3763 109.05 50.721C108.742 51.0583 108.588 51.5423 108.588 52.173V55H107.664ZM116.434 55.132C115.892 55.132 115.415 55.0073 115.004 54.758C114.601 54.5087 114.286 54.1677 114.058 53.735C113.838 53.3023 113.728 52.811 113.728 52.261C113.728 51.711 113.842 51.2233 114.069 50.798C114.297 50.3653 114.612 50.028 115.015 49.786C115.419 49.5367 115.895 49.412 116.445 49.412C116.893 49.412 117.289 49.5037 117.633 49.687C117.978 49.8703 118.246 50.127 118.436 50.457V47.08H119.36V55H118.524L118.436 54.098C118.26 54.362 118.007 54.6003 117.677 54.813C117.347 55.0257 116.933 55.132 116.434 55.132ZM116.533 54.329C116.9 54.329 117.223 54.2447 117.501 54.076C117.787 53.9 118.007 53.658 118.161 53.35C118.323 53.042 118.403 52.6827 118.403 52.272C118.403 51.8613 118.323 51.502 118.161 51.194C118.007 50.886 117.787 50.6477 117.501 50.479C117.223 50.303 116.9 50.215 116.533 50.215C116.174 50.215 115.851 50.303 115.565 50.479C115.287 50.6477 115.067 50.886 114.905 51.194C114.751 51.502 114.674 51.8613 114.674 52.272C114.674 52.6827 114.751 53.042 114.905 53.35C115.067 53.658 115.287 53.9 115.565 54.076C115.851 54.2447 116.174 54.329 116.533 54.329ZM123.778 55V47.08H124.702V55H123.778ZM128.669 55.132C128.148 55.132 127.686 55.0147 127.283 54.78C126.88 54.538 126.561 54.2043 126.326 53.779C126.099 53.3537 125.985 52.8513 125.985 52.272C125.985 51.7 126.099 51.2013 126.326 50.776C126.553 50.3433 126.869 50.0097 127.272 49.775C127.683 49.533 128.156 49.412 128.691 49.412C129.219 49.412 129.674 49.533 130.055 49.775C130.444 50.0097 130.741 50.3213 130.946 50.71C131.151 51.0987 131.254 51.5167 131.254 51.964C131.254 52.0447 131.25 52.1253 131.243 52.206C131.243 52.2867 131.243 52.3783 131.243 52.481H126.898C126.92 52.899 127.015 53.2473 127.184 53.526C127.36 53.7973 127.576 54.0027 127.833 54.142C128.097 54.2813 128.376 54.351 128.669 54.351C129.05 54.351 129.369 54.263 129.626 54.087C129.883 53.911 130.07 53.6727 130.187 53.372H131.1C130.953 53.878 130.671 54.2997 130.253 54.637C129.842 54.967 129.314 55.132 128.669 55.132ZM128.669 50.193C128.229 50.193 127.837 50.3287 127.492 50.6C127.155 50.864 126.96 51.2527 126.909 51.766H130.341C130.319 51.2747 130.15 50.8897 129.835 50.611C129.52 50.3323 129.131 50.193 128.669 50.193ZM133.837 55L131.769 49.544H132.737L134.376 54.109L136.026 49.544H136.972L134.904 55H133.837ZM140.174 55.132C139.653 55.132 139.191 55.0147 138.788 54.78C138.385 54.538 138.066 54.2043 137.831 53.779C137.604 53.3537 137.49 52.8513 137.49 52.272C137.49 51.7 137.604 51.2013 137.831 50.776C138.058 50.3433 138.374 50.0097 138.777 49.775C139.188 49.533 139.661 49.412 140.196 49.412C140.724 49.412 141.179 49.533 141.56 49.775C141.949 50.0097 142.246 50.3213 142.451 50.71C142.656 51.0987 142.759 51.5167 142.759 51.964C142.759 52.0447 142.755 52.1253 142.748 52.206C142.748 52.2867 142.748 52.3783 142.748 52.481H138.403C138.425 52.899 138.52 53.2473 138.689 53.526C138.865 53.7973 139.081 54.0027 139.338 54.142C139.602 54.2813 139.881 54.351 140.174 54.351C140.555 54.351 140.874 54.263 141.131 54.087C141.388 53.911 141.575 53.6727 141.692 53.372H142.605C142.458 53.878 142.176 54.2997 141.758 54.637C141.347 54.967 140.819 55.132 140.174 55.132ZM140.174 50.193C139.734 50.193 139.342 50.3287 138.997 50.6C138.66 50.864 138.465 51.2527 138.414 51.766H141.846C141.824 51.2747 141.655 50.8897 141.34 50.611C141.025 50.3323 140.636 50.193 140.174 50.193ZM143.984 55V47.08H144.908V55H143.984ZM148.512 55.132C147.859 55.132 147.317 54.967 146.884 54.637C146.451 54.307 146.198 53.8597 146.125 53.295H147.071C147.13 53.581 147.28 53.8303 147.522 54.043C147.771 54.2483 148.105 54.351 148.523 54.351C148.912 54.351 149.198 54.2703 149.381 54.109C149.564 53.9403 149.656 53.7423 149.656 53.515C149.656 53.185 149.535 52.965 149.293 52.855C149.058 52.745 148.725 52.646 148.292 52.558C147.999 52.4993 147.705 52.415 147.412 52.305C147.119 52.195 146.873 52.041 146.675 51.843C146.477 51.6377 146.378 51.37 146.378 51.04C146.378 50.5633 146.554 50.1747 146.906 49.874C147.265 49.566 147.749 49.412 148.358 49.412C148.937 49.412 149.41 49.5587 149.777 49.852C150.151 50.138 150.367 50.5487 150.426 51.084H149.513C149.476 50.8053 149.355 50.589 149.15 50.435C148.952 50.2737 148.684 50.193 148.347 50.193C148.017 50.193 147.76 50.2627 147.577 50.402C147.401 50.5413 147.313 50.7247 147.313 50.952C147.313 51.172 147.427 51.3443 147.654 51.469C147.889 51.5937 148.204 51.7 148.6 51.788C148.937 51.8613 149.256 51.953 149.557 52.063C149.865 52.1657 150.114 52.3233 150.305 52.536C150.503 52.7413 150.602 53.042 150.602 53.438C150.609 53.9293 150.422 54.3363 150.041 54.659C149.667 54.9743 149.157 55.132 148.512 55.132ZM157.319 55.132C156.806 55.132 156.344 55.0147 155.933 54.78C155.523 54.5453 155.196 54.2153 154.954 53.79C154.72 53.3573 154.602 52.8513 154.602 52.272C154.602 51.6927 154.723 51.1903 154.965 50.765C155.207 50.3323 155.534 49.9987 155.944 49.764C156.362 49.5293 156.828 49.412 157.341 49.412C157.855 49.412 158.317 49.5293 158.727 49.764C159.138 49.9987 159.461 50.3323 159.695 50.765C159.937 51.1903 160.058 51.6927 160.058 52.272C160.058 52.8513 159.937 53.3573 159.695 53.79C159.453 54.2153 159.123 54.5453 158.705 54.78C158.295 55.0147 157.833 55.132 157.319 55.132ZM157.319 54.34C157.635 54.34 157.928 54.263 158.199 54.109C158.471 53.955 158.691 53.724 158.859 53.416C159.028 53.108 159.112 52.7267 159.112 52.272C159.112 51.8173 159.028 51.436 158.859 51.128C158.698 50.82 158.482 50.589 158.21 50.435C157.939 50.281 157.649 50.204 157.341 50.204C157.026 50.204 156.733 50.281 156.461 50.435C156.19 50.589 155.97 50.82 155.801 51.128C155.633 51.436 155.548 51.8173 155.548 52.272C155.548 52.7267 155.633 53.108 155.801 53.416C155.97 53.724 156.186 53.955 156.45 54.109C156.722 54.263 157.011 54.34 157.319 54.34ZM161.64 55V50.325H160.815V49.544H161.64V48.598C161.64 48.07 161.772 47.685 162.036 47.443C162.3 47.201 162.685 47.08 163.191 47.08H163.741V47.872H163.334C163.055 47.872 162.857 47.9307 162.74 48.048C162.623 48.158 162.564 48.3487 162.564 48.62V49.544H163.906V50.325H162.564V55H161.64ZM35.212 69.132C34.6913 69.132 34.2293 69.0147 33.826 68.78C33.4227 68.538 33.1037 68.2043 32.869 67.779C32.6417 67.3537 32.528 66.8513 32.528 66.272C32.528 65.7 32.6417 65.2013 32.869 64.776C33.0963 64.3433 33.4117 64.0097 33.815 63.775C34.2257 63.533 34.6987 63.412 35.234 63.412C35.762 63.412 36.2167 63.533 36.598 63.775C36.9867 64.0097 37.2837 64.3213 37.489 64.71C37.6943 65.0987 37.797 65.5167 37.797 65.964C37.797 66.0447 37.7933 66.1253 37.786 66.206C37.786 66.2867 37.786 66.3783 37.786 66.481H33.441C33.463 66.899 33.5583 67.2473 33.727 67.526C33.903 67.7973 34.1193 68.0027 34.376 68.142C34.64 68.2813 34.9187 68.351 35.212 68.351C35.5933 68.351 35.9123 68.263 36.169 68.087C36.4257 67.911 36.6127 67.6727 36.73 67.372H37.643C37.4963 67.878 37.214 68.2997 36.796 68.637C36.3853 68.967 35.8573 69.132 35.212 69.132ZM35.212 64.193C34.772 64.193 34.3797 64.3287 34.035 64.6C33.6977 64.864 33.5033 65.2527 33.452 65.766H36.884C36.862 65.2747 36.6933 64.8897 36.378 64.611C36.0627 64.3323 35.674 64.193 35.212 64.193ZM38.2139 69L40.1059 66.272L38.2139 63.544H39.2149L40.7439 65.799L42.2839 63.544H43.2739L41.3819 66.272L43.2739 69H42.2839L40.7439 66.745L39.2149 69H38.2139ZM44.2424 71.42V63.544H45.0784L45.1664 64.446C45.3424 64.182 45.5917 63.9437 45.9144 63.731C46.2444 63.5183 46.6624 63.412 47.1684 63.412C47.7111 63.412 48.1841 63.5367 48.5874 63.786C48.9907 64.0353 49.3024 64.3763 49.5224 64.809C49.7497 65.2417 49.8634 65.733 49.8634 66.283C49.8634 66.833 49.7497 67.3243 49.5224 67.757C49.3024 68.1823 48.9871 68.5197 48.5764 68.769C48.1731 69.011 47.7001 69.132 47.1574 69.132C46.7101 69.132 46.3104 69.0403 45.9584 68.857C45.6137 68.6737 45.3497 68.417 45.1664 68.087V71.42H44.2424ZM47.0584 68.329C47.4251 68.329 47.7477 68.2447 48.0264 68.076C48.3051 67.9 48.5251 67.658 48.6864 67.35C48.8477 67.042 48.9284 66.6827 48.9284 66.272C48.9284 65.8613 48.8477 65.502 48.6864 65.194C48.5251 64.886 48.3051 64.6477 48.0264 64.479C47.7477 64.303 47.4251 64.215 47.0584 64.215C46.6917 64.215 46.3691 64.303 46.0904 64.479C45.8117 64.6477 45.5917 64.886 45.4304 65.194C45.2691 65.502 45.1884 65.8613 45.1884 66.272C45.1884 66.6827 45.2691 67.042 45.4304 67.35C45.5917 67.658 45.8117 67.9 46.0904 68.076C46.3691 68.2447 46.6917 68.329 47.0584 68.329ZM53.6026 69.132C53.082 69.132 52.62 69.0147 52.2166 68.78C51.8133 68.538 51.4943 68.2043 51.2596 67.779C51.0323 67.3537 50.9186 66.8513 50.9186 66.272C50.9186 65.7 51.0323 65.2013 51.2596 64.776C51.487 64.3433 51.8023 64.0097 52.2056 63.775C52.6163 63.533 53.0893 63.412 53.6246 63.412C54.1526 63.412 54.6073 63.533 54.9886 63.775C55.3773 64.0097 55.6743 64.3213 55.8796 64.71C56.085 65.0987 56.1876 65.5167 56.1876 65.964C56.1876 66.0447 56.184 66.1253 56.1766 66.206C56.1766 66.2867 56.1766 66.3783 56.1766 66.481H51.8316C51.8536 66.899 51.949 67.2473 52.1176 67.526C52.2936 67.7973 52.51 68.0027 52.7666 68.142C53.0306 68.2813 53.3093 68.351 53.6026 68.351C53.984 68.351 54.303 68.263 54.5596 68.087C54.8163 67.911 55.0033 67.6727 55.1206 67.372H56.0336C55.887 67.878 55.6046 68.2997 55.1866 68.637C54.776 68.967 54.248 69.132 53.6026 69.132ZM53.6026 64.193C53.1626 64.193 52.7703 64.3287 52.4256 64.6C52.0883 64.864 51.894 65.2527 51.8426 65.766H55.2746C55.2526 65.2747 55.084 64.8897 54.7686 64.611C54.4533 64.3323 54.0646 64.193 53.6026 64.193ZM57.4123 69V63.544H58.2483L58.3253 64.589C58.494 64.2297 58.7507 63.9437 59.0953 63.731C59.44 63.5183 59.8653 63.412 60.3713 63.412V64.38H60.1183C59.7957 64.38 59.4987 64.4387 59.2273 64.556C58.956 64.666 58.7397 64.8567 58.5783 65.128C58.417 65.3993 58.3363 65.7733 58.3363 66.25V69H57.4123ZM61.9694 62.334C61.7861 62.334 61.6321 62.2753 61.5074 62.158C61.3901 62.0333 61.3314 61.8793 61.3314 61.696C61.3314 61.52 61.3901 61.3733 61.5074 61.256C61.6321 61.1387 61.7861 61.08 61.9694 61.08C62.1454 61.08 62.2957 61.1387 62.4204 61.256C62.5451 61.3733 62.6074 61.52 62.6074 61.696C62.6074 61.8793 62.5451 62.0333 62.4204 62.158C62.2957 62.2753 62.1454 62.334 61.9694 62.334ZM61.5074 69V63.544H62.4314V69H61.5074ZM66.4933 69.132C65.9726 69.132 65.5106 69.0147 65.1073 68.78C64.7039 68.538 64.3849 68.2043 64.1503 67.779C63.9229 67.3537 63.8093 66.8513 63.8093 66.272C63.8093 65.7 63.9229 65.2013 64.1503 64.776C64.3776 64.3433 64.6929 64.0097 65.0963 63.775C65.5069 63.533 65.9799 63.412 66.5152 63.412C67.0433 63.412 67.4979 63.533 67.8793 63.775C68.2679 64.0097 68.5649 64.3213 68.7703 64.71C68.9756 65.0987 69.0783 65.5167 69.0783 65.964C69.0783 66.0447 69.0746 66.1253 69.0673 66.206C69.0673 66.2867 69.0673 66.3783 69.0673 66.481H64.7223C64.7443 66.899 64.8396 67.2473 65.0083 67.526C65.1843 67.7973 65.4006 68.0027 65.6573 68.142C65.9213 68.2813 66.1999 68.351 66.4933 68.351C66.8746 68.351 67.1936 68.263 67.4503 68.087C67.7069 67.911 67.8939 67.6727 68.0113 67.372H68.9243C68.7776 67.878 68.4953 68.2997 68.0773 68.637C67.6666 68.967 67.1386 69.132 66.4933 69.132ZM66.4933 64.193C66.0533 64.193 65.6609 64.3287 65.3163 64.6C64.9789 64.864 64.7846 65.2527 64.7332 65.766H68.1653C68.1433 65.2747 67.9746 64.8897 67.6593 64.611C67.3439 64.3323 66.9553 64.193 66.4933 64.193ZM70.3029 69V63.544H71.1389L71.1939 64.523C71.3699 64.1783 71.6229 63.907 71.9529 63.709C72.2829 63.511 72.6569 63.412 73.0749 63.412C73.7203 63.412 74.2336 63.61 74.6149 64.006C75.0036 64.3947 75.1979 64.996 75.1979 65.81V69H74.2739V65.909C74.2739 64.7723 73.8046 64.204 72.8659 64.204C72.3966 64.204 72.0043 64.3763 71.6889 64.721C71.3809 65.0583 71.2269 65.5423 71.2269 66.173V69H70.3029ZM79.1059 69.132C78.5852 69.132 78.1159 69.0147 77.6979 68.78C77.2872 68.538 76.9609 68.2043 76.7189 67.779C76.4842 67.3463 76.3669 66.844 76.3669 66.272C76.3669 65.7 76.4842 65.2013 76.7189 64.776C76.9609 64.3433 77.2872 64.0097 77.6979 63.775C78.1159 63.533 78.5852 63.412 79.1059 63.412C79.7512 63.412 80.2939 63.5807 80.7339 63.918C81.1812 64.2553 81.4635 64.7063 81.5809 65.271H80.6349C80.5615 64.9337 80.3819 64.6733 80.0959 64.49C79.8099 64.2993 79.4762 64.204 79.0949 64.204C78.7869 64.204 78.4972 64.281 78.2259 64.435C77.9545 64.589 77.7345 64.82 77.5659 65.128C77.3972 65.436 77.3129 65.8173 77.3129 66.272C77.3129 66.7267 77.3972 67.108 77.5659 67.416C77.7345 67.724 77.9545 67.9587 78.2259 68.12C78.4972 68.274 78.7869 68.351 79.0949 68.351C79.4762 68.351 79.8099 68.2593 80.0959 68.076C80.3819 67.8853 80.5615 67.6177 80.6349 67.273H81.5809C81.4709 67.823 81.1922 68.2703 80.7449 68.615C80.2975 68.9597 79.7512 69.132 79.1059 69.132ZM85.3243 69.132C84.8036 69.132 84.3416 69.0147 83.9383 68.78C83.535 68.538 83.216 68.2043 82.9813 67.779C82.754 67.3537 82.6403 66.8513 82.6403 66.272C82.6403 65.7 82.754 65.2013 82.9813 64.776C83.2086 64.3433 83.524 64.0097 83.9273 63.775C84.338 63.533 84.811 63.412 85.3463 63.412C85.8743 63.412 86.329 63.533 86.7103 63.775C87.099 64.0097 87.396 64.3213 87.6013 64.71C87.8066 65.0987 87.9093 65.5167 87.9093 65.964C87.9093 66.0447 87.9056 66.1253 87.8983 66.206C87.8983 66.2867 87.8983 66.3783 87.8983 66.481H83.5533C83.5753 66.899 83.6706 67.2473 83.8393 67.526C84.0153 67.7973 84.2316 68.0027 84.4883 68.142C84.7523 68.2813 85.031 68.351 85.3243 68.351C85.7056 68.351 86.0246 68.263 86.2813 68.087C86.538 67.911 86.725 67.6727 86.8423 67.372H87.7553C87.6086 67.878 87.3263 68.2997 86.9083 68.637C86.4976 68.967 85.9696 69.132 85.3243 69.132ZM85.3243 64.193C84.8843 64.193 84.492 64.3287 84.1473 64.6C83.81 64.864 83.6156 65.2527 83.5643 65.766H86.9963C86.9743 65.2747 86.8056 64.8897 86.4903 64.611C86.175 64.3323 85.7863 64.193 85.3243 64.193ZM93.8601 69.132C93.4055 69.132 93.0278 69.055 92.7271 68.901C92.4265 68.747 92.2028 68.5417 92.0561 68.285C91.9095 68.0283 91.8361 67.7497 91.8361 67.449C91.8361 66.8917 92.0488 66.4627 92.4741 66.162C92.8995 65.8613 93.4788 65.711 94.2121 65.711H95.6861V65.645C95.6861 65.1683 95.5615 64.809 95.3121 64.567C95.0628 64.3177 94.7291 64.193 94.3111 64.193C93.9518 64.193 93.6401 64.2847 93.3761 64.468C93.1195 64.644 92.9581 64.9043 92.8921 65.249H91.9461C91.9828 64.853 92.1148 64.5193 92.3421 64.248C92.5768 63.9767 92.8665 63.7713 93.2111 63.632C93.5558 63.4853 93.9225 63.412 94.3111 63.412C95.0738 63.412 95.6458 63.6173 96.0271 64.028C96.4158 64.4313 96.6101 64.9703 96.6101 65.645V69H95.7851L95.7301 68.021C95.5761 68.329 95.3488 68.593 95.0481 68.813C94.7548 69.0257 94.3588 69.132 93.8601 69.132ZM94.0031 68.351C94.3551 68.351 94.6558 68.2593 94.9051 68.076C95.1618 67.8927 95.3561 67.6543 95.4881 67.361C95.6201 67.0677 95.6861 66.7597 95.6861 66.437V66.426H94.2891C93.7465 66.426 93.3615 66.5213 93.1341 66.712C92.9141 66.8953 92.8041 67.1263 92.8041 67.405C92.8041 67.691 92.9068 67.922 93.1121 68.098C93.3248 68.2667 93.6218 68.351 94.0031 68.351ZM97.9963 69V63.544H98.8323L98.9093 64.589C99.078 64.2297 99.3346 63.9437 99.6793 63.731C100.024 63.5183 100.449 63.412 100.955 63.412V64.38H100.702C100.38 64.38 100.083 64.4387 99.8113 64.556C99.54 64.666 99.3236 64.8567 99.1623 65.128C99.001 65.3993 98.9203 65.7733 98.9203 66.25V69H97.9963ZM104.241 69.132C103.721 69.132 103.259 69.0147 102.855 68.78C102.452 68.538 102.133 68.2043 101.898 67.779C101.671 67.3537 101.557 66.8513 101.557 66.272C101.557 65.7 101.671 65.2013 101.898 64.776C102.126 64.3433 102.441 64.0097 102.844 63.775C103.255 63.533 103.728 63.412 104.263 63.412C104.791 63.412 105.246 63.533 105.627 63.775C106.016 64.0097 106.313 64.3213 106.518 64.71C106.724 65.0987 106.826 65.5167 106.826 65.964C106.826 66.0447 106.823 66.1253 106.815 66.206C106.815 66.2867 106.815 66.3783 106.815 66.481H102.47C102.492 66.899 102.588 67.2473 102.756 67.526C102.932 67.7973 103.149 68.0027 103.405 68.142C103.669 68.2813 103.948 68.351 104.241 68.351C104.623 68.351 104.942 68.263 105.198 68.087C105.455 67.911 105.642 67.6727 105.759 67.372H106.672C106.526 67.878 106.243 68.2997 105.825 68.637C105.415 68.967 104.887 69.132 104.241 69.132ZM104.241 64.193C103.801 64.193 103.409 64.3287 103.064 64.6C102.727 64.864 102.533 65.2527 102.481 65.766H105.913C105.891 65.2747 105.723 64.8897 105.407 64.611C105.092 64.3323 104.703 64.193 104.241 64.193ZM112.062 69L110.467 63.544H111.391L112.546 67.823L113.822 63.544H114.867L116.154 67.823L117.298 63.544H118.233L116.638 69H115.692L114.35 64.501L113.008 69H112.062ZM121.504 69.132C120.983 69.132 120.521 69.0147 120.118 68.78C119.715 68.538 119.396 68.2043 119.161 67.779C118.934 67.3537 118.82 66.8513 118.82 66.272C118.82 65.7 118.934 65.2013 119.161 64.776C119.388 64.3433 119.704 64.0097 120.107 63.775C120.518 63.533 120.991 63.412 121.526 63.412C122.054 63.412 122.509 63.533 122.89 63.775C123.279 64.0097 123.576 64.3213 123.781 64.71C123.986 65.0987 124.089 65.5167 124.089 65.964C124.089 66.0447 124.085 66.1253 124.078 66.206C124.078 66.2867 124.078 66.3783 124.078 66.481H119.733C119.755 66.899 119.85 67.2473 120.019 67.526C120.195 67.7973 120.411 68.0027 120.668 68.142C120.932 68.2813 121.211 68.351 121.504 68.351C121.885 68.351 122.204 68.263 122.461 68.087C122.718 67.911 122.905 67.6727 123.022 67.372H123.935C123.788 67.878 123.506 68.2997 123.088 68.637C122.677 68.967 122.149 69.132 121.504 69.132ZM121.504 64.193C121.064 64.193 120.672 64.3287 120.327 64.6C119.99 64.864 119.795 65.2527 119.744 65.766H123.176C123.154 65.2747 122.985 64.8897 122.67 64.611C122.355 64.3323 121.966 64.193 121.504 64.193ZM125.314 69V61.08H126.238V69H125.314ZM130.26 69.132C129.739 69.132 129.27 69.0147 128.852 68.78C128.441 68.538 128.115 68.2043 127.873 67.779C127.638 67.3463 127.521 66.844 127.521 66.272C127.521 65.7 127.638 65.2013 127.873 64.776C128.115 64.3433 128.441 64.0097 128.852 63.775C129.27 63.533 129.739 63.412 130.26 63.412C130.905 63.412 131.448 63.5807 131.888 63.918C132.335 64.2553 132.618 64.7063 132.735 65.271H131.789C131.716 64.9337 131.536 64.6733 131.25 64.49C130.964 64.2993 130.63 64.204 130.249 64.204C129.941 64.204 129.651 64.281 129.38 64.435C129.109 64.589 128.889 64.82 128.72 65.128C128.551 65.436 128.467 65.8173 128.467 66.272C128.467 66.7267 128.551 67.108 128.72 67.416C128.889 67.724 129.109 67.9587 129.38 68.12C129.651 68.274 129.941 68.351 130.249 68.351C130.63 68.351 130.964 68.2593 131.25 68.076C131.536 67.8853 131.716 67.6177 131.789 67.273H132.735C132.625 67.823 132.346 68.2703 131.899 68.615C131.452 68.9597 130.905 69.132 130.26 69.132ZM136.512 69.132C135.998 69.132 135.536 69.0147 135.126 68.78C134.715 68.5453 134.389 68.2153 134.147 67.79C133.912 67.3573 133.795 66.8513 133.795 66.272C133.795 65.6927 133.916 65.1903 134.158 64.765C134.4 64.3323 134.726 63.9987 135.137 63.764C135.555 63.5293 136.02 63.412 136.534 63.412C137.047 63.412 137.509 63.5293 137.92 63.764C138.33 63.9987 138.653 64.3323 138.888 64.765C139.13 65.1903 139.251 65.6927 139.251 66.272C139.251 66.8513 139.13 67.3573 138.888 67.79C138.646 68.2153 138.316 68.5453 137.898 68.78C137.487 69.0147 137.025 69.132 136.512 69.132ZM136.512 68.34C136.827 68.34 137.12 68.263 137.392 68.109C137.663 67.955 137.883 67.724 138.052 67.416C138.22 67.108 138.305 66.7267 138.305 66.272C138.305 65.8173 138.22 65.436 138.052 65.128C137.89 64.82 137.674 64.589 137.403 64.435C137.131 64.281 136.842 64.204 136.534 64.204C136.218 64.204 135.925 64.281 135.654 64.435C135.382 64.589 135.162 64.82 134.994 65.128C134.825 65.436 134.741 65.8173 134.741 66.272C134.741 66.7267 134.825 67.108 134.994 67.416C135.162 67.724 135.379 67.955 135.643 68.109C135.914 68.263 136.204 68.34 136.512 68.34ZM140.535 69V63.544H141.371L141.437 64.336C141.613 64.0427 141.848 63.8153 142.141 63.654C142.435 63.4927 142.765 63.412 143.131 63.412C143.564 63.412 143.934 63.5 144.242 63.676C144.558 63.852 144.8 64.1197 144.968 64.479C145.159 64.149 145.419 63.8887 145.749 63.698C146.087 63.5073 146.45 63.412 146.838 63.412C147.491 63.412 148.012 63.61 148.4 64.006C148.789 64.3947 148.983 64.996 148.983 65.81V69H148.07V65.909C148.07 65.3443 147.957 64.919 147.729 64.633C147.502 64.347 147.176 64.204 146.75 64.204C146.31 64.204 145.944 64.3763 145.65 64.721C145.364 65.0583 145.221 65.5423 145.221 66.173V69H144.297V65.909C144.297 65.3443 144.184 64.919 143.956 64.633C143.729 64.347 143.403 64.204 142.977 64.204C142.545 64.204 142.182 64.3763 141.888 64.721C141.602 65.0583 141.459 65.5423 141.459 66.173V69H140.535ZM152.828 69.132C152.308 69.132 151.846 69.0147 151.442 68.78C151.039 68.538 150.72 68.2043 150.485 67.779C150.258 67.3537 150.144 66.8513 150.144 66.272C150.144 65.7 150.258 65.2013 150.485 64.776C150.713 64.3433 151.028 64.0097 151.431 63.775C151.842 63.533 152.315 63.412 152.85 63.412C153.378 63.412 153.833 63.533 154.214 63.775C154.603 64.0097 154.9 64.3213 155.105 64.71C155.311 65.0987 155.413 65.5167 155.413 65.964C155.413 66.0447 155.41 66.1253 155.402 66.206C155.402 66.2867 155.402 66.3783 155.402 66.481H151.057C151.079 66.899 151.175 67.2473 151.343 67.526C151.519 67.7973 151.736 68.0027 151.992 68.142C152.256 68.2813 152.535 68.351 152.828 68.351C153.21 68.351 153.529 68.263 153.785 68.087C154.042 67.911 154.229 67.6727 154.346 67.372H155.259C155.113 67.878 154.83 68.2997 154.412 68.637C154.002 68.967 153.474 69.132 152.828 69.132ZM152.828 64.193C152.388 64.193 151.996 64.3287 151.651 64.6C151.314 64.864 151.12 65.2527 151.068 65.766H154.5C154.478 65.2747 154.31 64.8897 153.994 64.611C153.679 64.3323 153.29 64.193 152.828 64.193Z" fill="black"/>
</g>
<defs>
<filter id="filter0_d_162_5920" x="16" y="0" width="192" height="88" filterUnits="userSpaceOnUse" color-interpolation-filters="sRGB">
<feFlood flood-opacity="0" result="BackgroundImageFix"/>
<feColorMatrix in="SourceAlpha" type="matrix" values="0 0 0 0 0 0 0 0 0 0 0 0 0 0 0 0 0 0 127 0" result="hardAlpha"/>
<feOffset/>
<feGaussianBlur stdDeviation="4"/>
<feComposite in2="hardAlpha" operator="out"/>
<feColorMatrix type="matrix" values="0 0 0 0 0 0 0 0 0 0 0 0 0 0 0 0 0 0 0.15 0"/>
<feBlend mode="normal" in2="BackgroundImageFix" result="effect1_dropShadow_162_5920"/>
<feBlend mode="normal" in="SourceGraphic" in2="effect1_dropShadow_162_5920" result="shape"/>
</filter>
</defs>
</svg>
