<svg width="208" height="74" viewBox="0 0 208 74" fill="none" xmlns="http://www.w3.org/2000/svg">
<circle cx="4" cy="37" r="4" fill="#005271"/>
<line x1="8" y1="36.5" x2="24" y2="36.5" stroke="#005271" stroke-dasharray="2 2"/>
<g filter="url(#filter0_d_162_5938)">
<rect x="24" y="8" width="176" height="58" rx="4" fill="white" shape-rendering="crispEdges"/>
<path d="M35.597 27.132C35.069 27.132 34.5887 27.0293 34.156 26.824C33.7307 26.6113 33.3897 26.285 33.133 25.845C32.8763 25.405 32.748 24.844 32.748 24.162V19.3H33.672V24.173C33.672 24.921 33.8517 25.4637 34.211 25.801C34.5703 26.1383 35.0397 26.307 35.619 26.307C36.1983 26.307 36.664 26.1383 37.016 25.801C37.368 25.4637 37.544 24.921 37.544 24.173V19.3H38.468V24.162C38.468 24.844 38.3397 25.405 38.083 25.845C37.8263 26.285 37.4817 26.6113 37.049 26.824C36.6163 27.0293 36.1323 27.132 35.597 27.132ZM42.0678 27.132C41.4151 27.132 40.8724 26.967 40.4398 26.637C40.0071 26.307 39.7541 25.8597 39.6808 25.295H40.6268C40.6854 25.581 40.8358 25.8303 41.0778 26.043C41.3271 26.2483 41.6608 26.351 42.0788 26.351C42.4674 26.351 42.7534 26.2703 42.9368 26.109C43.1201 25.9403 43.2118 25.7423 43.2118 25.515C43.2118 25.185 43.0908 24.965 42.8488 24.855C42.6141 24.745 42.2804 24.646 41.8478 24.558C41.5544 24.4993 41.2611 24.415 40.9678 24.305C40.6744 24.195 40.4288 24.041 40.2308 23.843C40.0328 23.6377 39.9338 23.37 39.9338 23.04C39.9338 22.5633 40.1098 22.1747 40.4618 21.874C40.8211 21.566 41.3051 21.412 41.9138 21.412C42.4931 21.412 42.9661 21.5587 43.3328 21.852C43.7068 22.138 43.9231 22.5487 43.9818 23.084H43.0688C43.0321 22.8053 42.9111 22.589 42.7058 22.435C42.5078 22.2737 42.2401 22.193 41.9028 22.193C41.5728 22.193 41.3161 22.2627 41.1328 22.402C40.9568 22.5413 40.8688 22.7247 40.8688 22.952C40.8688 23.172 40.9824 23.3443 41.2098 23.469C41.4444 23.5937 41.7598 23.7 42.1558 23.788C42.4931 23.8613 42.8121 23.953 43.1128 24.063C43.4208 24.1657 43.6701 24.3233 43.8608 24.536C44.0588 24.7413 44.1578 25.042 44.1578 25.438C44.1651 25.9293 43.9781 26.3363 43.5968 26.659C43.2228 26.9743 42.7131 27.132 42.0678 27.132ZM47.9308 27.132C47.4101 27.132 46.9481 27.0147 46.5448 26.78C46.1414 26.538 45.8224 26.2043 45.5878 25.779C45.3604 25.3537 45.2468 24.8513 45.2468 24.272C45.2468 23.7 45.3604 23.2013 45.5878 22.776C45.8151 22.3433 46.1304 22.0097 46.5338 21.775C46.9444 21.533 47.4174 21.412 47.9527 21.412C48.4808 21.412 48.9354 21.533 49.3168 21.775C49.7054 22.0097 50.0024 22.3213 50.2078 22.71C50.4131 23.0987 50.5158 23.5167 50.5158 23.964C50.5158 24.0447 50.5121 24.1253 50.5048 24.206C50.5048 24.2867 50.5048 24.3783 50.5048 24.481H46.1598C46.1818 24.899 46.2771 25.2473 46.4458 25.526C46.6218 25.7973 46.8381 26.0027 47.0948 26.142C47.3588 26.2813 47.6374 26.351 47.9308 26.351C48.3121 26.351 48.6311 26.263 48.8878 26.087C49.1444 25.911 49.3314 25.6727 49.4488 25.372H50.3618C50.2151 25.878 49.9328 26.2997 49.5148 26.637C49.1041 26.967 48.5761 27.132 47.9308 27.132ZM47.9308 22.193C47.4908 22.193 47.0984 22.3287 46.7538 22.6C46.4164 22.864 46.2221 23.2527 46.1707 23.766H49.6028C49.5808 23.2747 49.4121 22.8897 49.0968 22.611C48.7814 22.3323 48.3928 22.193 47.9308 22.193ZM51.7404 27V21.544H52.5764L52.6534 22.589C52.8221 22.2297 53.0788 21.9437 53.4234 21.731C53.7681 21.5183 54.1934 21.412 54.6994 21.412V22.38H54.4464C54.1238 22.38 53.8268 22.4387 53.5554 22.556C53.2841 22.666 53.0678 22.8567 52.9064 23.128C52.7451 23.3993 52.6644 23.7733 52.6644 24.25V27H51.7404ZM57.8265 27.132C57.1739 27.132 56.6312 26.967 56.1985 26.637C55.7659 26.307 55.5129 25.8597 55.4395 25.295H56.3855C56.4442 25.581 56.5945 25.8303 56.8365 26.043C57.0859 26.2483 57.4195 26.351 57.8375 26.351C58.2262 26.351 58.5122 26.2703 58.6955 26.109C58.8789 25.9403 58.9705 25.7423 58.9705 25.515C58.9705 25.185 58.8495 24.965 58.6075 24.855C58.3729 24.745 58.0392 24.646 57.6065 24.558C57.3132 24.4993 57.0199 24.415 56.7265 24.305C56.4332 24.195 56.1875 24.041 55.9895 23.843C55.7915 23.6377 55.6925 23.37 55.6925 23.04C55.6925 22.5633 55.8685 22.1747 56.2205 21.874C56.5799 21.566 57.0639 21.412 57.6725 21.412C58.2519 21.412 58.7249 21.5587 59.0915 21.852C59.4655 22.138 59.6819 22.5487 59.7405 23.084H58.8275C58.7909 22.8053 58.6699 22.589 58.4645 22.435C58.2665 22.2737 57.9989 22.193 57.6615 22.193C57.3315 22.193 57.0749 22.2627 56.8915 22.402C56.7155 22.5413 56.6275 22.7247 56.6275 22.952C56.6275 23.172 56.7412 23.3443 56.9685 23.469C57.2032 23.5937 57.5185 23.7 57.9145 23.788C58.2519 23.8613 58.5709 23.953 58.8715 24.063C59.1795 24.1657 59.4289 24.3233 59.6195 24.536C59.8175 24.7413 59.9165 25.042 59.9165 25.438C59.9239 25.9293 59.7369 26.3363 59.3555 26.659C58.9815 26.9743 58.4719 27.132 57.8265 27.132ZM66.6557 27.132C66.135 27.132 65.6657 27.0147 65.2477 26.78C64.837 26.538 64.5107 26.2043 64.2687 25.779C64.034 25.3463 63.9167 24.844 63.9167 24.272C63.9167 23.7 64.034 23.2013 64.2687 22.776C64.5107 22.3433 64.837 22.0097 65.2477 21.775C65.6657 21.533 66.135 21.412 66.6557 21.412C67.301 21.412 67.8437 21.5807 68.2837 21.918C68.731 22.2553 69.0133 22.7063 69.1307 23.271H68.1847C68.1113 22.9337 67.9317 22.6733 67.6457 22.49C67.3597 22.2993 67.026 22.204 66.6447 22.204C66.3367 22.204 66.047 22.281 65.7757 22.435C65.5043 22.589 65.2843 22.82 65.1157 23.128C64.947 23.436 64.8627 23.8173 64.8627 24.272C64.8627 24.7267 64.947 25.108 65.1157 25.416C65.2843 25.724 65.5043 25.9587 65.7757 26.12C66.047 26.274 66.3367 26.351 66.6447 26.351C67.026 26.351 67.3597 26.2593 67.6457 26.076C67.9317 25.8853 68.1113 25.6177 68.1847 25.273H69.1307C69.0207 25.823 68.742 26.2703 68.2947 26.615C67.8473 26.9597 67.301 27.132 66.6557 27.132ZM72.2361 27.132C71.7814 27.132 71.4038 27.055 71.1031 26.901C70.8024 26.747 70.5788 26.5417 70.4321 26.285C70.2854 26.0283 70.2121 25.7497 70.2121 25.449C70.2121 24.8917 70.4248 24.4627 70.8501 24.162C71.2754 23.8613 71.8548 23.711 72.5881 23.711H74.0621V23.645C74.0621 23.1683 73.9374 22.809 73.6881 22.567C73.4388 22.3177 73.1051 22.193 72.6871 22.193C72.3278 22.193 72.0161 22.2847 71.7521 22.468C71.4954 22.644 71.3341 22.9043 71.2681 23.249H70.3221C70.3588 22.853 70.4908 22.5193 70.7181 22.248C70.9528 21.9767 71.2424 21.7713 71.5871 21.632C71.9318 21.4853 72.2984 21.412 72.6871 21.412C73.4498 21.412 74.0218 21.6173 74.4031 22.028C74.7918 22.4313 74.9861 22.9703 74.9861 23.645V27H74.1611L74.1061 26.021C73.9521 26.329 73.7248 26.593 73.4241 26.813C73.1308 27.0257 72.7348 27.132 72.2361 27.132ZM72.3791 26.351C72.7311 26.351 73.0318 26.2593 73.2811 26.076C73.5378 25.8927 73.7321 25.6543 73.8641 25.361C73.9961 25.0677 74.0621 24.7597 74.0621 24.437V24.426H72.6651C72.1224 24.426 71.7374 24.5213 71.5101 24.712C71.2901 24.8953 71.1801 25.1263 71.1801 25.405C71.1801 25.691 71.2828 25.922 71.4881 26.098C71.7008 26.2667 71.9978 26.351 72.3791 26.351ZM76.3723 27V21.544H77.2083L77.2633 22.523C77.4393 22.1783 77.6923 21.907 78.0223 21.709C78.3523 21.511 78.7263 21.412 79.1443 21.412C79.7896 21.412 80.3029 21.61 80.6843 22.006C81.0729 22.3947 81.2673 22.996 81.2673 23.81V27H80.3433V23.909C80.3433 22.7723 79.8739 22.204 78.9353 22.204C78.4659 22.204 78.0736 22.3763 77.7583 22.721C77.4503 23.0583 77.2963 23.5423 77.2963 24.173V27H76.3723ZM88.0313 27.132C87.5107 27.132 87.0487 27.0147 86.6453 26.78C86.242 26.538 85.923 26.2043 85.6883 25.779C85.461 25.3537 85.3473 24.8513 85.3473 24.272C85.3473 23.7 85.461 23.2013 85.6883 22.776C85.9157 22.3433 86.231 22.0097 86.6343 21.775C87.045 21.533 87.518 21.412 88.0533 21.412C88.5813 21.412 89.036 21.533 89.4173 21.775C89.806 22.0097 90.103 22.3213 90.3083 22.71C90.5137 23.0987 90.6163 23.5167 90.6163 23.964C90.6163 24.0447 90.6127 24.1253 90.6053 24.206C90.6053 24.2867 90.6053 24.3783 90.6053 24.481H86.2603C86.2823 24.899 86.3777 25.2473 86.5463 25.526C86.7223 25.7973 86.9387 26.0027 87.1953 26.142C87.4593 26.2813 87.738 26.351 88.0313 26.351C88.4127 26.351 88.7317 26.263 88.9883 26.087C89.245 25.911 89.432 25.6727 89.5493 25.372H90.4623C90.3157 25.878 90.0333 26.2997 89.6153 26.637C89.2047 26.967 88.6767 27.132 88.0313 27.132ZM88.0313 22.193C87.5913 22.193 87.199 22.3287 86.8543 22.6C86.517 22.864 86.3227 23.2527 86.2713 23.766H89.7033C89.6813 23.2747 89.5127 22.8897 89.1973 22.611C88.882 22.3323 88.4933 22.193 88.0313 22.193ZM93.656 27.132C93.2014 27.132 92.8237 27.055 92.523 26.901C92.2224 26.747 91.9987 26.5417 91.852 26.285C91.7054 26.0283 91.632 25.7497 91.632 25.449C91.632 24.8917 91.8447 24.4627 92.27 24.162C92.6954 23.8613 93.2747 23.711 94.008 23.711H95.482V23.645C95.482 23.1683 95.3574 22.809 95.108 22.567C94.8587 22.3177 94.525 22.193 94.107 22.193C93.7477 22.193 93.436 22.2847 93.172 22.468C92.9154 22.644 92.754 22.9043 92.688 23.249H91.742C91.7787 22.853 91.9107 22.5193 92.138 22.248C92.3727 21.9767 92.6624 21.7713 93.007 21.632C93.3517 21.4853 93.7184 21.412 94.107 21.412C94.8697 21.412 95.4417 21.6173 95.823 22.028C96.2117 22.4313 96.406 22.9703 96.406 23.645V27H95.581L95.526 26.021C95.372 26.329 95.1447 26.593 94.844 26.813C94.5507 27.0257 94.1547 27.132 93.656 27.132ZM93.799 26.351C94.151 26.351 94.4517 26.2593 94.701 26.076C94.9577 25.8927 95.152 25.6543 95.284 25.361C95.416 25.0677 95.482 24.7597 95.482 24.437V24.426H94.085C93.5424 24.426 93.1574 24.5213 92.93 24.712C92.71 24.8953 92.6 25.1263 92.6 25.405C92.6 25.691 92.7027 25.922 92.908 26.098C93.1207 26.2667 93.4177 26.351 93.799 26.351ZM99.8822 27.132C99.2295 27.132 98.6869 26.967 98.2542 26.637C97.8215 26.307 97.5685 25.8597 97.4952 25.295H98.4412C98.4999 25.581 98.6502 25.8303 98.8922 26.043C99.1415 26.2483 99.4752 26.351 99.8932 26.351C100.282 26.351 100.568 26.2703 100.751 26.109C100.935 25.9403 101.026 25.7423 101.026 25.515C101.026 25.185 100.905 24.965 100.663 24.855C100.429 24.745 100.095 24.646 99.6622 24.558C99.3689 24.4993 99.0755 24.415 98.7822 24.305C98.4889 24.195 98.2432 24.041 98.0452 23.843C97.8472 23.6377 97.7482 23.37 97.7482 23.04C97.7482 22.5633 97.9242 22.1747 98.2762 21.874C98.6355 21.566 99.1195 21.412 99.7282 21.412C100.308 21.412 100.781 21.5587 101.147 21.852C101.521 22.138 101.738 22.5487 101.796 23.084H100.883C100.847 22.8053 100.726 22.589 100.52 22.435C100.322 22.2737 100.055 22.193 99.7172 22.193C99.3872 22.193 99.1305 22.2627 98.9472 22.402C98.7712 22.5413 98.6832 22.7247 98.6832 22.952C98.6832 23.172 98.7969 23.3443 99.0242 23.469C99.2589 23.5937 99.5742 23.7 99.9702 23.788C100.308 23.8613 100.627 23.953 100.927 24.063C101.235 24.1657 101.485 24.3233 101.675 24.536C101.873 24.7413 101.972 25.042 101.972 25.438C101.98 25.9293 101.793 26.3363 101.411 26.659C101.037 26.9743 100.528 27.132 99.8822 27.132ZM103.853 20.334C103.67 20.334 103.516 20.2753 103.391 20.158C103.274 20.0333 103.215 19.8793 103.215 19.696C103.215 19.52 103.274 19.3733 103.391 19.256C103.516 19.1387 103.67 19.08 103.853 19.08C104.029 19.08 104.18 19.1387 104.304 19.256C104.429 19.3733 104.491 19.52 104.491 19.696C104.491 19.8793 104.429 20.0333 104.304 20.158C104.18 20.2753 104.029 20.334 103.853 20.334ZM103.391 27V21.544H104.315V27H103.391ZM105.924 27V19.08H106.848V27H105.924ZM108.957 29.42L110.31 26.472H109.991L107.824 21.544H108.825L110.629 25.79L112.543 21.544H113.5L109.925 29.42H108.957ZM119.861 27.132C119.318 27.132 118.842 27.0073 118.431 26.758C118.028 26.5087 117.712 26.1677 117.485 25.735C117.265 25.3023 117.155 24.811 117.155 24.261C117.155 23.711 117.269 23.2233 117.496 22.798C117.723 22.3653 118.039 22.028 118.442 21.786C118.845 21.5367 119.322 21.412 119.872 21.412C120.319 21.412 120.715 21.5037 121.06 21.687C121.405 21.8703 121.672 22.127 121.863 22.457V19.08H122.787V27H121.951L121.863 26.098C121.687 26.362 121.434 26.6003 121.104 26.813C120.774 27.0257 120.36 27.132 119.861 27.132ZM119.96 26.329C120.327 26.329 120.649 26.2447 120.928 26.076C121.214 25.9 121.434 25.658 121.588 25.35C121.749 25.042 121.83 24.6827 121.83 24.272C121.83 23.8613 121.749 23.502 121.588 23.194C121.434 22.886 121.214 22.6477 120.928 22.479C120.649 22.303 120.327 22.215 119.96 22.215C119.601 22.215 119.278 22.303 118.992 22.479C118.713 22.6477 118.493 22.886 118.332 23.194C118.178 23.502 118.101 23.8613 118.101 24.272C118.101 24.6827 118.178 25.042 118.332 25.35C118.493 25.658 118.713 25.9 118.992 26.076C119.278 26.2447 119.601 26.329 119.96 26.329ZM124.854 20.334C124.671 20.334 124.517 20.2753 124.392 20.158C124.275 20.0333 124.216 19.8793 124.216 19.696C124.216 19.52 124.275 19.3733 124.392 19.256C124.517 19.1387 124.671 19.08 124.854 19.08C125.03 19.08 125.181 19.1387 125.305 19.256C125.43 19.3733 125.492 19.52 125.492 19.696C125.492 19.8793 125.43 20.0333 125.305 20.158C125.181 20.2753 125.03 20.334 124.854 20.334ZM124.392 27V21.544H125.316V27H124.392ZM129.015 27.132C128.362 27.132 127.82 26.967 127.387 26.637C126.954 26.307 126.701 25.8597 126.628 25.295H127.574C127.633 25.581 127.783 25.8303 128.025 26.043C128.274 26.2483 128.608 26.351 129.026 26.351C129.415 26.351 129.701 26.2703 129.884 26.109C130.067 25.9403 130.159 25.7423 130.159 25.515C130.159 25.185 130.038 24.965 129.796 24.855C129.561 24.745 129.228 24.646 128.795 24.558C128.502 24.4993 128.208 24.415 127.915 24.305C127.622 24.195 127.376 24.041 127.178 23.843C126.98 23.6377 126.881 23.37 126.881 23.04C126.881 22.5633 127.057 22.1747 127.409 21.874C127.768 21.566 128.252 21.412 128.861 21.412C129.44 21.412 129.913 21.5587 130.28 21.852C130.654 22.138 130.87 22.5487 130.929 23.084H130.016C129.979 22.8053 129.858 22.589 129.653 22.435C129.455 22.2737 129.187 22.193 128.85 22.193C128.52 22.193 128.263 22.2627 128.08 22.402C127.904 22.5413 127.816 22.7247 127.816 22.952C127.816 23.172 127.93 23.3443 128.157 23.469C128.392 23.5937 128.707 23.7 129.103 23.788C129.44 23.8613 129.759 23.953 130.06 24.063C130.368 24.1657 130.617 24.3233 130.808 24.536C131.006 24.7413 131.105 25.042 131.105 25.438C131.112 25.9293 130.925 26.3363 130.544 26.659C130.17 26.9743 129.66 27.132 129.015 27.132ZM134.933 27.132C134.412 27.132 133.943 27.0147 133.525 26.78C133.114 26.538 132.788 26.2043 132.546 25.779C132.311 25.3463 132.194 24.844 132.194 24.272C132.194 23.7 132.311 23.2013 132.546 22.776C132.788 22.3433 133.114 22.0097 133.525 21.775C133.943 21.533 134.412 21.412 134.933 21.412C135.578 21.412 136.121 21.5807 136.561 21.918C137.008 22.2553 137.291 22.7063 137.408 23.271H136.462C136.389 22.9337 136.209 22.6733 135.923 22.49C135.637 22.2993 135.303 22.204 134.922 22.204C134.614 22.204 134.324 22.281 134.053 22.435C133.782 22.589 133.562 22.82 133.393 23.128C133.224 23.436 133.14 23.8173 133.14 24.272C133.14 24.7267 133.224 25.108 133.393 25.416C133.562 25.724 133.782 25.9587 134.053 26.12C134.324 26.274 134.614 26.351 134.922 26.351C135.303 26.351 135.637 26.2593 135.923 26.076C136.209 25.8853 136.389 25.6177 136.462 25.273H137.408C137.298 25.823 137.019 26.2703 136.572 26.615C136.125 26.9597 135.578 27.132 134.933 27.132ZM141.184 27.132C140.671 27.132 140.209 27.0147 139.798 26.78C139.388 26.5453 139.061 26.2153 138.819 25.79C138.585 25.3573 138.467 24.8513 138.467 24.272C138.467 23.6927 138.588 23.1903 138.83 22.765C139.072 22.3323 139.399 21.9987 139.809 21.764C140.227 21.5293 140.693 21.412 141.206 21.412C141.72 21.412 142.182 21.5293 142.592 21.764C143.003 21.9987 143.326 22.3323 143.56 22.765C143.802 23.1903 143.923 23.6927 143.923 24.272C143.923 24.8513 143.802 25.3573 143.56 25.79C143.318 26.2153 142.988 26.5453 142.57 26.78C142.16 27.0147 141.698 27.132 141.184 27.132ZM141.184 26.34C141.5 26.34 141.793 26.263 142.064 26.109C142.336 25.955 142.556 25.724 142.724 25.416C142.893 25.108 142.977 24.7267 142.977 24.272C142.977 23.8173 142.893 23.436 142.724 23.128C142.563 22.82 142.347 22.589 142.075 22.435C141.804 22.281 141.514 22.204 141.206 22.204C140.891 22.204 140.598 22.281 140.326 22.435C140.055 22.589 139.835 22.82 139.666 23.128C139.498 23.436 139.413 23.8173 139.413 24.272C139.413 24.7267 139.498 25.108 139.666 25.416C139.835 25.724 140.051 25.955 140.315 26.109C140.587 26.263 140.876 26.34 141.184 26.34ZM146.502 27L144.434 21.544H145.402L147.041 26.109L148.691 21.544H149.637L147.569 27H146.502ZM152.839 27.132C152.318 27.132 151.856 27.0147 151.453 26.78C151.05 26.538 150.731 26.2043 150.496 25.779C150.269 25.3537 150.155 24.8513 150.155 24.272C150.155 23.7 150.269 23.2013 150.496 22.776C150.723 22.3433 151.039 22.0097 151.442 21.775C151.853 21.533 152.326 21.412 152.861 21.412C153.389 21.412 153.844 21.533 154.225 21.775C154.614 22.0097 154.911 22.3213 155.116 22.71C155.321 23.0987 155.424 23.5167 155.424 23.964C155.424 24.0447 155.42 24.1253 155.413 24.206C155.413 24.2867 155.413 24.3783 155.413 24.481H151.068C151.09 24.899 151.185 25.2473 151.354 25.526C151.53 25.7973 151.746 26.0027 152.003 26.142C152.267 26.2813 152.546 26.351 152.839 26.351C153.22 26.351 153.539 26.263 153.796 26.087C154.053 25.911 154.24 25.6727 154.357 25.372H155.27C155.123 25.878 154.841 26.2997 154.423 26.637C154.012 26.967 153.484 27.132 152.839 27.132ZM152.839 22.193C152.399 22.193 152.007 22.3287 151.662 22.6C151.325 22.864 151.13 23.2527 151.079 23.766H154.511C154.489 23.2747 154.32 22.8897 154.005 22.611C153.69 22.3323 153.301 22.193 152.839 22.193ZM156.649 27V21.544H157.485L157.562 22.589C157.73 22.2297 157.987 21.9437 158.332 21.731C158.676 21.5183 159.102 21.412 159.608 21.412V22.38H159.355C159.032 22.38 158.735 22.4387 158.464 22.556C158.192 22.666 157.976 22.8567 157.815 23.128C157.653 23.3993 157.573 23.7733 157.573 24.25V27H156.649ZM32.759 41V35.544H33.595L33.672 36.589C33.8407 36.2297 34.0973 35.9437 34.442 35.731C34.7867 35.5183 35.212 35.412 35.718 35.412V36.38H35.465C35.1423 36.38 34.8453 36.4387 34.574 36.556C34.3027 36.666 34.0863 36.8567 33.925 37.128C33.7637 37.3993 33.683 37.7733 33.683 38.25V41H32.759ZM39.004 41.132C38.4833 41.132 38.0213 41.0147 37.618 40.78C37.2147 40.538 36.8957 40.2043 36.661 39.779C36.4337 39.3537 36.32 38.8513 36.32 38.272C36.32 37.7 36.4337 37.2013 36.661 36.776C36.8883 36.3433 37.2037 36.0097 37.607 35.775C38.0177 35.533 38.4907 35.412 39.026 35.412C39.554 35.412 40.0087 35.533 40.39 35.775C40.7787 36.0097 41.0757 36.3213 41.281 36.71C41.4863 37.0987 41.589 37.5167 41.589 37.964C41.589 38.0447 41.5853 38.1253 41.578 38.206C41.578 38.2867 41.578 38.3783 41.578 38.481H37.233C37.255 38.899 37.3503 39.2473 37.519 39.526C37.695 39.7973 37.9113 40.0027 38.168 40.142C38.432 40.2813 38.7107 40.351 39.004 40.351C39.3853 40.351 39.7043 40.263 39.961 40.087C40.2177 39.911 40.4047 39.6727 40.522 39.372H41.435C41.2883 39.878 41.006 40.2997 40.588 40.637C40.1773 40.967 39.6493 41.132 39.004 41.132ZM39.004 36.193C38.564 36.193 38.1717 36.3287 37.827 36.6C37.4897 36.864 37.2953 37.2527 37.244 37.766H40.676C40.654 37.2747 40.4853 36.8897 40.17 36.611C39.8547 36.3323 39.466 36.193 39.004 36.193ZM44.9037 41.132C44.251 41.132 43.7084 40.967 43.2757 40.637C42.843 40.307 42.59 39.8597 42.5167 39.295H43.4627C43.5214 39.581 43.6717 39.8303 43.9137 40.043C44.163 40.2483 44.4967 40.351 44.9147 40.351C45.3034 40.351 45.5894 40.2703 45.7727 40.109C45.956 39.9403 46.0477 39.7423 46.0477 39.515C46.0477 39.185 45.9267 38.965 45.6847 38.855C45.45 38.745 45.1164 38.646 44.6837 38.558C44.3904 38.4993 44.097 38.415 43.8037 38.305C43.5104 38.195 43.2647 38.041 43.0667 37.843C42.8687 37.6377 42.7697 37.37 42.7697 37.04C42.7697 36.5633 42.9457 36.1747 43.2977 35.874C43.657 35.566 44.141 35.412 44.7497 35.412C45.329 35.412 45.802 35.5587 46.1687 35.852C46.5427 36.138 46.759 36.5487 46.8177 37.084H45.9047C45.868 36.8053 45.747 36.589 45.5417 36.435C45.3437 36.2737 45.076 36.193 44.7387 36.193C44.4087 36.193 44.152 36.2627 43.9687 36.402C43.7927 36.5413 43.7047 36.7247 43.7047 36.952C43.7047 37.172 43.8184 37.3443 44.0457 37.469C44.2804 37.5937 44.5957 37.7 44.9917 37.788C45.329 37.8613 45.648 37.953 45.9487 38.063C46.2567 38.1657 46.506 38.3233 46.6967 38.536C46.8947 38.7413 46.9937 39.042 46.9937 39.438C47.001 39.9293 46.814 40.3363 46.4327 40.659C46.0587 40.9743 45.549 41.132 44.9037 41.132ZM50.7997 41.132C50.2864 41.132 49.8244 41.0147 49.4137 40.78C49.003 40.5453 48.6767 40.2153 48.4347 39.79C48.2 39.3573 48.0827 38.8513 48.0827 38.272C48.0827 37.6927 48.2037 37.1903 48.4457 36.765C48.6877 36.3323 49.014 35.9987 49.4247 35.764C49.8427 35.5293 50.3084 35.412 50.8217 35.412C51.335 35.412 51.797 35.5293 52.2077 35.764C52.6184 35.9987 52.941 36.3323 53.1757 36.765C53.4177 37.1903 53.5387 37.6927 53.5387 38.272C53.5387 38.8513 53.4177 39.3573 53.1757 39.79C52.9337 40.2153 52.6037 40.5453 52.1857 40.78C51.775 41.0147 51.313 41.132 50.7997 41.132ZM50.7997 40.34C51.115 40.34 51.4084 40.263 51.6797 40.109C51.951 39.955 52.171 39.724 52.3397 39.416C52.5084 39.108 52.5927 38.7267 52.5927 38.272C52.5927 37.8173 52.5084 37.436 52.3397 37.128C52.1784 36.82 51.962 36.589 51.6907 36.435C51.4194 36.281 51.1297 36.204 50.8217 36.204C50.5064 36.204 50.213 36.281 49.9417 36.435C49.6704 36.589 49.4504 36.82 49.2817 37.128C49.113 37.436 49.0287 37.8173 49.0287 38.272C49.0287 38.7267 49.113 39.108 49.2817 39.416C49.4504 39.724 49.6667 39.955 49.9307 40.109C50.202 40.263 50.4917 40.34 50.7997 40.34ZM56.8145 41.132C56.1691 41.132 55.6558 40.9377 55.2745 40.549C54.8931 40.153 54.7025 39.548 54.7025 38.734V35.544H55.6265V38.635C55.6265 39.7717 56.0921 40.34 57.0235 40.34C57.5001 40.34 57.8925 40.1713 58.2005 39.834C58.5158 39.4893 58.6735 39.0017 58.6735 38.371V35.544H59.5975V41H58.7615L58.6955 40.021C58.5268 40.3657 58.2738 40.637 57.9365 40.835C57.6065 41.033 57.2325 41.132 56.8145 41.132ZM61.1184 41V35.544H61.9544L62.0314 36.589C62.2 36.2297 62.4567 35.9437 62.8014 35.731C63.146 35.5183 63.5714 35.412 64.0774 35.412V36.38H63.8244C63.5017 36.38 63.2047 36.4387 62.9334 36.556C62.662 36.666 62.4457 36.8567 62.2844 37.128C62.123 37.3993 62.0424 37.7733 62.0424 38.25V41H61.1184ZM67.4184 41.132C66.8977 41.132 66.4284 41.0147 66.0104 40.78C65.5997 40.538 65.2734 40.2043 65.0314 39.779C64.7967 39.3463 64.6794 38.844 64.6794 38.272C64.6794 37.7 64.7967 37.2013 65.0314 36.776C65.2734 36.3433 65.5997 36.0097 66.0104 35.775C66.4284 35.533 66.8977 35.412 67.4184 35.412C68.0637 35.412 68.6064 35.5807 69.0464 35.918C69.4937 36.2553 69.776 36.7063 69.8934 37.271H68.9474C68.874 36.9337 68.6944 36.6733 68.4084 36.49C68.1224 36.2993 67.7887 36.204 67.4074 36.204C67.0994 36.204 66.8097 36.281 66.5384 36.435C66.267 36.589 66.047 36.82 65.8784 37.128C65.7097 37.436 65.6254 37.8173 65.6254 38.272C65.6254 38.7267 65.7097 39.108 65.8784 39.416C66.047 39.724 66.267 39.9587 66.5384 40.12C66.8097 40.274 67.0994 40.351 67.4074 40.351C67.7887 40.351 68.1224 40.2593 68.4084 40.076C68.6944 39.8853 68.874 39.6177 68.9474 39.273H69.8934C69.7834 39.823 69.5047 40.2703 69.0574 40.615C68.61 40.9597 68.0637 41.132 67.4184 41.132ZM73.6368 41.132C73.1161 41.132 72.6541 41.0147 72.2508 40.78C71.8475 40.538 71.5285 40.2043 71.2938 39.779C71.0665 39.3537 70.9528 38.8513 70.9528 38.272C70.9528 37.7 71.0665 37.2013 71.2938 36.776C71.5211 36.3433 71.8365 36.0097 72.2398 35.775C72.6505 35.533 73.1235 35.412 73.6588 35.412C74.1868 35.412 74.6415 35.533 75.0228 35.775C75.4115 36.0097 75.7085 36.3213 75.9138 36.71C76.1191 37.0987 76.2218 37.5167 76.2218 37.964C76.2218 38.0447 76.2181 38.1253 76.2108 38.206C76.2108 38.2867 76.2108 38.3783 76.2108 38.481H71.8658C71.8878 38.899 71.9831 39.2473 72.1518 39.526C72.3278 39.7973 72.5441 40.0027 72.8008 40.142C73.0648 40.2813 73.3435 40.351 73.6368 40.351C74.0181 40.351 74.3371 40.263 74.5938 40.087C74.8505 39.911 75.0375 39.6727 75.1548 39.372H76.0678C75.9211 39.878 75.6388 40.2997 75.2208 40.637C74.8101 40.967 74.2821 41.132 73.6368 41.132ZM73.6368 36.193C73.1968 36.193 72.8045 36.3287 72.4598 36.6C72.1225 36.864 71.9281 37.2527 71.8768 37.766H75.3088C75.2868 37.2747 75.1181 36.8897 74.8028 36.611C74.4875 36.3323 74.0988 36.193 73.6368 36.193ZM79.5365 41.132C78.8838 41.132 78.3412 40.967 77.9085 40.637C77.4758 40.307 77.2228 39.8597 77.1495 39.295H78.0955C78.1542 39.581 78.3045 39.8303 78.5465 40.043C78.7958 40.2483 79.1295 40.351 79.5475 40.351C79.9362 40.351 80.2222 40.2703 80.4055 40.109C80.5888 39.9403 80.6805 39.7423 80.6805 39.515C80.6805 39.185 80.5595 38.965 80.3175 38.855C80.0828 38.745 79.7492 38.646 79.3165 38.558C79.0232 38.4993 78.7298 38.415 78.4365 38.305C78.1432 38.195 77.8975 38.041 77.6995 37.843C77.5015 37.6377 77.4025 37.37 77.4025 37.04C77.4025 36.5633 77.5785 36.1747 77.9305 35.874C78.2898 35.566 78.7738 35.412 79.3825 35.412C79.9618 35.412 80.4348 35.5587 80.8015 35.852C81.1755 36.138 81.3918 36.5487 81.4505 37.084H80.5375C80.5008 36.8053 80.3798 36.589 80.1745 36.435C79.9765 36.2737 79.7088 36.193 79.3715 36.193C79.0415 36.193 78.7848 36.2627 78.6015 36.402C78.4255 36.5413 78.3375 36.7247 78.3375 36.952C78.3375 37.172 78.4512 37.3443 78.6785 37.469C78.9132 37.5937 79.2285 37.7 79.6245 37.788C79.9618 37.8613 80.2808 37.953 80.5815 38.063C80.8895 38.1657 81.1388 38.3233 81.3295 38.536C81.5275 38.7413 81.6265 39.042 81.6265 39.438C81.6338 39.9293 81.4468 40.3363 81.0655 40.659C80.6915 40.9743 80.1818 41.132 79.5365 41.132ZM87.4306 41L85.3626 35.544H86.3306L87.9696 40.109L89.6196 35.544H90.5656L88.4976 41H87.4306ZM92.155 34.334C91.9716 34.334 91.8176 34.2753 91.693 34.158C91.5756 34.0333 91.517 33.8793 91.517 33.696C91.517 33.52 91.5756 33.3733 91.693 33.256C91.8176 33.1387 91.9716 33.08 92.155 33.08C92.331 33.08 92.4813 33.1387 92.606 33.256C92.7306 33.3733 92.793 33.52 92.793 33.696C92.793 33.8793 92.7306 34.0333 92.606 34.158C92.4813 34.2753 92.331 34.334 92.155 34.334ZM91.693 41V35.544H92.617V41H91.693ZM96.0408 41.132C95.5861 41.132 95.2085 41.055 94.9078 40.901C94.6071 40.747 94.3835 40.5417 94.2368 40.285C94.0901 40.0283 94.0168 39.7497 94.0168 39.449C94.0168 38.8917 94.2295 38.4627 94.6548 38.162C95.0801 37.8613 95.6595 37.711 96.3928 37.711H97.8668V37.645C97.8668 37.1683 97.7421 36.809 97.4928 36.567C97.2435 36.3177 96.9098 36.193 96.4918 36.193C96.1325 36.193 95.8208 36.2847 95.5568 36.468C95.3001 36.644 95.1388 36.9043 95.0728 37.249H94.1268C94.1635 36.853 94.2955 36.5193 94.5228 36.248C94.7575 35.9767 95.0471 35.7713 95.3918 35.632C95.7365 35.4853 96.1031 35.412 96.4918 35.412C97.2545 35.412 97.8265 35.6173 98.2078 36.028C98.5965 36.4313 98.7908 36.9703 98.7908 37.645V41H97.9658L97.9108 40.021C97.7568 40.329 97.5295 40.593 97.2288 40.813C96.9355 41.0257 96.5395 41.132 96.0408 41.132ZM96.1838 40.351C96.5358 40.351 96.8365 40.2593 97.0858 40.076C97.3425 39.8927 97.5368 39.6543 97.6688 39.361C97.8008 39.0677 97.8668 38.7597 97.8668 38.437V38.426H96.4698C95.9271 38.426 95.5421 38.5213 95.3148 38.712C95.0948 38.8953 94.9848 39.1263 94.9848 39.405C94.9848 39.691 95.0875 39.922 95.2928 40.098C95.5055 40.2667 95.8025 40.351 96.1838 40.351ZM105.574 41.132C105.061 41.132 104.599 41.0147 104.188 40.78C103.777 40.5453 103.451 40.2153 103.209 39.79C102.974 39.3573 102.857 38.8513 102.857 38.272C102.857 37.6927 102.978 37.1903 103.22 36.765C103.462 36.3323 103.788 35.9987 104.199 35.764C104.617 35.5293 105.083 35.412 105.596 35.412C106.109 35.412 106.571 35.5293 106.982 35.764C107.393 35.9987 107.715 36.3323 107.95 36.765C108.192 37.1903 108.313 37.6927 108.313 38.272C108.313 38.8513 108.192 39.3573 107.95 39.79C107.708 40.2153 107.378 40.5453 106.96 40.78C106.549 41.0147 106.087 41.132 105.574 41.132ZM105.574 40.34C105.889 40.34 106.183 40.263 106.454 40.109C106.725 39.955 106.945 39.724 107.114 39.416C107.283 39.108 107.367 38.7267 107.367 38.272C107.367 37.8173 107.283 37.436 107.114 37.128C106.953 36.82 106.736 36.589 106.465 36.435C106.194 36.281 105.904 36.204 105.596 36.204C105.281 36.204 104.987 36.281 104.716 36.435C104.445 36.589 104.225 36.82 104.056 37.128C103.887 37.436 103.803 37.8173 103.803 38.272C103.803 38.7267 103.887 39.108 104.056 39.416C104.225 39.724 104.441 39.955 104.705 40.109C104.976 40.263 105.266 40.34 105.574 40.34ZM111.589 41.132C110.944 41.132 110.43 40.9377 110.049 40.549C109.668 40.153 109.477 39.548 109.477 38.734V35.544H110.401V38.635C110.401 39.7717 110.867 40.34 111.798 40.34C112.275 40.34 112.667 40.1713 112.975 39.834C113.29 39.4893 113.448 39.0017 113.448 38.371V35.544H114.372V41H113.536L113.47 40.021C113.301 40.3657 113.048 40.637 112.711 40.835C112.381 41.033 112.007 41.132 111.589 41.132ZM115.893 41V35.544H116.729L116.806 36.589C116.974 36.2297 117.231 35.9437 117.576 35.731C117.92 35.5183 118.346 35.412 118.852 35.412V36.38H118.599C118.276 36.38 117.979 36.4387 117.708 36.556C117.436 36.666 117.22 36.8567 117.059 37.128C116.897 37.3993 116.817 37.7733 116.817 38.25V41H115.893ZM125.253 41.132C124.732 41.132 124.27 41.0147 123.867 40.78C123.464 40.538 123.145 40.2043 122.91 39.779C122.683 39.3537 122.569 38.8513 122.569 38.272C122.569 37.7 122.683 37.2013 122.91 36.776C123.137 36.3433 123.453 36.0097 123.856 35.775C124.267 35.533 124.74 35.412 125.275 35.412C125.803 35.412 126.258 35.533 126.639 35.775C127.028 36.0097 127.325 36.3213 127.53 36.71C127.735 37.0987 127.838 37.5167 127.838 37.964C127.838 38.0447 127.834 38.1253 127.827 38.206C127.827 38.2867 127.827 38.3783 127.827 38.481H123.482C123.504 38.899 123.599 39.2473 123.768 39.526C123.944 39.7973 124.16 40.0027 124.417 40.142C124.681 40.2813 124.96 40.351 125.253 40.351C125.634 40.351 125.953 40.263 126.21 40.087C126.467 39.911 126.654 39.6727 126.771 39.372H127.684C127.537 39.878 127.255 40.2997 126.837 40.637C126.426 40.967 125.898 41.132 125.253 41.132ZM125.253 36.193C124.813 36.193 124.421 36.3287 124.076 36.6C123.739 36.864 123.544 37.2527 123.493 37.766H126.925C126.903 37.2747 126.734 36.8897 126.419 36.611C126.104 36.3323 125.715 36.193 125.253 36.193ZM131.538 41.132C130.995 41.132 130.518 41.0073 130.108 40.758C129.704 40.5087 129.389 40.1677 129.162 39.735C128.942 39.3023 128.832 38.811 128.832 38.261C128.832 37.711 128.945 37.2233 129.173 36.798C129.4 36.3653 129.715 36.028 130.119 35.786C130.522 35.5367 130.999 35.412 131.549 35.412C131.996 35.412 132.392 35.5037 132.737 35.687C133.081 35.8703 133.349 36.127 133.54 36.457V33.08H134.464V41H133.628L133.54 40.098C133.364 40.362 133.111 40.6003 132.781 40.813C132.451 41.0257 132.036 41.132 131.538 41.132ZM131.637 40.329C132.003 40.329 132.326 40.2447 132.605 40.076C132.891 39.9 133.111 39.658 133.265 39.35C133.426 39.042 133.507 38.6827 133.507 38.272C133.507 37.8613 133.426 37.502 133.265 37.194C133.111 36.886 132.891 36.6477 132.605 36.479C132.326 36.303 132.003 36.215 131.637 36.215C131.277 36.215 130.955 36.303 130.669 36.479C130.39 36.6477 130.17 36.886 130.009 37.194C129.855 37.502 129.778 37.8613 129.778 38.272C129.778 38.6827 129.855 39.042 130.009 39.35C130.17 39.658 130.39 39.9 130.669 40.076C130.955 40.2447 131.277 40.329 131.637 40.329ZM137.961 41.132C137.316 41.132 136.802 40.9377 136.421 40.549C136.04 40.153 135.849 39.548 135.849 38.734V35.544H136.773V38.635C136.773 39.7717 137.239 40.34 138.17 40.34C138.647 40.34 139.039 40.1713 139.347 39.834C139.662 39.4893 139.82 39.0017 139.82 38.371V35.544H140.744V41H139.908L139.842 40.021C139.673 40.3657 139.42 40.637 139.083 40.835C138.753 41.033 138.379 41.132 137.961 41.132ZM144.773 41.132C144.252 41.132 143.783 41.0147 143.365 40.78C142.954 40.538 142.628 40.2043 142.386 39.779C142.151 39.3463 142.034 38.844 142.034 38.272C142.034 37.7 142.151 37.2013 142.386 36.776C142.628 36.3433 142.954 36.0097 143.365 35.775C143.783 35.533 144.252 35.412 144.773 35.412C145.418 35.412 145.961 35.5807 146.401 35.918C146.848 36.2553 147.131 36.7063 147.248 37.271H146.302C146.229 36.9337 146.049 36.6733 145.763 36.49C145.477 36.2993 145.143 36.204 144.762 36.204C144.454 36.204 144.164 36.281 143.893 36.435C143.622 36.589 143.402 36.82 143.233 37.128C143.064 37.436 142.98 37.8173 142.98 38.272C142.98 38.7267 143.064 39.108 143.233 39.416C143.402 39.724 143.622 39.9587 143.893 40.12C144.164 40.274 144.454 40.351 144.762 40.351C145.143 40.351 145.477 40.2593 145.763 40.076C146.049 39.8853 146.229 39.6177 146.302 39.273H147.248C147.138 39.823 146.859 40.2703 146.412 40.615C145.965 40.9597 145.418 41.132 144.773 41.132ZM150.353 41.132C149.899 41.132 149.521 41.055 149.22 40.901C148.92 40.747 148.696 40.5417 148.549 40.285C148.403 40.0283 148.329 39.7497 148.329 39.449C148.329 38.8917 148.542 38.4627 148.967 38.162C149.393 37.8613 149.972 37.711 150.705 37.711H152.179V37.645C152.179 37.1683 152.055 36.809 151.805 36.567C151.556 36.3177 151.222 36.193 150.804 36.193C150.445 36.193 150.133 36.2847 149.869 36.468C149.613 36.644 149.451 36.9043 149.385 37.249H148.439C148.476 36.853 148.608 36.5193 148.835 36.248C149.07 35.9767 149.36 35.7713 149.704 35.632C150.049 35.4853 150.416 35.412 150.804 35.412C151.567 35.412 152.139 35.6173 152.52 36.028C152.909 36.4313 153.103 36.9703 153.103 37.645V41H152.278L152.223 40.021C152.069 40.329 151.842 40.593 151.541 40.813C151.248 41.0257 150.852 41.132 150.353 41.132ZM150.496 40.351C150.848 40.351 151.149 40.2593 151.398 40.076C151.655 39.8927 151.849 39.6543 151.981 39.361C152.113 39.0677 152.179 38.7597 152.179 38.437V38.426H150.782C150.24 38.426 149.855 38.5213 149.627 38.712C149.407 38.8953 149.297 39.1263 149.297 39.405C149.297 39.691 149.4 39.922 149.605 40.098C149.818 40.2667 150.115 40.351 150.496 40.351ZM156.495 41C155.996 41 155.604 40.879 155.318 40.637C155.032 40.395 154.889 39.9587 154.889 39.328V36.325H153.943V35.544H154.889L155.01 34.235H155.813V35.544H157.419V36.325H155.813V39.328C155.813 39.6727 155.883 39.9073 156.022 40.032C156.161 40.1493 156.407 40.208 156.759 40.208H157.331V41H156.495ZM159.154 34.334C158.971 34.334 158.817 34.2753 158.692 34.158C158.575 34.0333 158.516 33.8793 158.516 33.696C158.516 33.52 158.575 33.3733 158.692 33.256C158.817 33.1387 158.971 33.08 159.154 33.08C159.33 33.08 159.48 33.1387 159.605 33.256C159.73 33.3733 159.792 33.52 159.792 33.696C159.792 33.8793 159.73 34.0333 159.605 34.158C159.48 34.2753 159.33 34.334 159.154 34.334ZM158.692 41V35.544H159.616V41H158.692ZM163.711 41.132C163.197 41.132 162.735 41.0147 162.325 40.78C161.914 40.5453 161.588 40.2153 161.346 39.79C161.111 39.3573 160.994 38.8513 160.994 38.272C160.994 37.6927 161.115 37.1903 161.357 36.765C161.599 36.3323 161.925 35.9987 162.336 35.764C162.754 35.5293 163.219 35.412 163.733 35.412C164.246 35.412 164.708 35.5293 165.119 35.764C165.529 35.9987 165.852 36.3323 166.087 36.765C166.329 37.1903 166.45 37.6927 166.45 38.272C166.45 38.8513 166.329 39.3573 166.087 39.79C165.845 40.2153 165.515 40.5453 165.097 40.78C164.686 41.0147 164.224 41.132 163.711 41.132ZM163.711 40.34C164.026 40.34 164.319 40.263 164.591 40.109C164.862 39.955 165.082 39.724 165.251 39.416C165.419 39.108 165.504 38.7267 165.504 38.272C165.504 37.8173 165.419 37.436 165.251 37.128C165.089 36.82 164.873 36.589 164.602 36.435C164.33 36.281 164.041 36.204 163.733 36.204C163.417 36.204 163.124 36.281 162.853 36.435C162.581 36.589 162.361 36.82 162.193 37.128C162.024 37.436 161.94 37.8173 161.94 38.272C161.94 38.7267 162.024 39.108 162.193 39.416C162.361 39.724 162.578 39.955 162.842 40.109C163.113 40.263 163.403 40.34 163.711 40.34ZM167.735 41V35.544H168.571L168.626 36.523C168.802 36.1783 169.055 35.907 169.385 35.709C169.715 35.511 170.089 35.412 170.507 35.412C171.152 35.412 171.665 35.61 172.047 36.006C172.435 36.3947 172.63 36.996 172.63 37.81V41H171.706V37.909C171.706 36.7723 171.236 36.204 170.298 36.204C169.828 36.204 169.436 36.3763 169.121 36.721C168.813 37.0583 168.659 37.5423 168.659 38.173V41H167.735ZM175.845 41.132C175.39 41.132 175.012 41.055 174.712 40.901C174.411 40.747 174.187 40.5417 174.041 40.285C173.894 40.0283 173.821 39.7497 173.821 39.449C173.821 38.8917 174.033 38.4627 174.459 38.162C174.884 37.8613 175.463 37.711 176.197 37.711H177.671V37.645C177.671 37.1683 177.546 36.809 177.297 36.567C177.047 36.3177 176.714 36.193 176.296 36.193C175.936 36.193 175.625 36.2847 175.361 36.468C175.104 36.644 174.943 36.9043 174.877 37.249H173.931C173.967 36.853 174.099 36.5193 174.327 36.248C174.561 35.9767 174.851 35.7713 175.196 35.632C175.54 35.4853 175.907 35.412 176.296 35.412C177.058 35.412 177.63 35.6173 178.012 36.028C178.4 36.4313 178.595 36.9703 178.595 37.645V41H177.77L177.715 40.021C177.561 40.329 177.333 40.593 177.033 40.813C176.739 41.0257 176.343 41.132 175.845 41.132ZM175.988 40.351C176.34 40.351 176.64 40.2593 176.89 40.076C177.146 39.8927 177.341 39.6543 177.473 39.361C177.605 39.0677 177.671 38.7597 177.671 38.437V38.426H176.274C175.731 38.426 175.346 38.5213 175.119 38.712C174.899 38.8953 174.789 39.1263 174.789 39.405C174.789 39.691 174.891 39.922 175.097 40.098C175.309 40.2667 175.606 40.351 175.988 40.351ZM179.981 41V33.08H180.905V41H179.981ZM34.849 55.132C34.1963 55.132 33.6537 54.967 33.221 54.637C32.7883 54.307 32.5353 53.8597 32.462 53.295H33.408C33.4667 53.581 33.617 53.8303 33.859 54.043C34.1083 54.2483 34.442 54.351 34.86 54.351C35.2487 54.351 35.5347 54.2703 35.718 54.109C35.9013 53.9403 35.993 53.7423 35.993 53.515C35.993 53.185 35.872 52.965 35.63 52.855C35.3953 52.745 35.0617 52.646 34.629 52.558C34.3357 52.4993 34.0423 52.415 33.749 52.305C33.4557 52.195 33.21 52.041 33.012 51.843C32.814 51.6377 32.715 51.37 32.715 51.04C32.715 50.5633 32.891 50.1747 33.243 49.874C33.6023 49.566 34.0863 49.412 34.695 49.412C35.2743 49.412 35.7473 49.5587 36.114 49.852C36.488 50.138 36.7043 50.5487 36.763 51.084H35.85C35.8133 50.8053 35.6923 50.589 35.487 50.435C35.289 50.2737 35.0213 50.193 34.684 50.193C34.354 50.193 34.0973 50.2627 33.914 50.402C33.738 50.5413 33.65 50.7247 33.65 50.952C33.65 51.172 33.7637 51.3443 33.991 51.469C34.2257 51.5937 34.541 51.7 34.937 51.788C35.2743 51.8613 35.5933 51.953 35.894 52.063C36.202 52.1657 36.4513 52.3233 36.642 52.536C36.84 52.7413 36.939 53.042 36.939 53.438C36.9463 53.9293 36.7593 54.3363 36.378 54.659C36.004 54.9743 35.4943 55.132 34.849 55.132ZM40.1679 55C39.6693 55 39.2769 54.879 38.9909 54.637C38.7049 54.395 38.5619 53.9587 38.5619 53.328V50.325H37.6159V49.544H38.5619L38.6829 48.235H39.4859V49.544H41.0919V50.325H39.4859V53.328C39.4859 53.6727 39.5556 53.9073 39.6949 54.032C39.8343 54.1493 40.0799 54.208 40.4319 54.208H41.0039V55H40.1679ZM44.0808 55.132C43.6262 55.132 43.2485 55.055 42.9478 54.901C42.6472 54.747 42.4235 54.5417 42.2768 54.285C42.1302 54.0283 42.0568 53.7497 42.0568 53.449C42.0568 52.8917 42.2695 52.4627 42.6948 52.162C43.1202 51.8613 43.6995 51.711 44.4328 51.711H45.9068V51.645C45.9068 51.1683 45.7822 50.809 45.5328 50.567C45.2835 50.3177 44.9498 50.193 44.5318 50.193C44.1725 50.193 43.8608 50.2847 43.5968 50.468C43.3402 50.644 43.1788 50.9043 43.1128 51.249H42.1668C42.2035 50.853 42.3355 50.5193 42.5628 50.248C42.7975 49.9767 43.0872 49.7713 43.4318 49.632C43.7765 49.4853 44.1432 49.412 44.5318 49.412C45.2945 49.412 45.8665 49.6173 46.2478 50.028C46.6365 50.4313 46.8308 50.9703 46.8308 51.645V55H46.0058L45.9508 54.021C45.7968 54.329 45.5695 54.593 45.2688 54.813C44.9755 55.0257 44.5795 55.132 44.0808 55.132ZM44.2238 54.351C44.5758 54.351 44.8765 54.2593 45.1258 54.076C45.3825 53.8927 45.5768 53.6543 45.7088 53.361C45.8408 53.0677 45.9068 52.7597 45.9068 52.437V52.426H44.5098C43.9672 52.426 43.5822 52.5213 43.3548 52.712C43.1348 52.8953 43.0248 53.1263 43.0248 53.405C43.0248 53.691 43.1275 53.922 43.3328 54.098C43.5455 54.2667 43.8425 54.351 44.2238 54.351ZM48.217 55V49.544H49.053L49.13 50.589C49.2987 50.2297 49.5553 49.9437 49.9 49.731C50.2447 49.5183 50.67 49.412 51.176 49.412V50.38H50.923C50.6003 50.38 50.3033 50.4387 50.032 50.556C49.7607 50.666 49.5443 50.8567 49.383 51.128C49.2217 51.3993 49.141 51.7733 49.141 52.25V55H48.217ZM54.3691 55C53.8704 55 53.4781 54.879 53.1921 54.637C52.9061 54.395 52.7631 53.9587 52.7631 53.328V50.325H51.8171V49.544H52.7631L52.8841 48.235H53.6871V49.544H55.2931V50.325H53.6871V53.328C53.6871 53.6727 53.7568 53.9073 53.8961 54.032C54.0354 54.1493 54.2811 54.208 54.6331 54.208H55.2051V55H54.3691ZM58.7696 55.132C58.249 55.132 57.787 55.0147 57.3836 54.78C56.9803 54.538 56.6613 54.2043 56.4266 53.779C56.1993 53.3537 56.0856 52.8513 56.0856 52.272C56.0856 51.7 56.1993 51.2013 56.4266 50.776C56.654 50.3433 56.9693 50.0097 57.3726 49.775C57.7833 49.533 58.2563 49.412 58.7916 49.412C59.3196 49.412 59.7743 49.533 60.1556 49.775C60.5443 50.0097 60.8413 50.3213 61.0466 50.71C61.252 51.0987 61.3546 51.5167 61.3546 51.964C61.3546 52.0447 61.351 52.1253 61.3436 52.206C61.3436 52.2867 61.3436 52.3783 61.3436 52.481H56.9986C57.0206 52.899 57.116 53.2473 57.2846 53.526C57.4606 53.7973 57.677 54.0027 57.9336 54.142C58.1976 54.2813 58.4763 54.351 58.7696 54.351C59.151 54.351 59.47 54.263 59.7266 54.087C59.9833 53.911 60.1703 53.6727 60.2876 53.372H61.2006C61.054 53.878 60.7716 54.2997 60.3536 54.637C59.943 54.967 59.415 55.132 58.7696 55.132ZM58.7696 50.193C58.3296 50.193 57.9373 50.3287 57.5926 50.6C57.2553 50.864 57.061 51.2527 57.0096 51.766H60.4416C60.4196 51.2747 60.251 50.8897 59.9356 50.611C59.6203 50.3323 59.2316 50.193 58.7696 50.193ZM62.5793 55V49.544H63.4153L63.4923 50.589C63.661 50.2297 63.9176 49.9437 64.2623 49.731C64.607 49.5183 65.0323 49.412 65.5383 49.412V50.38H65.2853C64.9626 50.38 64.6656 50.4387 64.3943 50.556C64.123 50.666 63.9066 50.8567 63.7453 51.128C63.584 51.3993 63.5033 51.7733 63.5033 52.25V55H62.5793ZM69.4865 57.42V49.544H70.3225L70.4105 50.446C70.5865 50.182 70.8359 49.9437 71.1585 49.731C71.4885 49.5183 71.9065 49.412 72.4125 49.412C72.9552 49.412 73.4282 49.5367 73.8315 49.786C74.2349 50.0353 74.5465 50.3763 74.7665 50.809C74.9939 51.2417 75.1075 51.733 75.1075 52.283C75.1075 52.833 74.9939 53.3243 74.7665 53.757C74.5465 54.1823 74.2312 54.5197 73.8205 54.769C73.4172 55.011 72.9442 55.132 72.4015 55.132C71.9542 55.132 71.5545 55.0403 71.2025 54.857C70.8579 54.6737 70.5939 54.417 70.4105 54.087V57.42H69.4865ZM72.3025 54.329C72.6692 54.329 72.9919 54.2447 73.2705 54.076C73.5492 53.9 73.7692 53.658 73.9305 53.35C74.0919 53.042 74.1725 52.6827 74.1725 52.272C74.1725 51.8613 74.0919 51.502 73.9305 51.194C73.7692 50.886 73.5492 50.6477 73.2705 50.479C72.9919 50.303 72.6692 50.215 72.3025 50.215C71.9359 50.215 71.6132 50.303 71.3345 50.479C71.0559 50.6477 70.8359 50.886 70.6745 51.194C70.5132 51.502 70.4325 51.8613 70.4325 52.272C70.4325 52.6827 70.5132 53.042 70.6745 53.35C70.8359 53.658 71.0559 53.9 71.3345 54.076C71.6132 54.2447 71.9359 54.329 72.3025 54.329ZM78.2088 55.132C77.7541 55.132 77.3764 55.055 77.0758 54.901C76.7751 54.747 76.5514 54.5417 76.4048 54.285C76.2581 54.0283 76.1848 53.7497 76.1848 53.449C76.1848 52.8917 76.3974 52.4627 76.8228 52.162C77.2481 51.8613 77.8274 51.711 78.5608 51.711H80.0348V51.645C80.0348 51.1683 79.9101 50.809 79.6608 50.567C79.4114 50.3177 79.0778 50.193 78.6598 50.193C78.3004 50.193 77.9888 50.2847 77.7248 50.468C77.4681 50.644 77.3068 50.9043 77.2408 51.249H76.2948C76.3314 50.853 76.4634 50.5193 76.6908 50.248C76.9254 49.9767 77.2151 49.7713 77.5598 49.632C77.9044 49.4853 78.2711 49.412 78.6598 49.412C79.4224 49.412 79.9944 49.6173 80.3758 50.028C80.7644 50.4313 80.9588 50.9703 80.9588 51.645V55H80.1338L80.0788 54.021C79.9248 54.329 79.6974 54.593 79.3968 54.813C79.1034 55.0257 78.7074 55.132 78.2088 55.132ZM78.3518 54.351C78.7038 54.351 79.0044 54.2593 79.2538 54.076C79.5104 53.8927 79.7048 53.6543 79.8368 53.361C79.9688 53.0677 80.0348 52.7597 80.0348 52.437V52.426H78.6378C78.0951 52.426 77.7101 52.5213 77.4828 52.712C77.2628 52.8953 77.1528 53.1263 77.1528 53.405C77.1528 53.691 77.2554 53.922 77.4608 54.098C77.6734 54.2667 77.9704 54.351 78.3518 54.351ZM84.8529 55.132C84.3323 55.132 83.8629 55.0147 83.4449 54.78C83.0343 54.538 82.7079 54.2043 82.4659 53.779C82.2313 53.3463 82.1139 52.844 82.1139 52.272C82.1139 51.7 82.2313 51.2013 82.4659 50.776C82.7079 50.3433 83.0343 50.0097 83.4449 49.775C83.8629 49.533 84.3323 49.412 84.8529 49.412C85.4983 49.412 86.0409 49.5807 86.4809 49.918C86.9283 50.2553 87.2106 50.7063 87.3279 51.271H86.3819C86.3086 50.9337 86.1289 50.6733 85.8429 50.49C85.5569 50.2993 85.2233 50.204 84.8419 50.204C84.5339 50.204 84.2443 50.281 83.9729 50.435C83.7016 50.589 83.4816 50.82 83.3129 51.128C83.1443 51.436 83.0599 51.8173 83.0599 52.272C83.0599 52.7267 83.1443 53.108 83.3129 53.416C83.4816 53.724 83.7016 53.9587 83.9729 54.12C84.2443 54.274 84.5339 54.351 84.8419 54.351C85.2233 54.351 85.5569 54.2593 85.8429 54.076C86.1289 53.8853 86.3086 53.6177 86.3819 53.273H87.3279C87.2179 53.823 86.9393 54.2703 86.4919 54.615C86.0446 54.9597 85.4983 55.132 84.8529 55.132ZM88.6184 55V47.08H89.5424V51.843L91.7754 49.544H92.9084L90.4884 52.008L93.2164 55H92.0394L89.5424 52.173V55H88.6184Z" fill="black"/>
</g>
<defs>
<filter id="filter0_d_162_5938" x="16" y="0" width="192" height="74" filterUnits="userSpaceOnUse" color-interpolation-filters="sRGB">
<feFlood flood-opacity="0" result="BackgroundImageFix"/>
<feColorMatrix in="SourceAlpha" type="matrix" values="0 0 0 0 0 0 0 0 0 0 0 0 0 0 0 0 0 0 127 0" result="hardAlpha"/>
<feOffset/>
<feGaussianBlur stdDeviation="4"/>
<feComposite in2="hardAlpha" operator="out"/>
<feColorMatrix type="matrix" values="0 0 0 0 0 0 0 0 0 0 0 0 0 0 0 0 0 0 0.15 0"/>
<feBlend mode="normal" in2="BackgroundImageFix" result="effect1_dropShadow_162_5938"/>
<feBlend mode="normal" in="SourceGraphic" in2="effect1_dropShadow_162_5938" result="shape"/>
</filter>
</defs>
</svg>
