<svg width="208" height="74" viewBox="0 0 208 74" fill="none" xmlns="http://www.w3.org/2000/svg">
<circle cx="4" cy="37" r="4" fill="#005271"/>
<line x1="8" y1="36.5" x2="24" y2="36.5" stroke="#005271" stroke-dasharray="2 2"/>
<g filter="url(#filter0_d_162_5896)">
<rect x="24" y="8" width="176" height="58" rx="4" fill="white" shape-rendering="crispEdges"/>
<path d="M32.814 27V19.3H35.344C35.9453 19.3 36.4403 19.399 36.829 19.597C37.2177 19.795 37.5037 20.0627 37.687 20.4C37.8777 20.7373 37.973 21.1187 37.973 21.544C37.973 21.962 37.8813 22.3397 37.698 22.677C37.5147 23.0143 37.2287 23.2857 36.84 23.491C36.4513 23.689 35.9527 23.788 35.344 23.788H33.738V27H32.814ZM33.738 23.007H35.322C35.938 23.007 36.3743 22.8787 36.631 22.622C36.895 22.358 37.027 21.9987 37.027 21.544C37.027 21.082 36.895 20.7227 36.631 20.466C36.3743 20.202 35.938 20.07 35.322 20.07H33.738V23.007ZM41.2929 27.132C40.7795 27.132 40.3175 27.0147 39.9069 26.78C39.4962 26.5453 39.1699 26.2153 38.9279 25.79C38.6932 25.3573 38.5759 24.8513 38.5759 24.272C38.5759 23.6927 38.6969 23.1903 38.9389 22.765C39.1809 22.3323 39.5072 21.9987 39.9179 21.764C40.3359 21.5293 40.8015 21.412 41.3149 21.412C41.8282 21.412 42.2902 21.5293 42.7009 21.764C43.1115 21.9987 43.4342 22.3323 43.6689 22.765C43.9109 23.1903 44.0319 23.6927 44.0319 24.272C44.0319 24.8513 43.9109 25.3573 43.6689 25.79C43.4269 26.2153 43.0969 26.5453 42.6789 26.78C42.2682 27.0147 41.8062 27.132 41.2929 27.132ZM41.2929 26.34C41.6082 26.34 41.9015 26.263 42.1729 26.109C42.4442 25.955 42.6642 25.724 42.8329 25.416C43.0015 25.108 43.0859 24.7267 43.0859 24.272C43.0859 23.8173 43.0015 23.436 42.8329 23.128C42.6715 22.82 42.4552 22.589 42.1839 22.435C41.9125 22.281 41.6229 22.204 41.3149 22.204C40.9995 22.204 40.7062 22.281 40.4349 22.435C40.1635 22.589 39.9435 22.82 39.7749 23.128C39.6062 23.436 39.5219 23.8173 39.5219 24.272C39.5219 24.7267 39.6062 25.108 39.7749 25.416C39.9435 25.724 40.1599 25.955 40.4239 26.109C40.6952 26.263 40.9849 26.34 41.2929 26.34ZM47.2578 27C46.7591 27 46.3668 26.879 46.0808 26.637C45.7948 26.395 45.6518 25.9587 45.6518 25.328V22.325H44.7058V21.544H45.6518L45.7728 20.235H46.5758V21.544H48.1818V22.325H46.5758V25.328C46.5758 25.6727 46.6454 25.9073 46.7848 26.032C46.9241 26.1493 47.1698 26.208 47.5218 26.208H48.0938V27H47.2578ZM51.6583 27.132C51.1376 27.132 50.6756 27.0147 50.2723 26.78C49.869 26.538 49.55 26.2043 49.3153 25.779C49.088 25.3537 48.9743 24.8513 48.9743 24.272C48.9743 23.7 49.088 23.2013 49.3153 22.776C49.5426 22.3433 49.858 22.0097 50.2613 21.775C50.672 21.533 51.145 21.412 51.6803 21.412C52.2083 21.412 52.663 21.533 53.0443 21.775C53.433 22.0097 53.73 22.3213 53.9353 22.71C54.1406 23.0987 54.2433 23.5167 54.2433 23.964C54.2433 24.0447 54.2396 24.1253 54.2323 24.206C54.2323 24.2867 54.2323 24.3783 54.2323 24.481H49.8873C49.9093 24.899 50.0046 25.2473 50.1733 25.526C50.3493 25.7973 50.5656 26.0027 50.8223 26.142C51.0863 26.2813 51.365 26.351 51.6583 26.351C52.0396 26.351 52.3586 26.263 52.6153 26.087C52.872 25.911 53.059 25.6727 53.1763 25.372H54.0893C53.9426 25.878 53.6603 26.2997 53.2423 26.637C52.8316 26.967 52.3036 27.132 51.6583 27.132ZM51.6583 22.193C51.2183 22.193 50.826 22.3287 50.4813 22.6C50.144 22.864 49.9496 23.2527 49.8983 23.766H53.3303C53.3083 23.2747 53.1396 22.8897 52.8243 22.611C52.509 22.3323 52.1203 22.193 51.6583 22.193ZM55.468 27V21.544H56.304L56.359 22.523C56.535 22.1783 56.788 21.907 57.118 21.709C57.448 21.511 57.822 21.412 58.24 21.412C58.8853 21.412 59.3987 21.61 59.78 22.006C60.1687 22.3947 60.363 22.996 60.363 23.81V27H59.439V23.909C59.439 22.7723 58.9697 22.204 58.031 22.204C57.5617 22.204 57.1693 22.3763 56.854 22.721C56.546 23.0583 56.392 23.5423 56.392 24.173V27H55.468ZM63.9189 27C63.4202 27 63.0279 26.879 62.7419 26.637C62.4559 26.395 62.3129 25.9587 62.3129 25.328V22.325H61.3669V21.544H62.3129L62.4339 20.235H63.2369V21.544H64.8429V22.325H63.2369V25.328C63.2369 25.6727 63.3066 25.9073 63.4459 26.032C63.5852 26.1493 63.8309 26.208 64.1829 26.208H64.7549V27H63.9189ZM66.5778 20.334C66.3945 20.334 66.2405 20.2753 66.1158 20.158C65.9985 20.0333 65.9398 19.8793 65.9398 19.696C65.9398 19.52 65.9985 19.3733 66.1158 19.256C66.2405 19.1387 66.3945 19.08 66.5778 19.08C66.7538 19.08 66.9041 19.1387 67.0288 19.256C67.1535 19.3733 67.2158 19.52 67.2158 19.696C67.2158 19.8793 67.1535 20.0333 67.0288 20.158C66.9041 20.2753 66.7538 20.334 66.5778 20.334ZM66.1158 27V21.544H67.0398V27H66.1158ZM70.4636 27.132C70.009 27.132 69.6313 27.055 69.3306 26.901C69.03 26.747 68.8063 26.5417 68.6596 26.285C68.513 26.0283 68.4396 25.7497 68.4396 25.449C68.4396 24.8917 68.6523 24.4627 69.0776 24.162C69.503 23.8613 70.0823 23.711 70.8156 23.711H72.2896V23.645C72.2896 23.1683 72.165 22.809 71.9156 22.567C71.6663 22.3177 71.3326 22.193 70.9146 22.193C70.5553 22.193 70.2436 22.2847 69.9796 22.468C69.723 22.644 69.5616 22.9043 69.4956 23.249H68.5496C68.5863 22.853 68.7183 22.5193 68.9456 22.248C69.1803 21.9767 69.47 21.7713 69.8146 21.632C70.1593 21.4853 70.526 21.412 70.9146 21.412C71.6773 21.412 72.2493 21.6173 72.6306 22.028C73.0193 22.4313 73.2136 22.9703 73.2136 23.645V27H72.3886L72.3336 26.021C72.1796 26.329 71.9523 26.593 71.6516 26.813C71.3583 27.0257 70.9623 27.132 70.4636 27.132ZM70.6066 26.351C70.9586 26.351 71.2593 26.2593 71.5086 26.076C71.7653 25.8927 71.9596 25.6543 72.0916 25.361C72.2236 25.0677 72.2896 24.7597 72.2896 24.437V24.426H70.8926C70.35 24.426 69.965 24.5213 69.7376 24.712C69.5176 24.8953 69.4076 25.1263 69.4076 25.405C69.4076 25.691 69.5103 25.922 69.7156 26.098C69.9283 26.2667 70.2253 26.351 70.6066 26.351ZM74.5998 27V19.08H75.5238V27H74.5998ZM82.0394 27.132C81.3868 27.132 80.8441 26.967 80.4114 26.637C79.9788 26.307 79.7258 25.8597 79.6524 25.295H80.5984C80.6571 25.581 80.8074 25.8303 81.0494 26.043C81.2988 26.2483 81.6324 26.351 82.0504 26.351C82.4391 26.351 82.7251 26.2703 82.9084 26.109C83.0918 25.9403 83.1834 25.7423 83.1834 25.515C83.1834 25.185 83.0624 24.965 82.8204 24.855C82.5858 24.745 82.2521 24.646 81.8194 24.558C81.5261 24.4993 81.2328 24.415 80.9394 24.305C80.6461 24.195 80.4004 24.041 80.2024 23.843C80.0044 23.6377 79.9054 23.37 79.9054 23.04C79.9054 22.5633 80.0814 22.1747 80.4334 21.874C80.7928 21.566 81.2768 21.412 81.8854 21.412C82.4648 21.412 82.9378 21.5587 83.3044 21.852C83.6784 22.138 83.8948 22.5487 83.9534 23.084H83.0404C83.0038 22.8053 82.8828 22.589 82.6774 22.435C82.4794 22.2737 82.2118 22.193 81.8744 22.193C81.5444 22.193 81.2878 22.2627 81.1044 22.402C80.9284 22.5413 80.8404 22.7247 80.8404 22.952C80.8404 23.172 80.9541 23.3443 81.1814 23.469C81.4161 23.5937 81.7314 23.7 82.1274 23.788C82.4648 23.8613 82.7838 23.953 83.0844 24.063C83.3924 24.1657 83.6418 24.3233 83.8324 24.536C84.0304 24.7413 84.1294 25.042 84.1294 25.438C84.1368 25.9293 83.9498 26.3363 83.5684 26.659C83.1944 26.9743 82.6848 27.132 82.0394 27.132ZM85.4494 29.42V21.544H86.2854L86.3734 22.446C86.5494 22.182 86.7988 21.9437 87.1214 21.731C87.4514 21.5183 87.8694 21.412 88.3754 21.412C88.9181 21.412 89.3911 21.5367 89.7944 21.786C90.1978 22.0353 90.5094 22.3763 90.7294 22.809C90.9568 23.2417 91.0704 23.733 91.0704 24.283C91.0704 24.833 90.9568 25.3243 90.7294 25.757C90.5094 26.1823 90.1941 26.5197 89.7834 26.769C89.3801 27.011 88.9071 27.132 88.3644 27.132C87.9171 27.132 87.5174 27.0403 87.1654 26.857C86.8208 26.6737 86.5568 26.417 86.3734 26.087V29.42H85.4494ZM88.2654 26.329C88.6321 26.329 88.9548 26.2447 89.2334 26.076C89.5121 25.9 89.7321 25.658 89.8934 25.35C90.0548 25.042 90.1354 24.6827 90.1354 24.272C90.1354 23.8613 90.0548 23.502 89.8934 23.194C89.7321 22.886 89.5121 22.6477 89.2334 22.479C88.9548 22.303 88.6321 22.215 88.2654 22.215C87.8988 22.215 87.5761 22.303 87.2974 22.479C87.0188 22.6477 86.7988 22.886 86.6374 23.194C86.4761 23.502 86.3954 23.8613 86.3954 24.272C86.3954 24.6827 86.4761 25.042 86.6374 25.35C86.7988 25.658 87.0188 25.9 87.2974 26.076C87.5761 26.2447 87.8988 26.329 88.2654 26.329ZM94.8427 27.132C94.3293 27.132 93.8673 27.0147 93.4567 26.78C93.046 26.5453 92.7197 26.2153 92.4777 25.79C92.243 25.3573 92.1257 24.8513 92.1257 24.272C92.1257 23.6927 92.2467 23.1903 92.4887 22.765C92.7307 22.3323 93.057 21.9987 93.4677 21.764C93.8857 21.5293 94.3513 21.412 94.8647 21.412C95.378 21.412 95.84 21.5293 96.2507 21.764C96.6613 21.9987 96.984 22.3323 97.2187 22.765C97.4607 23.1903 97.5817 23.6927 97.5817 24.272C97.5817 24.8513 97.4607 25.3573 97.2187 25.79C96.9767 26.2153 96.6467 26.5453 96.2287 26.78C95.818 27.0147 95.356 27.132 94.8427 27.132ZM94.8427 26.34C95.158 26.34 95.4513 26.263 95.7227 26.109C95.994 25.955 96.214 25.724 96.3827 25.416C96.5513 25.108 96.6357 24.7267 96.6357 24.272C96.6357 23.8173 96.5513 23.436 96.3827 23.128C96.2213 22.82 96.005 22.589 95.7337 22.435C95.4623 22.281 95.1727 22.204 94.8647 22.204C94.5493 22.204 94.256 22.281 93.9847 22.435C93.7133 22.589 93.4933 22.82 93.3247 23.128C93.156 23.436 93.0717 23.8173 93.0717 24.272C93.0717 24.7267 93.156 25.108 93.3247 25.416C93.4933 25.724 93.7097 25.955 93.9737 26.109C94.245 26.263 94.5347 26.34 94.8427 26.34ZM98.8664 27V21.544H99.7024L99.7574 22.523C99.9334 22.1783 100.186 21.907 100.516 21.709C100.846 21.511 101.22 21.412 101.638 21.412C102.284 21.412 102.797 21.61 103.178 22.006C103.567 22.3947 103.761 22.996 103.761 23.81V27H102.837V23.909C102.837 22.7723 102.368 22.204 101.429 22.204C100.96 22.204 100.568 22.3763 100.252 22.721C99.9444 23.0583 99.7904 23.5423 99.7904 24.173V27H98.8664ZM107.251 27.132C106.599 27.132 106.056 26.967 105.623 26.637C105.191 26.307 104.938 25.8597 104.864 25.295H105.81C105.869 25.581 106.019 25.8303 106.261 26.043C106.511 26.2483 106.844 26.351 107.262 26.351C107.651 26.351 107.937 26.2703 108.12 26.109C108.304 25.9403 108.395 25.7423 108.395 25.515C108.395 25.185 108.274 24.965 108.032 24.855C107.798 24.745 107.464 24.646 107.031 24.558C106.738 24.4993 106.445 24.415 106.151 24.305C105.858 24.195 105.612 24.041 105.414 23.843C105.216 23.6377 105.117 23.37 105.117 23.04C105.117 22.5633 105.293 22.1747 105.645 21.874C106.005 21.566 106.489 21.412 107.097 21.412C107.677 21.412 108.15 21.5587 108.516 21.852C108.89 22.138 109.107 22.5487 109.165 23.084H108.252C108.216 22.8053 108.095 22.589 107.889 22.435C107.691 22.2737 107.424 22.193 107.086 22.193C106.756 22.193 106.5 22.2627 106.316 22.402C106.14 22.5413 106.052 22.7247 106.052 22.952C106.052 23.172 106.166 23.3443 106.393 23.469C106.628 23.5937 106.943 23.7 107.339 23.788C107.677 23.8613 107.996 23.953 108.296 24.063C108.604 24.1657 108.854 24.3233 109.044 24.536C109.242 24.7413 109.341 25.042 109.341 25.438C109.349 25.9293 109.162 26.3363 108.78 26.659C108.406 26.9743 107.897 27.132 107.251 27.132ZM113.147 27.132C112.634 27.132 112.172 27.0147 111.761 26.78C111.351 26.5453 111.024 26.2153 110.782 25.79C110.548 25.3573 110.43 24.8513 110.43 24.272C110.43 23.6927 110.551 23.1903 110.793 22.765C111.035 22.3323 111.362 21.9987 111.772 21.764C112.19 21.5293 112.656 21.412 113.169 21.412C113.683 21.412 114.145 21.5293 114.555 21.764C114.966 21.9987 115.289 22.3323 115.523 22.765C115.765 23.1903 115.886 23.6927 115.886 24.272C115.886 24.8513 115.765 25.3573 115.523 25.79C115.281 26.2153 114.951 26.5453 114.533 26.78C114.123 27.0147 113.661 27.132 113.147 27.132ZM113.147 26.34C113.463 26.34 113.756 26.263 114.027 26.109C114.299 25.955 114.519 25.724 114.687 25.416C114.856 25.108 114.94 24.7267 114.94 24.272C114.94 23.8173 114.856 23.436 114.687 23.128C114.526 22.82 114.31 22.589 114.038 22.435C113.767 22.281 113.477 22.204 113.169 22.204C112.854 22.204 112.561 22.281 112.289 22.435C112.018 22.589 111.798 22.82 111.629 23.128C111.461 23.436 111.376 23.8173 111.376 24.272C111.376 24.7267 111.461 25.108 111.629 25.416C111.798 25.724 112.014 25.955 112.278 26.109C112.55 26.263 112.839 26.34 113.147 26.34ZM117.171 27V21.544H118.007L118.084 22.589C118.253 22.2297 118.509 21.9437 118.854 21.731C119.199 21.5183 119.624 21.412 120.13 21.412V22.38H119.877C119.554 22.38 119.257 22.4387 118.986 22.556C118.715 22.666 118.498 22.8567 118.337 23.128C118.176 23.3993 118.095 23.7733 118.095 24.25V27H117.171ZM123.257 27.132C122.605 27.132 122.062 26.967 121.629 26.637C121.197 26.307 120.944 25.8597 120.87 25.295H121.816C121.875 25.581 122.025 25.8303 122.267 26.043C122.517 26.2483 122.85 26.351 123.268 26.351C123.657 26.351 123.943 26.2703 124.126 26.109C124.31 25.9403 124.401 25.7423 124.401 25.515C124.401 25.185 124.28 24.965 124.038 24.855C123.804 24.745 123.47 24.646 123.037 24.558C122.744 24.4993 122.451 24.415 122.157 24.305C121.864 24.195 121.618 24.041 121.42 23.843C121.222 23.6377 121.123 23.37 121.123 23.04C121.123 22.5633 121.299 22.1747 121.651 21.874C122.011 21.566 122.495 21.412 123.103 21.412C123.683 21.412 124.156 21.5587 124.522 21.852C124.896 22.138 125.113 22.5487 125.171 23.084H124.258C124.222 22.8053 124.101 22.589 123.895 22.435C123.697 22.2737 123.43 22.193 123.092 22.193C122.762 22.193 122.506 22.2627 122.322 22.402C122.146 22.5413 122.058 22.7247 122.058 22.952C122.058 23.172 122.172 23.3443 122.399 23.469C122.634 23.5937 122.949 23.7 123.345 23.788C123.683 23.8613 124.002 23.953 124.302 24.063C124.61 24.1657 124.86 24.3233 125.05 24.536C125.248 24.7413 125.347 25.042 125.347 25.438C125.355 25.9293 125.168 26.3363 124.786 26.659C124.412 26.9743 123.903 27.132 123.257 27.132ZM132.086 27.132C131.566 27.132 131.096 27.0147 130.678 26.78C130.268 26.538 129.941 26.2043 129.699 25.779C129.465 25.3463 129.347 24.844 129.347 24.272C129.347 23.7 129.465 23.2013 129.699 22.776C129.941 22.3433 130.268 22.0097 130.678 21.775C131.096 21.533 131.566 21.412 132.086 21.412C132.732 21.412 133.274 21.5807 133.714 21.918C134.162 22.2553 134.444 22.7063 134.561 23.271H133.615C133.542 22.9337 133.362 22.6733 133.076 22.49C132.79 22.2993 132.457 22.204 132.075 22.204C131.767 22.204 131.478 22.281 131.206 22.435C130.935 22.589 130.715 22.82 130.546 23.128C130.378 23.436 130.293 23.8173 130.293 24.272C130.293 24.7267 130.378 25.108 130.546 25.416C130.715 25.724 130.935 25.9587 131.206 26.12C131.478 26.274 131.767 26.351 132.075 26.351C132.457 26.351 132.79 26.2593 133.076 26.076C133.362 25.8853 133.542 25.6177 133.615 25.273H134.561C134.451 25.823 134.173 26.2703 133.725 26.615C133.278 26.9597 132.732 27.132 132.086 27.132ZM137.667 27.132C137.212 27.132 136.834 27.055 136.534 26.901C136.233 26.747 136.009 26.5417 135.863 26.285C135.716 26.0283 135.643 25.7497 135.643 25.449C135.643 24.8917 135.855 24.4627 136.281 24.162C136.706 23.8613 137.285 23.711 138.019 23.711H139.493V23.645C139.493 23.1683 139.368 22.809 139.119 22.567C138.869 22.3177 138.536 22.193 138.118 22.193C137.758 22.193 137.447 22.2847 137.183 22.468C136.926 22.644 136.765 22.9043 136.699 23.249H135.753C135.789 22.853 135.921 22.5193 136.149 22.248C136.383 21.9767 136.673 21.7713 137.018 21.632C137.362 21.4853 137.729 21.412 138.118 21.412C138.88 21.412 139.452 21.6173 139.834 22.028C140.222 22.4313 140.417 22.9703 140.417 23.645V27H139.592L139.537 26.021C139.383 26.329 139.155 26.593 138.855 26.813C138.561 27.0257 138.165 27.132 137.667 27.132ZM137.81 26.351C138.162 26.351 138.462 26.2593 138.712 26.076C138.968 25.8927 139.163 25.6543 139.295 25.361C139.427 25.0677 139.493 24.7597 139.493 24.437V24.426H138.096C137.553 24.426 137.168 24.5213 136.941 24.712C136.721 24.8953 136.611 25.1263 136.611 25.405C136.611 25.691 136.713 25.922 136.919 26.098C137.131 26.2667 137.428 26.351 137.81 26.351ZM141.803 27V21.544H142.639L142.694 22.523C142.87 22.1783 143.123 21.907 143.453 21.709C143.783 21.511 144.157 21.412 144.575 21.412C145.22 21.412 145.734 21.61 146.115 22.006C146.504 22.3947 146.698 22.996 146.698 23.81V27H145.774V23.909C145.774 22.7723 145.305 22.204 144.366 22.204C143.897 22.204 143.504 22.3763 143.189 22.721C142.881 23.0583 142.727 23.5423 142.727 24.173V27H141.803ZM153.165 25.284C152.857 25.284 152.575 25.2437 152.318 25.163L151.768 25.68C151.849 25.7387 151.948 25.79 152.065 25.834C152.19 25.8707 152.366 25.9073 152.593 25.944C152.82 25.9733 153.139 26.0063 153.55 26.043C154.283 26.0943 154.808 26.263 155.123 26.549C155.438 26.835 155.596 27.209 155.596 27.671C155.596 27.9863 155.508 28.287 155.332 28.573C155.163 28.859 154.899 29.0937 154.54 29.277C154.188 29.4603 153.733 29.552 153.176 29.552C152.685 29.552 152.248 29.486 151.867 29.354C151.486 29.2293 151.189 29.035 150.976 28.771C150.763 28.5143 150.657 28.188 150.657 27.792C150.657 27.5867 150.712 27.363 150.822 27.121C150.932 26.8863 151.137 26.6627 151.438 26.45C151.277 26.384 151.137 26.3143 151.02 26.241C150.91 26.1603 150.807 26.0723 150.712 25.977V25.724L151.647 24.8C151.214 24.4333 150.998 23.9493 150.998 23.348C150.998 22.9887 151.082 22.6623 151.251 22.369C151.42 22.0757 151.665 21.8447 151.988 21.676C152.311 21.5 152.703 21.412 153.165 21.412C153.48 21.412 153.766 21.456 154.023 21.544H156.036V22.237L155.013 22.281C155.226 22.589 155.332 22.9447 155.332 23.348C155.332 23.7073 155.244 24.0337 155.068 24.327C154.899 24.6203 154.654 24.855 154.331 25.031C154.016 25.1997 153.627 25.284 153.165 25.284ZM153.165 24.525C153.554 24.525 153.862 24.426 154.089 24.228C154.324 24.0227 154.441 23.7293 154.441 23.348C154.441 22.974 154.324 22.688 154.089 22.49C153.862 22.2847 153.554 22.182 153.165 22.182C152.769 22.182 152.454 22.2847 152.219 22.49C151.992 22.688 151.878 22.974 151.878 23.348C151.878 23.7293 151.992 24.0227 152.219 24.228C152.454 24.426 152.769 24.525 153.165 24.525ZM151.559 27.704C151.559 28.0707 151.713 28.342 152.021 28.518C152.329 28.7013 152.714 28.793 153.176 28.793C153.631 28.793 153.994 28.694 154.265 28.496C154.544 28.298 154.683 28.034 154.683 27.704C154.683 27.4693 154.588 27.264 154.397 27.088C154.206 26.9193 153.854 26.8203 153.341 26.791C152.938 26.7617 152.589 26.725 152.296 26.681C151.995 26.8423 151.797 27.0147 151.702 27.198C151.607 27.3887 151.559 27.5573 151.559 27.704ZM158.893 27.132C158.439 27.132 158.061 27.055 157.76 26.901C157.46 26.747 157.236 26.5417 157.089 26.285C156.943 26.0283 156.869 25.7497 156.869 25.449C156.869 24.8917 157.082 24.4627 157.507 24.162C157.933 23.8613 158.512 23.711 159.245 23.711H160.719V23.645C160.719 23.1683 160.595 22.809 160.345 22.567C160.096 22.3177 159.762 22.193 159.344 22.193C158.985 22.193 158.673 22.2847 158.409 22.468C158.153 22.644 157.991 22.9043 157.925 23.249H156.979C157.016 22.853 157.148 22.5193 157.375 22.248C157.61 21.9767 157.9 21.7713 158.244 21.632C158.589 21.4853 158.956 21.412 159.344 21.412C160.107 21.412 160.679 21.6173 161.06 22.028C161.449 22.4313 161.643 22.9703 161.643 23.645V27H160.818L160.763 26.021C160.609 26.329 160.382 26.593 160.081 26.813C159.788 27.0257 159.392 27.132 158.893 27.132ZM159.036 26.351C159.388 26.351 159.689 26.2593 159.938 26.076C160.195 25.8927 160.389 25.6543 160.521 25.361C160.653 25.0677 160.719 24.7597 160.719 24.437V24.426H159.322C158.78 24.426 158.395 24.5213 158.167 24.712C157.947 24.8953 157.837 25.1263 157.837 25.405C157.837 25.691 157.94 25.922 158.145 26.098C158.358 26.2667 158.655 26.351 159.036 26.351ZM163.591 20.334C163.407 20.334 163.253 20.2753 163.129 20.158C163.011 20.0333 162.953 19.8793 162.953 19.696C162.953 19.52 163.011 19.3733 163.129 19.256C163.253 19.1387 163.407 19.08 163.591 19.08C163.767 19.08 163.917 19.1387 164.042 19.256C164.166 19.3733 164.229 19.52 164.229 19.696C164.229 19.8793 164.166 20.0333 164.042 20.158C163.917 20.2753 163.767 20.334 163.591 20.334ZM163.129 27V21.544H164.053V27H163.129ZM165.661 27V21.544H166.497L166.552 22.523C166.728 22.1783 166.981 21.907 167.311 21.709C167.641 21.511 168.015 21.412 168.433 21.412C169.079 21.412 169.592 21.61 169.973 22.006C170.362 22.3947 170.556 22.996 170.556 23.81V27H169.632V23.909C169.632 22.7723 169.163 22.204 168.224 22.204C167.755 22.204 167.363 22.3763 167.047 22.721C166.739 23.0583 166.585 23.5423 166.585 24.173V27H165.661ZM176.682 27.132C176.228 27.132 175.85 27.055 175.549 26.901C175.249 26.747 175.025 26.5417 174.878 26.285C174.732 26.0283 174.658 25.7497 174.658 25.449C174.658 24.8917 174.871 24.4627 175.296 24.162C175.722 23.8613 176.301 23.711 177.034 23.711H178.508V23.645C178.508 23.1683 178.384 22.809 178.134 22.567C177.885 22.3177 177.551 22.193 177.133 22.193C176.774 22.193 176.462 22.2847 176.198 22.468C175.942 22.644 175.78 22.9043 175.714 23.249H174.768C174.805 22.853 174.937 22.5193 175.164 22.248C175.399 21.9767 175.689 21.7713 176.033 21.632C176.378 21.4853 176.745 21.412 177.133 21.412C177.896 21.412 178.468 21.6173 178.849 22.028C179.238 22.4313 179.432 22.9703 179.432 23.645V27H178.607L178.552 26.021C178.398 26.329 178.171 26.593 177.87 26.813C177.577 27.0257 177.181 27.132 176.682 27.132ZM176.825 26.351C177.177 26.351 177.478 26.2593 177.727 26.076C177.984 25.8927 178.178 25.6543 178.31 25.361C178.442 25.0677 178.508 24.7597 178.508 24.437V24.426H177.111C176.569 24.426 176.184 24.5213 175.956 24.712C175.736 24.8953 175.626 25.1263 175.626 25.405C175.626 25.691 175.729 25.922 175.934 26.098C176.147 26.2667 176.444 26.351 176.825 26.351ZM35.674 41.132C35.2267 41.132 34.827 41.0403 34.475 40.857C34.1303 40.6737 33.8663 40.417 33.683 40.087L33.595 41H32.759V33.08H33.683V36.446C33.859 36.182 34.1083 35.9437 34.431 35.731C34.761 35.5183 35.179 35.412 35.685 35.412C36.2277 35.412 36.7007 35.5367 37.104 35.786C37.5073 36.0353 37.819 36.3763 38.039 36.809C38.2663 37.2417 38.38 37.733 38.38 38.283C38.38 38.833 38.2663 39.3243 38.039 39.757C37.819 40.1823 37.5037 40.5197 37.093 40.769C36.6897 41.011 36.2167 41.132 35.674 41.132ZM35.575 40.329C35.9417 40.329 36.2643 40.2447 36.543 40.076C36.8217 39.9 37.0417 39.658 37.203 39.35C37.3643 39.042 37.445 38.6827 37.445 38.272C37.445 37.8613 37.3643 37.502 37.203 37.194C37.0417 36.886 36.8217 36.6477 36.543 36.479C36.2643 36.303 35.9417 36.215 35.575 36.215C35.2083 36.215 34.8857 36.303 34.607 36.479C34.3283 36.6477 34.1083 36.886 33.947 37.194C33.7857 37.502 33.705 37.8613 33.705 38.272C33.705 38.6827 33.7857 39.042 33.947 39.35C34.1083 39.658 34.3283 39.9 34.607 40.076C34.8857 40.2447 35.2083 40.329 35.575 40.329ZM42.1192 41.132C41.5986 41.132 41.1366 41.0147 40.7332 40.78C40.3299 40.538 40.0109 40.2043 39.7762 39.779C39.5489 39.3537 39.4352 38.8513 39.4352 38.272C39.4352 37.7 39.5489 37.2013 39.7762 36.776C40.0036 36.3433 40.3189 36.0097 40.7222 35.775C41.1329 35.533 41.6059 35.412 42.1412 35.412C42.6692 35.412 43.1239 35.533 43.5052 35.775C43.8939 36.0097 44.1909 36.3213 44.3962 36.71C44.6016 37.0987 44.7042 37.5167 44.7042 37.964C44.7042 38.0447 44.7006 38.1253 44.6932 38.206C44.6932 38.2867 44.6932 38.3783 44.6932 38.481H40.3482C40.3702 38.899 40.4656 39.2473 40.6342 39.526C40.8102 39.7973 41.0266 40.0027 41.2832 40.142C41.5472 40.2813 41.8259 40.351 42.1192 40.351C42.5006 40.351 42.8196 40.263 43.0762 40.087C43.3329 39.911 43.5199 39.6727 43.6372 39.372H44.5502C44.4036 39.878 44.1212 40.2997 43.7032 40.637C43.2926 40.967 42.7646 41.132 42.1192 41.132ZM42.1192 36.193C41.6792 36.193 41.2869 36.3287 40.9422 36.6C40.6049 36.864 40.4106 37.2527 40.3592 37.766H43.7912C43.7692 37.2747 43.6006 36.8897 43.2852 36.611C42.9699 36.3323 42.5812 36.193 42.1192 36.193ZM47.9023 41C47.4036 41 47.0113 40.879 46.7253 40.637C46.4393 40.395 46.2963 39.9587 46.2963 39.328V36.325H45.3503V35.544H46.2963L46.4173 34.235H47.2203V35.544H48.8263V36.325H47.2203V39.328C47.2203 39.6727 47.29 39.9073 47.4293 40.032C47.5686 40.1493 47.8143 40.208 48.1663 40.208H48.7383V41H47.9023ZM52.1562 41C51.6575 41 51.2652 40.879 50.9792 40.637C50.6932 40.395 50.5502 39.9587 50.5502 39.328V36.325H49.6042V35.544H50.5502L50.6712 34.235H51.4742V35.544H53.0802V36.325H51.4742V39.328C51.4742 39.6727 51.5439 39.9073 51.6832 40.032C51.8225 40.1493 52.0682 40.208 52.4202 40.208H52.9922V41H52.1562ZM56.5567 41.132C56.0361 41.132 55.5741 41.0147 55.1707 40.78C54.7674 40.538 54.4484 40.2043 54.2137 39.779C53.9864 39.3537 53.8727 38.8513 53.8727 38.272C53.8727 37.7 53.9864 37.2013 54.2137 36.776C54.4411 36.3433 54.7564 36.0097 55.1597 35.775C55.5704 35.533 56.0434 35.412 56.5787 35.412C57.1067 35.412 57.5614 35.533 57.9427 35.775C58.3314 36.0097 58.6284 36.3213 58.8337 36.71C59.0391 37.0987 59.1417 37.5167 59.1417 37.964C59.1417 38.0447 59.1381 38.1253 59.1307 38.206C59.1307 38.2867 59.1307 38.3783 59.1307 38.481H54.7857C54.8077 38.899 54.9031 39.2473 55.0717 39.526C55.2477 39.7973 55.4641 40.0027 55.7207 40.142C55.9847 40.2813 56.2634 40.351 56.5567 40.351C56.9381 40.351 57.2571 40.263 57.5137 40.087C57.7704 39.911 57.9574 39.6727 58.0747 39.372H58.9877C58.8411 39.878 58.5587 40.2997 58.1407 40.637C57.7301 40.967 57.2021 41.132 56.5567 41.132ZM56.5567 36.193C56.1167 36.193 55.7244 36.3287 55.3797 36.6C55.0424 36.864 54.8481 37.2527 54.7967 37.766H58.2287C58.2067 37.2747 58.0381 36.8897 57.7227 36.611C57.4074 36.3323 57.0187 36.193 56.5567 36.193ZM60.3664 41V35.544H61.2024L61.2794 36.589C61.4481 36.2297 61.7048 35.9437 62.0494 35.731C62.3941 35.5183 62.8194 35.412 63.3254 35.412V36.38H63.0724C62.7498 36.38 62.4528 36.4387 62.1814 36.556C61.9101 36.666 61.6938 36.8567 61.5324 37.128C61.3711 37.3993 61.2904 37.7733 61.2904 38.25V41H60.3664ZM69.2646 41.132C68.6193 41.132 68.106 40.9377 67.7246 40.549C67.3433 40.153 67.1526 39.548 67.1526 38.734V35.544H68.0766V38.635C68.0766 39.7717 68.5423 40.34 69.4736 40.34C69.9503 40.34 70.3426 40.1713 70.6506 39.834C70.966 39.4893 71.1236 39.0017 71.1236 38.371V35.544H72.0476V41H71.2116L71.1456 40.021C70.977 40.3657 70.724 40.637 70.3866 40.835C70.0566 41.033 69.6826 41.132 69.2646 41.132ZM73.5686 41V35.544H74.4046L74.4596 36.523C74.6356 36.1783 74.8886 35.907 75.2186 35.709C75.5486 35.511 75.9226 35.412 76.3406 35.412C76.9859 35.412 77.4992 35.61 77.8806 36.006C78.2692 36.3947 78.4636 36.996 78.4636 37.81V41H77.5396V37.909C77.5396 36.7723 77.0702 36.204 76.1316 36.204C75.6622 36.204 75.2699 36.3763 74.9546 36.721C74.6466 37.0583 74.4926 37.5423 74.4926 38.173V41H73.5686ZM82.3385 41.132C81.7958 41.132 81.3192 41.0073 80.9085 40.758C80.5052 40.5087 80.1898 40.1677 79.9625 39.735C79.7425 39.3023 79.6325 38.811 79.6325 38.261C79.6325 37.711 79.7462 37.2233 79.9735 36.798C80.2008 36.3653 80.5162 36.028 80.9195 35.786C81.3228 35.5367 81.7995 35.412 82.3495 35.412C82.7968 35.412 83.1928 35.5037 83.5375 35.687C83.8822 35.8703 84.1498 36.127 84.3405 36.457V33.08H85.2645V41H84.4285L84.3405 40.098C84.1645 40.362 83.9115 40.6003 83.5815 40.813C83.2515 41.0257 82.8372 41.132 82.3385 41.132ZM82.4375 40.329C82.8042 40.329 83.1268 40.2447 83.4055 40.076C83.6915 39.9 83.9115 39.658 84.0655 39.35C84.2268 39.042 84.3075 38.6827 84.3075 38.272C84.3075 37.8613 84.2268 37.502 84.0655 37.194C83.9115 36.886 83.6915 36.6477 83.4055 36.479C83.1268 36.303 82.8042 36.215 82.4375 36.215C82.0782 36.215 81.7555 36.303 81.4695 36.479C81.1908 36.6477 80.9708 36.886 80.8095 37.194C80.6555 37.502 80.5785 37.8613 80.5785 38.272C80.5785 38.6827 80.6555 39.042 80.8095 39.35C80.9708 39.658 81.1908 39.9 81.4695 40.076C81.7555 40.2447 82.0782 40.329 82.4375 40.329ZM89.2237 41.132C88.7031 41.132 88.2411 41.0147 87.8377 40.78C87.4344 40.538 87.1154 40.2043 86.8807 39.779C86.6534 39.3537 86.5397 38.8513 86.5397 38.272C86.5397 37.7 86.6534 37.2013 86.8807 36.776C87.1081 36.3433 87.4234 36.0097 87.8267 35.775C88.2374 35.533 88.7104 35.412 89.2457 35.412C89.7737 35.412 90.2284 35.533 90.6097 35.775C90.9984 36.0097 91.2954 36.3213 91.5007 36.71C91.7061 37.0987 91.8087 37.5167 91.8087 37.964C91.8087 38.0447 91.8051 38.1253 91.7977 38.206C91.7977 38.2867 91.7977 38.3783 91.7977 38.481H87.4527C87.4747 38.899 87.5701 39.2473 87.7387 39.526C87.9147 39.7973 88.1311 40.0027 88.3877 40.142C88.6517 40.2813 88.9304 40.351 89.2237 40.351C89.6051 40.351 89.9241 40.263 90.1807 40.087C90.4374 39.911 90.6244 39.6727 90.7417 39.372H91.6547C91.5081 39.878 91.2257 40.2997 90.8077 40.637C90.3971 40.967 89.8691 41.132 89.2237 41.132ZM89.2237 36.193C88.7837 36.193 88.3914 36.3287 88.0467 36.6C87.7094 36.864 87.5151 37.2527 87.4637 37.766H90.8957C90.8737 37.2747 90.7051 36.8897 90.3897 36.611C90.0744 36.3323 89.6857 36.193 89.2237 36.193ZM93.0334 41V35.544H93.8694L93.9464 36.589C94.1151 36.2297 94.3717 35.9437 94.7164 35.731C95.0611 35.5183 95.4864 35.412 95.9924 35.412V36.38H95.7394C95.4167 36.38 95.1197 36.4387 94.8484 36.556C94.5771 36.666 94.3607 36.8567 94.1994 37.128C94.0381 37.3993 93.9574 37.7733 93.9574 38.25V41H93.0334ZM99.1195 41.132C98.4668 41.132 97.9242 40.967 97.4915 40.637C97.0588 40.307 96.8058 39.8597 96.7325 39.295H97.6785C97.7372 39.581 97.8875 39.8303 98.1295 40.043C98.3788 40.2483 98.7125 40.351 99.1305 40.351C99.5192 40.351 99.8052 40.2703 99.9885 40.109C100.172 39.9403 100.264 39.7423 100.264 39.515C100.264 39.185 100.143 38.965 99.9005 38.855C99.6658 38.745 99.3322 38.646 98.8995 38.558C98.6062 38.4993 98.3128 38.415 98.0195 38.305C97.7262 38.195 97.4805 38.041 97.2825 37.843C97.0845 37.6377 96.9855 37.37 96.9855 37.04C96.9855 36.5633 97.1615 36.1747 97.5135 35.874C97.8728 35.566 98.3568 35.412 98.9655 35.412C99.5448 35.412 100.018 35.5587 100.385 35.852C100.759 36.138 100.975 36.5487 101.034 37.084H100.121C100.084 36.8053 99.9628 36.589 99.7575 36.435C99.5595 36.2737 99.2918 36.193 98.9545 36.193C98.6245 36.193 98.3678 36.2627 98.1845 36.402C98.0085 36.5413 97.9205 36.7247 97.9205 36.952C97.9205 37.172 98.0342 37.3443 98.2615 37.469C98.4962 37.5937 98.8115 37.7 99.2075 37.788C99.5448 37.8613 99.8638 37.953 100.165 38.063C100.473 38.1657 100.722 38.3233 100.913 38.536C101.111 38.7413 101.21 39.042 101.21 39.438C101.217 39.9293 101.03 40.3363 100.649 40.659C100.275 40.9743 99.7648 41.132 99.1195 41.132ZM104.438 41C103.94 41 103.547 40.879 103.261 40.637C102.975 40.395 102.832 39.9587 102.832 39.328V36.325H101.886V35.544H102.832L102.953 34.235H103.756V35.544H105.362V36.325H103.756V39.328C103.756 39.6727 103.826 39.9073 103.965 40.032C104.105 40.1493 104.35 40.208 104.702 40.208H105.274V41H104.438ZM108.351 41.132C107.897 41.132 107.519 41.055 107.218 40.901C106.918 40.747 106.694 40.5417 106.547 40.285C106.401 40.0283 106.327 39.7497 106.327 39.449C106.327 38.8917 106.54 38.4627 106.965 38.162C107.391 37.8613 107.97 37.711 108.703 37.711H110.177V37.645C110.177 37.1683 110.053 36.809 109.803 36.567C109.554 36.3177 109.22 36.193 108.802 36.193C108.443 36.193 108.131 36.2847 107.867 36.468C107.611 36.644 107.449 36.9043 107.383 37.249H106.437C106.474 36.853 106.606 36.5193 106.833 36.248C107.068 35.9767 107.358 35.7713 107.702 35.632C108.047 35.4853 108.414 35.412 108.802 35.412C109.565 35.412 110.137 35.6173 110.518 36.028C110.907 36.4313 111.101 36.9703 111.101 37.645V41H110.276L110.221 40.021C110.067 40.329 109.84 40.593 109.539 40.813C109.246 41.0257 108.85 41.132 108.351 41.132ZM108.494 40.351C108.846 40.351 109.147 40.2593 109.396 40.076C109.653 39.8927 109.847 39.6543 109.979 39.361C110.111 39.0677 110.177 38.7597 110.177 38.437V38.426H108.78C108.238 38.426 107.853 38.5213 107.625 38.712C107.405 38.8953 107.295 39.1263 107.295 39.405C107.295 39.691 107.398 39.922 107.603 40.098C107.816 40.2667 108.113 40.351 108.494 40.351ZM112.488 41V35.544H113.324L113.379 36.523C113.555 36.1783 113.808 35.907 114.138 35.709C114.468 35.511 114.842 35.412 115.26 35.412C115.905 35.412 116.418 35.61 116.8 36.006C117.188 36.3947 117.383 36.996 117.383 37.81V41H116.459V37.909C116.459 36.7723 115.989 36.204 115.051 36.204C114.581 36.204 114.189 36.3763 113.874 36.721C113.566 37.0583 113.412 37.5423 113.412 38.173V41H112.488ZM121.257 41.132C120.715 41.132 120.238 41.0073 119.827 40.758C119.424 40.5087 119.109 40.1677 118.881 39.735C118.661 39.3023 118.551 38.811 118.551 38.261C118.551 37.711 118.665 37.2233 118.892 36.798C119.12 36.3653 119.435 36.028 119.838 35.786C120.242 35.5367 120.718 35.412 121.268 35.412C121.716 35.412 122.112 35.5037 122.456 35.687C122.801 35.8703 123.069 36.127 123.259 36.457V33.08H124.183V41H123.347L123.259 40.098C123.083 40.362 122.83 40.6003 122.5 40.813C122.17 41.0257 121.756 41.132 121.257 41.132ZM121.356 40.329C121.723 40.329 122.046 40.2447 122.324 40.076C122.61 39.9 122.83 39.658 122.984 39.35C123.146 39.042 123.226 38.6827 123.226 38.272C123.226 37.8613 123.146 37.502 122.984 37.194C122.83 36.886 122.61 36.6477 122.324 36.479C122.046 36.303 121.723 36.215 121.356 36.215C120.997 36.215 120.674 36.303 120.388 36.479C120.11 36.6477 119.89 36.886 119.728 37.194C119.574 37.502 119.497 37.8613 119.497 38.272C119.497 38.6827 119.574 39.042 119.728 39.35C119.89 39.658 120.11 39.9 120.388 40.076C120.674 40.2447 120.997 40.329 121.356 40.329ZM126.251 34.334C126.067 34.334 125.913 34.2753 125.789 34.158C125.671 34.0333 125.613 33.8793 125.613 33.696C125.613 33.52 125.671 33.3733 125.789 33.256C125.913 33.1387 126.067 33.08 126.251 33.08C126.427 33.08 126.577 33.1387 126.702 33.256C126.826 33.3733 126.889 33.52 126.889 33.696C126.889 33.8793 126.826 34.0333 126.702 34.158C126.577 34.2753 126.427 34.334 126.251 34.334ZM125.789 41V35.544H126.713V41H125.789ZM128.322 41V35.544H129.158L129.213 36.523C129.389 36.1783 129.642 35.907 129.972 35.709C130.302 35.511 130.676 35.412 131.094 35.412C131.739 35.412 132.252 35.61 132.634 36.006C133.022 36.3947 133.216 36.996 133.216 37.81V41H132.293V37.909C132.293 36.7723 131.823 36.204 130.885 36.204C130.415 36.204 130.023 36.3763 129.708 36.721C129.4 37.0583 129.246 37.5423 129.246 38.173V41H128.322ZM136.772 39.284C136.464 39.284 136.182 39.2437 135.925 39.163L135.375 39.68C135.456 39.7387 135.555 39.79 135.672 39.834C135.797 39.8707 135.973 39.9073 136.2 39.944C136.428 39.9733 136.747 40.0063 137.157 40.043C137.891 40.0943 138.415 40.263 138.73 40.549C139.046 40.835 139.203 41.209 139.203 41.671C139.203 41.9863 139.115 42.287 138.939 42.573C138.771 42.859 138.507 43.0937 138.147 43.277C137.795 43.4603 137.341 43.552 136.783 43.552C136.292 43.552 135.856 43.486 135.474 43.354C135.093 43.2293 134.796 43.035 134.583 42.771C134.371 42.5143 134.264 42.188 134.264 41.792C134.264 41.5867 134.319 41.363 134.429 41.121C134.539 40.8863 134.745 40.6627 135.045 40.45C134.884 40.384 134.745 40.3143 134.627 40.241C134.517 40.1603 134.415 40.0723 134.319 39.977V39.724L135.254 38.8C134.822 38.4333 134.605 37.9493 134.605 37.348C134.605 36.9887 134.69 36.6623 134.858 36.369C135.027 36.0757 135.273 35.8447 135.595 35.676C135.918 35.5 136.31 35.412 136.772 35.412C137.088 35.412 137.374 35.456 137.63 35.544H139.643V36.237L138.62 36.281C138.833 36.589 138.939 36.9447 138.939 37.348C138.939 37.7073 138.851 38.0337 138.675 38.327C138.507 38.6203 138.261 38.855 137.938 39.031C137.623 39.1997 137.234 39.284 136.772 39.284ZM136.772 38.525C137.161 38.525 137.469 38.426 137.696 38.228C137.931 38.0227 138.048 37.7293 138.048 37.348C138.048 36.974 137.931 36.688 137.696 36.49C137.469 36.2847 137.161 36.182 136.772 36.182C136.376 36.182 136.061 36.2847 135.826 36.49C135.599 36.688 135.485 36.974 135.485 37.348C135.485 37.7293 135.599 38.0227 135.826 38.228C136.061 38.426 136.376 38.525 136.772 38.525ZM135.166 41.704C135.166 42.0707 135.32 42.342 135.628 42.518C135.936 42.7013 136.321 42.793 136.783 42.793C137.238 42.793 137.601 42.694 137.872 42.496C138.151 42.298 138.29 42.034 138.29 41.704C138.29 41.4693 138.195 41.264 138.004 41.088C137.814 40.9193 137.462 40.8203 136.948 40.791C136.545 40.7617 136.197 40.725 135.903 40.681C135.603 40.8423 135.405 41.0147 135.309 41.198C135.214 41.3887 135.166 41.5573 135.166 41.704ZM146.083 41.132C145.57 41.132 145.108 41.0147 144.697 40.78C144.286 40.5453 143.96 40.2153 143.718 39.79C143.483 39.3573 143.366 38.8513 143.366 38.272C143.366 37.6927 143.487 37.1903 143.729 36.765C143.971 36.3323 144.297 35.9987 144.708 35.764C145.126 35.5293 145.592 35.412 146.105 35.412C146.618 35.412 147.08 35.5293 147.491 35.764C147.902 35.9987 148.224 36.3323 148.459 36.765C148.701 37.1903 148.822 37.6927 148.822 38.272C148.822 38.8513 148.701 39.3573 148.459 39.79C148.217 40.2153 147.887 40.5453 147.469 40.78C147.058 41.0147 146.596 41.132 146.083 41.132ZM146.083 40.34C146.398 40.34 146.692 40.263 146.963 40.109C147.234 39.955 147.454 39.724 147.623 39.416C147.792 39.108 147.876 38.7267 147.876 38.272C147.876 37.8173 147.792 37.436 147.623 37.128C147.462 36.82 147.245 36.589 146.974 36.435C146.703 36.281 146.413 36.204 146.105 36.204C145.79 36.204 145.496 36.281 145.225 36.435C144.954 36.589 144.734 36.82 144.565 37.128C144.396 37.436 144.312 37.8173 144.312 38.272C144.312 38.7267 144.396 39.108 144.565 39.416C144.734 39.724 144.95 39.955 145.214 40.109C145.485 40.263 145.775 40.34 146.083 40.34ZM150.404 41V36.325H149.579V35.544H150.404V34.598C150.404 34.07 150.536 33.685 150.8 33.443C151.064 33.201 151.449 33.08 151.955 33.08H152.505V33.872H152.098C151.819 33.872 151.621 33.9307 151.504 34.048C151.386 34.158 151.328 34.3487 151.328 34.62V35.544H152.67V36.325H151.328V41H150.404ZM158.837 41C158.338 41 157.946 40.879 157.66 40.637C157.374 40.395 157.231 39.9587 157.231 39.328V36.325H156.285V35.544H157.231L157.352 34.235H158.155V35.544H159.761V36.325H158.155V39.328C158.155 39.6727 158.225 39.9073 158.364 40.032C158.503 40.1493 158.749 40.208 159.101 40.208H159.673V41H158.837ZM160.935 41V33.08H161.859V36.479C162.042 36.1417 162.302 35.8813 162.64 35.698C162.977 35.5073 163.344 35.412 163.74 35.412C164.37 35.412 164.876 35.61 165.258 36.006C165.639 36.3947 165.83 36.996 165.83 37.81V41H164.917V37.909C164.917 36.7723 164.458 36.204 163.542 36.204C163.065 36.204 162.665 36.3763 162.343 36.721C162.02 37.0583 161.859 37.5423 161.859 38.173V41H160.935ZM169.683 41.132C169.162 41.132 168.7 41.0147 168.297 40.78C167.893 40.538 167.574 40.2043 167.34 39.779C167.112 39.3537 166.999 38.8513 166.999 38.272C166.999 37.7 167.112 37.2013 167.34 36.776C167.567 36.3433 167.882 36.0097 168.286 35.775C168.696 35.533 169.169 35.412 169.705 35.412C170.233 35.412 170.687 35.533 171.069 35.775C171.457 36.0097 171.754 36.3213 171.96 36.71C172.165 37.0987 172.268 37.5167 172.268 37.964C172.268 38.0447 172.264 38.1253 172.257 38.206C172.257 38.2867 172.257 38.3783 172.257 38.481H167.912C167.934 38.899 168.029 39.2473 168.198 39.526C168.374 39.7973 168.59 40.0027 168.847 40.142C169.111 40.2813 169.389 40.351 169.683 40.351C170.064 40.351 170.383 40.263 170.64 40.087C170.896 39.911 171.083 39.6727 171.201 39.372H172.114C171.967 39.878 171.685 40.2997 171.267 40.637C170.856 40.967 170.328 41.132 169.683 41.132ZM169.683 36.193C169.243 36.193 168.85 36.3287 168.506 36.6C168.168 36.864 167.974 37.2527 167.923 37.766H171.355C171.333 37.2747 171.164 36.8897 170.849 36.611C170.533 36.3323 170.145 36.193 169.683 36.193ZM34.849 55.132C34.1963 55.132 33.6537 54.967 33.221 54.637C32.7883 54.307 32.5353 53.8597 32.462 53.295H33.408C33.4667 53.581 33.617 53.8303 33.859 54.043C34.1083 54.2483 34.442 54.351 34.86 54.351C35.2487 54.351 35.5347 54.2703 35.718 54.109C35.9013 53.9403 35.993 53.7423 35.993 53.515C35.993 53.185 35.872 52.965 35.63 52.855C35.3953 52.745 35.0617 52.646 34.629 52.558C34.3357 52.4993 34.0423 52.415 33.749 52.305C33.4557 52.195 33.21 52.041 33.012 51.843C32.814 51.6377 32.715 51.37 32.715 51.04C32.715 50.5633 32.891 50.1747 33.243 49.874C33.6023 49.566 34.0863 49.412 34.695 49.412C35.2743 49.412 35.7473 49.5587 36.114 49.852C36.488 50.138 36.7043 50.5487 36.763 51.084H35.85C35.8133 50.8053 35.6923 50.589 35.487 50.435C35.289 50.2737 35.0213 50.193 34.684 50.193C34.354 50.193 34.0973 50.2627 33.914 50.402C33.738 50.5413 33.65 50.7247 33.65 50.952C33.65 51.172 33.7637 51.3443 33.991 51.469C34.2257 51.5937 34.541 51.7 34.937 51.788C35.2743 51.8613 35.5933 51.953 35.894 52.063C36.202 52.1657 36.4513 52.3233 36.642 52.536C36.84 52.7413 36.939 53.042 36.939 53.438C36.9463 53.9293 36.7593 54.3363 36.378 54.659C36.004 54.9743 35.4943 55.132 34.849 55.132ZM40.767 55.132C40.2463 55.132 39.777 55.0147 39.359 54.78C38.9483 54.538 38.622 54.2043 38.38 53.779C38.1453 53.3463 38.028 52.844 38.028 52.272C38.028 51.7 38.1453 51.2013 38.38 50.776C38.622 50.3433 38.9483 50.0097 39.359 49.775C39.777 49.533 40.2463 49.412 40.767 49.412C41.4123 49.412 41.955 49.5807 42.395 49.918C42.8423 50.2553 43.1247 50.7063 43.242 51.271H42.296C42.2227 50.9337 42.043 50.6733 41.757 50.49C41.471 50.2993 41.1373 50.204 40.756 50.204C40.448 50.204 40.1583 50.281 39.887 50.435C39.6157 50.589 39.3957 50.82 39.227 51.128C39.0583 51.436 38.974 51.8173 38.974 52.272C38.974 52.7267 39.0583 53.108 39.227 53.416C39.3957 53.724 39.6157 53.9587 39.887 54.12C40.1583 54.274 40.448 54.351 40.756 54.351C41.1373 54.351 41.471 54.2593 41.757 54.076C42.043 53.8853 42.2227 53.6177 42.296 53.273H43.242C43.132 53.823 42.8533 54.2703 42.406 54.615C41.9587 54.9597 41.4123 55.132 40.767 55.132ZM46.3474 55.132C45.8928 55.132 45.5151 55.055 45.2144 54.901C44.9138 54.747 44.6901 54.5417 44.5434 54.285C44.3968 54.0283 44.3234 53.7497 44.3234 53.449C44.3234 52.8917 44.5361 52.4627 44.9614 52.162C45.3868 51.8613 45.9661 51.711 46.6994 51.711H48.1734V51.645C48.1734 51.1683 48.0488 50.809 47.7994 50.567C47.5501 50.3177 47.2164 50.193 46.7984 50.193C46.4391 50.193 46.1274 50.2847 45.8634 50.468C45.6068 50.644 45.4454 50.9043 45.3794 51.249H44.4334C44.4701 50.853 44.6021 50.5193 44.8294 50.248C45.0641 49.9767 45.3538 49.7713 45.6984 49.632C46.0431 49.4853 46.4098 49.412 46.7984 49.412C47.5611 49.412 48.1331 49.6173 48.5144 50.028C48.9031 50.4313 49.0974 50.9703 49.0974 51.645V55H48.2724L48.2174 54.021C48.0634 54.329 47.8361 54.593 47.5354 54.813C47.2421 55.0257 46.8461 55.132 46.3474 55.132ZM46.4904 54.351C46.8424 54.351 47.1431 54.2593 47.3924 54.076C47.6491 53.8927 47.8434 53.6543 47.9754 53.361C48.1074 53.0677 48.1734 52.7597 48.1734 52.437V52.426H46.7764C46.2338 52.426 45.8488 52.5213 45.6214 52.712C45.4014 52.8953 45.2914 53.1263 45.2914 53.405C45.2914 53.691 45.3941 53.922 45.5994 54.098C45.8121 54.2667 46.1091 54.351 46.4904 54.351ZM50.4836 55V47.08H51.4076V55H50.4836ZM55.3751 55.132C54.8544 55.132 54.3924 55.0147 53.9891 54.78C53.5858 54.538 53.2668 54.2043 53.0321 53.779C52.8048 53.3537 52.6911 52.8513 52.6911 52.272C52.6911 51.7 52.8048 51.2013 53.0321 50.776C53.2594 50.3433 53.5748 50.0097 53.9781 49.775C54.3888 49.533 54.8618 49.412 55.3971 49.412C55.9251 49.412 56.3798 49.533 56.7611 49.775C57.1498 50.0097 57.4468 50.3213 57.6521 50.71C57.8574 51.0987 57.9601 51.5167 57.9601 51.964C57.9601 52.0447 57.9564 52.1253 57.9491 52.206C57.9491 52.2867 57.9491 52.3783 57.9491 52.481H53.6041C53.6261 52.899 53.7214 53.2473 53.8901 53.526C54.0661 53.7973 54.2824 54.0027 54.5391 54.142C54.8031 54.2813 55.0818 54.351 55.3751 54.351C55.7564 54.351 56.0754 54.263 56.3321 54.087C56.5888 53.911 56.7758 53.6727 56.8931 53.372H57.8061C57.6594 53.878 57.3771 54.2997 56.9591 54.637C56.5484 54.967 56.0204 55.132 55.3751 55.132ZM55.3751 50.193C54.9351 50.193 54.5428 50.3287 54.1981 50.6C53.8608 50.864 53.6664 51.2527 53.6151 51.766H57.0471C57.0251 51.2747 56.8564 50.8897 56.5411 50.611C56.2258 50.3323 55.8371 50.193 55.3751 50.193ZM64.5819 55.132C64.0686 55.132 63.6066 55.0147 63.1959 54.78C62.7852 54.5453 62.4589 54.2153 62.2169 53.79C61.9822 53.3573 61.8649 52.8513 61.8649 52.272C61.8649 51.6927 61.9859 51.1903 62.2279 50.765C62.4699 50.3323 62.7962 49.9987 63.2069 49.764C63.6249 49.5293 64.0906 49.412 64.6039 49.412C65.1172 49.412 65.5792 49.5293 65.9899 49.764C66.4006 49.9987 66.7232 50.3323 66.9579 50.765C67.1999 51.1903 67.3209 51.6927 67.3209 52.272C67.3209 52.8513 67.1999 53.3573 66.9579 53.79C66.7159 54.2153 66.3859 54.5453 65.9679 54.78C65.5572 55.0147 65.0952 55.132 64.5819 55.132ZM64.5819 54.34C64.8972 54.34 65.1906 54.263 65.4619 54.109C65.7332 53.955 65.9532 53.724 66.1219 53.416C66.2906 53.108 66.3749 52.7267 66.3749 52.272C66.3749 51.8173 66.2906 51.436 66.1219 51.128C65.9606 50.82 65.7442 50.589 65.4729 50.435C65.2016 50.281 64.9119 50.204 64.6039 50.204C64.2886 50.204 63.9952 50.281 63.7239 50.435C63.4526 50.589 63.2326 50.82 63.0639 51.128C62.8952 51.436 62.8109 51.8173 62.8109 52.272C62.8109 52.7267 62.8952 53.108 63.0639 53.416C63.2326 53.724 63.4489 53.955 63.7129 54.109C63.9842 54.263 64.2739 54.34 64.5819 54.34ZM68.9027 55V50.325H68.0777V49.544H68.9027V48.598C68.9027 48.07 69.0347 47.685 69.2987 47.443C69.5627 47.201 69.9477 47.08 70.4537 47.08H71.0037V47.872H70.5967C70.318 47.872 70.12 47.9307 70.0027 48.048C69.8853 48.158 69.8267 48.3487 69.8267 48.62V49.544H71.1687V50.325H69.8267V55H68.9027ZM77.3359 55C76.8372 55 76.4449 54.879 76.1589 54.637C75.8729 54.395 75.7299 53.9587 75.7299 53.328V50.325H74.7839V49.544H75.7299L75.8509 48.235H76.6539V49.544H78.2599V50.325H76.6539V53.328C76.6539 53.6727 76.7236 53.9073 76.8629 54.032C77.0022 54.1493 77.2479 54.208 77.5999 54.208H78.1719V55H77.3359ZM79.4338 55V47.08H80.3578V50.479C80.5411 50.1417 80.8015 49.8813 81.1388 49.698C81.4761 49.5073 81.8428 49.412 82.2388 49.412C82.8695 49.412 83.3755 49.61 83.7568 50.006C84.1381 50.3947 84.3288 50.996 84.3288 51.81V55H83.4158V51.909C83.4158 50.7723 82.9575 50.204 82.0408 50.204C81.5641 50.204 81.1645 50.3763 80.8418 50.721C80.5191 51.0583 80.3578 51.5423 80.3578 52.173V55H79.4338ZM88.1817 55.132C87.6611 55.132 87.1991 55.0147 86.7957 54.78C86.3924 54.538 86.0734 54.2043 85.8387 53.779C85.6114 53.3537 85.4977 52.8513 85.4977 52.272C85.4977 51.7 85.6114 51.2013 85.8387 50.776C86.0661 50.3433 86.3814 50.0097 86.7847 49.775C87.1954 49.533 87.6684 49.412 88.2037 49.412C88.7317 49.412 89.1864 49.533 89.5677 49.775C89.9564 50.0097 90.2534 50.3213 90.4587 50.71C90.6641 51.0987 90.7667 51.5167 90.7667 51.964C90.7667 52.0447 90.7631 52.1253 90.7557 52.206C90.7557 52.2867 90.7557 52.3783 90.7557 52.481H86.4107C86.4327 52.899 86.5281 53.2473 86.6967 53.526C86.8727 53.7973 87.0891 54.0027 87.3457 54.142C87.6097 54.2813 87.8884 54.351 88.1817 54.351C88.5631 54.351 88.8821 54.263 89.1387 54.087C89.3954 53.911 89.5824 53.6727 89.6997 53.372H90.6127C90.4661 53.878 90.1837 54.2997 89.7657 54.637C89.3551 54.967 88.8271 55.132 88.1817 55.132ZM88.1817 50.193C87.7417 50.193 87.3494 50.3287 87.0047 50.6C86.6674 50.864 86.4731 51.2527 86.4217 51.766H89.8537C89.8317 51.2747 89.6631 50.8897 89.3477 50.611C89.0324 50.3323 88.6437 50.193 88.1817 50.193ZM97.3556 55.132C96.8349 55.132 96.3729 55.0147 95.9696 54.78C95.5662 54.538 95.2472 54.2043 95.0126 53.779C94.7852 53.3537 94.6716 52.8513 94.6716 52.272C94.6716 51.7 94.7852 51.2013 95.0126 50.776C95.2399 50.3433 95.5552 50.0097 95.9586 49.775C96.3692 49.533 96.8422 49.412 97.3776 49.412C97.9056 49.412 98.3602 49.533 98.7416 49.775C99.1302 50.0097 99.4272 50.3213 99.6326 50.71C99.8379 51.0987 99.9406 51.5167 99.9406 51.964C99.9406 52.0447 99.9369 52.1253 99.9296 52.206C99.9296 52.2867 99.9296 52.3783 99.9296 52.481H95.5846C95.6066 52.899 95.7019 53.2473 95.8706 53.526C96.0466 53.7973 96.2629 54.0027 96.5196 54.142C96.7836 54.2813 97.0622 54.351 97.3556 54.351C97.7369 54.351 98.0559 54.263 98.3126 54.087C98.5692 53.911 98.7562 53.6727 98.8736 53.372H99.7866C99.6399 53.878 99.3576 54.2997 98.9396 54.637C98.5289 54.967 98.0009 55.132 97.3556 55.132ZM97.3556 50.193C96.9156 50.193 96.5232 50.3287 96.1786 50.6C95.8412 50.864 95.6469 51.2527 95.5956 51.766H99.0276C99.0056 51.2747 98.8369 50.8897 98.5216 50.611C98.2062 50.3323 97.8176 50.193 97.3556 50.193ZM102.523 55L100.455 49.544H101.423L103.062 54.109L104.712 49.544H105.658L103.59 55H102.523ZM108.86 55.132C108.34 55.132 107.878 55.0147 107.474 54.78C107.071 54.538 106.752 54.2043 106.517 53.779C106.29 53.3537 106.176 52.8513 106.176 52.272C106.176 51.7 106.29 51.2013 106.517 50.776C106.745 50.3433 107.06 50.0097 107.463 49.775C107.874 49.533 108.347 49.412 108.882 49.412C109.41 49.412 109.865 49.533 110.246 49.775C110.635 50.0097 110.932 50.3213 111.137 50.71C111.343 51.0987 111.445 51.5167 111.445 51.964C111.445 52.0447 111.442 52.1253 111.434 52.206C111.434 52.2867 111.434 52.3783 111.434 52.481H107.089C107.111 52.899 107.207 53.2473 107.375 53.526C107.551 53.7973 107.768 54.0027 108.024 54.142C108.288 54.2813 108.567 54.351 108.86 54.351C109.242 54.351 109.561 54.263 109.817 54.087C110.074 53.911 110.261 53.6727 110.378 53.372H111.291C111.145 53.878 110.862 54.2997 110.444 54.637C110.034 54.967 109.506 55.132 108.86 55.132ZM108.86 50.193C108.42 50.193 108.028 50.3287 107.683 50.6C107.346 50.864 107.152 51.2527 107.1 51.766H110.532C110.51 51.2747 110.342 50.8897 110.026 50.611C109.711 50.3323 109.322 50.193 108.86 50.193ZM112.67 55V49.544H113.506L113.561 50.523C113.737 50.1783 113.99 49.907 114.32 49.709C114.65 49.511 115.024 49.412 115.442 49.412C116.087 49.412 116.601 49.61 116.982 50.006C117.371 50.3947 117.565 50.996 117.565 51.81V55H116.641V51.909C116.641 50.7723 116.172 50.204 115.233 50.204C114.764 50.204 114.371 50.3763 114.056 50.721C113.748 51.0583 113.594 51.5423 113.594 52.173V55H112.67ZM121.121 55C120.622 55 120.23 54.879 119.944 54.637C119.658 54.395 119.515 53.9587 119.515 53.328V50.325H118.569V49.544H119.515L119.636 48.235H120.439V49.544H122.045V50.325H120.439V53.328C120.439 53.6727 120.509 53.9073 120.648 54.032C120.787 54.1493 121.033 54.208 121.385 54.208H121.957V55H121.121ZM128.286 55C127.787 55 127.395 54.879 127.109 54.637C126.823 54.395 126.68 53.9587 126.68 53.328V50.325H125.734V49.544H126.68L126.801 48.235H127.604V49.544H129.21V50.325H127.604V53.328C127.604 53.6727 127.674 53.9073 127.813 54.032C127.952 54.1493 128.198 54.208 128.55 54.208H129.122V55H128.286ZM130.384 55V47.08H131.308V50.479C131.491 50.1417 131.752 49.8813 132.089 49.698C132.426 49.5073 132.793 49.412 133.189 49.412C133.82 49.412 134.326 49.61 134.707 50.006C135.088 50.3947 135.279 50.996 135.279 51.81V55H134.366V51.909C134.366 50.7723 133.908 50.204 132.991 50.204C132.514 50.204 132.115 50.3763 131.792 50.721C131.469 51.0583 131.308 51.5423 131.308 52.173V55H130.384ZM136.679 55V49.544H137.515L137.592 50.589C137.761 50.2297 138.017 49.9437 138.362 49.731C138.707 49.5183 139.132 49.412 139.638 49.412V50.38H139.385C139.062 50.38 138.765 50.4387 138.494 50.556C138.223 50.666 138.006 50.8567 137.845 51.128C137.684 51.3993 137.603 51.7733 137.603 52.25V55H136.679ZM142.957 55.132C142.444 55.132 141.982 55.0147 141.571 54.78C141.16 54.5453 140.834 54.2153 140.592 53.79C140.357 53.3573 140.24 52.8513 140.24 52.272C140.24 51.6927 140.361 51.1903 140.603 50.765C140.845 50.3323 141.171 49.9987 141.582 49.764C142 49.5293 142.466 49.412 142.979 49.412C143.492 49.412 143.954 49.5293 144.365 49.764C144.776 49.9987 145.098 50.3323 145.333 50.765C145.575 51.1903 145.696 51.6927 145.696 52.272C145.696 52.8513 145.575 53.3573 145.333 53.79C145.091 54.2153 144.761 54.5453 144.343 54.78C143.932 55.0147 143.47 55.132 142.957 55.132ZM142.957 54.34C143.272 54.34 143.566 54.263 143.837 54.109C144.108 53.955 144.328 53.724 144.497 53.416C144.666 53.108 144.75 52.7267 144.75 52.272C144.75 51.8173 144.666 51.436 144.497 51.128C144.336 50.82 144.119 50.589 143.848 50.435C143.577 50.281 143.287 50.204 142.979 50.204C142.664 50.204 142.37 50.281 142.099 50.435C141.828 50.589 141.608 50.82 141.439 51.128C141.27 51.436 141.186 51.8173 141.186 52.272C141.186 52.7267 141.27 53.108 141.439 53.416C141.608 53.724 141.824 53.955 142.088 54.109C142.359 54.263 142.649 54.34 142.957 54.34ZM148.972 55.132C148.326 55.132 147.813 54.9377 147.432 54.549C147.05 54.153 146.86 53.548 146.86 52.734V49.544H147.784V52.635C147.784 53.7717 148.249 54.34 149.181 54.34C149.657 54.34 150.05 54.1713 150.358 53.834C150.673 53.4893 150.831 53.0017 150.831 52.371V49.544H151.755V55H150.919L150.853 54.021C150.684 54.3657 150.431 54.637 150.094 54.835C149.764 55.033 149.39 55.132 148.972 55.132ZM155.432 53.284C155.124 53.284 154.841 53.2437 154.585 53.163L154.035 53.68C154.115 53.7387 154.214 53.79 154.332 53.834C154.456 53.8707 154.632 53.9073 154.86 53.944C155.087 53.9733 155.406 54.0063 155.817 54.043C156.55 54.0943 157.074 54.263 157.39 54.549C157.705 54.835 157.863 55.209 157.863 55.671C157.863 55.9863 157.775 56.287 157.599 56.573C157.43 56.859 157.166 57.0937 156.807 57.277C156.455 57.4603 156 57.552 155.443 57.552C154.951 57.552 154.515 57.486 154.134 57.354C153.752 57.2293 153.455 57.035 153.243 56.771C153.03 56.5143 152.924 56.188 152.924 55.792C152.924 55.5867 152.979 55.363 153.089 55.121C153.199 54.8863 153.404 54.6627 153.705 54.45C153.543 54.384 153.404 54.3143 153.287 54.241C153.177 54.1603 153.074 54.0723 152.979 53.977V53.724L153.914 52.8C153.481 52.4333 153.265 51.9493 153.265 51.348C153.265 50.9887 153.349 50.6623 153.518 50.369C153.686 50.0757 153.932 49.8447 154.255 49.676C154.577 49.5 154.97 49.412 155.432 49.412C155.747 49.412 156.033 49.456 156.29 49.544H158.303V50.237L157.28 50.281C157.492 50.589 157.599 50.9447 157.599 51.348C157.599 51.7073 157.511 52.0337 157.335 52.327C157.166 52.6203 156.92 52.855 156.598 53.031C156.282 53.1997 155.894 53.284 155.432 53.284ZM155.432 52.525C155.82 52.525 156.128 52.426 156.356 52.228C156.59 52.0227 156.708 51.7293 156.708 51.348C156.708 50.974 156.59 50.688 156.356 50.49C156.128 50.2847 155.82 50.182 155.432 50.182C155.036 50.182 154.72 50.2847 154.486 50.49C154.258 50.688 154.145 50.974 154.145 51.348C154.145 51.7293 154.258 52.0227 154.486 52.228C154.72 52.426 155.036 52.525 155.432 52.525ZM153.826 55.704C153.826 56.0707 153.98 56.342 154.288 56.518C154.596 56.7013 154.981 56.793 155.443 56.793C155.897 56.793 156.26 56.694 156.532 56.496C156.81 56.298 156.95 56.034 156.95 55.704C156.95 55.4693 156.854 55.264 156.664 55.088C156.473 54.9193 156.121 54.8203 155.608 54.791C155.204 54.7617 154.856 54.725 154.563 54.681C154.262 54.8423 154.064 55.0147 153.969 55.198C153.873 55.3887 153.826 55.5573 153.826 55.704ZM159.345 55V47.08H160.269V50.479C160.452 50.1417 160.713 49.8813 161.05 49.698C161.387 49.5073 161.754 49.412 162.15 49.412C162.781 49.412 163.287 49.61 163.668 50.006C164.049 50.3947 164.24 50.996 164.24 51.81V55H163.327V51.909C163.327 50.7723 162.869 50.204 161.952 50.204C161.475 50.204 161.076 50.3763 160.753 50.721C160.43 51.0583 160.269 51.5423 160.269 52.173V55H159.345ZM168.606 55V47.3H169.53V50.787L172.742 47.3H173.908L171.048 50.369L173.952 55H172.83L170.388 51.084L169.53 51.997V55H168.606ZM175.008 55V47.3H177.538C178.14 47.3 178.635 47.399 179.023 47.597C179.412 47.795 179.698 48.0627 179.881 48.4C180.072 48.7373 180.167 49.1187 180.167 49.544C180.167 49.962 180.076 50.3397 179.892 50.677C179.709 51.0143 179.423 51.2857 179.034 51.491C178.646 51.689 178.147 51.788 177.538 51.788H175.932V55H175.008ZM175.932 51.007H177.516C178.132 51.007 178.569 50.8787 178.825 50.622C179.089 50.358 179.221 49.9987 179.221 49.544C179.221 49.082 179.089 48.7227 178.825 48.466C178.569 48.202 178.132 48.07 177.516 48.07H175.932V51.007ZM181.378 55V47.3H182.302V55H181.378ZM185.97 55.132C185.317 55.132 184.775 54.967 184.342 54.637C183.909 54.307 183.656 53.8597 183.583 53.295H184.529C184.588 53.581 184.738 53.8303 184.98 54.043C185.229 54.2483 185.563 54.351 185.981 54.351C186.37 54.351 186.656 54.2703 186.839 54.109C187.022 53.9403 187.114 53.7423 187.114 53.515C187.114 53.185 186.993 52.965 186.751 52.855C186.516 52.745 186.183 52.646 185.75 52.558C185.457 52.4993 185.163 52.415 184.87 52.305C184.577 52.195 184.331 52.041 184.133 51.843C183.935 51.6377 183.836 51.37 183.836 51.04C183.836 50.5633 184.012 50.1747 184.364 49.874C184.723 49.566 185.207 49.412 185.816 49.412C186.395 49.412 186.868 49.5587 187.235 49.852C187.609 50.138 187.825 50.5487 187.884 51.084H186.971C186.934 50.8053 186.813 50.589 186.608 50.435C186.41 50.2737 186.142 50.193 185.805 50.193C185.475 50.193 185.218 50.2627 185.035 50.402C184.859 50.5413 184.771 50.7247 184.771 50.952C184.771 51.172 184.885 51.3443 185.112 51.469C185.347 51.5937 185.662 51.7 186.058 51.788C186.395 51.8613 186.714 51.953 187.015 52.063C187.323 52.1657 187.572 52.3233 187.763 52.536C187.961 52.7413 188.06 53.042 188.06 53.438C188.067 53.9293 187.88 54.3363 187.499 54.659C187.125 54.9743 186.615 55.132 185.97 55.132Z" fill="black"/>
</g>
<defs>
<filter id="filter0_d_162_5896" x="16" y="0" width="192" height="74" filterUnits="userSpaceOnUse" color-interpolation-filters="sRGB">
<feFlood flood-opacity="0" result="BackgroundImageFix"/>
<feColorMatrix in="SourceAlpha" type="matrix" values="0 0 0 0 0 0 0 0 0 0 0 0 0 0 0 0 0 0 127 0" result="hardAlpha"/>
<feOffset/>
<feGaussianBlur stdDeviation="4"/>
<feComposite in2="hardAlpha" operator="out"/>
<feColorMatrix type="matrix" values="0 0 0 0 0 0 0 0 0 0 0 0 0 0 0 0 0 0 0.15 0"/>
<feBlend mode="normal" in2="BackgroundImageFix" result="effect1_dropShadow_162_5896"/>
<feBlend mode="normal" in="SourceGraphic" in2="effect1_dropShadow_162_5896" result="shape"/>
</filter>
</defs>
</svg>
