<svg width="208" height="88" viewBox="0 0 208 88" fill="none" xmlns="http://www.w3.org/2000/svg">
<circle cx="4" cy="44" r="4" fill="#005271"/>
<line x1="8" y1="43.5" x2="24" y2="43.5" stroke="#005271" stroke-dasharray="2 2"/>
<g filter="url(#filter0_d_162_5908)">
<rect x="24" y="8" width="176" height="72" rx="4" fill="white" shape-rendering="crispEdges"/>
<path d="M35.597 27.132C35.069 27.132 34.5887 27.0293 34.156 26.824C33.7307 26.6113 33.3897 26.285 33.133 25.845C32.8763 25.405 32.748 24.844 32.748 24.162V19.3H33.672V24.173C33.672 24.921 33.8517 25.4637 34.211 25.801C34.5703 26.1383 35.0397 26.307 35.619 26.307C36.1983 26.307 36.664 26.1383 37.016 25.801C37.368 25.4637 37.544 24.921 37.544 24.173V19.3H38.468V24.162C38.468 24.844 38.3397 25.405 38.083 25.845C37.8263 26.285 37.4817 26.6113 37.049 26.824C36.6163 27.0293 36.1323 27.132 35.597 27.132ZM42.0678 27.132C41.4151 27.132 40.8724 26.967 40.4398 26.637C40.0071 26.307 39.7541 25.8597 39.6808 25.295H40.6268C40.6854 25.581 40.8358 25.8303 41.0778 26.043C41.3271 26.2483 41.6608 26.351 42.0788 26.351C42.4674 26.351 42.7534 26.2703 42.9368 26.109C43.1201 25.9403 43.2118 25.7423 43.2118 25.515C43.2118 25.185 43.0908 24.965 42.8488 24.855C42.6141 24.745 42.2804 24.646 41.8478 24.558C41.5544 24.4993 41.2611 24.415 40.9678 24.305C40.6744 24.195 40.4288 24.041 40.2308 23.843C40.0328 23.6377 39.9338 23.37 39.9338 23.04C39.9338 22.5633 40.1098 22.1747 40.4618 21.874C40.8211 21.566 41.3051 21.412 41.9138 21.412C42.4931 21.412 42.9661 21.5587 43.3328 21.852C43.7068 22.138 43.9231 22.5487 43.9818 23.084H43.0688C43.0321 22.8053 42.9111 22.589 42.7058 22.435C42.5078 22.2737 42.2401 22.193 41.9028 22.193C41.5728 22.193 41.3161 22.2627 41.1328 22.402C40.9568 22.5413 40.8688 22.7247 40.8688 22.952C40.8688 23.172 40.9824 23.3443 41.2098 23.469C41.4444 23.5937 41.7598 23.7 42.1558 23.788C42.4931 23.8613 42.8121 23.953 43.1128 24.063C43.4208 24.1657 43.6701 24.3233 43.8608 24.536C44.0588 24.7413 44.1578 25.042 44.1578 25.438C44.1651 25.9293 43.9781 26.3363 43.5968 26.659C43.2228 26.9743 42.7131 27.132 42.0678 27.132ZM47.9308 27.132C47.4101 27.132 46.9481 27.0147 46.5448 26.78C46.1414 26.538 45.8224 26.2043 45.5878 25.779C45.3604 25.3537 45.2468 24.8513 45.2468 24.272C45.2468 23.7 45.3604 23.2013 45.5878 22.776C45.8151 22.3433 46.1304 22.0097 46.5338 21.775C46.9444 21.533 47.4174 21.412 47.9527 21.412C48.4808 21.412 48.9354 21.533 49.3168 21.775C49.7054 22.0097 50.0024 22.3213 50.2078 22.71C50.4131 23.0987 50.5158 23.5167 50.5158 23.964C50.5158 24.0447 50.5121 24.1253 50.5048 24.206C50.5048 24.2867 50.5048 24.3783 50.5048 24.481H46.1598C46.1818 24.899 46.2771 25.2473 46.4458 25.526C46.6218 25.7973 46.8381 26.0027 47.0948 26.142C47.3588 26.2813 47.6374 26.351 47.9308 26.351C48.3121 26.351 48.6311 26.263 48.8878 26.087C49.1444 25.911 49.3314 25.6727 49.4488 25.372H50.3618C50.2151 25.878 49.9328 26.2997 49.5148 26.637C49.1041 26.967 48.5761 27.132 47.9308 27.132ZM47.9308 22.193C47.4908 22.193 47.0984 22.3287 46.7538 22.6C46.4164 22.864 46.2221 23.2527 46.1707 23.766H49.6028C49.5808 23.2747 49.4121 22.8897 49.0968 22.611C48.7814 22.3323 48.3928 22.193 47.9308 22.193ZM51.7404 27V21.544H52.5764L52.6534 22.589C52.8221 22.2297 53.0788 21.9437 53.4234 21.731C53.7681 21.5183 54.1934 21.412 54.6994 21.412V22.38H54.4464C54.1238 22.38 53.8268 22.4387 53.5554 22.556C53.2841 22.666 53.0678 22.8567 52.9064 23.128C52.7451 23.3993 52.6644 23.7733 52.6644 24.25V27H51.7404ZM57.8265 27.132C57.1739 27.132 56.6312 26.967 56.1985 26.637C55.7659 26.307 55.5129 25.8597 55.4395 25.295H56.3855C56.4442 25.581 56.5945 25.8303 56.8365 26.043C57.0859 26.2483 57.4195 26.351 57.8375 26.351C58.2262 26.351 58.5122 26.2703 58.6955 26.109C58.8789 25.9403 58.9705 25.7423 58.9705 25.515C58.9705 25.185 58.8495 24.965 58.6075 24.855C58.3729 24.745 58.0392 24.646 57.6065 24.558C57.3132 24.4993 57.0199 24.415 56.7265 24.305C56.4332 24.195 56.1875 24.041 55.9895 23.843C55.7915 23.6377 55.6925 23.37 55.6925 23.04C55.6925 22.5633 55.8685 22.1747 56.2205 21.874C56.5799 21.566 57.0639 21.412 57.6725 21.412C58.2519 21.412 58.7249 21.5587 59.0915 21.852C59.4655 22.138 59.6819 22.5487 59.7405 23.084H58.8275C58.7909 22.8053 58.6699 22.589 58.4645 22.435C58.2665 22.2737 57.9989 22.193 57.6615 22.193C57.3315 22.193 57.0749 22.2627 56.8915 22.402C56.7155 22.5413 56.6275 22.7247 56.6275 22.952C56.6275 23.172 56.7412 23.3443 56.9685 23.469C57.2032 23.5937 57.5185 23.7 57.9145 23.788C58.2519 23.8613 58.5709 23.953 58.8715 24.063C59.1795 24.1657 59.4289 24.3233 59.6195 24.536C59.8175 24.7413 59.9165 25.042 59.9165 25.438C59.9239 25.9293 59.7369 26.3363 59.3555 26.659C58.9815 26.9743 58.4719 27.132 57.8265 27.132ZM66.6557 27.132C66.135 27.132 65.6657 27.0147 65.2477 26.78C64.837 26.538 64.5107 26.2043 64.2687 25.779C64.034 25.3463 63.9167 24.844 63.9167 24.272C63.9167 23.7 64.034 23.2013 64.2687 22.776C64.5107 22.3433 64.837 22.0097 65.2477 21.775C65.6657 21.533 66.135 21.412 66.6557 21.412C67.301 21.412 67.8437 21.5807 68.2837 21.918C68.731 22.2553 69.0133 22.7063 69.1307 23.271H68.1847C68.1113 22.9337 67.9317 22.6733 67.6457 22.49C67.3597 22.2993 67.026 22.204 66.6447 22.204C66.3367 22.204 66.047 22.281 65.7757 22.435C65.5043 22.589 65.2843 22.82 65.1157 23.128C64.947 23.436 64.8627 23.8173 64.8627 24.272C64.8627 24.7267 64.947 25.108 65.1157 25.416C65.2843 25.724 65.5043 25.9587 65.7757 26.12C66.047 26.274 66.3367 26.351 66.6447 26.351C67.026 26.351 67.3597 26.2593 67.6457 26.076C67.9317 25.8853 68.1113 25.6177 68.1847 25.273H69.1307C69.0207 25.823 68.742 26.2703 68.2947 26.615C67.8473 26.9597 67.301 27.132 66.6557 27.132ZM72.2361 27.132C71.7814 27.132 71.4038 27.055 71.1031 26.901C70.8024 26.747 70.5788 26.5417 70.4321 26.285C70.2854 26.0283 70.2121 25.7497 70.2121 25.449C70.2121 24.8917 70.4248 24.4627 70.8501 24.162C71.2754 23.8613 71.8548 23.711 72.5881 23.711H74.0621V23.645C74.0621 23.1683 73.9374 22.809 73.6881 22.567C73.4388 22.3177 73.1051 22.193 72.6871 22.193C72.3278 22.193 72.0161 22.2847 71.7521 22.468C71.4954 22.644 71.3341 22.9043 71.2681 23.249H70.3221C70.3588 22.853 70.4908 22.5193 70.7181 22.248C70.9528 21.9767 71.2424 21.7713 71.5871 21.632C71.9318 21.4853 72.2984 21.412 72.6871 21.412C73.4498 21.412 74.0218 21.6173 74.4031 22.028C74.7918 22.4313 74.9861 22.9703 74.9861 23.645V27H74.1611L74.1061 26.021C73.9521 26.329 73.7248 26.593 73.4241 26.813C73.1308 27.0257 72.7348 27.132 72.2361 27.132ZM72.3791 26.351C72.7311 26.351 73.0318 26.2593 73.2811 26.076C73.5378 25.8927 73.7321 25.6543 73.8641 25.361C73.9961 25.0677 74.0621 24.7597 74.0621 24.437V24.426H72.6651C72.1224 24.426 71.7374 24.5213 71.5101 24.712C71.2901 24.8953 71.1801 25.1263 71.1801 25.405C71.1801 25.691 71.2828 25.922 71.4881 26.098C71.7008 26.2667 71.9978 26.351 72.3791 26.351ZM76.3723 27V21.544H77.2083L77.2633 22.523C77.4393 22.1783 77.6923 21.907 78.0223 21.709C78.3523 21.511 78.7263 21.412 79.1443 21.412C79.7896 21.412 80.3029 21.61 80.6843 22.006C81.0729 22.3947 81.2673 22.996 81.2673 23.81V27H80.3433V23.909C80.3433 22.7723 79.8739 22.204 78.9353 22.204C78.4659 22.204 78.0736 22.3763 77.7583 22.721C77.4503 23.0583 77.2963 23.5423 77.2963 24.173V27H76.3723ZM85.8753 27V22.325H85.0503V21.544H85.8753V20.598C85.8753 20.07 86.0073 19.685 86.2713 19.443C86.5353 19.201 86.9203 19.08 87.4263 19.08H87.9763V19.872H87.5693C87.2907 19.872 87.0927 19.9307 86.9753 20.048C86.858 20.158 86.7993 20.3487 86.7993 20.62V21.544H88.1413V22.325H86.7993V27H85.8753ZM91.4796 27.132C90.9589 27.132 90.4969 27.0147 90.0936 26.78C89.6902 26.538 89.3712 26.2043 89.1366 25.779C88.9092 25.3537 88.7956 24.8513 88.7956 24.272C88.7956 23.7 88.9092 23.2013 89.1366 22.776C89.3639 22.3433 89.6792 22.0097 90.0826 21.775C90.4932 21.533 90.9662 21.412 91.5016 21.412C92.0296 21.412 92.4842 21.533 92.8656 21.775C93.2542 22.0097 93.5512 22.3213 93.7566 22.71C93.9619 23.0987 94.0646 23.5167 94.0646 23.964C94.0646 24.0447 94.0609 24.1253 94.0536 24.206C94.0536 24.2867 94.0536 24.3783 94.0536 24.481H89.7086C89.7306 24.899 89.8259 25.2473 89.9946 25.526C90.1706 25.7973 90.3869 26.0027 90.6436 26.142C90.9076 26.2813 91.1862 26.351 91.4796 26.351C91.8609 26.351 92.1799 26.263 92.4366 26.087C92.6932 25.911 92.8802 25.6727 92.9976 25.372H93.9106C93.7639 25.878 93.4816 26.2997 93.0636 26.637C92.6529 26.967 92.1249 27.132 91.4796 27.132ZM91.4796 22.193C91.0396 22.193 90.6472 22.3287 90.3026 22.6C89.9652 22.864 89.7709 23.2527 89.7196 23.766H93.1516C93.1296 23.2747 92.9609 22.8897 92.6456 22.611C92.3302 22.3323 91.9416 22.193 91.4796 22.193ZM97.7423 27.132C97.2216 27.132 96.7596 27.0147 96.3563 26.78C95.9529 26.538 95.6339 26.2043 95.3993 25.779C95.1719 25.3537 95.0583 24.8513 95.0583 24.272C95.0583 23.7 95.1719 23.2013 95.3993 22.776C95.6266 22.3433 95.9419 22.0097 96.3453 21.775C96.7559 21.533 97.2289 21.412 97.7643 21.412C98.2923 21.412 98.7469 21.533 99.1283 21.775C99.5169 22.0097 99.8139 22.3213 100.019 22.71C100.225 23.0987 100.327 23.5167 100.327 23.964C100.327 24.0447 100.324 24.1253 100.316 24.206C100.316 24.2867 100.316 24.3783 100.316 24.481H95.9713C95.9933 24.899 96.0886 25.2473 96.2573 25.526C96.4333 25.7973 96.6496 26.0027 96.9063 26.142C97.1703 26.2813 97.4489 26.351 97.7423 26.351C98.1236 26.351 98.4426 26.263 98.6993 26.087C98.9559 25.911 99.1429 25.6727 99.2603 25.372H100.173C100.027 25.878 99.7443 26.2997 99.3263 26.637C98.9156 26.967 98.3876 27.132 97.7423 27.132ZM97.7423 22.193C97.3023 22.193 96.9099 22.3287 96.5653 22.6C96.2279 22.864 96.0336 23.2527 95.9823 23.766H99.4143C99.3923 23.2747 99.2236 22.8897 98.9083 22.611C98.5929 22.3323 98.2043 22.193 97.7423 22.193ZM101.552 27V19.08H102.476V27H101.552ZM106.902 27V21.544H107.738L107.804 22.336C107.98 22.0427 108.214 21.8153 108.508 21.654C108.801 21.4927 109.131 21.412 109.498 21.412C109.93 21.412 110.301 21.5 110.609 21.676C110.924 21.852 111.166 22.1197 111.335 22.479C111.525 22.149 111.786 21.8887 112.116 21.698C112.453 21.5073 112.816 21.412 113.205 21.412C113.857 21.412 114.378 21.61 114.767 22.006C115.155 22.3947 115.35 22.996 115.35 23.81V27H114.437V23.909C114.437 23.3443 114.323 22.919 114.096 22.633C113.868 22.347 113.542 22.204 113.117 22.204C112.677 22.204 112.31 22.3763 112.017 22.721C111.731 23.0583 111.588 23.5423 111.588 24.173V27H110.664V23.909C110.664 23.3443 110.55 22.919 110.323 22.633C110.095 22.347 109.769 22.204 109.344 22.204C108.911 22.204 108.548 22.3763 108.255 22.721C107.969 23.0583 107.826 23.5423 107.826 24.173V27H106.902ZM119.227 27.132C118.714 27.132 118.252 27.0147 117.841 26.78C117.431 26.5453 117.104 26.2153 116.862 25.79C116.628 25.3573 116.51 24.8513 116.51 24.272C116.51 23.6927 116.631 23.1903 116.873 22.765C117.115 22.3323 117.442 21.9987 117.852 21.764C118.27 21.5293 118.736 21.412 119.249 21.412C119.763 21.412 120.225 21.5293 120.635 21.764C121.046 21.9987 121.369 22.3323 121.603 22.765C121.845 23.1903 121.966 23.6927 121.966 24.272C121.966 24.8513 121.845 25.3573 121.603 25.79C121.361 26.2153 121.031 26.5453 120.613 26.78C120.203 27.0147 119.741 27.132 119.227 27.132ZM119.227 26.34C119.543 26.34 119.836 26.263 120.107 26.109C120.379 25.955 120.599 25.724 120.767 25.416C120.936 25.108 121.02 24.7267 121.02 24.272C121.02 23.8173 120.936 23.436 120.767 23.128C120.606 22.82 120.39 22.589 120.118 22.435C119.847 22.281 119.557 22.204 119.249 22.204C118.934 22.204 118.641 22.281 118.369 22.435C118.098 22.589 117.878 22.82 117.709 23.128C117.541 23.436 117.456 23.8173 117.456 24.272C117.456 24.7267 117.541 25.108 117.709 25.416C117.878 25.724 118.094 25.955 118.358 26.109C118.63 26.263 118.919 26.34 119.227 26.34ZM123.251 27V21.544H124.087L124.164 22.589C124.333 22.2297 124.59 21.9437 124.934 21.731C125.279 21.5183 125.704 21.412 126.21 21.412V22.38H125.957C125.635 22.38 125.338 22.4387 125.066 22.556C124.795 22.666 124.579 22.8567 124.417 23.128C124.256 23.3993 124.175 23.7733 124.175 24.25V27H123.251ZM129.496 27.132C128.976 27.132 128.514 27.0147 128.11 26.78C127.707 26.538 127.388 26.2043 127.153 25.779C126.926 25.3537 126.812 24.8513 126.812 24.272C126.812 23.7 126.926 23.2013 127.153 22.776C127.381 22.3433 127.696 22.0097 128.099 21.775C128.51 21.533 128.983 21.412 129.518 21.412C130.046 21.412 130.501 21.533 130.882 21.775C131.271 22.0097 131.568 22.3213 131.773 22.71C131.979 23.0987 132.081 23.5167 132.081 23.964C132.081 24.0447 132.078 24.1253 132.07 24.206C132.07 24.2867 132.07 24.3783 132.07 24.481H127.725C127.747 24.899 127.843 25.2473 128.011 25.526C128.187 25.7973 128.404 26.0027 128.66 26.142C128.924 26.2813 129.203 26.351 129.496 26.351C129.878 26.351 130.197 26.263 130.453 26.087C130.71 25.911 130.897 25.6727 131.014 25.372H131.927C131.781 25.878 131.498 26.2997 131.08 26.637C130.67 26.967 130.142 27.132 129.496 27.132ZM129.496 22.193C129.056 22.193 128.664 22.3287 128.319 22.6C127.982 22.864 127.788 23.2527 127.736 23.766H131.168C131.146 23.2747 130.978 22.8897 130.662 22.611C130.347 22.3323 129.958 22.193 129.496 22.193ZM138.725 27.132C138.204 27.132 137.735 27.0147 137.317 26.78C136.906 26.538 136.58 26.2043 136.338 25.779C136.103 25.3463 135.986 24.844 135.986 24.272C135.986 23.7 136.103 23.2013 136.338 22.776C136.58 22.3433 136.906 22.0097 137.317 21.775C137.735 21.533 138.204 21.412 138.725 21.412C139.37 21.412 139.913 21.5807 140.353 21.918C140.8 22.2553 141.083 22.7063 141.2 23.271H140.254C140.181 22.9337 140.001 22.6733 139.715 22.49C139.429 22.2993 139.095 22.204 138.714 22.204C138.406 22.204 138.116 22.281 137.845 22.435C137.574 22.589 137.354 22.82 137.185 23.128C137.016 23.436 136.932 23.8173 136.932 24.272C136.932 24.7267 137.016 25.108 137.185 25.416C137.354 25.724 137.574 25.9587 137.845 26.12C138.116 26.274 138.406 26.351 138.714 26.351C139.095 26.351 139.429 26.2593 139.715 26.076C140.001 25.8853 140.181 25.6177 140.254 25.273H141.2C141.09 25.823 140.811 26.2703 140.364 26.615C139.917 26.9597 139.37 27.132 138.725 27.132ZM144.976 27.132C144.463 27.132 144.001 27.0147 143.59 26.78C143.18 26.5453 142.853 26.2153 142.611 25.79C142.377 25.3573 142.259 24.8513 142.259 24.272C142.259 23.6927 142.38 23.1903 142.622 22.765C142.864 22.3323 143.191 21.9987 143.601 21.764C144.019 21.5293 144.485 21.412 144.998 21.412C145.512 21.412 145.974 21.5293 146.384 21.764C146.795 21.9987 147.118 22.3323 147.352 22.765C147.594 23.1903 147.715 23.6927 147.715 24.272C147.715 24.8513 147.594 25.3573 147.352 25.79C147.11 26.2153 146.78 26.5453 146.362 26.78C145.952 27.0147 145.49 27.132 144.976 27.132ZM144.976 26.34C145.292 26.34 145.585 26.263 145.856 26.109C146.128 25.955 146.348 25.724 146.516 25.416C146.685 25.108 146.769 24.7267 146.769 24.272C146.769 23.8173 146.685 23.436 146.516 23.128C146.355 22.82 146.139 22.589 145.867 22.435C145.596 22.281 145.306 22.204 144.998 22.204C144.683 22.204 144.39 22.281 144.118 22.435C143.847 22.589 143.627 22.82 143.458 23.128C143.29 23.436 143.205 23.8173 143.205 24.272C143.205 24.7267 143.29 25.108 143.458 25.416C143.627 25.724 143.843 25.955 144.107 26.109C144.379 26.263 144.668 26.34 144.976 26.34ZM149 27V21.544H149.836L149.891 22.523C150.067 22.1783 150.32 21.907 150.65 21.709C150.98 21.511 151.354 21.412 151.772 21.412C152.418 21.412 152.931 21.61 153.312 22.006C153.701 22.3947 153.895 22.996 153.895 23.81V27H152.971V23.909C152.971 22.7723 152.502 22.204 151.563 22.204C151.094 22.204 150.702 22.3763 150.386 22.721C150.078 23.0583 149.924 23.5423 149.924 24.173V27H149ZM155.295 27V21.544H156.131L156.186 22.523C156.362 22.1783 156.615 21.907 156.945 21.709C157.275 21.511 157.649 21.412 158.067 21.412C158.712 21.412 159.226 21.61 159.607 22.006C159.996 22.3947 160.19 22.996 160.19 23.81V27H159.266V23.909C159.266 22.7723 158.797 22.204 157.858 22.204C157.389 22.204 156.996 22.3763 156.681 22.721C156.373 23.0583 156.219 23.5423 156.219 24.173V27H155.295ZM164.043 27.132C163.522 27.132 163.06 27.0147 162.657 26.78C162.254 26.538 161.935 26.2043 161.7 25.779C161.473 25.3537 161.359 24.8513 161.359 24.272C161.359 23.7 161.473 23.2013 161.7 22.776C161.927 22.3433 162.243 22.0097 162.646 21.775C163.057 21.533 163.53 21.412 164.065 21.412C164.593 21.412 165.048 21.533 165.429 21.775C165.818 22.0097 166.115 22.3213 166.32 22.71C166.525 23.0987 166.628 23.5167 166.628 23.964C166.628 24.0447 166.624 24.1253 166.617 24.206C166.617 24.2867 166.617 24.3783 166.617 24.481H162.272C162.294 24.899 162.389 25.2473 162.558 25.526C162.734 25.7973 162.95 26.0027 163.207 26.142C163.471 26.2813 163.75 26.351 164.043 26.351C164.424 26.351 164.743 26.263 165 26.087C165.257 25.911 165.444 25.6727 165.561 25.372H166.474C166.327 25.878 166.045 26.2997 165.627 26.637C165.216 26.967 164.688 27.132 164.043 27.132ZM164.043 22.193C163.603 22.193 163.211 22.3287 162.866 22.6C162.529 22.864 162.334 23.2527 162.283 23.766H165.715C165.693 23.2747 165.524 22.8897 165.209 22.611C164.894 22.3323 164.505 22.193 164.043 22.193ZM170.361 27.132C169.84 27.132 169.371 27.0147 168.953 26.78C168.542 26.538 168.216 26.2043 167.974 25.779C167.739 25.3463 167.622 24.844 167.622 24.272C167.622 23.7 167.739 23.2013 167.974 22.776C168.216 22.3433 168.542 22.0097 168.953 21.775C169.371 21.533 169.84 21.412 170.361 21.412C171.006 21.412 171.549 21.5807 171.989 21.918C172.436 22.2553 172.718 22.7063 172.836 23.271H171.89C171.816 22.9337 171.637 22.6733 171.351 22.49C171.065 22.2993 170.731 22.204 170.35 22.204C170.042 22.204 169.752 22.281 169.481 22.435C169.209 22.589 168.989 22.82 168.821 23.128C168.652 23.436 168.568 23.8173 168.568 24.272C168.568 24.7267 168.652 25.108 168.821 25.416C168.989 25.724 169.209 25.9587 169.481 26.12C169.752 26.274 170.042 26.351 170.35 26.351C170.731 26.351 171.065 26.2593 171.351 26.076C171.637 25.8853 171.816 25.6177 171.89 25.273H172.836C172.726 25.823 172.447 26.2703 172 26.615C171.552 26.9597 171.006 27.132 170.361 27.132ZM176.132 27C175.633 27 175.241 26.879 174.955 26.637C174.669 26.395 174.526 25.9587 174.526 25.328V22.325H173.58V21.544H174.526L174.647 20.235H175.45V21.544H177.056V22.325H175.45V25.328C175.45 25.6727 175.519 25.9073 175.659 26.032C175.798 26.1493 176.044 26.208 176.396 26.208H176.968V27H176.132ZM180.532 27.132C180.012 27.132 179.55 27.0147 179.146 26.78C178.743 26.538 178.424 26.2043 178.189 25.779C177.962 25.3537 177.848 24.8513 177.848 24.272C177.848 23.7 177.962 23.2013 178.189 22.776C178.417 22.3433 178.732 22.0097 179.135 21.775C179.546 21.533 180.019 21.412 180.554 21.412C181.082 21.412 181.537 21.533 181.918 21.775C182.307 22.0097 182.604 22.3213 182.809 22.71C183.015 23.0987 183.117 23.5167 183.117 23.964C183.117 24.0447 183.114 24.1253 183.106 24.206C183.106 24.2867 183.106 24.3783 183.106 24.481H178.761C178.783 24.899 178.879 25.2473 179.047 25.526C179.223 25.7973 179.44 26.0027 179.696 26.142C179.96 26.2813 180.239 26.351 180.532 26.351C180.914 26.351 181.233 26.263 181.489 26.087C181.746 25.911 181.933 25.6727 182.05 25.372H182.963C182.817 25.878 182.534 26.2997 182.116 26.637C181.706 26.967 181.178 27.132 180.532 27.132ZM180.532 22.193C180.092 22.193 179.7 22.3287 179.355 22.6C179.018 22.864 178.824 23.2527 178.772 23.766H182.204C182.182 23.2747 182.014 22.8897 181.698 22.611C181.383 22.3323 180.994 22.193 180.532 22.193ZM186.817 27.132C186.274 27.132 185.798 27.0073 185.387 26.758C184.984 26.5087 184.668 26.1677 184.441 25.735C184.221 25.3023 184.111 24.811 184.111 24.261C184.111 23.711 184.225 23.2233 184.452 22.798C184.679 22.3653 184.995 22.028 185.398 21.786C185.801 21.5367 186.278 21.412 186.828 21.412C187.275 21.412 187.671 21.5037 188.016 21.687C188.361 21.8703 188.628 22.127 188.819 22.457V19.08H189.743V27H188.907L188.819 26.098C188.643 26.362 188.39 26.6003 188.06 26.813C187.73 27.0257 187.316 27.132 186.817 27.132ZM186.916 26.329C187.283 26.329 187.605 26.2447 187.884 26.076C188.17 25.9 188.39 25.658 188.544 25.35C188.705 25.042 188.786 24.6827 188.786 24.272C188.786 23.8613 188.705 23.502 188.544 23.194C188.39 22.886 188.17 22.6477 187.884 22.479C187.605 22.303 187.283 22.215 186.916 22.215C186.557 22.215 186.234 22.303 185.948 22.479C185.669 22.6477 185.449 22.886 185.288 23.194C185.134 23.502 185.057 23.8613 185.057 24.272C185.057 24.6827 185.134 25.042 185.288 25.35C185.449 25.658 185.669 25.9 185.948 26.076C186.234 26.2447 186.557 26.329 186.916 26.329ZM34.574 41.132C34.1193 41.132 33.7417 41.055 33.441 40.901C33.1403 40.747 32.9167 40.5417 32.77 40.285C32.6233 40.0283 32.55 39.7497 32.55 39.449C32.55 38.8917 32.7627 38.4627 33.188 38.162C33.6133 37.8613 34.1927 37.711 34.926 37.711H36.4V37.645C36.4 37.1683 36.2753 36.809 36.026 36.567C35.7767 36.3177 35.443 36.193 35.025 36.193C34.6657 36.193 34.354 36.2847 34.09 36.468C33.8333 36.644 33.672 36.9043 33.606 37.249H32.66C32.6967 36.853 32.8287 36.5193 33.056 36.248C33.2907 35.9767 33.5803 35.7713 33.925 35.632C34.2697 35.4853 34.6363 35.412 35.025 35.412C35.7877 35.412 36.3597 35.6173 36.741 36.028C37.1297 36.4313 37.324 36.9703 37.324 37.645V41H36.499L36.444 40.021C36.29 40.329 36.0627 40.593 35.762 40.813C35.4687 41.0257 35.0727 41.132 34.574 41.132ZM34.717 40.351C35.069 40.351 35.3697 40.2593 35.619 40.076C35.8757 39.8927 36.07 39.6543 36.202 39.361C36.334 39.0677 36.4 38.7597 36.4 38.437V38.426H35.003C34.4603 38.426 34.0753 38.5213 33.848 38.712C33.628 38.8953 33.518 39.1263 33.518 39.405C33.518 39.691 33.6207 39.922 33.826 40.098C34.0387 40.2667 34.3357 40.351 34.717 40.351ZM38.7102 41V35.544H39.5462L39.6012 36.523C39.7772 36.1783 40.0302 35.907 40.3602 35.709C40.6902 35.511 41.0642 35.412 41.4822 35.412C42.1275 35.412 42.6408 35.61 43.0222 36.006C43.4108 36.3947 43.6052 36.996 43.6052 37.81V41H42.6812V37.909C42.6812 36.7723 42.2118 36.204 41.2732 36.204C40.8038 36.204 40.4115 36.3763 40.0962 36.721C39.7882 37.0583 39.6342 37.5423 39.6342 38.173V41H38.7102ZM47.4801 41.132C46.9374 41.132 46.4608 41.0073 46.0501 40.758C45.6468 40.5087 45.3314 40.1677 45.1041 39.735C44.8841 39.3023 44.7741 38.811 44.7741 38.261C44.7741 37.711 44.8878 37.2233 45.1151 36.798C45.3424 36.3653 45.6578 36.028 46.0611 35.786C46.4644 35.5367 46.9411 35.412 47.4911 35.412C47.9384 35.412 48.3344 35.5037 48.6791 35.687C49.0238 35.8703 49.2914 36.127 49.4821 36.457V33.08H50.4061V41H49.5701L49.4821 40.098C49.3061 40.362 49.0531 40.6003 48.7231 40.813C48.3931 41.0257 47.9788 41.132 47.4801 41.132ZM47.5791 40.329C47.9458 40.329 48.2684 40.2447 48.5471 40.076C48.8331 39.9 49.0531 39.658 49.2071 39.35C49.3684 39.042 49.4491 38.6827 49.4491 38.272C49.4491 37.8613 49.3684 37.502 49.2071 37.194C49.0531 36.886 48.8331 36.6477 48.5471 36.479C48.2684 36.303 47.9458 36.215 47.5791 36.215C47.2198 36.215 46.8971 36.303 46.6111 36.479C46.3324 36.6477 46.1124 36.886 45.9511 37.194C45.7971 37.502 45.7201 37.8613 45.7201 38.272C45.7201 38.6827 45.7971 39.042 45.9511 39.35C46.1124 39.658 46.3324 39.9 46.6111 40.076C46.8971 40.2447 47.2198 40.329 47.5791 40.329ZM57.2985 41.132C56.7558 41.132 56.2791 41.0073 55.8685 40.758C55.4651 40.5087 55.1498 40.1677 54.9225 39.735C54.7025 39.3023 54.5925 38.811 54.5925 38.261C54.5925 37.711 54.7061 37.2233 54.9335 36.798C55.1608 36.3653 55.4761 36.028 55.8795 35.786C56.2828 35.5367 56.7595 35.412 57.3095 35.412C57.7568 35.412 58.1528 35.5037 58.4975 35.687C58.8421 35.8703 59.1098 36.127 59.3005 36.457V33.08H60.2245V41H59.3885L59.3005 40.098C59.1245 40.362 58.8715 40.6003 58.5415 40.813C58.2115 41.0257 57.7971 41.132 57.2985 41.132ZM57.3975 40.329C57.7641 40.329 58.0868 40.2447 58.3655 40.076C58.6515 39.9 58.8715 39.658 59.0255 39.35C59.1868 39.042 59.2675 38.6827 59.2675 38.272C59.2675 37.8613 59.1868 37.502 59.0255 37.194C58.8715 36.886 58.6515 36.6477 58.3655 36.479C58.0868 36.303 57.7641 36.215 57.3975 36.215C57.0381 36.215 56.7155 36.303 56.4295 36.479C56.1508 36.6477 55.9308 36.886 55.7695 37.194C55.6155 37.502 55.5385 37.8613 55.5385 38.272C55.5385 38.6827 55.6155 39.042 55.7695 39.35C55.9308 39.658 56.1508 39.9 56.4295 40.076C56.7155 40.2447 57.0381 40.329 57.3975 40.329ZM64.1837 41.132C63.663 41.132 63.201 41.0147 62.7977 40.78C62.3943 40.538 62.0753 40.2043 61.8407 39.779C61.6133 39.3537 61.4997 38.8513 61.4997 38.272C61.4997 37.7 61.6133 37.2013 61.8407 36.776C62.068 36.3433 62.3833 36.0097 62.7867 35.775C63.1973 35.533 63.6703 35.412 64.2057 35.412C64.7337 35.412 65.1883 35.533 65.5697 35.775C65.9583 36.0097 66.2553 36.3213 66.4607 36.71C66.666 37.0987 66.7687 37.5167 66.7687 37.964C66.7687 38.0447 66.765 38.1253 66.7577 38.206C66.7577 38.2867 66.7577 38.3783 66.7577 38.481H62.4127C62.4347 38.899 62.53 39.2473 62.6987 39.526C62.8747 39.7973 63.091 40.0027 63.3477 40.142C63.6117 40.2813 63.8903 40.351 64.1837 40.351C64.565 40.351 64.884 40.263 65.1407 40.087C65.3973 39.911 65.5843 39.6727 65.7017 39.372H66.6147C66.468 39.878 66.1857 40.2997 65.7677 40.637C65.357 40.967 64.829 41.132 64.1837 41.132ZM64.1837 36.193C63.7437 36.193 63.3513 36.3287 63.0067 36.6C62.6693 36.864 62.475 37.2527 62.4237 37.766H65.8557C65.8337 37.2747 65.665 36.8897 65.3497 36.611C65.0343 36.3323 64.6457 36.193 64.1837 36.193ZM69.3515 41L67.2835 35.544H68.2515L69.8905 40.109L71.5405 35.544H72.4865L70.4185 41H69.3515ZM75.6886 41.132C75.1679 41.132 74.7059 41.0147 74.3026 40.78C73.8992 40.538 73.5802 40.2043 73.3456 39.779C73.1182 39.3537 73.0046 38.8513 73.0046 38.272C73.0046 37.7 73.1182 37.2013 73.3456 36.776C73.5729 36.3433 73.8882 36.0097 74.2916 35.775C74.7022 35.533 75.1752 35.412 75.7106 35.412C76.2386 35.412 76.6932 35.533 77.0746 35.775C77.4632 36.0097 77.7602 36.3213 77.9656 36.71C78.1709 37.0987 78.2736 37.5167 78.2736 37.964C78.2736 38.0447 78.2699 38.1253 78.2626 38.206C78.2626 38.2867 78.2626 38.3783 78.2626 38.481H73.9176C73.9396 38.899 74.0349 39.2473 74.2036 39.526C74.3796 39.7973 74.5959 40.0027 74.8526 40.142C75.1166 40.2813 75.3952 40.351 75.6886 40.351C76.0699 40.351 76.3889 40.263 76.6456 40.087C76.9022 39.911 77.0892 39.6727 77.2066 39.372H78.1196C77.9729 39.878 77.6906 40.2997 77.2726 40.637C76.8619 40.967 76.3339 41.132 75.6886 41.132ZM75.6886 36.193C75.2486 36.193 74.8562 36.3287 74.5116 36.6C74.1742 36.864 73.9799 37.2527 73.9286 37.766H77.3606C77.3386 37.2747 77.1699 36.8897 76.8546 36.611C76.5392 36.3323 76.1506 36.193 75.6886 36.193ZM79.4983 41V33.08H80.4223V41H79.4983ZM84.4227 41.132C83.9094 41.132 83.4474 41.0147 83.0367 40.78C82.6261 40.5453 82.2997 40.2153 82.0577 39.79C81.8231 39.3573 81.7057 38.8513 81.7057 38.272C81.7057 37.6927 81.8267 37.1903 82.0687 36.765C82.3107 36.3323 82.6371 35.9987 83.0477 35.764C83.4657 35.5293 83.9314 35.412 84.4447 35.412C84.9581 35.412 85.4201 35.5293 85.8307 35.764C86.2414 35.9987 86.5641 36.3323 86.7987 36.765C87.0407 37.1903 87.1617 37.6927 87.1617 38.272C87.1617 38.8513 87.0407 39.3573 86.7987 39.79C86.5567 40.2153 86.2267 40.5453 85.8087 40.78C85.3981 41.0147 84.9361 41.132 84.4227 41.132ZM84.4227 40.34C84.7381 40.34 85.0314 40.263 85.3027 40.109C85.5741 39.955 85.7941 39.724 85.9627 39.416C86.1314 39.108 86.2157 38.7267 86.2157 38.272C86.2157 37.8173 86.1314 37.436 85.9627 37.128C85.8014 36.82 85.5851 36.589 85.3137 36.435C85.0424 36.281 84.7527 36.204 84.4447 36.204C84.1294 36.204 83.8361 36.281 83.5647 36.435C83.2934 36.589 83.0734 36.82 82.9047 37.128C82.7361 37.436 82.6517 37.8173 82.6517 38.272C82.6517 38.7267 82.7361 39.108 82.9047 39.416C83.0734 39.724 83.2897 39.955 83.5537 40.109C83.8251 40.263 84.1147 40.34 84.4227 40.34ZM88.4465 43.42V35.544H89.2825L89.3705 36.446C89.5465 36.182 89.7958 35.9437 90.1185 35.731C90.4485 35.5183 90.8665 35.412 91.3725 35.412C91.9152 35.412 92.3882 35.5367 92.7915 35.786C93.1948 36.0353 93.5065 36.3763 93.7265 36.809C93.9538 37.2417 94.0675 37.733 94.0675 38.283C94.0675 38.833 93.9538 39.3243 93.7265 39.757C93.5065 40.1823 93.1912 40.5197 92.7805 40.769C92.3772 41.011 91.9042 41.132 91.3615 41.132C90.9142 41.132 90.5145 41.0403 90.1625 40.857C89.8178 40.6737 89.5538 40.417 89.3705 40.087V43.42H88.4465ZM91.2625 40.329C91.6292 40.329 91.9518 40.2447 92.2305 40.076C92.5092 39.9 92.7292 39.658 92.8905 39.35C93.0518 39.042 93.1325 38.6827 93.1325 38.272C93.1325 37.8613 93.0518 37.502 92.8905 37.194C92.7292 36.886 92.5092 36.6477 92.2305 36.479C91.9518 36.303 91.6292 36.215 91.2625 36.215C90.8958 36.215 90.5732 36.303 90.2945 36.479C90.0158 36.6477 89.7958 36.886 89.6345 37.194C89.4732 37.502 89.3925 37.8613 89.3925 38.272C89.3925 38.6827 89.4732 39.042 89.6345 39.35C89.7958 39.658 90.0158 39.9 90.2945 40.076C90.5732 40.2447 90.8958 40.329 91.2625 40.329ZM98.8259 34.334C98.6425 34.334 98.4885 34.2753 98.3639 34.158C98.2465 34.0333 98.1879 33.8793 98.1879 33.696C98.1879 33.52 98.2465 33.3733 98.3639 33.256C98.4885 33.1387 98.6425 33.08 98.8259 33.08C99.0019 33.08 99.1522 33.1387 99.2769 33.256C99.4015 33.3733 99.4639 33.52 99.4639 33.696C99.4639 33.8793 99.4015 34.0333 99.2769 34.158C99.1522 34.2753 99.0019 34.334 98.8259 34.334ZM98.3639 41V35.544H99.2879V41H98.3639ZM100.897 41V35.544H101.733L101.788 36.523C101.964 36.1783 102.217 35.907 102.547 35.709C102.877 35.511 103.251 35.412 103.669 35.412C104.314 35.412 104.827 35.61 105.209 36.006C105.597 36.3947 105.792 36.996 105.792 37.81V41H104.868V37.909C104.868 36.7723 104.398 36.204 103.46 36.204C102.99 36.204 102.598 36.3763 102.283 36.721C101.975 37.0583 101.821 37.5423 101.821 38.173V41H100.897ZM109.7 41.132C109.179 41.132 108.71 41.0147 108.292 40.78C107.881 40.538 107.555 40.2043 107.313 39.779C107.078 39.3463 106.961 38.844 106.961 38.272C106.961 37.7 107.078 37.2013 107.313 36.776C107.555 36.3433 107.881 36.0097 108.292 35.775C108.71 35.533 109.179 35.412 109.7 35.412C110.345 35.412 110.888 35.5807 111.328 35.918C111.775 36.2553 112.057 36.7063 112.175 37.271H111.229C111.155 36.9337 110.976 36.6733 110.69 36.49C110.404 36.2993 110.07 36.204 109.689 36.204C109.381 36.204 109.091 36.281 108.82 36.435C108.548 36.589 108.328 36.82 108.16 37.128C107.991 37.436 107.907 37.8173 107.907 38.272C107.907 38.7267 107.991 39.108 108.16 39.416C108.328 39.724 108.548 39.9587 108.82 40.12C109.091 40.274 109.381 40.351 109.689 40.351C110.07 40.351 110.404 40.2593 110.69 40.076C110.976 39.8853 111.155 39.6177 111.229 39.273H112.175C112.065 39.823 111.786 40.2703 111.339 40.615C110.891 40.9597 110.345 41.132 109.7 41.132ZM113.465 41V35.544H114.301L114.378 36.589C114.547 36.2297 114.803 35.9437 115.148 35.731C115.493 35.5183 115.918 35.412 116.424 35.412V36.38H116.171C115.848 36.38 115.551 36.4387 115.28 36.556C115.009 36.666 114.792 36.8567 114.631 37.128C114.47 37.3993 114.389 37.7733 114.389 38.25V41H113.465ZM119.71 41.132C119.189 41.132 118.727 41.0147 118.324 40.78C117.921 40.538 117.602 40.2043 117.367 39.779C117.14 39.3537 117.026 38.8513 117.026 38.272C117.026 37.7 117.14 37.2013 117.367 36.776C117.594 36.3433 117.91 36.0097 118.313 35.775C118.724 35.533 119.197 35.412 119.732 35.412C120.26 35.412 120.715 35.533 121.096 35.775C121.485 36.0097 121.782 36.3213 121.987 36.71C122.192 37.0987 122.295 37.5167 122.295 37.964C122.295 38.0447 122.291 38.1253 122.284 38.206C122.284 38.2867 122.284 38.3783 122.284 38.481H117.939C117.961 38.899 118.056 39.2473 118.225 39.526C118.401 39.7973 118.617 40.0027 118.874 40.142C119.138 40.2813 119.417 40.351 119.71 40.351C120.091 40.351 120.41 40.263 120.667 40.087C120.924 39.911 121.111 39.6727 121.228 39.372H122.141C121.994 39.878 121.712 40.2997 121.294 40.637C120.883 40.967 120.355 41.132 119.71 41.132ZM119.71 36.193C119.27 36.193 118.878 36.3287 118.533 36.6C118.196 36.864 118.001 37.2527 117.95 37.766H121.382C121.36 37.2747 121.191 36.8897 120.876 36.611C120.561 36.3323 120.172 36.193 119.71 36.193ZM125.335 41.132C124.88 41.132 124.502 41.055 124.202 40.901C123.901 40.747 123.677 40.5417 123.531 40.285C123.384 40.0283 123.311 39.7497 123.311 39.449C123.311 38.8917 123.523 38.4627 123.949 38.162C124.374 37.8613 124.953 37.711 125.687 37.711H127.161V37.645C127.161 37.1683 127.036 36.809 126.787 36.567C126.537 36.3177 126.204 36.193 125.786 36.193C125.426 36.193 125.115 36.2847 124.851 36.468C124.594 36.644 124.433 36.9043 124.367 37.249H123.421C123.457 36.853 123.589 36.5193 123.817 36.248C124.051 35.9767 124.341 35.7713 124.686 35.632C125.03 35.4853 125.397 35.412 125.786 35.412C126.548 35.412 127.12 35.6173 127.502 36.028C127.89 36.4313 128.085 36.9703 128.085 37.645V41H127.26L127.205 40.021C127.051 40.329 126.823 40.593 126.523 40.813C126.229 41.0257 125.833 41.132 125.335 41.132ZM125.478 40.351C125.83 40.351 126.13 40.2593 126.38 40.076C126.636 39.8927 126.831 39.6543 126.963 39.361C127.095 39.0677 127.161 38.7597 127.161 38.437V38.426H125.764C125.221 38.426 124.836 38.5213 124.609 38.712C124.389 38.8953 124.279 39.1263 124.279 39.405C124.279 39.691 124.381 39.922 124.587 40.098C124.799 40.2667 125.096 40.351 125.478 40.351ZM131.561 41.132C130.908 41.132 130.366 40.967 129.933 40.637C129.5 40.307 129.247 39.8597 129.174 39.295H130.12C130.179 39.581 130.329 39.8303 130.571 40.043C130.82 40.2483 131.154 40.351 131.572 40.351C131.961 40.351 132.247 40.2703 132.43 40.109C132.613 39.9403 132.705 39.7423 132.705 39.515C132.705 39.185 132.584 38.965 132.342 38.855C132.107 38.745 131.774 38.646 131.341 38.558C131.048 38.4993 130.754 38.415 130.461 38.305C130.168 38.195 129.922 38.041 129.724 37.843C129.526 37.6377 129.427 37.37 129.427 37.04C129.427 36.5633 129.603 36.1747 129.955 35.874C130.314 35.566 130.798 35.412 131.407 35.412C131.986 35.412 132.459 35.5587 132.826 35.852C133.2 36.138 133.416 36.5487 133.475 37.084H132.562C132.525 36.8053 132.404 36.589 132.199 36.435C132.001 36.2737 131.733 36.193 131.396 36.193C131.066 36.193 130.809 36.2627 130.626 36.402C130.45 36.5413 130.362 36.7247 130.362 36.952C130.362 37.172 130.476 37.3443 130.703 37.469C130.938 37.5937 131.253 37.7 131.649 37.788C131.986 37.8613 132.305 37.953 132.606 38.063C132.914 38.1657 133.163 38.3233 133.354 38.536C133.552 38.7413 133.651 39.042 133.651 39.438C133.658 39.9293 133.471 40.3363 133.09 40.659C132.716 40.9743 132.206 41.132 131.561 41.132ZM137.424 41.132C136.903 41.132 136.441 41.0147 136.038 40.78C135.635 40.538 135.316 40.2043 135.081 39.779C134.854 39.3537 134.74 38.8513 134.74 38.272C134.74 37.7 134.854 37.2013 135.081 36.776C135.308 36.3433 135.624 36.0097 136.027 35.775C136.438 35.533 136.911 35.412 137.446 35.412C137.974 35.412 138.429 35.533 138.81 35.775C139.199 36.0097 139.496 36.3213 139.701 36.71C139.906 37.0987 140.009 37.5167 140.009 37.964C140.009 38.0447 140.005 38.1253 139.998 38.206C139.998 38.2867 139.998 38.3783 139.998 38.481H135.653C135.675 38.899 135.77 39.2473 135.939 39.526C136.115 39.7973 136.331 40.0027 136.588 40.142C136.852 40.2813 137.131 40.351 137.424 40.351C137.805 40.351 138.124 40.263 138.381 40.087C138.638 39.911 138.825 39.6727 138.942 39.372H139.855C139.708 39.878 139.426 40.2997 139.008 40.637C138.597 40.967 138.069 41.132 137.424 41.132ZM137.424 36.193C136.984 36.193 136.592 36.3287 136.247 36.6C135.91 36.864 135.715 37.2527 135.664 37.766H139.096C139.074 37.2747 138.905 36.8897 138.59 36.611C138.275 36.3323 137.886 36.193 137.424 36.193ZM143.709 41.132C143.166 41.132 142.689 41.0073 142.279 40.758C141.875 40.5087 141.56 40.1677 141.333 39.735C141.113 39.3023 141.003 38.811 141.003 38.261C141.003 37.711 141.116 37.2233 141.344 36.798C141.571 36.3653 141.886 36.028 142.29 35.786C142.693 35.5367 143.17 35.412 143.72 35.412C144.167 35.412 144.563 35.5037 144.908 35.687C145.252 35.8703 145.52 36.127 145.711 36.457V33.08H146.635V41H145.799L145.711 40.098C145.535 40.362 145.282 40.6003 144.952 40.813C144.622 41.0257 144.207 41.132 143.709 41.132ZM143.808 40.329C144.174 40.329 144.497 40.2447 144.776 40.076C145.062 39.9 145.282 39.658 145.436 39.35C145.597 39.042 145.678 38.6827 145.678 38.272C145.678 37.8613 145.597 37.502 145.436 37.194C145.282 36.886 145.062 36.6477 144.776 36.479C144.497 36.303 144.174 36.215 143.808 36.215C143.448 36.215 143.126 36.303 142.84 36.479C142.561 36.6477 142.341 36.886 142.18 37.194C142.026 37.502 141.949 37.8613 141.949 38.272C141.949 38.6827 142.026 39.042 142.18 39.35C142.341 39.658 142.561 39.9 142.84 40.076C143.126 40.2447 143.448 40.329 143.808 40.329ZM35.267 55.132C34.7463 55.132 34.277 55.0147 33.859 54.78C33.4483 54.538 33.122 54.2043 32.88 53.779C32.6453 53.3463 32.528 52.844 32.528 52.272C32.528 51.7 32.6453 51.2013 32.88 50.776C33.122 50.3433 33.4483 50.0097 33.859 49.775C34.277 49.533 34.7463 49.412 35.267 49.412C35.9123 49.412 36.455 49.5807 36.895 49.918C37.3423 50.2553 37.6247 50.7063 37.742 51.271H36.796C36.7227 50.9337 36.543 50.6733 36.257 50.49C35.971 50.2993 35.6373 50.204 35.256 50.204C34.948 50.204 34.6583 50.281 34.387 50.435C34.1157 50.589 33.8957 50.82 33.727 51.128C33.5583 51.436 33.474 51.8173 33.474 52.272C33.474 52.7267 33.5583 53.108 33.727 53.416C33.8957 53.724 34.1157 53.9587 34.387 54.12C34.6583 54.274 34.948 54.351 35.256 54.351C35.6373 54.351 35.971 54.2593 36.257 54.076C36.543 53.8853 36.7227 53.6177 36.796 53.273H37.742C37.632 53.823 37.3533 54.2703 36.906 54.615C36.4587 54.9597 35.9123 55.132 35.267 55.132ZM39.0324 55V49.544H39.8684L39.9454 50.589C40.1141 50.2297 40.3708 49.9437 40.7154 49.731C41.0601 49.5183 41.4854 49.412 41.9914 49.412V50.38H41.7384C41.4158 50.38 41.1188 50.4387 40.8474 50.556C40.5761 50.666 40.3598 50.8567 40.1984 51.128C40.0371 51.3993 39.9564 51.7733 39.9564 52.25V55H39.0324ZM45.2774 55.132C44.7568 55.132 44.2948 55.0147 43.8914 54.78C43.4881 54.538 43.1691 54.2043 42.9344 53.779C42.7071 53.3537 42.5934 52.8513 42.5934 52.272C42.5934 51.7 42.7071 51.2013 42.9344 50.776C43.1618 50.3433 43.4771 50.0097 43.8804 49.775C44.2911 49.533 44.7641 49.412 45.2994 49.412C45.8274 49.412 46.2821 49.533 46.6634 49.775C47.0521 50.0097 47.3491 50.3213 47.5544 50.71C47.7598 51.0987 47.8624 51.5167 47.8624 51.964C47.8624 52.0447 47.8588 52.1253 47.8514 52.206C47.8514 52.2867 47.8514 52.3783 47.8514 52.481H43.5064C43.5284 52.899 43.6238 53.2473 43.7924 53.526C43.9684 53.7973 44.1848 54.0027 44.4414 54.142C44.7054 54.2813 44.9841 54.351 45.2774 54.351C45.6588 54.351 45.9778 54.263 46.2344 54.087C46.4911 53.911 46.6781 53.6727 46.7954 53.372H47.7084C47.5618 53.878 47.2794 54.2997 46.8614 54.637C46.4508 54.967 45.9228 55.132 45.2774 55.132ZM45.2774 50.193C44.8374 50.193 44.4451 50.3287 44.1004 50.6C43.7631 50.864 43.5688 51.2527 43.5174 51.766H46.9494C46.9274 51.2747 46.7588 50.8897 46.4434 50.611C46.1281 50.3323 45.7394 50.193 45.2774 50.193ZM51.5621 55.132C51.0195 55.132 50.5428 55.0073 50.1321 54.758C49.7288 54.5087 49.4135 54.1677 49.1861 53.735C48.9661 53.3023 48.8561 52.811 48.8561 52.261C48.8561 51.711 48.9698 51.2233 49.1971 50.798C49.4245 50.3653 49.7398 50.028 50.1431 49.786C50.5465 49.5367 51.0231 49.412 51.5731 49.412C52.0205 49.412 52.4165 49.5037 52.7611 49.687C53.1058 49.8703 53.3735 50.127 53.5641 50.457V47.08H54.4881V55H53.6521L53.5641 54.098C53.3881 54.362 53.1351 54.6003 52.8051 54.813C52.4751 55.0257 52.0608 55.132 51.5621 55.132ZM51.6611 54.329C52.0278 54.329 52.3505 54.2447 52.6291 54.076C52.9151 53.9 53.1351 53.658 53.2891 53.35C53.4505 53.042 53.5311 52.6827 53.5311 52.272C53.5311 51.8613 53.4505 51.502 53.2891 51.194C53.1351 50.886 52.9151 50.6477 52.6291 50.479C52.3505 50.303 52.0278 50.215 51.6611 50.215C51.3018 50.215 50.9791 50.303 50.6931 50.479C50.4145 50.6477 50.1945 50.886 50.0331 51.194C49.8791 51.502 49.8021 51.8613 49.8021 52.272C49.8021 52.6827 49.8791 53.042 50.0331 53.35C50.1945 53.658 50.4145 53.9 50.6931 54.076C50.9791 54.2447 51.3018 54.329 51.6611 54.329ZM56.5554 48.334C56.372 48.334 56.218 48.2753 56.0934 48.158C55.976 48.0333 55.9174 47.8793 55.9174 47.696C55.9174 47.52 55.976 47.3733 56.0934 47.256C56.218 47.1387 56.372 47.08 56.5554 47.08C56.7314 47.08 56.8817 47.1387 57.0064 47.256C57.131 47.3733 57.1934 47.52 57.1934 47.696C57.1934 47.8793 57.131 48.0333 57.0064 48.158C56.8817 48.2753 56.7314 48.334 56.5554 48.334ZM56.0934 55V49.544H57.0174V55H56.0934ZM61.5412 55.132C61.0939 55.132 60.6942 55.0403 60.3422 54.857C59.9975 54.6737 59.7335 54.417 59.5502 54.087L59.4622 55H58.6262V47.08H59.5502V50.446C59.7262 50.182 59.9755 49.9437 60.2982 49.731C60.6282 49.5183 61.0462 49.412 61.5522 49.412C62.0949 49.412 62.5679 49.5367 62.9712 49.786C63.3745 50.0353 63.6862 50.3763 63.9062 50.809C64.1335 51.2417 64.2472 51.733 64.2472 52.283C64.2472 52.833 64.1335 53.3243 63.9062 53.757C63.6862 54.1823 63.3709 54.5197 62.9602 54.769C62.5569 55.011 62.0839 55.132 61.5412 55.132ZM61.4422 54.329C61.8089 54.329 62.1315 54.2447 62.4102 54.076C62.6889 53.9 62.9089 53.658 63.0702 53.35C63.2315 53.042 63.3122 52.6827 63.3122 52.272C63.3122 51.8613 63.2315 51.502 63.0702 51.194C62.9089 50.886 62.6889 50.6477 62.4102 50.479C62.1315 50.303 61.8089 50.215 61.4422 50.215C61.0755 50.215 60.7529 50.303 60.4742 50.479C60.1955 50.6477 59.9755 50.886 59.8142 51.194C59.6529 51.502 59.5722 51.8613 59.5722 52.272C59.5722 52.6827 59.6529 53.042 59.8142 53.35C59.9755 53.658 60.1955 53.9 60.4742 54.076C60.7529 54.2447 61.0755 54.329 61.4422 54.329ZM66.0944 48.334C65.9111 48.334 65.7571 48.2753 65.6324 48.158C65.5151 48.0333 65.4564 47.8793 65.4564 47.696C65.4564 47.52 65.5151 47.3733 65.6324 47.256C65.7571 47.1387 65.9111 47.08 66.0944 47.08C66.2704 47.08 66.4207 47.1387 66.5454 47.256C66.6701 47.3733 66.7324 47.52 66.7324 47.696C66.7324 47.8793 66.6701 48.0333 66.5454 48.158C66.4207 48.2753 66.2704 48.334 66.0944 48.334ZM65.6324 55V49.544H66.5564V55H65.6324ZM68.1653 55V47.08H69.0893V55H68.1653ZM71.1647 48.334C70.9814 48.334 70.8274 48.2753 70.7027 48.158C70.5854 48.0333 70.5267 47.8793 70.5267 47.696C70.5267 47.52 70.5854 47.3733 70.7027 47.256C70.8274 47.1387 70.9814 47.08 71.1647 47.08C71.3407 47.08 71.4911 47.1387 71.6157 47.256C71.7404 47.3733 71.8027 47.52 71.8027 47.696C71.8027 47.8793 71.7404 48.0333 71.6157 48.158C71.4911 48.2753 71.3407 48.334 71.1647 48.334ZM70.7027 55V49.544H71.6267V55H70.7027ZM75.3916 55C74.8929 55 74.5006 54.879 74.2146 54.637C73.9286 54.395 73.7856 53.9587 73.7856 53.328V50.325H72.8396V49.544H73.7856L73.9066 48.235H74.7096V49.544H76.3156V50.325H74.7096V53.328C74.7096 53.6727 74.7792 53.9073 74.9186 54.032C75.0579 54.1493 75.3036 54.208 75.6556 54.208H76.2276V55H75.3916ZM78.0835 57.42L79.4365 54.472H79.1175L76.9505 49.544H77.9515L79.7555 53.79L81.6695 49.544H82.6265L79.0515 57.42H78.0835ZM89.4279 55.132C88.9806 55.132 88.5809 55.0403 88.2289 54.857C87.8842 54.6737 87.6202 54.417 87.4369 54.087L87.3489 55H86.5129V47.08H87.4369V50.446C87.6129 50.182 87.8622 49.9437 88.1849 49.731C88.5149 49.5183 88.9329 49.412 89.4389 49.412C89.9816 49.412 90.4546 49.5367 90.8579 49.786C91.2612 50.0353 91.5729 50.3763 91.7929 50.809C92.0202 51.2417 92.1339 51.733 92.1339 52.283C92.1339 52.833 92.0202 53.3243 91.7929 53.757C91.5729 54.1823 91.2576 54.5197 90.8469 54.769C90.4436 55.011 89.9706 55.132 89.4279 55.132ZM89.3289 54.329C89.6956 54.329 90.0182 54.2447 90.2969 54.076C90.5756 53.9 90.7956 53.658 90.9569 53.35C91.1182 53.042 91.1989 52.6827 91.1989 52.272C91.1989 51.8613 91.1182 51.502 90.9569 51.194C90.7956 50.886 90.5756 50.6477 90.2969 50.479C90.0182 50.303 89.6956 50.215 89.3289 50.215C88.9622 50.215 88.6396 50.303 88.3609 50.479C88.0822 50.6477 87.8622 50.886 87.7009 51.194C87.5396 51.502 87.4589 51.8613 87.4589 52.272C87.4589 52.6827 87.5396 53.042 87.7009 53.35C87.8622 53.658 88.0822 53.9 88.3609 54.076C88.6396 54.2447 88.9622 54.329 89.3289 54.329ZM93.5737 57.42L94.9267 54.472H94.6077L92.4407 49.544H93.4417L95.2457 53.79L97.1597 49.544H98.1167L94.5417 57.42H93.5737ZM104.159 53.284C103.851 53.284 103.569 53.2437 103.312 53.163L102.762 53.68C102.843 53.7387 102.942 53.79 103.059 53.834C103.184 53.8707 103.36 53.9073 103.587 53.944C103.814 53.9733 104.133 54.0063 104.544 54.043C105.277 54.0943 105.802 54.263 106.117 54.549C106.432 54.835 106.59 55.209 106.59 55.671C106.59 55.9863 106.502 56.287 106.326 56.573C106.157 56.859 105.893 57.0937 105.534 57.277C105.182 57.4603 104.727 57.552 104.17 57.552C103.679 57.552 103.242 57.486 102.861 57.354C102.48 57.2293 102.183 57.035 101.97 56.771C101.757 56.5143 101.651 56.188 101.651 55.792C101.651 55.5867 101.706 55.363 101.816 55.121C101.926 54.8863 102.131 54.6627 102.432 54.45C102.271 54.384 102.131 54.3143 102.014 54.241C101.904 54.1603 101.801 54.0723 101.706 53.977V53.724L102.641 52.8C102.208 52.4333 101.992 51.9493 101.992 51.348C101.992 50.9887 102.076 50.6623 102.245 50.369C102.414 50.0757 102.659 49.8447 102.982 49.676C103.305 49.5 103.697 49.412 104.159 49.412C104.474 49.412 104.76 49.456 105.017 49.544H107.03V50.237L106.007 50.281C106.22 50.589 106.326 50.9447 106.326 51.348C106.326 51.7073 106.238 52.0337 106.062 52.327C105.893 52.6203 105.648 52.855 105.325 53.031C105.01 53.1997 104.621 53.284 104.159 53.284ZM104.159 52.525C104.548 52.525 104.856 52.426 105.083 52.228C105.318 52.0227 105.435 51.7293 105.435 51.348C105.435 50.974 105.318 50.688 105.083 50.49C104.856 50.2847 104.548 50.182 104.159 50.182C103.763 50.182 103.448 50.2847 103.213 50.49C102.986 50.688 102.872 50.974 102.872 51.348C102.872 51.7293 102.986 52.0227 103.213 52.228C103.448 52.426 103.763 52.525 104.159 52.525ZM102.553 55.704C102.553 56.0707 102.707 56.342 103.015 56.518C103.323 56.7013 103.708 56.793 104.17 56.793C104.625 56.793 104.988 56.694 105.259 56.496C105.538 56.298 105.677 56.034 105.677 55.704C105.677 55.4693 105.582 55.264 105.391 55.088C105.2 54.9193 104.848 54.8203 104.335 54.791C103.932 54.7617 103.583 54.725 103.29 54.681C102.989 54.8423 102.791 55.0147 102.696 55.198C102.601 55.3887 102.553 55.5573 102.553 55.704ZM110.311 55.132C109.79 55.132 109.328 55.0147 108.925 54.78C108.521 54.538 108.202 54.2043 107.968 53.779C107.74 53.3537 107.627 52.8513 107.627 52.272C107.627 51.7 107.74 51.2013 107.968 50.776C108.195 50.3433 108.51 50.0097 108.914 49.775C109.324 49.533 109.797 49.412 110.333 49.412C110.861 49.412 111.315 49.533 111.697 49.775C112.085 50.0097 112.382 50.3213 112.588 50.71C112.793 51.0987 112.896 51.5167 112.896 51.964C112.896 52.0447 112.892 52.1253 112.885 52.206C112.885 52.2867 112.885 52.3783 112.885 52.481H108.54C108.562 52.899 108.657 53.2473 108.826 53.526C109.002 53.7973 109.218 54.0027 109.475 54.142C109.739 54.2813 110.017 54.351 110.311 54.351C110.692 54.351 111.011 54.263 111.268 54.087C111.524 53.911 111.711 53.6727 111.829 53.372H112.742C112.595 53.878 112.313 54.2997 111.895 54.637C111.484 54.967 110.956 55.132 110.311 55.132ZM110.311 50.193C109.871 50.193 109.478 50.3287 109.134 50.6C108.796 50.864 108.602 51.2527 108.551 51.766H111.983C111.961 51.2747 111.792 50.8897 111.477 50.611C111.161 50.3323 110.773 50.193 110.311 50.193ZM116.094 55C115.595 55 115.203 54.879 114.917 54.637C114.631 54.395 114.488 53.9587 114.488 53.328V50.325H113.542V49.544H114.488L114.609 48.235H115.412V49.544H117.018V50.325H115.412V53.328C115.412 53.6727 115.481 53.9073 115.621 54.032C115.76 54.1493 116.006 54.208 116.358 54.208H116.93V55H116.094ZM120.348 55C119.849 55 119.457 54.879 119.171 54.637C118.885 54.395 118.742 53.9587 118.742 53.328V50.325H117.796V49.544H118.742L118.863 48.235H119.666V49.544H121.272V50.325H119.666V53.328C119.666 53.6727 119.735 53.9073 119.875 54.032C120.014 54.1493 120.26 54.208 120.612 54.208H121.184V55H120.348ZM123.007 48.334C122.823 48.334 122.669 48.2753 122.545 48.158C122.427 48.0333 122.369 47.8793 122.369 47.696C122.369 47.52 122.427 47.3733 122.545 47.256C122.669 47.1387 122.823 47.08 123.007 47.08C123.183 47.08 123.333 47.1387 123.458 47.256C123.582 47.3733 123.645 47.52 123.645 47.696C123.645 47.8793 123.582 48.0333 123.458 48.158C123.333 48.2753 123.183 48.334 123.007 48.334ZM122.545 55V49.544H123.469V55H122.545ZM125.077 55V49.544H125.913L125.968 50.523C126.144 50.1783 126.397 49.907 126.727 49.709C127.057 49.511 127.431 49.412 127.849 49.412C128.495 49.412 129.008 49.61 129.389 50.006C129.778 50.3947 129.972 50.996 129.972 51.81V55H129.048V51.909C129.048 50.7723 128.579 50.204 127.64 50.204C127.171 50.204 126.779 50.3763 126.463 50.721C126.155 51.0583 126.001 51.5423 126.001 52.173V55H125.077ZM133.528 53.284C133.22 53.284 132.938 53.2437 132.681 53.163L132.131 53.68C132.212 53.7387 132.311 53.79 132.428 53.834C132.553 53.8707 132.729 53.9073 132.956 53.944C133.184 53.9733 133.503 54.0063 133.913 54.043C134.647 54.0943 135.171 54.263 135.486 54.549C135.802 54.835 135.959 55.209 135.959 55.671C135.959 55.9863 135.871 56.287 135.695 56.573C135.527 56.859 135.263 57.0937 134.903 57.277C134.551 57.4603 134.097 57.552 133.539 57.552C133.048 57.552 132.612 57.486 132.23 57.354C131.849 57.2293 131.552 57.035 131.339 56.771C131.127 56.5143 131.02 56.188 131.02 55.792C131.02 55.5867 131.075 55.363 131.185 55.121C131.295 54.8863 131.501 54.6627 131.801 54.45C131.64 54.384 131.501 54.3143 131.383 54.241C131.273 54.1603 131.171 54.0723 131.075 53.977V53.724L132.01 52.8C131.578 52.4333 131.361 51.9493 131.361 51.348C131.361 50.9887 131.446 50.6623 131.614 50.369C131.783 50.0757 132.029 49.8447 132.351 49.676C132.674 49.5 133.066 49.412 133.528 49.412C133.844 49.412 134.13 49.456 134.386 49.544H136.399V50.237L135.376 50.281C135.589 50.589 135.695 50.9447 135.695 51.348C135.695 51.7073 135.607 52.0337 135.431 52.327C135.263 52.6203 135.017 52.855 134.694 53.031C134.379 53.1997 133.99 53.284 133.528 53.284ZM133.528 52.525C133.917 52.525 134.225 52.426 134.452 52.228C134.687 52.0227 134.804 51.7293 134.804 51.348C134.804 50.974 134.687 50.688 134.452 50.49C134.225 50.2847 133.917 50.182 133.528 50.182C133.132 50.182 132.817 50.2847 132.582 50.49C132.355 50.688 132.241 50.974 132.241 51.348C132.241 51.7293 132.355 52.0227 132.582 52.228C132.817 52.426 133.132 52.525 133.528 52.525ZM131.922 55.704C131.922 56.0707 132.076 56.342 132.384 56.518C132.692 56.7013 133.077 56.793 133.539 56.793C133.994 56.793 134.357 56.694 134.628 56.496C134.907 56.298 135.046 56.034 135.046 55.704C135.046 55.4693 134.951 55.264 134.76 55.088C134.57 54.9193 134.218 54.8203 133.704 54.791C133.301 54.7617 132.953 54.725 132.659 54.681C132.359 54.8423 132.161 55.0147 132.065 55.198C131.97 55.3887 131.922 55.5573 131.922 55.704ZM142.509 55C142.01 55 141.618 54.879 141.332 54.637C141.046 54.395 140.903 53.9587 140.903 53.328V50.325H139.957V49.544H140.903L141.024 48.235H141.827V49.544H143.433V50.325H141.827V53.328C141.827 53.6727 141.896 53.9073 142.036 54.032C142.175 54.1493 142.421 54.208 142.773 54.208H143.345V55H142.509ZM146.942 55.132C146.429 55.132 145.967 55.0147 145.556 54.78C145.146 54.5453 144.819 54.2153 144.577 53.79C144.343 53.3573 144.225 52.8513 144.225 52.272C144.225 51.6927 144.346 51.1903 144.588 50.765C144.83 50.3323 145.157 49.9987 145.567 49.764C145.985 49.5293 146.451 49.412 146.964 49.412C147.478 49.412 147.94 49.5293 148.35 49.764C148.761 49.9987 149.084 50.3323 149.318 50.765C149.56 51.1903 149.681 51.6927 149.681 52.272C149.681 52.8513 149.56 53.3573 149.318 53.79C149.076 54.2153 148.746 54.5453 148.328 54.78C147.918 55.0147 147.456 55.132 146.942 55.132ZM146.942 54.34C147.258 54.34 147.551 54.263 147.822 54.109C148.094 53.955 148.314 53.724 148.482 53.416C148.651 53.108 148.735 52.7267 148.735 52.272C148.735 51.8173 148.651 51.436 148.482 51.128C148.321 50.82 148.105 50.589 147.833 50.435C147.562 50.281 147.272 50.204 146.964 50.204C146.649 50.204 146.356 50.281 146.084 50.435C145.813 50.589 145.593 50.82 145.424 51.128C145.256 51.436 145.171 51.8173 145.171 52.272C145.171 52.7267 145.256 53.108 145.424 53.416C145.593 53.724 145.809 53.955 146.073 54.109C146.345 54.263 146.634 54.34 146.942 54.34ZM153.877 55V47.08H154.801V51.843L157.034 49.544H158.167L155.747 52.008L158.475 55H157.298L154.801 52.173V55H153.877ZM159.42 55V49.544H160.256L160.311 50.523C160.487 50.1783 160.74 49.907 161.07 49.709C161.4 49.511 161.774 49.412 162.192 49.412C162.837 49.412 163.351 49.61 163.732 50.006C164.121 50.3947 164.315 50.996 164.315 51.81V55H163.391V51.909C163.391 50.7723 162.922 50.204 161.983 50.204C161.514 50.204 161.121 50.3763 160.806 50.721C160.498 51.0583 160.344 51.5423 160.344 52.173V55H159.42ZM168.201 55.132C167.688 55.132 167.226 55.0147 166.815 54.78C166.404 54.5453 166.078 54.2153 165.836 53.79C165.601 53.3573 165.484 52.8513 165.484 52.272C165.484 51.6927 165.605 51.1903 165.847 50.765C166.089 50.3323 166.415 49.9987 166.826 49.764C167.244 49.5293 167.71 49.412 168.223 49.412C168.736 49.412 169.198 49.5293 169.609 49.764C170.02 49.9987 170.342 50.3323 170.577 50.765C170.819 51.1903 170.94 51.6927 170.94 52.272C170.94 52.8513 170.819 53.3573 170.577 53.79C170.335 54.2153 170.005 54.5453 169.587 54.78C169.176 55.0147 168.714 55.132 168.201 55.132ZM168.201 54.34C168.516 54.34 168.81 54.263 169.081 54.109C169.352 53.955 169.572 53.724 169.741 53.416C169.91 53.108 169.994 52.7267 169.994 52.272C169.994 51.8173 169.91 51.436 169.741 51.128C169.58 50.82 169.363 50.589 169.092 50.435C168.821 50.281 168.531 50.204 168.223 50.204C167.908 50.204 167.614 50.281 167.343 50.435C167.072 50.589 166.852 50.82 166.683 51.128C166.514 51.436 166.43 51.8173 166.43 52.272C166.43 52.7267 166.514 53.108 166.683 53.416C166.852 53.724 167.068 53.955 167.332 54.109C167.603 54.263 167.893 54.34 168.201 54.34ZM173.121 55L171.526 49.544H172.45L173.605 53.823L174.881 49.544H175.926L177.213 53.823L178.357 49.544H179.292L177.697 55H176.751L175.409 50.501L174.067 55H173.121ZM34.915 69C34.4163 69 34.024 68.879 33.738 68.637C33.452 68.395 33.309 67.9587 33.309 67.328V64.325H32.363V63.544H33.309L33.43 62.235H34.233V63.544H35.839V64.325H34.233V67.328C34.233 67.6727 34.3027 67.9073 34.442 68.032C34.5813 68.1493 34.827 68.208 35.179 68.208H35.751V69H34.915ZM37.0129 69V61.08H37.9369V64.479C38.1202 64.1417 38.3806 63.8813 38.7179 63.698C39.0552 63.5073 39.4219 63.412 39.8179 63.412C40.4486 63.412 40.9546 63.61 41.3359 64.006C41.7172 64.3947 41.9079 64.996 41.9079 65.81V69H40.9949V65.909C40.9949 64.7723 40.5366 64.204 39.6199 64.204C39.1432 64.204 38.7436 64.3763 38.4209 64.721C38.0982 65.0583 37.9369 65.5423 37.9369 66.173V69H37.0129ZM45.7608 69.132C45.2402 69.132 44.7782 69.0147 44.3748 68.78C43.9715 68.538 43.6525 68.2043 43.4178 67.779C43.1905 67.3537 43.0768 66.8513 43.0768 66.272C43.0768 65.7 43.1905 65.2013 43.4178 64.776C43.6452 64.3433 43.9605 64.0097 44.3638 63.775C44.7745 63.533 45.2475 63.412 45.7828 63.412C46.3108 63.412 46.7655 63.533 47.1468 63.775C47.5355 64.0097 47.8325 64.3213 48.0378 64.71C48.2432 65.0987 48.3458 65.5167 48.3458 65.964C48.3458 66.0447 48.3422 66.1253 48.3348 66.206C48.3348 66.2867 48.3348 66.3783 48.3348 66.481H43.9898C44.0118 66.899 44.1072 67.2473 44.2758 67.526C44.4518 67.7973 44.6682 68.0027 44.9248 68.142C45.1888 68.2813 45.4675 68.351 45.7608 68.351C46.1422 68.351 46.4612 68.263 46.7178 68.087C46.9745 67.911 47.1615 67.6727 47.2788 67.372H48.1918C48.0452 67.878 47.7628 68.2997 47.3448 68.637C46.9342 68.967 46.4062 69.132 45.7608 69.132ZM45.7608 64.193C45.3208 64.193 44.9285 64.3287 44.5838 64.6C44.2465 64.864 44.0522 65.2527 44.0008 65.766H47.4328C47.4108 65.2747 47.2422 64.8897 46.9268 64.611C46.6115 64.3323 46.2228 64.193 45.7608 64.193ZM52.4817 71.42V63.544H53.3177L53.4057 64.446C53.5817 64.182 53.831 63.9437 54.1537 63.731C54.4837 63.5183 54.9017 63.412 55.4077 63.412C55.9503 63.412 56.4233 63.5367 56.8267 63.786C57.23 64.0353 57.5417 64.3763 57.7617 64.809C57.989 65.2417 58.1027 65.733 58.1027 66.283C58.1027 66.833 57.989 67.3243 57.7617 67.757C57.5417 68.1823 57.2263 68.5197 56.8157 68.769C56.4123 69.011 55.9393 69.132 55.3967 69.132C54.9493 69.132 54.5497 69.0403 54.1977 68.857C53.853 68.6737 53.589 68.417 53.4057 68.087V71.42H52.4817ZM55.2977 68.329C55.6643 68.329 55.987 68.2447 56.2657 68.076C56.5443 67.9 56.7643 67.658 56.9257 67.35C57.087 67.042 57.1677 66.6827 57.1677 66.272C57.1677 65.8613 57.087 65.502 56.9257 65.194C56.7643 64.886 56.5443 64.6477 56.2657 64.479C55.987 64.303 55.6643 64.215 55.2977 64.215C54.931 64.215 54.6083 64.303 54.3297 64.479C54.051 64.6477 53.831 64.886 53.6697 65.194C53.5083 65.502 53.4277 65.8613 53.4277 66.272C53.4277 66.6827 53.5083 67.042 53.6697 67.35C53.831 67.658 54.051 67.9 54.3297 68.076C54.6083 68.2447 54.931 68.329 55.2977 68.329ZM61.8419 69.132C61.3212 69.132 60.8592 69.0147 60.4559 68.78C60.0525 68.538 59.7335 68.2043 59.4989 67.779C59.2715 67.3537 59.1579 66.8513 59.1579 66.272C59.1579 65.7 59.2715 65.2013 59.4989 64.776C59.7262 64.3433 60.0415 64.0097 60.4449 63.775C60.8555 63.533 61.3285 63.412 61.8639 63.412C62.3919 63.412 62.8465 63.533 63.2279 63.775C63.6165 64.0097 63.9135 64.3213 64.1189 64.71C64.3242 65.0987 64.4269 65.5167 64.4269 65.964C64.4269 66.0447 64.4232 66.1253 64.4159 66.206C64.4159 66.2867 64.4159 66.3783 64.4159 66.481H60.0709C60.0929 66.899 60.1882 67.2473 60.3569 67.526C60.5329 67.7973 60.7492 68.0027 61.0059 68.142C61.2699 68.2813 61.5485 68.351 61.8419 68.351C62.2232 68.351 62.5422 68.263 62.7989 68.087C63.0555 67.911 63.2425 67.6727 63.3599 67.372H64.2729C64.1262 67.878 63.8439 68.2997 63.4259 68.637C63.0152 68.967 62.4872 69.132 61.8419 69.132ZM61.8419 64.193C61.4019 64.193 61.0095 64.3287 60.6649 64.6C60.3275 64.864 60.1332 65.2527 60.0819 65.766H63.5139C63.4919 65.2747 63.3232 64.8897 63.0079 64.611C62.6925 64.3323 62.3039 64.193 61.8419 64.193ZM68.1376 69.132C67.6242 69.132 67.1622 69.0147 66.7516 68.78C66.3409 68.5453 66.0146 68.2153 65.7726 67.79C65.5379 67.3573 65.4206 66.8513 65.4206 66.272C65.4206 65.6927 65.5416 65.1903 65.7836 64.765C66.0256 64.3323 66.3519 63.9987 66.7626 63.764C67.1806 63.5293 67.6462 63.412 68.1596 63.412C68.6729 63.412 69.1349 63.5293 69.5456 63.764C69.9562 63.9987 70.2789 64.3323 70.5136 64.765C70.7556 65.1903 70.8766 65.6927 70.8766 66.272C70.8766 66.8513 70.7556 67.3573 70.5136 67.79C70.2716 68.2153 69.9416 68.5453 69.5236 68.78C69.1129 69.0147 68.6509 69.132 68.1376 69.132ZM68.1376 68.34C68.4529 68.34 68.7462 68.263 69.0176 68.109C69.2889 67.955 69.5089 67.724 69.6776 67.416C69.8462 67.108 69.9306 66.7267 69.9306 66.272C69.9306 65.8173 69.8462 65.436 69.6776 65.128C69.5162 64.82 69.2999 64.589 69.0286 64.435C68.7572 64.281 68.4676 64.204 68.1596 64.204C67.8442 64.204 67.5509 64.281 67.2796 64.435C67.0082 64.589 66.7882 64.82 66.6196 65.128C66.4509 65.436 66.3666 65.8173 66.3666 66.272C66.3666 66.7267 66.4509 67.108 66.6196 67.416C66.7882 67.724 67.0046 67.955 67.2686 68.109C67.5399 68.263 67.8296 68.34 68.1376 68.34ZM72.1613 71.42V63.544H72.9973L73.0853 64.446C73.2613 64.182 73.5107 63.9437 73.8333 63.731C74.1633 63.5183 74.5813 63.412 75.0873 63.412C75.63 63.412 76.103 63.5367 76.5063 63.786C76.9097 64.0353 77.2213 64.3763 77.4413 64.809C77.6687 65.2417 77.7823 65.733 77.7823 66.283C77.7823 66.833 77.6687 67.3243 77.4413 67.757C77.2213 68.1823 76.906 68.5197 76.4953 68.769C76.092 69.011 75.619 69.132 75.0763 69.132C74.629 69.132 74.2293 69.0403 73.8773 68.857C73.5327 68.6737 73.2687 68.417 73.0853 68.087V71.42H72.1613ZM74.9773 68.329C75.344 68.329 75.6667 68.2447 75.9453 68.076C76.224 67.9 76.444 67.658 76.6053 67.35C76.7667 67.042 76.8473 66.6827 76.8473 66.272C76.8473 65.8613 76.7667 65.502 76.6053 65.194C76.444 64.886 76.224 64.6477 75.9453 64.479C75.6667 64.303 75.344 64.215 74.9773 64.215C74.6107 64.215 74.288 64.303 74.0093 64.479C73.7307 64.6477 73.5107 64.886 73.3493 65.194C73.188 65.502 73.1073 65.8613 73.1073 66.272C73.1073 66.6827 73.188 67.042 73.3493 67.35C73.5107 67.658 73.7307 67.9 74.0093 68.076C74.288 68.2447 74.6107 68.329 74.9773 68.329ZM79.0686 69V61.08H79.9926V69H79.0686ZM83.96 69.132C83.4394 69.132 82.9774 69.0147 82.574 68.78C82.1707 68.538 81.8517 68.2043 81.617 67.779C81.3897 67.3537 81.276 66.8513 81.276 66.272C81.276 65.7 81.3897 65.2013 81.617 64.776C81.8444 64.3433 82.1597 64.0097 82.563 63.775C82.9737 63.533 83.4467 63.412 83.982 63.412C84.51 63.412 84.9647 63.533 85.346 63.775C85.7347 64.0097 86.0317 64.3213 86.237 64.71C86.4424 65.0987 86.545 65.5167 86.545 65.964C86.545 66.0447 86.5414 66.1253 86.534 66.206C86.534 66.2867 86.534 66.3783 86.534 66.481H82.189C82.211 66.899 82.3064 67.2473 82.475 67.526C82.651 67.7973 82.8674 68.0027 83.124 68.142C83.388 68.2813 83.6667 68.351 83.96 68.351C84.3414 68.351 84.6604 68.263 84.917 68.087C85.1737 67.911 85.3607 67.6727 85.478 67.372H86.391C86.2444 67.878 85.962 68.2997 85.544 68.637C85.1334 68.967 84.6054 69.132 83.96 69.132ZM83.96 64.193C83.52 64.193 83.1277 64.3287 82.783 64.6C82.4457 64.864 82.2514 65.2527 82.2 65.766H85.632C85.61 65.2747 85.4414 64.8897 85.126 64.611C84.8107 64.3323 84.422 64.193 83.96 64.193ZM93.5959 69.132C93.1485 69.132 92.7489 69.0403 92.3969 68.857C92.0522 68.6737 91.7882 68.417 91.6049 68.087L91.5169 69H90.6809V61.08H91.6049V64.446C91.7809 64.182 92.0302 63.9437 92.3529 63.731C92.6829 63.5183 93.1009 63.412 93.6069 63.412C94.1495 63.412 94.6225 63.5367 95.0259 63.786C95.4292 64.0353 95.7409 64.3763 95.9609 64.809C96.1882 65.2417 96.3019 65.733 96.3019 66.283C96.3019 66.833 96.1882 67.3243 95.9609 67.757C95.7409 68.1823 95.4255 68.5197 95.0149 68.769C94.6115 69.011 94.1385 69.132 93.5959 69.132ZM93.4969 68.329C93.8635 68.329 94.1862 68.2447 94.4649 68.076C94.7435 67.9 94.9635 67.658 95.1249 67.35C95.2862 67.042 95.3669 66.6827 95.3669 66.272C95.3669 65.8613 95.2862 65.502 95.1249 65.194C94.9635 64.886 94.7435 64.6477 94.4649 64.479C94.1862 64.303 93.8635 64.215 93.4969 64.215C93.1302 64.215 92.8075 64.303 92.5289 64.479C92.2502 64.6477 92.0302 64.886 91.8689 65.194C91.7075 65.502 91.6269 65.8613 91.6269 66.272C91.6269 66.6827 91.7075 67.042 91.8689 67.35C92.0302 67.658 92.2502 67.9 92.5289 68.076C92.8075 68.2447 93.1302 68.329 93.4969 68.329ZM100.041 69.132C99.5204 69.132 99.0584 69.0147 98.6551 68.78C98.2518 68.538 97.9328 68.2043 97.6981 67.779C97.4708 67.3537 97.3571 66.8513 97.3571 66.272C97.3571 65.7 97.4708 65.2013 97.6981 64.776C97.9254 64.3433 98.2408 64.0097 98.6441 63.775C99.0548 63.533 99.5278 63.412 100.063 63.412C100.591 63.412 101.046 63.533 101.427 63.775C101.816 64.0097 102.113 64.3213 102.318 64.71C102.523 65.0987 102.626 65.5167 102.626 65.964C102.626 66.0447 102.622 66.1253 102.615 66.206C102.615 66.2867 102.615 66.3783 102.615 66.481H98.2701C98.2921 66.899 98.3874 67.2473 98.5561 67.526C98.7321 67.7973 98.9484 68.0027 99.2051 68.142C99.4691 68.2813 99.7478 68.351 100.041 68.351C100.422 68.351 100.741 68.263 100.998 68.087C101.255 67.911 101.442 67.6727 101.559 67.372H102.472C102.325 67.878 102.043 68.2997 101.625 68.637C101.214 68.967 100.686 69.132 100.041 69.132ZM100.041 64.193C99.6011 64.193 99.2088 64.3287 98.8641 64.6C98.5268 64.864 98.3324 65.2527 98.2811 65.766H101.713C101.691 65.2747 101.522 64.8897 101.207 64.611C100.892 64.3323 100.503 64.193 100.041 64.193ZM103.851 69V61.08H104.775V64.479C104.958 64.1417 105.218 63.8813 105.556 63.698C105.893 63.5073 106.26 63.412 106.656 63.412C107.286 63.412 107.792 63.61 108.174 64.006C108.555 64.3947 108.746 64.996 108.746 65.81V69H107.833V65.909C107.833 64.7723 107.374 64.204 106.458 64.204C105.981 64.204 105.581 64.3763 105.259 64.721C104.936 65.0583 104.775 65.5423 104.775 66.173V69H103.851ZM110.707 62.334C110.523 62.334 110.369 62.2753 110.245 62.158C110.127 62.0333 110.069 61.8793 110.069 61.696C110.069 61.52 110.127 61.3733 110.245 61.256C110.369 61.1387 110.523 61.08 110.707 61.08C110.883 61.08 111.033 61.1387 111.158 61.256C111.282 61.3733 111.345 61.52 111.345 61.696C111.345 61.8793 111.282 62.0333 111.158 62.158C111.033 62.2753 110.883 62.334 110.707 62.334ZM110.245 69V63.544H111.169V69H110.245ZM112.778 69V63.544H113.614L113.669 64.523C113.845 64.1783 114.098 63.907 114.428 63.709C114.758 63.511 115.132 63.412 115.55 63.412C116.195 63.412 116.708 63.61 117.09 64.006C117.478 64.3947 117.673 64.996 117.673 65.81V69H116.749V65.909C116.749 64.7723 116.279 64.204 115.341 64.204C114.871 64.204 114.479 64.3763 114.164 64.721C113.856 65.0583 113.702 65.5423 113.702 66.173V69H112.778ZM121.547 69.132C121.005 69.132 120.528 69.0073 120.117 68.758C119.714 68.5087 119.399 68.1677 119.171 67.735C118.951 67.3023 118.841 66.811 118.841 66.261C118.841 65.711 118.955 65.2233 119.182 64.798C119.41 64.3653 119.725 64.028 120.128 63.786C120.532 63.5367 121.008 63.412 121.558 63.412C122.006 63.412 122.402 63.5037 122.746 63.687C123.091 63.8703 123.359 64.127 123.549 64.457V61.08H124.473V69H123.637L123.549 68.098C123.373 68.362 123.12 68.6003 122.79 68.813C122.46 69.0257 122.046 69.132 121.547 69.132ZM121.646 68.329C122.013 68.329 122.336 68.2447 122.614 68.076C122.9 67.9 123.12 67.658 123.274 67.35C123.436 67.042 123.516 66.6827 123.516 66.272C123.516 65.8613 123.436 65.502 123.274 65.194C123.12 64.886 122.9 64.6477 122.614 64.479C122.336 64.303 122.013 64.215 121.646 64.215C121.287 64.215 120.964 64.303 120.678 64.479C120.4 64.6477 120.18 64.886 120.018 65.194C119.864 65.502 119.787 65.8613 119.787 66.272C119.787 66.6827 119.864 67.042 120.018 67.35C120.18 67.658 120.4 67.9 120.678 68.076C120.964 68.2447 121.287 68.329 121.646 68.329ZM128.946 69V61.3H129.87V64.699H133.863V61.3H134.787V69H133.863V65.458H129.87V69H128.946ZM138.172 69.132C137.717 69.132 137.339 69.055 137.039 68.901C136.738 68.747 136.514 68.5417 136.368 68.285C136.221 68.0283 136.148 67.7497 136.148 67.449C136.148 66.8917 136.36 66.4627 136.786 66.162C137.211 65.8613 137.79 65.711 138.524 65.711H139.998V65.645C139.998 65.1683 139.873 64.809 139.624 64.567C139.374 64.3177 139.041 64.193 138.623 64.193C138.263 64.193 137.952 64.2847 137.688 64.468C137.431 64.644 137.27 64.9043 137.204 65.249H136.258C136.294 64.853 136.426 64.5193 136.654 64.248C136.888 63.9767 137.178 63.7713 137.523 63.632C137.867 63.4853 138.234 63.412 138.623 63.412C139.385 63.412 139.957 63.6173 140.339 64.028C140.727 64.4313 140.922 64.9703 140.922 65.645V69H140.097L140.042 68.021C139.888 68.329 139.66 68.593 139.36 68.813C139.066 69.0257 138.67 69.132 138.172 69.132ZM138.315 68.351C138.667 68.351 138.967 68.2593 139.217 68.076C139.473 67.8927 139.668 67.6543 139.8 67.361C139.932 67.0677 139.998 66.7597 139.998 66.437V66.426H138.601C138.058 66.426 137.673 66.5213 137.446 66.712C137.226 66.8953 137.116 67.1263 137.116 67.405C137.116 67.691 137.218 67.922 137.424 68.098C137.636 68.2667 137.933 68.351 138.315 68.351ZM144.816 69.132C144.295 69.132 143.826 69.0147 143.408 68.78C142.997 68.538 142.671 68.2043 142.429 67.779C142.194 67.3463 142.077 66.844 142.077 66.272C142.077 65.7 142.194 65.2013 142.429 64.776C142.671 64.3433 142.997 64.0097 143.408 63.775C143.826 63.533 144.295 63.412 144.816 63.412C145.461 63.412 146.004 63.5807 146.444 63.918C146.891 64.2553 147.173 64.7063 147.291 65.271H146.345C146.271 64.9337 146.092 64.6733 145.806 64.49C145.52 64.2993 145.186 64.204 144.805 64.204C144.497 64.204 144.207 64.281 143.936 64.435C143.664 64.589 143.444 64.82 143.276 65.128C143.107 65.436 143.023 65.8173 143.023 66.272C143.023 66.7267 143.107 67.108 143.276 67.416C143.444 67.724 143.664 67.9587 143.936 68.12C144.207 68.274 144.497 68.351 144.805 68.351C145.186 68.351 145.52 68.2593 145.806 68.076C146.092 67.8853 146.271 67.6177 146.345 67.273H147.291C147.181 67.823 146.902 68.2703 146.455 68.615C146.007 68.9597 145.461 69.132 144.816 69.132ZM148.581 69V61.08H149.505V65.843L151.738 63.544H152.871L150.451 66.008L153.179 69H152.002L149.505 66.173V69H148.581ZM154.179 69V61.3H156.544C157.901 61.3 158.898 61.6447 159.536 62.334C160.182 63.0233 160.504 63.9693 160.504 65.172C160.504 66.3527 160.182 67.2877 159.536 67.977C158.898 68.659 157.901 69 156.544 69H154.179ZM155.103 68.23H156.522C157.27 68.23 157.864 68.109 158.304 67.867C158.752 67.6177 159.071 67.2657 159.261 66.811C159.452 66.349 159.547 65.8027 159.547 65.172C159.547 64.5267 159.452 63.973 159.261 63.511C159.071 63.049 158.752 62.6933 158.304 62.444C157.864 62.1947 157.27 62.07 156.522 62.07H155.103V68.23ZM163.598 69.132C163.144 69.132 162.766 69.055 162.465 68.901C162.165 68.747 161.941 68.5417 161.794 68.285C161.648 68.0283 161.574 67.7497 161.574 67.449C161.574 66.8917 161.787 66.4627 162.212 66.162C162.638 65.8613 163.217 65.711 163.95 65.711H165.424V65.645C165.424 65.1683 165.3 64.809 165.05 64.567C164.801 64.3177 164.467 64.193 164.049 64.193C163.69 64.193 163.378 64.2847 163.114 64.468C162.858 64.644 162.696 64.9043 162.63 65.249H161.684C161.721 64.853 161.853 64.5193 162.08 64.248C162.315 63.9767 162.605 63.7713 162.949 63.632C163.294 63.4853 163.661 63.412 164.049 63.412C164.812 63.412 165.384 63.6173 165.765 64.028C166.154 64.4313 166.348 64.9703 166.348 65.645V69H165.523L165.468 68.021C165.314 68.329 165.087 68.593 164.786 68.813C164.493 69.0257 164.097 69.132 163.598 69.132ZM163.741 68.351C164.093 68.351 164.394 68.2593 164.643 68.076C164.9 67.8927 165.094 67.6543 165.226 67.361C165.358 67.0677 165.424 66.7597 165.424 66.437V66.426H164.027C163.485 66.426 163.1 66.5213 162.872 66.712C162.652 66.8953 162.542 67.1263 162.542 67.405C162.542 67.691 162.645 67.922 162.85 68.098C163.063 68.2667 163.36 68.351 163.741 68.351ZM169.103 69L167.035 63.544H168.003L169.642 68.109L171.292 63.544H172.238L170.17 69H169.103ZM173.828 62.334C173.644 62.334 173.49 62.2753 173.366 62.158C173.248 62.0333 173.19 61.8793 173.19 61.696C173.19 61.52 173.248 61.3733 173.366 61.256C173.49 61.1387 173.644 61.08 173.828 61.08C174.004 61.08 174.154 61.1387 174.279 61.256C174.403 61.3733 174.466 61.52 174.466 61.696C174.466 61.8793 174.403 62.0333 174.279 62.158C174.154 62.2753 174.004 62.334 173.828 62.334ZM173.366 69V63.544H174.29V69H173.366ZM177.989 69.132C177.336 69.132 176.793 68.967 176.361 68.637C175.928 68.307 175.675 67.8597 175.602 67.295H176.548C176.606 67.581 176.757 67.8303 176.999 68.043C177.248 68.2483 177.582 68.351 178 68.351C178.388 68.351 178.674 68.2703 178.858 68.109C179.041 67.9403 179.133 67.7423 179.133 67.515C179.133 67.185 179.012 66.965 178.77 66.855C178.535 66.745 178.201 66.646 177.769 66.558C177.475 66.4993 177.182 66.415 176.889 66.305C176.595 66.195 176.35 66.041 176.152 65.843C175.954 65.6377 175.855 65.37 175.855 65.04C175.855 64.5633 176.031 64.1747 176.383 63.874C176.742 63.566 177.226 63.412 177.835 63.412C178.414 63.412 178.887 63.5587 179.254 63.852C179.628 64.138 179.844 64.5487 179.903 65.084H178.99C178.953 64.8053 178.832 64.589 178.627 64.435C178.429 64.2737 178.161 64.193 177.824 64.193C177.494 64.193 177.237 64.2627 177.054 64.402C176.878 64.5413 176.79 64.7247 176.79 64.952C176.79 65.172 176.903 65.3443 177.131 65.469C177.365 65.5937 177.681 65.7 178.077 65.788C178.414 65.8613 178.733 65.953 179.034 66.063C179.342 66.1657 179.591 66.3233 179.782 66.536C179.98 66.7413 180.079 67.042 180.079 67.438C180.086 67.9293 179.899 68.3363 179.518 68.659C179.144 68.9743 178.634 69.132 177.989 69.132Z" fill="black"/>
</g>
<defs>
<filter id="filter0_d_162_5908" x="16" y="0" width="192" height="88" filterUnits="userSpaceOnUse" color-interpolation-filters="sRGB">
<feFlood flood-opacity="0" result="BackgroundImageFix"/>
<feColorMatrix in="SourceAlpha" type="matrix" values="0 0 0 0 0 0 0 0 0 0 0 0 0 0 0 0 0 0 127 0" result="hardAlpha"/>
<feOffset/>
<feGaussianBlur stdDeviation="4"/>
<feComposite in2="hardAlpha" operator="out"/>
<feColorMatrix type="matrix" values="0 0 0 0 0 0 0 0 0 0 0 0 0 0 0 0 0 0 0.15 0"/>
<feBlend mode="normal" in2="BackgroundImageFix" result="effect1_dropShadow_162_5908"/>
<feBlend mode="normal" in="SourceGraphic" in2="effect1_dropShadow_162_5908" result="shape"/>
</filter>
</defs>
</svg>
