<svg width="208" height="74" viewBox="0 0 208 74" fill="none" xmlns="http://www.w3.org/2000/svg">
<circle cx="4" cy="37" r="4" fill="#005271"/>
<line x1="8" y1="36.5" x2="24" y2="36.5" stroke="#005271" stroke-dasharray="2 2"/>
<g filter="url(#filter0_d_162_5926)">
<rect x="24" y="8" width="176" height="58" rx="4" fill="white" shape-rendering="crispEdges"/>
<path d="M35.597 27.132C35.069 27.132 34.5887 27.0293 34.156 26.824C33.7307 26.6113 33.3897 26.285 33.133 25.845C32.8763 25.405 32.748 24.844 32.748 24.162V19.3H33.672V24.173C33.672 24.921 33.8517 25.4637 34.211 25.801C34.5703 26.1383 35.0397 26.307 35.619 26.307C36.1983 26.307 36.664 26.1383 37.016 25.801C37.368 25.4637 37.544 24.921 37.544 24.173V19.3H38.468V24.162C38.468 24.844 38.3397 25.405 38.083 25.845C37.8263 26.285 37.4817 26.6113 37.049 26.824C36.6163 27.0293 36.1323 27.132 35.597 27.132ZM42.0678 27.132C41.4151 27.132 40.8724 26.967 40.4398 26.637C40.0071 26.307 39.7541 25.8597 39.6808 25.295H40.6268C40.6854 25.581 40.8358 25.8303 41.0778 26.043C41.3271 26.2483 41.6608 26.351 42.0788 26.351C42.4674 26.351 42.7534 26.2703 42.9368 26.109C43.1201 25.9403 43.2118 25.7423 43.2118 25.515C43.2118 25.185 43.0908 24.965 42.8488 24.855C42.6141 24.745 42.2804 24.646 41.8478 24.558C41.5544 24.4993 41.2611 24.415 40.9678 24.305C40.6744 24.195 40.4288 24.041 40.2308 23.843C40.0328 23.6377 39.9338 23.37 39.9338 23.04C39.9338 22.5633 40.1098 22.1747 40.4618 21.874C40.8211 21.566 41.3051 21.412 41.9138 21.412C42.4931 21.412 42.9661 21.5587 43.3328 21.852C43.7068 22.138 43.9231 22.5487 43.9818 23.084H43.0688C43.0321 22.8053 42.9111 22.589 42.7058 22.435C42.5078 22.2737 42.2401 22.193 41.9028 22.193C41.5728 22.193 41.3161 22.2627 41.1328 22.402C40.9568 22.5413 40.8688 22.7247 40.8688 22.952C40.8688 23.172 40.9824 23.3443 41.2098 23.469C41.4444 23.5937 41.7598 23.7 42.1558 23.788C42.4931 23.8613 42.8121 23.953 43.1128 24.063C43.4208 24.1657 43.6701 24.3233 43.8608 24.536C44.0588 24.7413 44.1578 25.042 44.1578 25.438C44.1651 25.9293 43.9781 26.3363 43.5968 26.659C43.2228 26.9743 42.7131 27.132 42.0678 27.132ZM47.9308 27.132C47.4101 27.132 46.9481 27.0147 46.5448 26.78C46.1414 26.538 45.8224 26.2043 45.5878 25.779C45.3604 25.3537 45.2468 24.8513 45.2468 24.272C45.2468 23.7 45.3604 23.2013 45.5878 22.776C45.8151 22.3433 46.1304 22.0097 46.5338 21.775C46.9444 21.533 47.4174 21.412 47.9527 21.412C48.4808 21.412 48.9354 21.533 49.3168 21.775C49.7054 22.0097 50.0024 22.3213 50.2078 22.71C50.4131 23.0987 50.5158 23.5167 50.5158 23.964C50.5158 24.0447 50.5121 24.1253 50.5048 24.206C50.5048 24.2867 50.5048 24.3783 50.5048 24.481H46.1598C46.1818 24.899 46.2771 25.2473 46.4458 25.526C46.6218 25.7973 46.8381 26.0027 47.0948 26.142C47.3588 26.2813 47.6374 26.351 47.9308 26.351C48.3121 26.351 48.6311 26.263 48.8878 26.087C49.1444 25.911 49.3314 25.6727 49.4488 25.372H50.3618C50.2151 25.878 49.9328 26.2997 49.5148 26.637C49.1041 26.967 48.5761 27.132 47.9308 27.132ZM47.9308 22.193C47.4908 22.193 47.0984 22.3287 46.7538 22.6C46.4164 22.864 46.2221 23.2527 46.1707 23.766H49.6028C49.5808 23.2747 49.4121 22.8897 49.0968 22.611C48.7814 22.3323 48.3928 22.193 47.9308 22.193ZM51.7404 27V21.544H52.5764L52.6534 22.589C52.8221 22.2297 53.0788 21.9437 53.4234 21.731C53.7681 21.5183 54.1934 21.412 54.6994 21.412V22.38H54.4464C54.1238 22.38 53.8268 22.4387 53.5554 22.556C53.2841 22.666 53.0678 22.8567 52.9064 23.128C52.7451 23.3993 52.6644 23.7733 52.6644 24.25V27H51.7404ZM57.8265 27.132C57.1739 27.132 56.6312 26.967 56.1985 26.637C55.7659 26.307 55.5129 25.8597 55.4395 25.295H56.3855C56.4442 25.581 56.5945 25.8303 56.8365 26.043C57.0859 26.2483 57.4195 26.351 57.8375 26.351C58.2262 26.351 58.5122 26.2703 58.6955 26.109C58.8789 25.9403 58.9705 25.7423 58.9705 25.515C58.9705 25.185 58.8495 24.965 58.6075 24.855C58.3729 24.745 58.0392 24.646 57.6065 24.558C57.3132 24.4993 57.0199 24.415 56.7265 24.305C56.4332 24.195 56.1875 24.041 55.9895 23.843C55.7915 23.6377 55.6925 23.37 55.6925 23.04C55.6925 22.5633 55.8685 22.1747 56.2205 21.874C56.5799 21.566 57.0639 21.412 57.6725 21.412C58.2519 21.412 58.7249 21.5587 59.0915 21.852C59.4655 22.138 59.6819 22.5487 59.7405 23.084H58.8275C58.7909 22.8053 58.6699 22.589 58.4645 22.435C58.2665 22.2737 57.9989 22.193 57.6615 22.193C57.3315 22.193 57.0749 22.2627 56.8915 22.402C56.7155 22.5413 56.6275 22.7247 56.6275 22.952C56.6275 23.172 56.7412 23.3443 56.9685 23.469C57.2032 23.5937 57.5185 23.7 57.9145 23.788C58.2519 23.8613 58.5709 23.953 58.8715 24.063C59.1795 24.1657 59.4289 24.3233 59.6195 24.536C59.8175 24.7413 59.9165 25.042 59.9165 25.438C59.9239 25.9293 59.7369 26.3363 59.3555 26.659C58.9815 26.9743 58.4719 27.132 57.8265 27.132ZM66.6557 27.132C66.135 27.132 65.6657 27.0147 65.2477 26.78C64.837 26.538 64.5107 26.2043 64.2687 25.779C64.034 25.3463 63.9167 24.844 63.9167 24.272C63.9167 23.7 64.034 23.2013 64.2687 22.776C64.5107 22.3433 64.837 22.0097 65.2477 21.775C65.6657 21.533 66.135 21.412 66.6557 21.412C67.301 21.412 67.8437 21.5807 68.2837 21.918C68.731 22.2553 69.0133 22.7063 69.1307 23.271H68.1847C68.1113 22.9337 67.9317 22.6733 67.6457 22.49C67.3597 22.2993 67.026 22.204 66.6447 22.204C66.3367 22.204 66.047 22.281 65.7757 22.435C65.5043 22.589 65.2843 22.82 65.1157 23.128C64.947 23.436 64.8627 23.8173 64.8627 24.272C64.8627 24.7267 64.947 25.108 65.1157 25.416C65.2843 25.724 65.5043 25.9587 65.7757 26.12C66.047 26.274 66.3367 26.351 66.6447 26.351C67.026 26.351 67.3597 26.2593 67.6457 26.076C67.9317 25.8853 68.1113 25.6177 68.1847 25.273H69.1307C69.0207 25.823 68.742 26.2703 68.2947 26.615C67.8473 26.9597 67.301 27.132 66.6557 27.132ZM72.2361 27.132C71.7814 27.132 71.4038 27.055 71.1031 26.901C70.8024 26.747 70.5788 26.5417 70.4321 26.285C70.2854 26.0283 70.2121 25.7497 70.2121 25.449C70.2121 24.8917 70.4248 24.4627 70.8501 24.162C71.2754 23.8613 71.8548 23.711 72.5881 23.711H74.0621V23.645C74.0621 23.1683 73.9374 22.809 73.6881 22.567C73.4388 22.3177 73.1051 22.193 72.6871 22.193C72.3278 22.193 72.0161 22.2847 71.7521 22.468C71.4954 22.644 71.3341 22.9043 71.2681 23.249H70.3221C70.3588 22.853 70.4908 22.5193 70.7181 22.248C70.9528 21.9767 71.2424 21.7713 71.5871 21.632C71.9318 21.4853 72.2984 21.412 72.6871 21.412C73.4498 21.412 74.0218 21.6173 74.4031 22.028C74.7918 22.4313 74.9861 22.9703 74.9861 23.645V27H74.1611L74.1061 26.021C73.9521 26.329 73.7248 26.593 73.4241 26.813C73.1308 27.0257 72.7348 27.132 72.2361 27.132ZM72.3791 26.351C72.7311 26.351 73.0318 26.2593 73.2811 26.076C73.5378 25.8927 73.7321 25.6543 73.8641 25.361C73.9961 25.0677 74.0621 24.7597 74.0621 24.437V24.426H72.6651C72.1224 24.426 71.7374 24.5213 71.5101 24.712C71.2901 24.8953 71.1801 25.1263 71.1801 25.405C71.1801 25.691 71.2828 25.922 71.4881 26.098C71.7008 26.2667 71.9978 26.351 72.3791 26.351ZM76.3723 27V21.544H77.2083L77.2633 22.523C77.4393 22.1783 77.6923 21.907 78.0223 21.709C78.3523 21.511 78.7263 21.412 79.1443 21.412C79.7896 21.412 80.3029 21.61 80.6843 22.006C81.0729 22.3947 81.2673 22.996 81.2673 23.81V27H80.3433V23.909C80.3433 22.7723 79.8739 22.204 78.9353 22.204C78.4659 22.204 78.0736 22.3763 77.7583 22.721C77.4503 23.0583 77.2963 23.5423 77.2963 24.173V27H76.3723ZM85.8753 27V22.325H85.0503V21.544H85.8753V20.598C85.8753 20.07 86.0073 19.685 86.2713 19.443C86.5353 19.201 86.9203 19.08 87.4263 19.08H87.9763V19.872H87.5693C87.2907 19.872 87.0927 19.9307 86.9753 20.048C86.858 20.158 86.7993 20.3487 86.7993 20.62V21.544H90.1873V27H89.2633V22.325H86.7993V27H85.8753ZM89.7363 20.499C89.5603 20.499 89.41 20.4403 89.2853 20.323C89.1607 20.1983 89.0983 20.0443 89.0983 19.861C89.0983 19.685 89.1607 19.5383 89.2853 19.421C89.41 19.3037 89.5603 19.245 89.7363 19.245C89.9197 19.245 90.07 19.3037 90.1873 19.421C90.312 19.5383 90.3743 19.685 90.3743 19.861C90.3743 20.0443 90.312 20.1983 90.1873 20.323C90.07 20.4403 89.9197 20.499 89.7363 20.499ZM91.8195 27V21.544H92.6555L92.7105 22.523C92.8865 22.1783 93.1395 21.907 93.4695 21.709C93.7995 21.511 94.1735 21.412 94.5915 21.412C95.2369 21.412 95.7502 21.61 96.1315 22.006C96.5202 22.3947 96.7145 22.996 96.7145 23.81V27H95.7905V23.909C95.7905 22.7723 95.3212 22.204 94.3825 22.204C93.9132 22.204 93.5209 22.3763 93.2055 22.721C92.8975 23.0583 92.7435 23.5423 92.7435 24.173V27H91.8195ZM100.589 27.132C100.047 27.132 99.5701 27.0073 99.1595 26.758C98.7561 26.5087 98.4408 26.1677 98.2135 25.735C97.9935 25.3023 97.8835 24.811 97.8835 24.261C97.8835 23.711 97.9971 23.2233 98.2245 22.798C98.4518 22.3653 98.7671 22.028 99.1705 21.786C99.5738 21.5367 100.05 21.412 100.6 21.412C101.048 21.412 101.444 21.5037 101.788 21.687C102.133 21.8703 102.401 22.127 102.591 22.457V19.08H103.515V27H102.679L102.591 26.098C102.415 26.362 102.162 26.6003 101.832 26.813C101.502 27.0257 101.088 27.132 100.589 27.132ZM100.688 26.329C101.055 26.329 101.378 26.2447 101.656 26.076C101.942 25.9 102.162 25.658 102.316 25.35C102.478 25.042 102.558 24.6827 102.558 24.272C102.558 23.8613 102.478 23.502 102.316 23.194C102.162 22.886 101.942 22.6477 101.656 22.479C101.378 22.303 101.055 22.215 100.688 22.215C100.329 22.215 100.006 22.303 99.7205 22.479C99.4418 22.6477 99.2218 22.886 99.0605 23.194C98.9065 23.502 98.8295 23.8613 98.8295 24.272C98.8295 24.6827 98.9065 25.042 99.0605 25.35C99.2218 25.658 99.4418 25.9 99.7205 26.076C100.006 26.2447 100.329 26.329 100.688 26.329ZM109.748 27.132C109.293 27.132 108.915 27.055 108.615 26.901C108.314 26.747 108.09 26.5417 107.944 26.285C107.797 26.0283 107.724 25.7497 107.724 25.449C107.724 24.8917 107.936 24.4627 108.362 24.162C108.787 23.8613 109.366 23.711 110.1 23.711H111.574V23.645C111.574 23.1683 111.449 22.809 111.2 22.567C110.95 22.3177 110.617 22.193 110.199 22.193C109.839 22.193 109.528 22.2847 109.264 22.468C109.007 22.644 108.846 22.9043 108.78 23.249H107.834C107.87 22.853 108.002 22.5193 108.23 22.248C108.464 21.9767 108.754 21.7713 109.099 21.632C109.443 21.4853 109.81 21.412 110.199 21.412C110.961 21.412 111.533 21.6173 111.915 22.028C112.303 22.4313 112.498 22.9703 112.498 23.645V27H111.673L111.618 26.021C111.464 26.329 111.236 26.593 110.936 26.813C110.642 27.0257 110.246 27.132 109.748 27.132ZM109.891 26.351C110.243 26.351 110.543 26.2593 110.793 26.076C111.049 25.8927 111.244 25.6543 111.376 25.361C111.508 25.0677 111.574 24.7597 111.574 24.437V24.426H110.177C109.634 24.426 109.249 24.5213 109.022 24.712C108.802 24.8953 108.692 25.1263 108.692 25.405C108.692 25.691 108.794 25.922 109 26.098C109.212 26.2667 109.509 26.351 109.891 26.351ZM113.884 27V21.544H114.72L114.775 22.523C114.951 22.1783 115.204 21.907 115.534 21.709C115.864 21.511 116.238 21.412 116.656 21.412C117.301 21.412 117.815 21.61 118.196 22.006C118.585 22.3947 118.779 22.996 118.779 23.81V27H117.855V23.909C117.855 22.7723 117.386 22.204 116.447 22.204C115.978 22.204 115.585 22.3763 115.27 22.721C114.962 23.0583 114.808 23.5423 114.808 24.173V27H113.884ZM122.269 27.132C121.616 27.132 121.074 26.967 120.641 26.637C120.208 26.307 119.955 25.8597 119.882 25.295H120.828C120.887 25.581 121.037 25.8303 121.279 26.043C121.528 26.2483 121.862 26.351 122.28 26.351C122.669 26.351 122.955 26.2703 123.138 26.109C123.321 25.9403 123.413 25.7423 123.413 25.515C123.413 25.185 123.292 24.965 123.05 24.855C122.815 24.745 122.482 24.646 122.049 24.558C121.756 24.4993 121.462 24.415 121.169 24.305C120.876 24.195 120.63 24.041 120.432 23.843C120.234 23.6377 120.135 23.37 120.135 23.04C120.135 22.5633 120.311 22.1747 120.663 21.874C121.022 21.566 121.506 21.412 122.115 21.412C122.694 21.412 123.167 21.5587 123.534 21.852C123.908 22.138 124.124 22.5487 124.183 23.084H123.27C123.233 22.8053 123.112 22.589 122.907 22.435C122.709 22.2737 122.441 22.193 122.104 22.193C121.774 22.193 121.517 22.2627 121.334 22.402C121.158 22.5413 121.07 22.7247 121.07 22.952C121.07 23.172 121.184 23.3443 121.411 23.469C121.646 23.5937 121.961 23.7 122.357 23.788C122.694 23.8613 123.013 23.953 123.314 24.063C123.622 24.1657 123.871 24.3233 124.062 24.536C124.26 24.7413 124.359 25.042 124.359 25.438C124.366 25.9293 124.179 26.3363 123.798 26.659C123.424 26.9743 122.914 27.132 122.269 27.132ZM126.575 27L124.98 21.544H125.904L127.059 25.823L128.335 21.544H129.38L130.667 25.823L131.811 21.544H132.746L131.151 27H130.205L128.863 22.501L127.521 27H126.575ZM136.017 27.132C135.496 27.132 135.034 27.0147 134.631 26.78C134.227 26.538 133.908 26.2043 133.674 25.779C133.446 25.3537 133.333 24.8513 133.333 24.272C133.333 23.7 133.446 23.2013 133.674 22.776C133.901 22.3433 134.216 22.0097 134.62 21.775C135.03 21.533 135.503 21.412 136.039 21.412C136.567 21.412 137.021 21.533 137.403 21.775C137.791 22.0097 138.088 22.3213 138.294 22.71C138.499 23.0987 138.602 23.5167 138.602 23.964C138.602 24.0447 138.598 24.1253 138.591 24.206C138.591 24.2867 138.591 24.3783 138.591 24.481H134.246C134.268 24.899 134.363 25.2473 134.532 25.526C134.708 25.7973 134.924 26.0027 135.181 26.142C135.445 26.2813 135.723 26.351 136.017 26.351C136.398 26.351 136.717 26.263 136.974 26.087C137.23 25.911 137.417 25.6727 137.535 25.372H138.448C138.301 25.878 138.019 26.2997 137.601 26.637C137.19 26.967 136.662 27.132 136.017 27.132ZM136.017 22.193C135.577 22.193 135.184 22.3287 134.84 22.6C134.502 22.864 134.308 23.2527 134.257 23.766H137.689C137.667 23.2747 137.498 22.8897 137.183 22.611C136.867 22.3323 136.479 22.193 136.017 22.193ZM139.826 27V21.544H140.662L140.739 22.589C140.908 22.2297 141.165 21.9437 141.509 21.731C141.854 21.5183 142.279 21.412 142.785 21.412V22.38H142.532C142.21 22.38 141.913 22.4387 141.641 22.556C141.37 22.666 141.154 22.8567 140.992 23.128C140.831 23.3993 140.75 23.7733 140.75 24.25V27H139.826ZM145.912 27.132C145.26 27.132 144.717 26.967 144.284 26.637C143.852 26.307 143.599 25.8597 143.525 25.295H144.471C144.53 25.581 144.68 25.8303 144.922 26.043C145.172 26.2483 145.505 26.351 145.923 26.351C146.312 26.351 146.598 26.2703 146.781 26.109C146.965 25.9403 147.056 25.7423 147.056 25.515C147.056 25.185 146.935 24.965 146.693 24.855C146.459 24.745 146.125 24.646 145.692 24.558C145.399 24.4993 145.106 24.415 144.812 24.305C144.519 24.195 144.273 24.041 144.075 23.843C143.877 23.6377 143.778 23.37 143.778 23.04C143.778 22.5633 143.954 22.1747 144.306 21.874C144.666 21.566 145.15 21.412 145.758 21.412C146.338 21.412 146.811 21.5587 147.177 21.852C147.551 22.138 147.768 22.5487 147.826 23.084H146.913C146.877 22.8053 146.756 22.589 146.55 22.435C146.352 22.2737 146.085 22.193 145.747 22.193C145.417 22.193 145.161 22.2627 144.977 22.402C144.801 22.5413 144.713 22.7247 144.713 22.952C144.713 23.172 144.827 23.3443 145.054 23.469C145.289 23.5937 145.604 23.7 146 23.788C146.338 23.8613 146.657 23.953 146.957 24.063C147.265 24.1657 147.515 24.3233 147.705 24.536C147.903 24.7413 148.002 25.042 148.002 25.438C148.01 25.9293 147.823 26.3363 147.441 26.659C147.067 26.9743 146.558 27.132 145.912 27.132ZM154.39 27C153.891 27 153.499 26.879 153.213 26.637C152.927 26.395 152.784 25.9587 152.784 25.328V22.325H151.838V21.544H152.784L152.905 20.235H153.708V21.544H155.314V22.325H153.708V25.328C153.708 25.6727 153.777 25.9073 153.917 26.032C154.056 26.1493 154.302 26.208 154.654 26.208H155.226V27H154.39ZM158.823 27.132C158.31 27.132 157.848 27.0147 157.437 26.78C157.026 26.5453 156.7 26.2153 156.458 25.79C156.223 25.3573 156.106 24.8513 156.106 24.272C156.106 23.6927 156.227 23.1903 156.469 22.765C156.711 22.3323 157.037 21.9987 157.448 21.764C157.866 21.5293 158.332 21.412 158.845 21.412C159.358 21.412 159.82 21.5293 160.231 21.764C160.642 21.9987 160.964 22.3323 161.199 22.765C161.441 23.1903 161.562 23.6927 161.562 24.272C161.562 24.8513 161.441 25.3573 161.199 25.79C160.957 26.2153 160.627 26.5453 160.209 26.78C159.798 27.0147 159.336 27.132 158.823 27.132ZM158.823 26.34C159.138 26.34 159.432 26.263 159.703 26.109C159.974 25.955 160.194 25.724 160.363 25.416C160.532 25.108 160.616 24.7267 160.616 24.272C160.616 23.8173 160.532 23.436 160.363 23.128C160.202 22.82 159.985 22.589 159.714 22.435C159.443 22.281 159.153 22.204 158.845 22.204C158.53 22.204 158.236 22.281 157.965 22.435C157.694 22.589 157.474 22.82 157.305 23.128C157.136 23.436 157.052 23.8173 157.052 24.272C157.052 24.7267 157.136 25.108 157.305 25.416C157.474 25.724 157.69 25.955 157.954 26.109C158.225 26.263 158.515 26.34 158.823 26.34ZM35.267 41.132C34.7463 41.132 34.277 41.0147 33.859 40.78C33.4483 40.538 33.122 40.2043 32.88 39.779C32.6453 39.3463 32.528 38.844 32.528 38.272C32.528 37.7 32.6453 37.2013 32.88 36.776C33.122 36.3433 33.4483 36.0097 33.859 35.775C34.277 35.533 34.7463 35.412 35.267 35.412C35.9123 35.412 36.455 35.5807 36.895 35.918C37.3423 36.2553 37.6247 36.7063 37.742 37.271H36.796C36.7227 36.9337 36.543 36.6733 36.257 36.49C35.971 36.2993 35.6373 36.204 35.256 36.204C34.948 36.204 34.6583 36.281 34.387 36.435C34.1157 36.589 33.8957 36.82 33.727 37.128C33.5583 37.436 33.474 37.8173 33.474 38.272C33.474 38.7267 33.5583 39.108 33.727 39.416C33.8957 39.724 34.1157 39.9587 34.387 40.12C34.6583 40.274 34.948 40.351 35.256 40.351C35.6373 40.351 35.971 40.2593 36.257 40.076C36.543 39.8853 36.7227 39.6177 36.796 39.273H37.742C37.632 39.823 37.3533 40.2703 36.906 40.615C36.4587 40.9597 35.9123 41.132 35.267 41.132ZM41.5184 41.132C41.0051 41.132 40.5431 41.0147 40.1324 40.78C39.7218 40.5453 39.3954 40.2153 39.1534 39.79C38.9188 39.3573 38.8014 38.8513 38.8014 38.272C38.8014 37.6927 38.9224 37.1903 39.1644 36.765C39.4064 36.3323 39.7328 35.9987 40.1434 35.764C40.5614 35.5293 41.0271 35.412 41.5404 35.412C42.0538 35.412 42.5158 35.5293 42.9264 35.764C43.3371 35.9987 43.6598 36.3323 43.8944 36.765C44.1364 37.1903 44.2574 37.6927 44.2574 38.272C44.2574 38.8513 44.1364 39.3573 43.8944 39.79C43.6524 40.2153 43.3224 40.5453 42.9044 40.78C42.4938 41.0147 42.0318 41.132 41.5184 41.132ZM41.5184 40.34C41.8338 40.34 42.1271 40.263 42.3984 40.109C42.6698 39.955 42.8898 39.724 43.0584 39.416C43.2271 39.108 43.3114 38.7267 43.3114 38.272C43.3114 37.8173 43.2271 37.436 43.0584 37.128C42.8971 36.82 42.6808 36.589 42.4094 36.435C42.1381 36.281 41.8484 36.204 41.5404 36.204C41.2251 36.204 40.9318 36.281 40.6604 36.435C40.3891 36.589 40.1691 36.82 40.0004 37.128C39.8318 37.436 39.7474 37.8173 39.7474 38.272C39.7474 38.7267 39.8318 39.108 40.0004 39.416C40.1691 39.724 40.3854 39.955 40.6494 40.109C40.9208 40.263 41.2104 40.34 41.5184 40.34ZM45.5422 41V35.544H46.3782L46.4442 36.336C46.6202 36.0427 46.8549 35.8153 47.1482 35.654C47.4415 35.4927 47.7715 35.412 48.1382 35.412C48.5709 35.412 48.9412 35.5 49.2492 35.676C49.5645 35.852 49.8065 36.1197 49.9752 36.479C50.1659 36.149 50.4262 35.8887 50.7562 35.698C51.0935 35.5073 51.4565 35.412 51.8452 35.412C52.4979 35.412 53.0185 35.61 53.4072 36.006C53.7959 36.3947 53.9902 36.996 53.9902 37.81V41H53.0772V37.909C53.0772 37.3443 52.9635 36.919 52.7362 36.633C52.5089 36.347 52.1825 36.204 51.7572 36.204C51.3172 36.204 50.9505 36.3763 50.6572 36.721C50.3712 37.0583 50.2282 37.5423 50.2282 38.173V41H49.3042V37.909C49.3042 37.3443 49.1905 36.919 48.9632 36.633C48.7359 36.347 48.4095 36.204 47.9842 36.204C47.5515 36.204 47.1885 36.3763 46.8952 36.721C46.6092 37.0583 46.4662 37.5423 46.4662 38.173V41H45.5422ZM55.382 41V35.544H56.218L56.284 36.336C56.46 36.0427 56.6947 35.8153 56.988 35.654C57.2814 35.4927 57.6114 35.412 57.978 35.412C58.4107 35.412 58.781 35.5 59.089 35.676C59.4044 35.852 59.6464 36.1197 59.815 36.479C60.0057 36.149 60.266 35.8887 60.596 35.698C60.9334 35.5073 61.2964 35.412 61.685 35.412C62.3377 35.412 62.8584 35.61 63.247 36.006C63.6357 36.3947 63.83 36.996 63.83 37.81V41H62.917V37.909C62.917 37.3443 62.8034 36.919 62.576 36.633C62.3487 36.347 62.0224 36.204 61.597 36.204C61.157 36.204 60.7904 36.3763 60.497 36.721C60.211 37.0583 60.068 37.5423 60.068 38.173V41H59.144V37.909C59.144 37.3443 59.0304 36.919 58.803 36.633C58.5757 36.347 58.2494 36.204 57.824 36.204C57.3914 36.204 57.0284 36.3763 56.735 36.721C56.449 37.0583 56.306 37.5423 56.306 38.173V41H55.382ZM67.7079 41.132C67.1946 41.132 66.7326 41.0147 66.3219 40.78C65.9112 40.5453 65.5849 40.2153 65.3429 39.79C65.1082 39.3573 64.9909 38.8513 64.9909 38.272C64.9909 37.6927 65.1119 37.1903 65.3539 36.765C65.5959 36.3323 65.9222 35.9987 66.3329 35.764C66.7509 35.5293 67.2166 35.412 67.7299 35.412C68.2432 35.412 68.7052 35.5293 69.1159 35.764C69.5266 35.9987 69.8492 36.3323 70.0839 36.765C70.3259 37.1903 70.4469 37.6927 70.4469 38.272C70.4469 38.8513 70.3259 39.3573 70.0839 39.79C69.8419 40.2153 69.5119 40.5453 69.0939 40.78C68.6832 41.0147 68.2212 41.132 67.7079 41.132ZM67.7079 40.34C68.0232 40.34 68.3166 40.263 68.5879 40.109C68.8592 39.955 69.0792 39.724 69.2479 39.416C69.4166 39.108 69.5009 38.7267 69.5009 38.272C69.5009 37.8173 69.4166 37.436 69.2479 37.128C69.0866 36.82 68.8702 36.589 68.5989 36.435C68.3276 36.281 68.0379 36.204 67.7299 36.204C67.4146 36.204 67.1212 36.281 66.8499 36.435C66.5786 36.589 66.3586 36.82 66.1899 37.128C66.0212 37.436 65.9369 37.8173 65.9369 38.272C65.9369 38.7267 66.0212 39.108 66.1899 39.416C66.3586 39.724 66.5749 39.955 66.8389 40.109C67.1102 40.263 67.3999 40.34 67.7079 40.34ZM71.7317 41V35.544H72.5677L72.6227 36.523C72.7987 36.1783 73.0517 35.907 73.3817 35.709C73.7117 35.511 74.0857 35.412 74.5037 35.412C75.149 35.412 75.6623 35.61 76.0437 36.006C76.4323 36.3947 76.6267 36.996 76.6267 37.81V41H75.7027V37.909C75.7027 36.7723 75.2333 36.204 74.2947 36.204C73.8253 36.204 73.433 36.3763 73.1177 36.721C72.8097 37.0583 72.6557 37.5423 72.6557 38.173V41H71.7317ZM85.4147 43.42V40.098C85.2387 40.362 84.9857 40.6003 84.6557 40.813C84.3257 41.0257 83.9114 41.132 83.4127 41.132C82.87 41.132 82.3934 41.0073 81.9827 40.758C81.5794 40.5087 81.264 40.1677 81.0367 39.735C80.8167 39.3023 80.7067 38.811 80.7067 38.261C80.7067 37.711 80.8204 37.2233 81.0477 36.798C81.275 36.3653 81.5904 36.028 81.9937 35.786C82.397 35.5367 82.8737 35.412 83.4237 35.412C83.871 35.412 84.267 35.5037 84.6117 35.687C84.9564 35.8703 85.224 36.127 85.4147 36.457L85.5027 35.544H86.3387V43.42H85.4147ZM83.5117 40.329C83.8784 40.329 84.201 40.2447 84.4797 40.076C84.7657 39.9 84.9857 39.658 85.1397 39.35C85.301 39.042 85.3817 38.6827 85.3817 38.272C85.3817 37.8613 85.301 37.502 85.1397 37.194C84.9857 36.886 84.7657 36.6477 84.4797 36.479C84.201 36.303 83.8784 36.215 83.5117 36.215C83.1524 36.215 82.8297 36.303 82.5437 36.479C82.265 36.6477 82.045 36.886 81.8837 37.194C81.7297 37.502 81.6527 37.8613 81.6527 38.272C81.6527 38.6827 81.7297 39.042 81.8837 39.35C82.045 39.658 82.265 39.9 82.5437 40.076C82.8297 40.2447 83.1524 40.329 83.5117 40.329ZM89.8359 41.132C89.1906 41.132 88.6773 40.9377 88.2959 40.549C87.9146 40.153 87.7239 39.548 87.7239 38.734V35.544H88.6479V38.635C88.6479 39.7717 89.1136 40.34 90.0449 40.34C90.5216 40.34 90.9139 40.1713 91.2219 39.834C91.5373 39.4893 91.6949 39.0017 91.6949 38.371V35.544H92.6189V41H91.7829L91.7169 40.021C91.5483 40.3657 91.2953 40.637 90.9579 40.835C90.6279 41.033 90.2539 41.132 89.8359 41.132ZM96.5929 41.132C96.0722 41.132 95.6102 41.0147 95.2069 40.78C94.8035 40.538 94.4845 40.2043 94.2499 39.779C94.0225 39.3537 93.9089 38.8513 93.9089 38.272C93.9089 37.7 94.0225 37.2013 94.2499 36.776C94.4772 36.3433 94.7925 36.0097 95.1959 35.775C95.6065 35.533 96.0795 35.412 96.6149 35.412C97.1429 35.412 97.5975 35.533 97.9789 35.775C98.3675 36.0097 98.6645 36.3213 98.8699 36.71C99.0752 37.0987 99.1779 37.5167 99.1779 37.964C99.1779 38.0447 99.1742 38.1253 99.1669 38.206C99.1669 38.2867 99.1669 38.3783 99.1669 38.481H94.8219C94.8439 38.899 94.9392 39.2473 95.1079 39.526C95.2839 39.7973 95.5002 40.0027 95.7569 40.142C96.0209 40.2813 96.2995 40.351 96.5929 40.351C96.9742 40.351 97.2932 40.263 97.5499 40.087C97.8065 39.911 97.9935 39.6727 98.1109 39.372H99.0239C98.8772 39.878 98.5949 40.2997 98.1769 40.637C97.7662 40.967 97.2382 41.132 96.5929 41.132ZM96.5929 36.193C96.1529 36.193 95.7605 36.3287 95.4159 36.6C95.0785 36.864 94.8842 37.2527 94.8329 37.766H98.2649C98.2429 37.2747 98.0742 36.8897 97.7589 36.611C97.4435 36.3323 97.0549 36.193 96.5929 36.193ZM102.493 41.132C101.84 41.132 101.297 40.967 100.865 40.637C100.432 40.307 100.179 39.8597 100.106 39.295H101.052C101.11 39.581 101.261 39.8303 101.503 40.043C101.752 40.2483 102.086 40.351 102.504 40.351C102.892 40.351 103.178 40.2703 103.362 40.109C103.545 39.9403 103.637 39.7423 103.637 39.515C103.637 39.185 103.516 38.965 103.274 38.855C103.039 38.745 102.705 38.646 102.273 38.558C101.979 38.4993 101.686 38.415 101.393 38.305C101.099 38.195 100.854 38.041 100.656 37.843C100.458 37.6377 100.359 37.37 100.359 37.04C100.359 36.5633 100.535 36.1747 100.887 35.874C101.246 35.566 101.73 35.412 102.339 35.412C102.918 35.412 103.391 35.5587 103.758 35.852C104.132 36.138 104.348 36.5487 104.407 37.084H103.494C103.457 36.8053 103.336 36.589 103.131 36.435C102.933 36.2737 102.665 36.193 102.328 36.193C101.998 36.193 101.741 36.2627 101.558 36.402C101.382 36.5413 101.294 36.7247 101.294 36.952C101.294 37.172 101.407 37.3443 101.635 37.469C101.869 37.5937 102.185 37.7 102.581 37.788C102.918 37.8613 103.237 37.953 103.538 38.063C103.846 38.1657 104.095 38.3233 104.286 38.536C104.484 38.7413 104.583 39.042 104.583 39.438C104.59 39.9293 104.403 40.3363 104.022 40.659C103.648 40.9743 103.138 41.132 102.493 41.132ZM107.811 41C107.313 41 106.92 40.879 106.634 40.637C106.348 40.395 106.205 39.9587 106.205 39.328V36.325H105.259V35.544H106.205L106.326 34.235H107.129V35.544H108.735V36.325H107.129V39.328C107.129 39.6727 107.199 39.9073 107.338 40.032C107.478 40.1493 107.723 40.208 108.075 40.208H108.647V41H107.811ZM110.47 34.334C110.287 34.334 110.133 34.2753 110.008 34.158C109.891 34.0333 109.832 33.8793 109.832 33.696C109.832 33.52 109.891 33.3733 110.008 33.256C110.133 33.1387 110.287 33.08 110.47 33.08C110.646 33.08 110.797 33.1387 110.921 33.256C111.046 33.3733 111.108 33.52 111.108 33.696C111.108 33.8793 111.046 34.0333 110.921 34.158C110.797 34.2753 110.646 34.334 110.47 34.334ZM110.008 41V35.544H110.932V41H110.008ZM115.027 41.132C114.514 41.132 114.052 41.0147 113.641 40.78C113.231 40.5453 112.904 40.2153 112.662 39.79C112.428 39.3573 112.31 38.8513 112.31 38.272C112.31 37.6927 112.431 37.1903 112.673 36.765C112.915 36.3323 113.242 35.9987 113.652 35.764C114.07 35.5293 114.536 35.412 115.049 35.412C115.563 35.412 116.025 35.5293 116.435 35.764C116.846 35.9987 117.169 36.3323 117.403 36.765C117.645 37.1903 117.766 37.6927 117.766 38.272C117.766 38.8513 117.645 39.3573 117.403 39.79C117.161 40.2153 116.831 40.5453 116.413 40.78C116.003 41.0147 115.541 41.132 115.027 41.132ZM115.027 40.34C115.343 40.34 115.636 40.263 115.907 40.109C116.179 39.955 116.399 39.724 116.567 39.416C116.736 39.108 116.82 38.7267 116.82 38.272C116.82 37.8173 116.736 37.436 116.567 37.128C116.406 36.82 116.19 36.589 115.918 36.435C115.647 36.281 115.357 36.204 115.049 36.204C114.734 36.204 114.441 36.281 114.169 36.435C113.898 36.589 113.678 36.82 113.509 37.128C113.341 37.436 113.256 37.8173 113.256 38.272C113.256 38.7267 113.341 39.108 113.509 39.416C113.678 39.724 113.894 39.955 114.158 40.109C114.43 40.263 114.719 40.34 115.027 40.34ZM119.051 41V35.544H119.887L119.942 36.523C120.118 36.1783 120.371 35.907 120.701 35.709C121.031 35.511 121.405 35.412 121.823 35.412C122.468 35.412 122.982 35.61 123.363 36.006C123.752 36.3947 123.946 36.996 123.946 37.81V41H123.022V37.909C123.022 36.7723 122.553 36.204 121.614 36.204C121.145 36.204 120.752 36.3763 120.437 36.721C120.129 37.0583 119.975 37.5423 119.975 38.173V41H119.051ZM127.436 41.132C126.783 41.132 126.241 40.967 125.808 40.637C125.375 40.307 125.122 39.8597 125.049 39.295H125.995C126.054 39.581 126.204 39.8303 126.446 40.043C126.695 40.2483 127.029 40.351 127.447 40.351C127.836 40.351 128.122 40.2703 128.305 40.109C128.488 39.9403 128.58 39.7423 128.58 39.515C128.58 39.185 128.459 38.965 128.217 38.855C127.982 38.745 127.649 38.646 127.216 38.558C126.923 38.4993 126.629 38.415 126.336 38.305C126.043 38.195 125.797 38.041 125.599 37.843C125.401 37.6377 125.302 37.37 125.302 37.04C125.302 36.5633 125.478 36.1747 125.83 35.874C126.189 35.566 126.673 35.412 127.282 35.412C127.861 35.412 128.334 35.5587 128.701 35.852C129.075 36.138 129.291 36.5487 129.35 37.084H128.437C128.4 36.8053 128.279 36.589 128.074 36.435C127.876 36.2737 127.608 36.193 127.271 36.193C126.941 36.193 126.684 36.2627 126.501 36.402C126.325 36.5413 126.237 36.7247 126.237 36.952C126.237 37.172 126.351 37.3443 126.578 37.469C126.813 37.5937 127.128 37.7 127.524 37.788C127.861 37.8613 128.18 37.953 128.481 38.063C128.789 38.1657 129.038 38.3233 129.229 38.536C129.427 38.7413 129.526 39.042 129.526 39.438C129.533 39.9293 129.346 40.3363 128.965 40.659C128.591 40.9743 128.081 41.132 127.436 41.132ZM135.913 41C135.414 41 135.022 40.879 134.736 40.637C134.45 40.395 134.307 39.9587 134.307 39.328V36.325H133.361V35.544H134.307L134.428 34.235H135.231V35.544H136.837V36.325H135.231V39.328C135.231 39.6727 135.301 39.9073 135.44 40.032C135.579 40.1493 135.825 40.208 136.177 40.208H136.749V41H135.913ZM138.011 41V33.08H138.935V36.479C139.118 36.1417 139.379 35.8813 139.716 35.698C140.053 35.5073 140.42 35.412 140.816 35.412C141.447 35.412 141.953 35.61 142.334 36.006C142.715 36.3947 142.906 36.996 142.906 37.81V41H141.993V37.909C141.993 36.7723 141.535 36.204 140.618 36.204C140.141 36.204 139.742 36.3763 139.419 36.721C139.096 37.0583 138.935 37.5423 138.935 38.173V41H138.011ZM146.759 41.132C146.238 41.132 145.776 41.0147 145.373 40.78C144.97 40.538 144.651 40.2043 144.416 39.779C144.189 39.3537 144.075 38.8513 144.075 38.272C144.075 37.7 144.189 37.2013 144.416 36.776C144.643 36.3433 144.959 36.0097 145.362 35.775C145.773 35.533 146.246 35.412 146.781 35.412C147.309 35.412 147.764 35.533 148.145 35.775C148.534 36.0097 148.831 36.3213 149.036 36.71C149.241 37.0987 149.344 37.5167 149.344 37.964C149.344 38.0447 149.34 38.1253 149.333 38.206C149.333 38.2867 149.333 38.3783 149.333 38.481H144.988C145.01 38.899 145.105 39.2473 145.274 39.526C145.45 39.7973 145.666 40.0027 145.923 40.142C146.187 40.2813 146.466 40.351 146.759 40.351C147.14 40.351 147.459 40.263 147.716 40.087C147.973 39.911 148.16 39.6727 148.277 39.372H149.19C149.043 39.878 148.761 40.2997 148.343 40.637C147.932 40.967 147.404 41.132 146.759 41.132ZM146.759 36.193C146.319 36.193 145.927 36.3287 145.582 36.6C145.245 36.864 145.05 37.2527 144.999 37.766H148.431C148.409 37.2747 148.24 36.8897 147.925 36.611C147.61 36.3323 147.221 36.193 146.759 36.193ZM150.948 43.42L152.301 40.472H151.982L149.815 35.544H150.816L152.62 39.79L154.534 35.544H155.491L151.916 43.42H150.948ZM159.377 41V35.544H160.213L160.279 36.336C160.455 36.0427 160.69 35.8153 160.983 35.654C161.276 35.4927 161.606 35.412 161.973 35.412C162.406 35.412 162.776 35.5 163.084 35.676C163.399 35.852 163.641 36.1197 163.81 36.479C164.001 36.149 164.261 35.8887 164.591 35.698C164.928 35.5073 165.291 35.412 165.68 35.412C166.333 35.412 166.853 35.61 167.242 36.006C167.631 36.3947 167.825 36.996 167.825 37.81V41H166.912V37.909C166.912 37.3443 166.798 36.919 166.571 36.633C166.344 36.347 166.017 36.204 165.592 36.204C165.152 36.204 164.785 36.3763 164.492 36.721C164.206 37.0583 164.063 37.5423 164.063 38.173V41H163.139V37.909C163.139 37.3443 163.025 36.919 162.798 36.633C162.571 36.347 162.244 36.204 161.819 36.204C161.386 36.204 161.023 36.3763 160.73 36.721C160.444 37.0583 160.301 37.5423 160.301 38.173V41H159.377ZM171.032 41.132C170.577 41.132 170.2 41.055 169.899 40.901C169.598 40.747 169.375 40.5417 169.228 40.285C169.081 40.0283 169.008 39.7497 169.008 39.449C169.008 38.8917 169.221 38.4627 169.646 38.162C170.071 37.8613 170.651 37.711 171.384 37.711H172.858V37.645C172.858 37.1683 172.733 36.809 172.484 36.567C172.235 36.3177 171.901 36.193 171.483 36.193C171.124 36.193 170.812 36.2847 170.548 36.468C170.291 36.644 170.13 36.9043 170.064 37.249H169.118C169.155 36.853 169.287 36.5193 169.514 36.248C169.749 35.9767 170.038 35.7713 170.383 35.632C170.728 35.4853 171.094 35.412 171.483 35.412C172.246 35.412 172.818 35.6173 173.199 36.028C173.588 36.4313 173.782 36.9703 173.782 37.645V41H172.957L172.902 40.021C172.748 40.329 172.521 40.593 172.22 40.813C171.927 41.0257 171.531 41.132 171.032 41.132ZM171.175 40.351C171.527 40.351 171.828 40.2593 172.077 40.076C172.334 39.8927 172.528 39.6543 172.66 39.361C172.792 39.0677 172.858 38.7597 172.858 38.437V38.426H171.461C170.918 38.426 170.533 38.5213 170.306 38.712C170.086 38.8953 169.976 39.1263 169.976 39.405C169.976 39.691 170.079 39.922 170.284 40.098C170.497 40.2667 170.794 40.351 171.175 40.351ZM175.601 43.42L176.954 40.472H176.635L174.468 35.544H175.469L177.273 39.79L179.187 35.544H180.144L176.569 43.42H175.601ZM32.759 55V47.08H33.683V50.479C33.8663 50.1417 34.1267 49.8813 34.464 49.698C34.8013 49.5073 35.168 49.412 35.564 49.412C36.1947 49.412 36.7007 49.61 37.082 50.006C37.4633 50.3947 37.654 50.996 37.654 51.81V55H36.741V51.909C36.741 50.7723 36.2827 50.204 35.366 50.204C34.8893 50.204 34.4897 50.3763 34.167 50.721C33.8443 51.0583 33.683 51.5423 33.683 52.173V55H32.759ZM40.8689 55.132C40.4143 55.132 40.0366 55.055 39.7359 54.901C39.4353 54.747 39.2116 54.5417 39.0649 54.285C38.9183 54.0283 38.8449 53.7497 38.8449 53.449C38.8449 52.8917 39.0576 52.4627 39.4829 52.162C39.9083 51.8613 40.4876 51.711 41.2209 51.711H42.6949V51.645C42.6949 51.1683 42.5703 50.809 42.3209 50.567C42.0716 50.3177 41.7379 50.193 41.3199 50.193C40.9606 50.193 40.6489 50.2847 40.3849 50.468C40.1283 50.644 39.9669 50.9043 39.9009 51.249H38.9549C38.9916 50.853 39.1236 50.5193 39.3509 50.248C39.5856 49.9767 39.8753 49.7713 40.2199 49.632C40.5646 49.4853 40.9313 49.412 41.3199 49.412C42.0826 49.412 42.6546 49.6173 43.0359 50.028C43.4246 50.4313 43.6189 50.9703 43.6189 51.645V55H42.7939L42.7389 54.021C42.5849 54.329 42.3576 54.593 42.0569 54.813C41.7636 55.0257 41.3676 55.132 40.8689 55.132ZM41.0119 54.351C41.3639 54.351 41.6646 54.2593 41.9139 54.076C42.1706 53.8927 42.3649 53.6543 42.4969 53.361C42.6289 53.0677 42.6949 52.7597 42.6949 52.437V52.426H41.2979C40.7553 52.426 40.3703 52.5213 40.1429 52.712C39.9229 52.8953 39.8129 53.1263 39.8129 53.405C39.8129 53.691 39.9156 53.922 40.1209 54.098C40.3336 54.2667 40.6306 54.351 41.0119 54.351ZM46.374 55L44.306 49.544H45.274L46.913 54.109L48.563 49.544H49.509L47.441 55H46.374ZM52.711 55.132C52.1904 55.132 51.7284 55.0147 51.325 54.78C50.9217 54.538 50.6027 54.2043 50.368 53.779C50.1407 53.3537 50.027 52.8513 50.027 52.272C50.027 51.7 50.1407 51.2013 50.368 50.776C50.5954 50.3433 50.9107 50.0097 51.314 49.775C51.7247 49.533 52.1977 49.412 52.733 49.412C53.261 49.412 53.7157 49.533 54.097 49.775C54.4857 50.0097 54.7827 50.3213 54.988 50.71C55.1934 51.0987 55.296 51.5167 55.296 51.964C55.296 52.0447 55.2924 52.1253 55.285 52.206C55.285 52.2867 55.285 52.3783 55.285 52.481H50.94C50.962 52.899 51.0574 53.2473 51.226 53.526C51.402 53.7973 51.6184 54.0027 51.875 54.142C52.139 54.2813 52.4177 54.351 52.711 54.351C53.0924 54.351 53.4114 54.263 53.668 54.087C53.9247 53.911 54.1117 53.6727 54.229 53.372H55.142C54.9954 53.878 54.713 54.2997 54.295 54.637C53.8844 54.967 53.3564 55.132 52.711 55.132ZM52.711 50.193C52.271 50.193 51.8787 50.3287 51.534 50.6C51.1967 50.864 51.0024 51.2527 50.951 51.766H54.383C54.361 51.2747 54.1924 50.8897 53.877 50.611C53.5617 50.3323 53.173 50.193 52.711 50.193ZM63.9089 57.42V54.098C63.7329 54.362 63.4799 54.6003 63.1499 54.813C62.8199 55.0257 62.4055 55.132 61.9069 55.132C61.3642 55.132 60.8875 55.0073 60.4769 54.758C60.0735 54.5087 59.7582 54.1677 59.5309 53.735C59.3109 53.3023 59.2009 52.811 59.2009 52.261C59.2009 51.711 59.3145 51.2233 59.5419 50.798C59.7692 50.3653 60.0845 50.028 60.4879 49.786C60.8912 49.5367 61.3679 49.412 61.9179 49.412C62.3652 49.412 62.7612 49.5037 63.1059 49.687C63.4505 49.8703 63.7182 50.127 63.9089 50.457L63.9969 49.544H64.8329V57.42H63.9089ZM62.0059 54.329C62.3725 54.329 62.6952 54.2447 62.9739 54.076C63.2599 53.9 63.4799 53.658 63.6339 53.35C63.7952 53.042 63.8759 52.6827 63.8759 52.272C63.8759 51.8613 63.7952 51.502 63.6339 51.194C63.4799 50.886 63.2599 50.6477 62.9739 50.479C62.6952 50.303 62.3725 50.215 62.0059 50.215C61.6465 50.215 61.3239 50.303 61.0379 50.479C60.7592 50.6477 60.5392 50.886 60.3779 51.194C60.2239 51.502 60.1469 51.8613 60.1469 52.272C60.1469 52.6827 60.2239 53.042 60.3779 53.35C60.5392 53.658 60.7592 53.9 61.0379 54.076C61.3239 54.2447 61.6465 54.329 62.0059 54.329ZM68.3301 55.132C67.6847 55.132 67.1714 54.9377 66.7901 54.549C66.4087 54.153 66.2181 53.548 66.2181 52.734V49.544H67.1421V52.635C67.1421 53.7717 67.6077 54.34 68.5391 54.34C69.0157 54.34 69.4081 54.1713 69.7161 53.834C70.0314 53.4893 70.1891 53.0017 70.1891 52.371V49.544H71.1131V55H70.2771L70.2111 54.021C70.0424 54.3657 69.7894 54.637 69.4521 54.835C69.1221 55.033 68.7481 55.132 68.3301 55.132ZM73.195 48.334C73.0117 48.334 72.8577 48.2753 72.733 48.158C72.6157 48.0333 72.557 47.8793 72.557 47.696C72.557 47.52 72.6157 47.3733 72.733 47.256C72.8577 47.1387 73.0117 47.08 73.195 47.08C73.371 47.08 73.5213 47.1387 73.646 47.256C73.7707 47.3733 73.833 47.52 73.833 47.696C73.833 47.8793 73.7707 48.0333 73.646 48.158C73.5213 48.2753 73.371 48.334 73.195 48.334ZM72.733 55V49.544H73.657V55H72.733ZM77.7738 55.132C77.2532 55.132 76.7838 55.0147 76.3658 54.78C75.9552 54.538 75.6288 54.2043 75.3868 53.779C75.1522 53.3463 75.0348 52.844 75.0348 52.272C75.0348 51.7 75.1522 51.2013 75.3868 50.776C75.6288 50.3433 75.9552 50.0097 76.3658 49.775C76.7838 49.533 77.2532 49.412 77.7738 49.412C78.4192 49.412 78.9618 49.5807 79.4018 49.918C79.8492 50.2553 80.1315 50.7063 80.2488 51.271H79.3028C79.2295 50.9337 79.0498 50.6733 78.7638 50.49C78.4778 50.2993 78.1442 50.204 77.7628 50.204C77.4548 50.204 77.1652 50.281 76.8938 50.435C76.6225 50.589 76.4025 50.82 76.2338 51.128C76.0652 51.436 75.9808 51.8173 75.9808 52.272C75.9808 52.7267 76.0652 53.108 76.2338 53.416C76.4025 53.724 76.6225 53.9587 76.8938 54.12C77.1652 54.274 77.4548 54.351 77.7628 54.351C78.1442 54.351 78.4778 54.2593 78.7638 54.076C79.0498 53.8853 79.2295 53.6177 79.3028 53.273H80.2488C80.1388 53.823 79.8602 54.2703 79.4128 54.615C78.9655 54.9597 78.4192 55.132 77.7738 55.132ZM81.5393 55V47.08H82.4633V51.843L84.6963 49.544H85.8293L83.4093 52.008L86.1373 55H84.9603L82.4633 52.173V55H81.5393ZM89.1378 55.132C88.6171 55.132 88.1551 55.0147 87.7518 54.78C87.3484 54.538 87.0294 54.2043 86.7948 53.779C86.5674 53.3537 86.4538 52.8513 86.4538 52.272C86.4538 51.7 86.5674 51.2013 86.7948 50.776C87.0221 50.3433 87.3374 50.0097 87.7408 49.775C88.1514 49.533 88.6244 49.412 89.1598 49.412C89.6878 49.412 90.1424 49.533 90.5238 49.775C90.9124 50.0097 91.2094 50.3213 91.4148 50.71C91.6201 51.0987 91.7228 51.5167 91.7228 51.964C91.7228 52.0447 91.7191 52.1253 91.7118 52.206C91.7118 52.2867 91.7118 52.3783 91.7118 52.481H87.3668C87.3888 52.899 87.4841 53.2473 87.6528 53.526C87.8288 53.7973 88.0451 54.0027 88.3018 54.142C88.5658 54.2813 88.8444 54.351 89.1378 54.351C89.5191 54.351 89.8381 54.263 90.0948 54.087C90.3514 53.911 90.5384 53.6727 90.6558 53.372H91.5688C91.4221 53.878 91.1398 54.2997 90.7218 54.637C90.3111 54.967 89.7831 55.132 89.1378 55.132ZM89.1378 50.193C88.6978 50.193 88.3054 50.3287 87.9608 50.6C87.6234 50.864 87.4291 51.2527 87.3778 51.766H90.8098C90.7878 51.2747 90.6191 50.8897 90.3038 50.611C89.9884 50.3323 89.5998 50.193 89.1378 50.193ZM92.9475 55V49.544H93.7835L93.8605 50.589C94.0291 50.2297 94.2858 49.9437 94.6305 49.731C94.9751 49.5183 95.4005 49.412 95.9065 49.412V50.38H95.6535C95.3308 50.38 95.0338 50.4387 94.7625 50.556C94.4911 50.666 94.2748 50.8567 94.1135 51.128C93.9521 51.3993 93.8715 51.7733 93.8715 52.25V55H92.9475Z" fill="black"/>
</g>
<defs>
<filter id="filter0_d_162_5926" x="16" y="0" width="192" height="74" filterUnits="userSpaceOnUse" color-interpolation-filters="sRGB">
<feFlood flood-opacity="0" result="BackgroundImageFix"/>
<feColorMatrix in="SourceAlpha" type="matrix" values="0 0 0 0 0 0 0 0 0 0 0 0 0 0 0 0 0 0 127 0" result="hardAlpha"/>
<feOffset/>
<feGaussianBlur stdDeviation="4"/>
<feComposite in2="hardAlpha" operator="out"/>
<feColorMatrix type="matrix" values="0 0 0 0 0 0 0 0 0 0 0 0 0 0 0 0 0 0 0.15 0"/>
<feBlend mode="normal" in2="BackgroundImageFix" result="effect1_dropShadow_162_5926"/>
<feBlend mode="normal" in="SourceGraphic" in2="effect1_dropShadow_162_5926" result="shape"/>
</filter>
</defs>
</svg>
