<svg width="208" height="74" viewBox="0 0 208 74" fill="none" xmlns="http://www.w3.org/2000/svg">
<circle cx="4" cy="37" r="4" fill="#005271"/>
<line x1="8" y1="36.5" x2="24" y2="36.5" stroke="#005271" stroke-dasharray="2 2"/>
<g filter="url(#filter0_d_162_5950)">
<rect x="24" y="8" width="176" height="58" rx="4" fill="white" shape-rendering="crispEdges"/>
<path d="M35.597 27.132C35.069 27.132 34.5887 27.0293 34.156 26.824C33.7307 26.6113 33.3897 26.285 33.133 25.845C32.8763 25.405 32.748 24.844 32.748 24.162V19.3H33.672V24.173C33.672 24.921 33.8517 25.4637 34.211 25.801C34.5703 26.1383 35.0397 26.307 35.619 26.307C36.1983 26.307 36.664 26.1383 37.016 25.801C37.368 25.4637 37.544 24.921 37.544 24.173V19.3H38.468V24.162C38.468 24.844 38.3397 25.405 38.083 25.845C37.8263 26.285 37.4817 26.6113 37.049 26.824C36.6163 27.0293 36.1323 27.132 35.597 27.132ZM42.0678 27.132C41.4151 27.132 40.8724 26.967 40.4398 26.637C40.0071 26.307 39.7541 25.8597 39.6808 25.295H40.6268C40.6854 25.581 40.8358 25.8303 41.0778 26.043C41.3271 26.2483 41.6608 26.351 42.0788 26.351C42.4674 26.351 42.7534 26.2703 42.9368 26.109C43.1201 25.9403 43.2118 25.7423 43.2118 25.515C43.2118 25.185 43.0908 24.965 42.8488 24.855C42.6141 24.745 42.2804 24.646 41.8478 24.558C41.5544 24.4993 41.2611 24.415 40.9678 24.305C40.6744 24.195 40.4288 24.041 40.2308 23.843C40.0328 23.6377 39.9338 23.37 39.9338 23.04C39.9338 22.5633 40.1098 22.1747 40.4618 21.874C40.8211 21.566 41.3051 21.412 41.9138 21.412C42.4931 21.412 42.9661 21.5587 43.3328 21.852C43.7068 22.138 43.9231 22.5487 43.9818 23.084H43.0688C43.0321 22.8053 42.9111 22.589 42.7058 22.435C42.5078 22.2737 42.2401 22.193 41.9028 22.193C41.5728 22.193 41.3161 22.2627 41.1328 22.402C40.9568 22.5413 40.8688 22.7247 40.8688 22.952C40.8688 23.172 40.9824 23.3443 41.2098 23.469C41.4444 23.5937 41.7598 23.7 42.1558 23.788C42.4931 23.8613 42.8121 23.953 43.1128 24.063C43.4208 24.1657 43.6701 24.3233 43.8608 24.536C44.0588 24.7413 44.1578 25.042 44.1578 25.438C44.1651 25.9293 43.9781 26.3363 43.5968 26.659C43.2228 26.9743 42.7131 27.132 42.0678 27.132ZM47.9308 27.132C47.4101 27.132 46.9481 27.0147 46.5448 26.78C46.1414 26.538 45.8224 26.2043 45.5878 25.779C45.3604 25.3537 45.2468 24.8513 45.2468 24.272C45.2468 23.7 45.3604 23.2013 45.5878 22.776C45.8151 22.3433 46.1304 22.0097 46.5338 21.775C46.9444 21.533 47.4174 21.412 47.9527 21.412C48.4808 21.412 48.9354 21.533 49.3168 21.775C49.7054 22.0097 50.0024 22.3213 50.2078 22.71C50.4131 23.0987 50.5158 23.5167 50.5158 23.964C50.5158 24.0447 50.5121 24.1253 50.5048 24.206C50.5048 24.2867 50.5048 24.3783 50.5048 24.481H46.1598C46.1818 24.899 46.2771 25.2473 46.4458 25.526C46.6218 25.7973 46.8381 26.0027 47.0948 26.142C47.3588 26.2813 47.6374 26.351 47.9308 26.351C48.3121 26.351 48.6311 26.263 48.8878 26.087C49.1444 25.911 49.3314 25.6727 49.4488 25.372H50.3618C50.2151 25.878 49.9328 26.2997 49.5148 26.637C49.1041 26.967 48.5761 27.132 47.9308 27.132ZM47.9308 22.193C47.4908 22.193 47.0984 22.3287 46.7538 22.6C46.4164 22.864 46.2221 23.2527 46.1707 23.766H49.6028C49.5808 23.2747 49.4121 22.8897 49.0968 22.611C48.7814 22.3323 48.3928 22.193 47.9308 22.193ZM51.7404 27V21.544H52.5764L52.6534 22.589C52.8221 22.2297 53.0788 21.9437 53.4234 21.731C53.7681 21.5183 54.1934 21.412 54.6994 21.412V22.38H54.4464C54.1238 22.38 53.8268 22.4387 53.5554 22.556C53.2841 22.666 53.0678 22.8567 52.9064 23.128C52.7451 23.3993 52.6644 23.7733 52.6644 24.25V27H51.7404ZM57.8265 27.132C57.1739 27.132 56.6312 26.967 56.1985 26.637C55.7659 26.307 55.5129 25.8597 55.4395 25.295H56.3855C56.4442 25.581 56.5945 25.8303 56.8365 26.043C57.0859 26.2483 57.4195 26.351 57.8375 26.351C58.2262 26.351 58.5122 26.2703 58.6955 26.109C58.8789 25.9403 58.9705 25.7423 58.9705 25.515C58.9705 25.185 58.8495 24.965 58.6075 24.855C58.3729 24.745 58.0392 24.646 57.6065 24.558C57.3132 24.4993 57.0199 24.415 56.7265 24.305C56.4332 24.195 56.1875 24.041 55.9895 23.843C55.7915 23.6377 55.6925 23.37 55.6925 23.04C55.6925 22.5633 55.8685 22.1747 56.2205 21.874C56.5799 21.566 57.0639 21.412 57.6725 21.412C58.2519 21.412 58.7249 21.5587 59.0915 21.852C59.4655 22.138 59.6819 22.5487 59.7405 23.084H58.8275C58.7909 22.8053 58.6699 22.589 58.4645 22.435C58.2665 22.2737 57.9989 22.193 57.6615 22.193C57.3315 22.193 57.0749 22.2627 56.8915 22.402C56.7155 22.5413 56.6275 22.7247 56.6275 22.952C56.6275 23.172 56.7412 23.3443 56.9685 23.469C57.2032 23.5937 57.5185 23.7 57.9145 23.788C58.2519 23.8613 58.5709 23.953 58.8715 24.063C59.1795 24.1657 59.4289 24.3233 59.6195 24.536C59.8175 24.7413 59.9165 25.042 59.9165 25.438C59.9239 25.9293 59.7369 26.3363 59.3555 26.659C58.9815 26.9743 58.4719 27.132 57.8265 27.132ZM66.3037 25.284C65.9957 25.284 65.7133 25.2437 65.4567 25.163L64.9067 25.68C64.9873 25.7387 65.0863 25.79 65.2037 25.834C65.3283 25.8707 65.5043 25.9073 65.7317 25.944C65.959 25.9733 66.278 26.0063 66.6887 26.043C67.422 26.0943 67.9463 26.263 68.2617 26.549C68.577 26.835 68.7347 27.209 68.7347 27.671C68.7347 27.9863 68.6467 28.287 68.4707 28.573C68.302 28.859 68.038 29.0937 67.6787 29.277C67.3267 29.4603 66.872 29.552 66.3147 29.552C65.8233 29.552 65.387 29.486 65.0057 29.354C64.6243 29.2293 64.3273 29.035 64.1147 28.771C63.902 28.5143 63.7957 28.188 63.7957 27.792C63.7957 27.5867 63.8507 27.363 63.9607 27.121C64.0707 26.8863 64.276 26.6627 64.5767 26.45C64.4153 26.384 64.276 26.3143 64.1587 26.241C64.0487 26.1603 63.946 26.0723 63.8507 25.977V25.724L64.7857 24.8C64.353 24.4333 64.1367 23.9493 64.1367 23.348C64.1367 22.9887 64.221 22.6623 64.3897 22.369C64.5583 22.0757 64.804 21.8447 65.1267 21.676C65.4493 21.5 65.8417 21.412 66.3037 21.412C66.619 21.412 66.905 21.456 67.1617 21.544H69.1747V22.237L68.1517 22.281C68.3643 22.589 68.4707 22.9447 68.4707 23.348C68.4707 23.7073 68.3827 24.0337 68.2067 24.327C68.038 24.6203 67.7923 24.855 67.4697 25.031C67.1543 25.1997 66.7657 25.284 66.3037 25.284ZM66.3037 24.525C66.6923 24.525 67.0003 24.426 67.2277 24.228C67.4623 24.0227 67.5797 23.7293 67.5797 23.348C67.5797 22.974 67.4623 22.688 67.2277 22.49C67.0003 22.2847 66.6923 22.182 66.3037 22.182C65.9077 22.182 65.5923 22.2847 65.3577 22.49C65.1303 22.688 65.0167 22.974 65.0167 23.348C65.0167 23.7293 65.1303 24.0227 65.3577 24.228C65.5923 24.426 65.9077 24.525 66.3037 24.525ZM64.6977 27.704C64.6977 28.0707 64.8517 28.342 65.1597 28.518C65.4677 28.7013 65.8527 28.793 66.3147 28.793C66.7693 28.793 67.1323 28.694 67.4037 28.496C67.6823 28.298 67.8217 28.034 67.8217 27.704C67.8217 27.4693 67.7263 27.264 67.5357 27.088C67.345 26.9193 66.993 26.8203 66.4797 26.791C66.0763 26.7617 65.728 26.725 65.4347 26.681C65.134 26.8423 64.936 27.0147 64.8407 27.198C64.7453 27.3887 64.6977 27.5573 64.6977 27.704ZM72.032 27.132C71.5773 27.132 71.1997 27.055 70.899 26.901C70.5983 26.747 70.3747 26.5417 70.228 26.285C70.0813 26.0283 70.008 25.7497 70.008 25.449C70.008 24.8917 70.2207 24.4627 70.646 24.162C71.0713 23.8613 71.6507 23.711 72.384 23.711H73.858V23.645C73.858 23.1683 73.7333 22.809 73.484 22.567C73.2347 22.3177 72.901 22.193 72.483 22.193C72.1237 22.193 71.812 22.2847 71.548 22.468C71.2913 22.644 71.13 22.9043 71.064 23.249H70.118C70.1547 22.853 70.2867 22.5193 70.514 22.248C70.7487 21.9767 71.0383 21.7713 71.383 21.632C71.7277 21.4853 72.0943 21.412 72.483 21.412C73.2457 21.412 73.8177 21.6173 74.199 22.028C74.5877 22.4313 74.782 22.9703 74.782 23.645V27H73.957L73.902 26.021C73.748 26.329 73.5207 26.593 73.22 26.813C72.9267 27.0257 72.5307 27.132 72.032 27.132ZM72.175 26.351C72.527 26.351 72.8277 26.2593 73.077 26.076C73.3337 25.8927 73.528 25.6543 73.66 25.361C73.792 25.0677 73.858 24.7597 73.858 24.437V24.426H72.461C71.9183 24.426 71.5333 24.5213 71.306 24.712C71.086 24.8953 70.976 25.1263 70.976 25.405C70.976 25.691 71.0787 25.922 71.284 26.098C71.4967 26.2667 71.7937 26.351 72.175 26.351ZM76.7292 20.334C76.5458 20.334 76.3918 20.2753 76.2672 20.158C76.1498 20.0333 76.0912 19.8793 76.0912 19.696C76.0912 19.52 76.1498 19.3733 76.2672 19.256C76.3918 19.1387 76.5458 19.08 76.7292 19.08C76.9052 19.08 77.0555 19.1387 77.1802 19.256C77.3048 19.3733 77.3672 19.52 77.3672 19.696C77.3672 19.8793 77.3048 20.0333 77.1802 20.158C77.0555 20.2753 76.9052 20.334 76.7292 20.334ZM76.2672 27V21.544H77.1912V27H76.2672ZM78.8 27V21.544H79.636L79.691 22.523C79.867 22.1783 80.12 21.907 80.45 21.709C80.78 21.511 81.154 21.412 81.572 21.412C82.2173 21.412 82.7307 21.61 83.112 22.006C83.5007 22.3947 83.695 22.996 83.695 23.81V27H82.771V23.909C82.771 22.7723 82.3017 22.204 81.363 22.204C80.8937 22.204 80.5013 22.3763 80.186 22.721C79.878 23.0583 79.724 23.5423 79.724 24.173V27H78.8ZM88.0061 27V21.544H88.8421L88.9081 22.336C89.0841 22.0427 89.3187 21.8153 89.6121 21.654C89.9054 21.4927 90.2354 21.412 90.6021 21.412C91.0347 21.412 91.4051 21.5 91.7131 21.676C92.0284 21.852 92.2704 22.1197 92.4391 22.479C92.6297 22.149 92.8901 21.8887 93.2201 21.698C93.5574 21.5073 93.9204 21.412 94.3091 21.412C94.9617 21.412 95.4824 21.61 95.8711 22.006C96.2597 22.3947 96.4541 22.996 96.4541 23.81V27H95.5411V23.909C95.5411 23.3443 95.4274 22.919 95.2001 22.633C94.9727 22.347 94.6464 22.204 94.2211 22.204C93.7811 22.204 93.4144 22.3763 93.1211 22.721C92.8351 23.0583 92.6921 23.5423 92.6921 24.173V27H91.7681V23.909C91.7681 23.3443 91.6544 22.919 91.4271 22.633C91.1997 22.347 90.8734 22.204 90.4481 22.204C90.0154 22.204 89.6524 22.3763 89.3591 22.721C89.0731 23.0583 88.9301 23.5423 88.9301 24.173V27H88.0061ZM100.332 27.132C99.8186 27.132 99.3566 27.0147 98.9459 26.78C98.5352 26.5453 98.2089 26.2153 97.9669 25.79C97.7322 25.3573 97.6149 24.8513 97.6149 24.272C97.6149 23.6927 97.7359 23.1903 97.9779 22.765C98.2199 22.3323 98.5462 21.9987 98.9569 21.764C99.3749 21.5293 99.8406 21.412 100.354 21.412C100.867 21.412 101.329 21.5293 101.74 21.764C102.151 21.9987 102.473 22.3323 102.708 22.765C102.95 23.1903 103.071 23.6927 103.071 24.272C103.071 24.8513 102.95 25.3573 102.708 25.79C102.466 26.2153 102.136 26.5453 101.718 26.78C101.307 27.0147 100.845 27.132 100.332 27.132ZM100.332 26.34C100.647 26.34 100.941 26.263 101.212 26.109C101.483 25.955 101.703 25.724 101.872 25.416C102.041 25.108 102.125 24.7267 102.125 24.272C102.125 23.8173 102.041 23.436 101.872 23.128C101.711 22.82 101.494 22.589 101.223 22.435C100.952 22.281 100.662 22.204 100.354 22.204C100.039 22.204 99.7452 22.281 99.4739 22.435C99.2026 22.589 98.9826 22.82 98.8139 23.128C98.6452 23.436 98.5609 23.8173 98.5609 24.272C98.5609 24.7267 98.6452 25.108 98.8139 25.416C98.9826 25.724 99.1989 25.955 99.4629 26.109C99.7342 26.263 100.024 26.34 100.332 26.34ZM106.297 27C105.798 27 105.406 26.879 105.12 26.637C104.834 26.395 104.691 25.9587 104.691 25.328V22.325H103.745V21.544H104.691L104.812 20.235H105.615V21.544H107.221V22.325H105.615V25.328C105.615 25.6727 105.685 25.9073 105.824 26.032C105.963 26.1493 106.209 26.208 106.561 26.208H107.133V27H106.297ZM108.956 20.334C108.772 20.334 108.618 20.2753 108.494 20.158C108.376 20.0333 108.318 19.8793 108.318 19.696C108.318 19.52 108.376 19.3733 108.494 19.256C108.618 19.1387 108.772 19.08 108.956 19.08C109.132 19.08 109.282 19.1387 109.407 19.256C109.531 19.3733 109.594 19.52 109.594 19.696C109.594 19.8793 109.531 20.0333 109.407 20.158C109.282 20.2753 109.132 20.334 108.956 20.334ZM108.494 27V21.544H109.418V27H108.494ZM112.6 27L110.532 21.544H111.5L113.139 26.109L114.789 21.544H115.735L113.667 27H112.6ZM118.299 27.132C117.844 27.132 117.466 27.055 117.166 26.901C116.865 26.747 116.641 26.5417 116.495 26.285C116.348 26.0283 116.275 25.7497 116.275 25.449C116.275 24.8917 116.487 24.4627 116.913 24.162C117.338 23.8613 117.917 23.711 118.651 23.711H120.125V23.645C120.125 23.1683 120 22.809 119.751 22.567C119.501 22.3177 119.168 22.193 118.75 22.193C118.39 22.193 118.079 22.2847 117.815 22.468C117.558 22.644 117.397 22.9043 117.331 23.249H116.385C116.421 22.853 116.553 22.5193 116.781 22.248C117.015 21.9767 117.305 21.7713 117.65 21.632C117.994 21.4853 118.361 21.412 118.75 21.412C119.512 21.412 120.084 21.6173 120.466 22.028C120.854 22.4313 121.049 22.9703 121.049 23.645V27H120.224L120.169 26.021C120.015 26.329 119.787 26.593 119.487 26.813C119.193 27.0257 118.797 27.132 118.299 27.132ZM118.442 26.351C118.794 26.351 119.094 26.2593 119.344 26.076C119.6 25.8927 119.795 25.6543 119.927 25.361C120.059 25.0677 120.125 24.7597 120.125 24.437V24.426H118.728C118.185 24.426 117.8 24.5213 117.573 24.712C117.353 24.8953 117.243 25.1263 117.243 25.405C117.243 25.691 117.345 25.922 117.551 26.098C117.763 26.2667 118.06 26.351 118.442 26.351ZM124.44 27C123.942 27 123.549 26.879 123.263 26.637C122.977 26.395 122.834 25.9587 122.834 25.328V22.325H121.888V21.544H122.834L122.955 20.235H123.758V21.544H125.364V22.325H123.758V25.328C123.758 25.6727 123.828 25.9073 123.967 26.032C124.107 26.1493 124.352 26.208 124.704 26.208H125.276V27H124.44ZM127.099 20.334C126.916 20.334 126.762 20.2753 126.637 20.158C126.52 20.0333 126.461 19.8793 126.461 19.696C126.461 19.52 126.52 19.3733 126.637 19.256C126.762 19.1387 126.916 19.08 127.099 19.08C127.275 19.08 127.426 19.1387 127.55 19.256C127.675 19.3733 127.737 19.52 127.737 19.696C127.737 19.8793 127.675 20.0333 127.55 20.158C127.426 20.2753 127.275 20.334 127.099 20.334ZM126.637 27V21.544H127.561V27H126.637ZM131.656 27.132C131.143 27.132 130.681 27.0147 130.27 26.78C129.859 26.5453 129.533 26.2153 129.291 25.79C129.056 25.3573 128.939 24.8513 128.939 24.272C128.939 23.6927 129.06 23.1903 129.302 22.765C129.544 22.3323 129.87 21.9987 130.281 21.764C130.699 21.5293 131.165 21.412 131.678 21.412C132.191 21.412 132.653 21.5293 133.064 21.764C133.475 21.9987 133.797 22.3323 134.032 22.765C134.274 23.1903 134.395 23.6927 134.395 24.272C134.395 24.8513 134.274 25.3573 134.032 25.79C133.79 26.2153 133.46 26.5453 133.042 26.78C132.631 27.0147 132.169 27.132 131.656 27.132ZM131.656 26.34C131.971 26.34 132.265 26.263 132.536 26.109C132.807 25.955 133.027 25.724 133.196 25.416C133.365 25.108 133.449 24.7267 133.449 24.272C133.449 23.8173 133.365 23.436 133.196 23.128C133.035 22.82 132.818 22.589 132.547 22.435C132.276 22.281 131.986 22.204 131.678 22.204C131.363 22.204 131.069 22.281 130.798 22.435C130.527 22.589 130.307 22.82 130.138 23.128C129.969 23.436 129.885 23.8173 129.885 24.272C129.885 24.7267 129.969 25.108 130.138 25.416C130.307 25.724 130.523 25.955 130.787 26.109C131.058 26.263 131.348 26.34 131.656 26.34ZM135.68 27V21.544H136.516L136.571 22.523C136.747 22.1783 137 21.907 137.33 21.709C137.66 21.511 138.034 21.412 138.452 21.412C139.097 21.412 139.611 21.61 139.992 22.006C140.381 22.3947 140.575 22.996 140.575 23.81V27H139.651V23.909C139.651 22.7723 139.182 22.204 138.243 22.204C137.774 22.204 137.381 22.3763 137.066 22.721C136.758 23.0583 136.604 23.5423 136.604 24.173V27H135.68ZM147.042 27C146.543 27 146.151 26.879 145.865 26.637C145.579 26.395 145.436 25.9587 145.436 25.328V22.325H144.49V21.544H145.436L145.557 20.235H146.36V21.544H147.966V22.325H146.36V25.328C146.36 25.6727 146.43 25.9073 146.569 26.032C146.708 26.1493 146.954 26.208 147.306 26.208H147.878V27H147.042ZM151.475 27.132C150.962 27.132 150.5 27.0147 150.089 26.78C149.679 26.5453 149.352 26.2153 149.11 25.79C148.876 25.3573 148.758 24.8513 148.758 24.272C148.758 23.6927 148.879 23.1903 149.121 22.765C149.363 22.3323 149.69 21.9987 150.1 21.764C150.518 21.5293 150.984 21.412 151.497 21.412C152.011 21.412 152.473 21.5293 152.883 21.764C153.294 21.9987 153.617 22.3323 153.851 22.765C154.093 23.1903 154.214 23.6927 154.214 24.272C154.214 24.8513 154.093 25.3573 153.851 25.79C153.609 26.2153 153.279 26.5453 152.861 26.78C152.451 27.0147 151.989 27.132 151.475 27.132ZM151.475 26.34C151.791 26.34 152.084 26.263 152.355 26.109C152.627 25.955 152.847 25.724 153.015 25.416C153.184 25.108 153.268 24.7267 153.268 24.272C153.268 23.8173 153.184 23.436 153.015 23.128C152.854 22.82 152.638 22.589 152.366 22.435C152.095 22.281 151.805 22.204 151.497 22.204C151.182 22.204 150.889 22.281 150.617 22.435C150.346 22.589 150.126 22.82 149.957 23.128C149.789 23.436 149.704 23.8173 149.704 24.272C149.704 24.7267 149.789 25.108 149.957 25.416C150.126 25.724 150.342 25.955 150.606 26.109C150.878 26.263 151.167 26.34 151.475 26.34ZM32.759 41V35.544H33.595L33.672 36.589C33.8407 36.2297 34.0973 35.9437 34.442 35.731C34.7867 35.5183 35.212 35.412 35.718 35.412V36.38H35.465C35.1423 36.38 34.8453 36.4387 34.574 36.556C34.3027 36.666 34.0863 36.8567 33.925 37.128C33.7637 37.3993 33.683 37.7733 33.683 38.25V41H32.759ZM39.004 41.132C38.4833 41.132 38.0213 41.0147 37.618 40.78C37.2147 40.538 36.8957 40.2043 36.661 39.779C36.4337 39.3537 36.32 38.8513 36.32 38.272C36.32 37.7 36.4337 37.2013 36.661 36.776C36.8883 36.3433 37.2037 36.0097 37.607 35.775C38.0177 35.533 38.4907 35.412 39.026 35.412C39.554 35.412 40.0087 35.533 40.39 35.775C40.7787 36.0097 41.0757 36.3213 41.281 36.71C41.4863 37.0987 41.589 37.5167 41.589 37.964C41.589 38.0447 41.5853 38.1253 41.578 38.206C41.578 38.2867 41.578 38.3783 41.578 38.481H37.233C37.255 38.899 37.3503 39.2473 37.519 39.526C37.695 39.7973 37.9113 40.0027 38.168 40.142C38.432 40.2813 38.7107 40.351 39.004 40.351C39.3853 40.351 39.7043 40.263 39.961 40.087C40.2177 39.911 40.4047 39.6727 40.522 39.372H41.435C41.2883 39.878 41.006 40.2997 40.588 40.637C40.1773 40.967 39.6493 41.132 39.004 41.132ZM39.004 36.193C38.564 36.193 38.1717 36.3287 37.827 36.6C37.4897 36.864 37.2953 37.2527 37.244 37.766H40.676C40.654 37.2747 40.4853 36.8897 40.17 36.611C39.8547 36.3323 39.466 36.193 39.004 36.193ZM44.9375 39.284C44.6295 39.284 44.3471 39.2437 44.0905 39.163L43.5405 39.68C43.6211 39.7387 43.7201 39.79 43.8375 39.834C43.9621 39.8707 44.1381 39.9073 44.3655 39.944C44.5928 39.9733 44.9118 40.0063 45.3225 40.043C46.0558 40.0943 46.5801 40.263 46.8955 40.549C47.2108 40.835 47.3685 41.209 47.3685 41.671C47.3685 41.9863 47.2805 42.287 47.1045 42.573C46.9358 42.859 46.6718 43.0937 46.3125 43.277C45.9605 43.4603 45.5058 43.552 44.9485 43.552C44.4571 43.552 44.0208 43.486 43.6395 43.354C43.2581 43.2293 42.9611 43.035 42.7485 42.771C42.5358 42.5143 42.4295 42.188 42.4295 41.792C42.4295 41.5867 42.4845 41.363 42.5945 41.121C42.7045 40.8863 42.9098 40.6627 43.2105 40.45C43.0491 40.384 42.9098 40.3143 42.7925 40.241C42.6825 40.1603 42.5798 40.0723 42.4845 39.977V39.724L43.4195 38.8C42.9868 38.4333 42.7705 37.9493 42.7705 37.348C42.7705 36.9887 42.8548 36.6623 43.0235 36.369C43.1921 36.0757 43.4378 35.8447 43.7605 35.676C44.0831 35.5 44.4755 35.412 44.9375 35.412C45.2528 35.412 45.5388 35.456 45.7955 35.544H47.8085V36.237L46.7855 36.281C46.9981 36.589 47.1045 36.9447 47.1045 37.348C47.1045 37.7073 47.0165 38.0337 46.8405 38.327C46.6718 38.6203 46.4261 38.855 46.1035 39.031C45.7881 39.1997 45.3995 39.284 44.9375 39.284ZM44.9375 38.525C45.3261 38.525 45.6341 38.426 45.8615 38.228C46.0961 38.0227 46.2135 37.7293 46.2135 37.348C46.2135 36.974 46.0961 36.688 45.8615 36.49C45.6341 36.2847 45.3261 36.182 44.9375 36.182C44.5415 36.182 44.2261 36.2847 43.9915 36.49C43.7641 36.688 43.6505 36.974 43.6505 37.348C43.6505 37.7293 43.7641 38.0227 43.9915 38.228C44.2261 38.426 44.5415 38.525 44.9375 38.525ZM43.3315 41.704C43.3315 42.0707 43.4855 42.342 43.7935 42.518C44.1015 42.7013 44.4865 42.793 44.9485 42.793C45.4031 42.793 45.7661 42.694 46.0375 42.496C46.3161 42.298 46.4555 42.034 46.4555 41.704C46.4555 41.4693 46.3601 41.264 46.1695 41.088C45.9788 40.9193 45.6268 40.8203 45.1135 40.791C44.7101 40.7617 44.3618 40.725 44.0685 40.681C43.7678 40.8423 43.5698 41.0147 43.4745 41.198C43.3791 41.3887 43.3315 41.5573 43.3315 41.704ZM49.4118 34.334C49.2285 34.334 49.0745 34.2753 48.9498 34.158C48.8325 34.0333 48.7738 33.8793 48.7738 33.696C48.7738 33.52 48.8325 33.3733 48.9498 33.256C49.0745 33.1387 49.2285 33.08 49.4118 33.08C49.5878 33.08 49.7381 33.1387 49.8628 33.256C49.9875 33.3733 50.0498 33.52 50.0498 33.696C50.0498 33.8793 49.9875 34.0333 49.8628 34.158C49.7381 34.2753 49.5878 34.334 49.4118 34.334ZM48.9498 41V35.544H49.8738V41H48.9498ZM53.5726 41.132C52.92 41.132 52.3773 40.967 51.9446 40.637C51.512 40.307 51.259 39.8597 51.1856 39.295H52.1316C52.1903 39.581 52.3406 39.8303 52.5826 40.043C52.832 40.2483 53.1656 40.351 53.5836 40.351C53.9723 40.351 54.2583 40.2703 54.4416 40.109C54.625 39.9403 54.7166 39.7423 54.7166 39.515C54.7166 39.185 54.5956 38.965 54.3536 38.855C54.119 38.745 53.7853 38.646 53.3526 38.558C53.0593 38.4993 52.766 38.415 52.4726 38.305C52.1793 38.195 51.9336 38.041 51.7356 37.843C51.5376 37.6377 51.4386 37.37 51.4386 37.04C51.4386 36.5633 51.6146 36.1747 51.9666 35.874C52.326 35.566 52.81 35.412 53.4186 35.412C53.998 35.412 54.471 35.5587 54.8376 35.852C55.2116 36.138 55.428 36.5487 55.4866 37.084H54.5736C54.537 36.8053 54.416 36.589 54.2106 36.435C54.0126 36.2737 53.745 36.193 53.4076 36.193C53.0776 36.193 52.821 36.2627 52.6376 36.402C52.4616 36.5413 52.3736 36.7247 52.3736 36.952C52.3736 37.172 52.4873 37.3443 52.7146 37.469C52.9493 37.5937 53.2646 37.7 53.6606 37.788C53.998 37.8613 54.317 37.953 54.6176 38.063C54.9256 38.1657 55.175 38.3233 55.3656 38.536C55.5636 38.7413 55.6626 39.042 55.6626 39.438C55.67 39.9293 55.483 40.3363 55.1016 40.659C54.7276 40.9743 54.218 41.132 53.5726 41.132ZM58.8916 41C58.3929 41 58.0006 40.879 57.7146 40.637C57.4286 40.395 57.2856 39.9587 57.2856 39.328V36.325H56.3396V35.544H57.2856L57.4066 34.235H58.2096V35.544H59.8156V36.325H58.2096V39.328C58.2096 39.6727 58.2792 39.9073 58.4186 40.032C58.5579 40.1493 58.8036 40.208 59.1556 40.208H59.7276V41H58.8916ZM63.2921 41.132C62.7714 41.132 62.3094 41.0147 61.9061 40.78C61.5027 40.538 61.1837 40.2043 60.9491 39.779C60.7217 39.3537 60.6081 38.8513 60.6081 38.272C60.6081 37.7 60.7217 37.2013 60.9491 36.776C61.1764 36.3433 61.4917 36.0097 61.8951 35.775C62.3057 35.533 62.7787 35.412 63.3141 35.412C63.8421 35.412 64.2967 35.533 64.6781 35.775C65.0667 36.0097 65.3637 36.3213 65.5691 36.71C65.7744 37.0987 65.8771 37.5167 65.8771 37.964C65.8771 38.0447 65.8734 38.1253 65.8661 38.206C65.8661 38.2867 65.8661 38.3783 65.8661 38.481H61.5211C61.5431 38.899 61.6384 39.2473 61.8071 39.526C61.9831 39.7973 62.1994 40.0027 62.4561 40.142C62.7201 40.2813 62.9987 40.351 63.2921 40.351C63.6734 40.351 63.9924 40.263 64.2491 40.087C64.5057 39.911 64.6927 39.6727 64.8101 39.372H65.7231C65.5764 39.878 65.2941 40.2997 64.8761 40.637C64.4654 40.967 63.9374 41.132 63.2921 41.132ZM63.2921 36.193C62.8521 36.193 62.4597 36.3287 62.1151 36.6C61.7777 36.864 61.5834 37.2527 61.5321 37.766H64.9641C64.9421 37.2747 64.7734 36.8897 64.4581 36.611C64.1427 36.3323 63.7541 36.193 63.2921 36.193ZM67.1018 41V35.544H67.9378L68.0148 36.589C68.1834 36.2297 68.4401 35.9437 68.7848 35.731C69.1294 35.5183 69.5548 35.412 70.0608 35.412V36.38H69.8078C69.4851 36.38 69.1881 36.4387 68.9168 36.556C68.6454 36.666 68.4291 36.8567 68.2678 37.128C68.1064 37.3993 68.0258 37.7733 68.0258 38.25V41H67.1018ZM75.824 41.132C75.3693 41.132 74.9917 41.055 74.691 40.901C74.3903 40.747 74.1667 40.5417 74.02 40.285C73.8733 40.0283 73.8 39.7497 73.8 39.449C73.8 38.8917 74.0127 38.4627 74.438 38.162C74.8633 37.8613 75.4427 37.711 76.176 37.711H77.65V37.645C77.65 37.1683 77.5253 36.809 77.276 36.567C77.0267 36.3177 76.693 36.193 76.275 36.193C75.9157 36.193 75.604 36.2847 75.34 36.468C75.0833 36.644 74.922 36.9043 74.856 37.249H73.91C73.9467 36.853 74.0787 36.5193 74.306 36.248C74.5407 35.9767 74.8303 35.7713 75.175 35.632C75.5197 35.4853 75.8863 35.412 76.275 35.412C77.0377 35.412 77.6097 35.6173 77.991 36.028C78.3797 36.4313 78.574 36.9703 78.574 37.645V41H77.749L77.694 40.021C77.54 40.329 77.3127 40.593 77.012 40.813C76.7187 41.0257 76.3227 41.132 75.824 41.132ZM75.967 40.351C76.319 40.351 76.6197 40.2593 76.869 40.076C77.1257 39.8927 77.32 39.6543 77.452 39.361C77.584 39.0677 77.65 38.7597 77.65 38.437V38.426H76.253C75.7103 38.426 75.3253 38.5213 75.098 38.712C74.878 38.8953 74.768 39.1263 74.768 39.405C74.768 39.691 74.8707 39.922 75.076 40.098C75.2887 40.2667 75.5857 40.351 75.967 40.351ZM79.9602 41V35.544H80.7962L80.8512 36.523C81.0272 36.1783 81.2802 35.907 81.6102 35.709C81.9402 35.511 82.3142 35.412 82.7322 35.412C83.3775 35.412 83.8908 35.61 84.2722 36.006C84.6608 36.3947 84.8552 36.996 84.8552 37.81V41H83.9312V37.909C83.9312 36.7723 83.4618 36.204 82.5232 36.204C82.0538 36.204 81.6615 36.3763 81.3462 36.721C81.0382 37.0583 80.8842 37.5423 80.8842 38.173V41H79.9602ZM88.7301 41.132C88.1874 41.132 87.7108 41.0073 87.3001 40.758C86.8968 40.5087 86.5814 40.1677 86.3541 39.735C86.1341 39.3023 86.0241 38.811 86.0241 38.261C86.0241 37.711 86.1378 37.2233 86.3651 36.798C86.5924 36.3653 86.9078 36.028 87.3111 35.786C87.7144 35.5367 88.1911 35.412 88.7411 35.412C89.1884 35.412 89.5844 35.5037 89.9291 35.687C90.2738 35.8703 90.5414 36.127 90.7321 36.457V33.08H91.6561V41H90.8201L90.7321 40.098C90.5561 40.362 90.3031 40.6003 89.9731 40.813C89.6431 41.0257 89.2288 41.132 88.7301 41.132ZM88.8291 40.329C89.1958 40.329 89.5184 40.2447 89.7971 40.076C90.0831 39.9 90.3031 39.658 90.4571 39.35C90.6184 39.042 90.6991 38.6827 90.6991 38.272C90.6991 37.8613 90.6184 37.502 90.4571 37.194C90.3031 36.886 90.0831 36.6477 89.7971 36.479C89.5184 36.303 89.1958 36.215 88.8291 36.215C88.4698 36.215 88.1471 36.303 87.8611 36.479C87.5824 36.6477 87.3624 36.886 87.2011 37.194C87.0471 37.502 86.9701 37.8613 86.9701 38.272C86.9701 38.6827 87.0471 39.042 87.2011 39.35C87.3624 39.658 87.5824 39.9 87.8611 40.076C88.1471 40.2447 88.4698 40.329 88.8291 40.329ZM98.5815 41.132C98.0608 41.132 97.5915 41.0147 97.1735 40.78C96.7628 40.538 96.4365 40.2043 96.1945 39.779C95.9598 39.3463 95.8425 38.844 95.8425 38.272C95.8425 37.7 95.9598 37.2013 96.1945 36.776C96.4365 36.3433 96.7628 36.0097 97.1735 35.775C97.5915 35.533 98.0608 35.412 98.5815 35.412C99.2268 35.412 99.7695 35.5807 100.209 35.918C100.657 36.2553 100.939 36.7063 101.056 37.271H100.11C100.037 36.9337 99.8575 36.6733 99.5715 36.49C99.2855 36.2993 98.9518 36.204 98.5705 36.204C98.2625 36.204 97.9728 36.281 97.7015 36.435C97.4301 36.589 97.2101 36.82 97.0415 37.128C96.8728 37.436 96.7885 37.8173 96.7885 38.272C96.7885 38.7267 96.8728 39.108 97.0415 39.416C97.2101 39.724 97.4301 39.9587 97.7015 40.12C97.9728 40.274 98.2625 40.351 98.5705 40.351C98.9518 40.351 99.2855 40.2593 99.5715 40.076C99.8575 39.8853 100.037 39.6177 100.11 39.273H101.056C100.946 39.823 100.668 40.2703 100.22 40.615C99.7731 40.9597 99.2268 41.132 98.5815 41.132ZM104.162 41.132C103.707 41.132 103.33 41.055 103.029 40.901C102.728 40.747 102.505 40.5417 102.358 40.285C102.211 40.0283 102.138 39.7497 102.138 39.449C102.138 38.8917 102.351 38.4627 102.776 38.162C103.201 37.8613 103.781 37.711 104.514 37.711H105.988V37.645C105.988 37.1683 105.863 36.809 105.614 36.567C105.365 36.3177 105.031 36.193 104.613 36.193C104.254 36.193 103.942 36.2847 103.678 36.468C103.421 36.644 103.26 36.9043 103.194 37.249H102.248C102.285 36.853 102.417 36.5193 102.644 36.248C102.879 35.9767 103.168 35.7713 103.513 35.632C103.858 35.4853 104.224 35.412 104.613 35.412C105.376 35.412 105.948 35.6173 106.329 36.028C106.718 36.4313 106.912 36.9703 106.912 37.645V41H106.087L106.032 40.021C105.878 40.329 105.651 40.593 105.35 40.813C105.057 41.0257 104.661 41.132 104.162 41.132ZM104.305 40.351C104.657 40.351 104.958 40.2593 105.207 40.076C105.464 39.8927 105.658 39.6543 105.79 39.361C105.922 39.0677 105.988 38.7597 105.988 38.437V38.426H104.591C104.048 38.426 103.663 38.5213 103.436 38.712C103.216 38.8953 103.106 39.1263 103.106 39.405C103.106 39.691 103.209 39.922 103.414 40.098C103.627 40.2667 103.924 40.351 104.305 40.351ZM108.298 41V35.544H109.134L109.189 36.523C109.365 36.1783 109.618 35.907 109.948 35.709C110.278 35.511 110.652 35.412 111.07 35.412C111.715 35.412 112.229 35.61 112.61 36.006C112.999 36.3947 113.193 36.996 113.193 37.81V41H112.269V37.909C112.269 36.7723 111.8 36.204 110.861 36.204C110.392 36.204 109.999 36.3763 109.684 36.721C109.376 37.0583 109.222 37.5423 109.222 38.173V41H108.298ZM117.504 41V35.544H118.34L118.395 36.523C118.571 36.1783 118.824 35.907 119.154 35.709C119.484 35.511 119.858 35.412 120.276 35.412C120.921 35.412 121.435 35.61 121.816 36.006C122.205 36.3947 122.399 36.996 122.399 37.81V41H121.475V37.909C121.475 36.7723 121.006 36.204 120.067 36.204C119.598 36.204 119.205 36.3763 118.89 36.721C118.582 37.0583 118.428 37.5423 118.428 38.173V41H117.504ZM125.614 41.132C125.159 41.132 124.782 41.055 124.481 40.901C124.18 40.747 123.957 40.5417 123.81 40.285C123.663 40.0283 123.59 39.7497 123.59 39.449C123.59 38.8917 123.803 38.4627 124.228 38.162C124.653 37.8613 125.233 37.711 125.966 37.711H127.44V37.645C127.44 37.1683 127.315 36.809 127.066 36.567C126.817 36.3177 126.483 36.193 126.065 36.193C125.706 36.193 125.394 36.2847 125.13 36.468C124.873 36.644 124.712 36.9043 124.646 37.249H123.7C123.737 36.853 123.869 36.5193 124.096 36.248C124.331 35.9767 124.62 35.7713 124.965 35.632C125.31 35.4853 125.676 35.412 126.065 35.412C126.828 35.412 127.4 35.6173 127.781 36.028C128.17 36.4313 128.364 36.9703 128.364 37.645V41H127.539L127.484 40.021C127.33 40.329 127.103 40.593 126.802 40.813C126.509 41.0257 126.113 41.132 125.614 41.132ZM125.757 40.351C126.109 40.351 126.41 40.2593 126.659 40.076C126.916 39.8927 127.11 39.6543 127.242 39.361C127.374 39.0677 127.44 38.7597 127.44 38.437V38.426H126.043C125.5 38.426 125.115 38.5213 124.888 38.712C124.668 38.8953 124.558 39.1263 124.558 39.405C124.558 39.691 124.661 39.922 124.866 40.098C125.079 40.2667 125.376 40.351 125.757 40.351ZM129.75 41V35.544H130.586L130.663 36.589C130.832 36.2297 131.089 35.9437 131.433 35.731C131.778 35.5183 132.203 35.412 132.709 35.412V36.38H132.456C132.134 36.38 131.837 36.4387 131.565 36.556C131.294 36.666 131.078 36.8567 130.916 37.128C130.755 37.3993 130.674 37.7733 130.674 38.25V41H129.75ZM133.746 41V35.544H134.582L134.659 36.589C134.828 36.2297 135.085 35.9437 135.429 35.731C135.774 35.5183 136.199 35.412 136.705 35.412V36.38H136.452C136.13 36.38 135.833 36.4387 135.561 36.556C135.29 36.666 135.074 36.8567 134.912 37.128C134.751 37.3993 134.67 37.7733 134.67 38.25V41H133.746ZM140.024 41.132C139.511 41.132 139.049 41.0147 138.638 40.78C138.228 40.5453 137.901 40.2153 137.659 39.79C137.425 39.3573 137.307 38.8513 137.307 38.272C137.307 37.6927 137.428 37.1903 137.67 36.765C137.912 36.3323 138.239 35.9987 138.649 35.764C139.067 35.5293 139.533 35.412 140.046 35.412C140.56 35.412 141.022 35.5293 141.432 35.764C141.843 35.9987 142.166 36.3323 142.4 36.765C142.642 37.1903 142.763 37.6927 142.763 38.272C142.763 38.8513 142.642 39.3573 142.4 39.79C142.158 40.2153 141.828 40.5453 141.41 40.78C141 41.0147 140.538 41.132 140.024 41.132ZM140.024 40.34C140.34 40.34 140.633 40.263 140.904 40.109C141.176 39.955 141.396 39.724 141.564 39.416C141.733 39.108 141.817 38.7267 141.817 38.272C141.817 37.8173 141.733 37.436 141.564 37.128C141.403 36.82 141.187 36.589 140.915 36.435C140.644 36.281 140.354 36.204 140.046 36.204C139.731 36.204 139.438 36.281 139.166 36.435C138.895 36.589 138.675 36.82 138.506 37.128C138.338 37.436 138.253 37.8173 138.253 38.272C138.253 38.7267 138.338 39.108 138.506 39.416C138.675 39.724 138.891 39.955 139.155 40.109C139.427 40.263 139.716 40.34 140.024 40.34ZM144.944 41L143.349 35.544H144.273L145.428 39.823L146.704 35.544H147.749L149.036 39.823L150.18 35.544H151.115L149.52 41H148.574L147.232 36.501L145.89 41H144.944ZM157.523 41.132C156.98 41.132 156.504 41.0073 156.093 40.758C155.69 40.5087 155.374 40.1677 155.147 39.735C154.927 39.3023 154.817 38.811 154.817 38.261C154.817 37.711 154.931 37.2233 155.158 36.798C155.385 36.3653 155.701 36.028 156.104 35.786C156.507 35.5367 156.984 35.412 157.534 35.412C157.981 35.412 158.377 35.5037 158.722 35.687C159.067 35.8703 159.334 36.127 159.525 36.457V33.08H160.449V41H159.613L159.525 40.098C159.349 40.362 159.096 40.6003 158.766 40.813C158.436 41.0257 158.022 41.132 157.523 41.132ZM157.622 40.329C157.989 40.329 158.311 40.2447 158.59 40.076C158.876 39.9 159.096 39.658 159.25 39.35C159.411 39.042 159.492 38.6827 159.492 38.272C159.492 37.8613 159.411 37.502 159.25 37.194C159.096 36.886 158.876 36.6477 158.59 36.479C158.311 36.303 157.989 36.215 157.622 36.215C157.263 36.215 156.94 36.303 156.654 36.479C156.375 36.6477 156.155 36.886 155.994 37.194C155.84 37.502 155.763 37.8613 155.763 38.272C155.763 38.6827 155.84 39.042 155.994 39.35C156.155 39.658 156.375 39.9 156.654 40.076C156.94 40.2447 157.263 40.329 157.622 40.329ZM164.441 41.132C163.928 41.132 163.466 41.0147 163.055 40.78C162.645 40.5453 162.318 40.2153 162.076 39.79C161.842 39.3573 161.724 38.8513 161.724 38.272C161.724 37.6927 161.845 37.1903 162.087 36.765C162.329 36.3323 162.656 35.9987 163.066 35.764C163.484 35.5293 163.95 35.412 164.463 35.412C164.977 35.412 165.439 35.5293 165.849 35.764C166.26 35.9987 166.583 36.3323 166.817 36.765C167.059 37.1903 167.18 37.6927 167.18 38.272C167.18 38.8513 167.059 39.3573 166.817 39.79C166.575 40.2153 166.245 40.5453 165.827 40.78C165.417 41.0147 164.955 41.132 164.441 41.132ZM164.441 40.34C164.757 40.34 165.05 40.263 165.321 40.109C165.593 39.955 165.813 39.724 165.981 39.416C166.15 39.108 166.234 38.7267 166.234 38.272C166.234 37.8173 166.15 37.436 165.981 37.128C165.82 36.82 165.604 36.589 165.332 36.435C165.061 36.281 164.771 36.204 164.463 36.204C164.148 36.204 163.855 36.281 163.583 36.435C163.312 36.589 163.092 36.82 162.923 37.128C162.755 37.436 162.67 37.8173 162.67 38.272C162.67 38.7267 162.755 39.108 162.923 39.416C163.092 39.724 163.308 39.955 163.572 40.109C163.844 40.263 164.133 40.34 164.441 40.34ZM169.361 41L167.766 35.544H168.69L169.845 39.823L171.121 35.544H172.166L173.453 39.823L174.597 35.544H175.532L173.937 41H172.991L171.649 36.501L170.307 41H169.361ZM176.554 41V35.544H177.39L177.445 36.523C177.621 36.1783 177.874 35.907 178.204 35.709C178.534 35.511 178.908 35.412 179.326 35.412C179.971 35.412 180.485 35.61 180.866 36.006C181.255 36.3947 181.449 36.996 181.449 37.81V41H180.525V37.909C180.525 36.7723 180.056 36.204 179.117 36.204C178.648 36.204 178.255 36.3763 177.94 36.721C177.632 37.0583 177.478 37.5423 177.478 38.173V41H176.554ZM33.859 55L32.264 49.544H33.188L34.343 53.823L35.619 49.544H36.664L37.951 53.823L39.095 49.544H40.03L38.435 55H37.489L36.147 50.501L34.805 55H33.859ZM41.052 55V47.08H41.976V50.479C42.1593 50.1417 42.4196 49.8813 42.757 49.698C43.0943 49.5073 43.461 49.412 43.857 49.412C44.4876 49.412 44.9936 49.61 45.375 50.006C45.7563 50.3947 45.947 50.996 45.947 51.81V55H45.034V51.909C45.034 50.7723 44.5756 50.204 43.659 50.204C43.1823 50.204 42.7826 50.3763 42.46 50.721C42.1373 51.0583 41.976 51.5423 41.976 52.173V55H41.052ZM47.9079 48.334C47.7246 48.334 47.5706 48.2753 47.4459 48.158C47.3286 48.0333 47.2699 47.8793 47.2699 47.696C47.2699 47.52 47.3286 47.3733 47.4459 47.256C47.5706 47.1387 47.7246 47.08 47.9079 47.08C48.0839 47.08 48.2342 47.1387 48.3589 47.256C48.4836 47.3733 48.5459 47.52 48.5459 47.696C48.5459 47.8793 48.4836 48.0333 48.3589 48.158C48.2342 48.2753 48.0839 48.334 47.9079 48.334ZM47.4459 55V49.544H48.3699V55H47.4459ZM52.4867 55.132C51.9661 55.132 51.4967 55.0147 51.0787 54.78C50.6681 54.538 50.3417 54.2043 50.0997 53.779C49.8651 53.3463 49.7477 52.844 49.7477 52.272C49.7477 51.7 49.8651 51.2013 50.0997 50.776C50.3417 50.3433 50.6681 50.0097 51.0787 49.775C51.4967 49.533 51.9661 49.412 52.4867 49.412C53.1321 49.412 53.6747 49.5807 54.1147 49.918C54.5621 50.2553 54.8444 50.7063 54.9617 51.271H54.0157C53.9424 50.9337 53.7627 50.6733 53.4767 50.49C53.1907 50.2993 52.8571 50.204 52.4757 50.204C52.1677 50.204 51.8781 50.281 51.6067 50.435C51.3354 50.589 51.1154 50.82 50.9467 51.128C50.7781 51.436 50.6937 51.8173 50.6937 52.272C50.6937 52.7267 50.7781 53.108 50.9467 53.416C51.1154 53.724 51.3354 53.9587 51.6067 54.12C51.8781 54.274 52.1677 54.351 52.4757 54.351C52.8571 54.351 53.1907 54.2593 53.4767 54.076C53.7627 53.8853 53.9424 53.6177 54.0157 53.273H54.9617C54.8517 53.823 54.5731 54.2703 54.1257 54.615C53.6784 54.9597 53.1321 55.132 52.4867 55.132ZM56.2522 55V47.08H57.1762V50.479C57.3595 50.1417 57.6198 49.8813 57.9572 49.698C58.2945 49.5073 58.6612 49.412 59.0572 49.412C59.6878 49.412 60.1938 49.61 60.5752 50.006C60.9565 50.3947 61.1472 50.996 61.1472 51.81V55H60.2342V51.909C60.2342 50.7723 59.7758 50.204 58.8592 50.204C58.3825 50.204 57.9828 50.3763 57.6602 50.721C57.3375 51.0583 57.1762 51.5423 57.1762 52.173V55H56.2522ZM67.6142 55C67.1156 55 66.7232 54.879 66.4372 54.637C66.1512 54.395 66.0082 53.9587 66.0082 53.328V50.325H65.0622V49.544H66.0082L66.1292 48.235H66.9322V49.544H68.5382V50.325H66.9322V53.328C66.9322 53.6727 67.0019 53.9073 67.1412 54.032C67.2806 54.1493 67.5262 54.208 67.8782 54.208H68.4502V55H67.6142ZM69.7121 55V49.544H70.5481L70.6251 50.589C70.7938 50.2297 71.0505 49.9437 71.3951 49.731C71.7398 49.5183 72.1651 49.412 72.6711 49.412V50.38H72.4181C72.0955 50.38 71.7985 50.4387 71.5271 50.556C71.2558 50.666 71.0395 50.8567 70.8781 51.128C70.7168 51.3993 70.6361 51.7733 70.6361 52.25V55H69.7121ZM75.5232 55.132C75.0686 55.132 74.6909 55.055 74.3902 54.901C74.0896 54.747 73.8659 54.5417 73.7192 54.285C73.5726 54.0283 73.4992 53.7497 73.4992 53.449C73.4992 52.8917 73.7119 52.4627 74.1372 52.162C74.5626 51.8613 75.1419 51.711 75.8752 51.711H77.3492V51.645C77.3492 51.1683 77.2246 50.809 76.9752 50.567C76.7259 50.3177 76.3922 50.193 75.9742 50.193C75.6149 50.193 75.3032 50.2847 75.0392 50.468C74.7826 50.644 74.6212 50.9043 74.5552 51.249H73.6092C73.6459 50.853 73.7779 50.5193 74.0052 50.248C74.2399 49.9767 74.5296 49.7713 74.8742 49.632C75.2189 49.4853 75.5856 49.412 75.9742 49.412C76.7369 49.412 77.3089 49.6173 77.6902 50.028C78.0789 50.4313 78.2732 50.9703 78.2732 51.645V55H77.4482L77.3932 54.021C77.2392 54.329 77.0119 54.593 76.7112 54.813C76.4179 55.0257 76.0219 55.132 75.5232 55.132ZM75.6662 54.351C76.0182 54.351 76.3189 54.2593 76.5682 54.076C76.8249 53.8927 77.0192 53.6543 77.1512 53.361C77.2832 53.0677 77.3492 52.7597 77.3492 52.437V52.426H75.9522C75.4096 52.426 75.0246 52.5213 74.7972 52.712C74.5772 52.8953 74.4672 53.1263 74.4672 53.405C74.4672 53.691 74.5699 53.922 74.7752 54.098C74.9879 54.2667 75.2849 54.351 75.6662 54.351ZM82.1674 55.132C81.6467 55.132 81.1774 55.0147 80.7594 54.78C80.3487 54.538 80.0224 54.2043 79.7804 53.779C79.5457 53.3463 79.4284 52.844 79.4284 52.272C79.4284 51.7 79.5457 51.2013 79.7804 50.776C80.0224 50.3433 80.3487 50.0097 80.7594 49.775C81.1774 49.533 81.6467 49.412 82.1674 49.412C82.8127 49.412 83.3554 49.5807 83.7954 49.918C84.2427 50.2553 84.5251 50.7063 84.6424 51.271H83.6964C83.6231 50.9337 83.4434 50.6733 83.1574 50.49C82.8714 50.2993 82.5377 50.204 82.1564 50.204C81.8484 50.204 81.5587 50.281 81.2874 50.435C81.0161 50.589 80.7961 50.82 80.6274 51.128C80.4587 51.436 80.3744 51.8173 80.3744 52.272C80.3744 52.7267 80.4587 53.108 80.6274 53.416C80.7961 53.724 81.0161 53.9587 81.2874 54.12C81.5587 54.274 81.8484 54.351 82.1564 54.351C82.5377 54.351 82.8714 54.2593 83.1574 54.076C83.4434 53.8853 83.6231 53.6177 83.6964 53.273H84.6424C84.5324 53.823 84.2537 54.2703 83.8064 54.615C83.3591 54.9597 82.8127 55.132 82.1674 55.132ZM85.9328 55V47.08H86.8568V51.843L89.0898 49.544H90.2228L87.8028 52.008L90.5308 55H89.3538L86.8568 52.173V55H85.9328ZM93.2435 55.132C92.5909 55.132 92.0482 54.967 91.6155 54.637C91.1829 54.307 90.9299 53.8597 90.8565 53.295H91.8025C91.8612 53.581 92.0115 53.8303 92.2535 54.043C92.5029 54.2483 92.8365 54.351 93.2545 54.351C93.6432 54.351 93.9292 54.2703 94.1125 54.109C94.2959 53.9403 94.3875 53.7423 94.3875 53.515C94.3875 53.185 94.2665 52.965 94.0245 52.855C93.7899 52.745 93.4562 52.646 93.0235 52.558C92.7302 52.4993 92.4369 52.415 92.1435 52.305C91.8502 52.195 91.6045 52.041 91.4065 51.843C91.2085 51.6377 91.1095 51.37 91.1095 51.04C91.1095 50.5633 91.2855 50.1747 91.6375 49.874C91.9969 49.566 92.4809 49.412 93.0895 49.412C93.6689 49.412 94.1419 49.5587 94.5085 49.852C94.8825 50.138 95.0989 50.5487 95.1575 51.084H94.2445C94.2079 50.8053 94.0869 50.589 93.8815 50.435C93.6835 50.2737 93.4159 50.193 93.0785 50.193C92.7485 50.193 92.4919 50.2627 92.3085 50.402C92.1325 50.5413 92.0445 50.7247 92.0445 50.952C92.0445 51.172 92.1582 51.3443 92.3855 51.469C92.6202 51.5937 92.9355 51.7 93.3315 51.788C93.6689 51.8613 93.9879 51.953 94.2885 52.063C94.5965 52.1657 94.8459 52.3233 95.0365 52.536C95.2345 52.7413 95.3335 53.042 95.3335 53.438C95.3409 53.9293 95.1539 54.3363 94.7725 54.659C94.3985 54.9743 93.8889 55.132 93.2435 55.132ZM101.721 55C101.222 55 100.83 54.879 100.544 54.637C100.258 54.395 100.115 53.9587 100.115 53.328V50.325H99.1687V49.544H100.115L100.236 48.235H101.039V49.544H102.645V50.325H101.039V53.328C101.039 53.6727 101.108 53.9073 101.248 54.032C101.387 54.1493 101.633 54.208 101.985 54.208H102.557V55H101.721ZM106.154 55.132C105.641 55.132 105.179 55.0147 104.768 54.78C104.358 54.5453 104.031 54.2153 103.789 53.79C103.555 53.3573 103.437 52.8513 103.437 52.272C103.437 51.6927 103.558 51.1903 103.8 50.765C104.042 50.3323 104.369 49.9987 104.779 49.764C105.197 49.5293 105.663 49.412 106.176 49.412C106.69 49.412 107.152 49.5293 107.562 49.764C107.973 49.9987 108.296 50.3323 108.53 50.765C108.772 51.1903 108.893 51.6927 108.893 52.272C108.893 52.8513 108.772 53.3573 108.53 53.79C108.288 54.2153 107.958 54.5453 107.54 54.78C107.13 55.0147 106.668 55.132 106.154 55.132ZM106.154 54.34C106.47 54.34 106.763 54.263 107.034 54.109C107.306 53.955 107.526 53.724 107.694 53.416C107.863 53.108 107.947 52.7267 107.947 52.272C107.947 51.8173 107.863 51.436 107.694 51.128C107.533 50.82 107.317 50.589 107.045 50.435C106.774 50.281 106.484 50.204 106.176 50.204C105.861 50.204 105.568 50.281 105.296 50.435C105.025 50.589 104.805 50.82 104.636 51.128C104.468 51.436 104.383 51.8173 104.383 52.272C104.383 52.7267 104.468 53.108 104.636 53.416C104.805 53.724 105.021 53.955 105.285 54.109C105.557 54.263 105.846 54.34 106.154 54.34ZM114.904 55.132C114.449 55.132 114.072 55.055 113.771 54.901C113.47 54.747 113.247 54.5417 113.1 54.285C112.953 54.0283 112.88 53.7497 112.88 53.449C112.88 52.8917 113.093 52.4627 113.518 52.162C113.943 51.8613 114.523 51.711 115.256 51.711H116.73V51.645C116.73 51.1683 116.605 50.809 116.356 50.567C116.107 50.3177 115.773 50.193 115.355 50.193C114.996 50.193 114.684 50.2847 114.42 50.468C114.163 50.644 114.002 50.9043 113.936 51.249H112.99C113.027 50.853 113.159 50.5193 113.386 50.248C113.621 49.9767 113.91 49.7713 114.255 49.632C114.6 49.4853 114.966 49.412 115.355 49.412C116.118 49.412 116.69 49.6173 117.071 50.028C117.46 50.4313 117.654 50.9703 117.654 51.645V55H116.829L116.774 54.021C116.62 54.329 116.393 54.593 116.092 54.813C115.799 55.0257 115.403 55.132 114.904 55.132ZM115.047 54.351C115.399 54.351 115.7 54.2593 115.949 54.076C116.206 53.8927 116.4 53.6543 116.532 53.361C116.664 53.0677 116.73 52.7597 116.73 52.437V52.426H115.333C114.79 52.426 114.405 52.5213 114.178 52.712C113.958 52.8953 113.848 53.1263 113.848 53.405C113.848 53.691 113.951 53.922 114.156 54.098C114.369 54.2667 114.666 54.351 115.047 54.351ZM119.04 57.42V49.544H119.876L119.964 50.446C120.14 50.182 120.39 49.9437 120.712 49.731C121.042 49.5183 121.46 49.412 121.966 49.412C122.509 49.412 122.982 49.5367 123.385 49.786C123.789 50.0353 124.1 50.3763 124.32 50.809C124.548 51.2417 124.661 51.733 124.661 52.283C124.661 52.833 124.548 53.3243 124.32 53.757C124.1 54.1823 123.785 54.5197 123.374 54.769C122.971 55.011 122.498 55.132 121.955 55.132C121.508 55.132 121.108 55.0403 120.756 54.857C120.412 54.6737 120.148 54.417 119.964 54.087V57.42H119.04ZM121.856 54.329C122.223 54.329 122.546 54.2447 122.824 54.076C123.103 53.9 123.323 53.658 123.484 53.35C123.646 53.042 123.726 52.6827 123.726 52.272C123.726 51.8613 123.646 51.502 123.484 51.194C123.323 50.886 123.103 50.6477 122.824 50.479C122.546 50.303 122.223 50.215 121.856 50.215C121.49 50.215 121.167 50.303 120.888 50.479C120.61 50.6477 120.39 50.886 120.228 51.194C120.067 51.502 119.986 51.8613 119.986 52.272C119.986 52.6827 120.067 53.042 120.228 53.35C120.39 53.658 120.61 53.9 120.888 54.076C121.167 54.2447 121.49 54.329 121.856 54.329ZM125.947 57.42V49.544H126.783L126.871 50.446C127.047 50.182 127.297 49.9437 127.619 49.731C127.949 49.5183 128.367 49.412 128.873 49.412C129.416 49.412 129.889 49.5367 130.292 49.786C130.696 50.0353 131.007 50.3763 131.227 50.809C131.455 51.2417 131.568 51.733 131.568 52.283C131.568 52.833 131.455 53.3243 131.227 53.757C131.007 54.1823 130.692 54.5197 130.281 54.769C129.878 55.011 129.405 55.132 128.862 55.132C128.415 55.132 128.015 55.0403 127.663 54.857C127.319 54.6737 127.055 54.417 126.871 54.087V57.42H125.947ZM128.763 54.329C129.13 54.329 129.453 54.2447 129.731 54.076C130.01 53.9 130.23 53.658 130.391 53.35C130.553 53.042 130.633 52.6827 130.633 52.272C130.633 51.8613 130.553 51.502 130.391 51.194C130.23 50.886 130.01 50.6477 129.731 50.479C129.453 50.303 129.13 50.215 128.763 50.215C128.397 50.215 128.074 50.303 127.795 50.479C127.517 50.6477 127.297 50.886 127.135 51.194C126.974 51.502 126.893 51.8613 126.893 52.272C126.893 52.6827 126.974 53.042 127.135 53.35C127.297 53.658 127.517 53.9 127.795 54.076C128.074 54.2447 128.397 54.329 128.763 54.329ZM132.855 55V47.08H133.779V55H132.855ZM135.887 57.42L137.24 54.472H136.921L134.754 49.544H135.755L137.559 53.79L139.473 49.544H140.43L136.855 57.42H135.887ZM144.614 55V50.325H143.789V49.544H144.614V48.598C144.614 48.07 144.746 47.685 145.01 47.443C145.274 47.201 145.659 47.08 146.165 47.08H146.715V47.872H146.308C146.029 47.872 145.831 47.9307 145.714 48.048C145.596 48.158 145.538 48.3487 145.538 48.62V49.544H146.88V50.325H145.538V55H144.614ZM150.251 55.132C149.738 55.132 149.276 55.0147 148.865 54.78C148.454 54.5453 148.128 54.2153 147.886 53.79C147.651 53.3573 147.534 52.8513 147.534 52.272C147.534 51.6927 147.655 51.1903 147.897 50.765C148.139 50.3323 148.465 49.9987 148.876 49.764C149.294 49.5293 149.76 49.412 150.273 49.412C150.786 49.412 151.248 49.5293 151.659 49.764C152.07 49.9987 152.392 50.3323 152.627 50.765C152.869 51.1903 152.99 51.6927 152.99 52.272C152.99 52.8513 152.869 53.3573 152.627 53.79C152.385 54.2153 152.055 54.5453 151.637 54.78C151.226 55.0147 150.764 55.132 150.251 55.132ZM150.251 54.34C150.566 54.34 150.86 54.263 151.131 54.109C151.402 53.955 151.622 53.724 151.791 53.416C151.96 53.108 152.044 52.7267 152.044 52.272C152.044 51.8173 151.96 51.436 151.791 51.128C151.63 50.82 151.413 50.589 151.142 50.435C150.871 50.281 150.581 50.204 150.273 50.204C149.958 50.204 149.664 50.281 149.393 50.435C149.122 50.589 148.902 50.82 148.733 51.128C148.564 51.436 148.48 51.8173 148.48 52.272C148.48 52.7267 148.564 53.108 148.733 53.416C148.902 53.724 149.118 53.955 149.382 54.109C149.653 54.263 149.943 54.34 150.251 54.34ZM154.275 55V49.544H155.111L155.188 50.589C155.356 50.2297 155.613 49.9437 155.958 49.731C156.302 49.5183 156.728 49.412 157.234 49.412V50.38H156.981C156.658 50.38 156.361 50.4387 156.09 50.556C155.818 50.666 155.602 50.8567 155.441 51.128C155.279 51.3993 155.199 51.7733 155.199 52.25V55H154.275Z" fill="black"/>
</g>
<defs>
<filter id="filter0_d_162_5950" x="16" y="0" width="192" height="74" filterUnits="userSpaceOnUse" color-interpolation-filters="sRGB">
<feFlood flood-opacity="0" result="BackgroundImageFix"/>
<feColorMatrix in="SourceAlpha" type="matrix" values="0 0 0 0 0 0 0 0 0 0 0 0 0 0 0 0 0 0 127 0" result="hardAlpha"/>
<feOffset/>
<feGaussianBlur stdDeviation="4"/>
<feComposite in2="hardAlpha" operator="out"/>
<feColorMatrix type="matrix" values="0 0 0 0 0 0 0 0 0 0 0 0 0 0 0 0 0 0 0.15 0"/>
<feBlend mode="normal" in2="BackgroundImageFix" result="effect1_dropShadow_162_5950"/>
<feBlend mode="normal" in="SourceGraphic" in2="effect1_dropShadow_162_5950" result="shape"/>
</filter>
</defs>
</svg>
