<svg width="208" height="74" viewBox="0 0 208 74" fill="none" xmlns="http://www.w3.org/2000/svg">
<circle cx="4" cy="37" r="4" fill="#005271"/>
<line x1="8" y1="36.5" x2="24" y2="36.5" stroke="#005271" stroke-dasharray="2 2"/>
<g filter="url(#filter0_d_162_5932)">
<rect x="24" y="8" width="176" height="58" rx="4" fill="white" shape-rendering="crispEdges"/>
<path d="M35.597 27.132C35.069 27.132 34.5887 27.0293 34.156 26.824C33.7307 26.6113 33.3897 26.285 33.133 25.845C32.8763 25.405 32.748 24.844 32.748 24.162V19.3H33.672V24.173C33.672 24.921 33.8517 25.4637 34.211 25.801C34.5703 26.1383 35.0397 26.307 35.619 26.307C36.1983 26.307 36.664 26.1383 37.016 25.801C37.368 25.4637 37.544 24.921 37.544 24.173V19.3H38.468V24.162C38.468 24.844 38.3397 25.405 38.083 25.845C37.8263 26.285 37.4817 26.6113 37.049 26.824C36.6163 27.0293 36.1323 27.132 35.597 27.132ZM42.0678 27.132C41.4151 27.132 40.8724 26.967 40.4398 26.637C40.0071 26.307 39.7541 25.8597 39.6808 25.295H40.6268C40.6854 25.581 40.8358 25.8303 41.0778 26.043C41.3271 26.2483 41.6608 26.351 42.0788 26.351C42.4674 26.351 42.7534 26.2703 42.9368 26.109C43.1201 25.9403 43.2118 25.7423 43.2118 25.515C43.2118 25.185 43.0908 24.965 42.8488 24.855C42.6141 24.745 42.2804 24.646 41.8478 24.558C41.5544 24.4993 41.2611 24.415 40.9678 24.305C40.6744 24.195 40.4288 24.041 40.2308 23.843C40.0328 23.6377 39.9338 23.37 39.9338 23.04C39.9338 22.5633 40.1098 22.1747 40.4618 21.874C40.8211 21.566 41.3051 21.412 41.9138 21.412C42.4931 21.412 42.9661 21.5587 43.3328 21.852C43.7068 22.138 43.9231 22.5487 43.9818 23.084H43.0688C43.0321 22.8053 42.9111 22.589 42.7058 22.435C42.5078 22.2737 42.2401 22.193 41.9028 22.193C41.5728 22.193 41.3161 22.2627 41.1328 22.402C40.9568 22.5413 40.8688 22.7247 40.8688 22.952C40.8688 23.172 40.9824 23.3443 41.2098 23.469C41.4444 23.5937 41.7598 23.7 42.1558 23.788C42.4931 23.8613 42.8121 23.953 43.1128 24.063C43.4208 24.1657 43.6701 24.3233 43.8608 24.536C44.0588 24.7413 44.1578 25.042 44.1578 25.438C44.1651 25.9293 43.9781 26.3363 43.5968 26.659C43.2228 26.9743 42.7131 27.132 42.0678 27.132ZM47.9308 27.132C47.4101 27.132 46.9481 27.0147 46.5448 26.78C46.1414 26.538 45.8224 26.2043 45.5878 25.779C45.3604 25.3537 45.2468 24.8513 45.2468 24.272C45.2468 23.7 45.3604 23.2013 45.5878 22.776C45.8151 22.3433 46.1304 22.0097 46.5338 21.775C46.9444 21.533 47.4174 21.412 47.9527 21.412C48.4808 21.412 48.9354 21.533 49.3168 21.775C49.7054 22.0097 50.0024 22.3213 50.2078 22.71C50.4131 23.0987 50.5158 23.5167 50.5158 23.964C50.5158 24.0447 50.5121 24.1253 50.5048 24.206C50.5048 24.2867 50.5048 24.3783 50.5048 24.481H46.1598C46.1818 24.899 46.2771 25.2473 46.4458 25.526C46.6218 25.7973 46.8381 26.0027 47.0948 26.142C47.3588 26.2813 47.6374 26.351 47.9308 26.351C48.3121 26.351 48.6311 26.263 48.8878 26.087C49.1444 25.911 49.3314 25.6727 49.4488 25.372H50.3618C50.2151 25.878 49.9328 26.2997 49.5148 26.637C49.1041 26.967 48.5761 27.132 47.9308 27.132ZM47.9308 22.193C47.4908 22.193 47.0984 22.3287 46.7538 22.6C46.4164 22.864 46.2221 23.2527 46.1707 23.766H49.6028C49.5808 23.2747 49.4121 22.8897 49.0968 22.611C48.7814 22.3323 48.3928 22.193 47.9308 22.193ZM51.7404 27V21.544H52.5764L52.6534 22.589C52.8221 22.2297 53.0788 21.9437 53.4234 21.731C53.7681 21.5183 54.1934 21.412 54.6994 21.412V22.38H54.4464C54.1238 22.38 53.8268 22.4387 53.5554 22.556C53.2841 22.666 53.0678 22.8567 52.9064 23.128C52.7451 23.3993 52.6644 23.7733 52.6644 24.25V27H51.7404ZM57.8265 27.132C57.1739 27.132 56.6312 26.967 56.1985 26.637C55.7659 26.307 55.5129 25.8597 55.4395 25.295H56.3855C56.4442 25.581 56.5945 25.8303 56.8365 26.043C57.0859 26.2483 57.4195 26.351 57.8375 26.351C58.2262 26.351 58.5122 26.2703 58.6955 26.109C58.8789 25.9403 58.9705 25.7423 58.9705 25.515C58.9705 25.185 58.8495 24.965 58.6075 24.855C58.3729 24.745 58.0392 24.646 57.6065 24.558C57.3132 24.4993 57.0199 24.415 56.7265 24.305C56.4332 24.195 56.1875 24.041 55.9895 23.843C55.7915 23.6377 55.6925 23.37 55.6925 23.04C55.6925 22.5633 55.8685 22.1747 56.2205 21.874C56.5799 21.566 57.0639 21.412 57.6725 21.412C58.2519 21.412 58.7249 21.5587 59.0915 21.852C59.4655 22.138 59.6819 22.5487 59.7405 23.084H58.8275C58.7909 22.8053 58.6699 22.589 58.4645 22.435C58.2665 22.2737 57.9989 22.193 57.6615 22.193C57.3315 22.193 57.0749 22.2627 56.8915 22.402C56.7155 22.5413 56.6275 22.7247 56.6275 22.952C56.6275 23.172 56.7412 23.3443 56.9685 23.469C57.2032 23.5937 57.5185 23.7 57.9145 23.788C58.2519 23.8613 58.5709 23.953 58.8715 24.063C59.1795 24.1657 59.4289 24.3233 59.6195 24.536C59.8175 24.7413 59.9165 25.042 59.9165 25.438C59.9239 25.9293 59.7369 26.3363 59.3555 26.659C58.9815 26.9743 58.4719 27.132 57.8265 27.132ZM66.6557 27.132C66.135 27.132 65.6657 27.0147 65.2477 26.78C64.837 26.538 64.5107 26.2043 64.2687 25.779C64.034 25.3463 63.9167 24.844 63.9167 24.272C63.9167 23.7 64.034 23.2013 64.2687 22.776C64.5107 22.3433 64.837 22.0097 65.2477 21.775C65.6657 21.533 66.135 21.412 66.6557 21.412C67.301 21.412 67.8437 21.5807 68.2837 21.918C68.731 22.2553 69.0133 22.7063 69.1307 23.271H68.1847C68.1113 22.9337 67.9317 22.6733 67.6457 22.49C67.3597 22.2993 67.026 22.204 66.6447 22.204C66.3367 22.204 66.047 22.281 65.7757 22.435C65.5043 22.589 65.2843 22.82 65.1157 23.128C64.947 23.436 64.8627 23.8173 64.8627 24.272C64.8627 24.7267 64.947 25.108 65.1157 25.416C65.2843 25.724 65.5043 25.9587 65.7757 26.12C66.047 26.274 66.3367 26.351 66.6447 26.351C67.026 26.351 67.3597 26.2593 67.6457 26.076C67.9317 25.8853 68.1113 25.6177 68.1847 25.273H69.1307C69.0207 25.823 68.742 26.2703 68.2947 26.615C67.8473 26.9597 67.301 27.132 66.6557 27.132ZM72.2361 27.132C71.7814 27.132 71.4038 27.055 71.1031 26.901C70.8024 26.747 70.5788 26.5417 70.4321 26.285C70.2854 26.0283 70.2121 25.7497 70.2121 25.449C70.2121 24.8917 70.4248 24.4627 70.8501 24.162C71.2754 23.8613 71.8548 23.711 72.5881 23.711H74.0621V23.645C74.0621 23.1683 73.9374 22.809 73.6881 22.567C73.4388 22.3177 73.1051 22.193 72.6871 22.193C72.3278 22.193 72.0161 22.2847 71.7521 22.468C71.4954 22.644 71.3341 22.9043 71.2681 23.249H70.3221C70.3588 22.853 70.4908 22.5193 70.7181 22.248C70.9528 21.9767 71.2424 21.7713 71.5871 21.632C71.9318 21.4853 72.2984 21.412 72.6871 21.412C73.4498 21.412 74.0218 21.6173 74.4031 22.028C74.7918 22.4313 74.9861 22.9703 74.9861 23.645V27H74.1611L74.1061 26.021C73.9521 26.329 73.7248 26.593 73.4241 26.813C73.1308 27.0257 72.7348 27.132 72.2361 27.132ZM72.3791 26.351C72.7311 26.351 73.0318 26.2593 73.2811 26.076C73.5378 25.8927 73.7321 25.6543 73.8641 25.361C73.9961 25.0677 74.0621 24.7597 74.0621 24.437V24.426H72.6651C72.1224 24.426 71.7374 24.5213 71.5101 24.712C71.2901 24.8953 71.1801 25.1263 71.1801 25.405C71.1801 25.691 71.2828 25.922 71.4881 26.098C71.7008 26.2667 71.9978 26.351 72.3791 26.351ZM76.3723 27V21.544H77.2083L77.2633 22.523C77.4393 22.1783 77.6923 21.907 78.0223 21.709C78.3523 21.511 78.7263 21.412 79.1443 21.412C79.7896 21.412 80.3029 21.61 80.6843 22.006C81.0729 22.3947 81.2673 22.996 81.2673 23.81V27H80.3433V23.909C80.3433 22.7723 79.8739 22.204 78.9353 22.204C78.4659 22.204 78.0736 22.3763 77.7583 22.721C77.4503 23.0583 77.2963 23.5423 77.2963 24.173V27H76.3723ZM85.5783 27V21.544H86.4143L86.4913 22.589C86.66 22.2297 86.9167 21.9437 87.2613 21.731C87.606 21.5183 88.0313 21.412 88.5373 21.412V22.38H88.2843C87.9617 22.38 87.6647 22.4387 87.3933 22.556C87.122 22.666 86.9057 22.8567 86.7443 23.128C86.583 23.3993 86.5023 23.7733 86.5023 24.25V27H85.5783ZM91.8233 27.132C91.3027 27.132 90.8407 27.0147 90.4373 26.78C90.034 26.538 89.715 26.2043 89.4803 25.779C89.253 25.3537 89.1393 24.8513 89.1393 24.272C89.1393 23.7 89.253 23.2013 89.4803 22.776C89.7077 22.3433 90.023 22.0097 90.4263 21.775C90.837 21.533 91.31 21.412 91.8453 21.412C92.3733 21.412 92.828 21.533 93.2093 21.775C93.598 22.0097 93.895 22.3213 94.1003 22.71C94.3057 23.0987 94.4083 23.5167 94.4083 23.964C94.4083 24.0447 94.4047 24.1253 94.3973 24.206C94.3973 24.2867 94.3973 24.3783 94.3973 24.481H90.0523C90.0743 24.899 90.1697 25.2473 90.3383 25.526C90.5143 25.7973 90.7307 26.0027 90.9873 26.142C91.2513 26.2813 91.53 26.351 91.8233 26.351C92.2047 26.351 92.5237 26.263 92.7803 26.087C93.037 25.911 93.224 25.6727 93.3413 25.372H94.2543C94.1077 25.878 93.8253 26.2997 93.4073 26.637C92.9967 26.967 92.4687 27.132 91.8233 27.132ZM91.8233 22.193C91.3833 22.193 90.991 22.3287 90.6463 22.6C90.309 22.864 90.1147 23.2527 90.0633 23.766H93.4953C93.4733 23.2747 93.3047 22.8897 92.9893 22.611C92.674 22.3323 92.2853 22.193 91.8233 22.193ZM100.11 29.42V26.098C99.934 26.362 99.681 26.6003 99.351 26.813C99.021 27.0257 98.6067 27.132 98.108 27.132C97.5654 27.132 97.0887 27.0073 96.678 26.758C96.2747 26.5087 95.9594 26.1677 95.732 25.735C95.512 25.3023 95.402 24.811 95.402 24.261C95.402 23.711 95.5157 23.2233 95.743 22.798C95.9704 22.3653 96.2857 22.028 96.689 21.786C97.0924 21.5367 97.569 21.412 98.119 21.412C98.5664 21.412 98.9624 21.5037 99.307 21.687C99.6517 21.8703 99.9194 22.127 100.11 22.457L100.198 21.544H101.034V29.42H100.11ZM98.207 26.329C98.5737 26.329 98.8964 26.2447 99.175 26.076C99.461 25.9 99.681 25.658 99.835 25.35C99.9964 25.042 100.077 24.6827 100.077 24.272C100.077 23.8613 99.9964 23.502 99.835 23.194C99.681 22.886 99.461 22.6477 99.175 22.479C98.8964 22.303 98.5737 22.215 98.207 22.215C97.8477 22.215 97.525 22.303 97.239 22.479C96.9604 22.6477 96.7404 22.886 96.579 23.194C96.425 23.502 96.348 23.8613 96.348 24.272C96.348 24.6827 96.425 25.042 96.579 25.35C96.7404 25.658 96.9604 25.9 97.239 26.076C97.525 26.2447 97.8477 26.329 98.207 26.329ZM104.531 27.132C103.886 27.132 103.373 26.9377 102.991 26.549C102.61 26.153 102.419 25.548 102.419 24.734V21.544H103.343V24.635C103.343 25.7717 103.809 26.34 104.74 26.34C105.217 26.34 105.609 26.1713 105.917 25.834C106.233 25.4893 106.39 25.0017 106.39 24.371V21.544H107.314V27H106.478L106.412 26.021C106.244 26.3657 105.991 26.637 105.653 26.835C105.323 27.033 104.949 27.132 104.531 27.132ZM111.288 27.132C110.768 27.132 110.306 27.0147 109.902 26.78C109.499 26.538 109.18 26.2043 108.945 25.779C108.718 25.3537 108.604 24.8513 108.604 24.272C108.604 23.7 108.718 23.2013 108.945 22.776C109.173 22.3433 109.488 22.0097 109.891 21.775C110.302 21.533 110.775 21.412 111.31 21.412C111.838 21.412 112.293 21.533 112.674 21.775C113.063 22.0097 113.36 22.3213 113.565 22.71C113.771 23.0987 113.873 23.5167 113.873 23.964C113.873 24.0447 113.87 24.1253 113.862 24.206C113.862 24.2867 113.862 24.3783 113.862 24.481H109.517C109.539 24.899 109.635 25.2473 109.803 25.526C109.979 25.7973 110.196 26.0027 110.452 26.142C110.716 26.2813 110.995 26.351 111.288 26.351C111.67 26.351 111.989 26.263 112.245 26.087C112.502 25.911 112.689 25.6727 112.806 25.372H113.719C113.573 25.878 113.29 26.2997 112.872 26.637C112.462 26.967 111.934 27.132 111.288 27.132ZM111.288 22.193C110.848 22.193 110.456 22.3287 110.111 22.6C109.774 22.864 109.58 23.2527 109.528 23.766H112.96C112.938 23.2747 112.77 22.8897 112.454 22.611C112.139 22.3323 111.75 22.193 111.288 22.193ZM117.188 27.132C116.535 27.132 115.993 26.967 115.56 26.637C115.127 26.307 114.874 25.8597 114.801 25.295H115.747C115.806 25.581 115.956 25.8303 116.198 26.043C116.447 26.2483 116.781 26.351 117.199 26.351C117.588 26.351 117.874 26.2703 118.057 26.109C118.24 25.9403 118.332 25.7423 118.332 25.515C118.332 25.185 118.211 24.965 117.969 24.855C117.734 24.745 117.401 24.646 116.968 24.558C116.675 24.4993 116.381 24.415 116.088 24.305C115.795 24.195 115.549 24.041 115.351 23.843C115.153 23.6377 115.054 23.37 115.054 23.04C115.054 22.5633 115.23 22.1747 115.582 21.874C115.941 21.566 116.425 21.412 117.034 21.412C117.613 21.412 118.086 21.5587 118.453 21.852C118.827 22.138 119.043 22.5487 119.102 23.084H118.189C118.152 22.8053 118.031 22.589 117.826 22.435C117.628 22.2737 117.36 22.193 117.023 22.193C116.693 22.193 116.436 22.2627 116.253 22.402C116.077 22.5413 115.989 22.7247 115.989 22.952C115.989 23.172 116.103 23.3443 116.33 23.469C116.565 23.5937 116.88 23.7 117.276 23.788C117.613 23.8613 117.932 23.953 118.233 24.063C118.541 24.1657 118.79 24.3233 118.981 24.536C119.179 24.7413 119.278 25.042 119.278 25.438C119.285 25.9293 119.098 26.3363 118.717 26.659C118.343 26.9743 117.833 27.132 117.188 27.132ZM122.507 27C122.008 27 121.616 26.879 121.33 26.637C121.044 26.395 120.901 25.9587 120.901 25.328V22.325H119.955V21.544H120.901L121.022 20.235H121.825V21.544H123.431V22.325H121.825V25.328C121.825 25.6727 121.894 25.9073 122.034 26.032C122.173 26.1493 122.419 26.208 122.771 26.208H123.343V27H122.507ZM127.516 27V19.08H128.44V22.479C128.623 22.1417 128.884 21.8813 129.221 21.698C129.558 21.5073 129.925 21.412 130.321 21.412C130.952 21.412 131.458 21.61 131.839 22.006C132.22 22.3947 132.411 22.996 132.411 23.81V27H131.498V23.909C131.498 22.7723 131.04 22.204 130.123 22.204C129.646 22.204 129.247 22.3763 128.924 22.721C128.601 23.0583 128.44 23.5423 128.44 24.173V27H127.516ZM136.264 27.132C135.743 27.132 135.281 27.0147 134.878 26.78C134.474 26.538 134.155 26.2043 133.921 25.779C133.693 25.3537 133.58 24.8513 133.58 24.272C133.58 23.7 133.693 23.2013 133.921 22.776C134.148 22.3433 134.463 22.0097 134.867 21.775C135.277 21.533 135.75 21.412 136.286 21.412C136.814 21.412 137.268 21.533 137.65 21.775C138.038 22.0097 138.335 22.3213 138.541 22.71C138.746 23.0987 138.849 23.5167 138.849 23.964C138.849 24.0447 138.845 24.1253 138.838 24.206C138.838 24.2867 138.838 24.3783 138.838 24.481H134.493C134.515 24.899 134.61 25.2473 134.779 25.526C134.955 25.7973 135.171 26.0027 135.428 26.142C135.692 26.2813 135.97 26.351 136.264 26.351C136.645 26.351 136.964 26.263 137.221 26.087C137.477 25.911 137.664 25.6727 137.782 25.372H138.695C138.548 25.878 138.266 26.2997 137.848 26.637C137.437 26.967 136.909 27.132 136.264 27.132ZM136.264 22.193C135.824 22.193 135.431 22.3287 135.087 22.6C134.749 22.864 134.555 23.2527 134.504 23.766H137.936C137.914 23.2747 137.745 22.8897 137.43 22.611C137.114 22.3323 136.726 22.193 136.264 22.193ZM140.073 27V19.08H140.997V27H140.073ZM142.512 29.42V21.544H143.348L143.436 22.446C143.612 22.182 143.861 21.9437 144.184 21.731C144.514 21.5183 144.932 21.412 145.438 21.412C145.981 21.412 146.454 21.5367 146.857 21.786C147.26 22.0353 147.572 22.3763 147.792 22.809C148.019 23.2417 148.133 23.733 148.133 24.283C148.133 24.833 148.019 25.3243 147.792 25.757C147.572 26.1823 147.257 26.5197 146.846 26.769C146.443 27.011 145.97 27.132 145.427 27.132C144.98 27.132 144.58 27.0403 144.228 26.857C143.883 26.6737 143.619 26.417 143.436 26.087V29.42H142.512ZM145.328 26.329C145.695 26.329 146.017 26.2447 146.296 26.076C146.575 25.9 146.795 25.658 146.956 25.35C147.117 25.042 147.198 24.6827 147.198 24.272C147.198 23.8613 147.117 23.502 146.956 23.194C146.795 22.886 146.575 22.6477 146.296 22.479C146.017 22.303 145.695 22.215 145.328 22.215C144.961 22.215 144.639 22.303 144.36 22.479C144.081 22.6477 143.861 22.886 143.7 23.194C143.539 23.502 143.458 23.8613 143.458 24.272C143.458 24.6827 143.539 25.042 143.7 25.35C143.861 25.658 144.081 25.9 144.36 26.076C144.639 26.2447 144.961 26.329 145.328 26.329ZM152.33 27V21.544H153.166L153.243 22.589C153.412 22.2297 153.669 21.9437 154.013 21.731C154.358 21.5183 154.783 21.412 155.289 21.412V22.38H155.036C154.714 22.38 154.417 22.4387 154.145 22.556C153.874 22.666 153.658 22.8567 153.496 23.128C153.335 23.3993 153.254 23.7733 153.254 24.25V27H152.33ZM156.887 20.334C156.704 20.334 156.55 20.2753 156.425 20.158C156.308 20.0333 156.249 19.8793 156.249 19.696C156.249 19.52 156.308 19.3733 156.425 19.256C156.55 19.1387 156.704 19.08 156.887 19.08C157.063 19.08 157.214 19.1387 157.338 19.256C157.463 19.3733 157.525 19.52 157.525 19.696C157.525 19.8793 157.463 20.0333 157.338 20.158C157.214 20.2753 157.063 20.334 156.887 20.334ZM156.425 27V21.544H157.349V27H156.425ZM161.114 25.284C160.806 25.284 160.524 25.2437 160.267 25.163L159.717 25.68C159.798 25.7387 159.897 25.79 160.014 25.834C160.139 25.8707 160.315 25.9073 160.542 25.944C160.77 25.9733 161.089 26.0063 161.499 26.043C162.233 26.0943 162.757 26.263 163.072 26.549C163.388 26.835 163.545 27.209 163.545 27.671C163.545 27.9863 163.457 28.287 163.281 28.573C163.113 28.859 162.849 29.0937 162.489 29.277C162.137 29.4603 161.683 29.552 161.125 29.552C160.634 29.552 160.198 29.486 159.816 29.354C159.435 29.2293 159.138 29.035 158.925 28.771C158.713 28.5143 158.606 28.188 158.606 27.792C158.606 27.5867 158.661 27.363 158.771 27.121C158.881 26.8863 159.087 26.6627 159.387 26.45C159.226 26.384 159.087 26.3143 158.969 26.241C158.859 26.1603 158.757 26.0723 158.661 25.977V25.724L159.596 24.8C159.164 24.4333 158.947 23.9493 158.947 23.348C158.947 22.9887 159.032 22.6623 159.2 22.369C159.369 22.0757 159.615 21.8447 159.937 21.676C160.26 21.5 160.652 21.412 161.114 21.412C161.43 21.412 161.716 21.456 161.972 21.544H163.985V22.237L162.962 22.281C163.175 22.589 163.281 22.9447 163.281 23.348C163.281 23.7073 163.193 24.0337 163.017 24.327C162.849 24.6203 162.603 24.855 162.28 25.031C161.965 25.1997 161.576 25.284 161.114 25.284ZM161.114 24.525C161.503 24.525 161.811 24.426 162.038 24.228C162.273 24.0227 162.39 23.7293 162.39 23.348C162.39 22.974 162.273 22.688 162.038 22.49C161.811 22.2847 161.503 22.182 161.114 22.182C160.718 22.182 160.403 22.2847 160.168 22.49C159.941 22.688 159.827 22.974 159.827 23.348C159.827 23.7293 159.941 24.0227 160.168 24.228C160.403 24.426 160.718 24.525 161.114 24.525ZM159.508 27.704C159.508 28.0707 159.662 28.342 159.97 28.518C160.278 28.7013 160.663 28.793 161.125 28.793C161.58 28.793 161.943 28.694 162.214 28.496C162.493 28.298 162.632 28.034 162.632 27.704C162.632 27.4693 162.537 27.264 162.346 27.088C162.156 26.9193 161.804 26.8203 161.29 26.791C160.887 26.7617 160.539 26.725 160.245 26.681C159.945 26.8423 159.747 27.0147 159.651 27.198C159.556 27.3887 159.508 27.5573 159.508 27.704ZM165.028 27V19.08H165.952V22.479C166.135 22.1417 166.395 21.8813 166.733 21.698C167.07 21.5073 167.437 21.412 167.833 21.412C168.463 21.412 168.969 21.61 169.351 22.006C169.732 22.3947 169.923 22.996 169.923 23.81V27H169.01V23.909C169.01 22.7723 168.551 22.204 167.635 22.204C167.158 22.204 166.758 22.3763 166.436 22.721C166.113 23.0583 165.952 23.5423 165.952 24.173V27H165.028ZM173.478 27C172.98 27 172.587 26.879 172.301 26.637C172.015 26.395 171.872 25.9587 171.872 25.328V22.325H170.926V21.544H171.872L171.993 20.235H172.796V21.544H174.402V22.325H172.796V25.328C172.796 25.6727 172.866 25.9073 173.005 26.032C173.145 26.1493 173.39 26.208 173.742 26.208H174.314V27H173.478ZM34.574 41.132C34.1193 41.132 33.7417 41.055 33.441 40.901C33.1403 40.747 32.9167 40.5417 32.77 40.285C32.6233 40.0283 32.55 39.7497 32.55 39.449C32.55 38.8917 32.7627 38.4627 33.188 38.162C33.6133 37.8613 34.1927 37.711 34.926 37.711H36.4V37.645C36.4 37.1683 36.2753 36.809 36.026 36.567C35.7767 36.3177 35.443 36.193 35.025 36.193C34.6657 36.193 34.354 36.2847 34.09 36.468C33.8333 36.644 33.672 36.9043 33.606 37.249H32.66C32.6967 36.853 32.8287 36.5193 33.056 36.248C33.2907 35.9767 33.5803 35.7713 33.925 35.632C34.2697 35.4853 34.6363 35.412 35.025 35.412C35.7877 35.412 36.3597 35.6173 36.741 36.028C37.1297 36.4313 37.324 36.9703 37.324 37.645V41H36.499L36.444 40.021C36.29 40.329 36.0627 40.593 35.762 40.813C35.4687 41.0257 35.0727 41.132 34.574 41.132ZM34.717 40.351C35.069 40.351 35.3697 40.2593 35.619 40.076C35.8757 39.8927 36.07 39.6543 36.202 39.361C36.334 39.0677 36.4 38.7597 36.4 38.437V38.426H35.003C34.4603 38.426 34.0753 38.5213 33.848 38.712C33.628 38.8953 33.518 39.1263 33.518 39.405C33.518 39.691 33.6207 39.922 33.826 40.098C34.0387 40.2667 34.3357 40.351 34.717 40.351ZM39.7028 41L38.1078 35.544H39.0318L40.1868 39.823L41.4628 35.544H42.5078L43.7948 39.823L44.9388 35.544H45.8738L44.2788 41H43.3328L41.9908 36.501L40.6488 41H39.7028ZM48.5174 41.132C48.0627 41.132 47.685 41.055 47.3844 40.901C47.0837 40.747 46.86 40.5417 46.7134 40.285C46.5667 40.0283 46.4934 39.7497 46.4934 39.449C46.4934 38.8917 46.706 38.4627 47.1314 38.162C47.5567 37.8613 48.136 37.711 48.8694 37.711H50.3434V37.645C50.3434 37.1683 50.2187 36.809 49.9694 36.567C49.72 36.3177 49.3864 36.193 48.9684 36.193C48.609 36.193 48.2974 36.2847 48.0334 36.468C47.7767 36.644 47.6154 36.9043 47.5494 37.249H46.6034C46.64 36.853 46.772 36.5193 46.9994 36.248C47.234 35.9767 47.5237 35.7713 47.8684 35.632C48.213 35.4853 48.5797 35.412 48.9684 35.412C49.731 35.412 50.303 35.6173 50.6844 36.028C51.073 36.4313 51.2674 36.9703 51.2674 37.645V41H50.4424L50.3874 40.021C50.2334 40.329 50.006 40.593 49.7054 40.813C49.412 41.0257 49.016 41.132 48.5174 41.132ZM48.6604 40.351C49.0124 40.351 49.313 40.2593 49.5624 40.076C49.819 39.8927 50.0134 39.6543 50.1454 39.361C50.2774 39.0677 50.3434 38.7597 50.3434 38.437V38.426H48.9464C48.4037 38.426 48.0187 38.5213 47.7914 38.712C47.5714 38.8953 47.4614 39.1263 47.4614 39.405C47.4614 39.691 47.564 39.922 47.7694 40.098C47.982 40.2667 48.279 40.351 48.6604 40.351ZM53.0864 43.42L54.4394 40.472H54.1204L51.9534 35.544H52.9544L54.7584 39.79L56.6724 35.544H57.6294L54.0544 43.42H53.0864ZM63.3308 41.132C62.8762 41.132 62.4985 41.055 62.1978 40.901C61.8972 40.747 61.6735 40.5417 61.5268 40.285C61.3802 40.0283 61.3068 39.7497 61.3068 39.449C61.3068 38.8917 61.5195 38.4627 61.9448 38.162C62.3702 37.8613 62.9495 37.711 63.6828 37.711H65.1568V37.645C65.1568 37.1683 65.0322 36.809 64.7828 36.567C64.5335 36.3177 64.1998 36.193 63.7818 36.193C63.4225 36.193 63.1108 36.2847 62.8468 36.468C62.5902 36.644 62.4288 36.9043 62.3628 37.249H61.4168C61.4535 36.853 61.5855 36.5193 61.8128 36.248C62.0475 35.9767 62.3372 35.7713 62.6818 35.632C63.0265 35.4853 63.3932 35.412 63.7818 35.412C64.5445 35.412 65.1165 35.6173 65.4978 36.028C65.8865 36.4313 66.0808 36.9703 66.0808 37.645V41H65.2558L65.2008 40.021C65.0468 40.329 64.8195 40.593 64.5188 40.813C64.2255 41.0257 63.8295 41.132 63.3308 41.132ZM63.4738 40.351C63.8258 40.351 64.1265 40.2593 64.3758 40.076C64.6325 39.8927 64.8268 39.6543 64.9588 39.361C65.0908 39.0677 65.1568 38.7597 65.1568 38.437V38.426H63.7598C63.2172 38.426 62.8322 38.5213 62.6048 38.712C62.3848 38.8953 62.2748 39.1263 62.2748 39.405C62.2748 39.691 62.3775 39.922 62.5828 40.098C62.7955 40.2667 63.0925 40.351 63.4738 40.351ZM67.467 41V35.544H68.303L68.358 36.523C68.534 36.1783 68.787 35.907 69.117 35.709C69.447 35.511 69.821 35.412 70.239 35.412C70.8843 35.412 71.3977 35.61 71.779 36.006C72.1677 36.3947 72.362 36.996 72.362 37.81V41H71.438V37.909C71.438 36.7723 70.9687 36.204 70.03 36.204C69.5607 36.204 69.1683 36.3763 68.853 36.721C68.545 37.0583 68.391 37.5423 68.391 38.173V41H67.467ZM76.2369 41.132C75.6943 41.132 75.2176 41.0073 74.8069 40.758C74.4036 40.5087 74.0883 40.1677 73.8609 39.735C73.6409 39.3023 73.5309 38.811 73.5309 38.261C73.5309 37.711 73.6446 37.2233 73.8719 36.798C74.0993 36.3653 74.4146 36.028 74.8179 35.786C75.2213 35.5367 75.6979 35.412 76.2479 35.412C76.6953 35.412 77.0913 35.5037 77.4359 35.687C77.7806 35.8703 78.0483 36.127 78.2389 36.457V33.08H79.1629V41H78.3269L78.2389 40.098C78.0629 40.362 77.8099 40.6003 77.4799 40.813C77.1499 41.0257 76.7356 41.132 76.2369 41.132ZM76.3359 40.329C76.7026 40.329 77.0253 40.2447 77.3039 40.076C77.5899 39.9 77.8099 39.658 77.9639 39.35C78.1253 39.042 78.2059 38.6827 78.2059 38.272C78.2059 37.8613 78.1253 37.502 77.9639 37.194C77.8099 36.886 77.5899 36.6477 77.3039 36.479C77.0253 36.303 76.7026 36.215 76.3359 36.215C75.9766 36.215 75.6539 36.303 75.3679 36.479C75.0893 36.6477 74.8693 36.886 74.7079 37.194C74.5539 37.502 74.4769 37.8613 74.4769 38.272C74.4769 38.6827 74.5539 39.042 74.7079 39.35C74.8693 39.658 75.0893 39.9 75.3679 40.076C75.6539 40.2447 75.9766 40.329 76.3359 40.329ZM86.0333 41.132C85.5126 41.132 85.0506 41.0147 84.6473 40.78C84.244 40.538 83.925 40.2043 83.6903 39.779C83.463 39.3537 83.3493 38.8513 83.3493 38.272C83.3493 37.7 83.463 37.2013 83.6903 36.776C83.9176 36.3433 84.233 36.0097 84.6363 35.775C85.047 35.533 85.52 35.412 86.0553 35.412C86.5833 35.412 87.038 35.533 87.4193 35.775C87.808 36.0097 88.105 36.3213 88.3103 36.71C88.5156 37.0987 88.6183 37.5167 88.6183 37.964C88.6183 38.0447 88.6146 38.1253 88.6073 38.206C88.6073 38.2867 88.6073 38.3783 88.6073 38.481H84.2623C84.2843 38.899 84.3796 39.2473 84.5483 39.526C84.7243 39.7973 84.9406 40.0027 85.1973 40.142C85.4613 40.2813 85.74 40.351 86.0333 40.351C86.4146 40.351 86.7336 40.263 86.9903 40.087C87.247 39.911 87.434 39.6727 87.5513 39.372H88.4643C88.3176 39.878 88.0353 40.2997 87.6173 40.637C87.2066 40.967 86.6786 41.132 86.0333 41.132ZM86.0333 36.193C85.5933 36.193 85.201 36.3287 84.8563 36.6C84.519 36.864 84.3246 37.2527 84.2733 37.766H87.7053C87.6833 37.2747 87.5146 36.8897 87.1993 36.611C86.884 36.3323 86.4953 36.193 86.0333 36.193ZM91.658 41.132C91.2033 41.132 90.8257 41.055 90.525 40.901C90.2243 40.747 90.0007 40.5417 89.854 40.285C89.7073 40.0283 89.634 39.7497 89.634 39.449C89.634 38.8917 89.8467 38.4627 90.272 38.162C90.6973 37.8613 91.2767 37.711 92.01 37.711H93.484V37.645C93.484 37.1683 93.3593 36.809 93.11 36.567C92.8607 36.3177 92.527 36.193 92.109 36.193C91.7497 36.193 91.438 36.2847 91.174 36.468C90.9173 36.644 90.756 36.9043 90.69 37.249H89.744C89.7807 36.853 89.9127 36.5193 90.14 36.248C90.3747 35.9767 90.6643 35.7713 91.009 35.632C91.3537 35.4853 91.7203 35.412 92.109 35.412C92.8717 35.412 93.4437 35.6173 93.825 36.028C94.2137 36.4313 94.408 36.9703 94.408 37.645V41H93.583L93.528 40.021C93.374 40.329 93.1467 40.593 92.846 40.813C92.5527 41.0257 92.1567 41.132 91.658 41.132ZM91.801 40.351C92.153 40.351 92.4537 40.2593 92.703 40.076C92.9597 39.8927 93.154 39.6543 93.286 39.361C93.418 39.0677 93.484 38.7597 93.484 38.437V38.426H92.087C91.5443 38.426 91.1593 38.5213 90.932 38.712C90.712 38.8953 90.602 39.1263 90.602 39.405C90.602 39.691 90.7047 39.922 90.91 40.098C91.1227 40.2667 91.4197 40.351 91.801 40.351ZM97.8842 41.132C97.2315 41.132 96.6888 40.967 96.2562 40.637C95.8235 40.307 95.5705 39.8597 95.4972 39.295H96.4432C96.5018 39.581 96.6522 39.8303 96.8942 40.043C97.1435 40.2483 97.4772 40.351 97.8952 40.351C98.2838 40.351 98.5698 40.2703 98.7532 40.109C98.9365 39.9403 99.0282 39.7423 99.0282 39.515C99.0282 39.185 98.9072 38.965 98.6652 38.855C98.4305 38.745 98.0968 38.646 97.6642 38.558C97.3708 38.4993 97.0775 38.415 96.7842 38.305C96.4908 38.195 96.2452 38.041 96.0472 37.843C95.8492 37.6377 95.7502 37.37 95.7502 37.04C95.7502 36.5633 95.9262 36.1747 96.2782 35.874C96.6375 35.566 97.1215 35.412 97.7302 35.412C98.3095 35.412 98.7825 35.5587 99.1492 35.852C99.5232 36.138 99.7395 36.5487 99.7982 37.084H98.8852C98.8485 36.8053 98.7275 36.589 98.5222 36.435C98.3242 36.2737 98.0565 36.193 97.7192 36.193C97.3892 36.193 97.1325 36.2627 96.9492 36.402C96.7732 36.5413 96.6852 36.7247 96.6852 36.952C96.6852 37.172 96.7988 37.3443 97.0262 37.469C97.2608 37.5937 97.5762 37.7 97.9722 37.788C98.3095 37.8613 98.6285 37.953 98.9292 38.063C99.2372 38.1657 99.4865 38.3233 99.6772 38.536C99.8752 38.7413 99.9742 39.042 99.9742 39.438C99.9815 39.9293 99.7945 40.3363 99.4132 40.659C99.0392 40.9743 98.5295 41.132 97.8842 41.132ZM101.855 34.334C101.672 34.334 101.518 34.2753 101.393 34.158C101.276 34.0333 101.217 33.8793 101.217 33.696C101.217 33.52 101.276 33.3733 101.393 33.256C101.518 33.1387 101.672 33.08 101.855 33.08C102.031 33.08 102.181 33.1387 102.306 33.256C102.431 33.3733 102.493 33.52 102.493 33.696C102.493 33.8793 102.431 34.0333 102.306 34.158C102.181 34.2753 102.031 34.334 101.855 34.334ZM101.393 41V35.544H102.317V41H101.393ZM103.926 41V33.08H104.85V41H103.926ZM106.958 43.42L108.311 40.472H107.992L105.825 35.544H106.826L108.63 39.79L110.544 35.544H111.501L107.926 43.42H106.958ZM115.388 41V35.544H116.224L116.279 36.523C116.455 36.1783 116.708 35.907 117.038 35.709C117.368 35.511 117.742 35.412 118.16 35.412C118.805 35.412 119.319 35.61 119.7 36.006C120.089 36.3947 120.283 36.996 120.283 37.81V41H119.359V37.909C119.359 36.7723 118.89 36.204 117.951 36.204C117.482 36.204 117.089 36.3763 116.774 36.721C116.466 37.0583 116.312 37.5423 116.312 38.173V41H115.388ZM123.498 41.132C123.043 41.132 122.665 41.055 122.365 40.901C122.064 40.747 121.84 40.5417 121.694 40.285C121.547 40.0283 121.474 39.7497 121.474 39.449C121.474 38.8917 121.686 38.4627 122.112 38.162C122.537 37.8613 123.116 37.711 123.85 37.711H125.324V37.645C125.324 37.1683 125.199 36.809 124.95 36.567C124.7 36.3177 124.367 36.193 123.949 36.193C123.589 36.193 123.278 36.2847 123.014 36.468C122.757 36.644 122.596 36.9043 122.53 37.249H121.584C121.62 36.853 121.752 36.5193 121.98 36.248C122.214 35.9767 122.504 35.7713 122.849 35.632C123.193 35.4853 123.56 35.412 123.949 35.412C124.711 35.412 125.283 35.6173 125.665 36.028C126.053 36.4313 126.248 36.9703 126.248 37.645V41H125.423L125.368 40.021C125.214 40.329 124.986 40.593 124.686 40.813C124.392 41.0257 123.996 41.132 123.498 41.132ZM123.641 40.351C123.993 40.351 124.293 40.2593 124.543 40.076C124.799 39.8927 124.994 39.6543 125.126 39.361C125.258 39.0677 125.324 38.7597 125.324 38.437V38.426H123.927C123.384 38.426 122.999 38.5213 122.772 38.712C122.552 38.8953 122.442 39.1263 122.442 39.405C122.442 39.691 122.544 39.922 122.75 40.098C122.962 40.2667 123.259 40.351 123.641 40.351ZM129.003 41L126.935 35.544H127.903L129.542 40.109L131.192 35.544H132.138L130.07 41H129.003ZM133.727 34.334C133.544 34.334 133.39 34.2753 133.265 34.158C133.148 34.0333 133.089 33.8793 133.089 33.696C133.089 33.52 133.148 33.3733 133.265 33.256C133.39 33.1387 133.544 33.08 133.727 33.08C133.903 33.08 134.054 33.1387 134.178 33.256C134.303 33.3733 134.365 33.52 134.365 33.696C134.365 33.8793 134.303 34.0333 134.178 34.158C134.054 34.2753 133.903 34.334 133.727 34.334ZM133.265 41V35.544H134.189V41H133.265ZM137.954 39.284C137.646 39.284 137.364 39.2437 137.107 39.163L136.557 39.68C136.638 39.7387 136.737 39.79 136.854 39.834C136.979 39.8707 137.155 39.9073 137.382 39.944C137.609 39.9733 137.928 40.0063 138.339 40.043C139.072 40.0943 139.597 40.263 139.912 40.549C140.227 40.835 140.385 41.209 140.385 41.671C140.385 41.9863 140.297 42.287 140.121 42.573C139.952 42.859 139.688 43.0937 139.329 43.277C138.977 43.4603 138.522 43.552 137.965 43.552C137.474 43.552 137.037 43.486 136.656 43.354C136.275 43.2293 135.978 43.035 135.765 42.771C135.552 42.5143 135.446 42.188 135.446 41.792C135.446 41.5867 135.501 41.363 135.611 41.121C135.721 40.8863 135.926 40.6627 136.227 40.45C136.066 40.384 135.926 40.3143 135.809 40.241C135.699 40.1603 135.596 40.0723 135.501 39.977V39.724L136.436 38.8C136.003 38.4333 135.787 37.9493 135.787 37.348C135.787 36.9887 135.871 36.6623 136.04 36.369C136.209 36.0757 136.454 35.8447 136.777 35.676C137.1 35.5 137.492 35.412 137.954 35.412C138.269 35.412 138.555 35.456 138.812 35.544H140.825V36.237L139.802 36.281C140.015 36.589 140.121 36.9447 140.121 37.348C140.121 37.7073 140.033 38.0337 139.857 38.327C139.688 38.6203 139.443 38.855 139.12 39.031C138.805 39.1997 138.416 39.284 137.954 39.284ZM137.954 38.525C138.343 38.525 138.651 38.426 138.878 38.228C139.113 38.0227 139.23 37.7293 139.23 37.348C139.23 36.974 139.113 36.688 138.878 36.49C138.651 36.2847 138.343 36.182 137.954 36.182C137.558 36.182 137.243 36.2847 137.008 36.49C136.781 36.688 136.667 36.974 136.667 37.348C136.667 37.7293 136.781 38.0227 137.008 38.228C137.243 38.426 137.558 38.525 137.954 38.525ZM136.348 41.704C136.348 42.0707 136.502 42.342 136.81 42.518C137.118 42.7013 137.503 42.793 137.965 42.793C138.42 42.793 138.783 42.694 139.054 42.496C139.333 42.298 139.472 42.034 139.472 41.704C139.472 41.4693 139.377 41.264 139.186 41.088C138.995 40.9193 138.643 40.8203 138.13 40.791C137.727 40.7617 137.378 40.725 137.085 40.681C136.784 40.8423 136.586 41.0147 136.491 41.198C136.396 41.3887 136.348 41.5573 136.348 41.704ZM143.682 41.132C143.228 41.132 142.85 41.055 142.549 40.901C142.249 40.747 142.025 40.5417 141.878 40.285C141.732 40.0283 141.658 39.7497 141.658 39.449C141.658 38.8917 141.871 38.4627 142.296 38.162C142.722 37.8613 143.301 37.711 144.034 37.711H145.508V37.645C145.508 37.1683 145.384 36.809 145.134 36.567C144.885 36.3177 144.551 36.193 144.133 36.193C143.774 36.193 143.462 36.2847 143.198 36.468C142.942 36.644 142.78 36.9043 142.714 37.249H141.768C141.805 36.853 141.937 36.5193 142.164 36.248C142.399 35.9767 142.689 35.7713 143.033 35.632C143.378 35.4853 143.745 35.412 144.133 35.412C144.896 35.412 145.468 35.6173 145.849 36.028C146.238 36.4313 146.432 36.9703 146.432 37.645V41H145.607L145.552 40.021C145.398 40.329 145.171 40.593 144.87 40.813C144.577 41.0257 144.181 41.132 143.682 41.132ZM143.825 40.351C144.177 40.351 144.478 40.2593 144.727 40.076C144.984 39.8927 145.178 39.6543 145.31 39.361C145.442 39.0677 145.508 38.7597 145.508 38.437V38.426H144.111C143.569 38.426 143.184 38.5213 142.956 38.712C142.736 38.8953 142.626 39.1263 142.626 39.405C142.626 39.691 142.729 39.922 142.934 40.098C143.147 40.2667 143.444 40.351 143.825 40.351ZM149.824 41C149.326 41 148.933 40.879 148.647 40.637C148.361 40.395 148.218 39.9587 148.218 39.328V36.325H147.272V35.544H148.218L148.339 34.235H149.142V35.544H150.748V36.325H149.142V39.328C149.142 39.6727 149.212 39.9073 149.351 40.032C149.491 40.1493 149.736 40.208 150.088 40.208H150.66V41H149.824ZM154.225 41.132C153.704 41.132 153.242 41.0147 152.839 40.78C152.435 40.538 152.116 40.2043 151.882 39.779C151.654 39.3537 151.541 38.8513 151.541 38.272C151.541 37.7 151.654 37.2013 151.882 36.776C152.109 36.3433 152.424 36.0097 152.828 35.775C153.238 35.533 153.711 35.412 154.247 35.412C154.775 35.412 155.229 35.533 155.611 35.775C155.999 36.0097 156.296 36.3213 156.502 36.71C156.707 37.0987 156.81 37.5167 156.81 37.964C156.81 38.0447 156.806 38.1253 156.799 38.206C156.799 38.2867 156.799 38.3783 156.799 38.481H152.454C152.476 38.899 152.571 39.2473 152.74 39.526C152.916 39.7973 153.132 40.0027 153.389 40.142C153.653 40.2813 153.931 40.351 154.225 40.351C154.606 40.351 154.925 40.263 155.182 40.087C155.438 39.911 155.625 39.6727 155.743 39.372H156.656C156.509 39.878 156.227 40.2997 155.809 40.637C155.398 40.967 154.87 41.132 154.225 41.132ZM154.225 36.193C153.785 36.193 153.392 36.3287 153.048 36.6C152.71 36.864 152.516 37.2527 152.465 37.766H155.897C155.875 37.2747 155.706 36.8897 155.391 36.611C155.075 36.3323 154.687 36.193 154.225 36.193ZM163.102 41C162.603 41 162.211 40.879 161.925 40.637C161.639 40.395 161.496 39.9587 161.496 39.328V36.325H160.55V35.544H161.496L161.617 34.235H162.42V35.544H164.026V36.325H162.42V39.328C162.42 39.6727 162.489 39.9073 162.629 40.032C162.768 40.1493 163.014 40.208 163.366 40.208H163.938V41H163.102ZM167.535 41.132C167.022 41.132 166.56 41.0147 166.149 40.78C165.738 40.5453 165.412 40.2153 165.17 39.79C164.935 39.3573 164.818 38.8513 164.818 38.272C164.818 37.6927 164.939 37.1903 165.181 36.765C165.423 36.3323 165.749 35.9987 166.16 35.764C166.578 35.5293 167.044 35.412 167.557 35.412C168.07 35.412 168.532 35.5293 168.943 35.764C169.354 35.9987 169.676 36.3323 169.911 36.765C170.153 37.1903 170.274 37.6927 170.274 38.272C170.274 38.8513 170.153 39.3573 169.911 39.79C169.669 40.2153 169.339 40.5453 168.921 40.78C168.51 41.0147 168.048 41.132 167.535 41.132ZM167.535 40.34C167.85 40.34 168.144 40.263 168.415 40.109C168.686 39.955 168.906 39.724 169.075 39.416C169.244 39.108 169.328 38.7267 169.328 38.272C169.328 37.8173 169.244 37.436 169.075 37.128C168.914 36.82 168.697 36.589 168.426 36.435C168.155 36.281 167.865 36.204 167.557 36.204C167.242 36.204 166.948 36.281 166.677 36.435C166.406 36.589 166.186 36.82 166.017 37.128C165.848 37.436 165.764 37.8173 165.764 38.272C165.764 38.7267 165.848 39.108 166.017 39.416C166.186 39.724 166.402 39.955 166.666 40.109C166.937 40.263 167.227 40.34 167.535 40.34ZM176.626 41C176.127 41 175.735 40.879 175.449 40.637C175.163 40.395 175.02 39.9587 175.02 39.328V36.325H174.074V35.544H175.02L175.141 34.235H175.944V35.544H177.55V36.325H175.944V39.328C175.944 39.6727 176.014 39.9073 176.153 40.032C176.292 40.1493 176.538 40.208 176.89 40.208H177.462V41H176.626ZM178.724 41V33.08H179.648V36.479C179.831 36.1417 180.092 35.8813 180.429 35.698C180.766 35.5073 181.133 35.412 181.529 35.412C182.16 35.412 182.666 35.61 183.047 36.006C183.428 36.3947 183.619 36.996 183.619 37.81V41H182.706V37.909C182.706 36.7723 182.248 36.204 181.331 36.204C180.854 36.204 180.455 36.3763 180.132 36.721C179.809 37.0583 179.648 37.5423 179.648 38.173V41H178.724ZM187.472 41.132C186.951 41.132 186.489 41.0147 186.086 40.78C185.682 40.538 185.363 40.2043 185.129 39.779C184.901 39.3537 184.788 38.8513 184.788 38.272C184.788 37.7 184.901 37.2013 185.129 36.776C185.356 36.3433 185.671 36.0097 186.075 35.775C186.485 35.533 186.958 35.412 187.494 35.412C188.022 35.412 188.476 35.533 188.858 35.775C189.246 36.0097 189.543 36.3213 189.749 36.71C189.954 37.0987 190.057 37.5167 190.057 37.964C190.057 38.0447 190.053 38.1253 190.046 38.206C190.046 38.2867 190.046 38.3783 190.046 38.481H185.701C185.723 38.899 185.818 39.2473 185.987 39.526C186.163 39.7973 186.379 40.0027 186.636 40.142C186.9 40.2813 187.178 40.351 187.472 40.351C187.853 40.351 188.172 40.263 188.429 40.087C188.685 39.911 188.872 39.6727 188.99 39.372H189.903C189.756 39.878 189.474 40.2997 189.056 40.637C188.645 40.967 188.117 41.132 187.472 41.132ZM187.472 36.193C187.032 36.193 186.639 36.3287 186.295 36.6C185.957 36.864 185.763 37.2527 185.712 37.766H189.144C189.122 37.2747 188.953 36.8897 188.638 36.611C188.322 36.3323 187.934 36.193 187.472 36.193ZM36.191 55.132C35.4357 55.132 34.783 54.967 34.233 54.637C33.6903 54.2997 33.2687 53.834 32.968 53.24C32.6673 52.6387 32.517 51.942 32.517 51.15C32.517 50.3653 32.6673 49.676 32.968 49.082C33.2687 48.4807 33.6903 48.0113 34.233 47.674C34.783 47.3367 35.4357 47.168 36.191 47.168C37.071 47.168 37.786 47.3807 38.336 47.806C38.8933 48.224 39.249 48.8107 39.403 49.566H38.38C38.2627 49.0893 38.0207 48.708 37.654 48.422C37.2947 48.1287 36.807 47.982 36.191 47.982C35.641 47.982 35.1607 48.1103 34.75 48.367C34.3393 48.6163 34.0203 48.9793 33.793 49.456C33.573 49.9253 33.463 50.49 33.463 51.15C33.463 51.81 33.573 52.3783 33.793 52.855C34.0203 53.3243 34.3393 53.6873 34.75 53.944C35.1607 54.1933 35.641 54.318 36.191 54.318C36.807 54.318 37.2947 54.1787 37.654 53.9C38.0207 53.614 38.2627 53.2363 38.38 52.767H39.403C39.249 53.5077 38.8933 54.087 38.336 54.505C37.786 54.923 37.071 55.132 36.191 55.132ZM42.3524 55V48.059H40.0534V47.3H45.5754V48.059H43.2764V55H42.3524ZM45.3495 55L48.1875 47.3H49.1665L51.9935 55H51.0145L50.3105 53.02H47.0325L46.3175 55H45.3495ZM47.3075 52.272H50.0355L48.6715 48.466L47.3075 52.272ZM55.9944 55V47.08H56.9184V55H55.9944ZM60.2478 55.132C59.7932 55.132 59.4155 55.055 59.1148 54.901C58.8142 54.747 58.5905 54.5417 58.4438 54.285C58.2972 54.0283 58.2238 53.7497 58.2238 53.449C58.2238 52.8917 58.4365 52.4627 58.8618 52.162C59.2872 51.8613 59.8665 51.711 60.5998 51.711H62.0738V51.645C62.0738 51.1683 61.9492 50.809 61.6998 50.567C61.4505 50.3177 61.1168 50.193 60.6988 50.193C60.3395 50.193 60.0278 50.2847 59.7638 50.468C59.5072 50.644 59.3458 50.9043 59.2798 51.249H58.3338C58.3705 50.853 58.5025 50.5193 58.7298 50.248C58.9645 49.9767 59.2542 49.7713 59.5988 49.632C59.9435 49.4853 60.3102 49.412 60.6988 49.412C61.4615 49.412 62.0335 49.6173 62.4148 50.028C62.8035 50.4313 62.9978 50.9703 62.9978 51.645V55H62.1728L62.1178 54.021C61.9638 54.329 61.7365 54.593 61.4358 54.813C61.1425 55.0257 60.7465 55.132 60.2478 55.132ZM60.3908 54.351C60.7428 54.351 61.0435 54.2593 61.2928 54.076C61.5495 53.8927 61.7438 53.6543 61.8758 53.361C62.0078 53.0677 62.0738 52.7597 62.0738 52.437V52.426H60.6768C60.1342 52.426 59.7492 52.5213 59.5218 52.712C59.3018 52.8953 59.1918 53.1263 59.1918 53.405C59.1918 53.691 59.2945 53.922 59.4998 54.098C59.7125 54.2667 60.0095 54.351 60.3908 54.351ZM66.3896 55C65.8909 55 65.4986 54.879 65.2126 54.637C64.9266 54.395 64.7836 53.9587 64.7836 53.328V50.325H63.8376V49.544H64.7836L64.9046 48.235H65.7076V49.544H67.3136V50.325H65.7076V53.328C65.7076 53.6727 65.7773 53.9073 65.9166 54.032C66.0559 54.1493 66.3016 54.208 66.6536 54.208H67.2256V55H66.3896ZM70.7901 55.132C70.2695 55.132 69.8075 55.0147 69.4041 54.78C69.0008 54.538 68.6818 54.2043 68.4471 53.779C68.2198 53.3537 68.1061 52.8513 68.1061 52.272C68.1061 51.7 68.2198 51.2013 68.4471 50.776C68.6745 50.3433 68.9898 50.0097 69.3931 49.775C69.8038 49.533 70.2768 49.412 70.8121 49.412C71.3401 49.412 71.7948 49.533 72.1761 49.775C72.5648 50.0097 72.8618 50.3213 73.0671 50.71C73.2725 51.0987 73.3751 51.5167 73.3751 51.964C73.3751 52.0447 73.3715 52.1253 73.3641 52.206C73.3641 52.2867 73.3641 52.3783 73.3641 52.481H69.0191C69.0411 52.899 69.1365 53.2473 69.3051 53.526C69.4811 53.7973 69.6975 54.0027 69.9541 54.142C70.2181 54.2813 70.4968 54.351 70.7901 54.351C71.1715 54.351 71.4905 54.263 71.7471 54.087C72.0038 53.911 72.1908 53.6727 72.3081 53.372H73.2211C73.0745 53.878 72.7921 54.2997 72.3741 54.637C71.9635 54.967 71.4355 55.132 70.7901 55.132ZM70.7901 50.193C70.3501 50.193 69.9578 50.3287 69.6131 50.6C69.2758 50.864 69.0815 51.2527 69.0301 51.766H72.4621C72.4401 51.2747 72.2715 50.8897 71.9561 50.611C71.6408 50.3323 71.2521 50.193 70.7901 50.193ZM74.5998 55V49.544H75.4358L75.5128 50.589C75.6815 50.2297 75.9382 49.9437 76.2828 49.731C76.6275 49.5183 77.0528 49.412 77.5588 49.412V50.38H77.3058C76.9832 50.38 76.6862 50.4387 76.4148 50.556C76.1435 50.666 75.9272 50.8567 75.7658 51.128C75.6045 51.3993 75.5238 51.7733 75.5238 52.25V55H74.5998ZM83.993 55.132C83.4797 55.132 83.0177 55.0147 82.607 54.78C82.1964 54.5453 81.87 54.2153 81.628 53.79C81.3934 53.3573 81.276 52.8513 81.276 52.272C81.276 51.6927 81.397 51.1903 81.639 50.765C81.881 50.3323 82.2074 49.9987 82.618 49.764C83.036 49.5293 83.5017 49.412 84.015 49.412C84.5284 49.412 84.9904 49.5293 85.401 49.764C85.8117 49.9987 86.1344 50.3323 86.369 50.765C86.611 51.1903 86.732 51.6927 86.732 52.272C86.732 52.8513 86.611 53.3573 86.369 53.79C86.127 54.2153 85.797 54.5453 85.379 54.78C84.9684 55.0147 84.5064 55.132 83.993 55.132ZM83.993 54.34C84.3084 54.34 84.6017 54.263 84.873 54.109C85.1444 53.955 85.3644 53.724 85.533 53.416C85.7017 53.108 85.786 52.7267 85.786 52.272C85.786 51.8173 85.7017 51.436 85.533 51.128C85.3717 50.82 85.1554 50.589 84.884 50.435C84.6127 50.281 84.323 50.204 84.015 50.204C83.6997 50.204 83.4064 50.281 83.135 50.435C82.8637 50.589 82.6437 50.82 82.475 51.128C82.3064 51.436 82.222 51.8173 82.222 52.272C82.222 52.7267 82.3064 53.108 82.475 53.416C82.6437 53.724 82.86 53.955 83.124 54.109C83.3954 54.263 83.685 54.34 83.993 54.34ZM88.0168 55V49.544H88.8528L88.9078 50.523C89.0838 50.1783 89.3368 49.907 89.6668 49.709C89.9968 49.511 90.3708 49.412 90.7888 49.412C91.4341 49.412 91.9475 49.61 92.3288 50.006C92.7175 50.3947 92.9118 50.996 92.9118 51.81V55H91.9878V51.909C91.9878 50.7723 91.5185 50.204 90.5798 50.204C90.1105 50.204 89.7181 50.3763 89.4028 50.721C89.0948 51.0583 88.9408 51.5423 88.9408 52.173V55H88.0168Z" fill="black"/>
</g>
<defs>
<filter id="filter0_d_162_5932" x="16" y="0" width="192" height="74" filterUnits="userSpaceOnUse" color-interpolation-filters="sRGB">
<feFlood flood-opacity="0" result="BackgroundImageFix"/>
<feColorMatrix in="SourceAlpha" type="matrix" values="0 0 0 0 0 0 0 0 0 0 0 0 0 0 0 0 0 0 127 0" result="hardAlpha"/>
<feOffset/>
<feGaussianBlur stdDeviation="4"/>
<feComposite in2="hardAlpha" operator="out"/>
<feColorMatrix type="matrix" values="0 0 0 0 0 0 0 0 0 0 0 0 0 0 0 0 0 0 0.15 0"/>
<feBlend mode="normal" in2="BackgroundImageFix" result="effect1_dropShadow_162_5932"/>
<feBlend mode="normal" in="SourceGraphic" in2="effect1_dropShadow_162_5932" result="shape"/>
</filter>
</defs>
</svg>
