<svg width="208" height="102" viewBox="0 0 208 102" fill="none" xmlns="http://www.w3.org/2000/svg">
<circle cx="4" cy="51" r="4" fill="#005271"/>
<line x1="8" y1="50.5" x2="24" y2="50.5" stroke="#005271" stroke-dasharray="2 2"/>
<g filter="url(#filter0_d_162_5914)">
<rect x="24" y="8" width="176" height="86" rx="4" fill="white" shape-rendering="crispEdges"/>
<path d="M35.597 27.132C35.069 27.132 34.5887 27.0293 34.156 26.824C33.7307 26.6113 33.3897 26.285 33.133 25.845C32.8763 25.405 32.748 24.844 32.748 24.162V19.3H33.672V24.173C33.672 24.921 33.8517 25.4637 34.211 25.801C34.5703 26.1383 35.0397 26.307 35.619 26.307C36.1983 26.307 36.664 26.1383 37.016 25.801C37.368 25.4637 37.544 24.921 37.544 24.173V19.3H38.468V24.162C38.468 24.844 38.3397 25.405 38.083 25.845C37.8263 26.285 37.4817 26.6113 37.049 26.824C36.6163 27.0293 36.1323 27.132 35.597 27.132ZM42.0678 27.132C41.4151 27.132 40.8724 26.967 40.4398 26.637C40.0071 26.307 39.7541 25.8597 39.6808 25.295H40.6268C40.6854 25.581 40.8358 25.8303 41.0778 26.043C41.3271 26.2483 41.6608 26.351 42.0788 26.351C42.4674 26.351 42.7534 26.2703 42.9368 26.109C43.1201 25.9403 43.2118 25.7423 43.2118 25.515C43.2118 25.185 43.0908 24.965 42.8488 24.855C42.6141 24.745 42.2804 24.646 41.8478 24.558C41.5544 24.4993 41.2611 24.415 40.9678 24.305C40.6744 24.195 40.4288 24.041 40.2308 23.843C40.0328 23.6377 39.9338 23.37 39.9338 23.04C39.9338 22.5633 40.1098 22.1747 40.4618 21.874C40.8211 21.566 41.3051 21.412 41.9138 21.412C42.4931 21.412 42.9661 21.5587 43.3328 21.852C43.7068 22.138 43.9231 22.5487 43.9818 23.084H43.0688C43.0321 22.8053 42.9111 22.589 42.7058 22.435C42.5078 22.2737 42.2401 22.193 41.9028 22.193C41.5728 22.193 41.3161 22.2627 41.1328 22.402C40.9568 22.5413 40.8688 22.7247 40.8688 22.952C40.8688 23.172 40.9824 23.3443 41.2098 23.469C41.4444 23.5937 41.7598 23.7 42.1558 23.788C42.4931 23.8613 42.8121 23.953 43.1128 24.063C43.4208 24.1657 43.6701 24.3233 43.8608 24.536C44.0588 24.7413 44.1578 25.042 44.1578 25.438C44.1651 25.9293 43.9781 26.3363 43.5968 26.659C43.2228 26.9743 42.7131 27.132 42.0678 27.132ZM47.9308 27.132C47.4101 27.132 46.9481 27.0147 46.5448 26.78C46.1414 26.538 45.8224 26.2043 45.5878 25.779C45.3604 25.3537 45.2468 24.8513 45.2468 24.272C45.2468 23.7 45.3604 23.2013 45.5878 22.776C45.8151 22.3433 46.1304 22.0097 46.5338 21.775C46.9444 21.533 47.4174 21.412 47.9527 21.412C48.4808 21.412 48.9354 21.533 49.3168 21.775C49.7054 22.0097 50.0024 22.3213 50.2078 22.71C50.4131 23.0987 50.5158 23.5167 50.5158 23.964C50.5158 24.0447 50.5121 24.1253 50.5048 24.206C50.5048 24.2867 50.5048 24.3783 50.5048 24.481H46.1598C46.1818 24.899 46.2771 25.2473 46.4458 25.526C46.6218 25.7973 46.8381 26.0027 47.0948 26.142C47.3588 26.2813 47.6374 26.351 47.9308 26.351C48.3121 26.351 48.6311 26.263 48.8878 26.087C49.1444 25.911 49.3314 25.6727 49.4488 25.372H50.3618C50.2151 25.878 49.9328 26.2997 49.5148 26.637C49.1041 26.967 48.5761 27.132 47.9308 27.132ZM47.9308 22.193C47.4908 22.193 47.0984 22.3287 46.7538 22.6C46.4164 22.864 46.2221 23.2527 46.1707 23.766H49.6028C49.5808 23.2747 49.4121 22.8897 49.0968 22.611C48.7814 22.3323 48.3928 22.193 47.9308 22.193ZM51.7404 27V21.544H52.5764L52.6534 22.589C52.8221 22.2297 53.0788 21.9437 53.4234 21.731C53.7681 21.5183 54.1934 21.412 54.6994 21.412V22.38H54.4464C54.1238 22.38 53.8268 22.4387 53.5554 22.556C53.2841 22.666 53.0678 22.8567 52.9064 23.128C52.7451 23.3993 52.6644 23.7733 52.6644 24.25V27H51.7404ZM57.8265 27.132C57.1739 27.132 56.6312 26.967 56.1985 26.637C55.7659 26.307 55.5129 25.8597 55.4395 25.295H56.3855C56.4442 25.581 56.5945 25.8303 56.8365 26.043C57.0859 26.2483 57.4195 26.351 57.8375 26.351C58.2262 26.351 58.5122 26.2703 58.6955 26.109C58.8789 25.9403 58.9705 25.7423 58.9705 25.515C58.9705 25.185 58.8495 24.965 58.6075 24.855C58.3729 24.745 58.0392 24.646 57.6065 24.558C57.3132 24.4993 57.0199 24.415 56.7265 24.305C56.4332 24.195 56.1875 24.041 55.9895 23.843C55.7915 23.6377 55.6925 23.37 55.6925 23.04C55.6925 22.5633 55.8685 22.1747 56.2205 21.874C56.5799 21.566 57.0639 21.412 57.6725 21.412C58.2519 21.412 58.7249 21.5587 59.0915 21.852C59.4655 22.138 59.6819 22.5487 59.7405 23.084H58.8275C58.7909 22.8053 58.6699 22.589 58.4645 22.435C58.2665 22.2737 57.9989 22.193 57.6615 22.193C57.3315 22.193 57.0749 22.2627 56.8915 22.402C56.7155 22.5413 56.6275 22.7247 56.6275 22.952C56.6275 23.172 56.7412 23.3443 56.9685 23.469C57.2032 23.5937 57.5185 23.7 57.9145 23.788C58.2519 23.8613 58.5709 23.953 58.8715 24.063C59.1795 24.1657 59.4289 24.3233 59.6195 24.536C59.8175 24.7413 59.9165 25.042 59.9165 25.438C59.9239 25.9293 59.7369 26.3363 59.3555 26.659C58.9815 26.9743 58.4719 27.132 57.8265 27.132ZM66.6227 27.132C66.08 27.132 65.6033 27.0073 65.1927 26.758C64.7893 26.5087 64.474 26.1677 64.2467 25.735C64.0267 25.3023 63.9167 24.811 63.9167 24.261C63.9167 23.711 64.0303 23.2233 64.2577 22.798C64.485 22.3653 64.8003 22.028 65.2037 21.786C65.607 21.5367 66.0837 21.412 66.6337 21.412C67.081 21.412 67.477 21.5037 67.8217 21.687C68.1663 21.8703 68.434 22.127 68.6247 22.457V19.08H69.5487V27H68.7127L68.6247 26.098C68.4487 26.362 68.1957 26.6003 67.8657 26.813C67.5357 27.0257 67.1213 27.132 66.6227 27.132ZM66.7217 26.329C67.0883 26.329 67.411 26.2447 67.6897 26.076C67.9757 25.9 68.1957 25.658 68.3497 25.35C68.511 25.042 68.5917 24.6827 68.5917 24.272C68.5917 23.8613 68.511 23.502 68.3497 23.194C68.1957 22.886 67.9757 22.6477 67.6897 22.479C67.411 22.303 67.0883 22.215 66.7217 22.215C66.3623 22.215 66.0397 22.303 65.7537 22.479C65.475 22.6477 65.255 22.886 65.0937 23.194C64.9397 23.502 64.8627 23.8613 64.8627 24.272C64.8627 24.6827 64.9397 25.042 65.0937 25.35C65.255 25.658 65.475 25.9 65.7537 26.076C66.0397 26.2447 66.3623 26.329 66.7217 26.329ZM73.5079 27.132C72.9872 27.132 72.5252 27.0147 72.1219 26.78C71.7186 26.538 71.3996 26.2043 71.1649 25.779C70.9376 25.3537 70.8239 24.8513 70.8239 24.272C70.8239 23.7 70.9376 23.2013 71.1649 22.776C71.3922 22.3433 71.7076 22.0097 72.1109 21.775C72.5216 21.533 72.9946 21.412 73.5299 21.412C74.0579 21.412 74.5126 21.533 74.8939 21.775C75.2826 22.0097 75.5796 22.3213 75.7849 22.71C75.9902 23.0987 76.0929 23.5167 76.0929 23.964C76.0929 24.0447 76.0892 24.1253 76.0819 24.206C76.0819 24.2867 76.0819 24.3783 76.0819 24.481H71.7369C71.7589 24.899 71.8542 25.2473 72.0229 25.526C72.1989 25.7973 72.4152 26.0027 72.6719 26.142C72.9359 26.2813 73.2146 26.351 73.5079 26.351C73.8892 26.351 74.2082 26.263 74.4649 26.087C74.7216 25.911 74.9086 25.6727 75.0259 25.372H75.9389C75.7922 25.878 75.5099 26.2997 75.0919 26.637C74.6812 26.967 74.1532 27.132 73.5079 27.132ZM73.5079 22.193C73.0679 22.193 72.6756 22.3287 72.3309 22.6C71.9936 22.864 71.7992 23.2527 71.7479 23.766H75.1799C75.1579 23.2747 74.9892 22.8897 74.6739 22.611C74.3586 22.3323 73.9699 22.193 73.5079 22.193ZM78.6758 27L76.6078 21.544H77.5758L79.2148 26.109L80.8648 21.544H81.8108L79.7428 27H78.6758ZM85.0128 27.132C84.4921 27.132 84.0301 27.0147 83.6268 26.78C83.2234 26.538 82.9044 26.2043 82.6698 25.779C82.4424 25.3537 82.3288 24.8513 82.3288 24.272C82.3288 23.7 82.4424 23.2013 82.6698 22.776C82.8971 22.3433 83.2124 22.0097 83.6158 21.775C84.0264 21.533 84.4994 21.412 85.0348 21.412C85.5628 21.412 86.0174 21.533 86.3988 21.775C86.7874 22.0097 87.0844 22.3213 87.2898 22.71C87.4951 23.0987 87.5978 23.5167 87.5978 23.964C87.5978 24.0447 87.5941 24.1253 87.5868 24.206C87.5868 24.2867 87.5868 24.3783 87.5868 24.481H83.2418C83.2638 24.899 83.3591 25.2473 83.5278 25.526C83.7038 25.7973 83.9201 26.0027 84.1768 26.142C84.4408 26.2813 84.7194 26.351 85.0128 26.351C85.3941 26.351 85.7131 26.263 85.9698 26.087C86.2264 25.911 86.4134 25.6727 86.5308 25.372H87.4438C87.2971 25.878 87.0148 26.2997 86.5968 26.637C86.1861 26.967 85.6581 27.132 85.0128 27.132ZM85.0128 22.193C84.5728 22.193 84.1804 22.3287 83.8358 22.6C83.4984 22.864 83.3041 23.2527 83.2528 23.766H86.6848C86.6628 23.2747 86.4941 22.8897 86.1788 22.611C85.8634 22.3323 85.4748 22.193 85.0128 22.193ZM88.8225 27V19.08H89.7465V27H88.8225ZM93.747 27.132C93.2336 27.132 92.7716 27.0147 92.361 26.78C91.9503 26.5453 91.624 26.2153 91.382 25.79C91.1473 25.3573 91.03 24.8513 91.03 24.272C91.03 23.6927 91.151 23.1903 91.393 22.765C91.635 22.3323 91.9613 21.9987 92.372 21.764C92.79 21.5293 93.2556 21.412 93.769 21.412C94.2823 21.412 94.7443 21.5293 95.155 21.764C95.5656 21.9987 95.8883 22.3323 96.123 22.765C96.365 23.1903 96.486 23.6927 96.486 24.272C96.486 24.8513 96.365 25.3573 96.123 25.79C95.881 26.2153 95.551 26.5453 95.133 26.78C94.7223 27.0147 94.2603 27.132 93.747 27.132ZM93.747 26.34C94.0623 26.34 94.3556 26.263 94.627 26.109C94.8983 25.955 95.1183 25.724 95.287 25.416C95.4556 25.108 95.54 24.7267 95.54 24.272C95.54 23.8173 95.4556 23.436 95.287 23.128C95.1256 22.82 94.9093 22.589 94.638 22.435C94.3666 22.281 94.077 22.204 93.769 22.204C93.4536 22.204 93.1603 22.281 92.889 22.435C92.6176 22.589 92.3976 22.82 92.229 23.128C92.0603 23.436 91.976 23.8173 91.976 24.272C91.976 24.7267 92.0603 25.108 92.229 25.416C92.3976 25.724 92.614 25.955 92.878 26.109C93.1493 26.263 93.439 26.34 93.747 26.34ZM97.7707 29.42V21.544H98.6067L98.6947 22.446C98.8707 22.182 99.1201 21.9437 99.4427 21.731C99.7727 21.5183 100.191 21.412 100.697 21.412C101.239 21.412 101.712 21.5367 102.116 21.786C102.519 22.0353 102.831 22.3763 103.051 22.809C103.278 23.2417 103.392 23.733 103.392 24.283C103.392 24.833 103.278 25.3243 103.051 25.757C102.831 26.1823 102.515 26.5197 102.105 26.769C101.701 27.011 101.228 27.132 100.686 27.132C100.238 27.132 99.8387 27.0403 99.4867 26.857C99.1421 26.6737 98.8781 26.417 98.6947 26.087V29.42H97.7707ZM100.587 26.329C100.953 26.329 101.276 26.2447 101.555 26.076C101.833 25.9 102.053 25.658 102.215 25.35C102.376 25.042 102.457 24.6827 102.457 24.272C102.457 23.8613 102.376 23.502 102.215 23.194C102.053 22.886 101.833 22.6477 101.555 22.479C101.276 22.303 100.953 22.215 100.587 22.215C100.22 22.215 99.8974 22.303 99.6187 22.479C99.3401 22.6477 99.1201 22.886 98.9587 23.194C98.7974 23.502 98.7167 23.8613 98.7167 24.272C98.7167 24.6827 98.7974 25.042 98.9587 25.35C99.1201 25.658 99.3401 25.9 99.6187 26.076C99.8974 26.2447 100.22 26.329 100.587 26.329ZM108.15 20.334C107.967 20.334 107.813 20.2753 107.688 20.158C107.571 20.0333 107.512 19.8793 107.512 19.696C107.512 19.52 107.571 19.3733 107.688 19.256C107.813 19.1387 107.967 19.08 108.15 19.08C108.326 19.08 108.476 19.1387 108.601 19.256C108.726 19.3733 108.788 19.52 108.788 19.696C108.788 19.8793 108.726 20.0333 108.601 20.158C108.476 20.2753 108.326 20.334 108.15 20.334ZM107.688 27V21.544H108.612V27H107.688ZM110.221 27V21.544H111.057L111.112 22.523C111.288 22.1783 111.541 21.907 111.871 21.709C112.201 21.511 112.575 21.412 112.993 21.412C113.638 21.412 114.152 21.61 114.533 22.006C114.922 22.3947 115.116 22.996 115.116 23.81V27H114.192V23.909C114.192 22.7723 113.723 22.204 112.784 22.204C112.315 22.204 111.922 22.3763 111.607 22.721C111.299 23.0583 111.145 23.5423 111.145 24.173V27H110.221ZM119.024 27.132C118.503 27.132 118.034 27.0147 117.616 26.78C117.205 26.538 116.879 26.2043 116.637 25.779C116.402 25.3463 116.285 24.844 116.285 24.272C116.285 23.7 116.402 23.2013 116.637 22.776C116.879 22.3433 117.205 22.0097 117.616 21.775C118.034 21.533 118.503 21.412 119.024 21.412C119.669 21.412 120.212 21.5807 120.652 21.918C121.099 22.2553 121.382 22.7063 121.499 23.271H120.553C120.48 22.9337 120.3 22.6733 120.014 22.49C119.728 22.2993 119.394 22.204 119.013 22.204C118.705 22.204 118.415 22.281 118.144 22.435C117.873 22.589 117.653 22.82 117.484 23.128C117.315 23.436 117.231 23.8173 117.231 24.272C117.231 24.7267 117.315 25.108 117.484 25.416C117.653 25.724 117.873 25.9587 118.144 26.12C118.415 26.274 118.705 26.351 119.013 26.351C119.394 26.351 119.728 26.2593 120.014 26.076C120.3 25.8853 120.48 25.6177 120.553 25.273H121.499C121.389 25.823 121.11 26.2703 120.663 26.615C120.216 26.9597 119.669 27.132 119.024 27.132ZM122.789 27V21.544H123.625L123.702 22.589C123.871 22.2297 124.128 21.9437 124.472 21.731C124.817 21.5183 125.242 21.412 125.748 21.412V22.38H125.495C125.173 22.38 124.876 22.4387 124.604 22.556C124.333 22.666 124.117 22.8567 123.955 23.128C123.794 23.3993 123.713 23.7733 123.713 24.25V27H122.789ZM129.034 27.132C128.514 27.132 128.052 27.0147 127.648 26.78C127.245 26.538 126.926 26.2043 126.691 25.779C126.464 25.3537 126.35 24.8513 126.35 24.272C126.35 23.7 126.464 23.2013 126.691 22.776C126.919 22.3433 127.234 22.0097 127.637 21.775C128.048 21.533 128.521 21.412 129.056 21.412C129.584 21.412 130.039 21.533 130.42 21.775C130.809 22.0097 131.106 22.3213 131.311 22.71C131.517 23.0987 131.619 23.5167 131.619 23.964C131.619 24.0447 131.616 24.1253 131.608 24.206C131.608 24.2867 131.608 24.3783 131.608 24.481H127.263C127.285 24.899 127.381 25.2473 127.549 25.526C127.725 25.7973 127.942 26.0027 128.198 26.142C128.462 26.2813 128.741 26.351 129.034 26.351C129.416 26.351 129.735 26.263 129.991 26.087C130.248 25.911 130.435 25.6727 130.552 25.372H131.465C131.319 25.878 131.036 26.2997 130.618 26.637C130.208 26.967 129.68 27.132 129.034 27.132ZM129.034 22.193C128.594 22.193 128.202 22.3287 127.857 22.6C127.52 22.864 127.326 23.2527 127.274 23.766H130.706C130.684 23.2747 130.516 22.8897 130.2 22.611C129.885 22.3323 129.496 22.193 129.034 22.193ZM134.659 27.132C134.204 27.132 133.827 27.055 133.526 26.901C133.225 26.747 133.002 26.5417 132.855 26.285C132.708 26.0283 132.635 25.7497 132.635 25.449C132.635 24.8917 132.848 24.4627 133.273 24.162C133.698 23.8613 134.278 23.711 135.011 23.711H136.485V23.645C136.485 23.1683 136.36 22.809 136.111 22.567C135.862 22.3177 135.528 22.193 135.11 22.193C134.751 22.193 134.439 22.2847 134.175 22.468C133.918 22.644 133.757 22.9043 133.691 23.249H132.745C132.782 22.853 132.914 22.5193 133.141 22.248C133.376 21.9767 133.665 21.7713 134.01 21.632C134.355 21.4853 134.721 21.412 135.11 21.412C135.873 21.412 136.445 21.6173 136.826 22.028C137.215 22.4313 137.409 22.9703 137.409 23.645V27H136.584L136.529 26.021C136.375 26.329 136.148 26.593 135.847 26.813C135.554 27.0257 135.158 27.132 134.659 27.132ZM134.802 26.351C135.154 26.351 135.455 26.2593 135.704 26.076C135.961 25.8927 136.155 25.6543 136.287 25.361C136.419 25.0677 136.485 24.7597 136.485 24.437V24.426H135.088C134.545 24.426 134.16 24.5213 133.933 24.712C133.713 24.8953 133.603 25.1263 133.603 25.405C133.603 25.691 133.706 25.922 133.911 26.098C134.124 26.2667 134.421 26.351 134.802 26.351ZM140.885 27.132C140.232 27.132 139.69 26.967 139.257 26.637C138.824 26.307 138.571 25.8597 138.498 25.295H139.444C139.503 25.581 139.653 25.8303 139.895 26.043C140.144 26.2483 140.478 26.351 140.896 26.351C141.285 26.351 141.571 26.2703 141.754 26.109C141.937 25.9403 142.029 25.7423 142.029 25.515C142.029 25.185 141.908 24.965 141.666 24.855C141.431 24.745 141.098 24.646 140.665 24.558C140.372 24.4993 140.078 24.415 139.785 24.305C139.492 24.195 139.246 24.041 139.048 23.843C138.85 23.6377 138.751 23.37 138.751 23.04C138.751 22.5633 138.927 22.1747 139.279 21.874C139.638 21.566 140.122 21.412 140.731 21.412C141.31 21.412 141.783 21.5587 142.15 21.852C142.524 22.138 142.74 22.5487 142.799 23.084H141.886C141.849 22.8053 141.728 22.589 141.523 22.435C141.325 22.2737 141.057 22.193 140.72 22.193C140.39 22.193 140.133 22.2627 139.95 22.402C139.774 22.5413 139.686 22.7247 139.686 22.952C139.686 23.172 139.8 23.3443 140.027 23.469C140.262 23.5937 140.577 23.7 140.973 23.788C141.31 23.8613 141.629 23.953 141.93 24.063C142.238 24.1657 142.487 24.3233 142.678 24.536C142.876 24.7413 142.975 25.042 142.975 25.438C142.982 25.9293 142.795 26.3363 142.414 26.659C142.04 26.9743 141.53 27.132 140.885 27.132ZM146.748 27.132C146.227 27.132 145.765 27.0147 145.362 26.78C144.959 26.538 144.64 26.2043 144.405 25.779C144.178 25.3537 144.064 24.8513 144.064 24.272C144.064 23.7 144.178 23.2013 144.405 22.776C144.632 22.3433 144.948 22.0097 145.351 21.775C145.762 21.533 146.235 21.412 146.77 21.412C147.298 21.412 147.753 21.533 148.134 21.775C148.523 22.0097 148.82 22.3213 149.025 22.71C149.23 23.0987 149.333 23.5167 149.333 23.964C149.333 24.0447 149.329 24.1253 149.322 24.206C149.322 24.2867 149.322 24.3783 149.322 24.481H144.977C144.999 24.899 145.094 25.2473 145.263 25.526C145.439 25.7973 145.655 26.0027 145.912 26.142C146.176 26.2813 146.455 26.351 146.748 26.351C147.129 26.351 147.448 26.263 147.705 26.087C147.962 25.911 148.149 25.6727 148.266 25.372H149.179C149.032 25.878 148.75 26.2997 148.332 26.637C147.921 26.967 147.393 27.132 146.748 27.132ZM146.748 22.193C146.308 22.193 145.916 22.3287 145.571 22.6C145.234 22.864 145.039 23.2527 144.988 23.766H148.42C148.398 23.2747 148.229 22.8897 147.914 22.611C147.599 22.3323 147.21 22.193 146.748 22.193ZM153.033 27.132C152.49 27.132 152.013 27.0073 151.603 26.758C151.199 26.5087 150.884 26.1677 150.657 25.735C150.437 25.3023 150.327 24.811 150.327 24.261C150.327 23.711 150.44 23.2233 150.668 22.798C150.895 22.3653 151.21 22.028 151.614 21.786C152.017 21.5367 152.494 21.412 153.044 21.412C153.491 21.412 153.887 21.5037 154.232 21.687C154.576 21.8703 154.844 22.127 155.035 22.457V19.08H155.959V27H155.123L155.035 26.098C154.859 26.362 154.606 26.6003 154.276 26.813C153.946 27.0257 153.531 27.132 153.033 27.132ZM153.132 26.329C153.498 26.329 153.821 26.2447 154.1 26.076C154.386 25.9 154.606 25.658 154.76 25.35C154.921 25.042 155.002 24.6827 155.002 24.272C155.002 23.8613 154.921 23.502 154.76 23.194C154.606 22.886 154.386 22.6477 154.1 22.479C153.821 22.303 153.498 22.215 153.132 22.215C152.772 22.215 152.45 22.303 152.164 22.479C151.885 22.6477 151.665 22.886 151.504 23.194C151.35 23.502 151.273 23.8613 151.273 24.272C151.273 24.6827 151.35 25.042 151.504 25.35C151.665 25.658 151.885 25.9 152.164 26.076C152.45 26.2447 152.772 26.329 153.132 26.329ZM32.759 43.42V35.544H33.595L33.683 36.446C33.859 36.182 34.1083 35.9437 34.431 35.731C34.761 35.5183 35.179 35.412 35.685 35.412C36.2277 35.412 36.7007 35.5367 37.104 35.786C37.5073 36.0353 37.819 36.3763 38.039 36.809C38.2663 37.2417 38.38 37.733 38.38 38.283C38.38 38.833 38.2663 39.3243 38.039 39.757C37.819 40.1823 37.5037 40.5197 37.093 40.769C36.6897 41.011 36.2167 41.132 35.674 41.132C35.2267 41.132 34.827 41.0403 34.475 40.857C34.1303 40.6737 33.8663 40.417 33.683 40.087V43.42H32.759ZM35.575 40.329C35.9417 40.329 36.2643 40.2447 36.543 40.076C36.8217 39.9 37.0417 39.658 37.203 39.35C37.3643 39.042 37.445 38.6827 37.445 38.272C37.445 37.8613 37.3643 37.502 37.203 37.194C37.0417 36.886 36.8217 36.6477 36.543 36.479C36.2643 36.303 35.9417 36.215 35.575 36.215C35.2083 36.215 34.8857 36.303 34.607 36.479C34.3283 36.6477 34.1083 36.886 33.947 37.194C33.7857 37.502 33.705 37.8613 33.705 38.272C33.705 38.6827 33.7857 39.042 33.947 39.35C34.1083 39.658 34.3283 39.9 34.607 40.076C34.8857 40.2447 35.2083 40.329 35.575 40.329ZM42.1522 41.132C41.6389 41.132 41.1769 41.0147 40.7662 40.78C40.3556 40.5453 40.0292 40.2153 39.7872 39.79C39.5526 39.3573 39.4352 38.8513 39.4352 38.272C39.4352 37.6927 39.5562 37.1903 39.7982 36.765C40.0402 36.3323 40.3666 35.9987 40.7772 35.764C41.1952 35.5293 41.6609 35.412 42.1742 35.412C42.6876 35.412 43.1496 35.5293 43.5602 35.764C43.9709 35.9987 44.2936 36.3323 44.5282 36.765C44.7702 37.1903 44.8912 37.6927 44.8912 38.272C44.8912 38.8513 44.7702 39.3573 44.5282 39.79C44.2862 40.2153 43.9562 40.5453 43.5382 40.78C43.1276 41.0147 42.6656 41.132 42.1522 41.132ZM42.1522 40.34C42.4676 40.34 42.7609 40.263 43.0322 40.109C43.3036 39.955 43.5236 39.724 43.6922 39.416C43.8609 39.108 43.9452 38.7267 43.9452 38.272C43.9452 37.8173 43.8609 37.436 43.6922 37.128C43.5309 36.82 43.3146 36.589 43.0432 36.435C42.7719 36.281 42.4822 36.204 42.1742 36.204C41.8589 36.204 41.5656 36.281 41.2942 36.435C41.0229 36.589 40.8029 36.82 40.6342 37.128C40.4656 37.436 40.3812 37.8173 40.3812 38.272C40.3812 38.7267 40.4656 39.108 40.6342 39.416C40.8029 39.724 41.0192 39.955 41.2832 40.109C41.5546 40.263 41.8442 40.34 42.1522 40.34ZM48.266 41.132C47.6133 41.132 47.0707 40.967 46.638 40.637C46.2053 40.307 45.9523 39.8597 45.879 39.295H46.825C46.8837 39.581 47.034 39.8303 47.276 40.043C47.5253 40.2483 47.859 40.351 48.277 40.351C48.6657 40.351 48.9517 40.2703 49.135 40.109C49.3183 39.9403 49.41 39.7423 49.41 39.515C49.41 39.185 49.289 38.965 49.047 38.855C48.8123 38.745 48.4787 38.646 48.046 38.558C47.7527 38.4993 47.4593 38.415 47.166 38.305C46.8727 38.195 46.627 38.041 46.429 37.843C46.231 37.6377 46.132 37.37 46.132 37.04C46.132 36.5633 46.308 36.1747 46.66 35.874C47.0193 35.566 47.5033 35.412 48.112 35.412C48.6913 35.412 49.1643 35.5587 49.531 35.852C49.905 36.138 50.1213 36.5487 50.18 37.084H49.267C49.2303 36.8053 49.1093 36.589 48.904 36.435C48.706 36.2737 48.4383 36.193 48.101 36.193C47.771 36.193 47.5143 36.2627 47.331 36.402C47.155 36.5413 47.067 36.7247 47.067 36.952C47.067 37.172 47.1807 37.3443 47.408 37.469C47.6427 37.5937 47.958 37.7 48.354 37.788C48.6913 37.8613 49.0103 37.953 49.311 38.063C49.619 38.1657 49.8683 38.3233 50.059 38.536C50.257 38.7413 50.356 39.042 50.356 39.438C50.3633 39.9293 50.1763 40.3363 49.795 40.659C49.421 40.9743 48.9113 41.132 48.266 41.132ZM52.237 34.334C52.0537 34.334 51.8997 34.2753 51.775 34.158C51.6577 34.0333 51.599 33.8793 51.599 33.696C51.599 33.52 51.6577 33.3733 51.775 33.256C51.8997 33.1387 52.0537 33.08 52.237 33.08C52.413 33.08 52.5633 33.1387 52.688 33.256C52.8127 33.3733 52.875 33.52 52.875 33.696C52.875 33.8793 52.8127 34.0333 52.688 34.158C52.5633 34.2753 52.413 34.334 52.237 34.334ZM51.775 41V35.544H52.699V41H51.775ZM56.4638 41C55.9652 41 55.5728 40.879 55.2868 40.637C55.0008 40.395 54.8578 39.9587 54.8578 39.328V36.325H53.9118V35.544H54.8578L54.9788 34.235H55.7818V35.544H57.3878V36.325H55.7818V39.328C55.7818 39.6727 55.8515 39.9073 55.9908 40.032C56.1302 40.1493 56.3758 40.208 56.7278 40.208H57.2998V41H56.4638ZM59.1227 34.334C58.9394 34.334 58.7854 34.2753 58.6607 34.158C58.5434 34.0333 58.4847 33.8793 58.4847 33.696C58.4847 33.52 58.5434 33.3733 58.6607 33.256C58.7854 33.1387 58.9394 33.08 59.1227 33.08C59.2987 33.08 59.4491 33.1387 59.5737 33.256C59.6984 33.3733 59.7607 33.52 59.7607 33.696C59.7607 33.8793 59.6984 34.0333 59.5737 34.158C59.4491 34.2753 59.2987 34.334 59.1227 34.334ZM58.6607 41V35.544H59.5847V41H58.6607ZM62.7666 41L60.6986 35.544H61.6666L63.3056 40.109L64.9556 35.544H65.9016L63.8336 41H62.7666ZM69.1036 41.132C68.5829 41.132 68.1209 41.0147 67.7176 40.78C67.3143 40.538 66.9953 40.2043 66.7606 39.779C66.5333 39.3537 66.4196 38.8513 66.4196 38.272C66.4196 37.7 66.5333 37.2013 66.7606 36.776C66.9879 36.3433 67.3033 36.0097 67.7066 35.775C68.1173 35.533 68.5903 35.412 69.1256 35.412C69.6536 35.412 70.1083 35.533 70.4896 35.775C70.8783 36.0097 71.1753 36.3213 71.3806 36.71C71.5859 37.0987 71.6886 37.5167 71.6886 37.964C71.6886 38.0447 71.6849 38.1253 71.6776 38.206C71.6776 38.2867 71.6776 38.3783 71.6776 38.481H67.3326C67.3546 38.899 67.4499 39.2473 67.6186 39.526C67.7946 39.7973 68.0109 40.0027 68.2676 40.142C68.5316 40.2813 68.8103 40.351 69.1036 40.351C69.4849 40.351 69.8039 40.263 70.0606 40.087C70.3173 39.911 70.5043 39.6727 70.6216 39.372H71.5346C71.3879 39.878 71.1056 40.2997 70.6876 40.637C70.2769 40.967 69.7489 41.132 69.1036 41.132ZM69.1036 36.193C68.6636 36.193 68.2713 36.3287 67.9266 36.6C67.5893 36.864 67.3949 37.2527 67.3436 37.766H70.7756C70.7536 37.2747 70.5849 36.8897 70.2696 36.611C69.9543 36.3323 69.5656 36.193 69.1036 36.193ZM78.7394 41.132C78.2921 41.132 77.8924 41.0403 77.5404 40.857C77.1958 40.6737 76.9318 40.417 76.7484 40.087L76.6604 41H75.8244V33.08H76.7484V36.446C76.9244 36.182 77.1738 35.9437 77.4964 35.731C77.8264 35.5183 78.2444 35.412 78.7504 35.412C79.2931 35.412 79.7661 35.5367 80.1694 35.786C80.5728 36.0353 80.8844 36.3763 81.1044 36.809C81.3318 37.2417 81.4454 37.733 81.4454 38.283C81.4454 38.833 81.3318 39.3243 81.1044 39.757C80.8844 40.1823 80.5691 40.5197 80.1584 40.769C79.7551 41.011 79.2821 41.132 78.7394 41.132ZM78.6404 40.329C79.0071 40.329 79.3298 40.2447 79.6084 40.076C79.8871 39.9 80.1071 39.658 80.2684 39.35C80.4298 39.042 80.5104 38.6827 80.5104 38.272C80.5104 37.8613 80.4298 37.502 80.2684 37.194C80.1071 36.886 79.8871 36.6477 79.6084 36.479C79.3298 36.303 79.0071 36.215 78.6404 36.215C78.2738 36.215 77.9511 36.303 77.6724 36.479C77.3938 36.6477 77.1738 36.886 77.0124 37.194C76.8511 37.502 76.7704 37.8613 76.7704 38.272C76.7704 38.6827 76.8511 39.042 77.0124 39.35C77.1738 39.658 77.3938 39.9 77.6724 40.076C77.9511 40.2447 78.2738 40.329 78.6404 40.329ZM82.7317 41V35.544H83.5677L83.6447 36.589C83.8133 36.2297 84.07 35.9437 84.4147 35.731C84.7593 35.5183 85.1847 35.412 85.6907 35.412V36.38H85.4377C85.115 36.38 84.818 36.4387 84.5467 36.556C84.2753 36.666 84.059 36.8567 83.8977 37.128C83.7363 37.3993 83.6557 37.7733 83.6557 38.25V41H82.7317ZM88.5428 41.132C88.0881 41.132 87.7104 41.055 87.4098 40.901C87.1091 40.747 86.8854 40.5417 86.7388 40.285C86.5921 40.0283 86.5188 39.7497 86.5188 39.449C86.5188 38.8917 86.7314 38.4627 87.1568 38.162C87.5821 37.8613 88.1614 37.711 88.8948 37.711H90.3688V37.645C90.3688 37.1683 90.2441 36.809 89.9948 36.567C89.7454 36.3177 89.4118 36.193 88.9938 36.193C88.6344 36.193 88.3228 36.2847 88.0588 36.468C87.8021 36.644 87.6408 36.9043 87.5748 37.249H86.6288C86.6654 36.853 86.7974 36.5193 87.0248 36.248C87.2594 35.9767 87.5491 35.7713 87.8938 35.632C88.2384 35.4853 88.6051 35.412 88.9938 35.412C89.7564 35.412 90.3284 35.6173 90.7098 36.028C91.0984 36.4313 91.2928 36.9703 91.2928 37.645V41H90.4678L90.4128 40.021C90.2588 40.329 90.0314 40.593 89.7308 40.813C89.4374 41.0257 89.0414 41.132 88.5428 41.132ZM88.6858 40.351C89.0378 40.351 89.3384 40.2593 89.5878 40.076C89.8444 39.8927 90.0388 39.6543 90.1708 39.361C90.3028 39.0677 90.3688 38.7597 90.3688 38.437V38.426H88.9718C88.4291 38.426 88.0441 38.5213 87.8168 38.712C87.5968 38.8953 87.4868 39.1263 87.4868 39.405C87.4868 39.691 87.5894 39.922 87.7948 40.098C88.0074 40.2667 88.3044 40.351 88.6858 40.351ZM92.6789 41V35.544H93.5149L93.5699 36.523C93.7459 36.1783 93.9989 35.907 94.3289 35.709C94.6589 35.511 95.0329 35.412 95.4509 35.412C96.0963 35.412 96.6096 35.61 96.9909 36.006C97.3796 36.3947 97.5739 36.996 97.5739 37.81V41H96.6499V37.909C96.6499 36.7723 96.1806 36.204 95.2419 36.204C94.7726 36.204 94.3803 36.3763 94.0649 36.721C93.7569 37.0583 93.6029 37.5423 93.6029 38.173V41H92.6789ZM101.449 41.132C100.906 41.132 100.43 41.0073 100.019 40.758C99.6155 40.5087 99.3002 40.1677 99.0728 39.735C98.8528 39.3023 98.7428 38.811 98.7428 38.261C98.7428 37.711 98.8565 37.2233 99.0838 36.798C99.3112 36.3653 99.6265 36.028 100.03 35.786C100.433 35.5367 100.91 35.412 101.46 35.412C101.907 35.412 102.303 35.5037 102.648 35.687C102.993 35.8703 103.26 36.127 103.451 36.457V33.08H104.375V41H103.539L103.451 40.098C103.275 40.362 103.022 40.6003 102.692 40.813C102.362 41.0257 101.948 41.132 101.449 41.132ZM101.548 40.329C101.915 40.329 102.237 40.2447 102.516 40.076C102.802 39.9 103.022 39.658 103.176 39.35C103.337 39.042 103.418 38.6827 103.418 38.272C103.418 37.8613 103.337 37.502 103.176 37.194C103.022 36.886 102.802 36.6477 102.516 36.479C102.237 36.303 101.915 36.215 101.548 36.215C101.189 36.215 100.866 36.303 100.58 36.479C100.301 36.6477 100.081 36.886 99.9198 37.194C99.7658 37.502 99.6888 37.8613 99.6888 38.272C99.6888 38.6827 99.7658 39.042 99.9198 39.35C100.081 39.658 100.301 39.9 100.58 40.076C100.866 40.2447 101.189 40.329 101.548 40.329ZM110.607 41.132C110.153 41.132 109.775 41.055 109.474 40.901C109.174 40.747 108.95 40.5417 108.803 40.285C108.657 40.0283 108.583 39.7497 108.583 39.449C108.583 38.8917 108.796 38.4627 109.221 38.162C109.647 37.8613 110.226 37.711 110.959 37.711H112.433V37.645C112.433 37.1683 112.309 36.809 112.059 36.567C111.81 36.3177 111.476 36.193 111.058 36.193C110.699 36.193 110.387 36.2847 110.123 36.468C109.867 36.644 109.705 36.9043 109.639 37.249H108.693C108.73 36.853 108.862 36.5193 109.089 36.248C109.324 35.9767 109.614 35.7713 109.958 35.632C110.303 35.4853 110.67 35.412 111.058 35.412C111.821 35.412 112.393 35.6173 112.774 36.028C113.163 36.4313 113.357 36.9703 113.357 37.645V41H112.532L112.477 40.021C112.323 40.329 112.096 40.593 111.795 40.813C111.502 41.0257 111.106 41.132 110.607 41.132ZM110.75 40.351C111.102 40.351 111.403 40.2593 111.652 40.076C111.909 39.8927 112.103 39.6543 112.235 39.361C112.367 39.0677 112.433 38.7597 112.433 38.437V38.426H111.036C110.494 38.426 110.109 38.5213 109.881 38.712C109.661 38.8953 109.551 39.1263 109.551 39.405C109.551 39.691 109.654 39.922 109.859 40.098C110.072 40.2667 110.369 40.351 110.75 40.351ZM116.833 41.132C116.181 41.132 115.638 40.967 115.205 40.637C114.773 40.307 114.52 39.8597 114.446 39.295H115.392C115.451 39.581 115.601 39.8303 115.843 40.043C116.093 40.2483 116.426 40.351 116.844 40.351C117.233 40.351 117.519 40.2703 117.702 40.109C117.886 39.9403 117.977 39.7423 117.977 39.515C117.977 39.185 117.856 38.965 117.614 38.855C117.38 38.745 117.046 38.646 116.613 38.558C116.32 38.4993 116.027 38.415 115.733 38.305C115.44 38.195 115.194 38.041 114.996 37.843C114.798 37.6377 114.699 37.37 114.699 37.04C114.699 36.5633 114.875 36.1747 115.227 35.874C115.587 35.566 116.071 35.412 116.679 35.412C117.259 35.412 117.732 35.5587 118.098 35.852C118.472 36.138 118.689 36.5487 118.747 37.084H117.834C117.798 36.8053 117.677 36.589 117.471 36.435C117.273 36.2737 117.006 36.193 116.668 36.193C116.338 36.193 116.082 36.2627 115.898 36.402C115.722 36.5413 115.634 36.7247 115.634 36.952C115.634 37.172 115.748 37.3443 115.975 37.469C116.21 37.5937 116.525 37.7 116.921 37.788C117.259 37.8613 117.578 37.953 117.878 38.063C118.186 38.1657 118.436 38.3233 118.626 38.536C118.824 38.7413 118.923 39.042 118.923 39.438C118.931 39.9293 118.744 40.3363 118.362 40.659C117.988 40.9743 117.479 41.132 116.833 41.132ZM122.333 41.132C121.681 41.132 121.138 40.967 120.705 40.637C120.273 40.307 120.02 39.8597 119.946 39.295H120.892C120.951 39.581 121.101 39.8303 121.343 40.043C121.593 40.2483 121.926 40.351 122.344 40.351C122.733 40.351 123.019 40.2703 123.202 40.109C123.386 39.9403 123.477 39.7423 123.477 39.515C123.477 39.185 123.356 38.965 123.114 38.855C122.88 38.745 122.546 38.646 122.113 38.558C121.82 38.4993 121.527 38.415 121.233 38.305C120.94 38.195 120.694 38.041 120.496 37.843C120.298 37.6377 120.199 37.37 120.199 37.04C120.199 36.5633 120.375 36.1747 120.727 35.874C121.087 35.566 121.571 35.412 122.179 35.412C122.759 35.412 123.232 35.5587 123.598 35.852C123.972 36.138 124.189 36.5487 124.247 37.084H123.334C123.298 36.8053 123.177 36.589 122.971 36.435C122.773 36.2737 122.506 36.193 122.168 36.193C121.838 36.193 121.582 36.2627 121.398 36.402C121.222 36.5413 121.134 36.7247 121.134 36.952C121.134 37.172 121.248 37.3443 121.475 37.469C121.71 37.5937 122.025 37.7 122.421 37.788C122.759 37.8613 123.078 37.953 123.378 38.063C123.686 38.1657 123.936 38.3233 124.126 38.536C124.324 38.7413 124.423 39.042 124.423 39.438C124.431 39.9293 124.244 40.3363 123.862 40.659C123.488 40.9743 122.979 41.132 122.333 41.132ZM128.229 41.132C127.716 41.132 127.254 41.0147 126.843 40.78C126.433 40.5453 126.106 40.2153 125.864 39.79C125.63 39.3573 125.512 38.8513 125.512 38.272C125.512 37.6927 125.633 37.1903 125.875 36.765C126.117 36.3323 126.444 35.9987 126.854 35.764C127.272 35.5293 127.738 35.412 128.251 35.412C128.765 35.412 129.227 35.5293 129.637 35.764C130.048 35.9987 130.371 36.3323 130.605 36.765C130.847 37.1903 130.968 37.6927 130.968 38.272C130.968 38.8513 130.847 39.3573 130.605 39.79C130.363 40.2153 130.033 40.5453 129.615 40.78C129.205 41.0147 128.743 41.132 128.229 41.132ZM128.229 40.34C128.545 40.34 128.838 40.263 129.109 40.109C129.381 39.955 129.601 39.724 129.769 39.416C129.938 39.108 130.022 38.7267 130.022 38.272C130.022 37.8173 129.938 37.436 129.769 37.128C129.608 36.82 129.392 36.589 129.12 36.435C128.849 36.281 128.559 36.204 128.251 36.204C127.936 36.204 127.643 36.281 127.371 36.435C127.1 36.589 126.88 36.82 126.711 37.128C126.543 37.436 126.458 37.8173 126.458 38.272C126.458 38.7267 126.543 39.108 126.711 39.416C126.88 39.724 127.096 39.955 127.36 40.109C127.632 40.263 127.921 40.34 128.229 40.34ZM134.761 41.132C134.24 41.132 133.771 41.0147 133.353 40.78C132.942 40.538 132.616 40.2043 132.374 39.779C132.139 39.3463 132.022 38.844 132.022 38.272C132.022 37.7 132.139 37.2013 132.374 36.776C132.616 36.3433 132.942 36.0097 133.353 35.775C133.771 35.533 134.24 35.412 134.761 35.412C135.406 35.412 135.949 35.5807 136.389 35.918C136.836 36.2553 137.119 36.7063 137.236 37.271H136.29C136.217 36.9337 136.037 36.6733 135.751 36.49C135.465 36.2993 135.131 36.204 134.75 36.204C134.442 36.204 134.152 36.281 133.881 36.435C133.61 36.589 133.39 36.82 133.221 37.128C133.052 37.436 132.968 37.8173 132.968 38.272C132.968 38.7267 133.052 39.108 133.221 39.416C133.39 39.724 133.61 39.9587 133.881 40.12C134.152 40.274 134.442 40.351 134.75 40.351C135.131 40.351 135.465 40.2593 135.751 40.076C136.037 39.8853 136.217 39.6177 136.29 39.273H137.236C137.126 39.823 136.847 40.2703 136.4 40.615C135.953 40.9597 135.406 41.132 134.761 41.132ZM139.088 34.334C138.904 34.334 138.75 34.2753 138.626 34.158C138.508 34.0333 138.45 33.8793 138.45 33.696C138.45 33.52 138.508 33.3733 138.626 33.256C138.75 33.1387 138.904 33.08 139.088 33.08C139.264 33.08 139.414 33.1387 139.539 33.256C139.663 33.3733 139.726 33.52 139.726 33.696C139.726 33.8793 139.663 34.0333 139.539 34.158C139.414 34.2753 139.264 34.334 139.088 34.334ZM138.626 41V35.544H139.55V41H138.626ZM142.973 41.132C142.519 41.132 142.141 41.055 141.84 40.901C141.54 40.747 141.316 40.5417 141.169 40.285C141.023 40.0283 140.949 39.7497 140.949 39.449C140.949 38.8917 141.162 38.4627 141.587 38.162C142.013 37.8613 142.592 37.711 143.325 37.711H144.799V37.645C144.799 37.1683 144.675 36.809 144.425 36.567C144.176 36.3177 143.842 36.193 143.424 36.193C143.065 36.193 142.753 36.2847 142.489 36.468C142.233 36.644 142.071 36.9043 142.005 37.249H141.059C141.096 36.853 141.228 36.5193 141.455 36.248C141.69 35.9767 141.98 35.7713 142.324 35.632C142.669 35.4853 143.036 35.412 143.424 35.412C144.187 35.412 144.759 35.6173 145.14 36.028C145.529 36.4313 145.723 36.9703 145.723 37.645V41H144.898L144.843 40.021C144.689 40.329 144.462 40.593 144.161 40.813C143.868 41.0257 143.472 41.132 142.973 41.132ZM143.116 40.351C143.468 40.351 143.769 40.2593 144.018 40.076C144.275 39.8927 144.469 39.6543 144.601 39.361C144.733 39.0677 144.799 38.7597 144.799 38.437V38.426H143.402C142.86 38.426 142.475 38.5213 142.247 38.712C142.027 38.8953 141.917 39.1263 141.917 39.405C141.917 39.691 142.02 39.922 142.225 40.098C142.438 40.2667 142.735 40.351 143.116 40.351ZM149.115 41C148.617 41 148.224 40.879 147.938 40.637C147.652 40.395 147.509 39.9587 147.509 39.328V36.325H146.563V35.544H147.509L147.63 34.235H148.433V35.544H150.039V36.325H148.433V39.328C148.433 39.6727 148.503 39.9073 148.642 40.032C148.782 40.1493 149.027 40.208 149.379 40.208H149.951V41H149.115ZM151.774 34.334C151.591 34.334 151.437 34.2753 151.312 34.158C151.195 34.0333 151.136 33.8793 151.136 33.696C151.136 33.52 151.195 33.3733 151.312 33.256C151.437 33.1387 151.591 33.08 151.774 33.08C151.95 33.08 152.1 33.1387 152.225 33.256C152.35 33.3733 152.412 33.52 152.412 33.696C152.412 33.8793 152.35 34.0333 152.225 34.158C152.1 34.2753 151.95 34.334 151.774 34.334ZM151.312 41V35.544H152.236V41H151.312ZM156.331 41.132C155.818 41.132 155.356 41.0147 154.945 40.78C154.534 40.5453 154.208 40.2153 153.966 39.79C153.731 39.3573 153.614 38.8513 153.614 38.272C153.614 37.6927 153.735 37.1903 153.977 36.765C154.219 36.3323 154.545 35.9987 154.956 35.764C155.374 35.5293 155.84 35.412 156.353 35.412C156.866 35.412 157.328 35.5293 157.739 35.764C158.15 35.9987 158.472 36.3323 158.707 36.765C158.949 37.1903 159.07 37.6927 159.07 38.272C159.07 38.8513 158.949 39.3573 158.707 39.79C158.465 40.2153 158.135 40.5453 157.717 40.78C157.306 41.0147 156.844 41.132 156.331 41.132ZM156.331 40.34C156.646 40.34 156.94 40.263 157.211 40.109C157.482 39.955 157.702 39.724 157.871 39.416C158.04 39.108 158.124 38.7267 158.124 38.272C158.124 37.8173 158.04 37.436 157.871 37.128C157.71 36.82 157.493 36.589 157.222 36.435C156.951 36.281 156.661 36.204 156.353 36.204C156.038 36.204 155.744 36.281 155.473 36.435C155.202 36.589 154.982 36.82 154.813 37.128C154.644 37.436 154.56 37.8173 154.56 38.272C154.56 38.7267 154.644 39.108 154.813 39.416C154.982 39.724 155.198 39.955 155.462 40.109C155.733 40.263 156.023 40.34 156.331 40.34ZM160.355 41V35.544H161.191L161.246 36.523C161.422 36.1783 161.675 35.907 162.005 35.709C162.335 35.511 162.709 35.412 163.127 35.412C163.772 35.412 164.285 35.61 164.667 36.006C165.055 36.3947 165.25 36.996 165.25 37.81V41H164.326V37.909C164.326 36.7723 163.856 36.204 162.918 36.204C162.448 36.204 162.056 36.3763 161.741 36.721C161.433 37.0583 161.279 37.5423 161.279 38.173V41H160.355ZM172.476 41.132C172.028 41.132 171.629 41.0403 171.277 40.857C170.932 40.6737 170.668 40.417 170.485 40.087L170.397 41H169.561V33.08H170.485V36.446C170.661 36.182 170.91 35.9437 171.233 35.731C171.563 35.5183 171.981 35.412 172.487 35.412C173.029 35.412 173.502 35.5367 173.906 35.786C174.309 36.0353 174.621 36.3763 174.841 36.809C175.068 37.2417 175.182 37.733 175.182 38.283C175.182 38.833 175.068 39.3243 174.841 39.757C174.621 40.1823 174.305 40.5197 173.895 40.769C173.491 41.011 173.018 41.132 172.476 41.132ZM172.377 40.329C172.743 40.329 173.066 40.2447 173.345 40.076C173.623 39.9 173.843 39.658 174.005 39.35C174.166 39.042 174.247 38.6827 174.247 38.272C174.247 37.8613 174.166 37.502 174.005 37.194C173.843 36.886 173.623 36.6477 173.345 36.479C173.066 36.303 172.743 36.215 172.377 36.215C172.01 36.215 171.687 36.303 171.409 36.479C171.13 36.6477 170.91 36.886 170.749 37.194C170.587 37.502 170.507 37.8613 170.507 38.272C170.507 38.6827 170.587 39.042 170.749 39.35C170.91 39.658 171.13 39.9 171.409 40.076C171.687 40.2447 172.01 40.329 172.377 40.329ZM176.622 43.42L177.975 40.472H177.656L175.489 35.544H176.49L178.294 39.79L180.208 35.544H181.165L177.59 43.42H176.622ZM34.849 55.132C34.1963 55.132 33.6537 54.967 33.221 54.637C32.7883 54.307 32.5353 53.8597 32.462 53.295H33.408C33.4667 53.581 33.617 53.8303 33.859 54.043C34.1083 54.2483 34.442 54.351 34.86 54.351C35.2487 54.351 35.5347 54.2703 35.718 54.109C35.9013 53.9403 35.993 53.7423 35.993 53.515C35.993 53.185 35.872 52.965 35.63 52.855C35.3953 52.745 35.0617 52.646 34.629 52.558C34.3357 52.4993 34.0423 52.415 33.749 52.305C33.4557 52.195 33.21 52.041 33.012 51.843C32.814 51.6377 32.715 51.37 32.715 51.04C32.715 50.5633 32.891 50.1747 33.243 49.874C33.6023 49.566 34.0863 49.412 34.695 49.412C35.2743 49.412 35.7473 49.5587 36.114 49.852C36.488 50.138 36.7043 50.5487 36.763 51.084H35.85C35.8133 50.8053 35.6923 50.589 35.487 50.435C35.289 50.2737 35.0213 50.193 34.684 50.193C34.354 50.193 34.0973 50.2627 33.914 50.402C33.738 50.5413 33.65 50.7247 33.65 50.952C33.65 51.172 33.7637 51.3443 33.991 51.469C34.2257 51.5937 34.541 51.7 34.937 51.788C35.2743 51.8613 35.5933 51.953 35.894 52.063C36.202 52.1657 36.4513 52.3233 36.642 52.536C36.84 52.7413 36.939 53.042 36.939 53.438C36.9463 53.9293 36.7593 54.3363 36.378 54.659C36.004 54.9743 35.4943 55.132 34.849 55.132ZM40.712 55.132C40.1913 55.132 39.7293 55.0147 39.326 54.78C38.9227 54.538 38.6037 54.2043 38.369 53.779C38.1417 53.3537 38.028 52.8513 38.028 52.272C38.028 51.7 38.1417 51.2013 38.369 50.776C38.5963 50.3433 38.9117 50.0097 39.315 49.775C39.7257 49.533 40.1987 49.412 40.734 49.412C41.262 49.412 41.7167 49.533 42.098 49.775C42.4867 50.0097 42.7837 50.3213 42.989 50.71C43.1943 51.0987 43.297 51.5167 43.297 51.964C43.297 52.0447 43.2933 52.1253 43.286 52.206C43.286 52.2867 43.286 52.3783 43.286 52.481H38.941C38.963 52.899 39.0583 53.2473 39.227 53.526C39.403 53.7973 39.6193 54.0027 39.876 54.142C40.14 54.2813 40.4187 54.351 40.712 54.351C41.0933 54.351 41.4123 54.263 41.669 54.087C41.9257 53.911 42.1127 53.6727 42.23 53.372H43.143C42.9963 53.878 42.714 54.2997 42.296 54.637C41.8853 54.967 41.3573 55.132 40.712 55.132ZM40.712 50.193C40.272 50.193 39.8797 50.3287 39.535 50.6C39.1977 50.864 39.0033 51.2527 38.952 51.766H42.384C42.362 51.2747 42.1933 50.8897 41.878 50.611C41.5627 50.3323 41.174 50.193 40.712 50.193ZM46.9747 55.132C46.454 55.132 45.992 55.0147 45.5887 54.78C45.1854 54.538 44.8664 54.2043 44.6317 53.779C44.4044 53.3537 44.2907 52.8513 44.2907 52.272C44.2907 51.7 44.4044 51.2013 44.6317 50.776C44.859 50.3433 45.1744 50.0097 45.5777 49.775C45.9884 49.533 46.4614 49.412 46.9967 49.412C47.5247 49.412 47.9794 49.533 48.3607 49.775C48.7494 50.0097 49.0464 50.3213 49.2517 50.71C49.457 51.0987 49.5597 51.5167 49.5597 51.964C49.5597 52.0447 49.556 52.1253 49.5487 52.206C49.5487 52.2867 49.5487 52.3783 49.5487 52.481H45.2037C45.2257 52.899 45.321 53.2473 45.4897 53.526C45.6657 53.7973 45.882 54.0027 46.1387 54.142C46.4027 54.2813 46.6814 54.351 46.9747 54.351C47.356 54.351 47.675 54.263 47.9317 54.087C48.1884 53.911 48.3754 53.6727 48.4927 53.372H49.4057C49.259 53.878 48.9767 54.2997 48.5587 54.637C48.148 54.967 47.62 55.132 46.9747 55.132ZM46.9747 50.193C46.5347 50.193 46.1424 50.3287 45.7977 50.6C45.4604 50.864 45.266 51.2527 45.2147 51.766H48.6467C48.6247 51.2747 48.456 50.8897 48.1407 50.611C47.8254 50.3323 47.4367 50.193 46.9747 50.193ZM51.3454 48.334C51.1621 48.334 51.0081 48.2753 50.8834 48.158C50.7661 48.0333 50.7074 47.8793 50.7074 47.696C50.7074 47.52 50.7661 47.3733 50.8834 47.256C51.0081 47.1387 51.1621 47.08 51.3454 47.08C51.5214 47.08 51.6717 47.1387 51.7964 47.256C51.9211 47.3733 51.9834 47.52 51.9834 47.696C51.9834 47.8793 51.9211 48.0333 51.7964 48.158C51.6717 48.2753 51.5214 48.334 51.3454 48.334ZM50.8834 55V49.544H51.8074V55H50.8834ZM53.4162 55V49.544H54.2522L54.3072 50.523C54.4832 50.1783 54.7362 49.907 55.0662 49.709C55.3962 49.511 55.7702 49.412 56.1882 49.412C56.8336 49.412 57.3469 49.61 57.7282 50.006C58.1169 50.3947 58.3112 50.996 58.3112 51.81V55H57.3872V51.909C57.3872 50.7723 56.9179 50.204 55.9792 50.204C55.5099 50.204 55.1176 50.3763 54.8022 50.721C54.4942 51.0583 54.3402 51.5423 54.3402 52.173V55H53.4162ZM61.8671 53.284C61.5591 53.284 61.2768 53.2437 61.0201 53.163L60.4701 53.68C60.5508 53.7387 60.6498 53.79 60.7671 53.834C60.8918 53.8707 61.0678 53.9073 61.2951 53.944C61.5225 53.9733 61.8415 54.0063 62.2521 54.043C62.9855 54.0943 63.5098 54.263 63.8251 54.549C64.1405 54.835 64.2981 55.209 64.2981 55.671C64.2981 55.9863 64.2101 56.287 64.0341 56.573C63.8655 56.859 63.6015 57.0937 63.2421 57.277C62.8901 57.4603 62.4355 57.552 61.8781 57.552C61.3868 57.552 60.9505 57.486 60.5691 57.354C60.1878 57.2293 59.8908 57.035 59.6781 56.771C59.4655 56.5143 59.3591 56.188 59.3591 55.792C59.3591 55.5867 59.4141 55.363 59.5241 55.121C59.6341 54.8863 59.8395 54.6627 60.1401 54.45C59.9788 54.384 59.8395 54.3143 59.7221 54.241C59.6121 54.1603 59.5095 54.0723 59.4141 53.977V53.724L60.3491 52.8C59.9165 52.4333 59.7001 51.9493 59.7001 51.348C59.7001 50.9887 59.7845 50.6623 59.9531 50.369C60.1218 50.0757 60.3675 49.8447 60.6901 49.676C61.0128 49.5 61.4051 49.412 61.8671 49.412C62.1825 49.412 62.4685 49.456 62.7251 49.544H64.7381V50.237L63.7151 50.281C63.9278 50.589 64.0341 50.9447 64.0341 51.348C64.0341 51.7073 63.9461 52.0337 63.7701 52.327C63.6015 52.6203 63.3558 52.855 63.0331 53.031C62.7178 53.1997 62.3291 53.284 61.8671 53.284ZM61.8671 52.525C62.2558 52.525 62.5638 52.426 62.7911 52.228C63.0258 52.0227 63.1431 51.7293 63.1431 51.348C63.1431 50.974 63.0258 50.688 62.7911 50.49C62.5638 50.2847 62.2558 50.182 61.8671 50.182C61.4711 50.182 61.1558 50.2847 60.9211 50.49C60.6938 50.688 60.5801 50.974 60.5801 51.348C60.5801 51.7293 60.6938 52.0227 60.9211 52.228C61.1558 52.426 61.4711 52.525 61.8671 52.525ZM60.2611 55.704C60.2611 56.0707 60.4151 56.342 60.7231 56.518C61.0311 56.7013 61.4161 56.793 61.8781 56.793C62.3328 56.793 62.6958 56.694 62.9671 56.496C63.2458 56.298 63.3851 56.034 63.3851 55.704C63.3851 55.4693 63.2898 55.264 63.0991 55.088C62.9085 54.9193 62.5565 54.8203 62.0431 54.791C61.6398 54.7617 61.2915 54.725 60.9981 54.681C60.6975 54.8423 60.4995 55.0147 60.4041 55.198C60.3088 55.3887 60.2611 55.5573 60.2611 55.704ZM71.1776 55.132C70.6643 55.132 70.2023 55.0147 69.7916 54.78C69.381 54.5453 69.0546 54.2153 68.8126 53.79C68.578 53.3573 68.4606 52.8513 68.4606 52.272C68.4606 51.6927 68.5816 51.1903 68.8236 50.765C69.0656 50.3323 69.392 49.9987 69.8026 49.764C70.2206 49.5293 70.6863 49.412 71.1996 49.412C71.713 49.412 72.175 49.5293 72.5856 49.764C72.9963 49.9987 73.319 50.3323 73.5536 50.765C73.7956 51.1903 73.9166 51.6927 73.9166 52.272C73.9166 52.8513 73.7956 53.3573 73.5536 53.79C73.3116 54.2153 72.9816 54.5453 72.5636 54.78C72.153 55.0147 71.691 55.132 71.1776 55.132ZM71.1776 54.34C71.493 54.34 71.7863 54.263 72.0576 54.109C72.329 53.955 72.549 53.724 72.7176 53.416C72.8863 53.108 72.9706 52.7267 72.9706 52.272C72.9706 51.8173 72.8863 51.436 72.7176 51.128C72.5563 50.82 72.34 50.589 72.0686 50.435C71.7973 50.281 71.5076 50.204 71.1996 50.204C70.8843 50.204 70.591 50.281 70.3196 50.435C70.0483 50.589 69.8283 50.82 69.6596 51.128C69.491 51.436 69.4066 51.8173 69.4066 52.272C69.4066 52.7267 69.491 53.108 69.6596 53.416C69.8283 53.724 70.0446 53.955 70.3086 54.109C70.58 54.263 70.8696 54.34 71.1776 54.34ZM77.1924 55.132C76.547 55.132 76.0337 54.9377 75.6524 54.549C75.271 54.153 75.0804 53.548 75.0804 52.734V49.544H76.0044V52.635C76.0044 53.7717 76.47 54.34 77.4014 54.34C77.878 54.34 78.2704 54.1713 78.5784 53.834C78.8937 53.4893 79.0514 53.0017 79.0514 52.371V49.544H79.9754V55H79.1394L79.0734 54.021C78.9047 54.3657 78.6517 54.637 78.3144 54.835C77.9844 55.033 77.6104 55.132 77.1924 55.132ZM81.4963 55V49.544H82.3323L82.4093 50.589C82.578 50.2297 82.8346 49.9437 83.1793 49.731C83.524 49.5183 83.9493 49.412 84.4553 49.412V50.38H84.2023C83.8796 50.38 83.5826 50.4387 83.3113 50.556C83.04 50.666 82.8236 50.8567 82.6623 51.128C82.501 51.3993 82.4203 51.7733 82.4203 52.25V55H81.4963ZM90.5595 55C90.0609 55 89.6685 54.879 89.3825 54.637C89.0965 54.395 88.9535 53.9587 88.9535 53.328V50.325H88.0075V49.544H88.9535L89.0745 48.235H89.8775V49.544H91.4835V50.325H89.8775V53.328C89.8775 53.6727 89.9472 53.9073 90.0865 54.032C90.2259 54.1493 90.4715 54.208 90.8235 54.208H91.3955V55H90.5595ZM92.6574 55V49.544H93.4934L93.5704 50.589C93.7391 50.2297 93.9958 49.9437 94.3404 49.731C94.6851 49.5183 95.1104 49.412 95.6164 49.412V50.38H95.3634C95.0408 50.38 94.7438 50.4387 94.4724 50.556C94.2011 50.666 93.9848 50.8567 93.8234 51.128C93.6621 51.3993 93.5814 51.7733 93.5814 52.25V55H92.6574ZM98.4685 55.132C98.0139 55.132 97.6362 55.055 97.3355 54.901C97.0349 54.747 96.8112 54.5417 96.6645 54.285C96.5179 54.0283 96.4445 53.7497 96.4445 53.449C96.4445 52.8917 96.6572 52.4627 97.0825 52.162C97.5079 51.8613 98.0872 51.711 98.8205 51.711H100.295V51.645C100.295 51.1683 100.17 50.809 99.9205 50.567C99.6712 50.3177 99.3375 50.193 98.9195 50.193C98.5602 50.193 98.2485 50.2847 97.9845 50.468C97.7279 50.644 97.5665 50.9043 97.5005 51.249H96.5545C96.5912 50.853 96.7232 50.5193 96.9505 50.248C97.1852 49.9767 97.4749 49.7713 97.8195 49.632C98.1642 49.4853 98.5309 49.412 98.9195 49.412C99.6822 49.412 100.254 49.6173 100.636 50.028C101.024 50.4313 101.219 50.9703 101.219 51.645V55H100.394L100.339 54.021C100.185 54.329 99.9572 54.593 99.6565 54.813C99.3632 55.0257 98.9672 55.132 98.4685 55.132ZM98.6115 54.351C98.9635 54.351 99.2642 54.2593 99.5135 54.076C99.7702 53.8927 99.9645 53.6543 100.097 53.361C100.229 53.0677 100.295 52.7597 100.295 52.437V52.426H98.8975C98.3549 52.426 97.9699 52.5213 97.7425 52.712C97.5225 52.8953 97.4125 53.1263 97.4125 53.405C97.4125 53.691 97.5152 53.922 97.7205 54.098C97.9332 54.2667 98.2302 54.351 98.6115 54.351ZM105.113 55.132C104.592 55.132 104.123 55.0147 103.705 54.78C103.294 54.538 102.968 54.2043 102.726 53.779C102.491 53.3463 102.374 52.844 102.374 52.272C102.374 51.7 102.491 51.2013 102.726 50.776C102.968 50.3433 103.294 50.0097 103.705 49.775C104.123 49.533 104.592 49.412 105.113 49.412C105.758 49.412 106.301 49.5807 106.741 49.918C107.188 50.2553 107.47 50.7063 107.588 51.271H106.642C106.568 50.9337 106.389 50.6733 106.103 50.49C105.817 50.2993 105.483 50.204 105.102 50.204C104.794 50.204 104.504 50.281 104.233 50.435C103.961 50.589 103.741 50.82 103.573 51.128C103.404 51.436 103.32 51.8173 103.32 52.272C103.32 52.7267 103.404 53.108 103.573 53.416C103.741 53.724 103.961 53.9587 104.233 54.12C104.504 54.274 104.794 54.351 105.102 54.351C105.483 54.351 105.817 54.2593 106.103 54.076C106.389 53.8853 106.568 53.6177 106.642 53.273H107.588C107.478 53.823 107.199 54.2703 106.752 54.615C106.304 54.9597 105.758 55.132 105.113 55.132ZM108.878 55V47.08H109.802V51.843L112.035 49.544H113.168L110.748 52.008L113.476 55H112.299L109.802 52.173V55H108.878ZM117.332 55V49.544H118.168L118.245 50.589C118.414 50.2297 118.671 49.9437 119.015 49.731C119.36 49.5183 119.785 49.412 120.291 49.412V50.38H120.038C119.716 50.38 119.419 50.4387 119.147 50.556C118.876 50.666 118.66 50.8567 118.498 51.128C118.337 51.3993 118.256 51.7733 118.256 52.25V55H117.332ZM123.577 55.132C123.057 55.132 122.595 55.0147 122.191 54.78C121.788 54.538 121.469 54.2043 121.234 53.779C121.007 53.3537 120.893 52.8513 120.893 52.272C120.893 51.7 121.007 51.2013 121.234 50.776C121.462 50.3433 121.777 50.0097 122.18 49.775C122.591 49.533 123.064 49.412 123.599 49.412C124.127 49.412 124.582 49.533 124.963 49.775C125.352 50.0097 125.649 50.3213 125.854 50.71C126.06 51.0987 126.162 51.5167 126.162 51.964C126.162 52.0447 126.159 52.1253 126.151 52.206C126.151 52.2867 126.151 52.3783 126.151 52.481H121.806C121.828 52.899 121.924 53.2473 122.092 53.526C122.268 53.7973 122.485 54.0027 122.741 54.142C123.005 54.2813 123.284 54.351 123.577 54.351C123.959 54.351 124.278 54.263 124.534 54.087C124.791 53.911 124.978 53.6727 125.095 53.372H126.008C125.862 53.878 125.579 54.2997 125.161 54.637C124.751 54.967 124.223 55.132 123.577 55.132ZM123.577 50.193C123.137 50.193 122.745 50.3287 122.4 50.6C122.063 50.864 121.869 51.2527 121.817 51.766H125.249C125.227 51.2747 125.059 50.8897 124.743 50.611C124.428 50.3323 124.039 50.193 123.577 50.193ZM129.895 55.132C129.374 55.132 128.905 55.0147 128.487 54.78C128.076 54.538 127.75 54.2043 127.508 53.779C127.273 53.3463 127.156 52.844 127.156 52.272C127.156 51.7 127.273 51.2013 127.508 50.776C127.75 50.3433 128.076 50.0097 128.487 49.775C128.905 49.533 129.374 49.412 129.895 49.412C130.54 49.412 131.083 49.5807 131.523 49.918C131.97 50.2553 132.253 50.7063 132.37 51.271H131.424C131.351 50.9337 131.171 50.6733 130.885 50.49C130.599 50.2993 130.265 50.204 129.884 50.204C129.576 50.204 129.286 50.281 129.015 50.435C128.744 50.589 128.524 50.82 128.355 51.128C128.186 51.436 128.102 51.8173 128.102 52.272C128.102 52.7267 128.186 53.108 128.355 53.416C128.524 53.724 128.744 53.9587 129.015 54.12C129.286 54.274 129.576 54.351 129.884 54.351C130.265 54.351 130.599 54.2593 130.885 54.076C131.171 53.8853 131.351 53.6177 131.424 53.273H132.37C132.26 53.823 131.981 54.2703 131.534 54.615C131.087 54.9597 130.54 55.132 129.895 55.132ZM136.146 55.132C135.633 55.132 135.171 55.0147 134.76 54.78C134.35 54.5453 134.023 54.2153 133.781 53.79C133.547 53.3573 133.429 52.8513 133.429 52.272C133.429 51.6927 133.55 51.1903 133.792 50.765C134.034 50.3323 134.361 49.9987 134.771 49.764C135.189 49.5293 135.655 49.412 136.168 49.412C136.682 49.412 137.144 49.5293 137.554 49.764C137.965 49.9987 138.288 50.3323 138.522 50.765C138.764 51.1903 138.885 51.6927 138.885 52.272C138.885 52.8513 138.764 53.3573 138.522 53.79C138.28 54.2153 137.95 54.5453 137.532 54.78C137.122 55.0147 136.66 55.132 136.146 55.132ZM136.146 54.34C136.462 54.34 136.755 54.263 137.026 54.109C137.298 53.955 137.518 53.724 137.686 53.416C137.855 53.108 137.939 52.7267 137.939 52.272C137.939 51.8173 137.855 51.436 137.686 51.128C137.525 50.82 137.309 50.589 137.037 50.435C136.766 50.281 136.476 50.204 136.168 50.204C135.853 50.204 135.56 50.281 135.288 50.435C135.017 50.589 134.797 50.82 134.628 51.128C134.46 51.436 134.375 51.8173 134.375 52.272C134.375 52.7267 134.46 53.108 134.628 53.416C134.797 53.724 135.013 53.955 135.277 54.109C135.549 54.263 135.838 54.34 136.146 54.34ZM140.17 55V49.544H141.006L141.083 50.589C141.252 50.2297 141.508 49.9437 141.853 49.731C142.198 49.5183 142.623 49.412 143.129 49.412V50.38H142.876C142.553 50.38 142.256 50.4387 141.985 50.556C141.714 50.666 141.497 50.8567 141.336 51.128C141.175 51.3993 141.094 51.7733 141.094 52.25V55H140.17ZM146.437 55.132C145.894 55.132 145.418 55.0073 145.007 54.758C144.604 54.5087 144.288 54.1677 144.061 53.735C143.841 53.3023 143.731 52.811 143.731 52.261C143.731 51.711 143.845 51.2233 144.072 50.798C144.299 50.3653 144.615 50.028 145.018 49.786C145.421 49.5367 145.898 49.412 146.448 49.412C146.895 49.412 147.291 49.5037 147.636 49.687C147.981 49.8703 148.248 50.127 148.439 50.457V47.08H149.363V55H148.527L148.439 54.098C148.263 54.362 148.01 54.6003 147.68 54.813C147.35 55.0257 146.936 55.132 146.437 55.132ZM146.536 54.329C146.903 54.329 147.225 54.2447 147.504 54.076C147.79 53.9 148.01 53.658 148.164 53.35C148.325 53.042 148.406 52.6827 148.406 52.272C148.406 51.8613 148.325 51.502 148.164 51.194C148.01 50.886 147.79 50.6477 147.504 50.479C147.225 50.303 146.903 50.215 146.536 50.215C146.177 50.215 145.854 50.303 145.568 50.479C145.289 50.6477 145.069 50.886 144.908 51.194C144.754 51.502 144.677 51.8613 144.677 52.272C144.677 52.6827 144.754 53.042 144.908 53.35C145.069 53.658 145.289 53.9 145.568 54.076C145.854 54.2447 146.177 54.329 146.536 54.329ZM155.595 55.132C155.141 55.132 154.763 55.055 154.462 54.901C154.162 54.747 153.938 54.5417 153.791 54.285C153.645 54.0283 153.571 53.7497 153.571 53.449C153.571 52.8917 153.784 52.4627 154.209 52.162C154.635 51.8613 155.214 51.711 155.947 51.711H157.421V51.645C157.421 51.1683 157.297 50.809 157.047 50.567C156.798 50.3177 156.464 50.193 156.046 50.193C155.687 50.193 155.375 50.2847 155.111 50.468C154.855 50.644 154.693 50.9043 154.627 51.249H153.681C153.718 50.853 153.85 50.5193 154.077 50.248C154.312 49.9767 154.602 49.7713 154.946 49.632C155.291 49.4853 155.658 49.412 156.046 49.412C156.809 49.412 157.381 49.6173 157.762 50.028C158.151 50.4313 158.345 50.9703 158.345 51.645V55H157.52L157.465 54.021C157.311 54.329 157.084 54.593 156.783 54.813C156.49 55.0257 156.094 55.132 155.595 55.132ZM155.738 54.351C156.09 54.351 156.391 54.2593 156.64 54.076C156.897 53.8927 157.091 53.6543 157.223 53.361C157.355 53.0677 157.421 52.7597 157.421 52.437V52.426H156.024C155.482 52.426 155.097 52.5213 154.869 52.712C154.649 52.8953 154.539 53.1263 154.539 53.405C154.539 53.691 154.642 53.922 154.847 54.098C155.06 54.2667 155.357 54.351 155.738 54.351ZM159.732 55V49.544H160.568L160.623 50.523C160.799 50.1783 161.052 49.907 161.382 49.709C161.712 49.511 162.086 49.412 162.504 49.412C163.149 49.412 163.662 49.61 164.044 50.006C164.432 50.3947 164.627 50.996 164.627 51.81V55H163.703V51.909C163.703 50.7723 163.233 50.204 162.295 50.204C161.825 50.204 161.433 50.3763 161.118 50.721C160.81 51.0583 160.656 51.5423 160.656 52.173V55H159.732ZM168.502 55.132C167.959 55.132 167.482 55.0073 167.072 54.758C166.668 54.5087 166.353 54.1677 166.126 53.735C165.906 53.3023 165.796 52.811 165.796 52.261C165.796 51.711 165.909 51.2233 166.137 50.798C166.364 50.3653 166.679 50.028 167.083 49.786C167.486 49.5367 167.963 49.412 168.513 49.412C168.96 49.412 169.356 49.5037 169.701 49.687C170.045 49.8703 170.313 50.127 170.504 50.457V47.08H171.428V55H170.592L170.504 54.098C170.328 54.362 170.075 54.6003 169.745 54.813C169.415 55.0257 169 55.132 168.502 55.132ZM168.601 54.329C168.967 54.329 169.29 54.2447 169.569 54.076C169.855 53.9 170.075 53.658 170.229 53.35C170.39 53.042 170.471 52.6827 170.471 52.272C170.471 51.8613 170.39 51.502 170.229 51.194C170.075 50.886 169.855 50.6477 169.569 50.479C169.29 50.303 168.967 50.215 168.601 50.215C168.241 50.215 167.919 50.303 167.633 50.479C167.354 50.6477 167.134 50.886 166.973 51.194C166.819 51.502 166.742 51.8613 166.742 52.272C166.742 52.6827 166.819 53.042 166.973 53.35C167.134 53.658 167.354 53.9 167.633 54.076C167.919 54.2447 168.241 54.329 168.601 54.329ZM32.759 69V61.08H33.683V64.479C33.8663 64.1417 34.1267 63.8813 34.464 63.698C34.8013 63.5073 35.168 63.412 35.564 63.412C36.1947 63.412 36.7007 63.61 37.082 64.006C37.4633 64.3947 37.654 64.996 37.654 65.81V69H36.741V65.909C36.741 64.7723 36.2827 64.204 35.366 64.204C34.8893 64.204 34.4897 64.3763 34.167 64.721C33.8443 65.0583 33.683 65.5423 33.683 66.173V69H32.759ZM40.8689 69.132C40.4143 69.132 40.0366 69.055 39.7359 68.901C39.4353 68.747 39.2116 68.5417 39.0649 68.285C38.9183 68.0283 38.8449 67.7497 38.8449 67.449C38.8449 66.8917 39.0576 66.4627 39.4829 66.162C39.9083 65.8613 40.4876 65.711 41.2209 65.711H42.6949V65.645C42.6949 65.1683 42.5703 64.809 42.3209 64.567C42.0716 64.3177 41.7379 64.193 41.3199 64.193C40.9606 64.193 40.6489 64.2847 40.3849 64.468C40.1283 64.644 39.9669 64.9043 39.9009 65.249H38.9549C38.9916 64.853 39.1236 64.5193 39.3509 64.248C39.5856 63.9767 39.8753 63.7713 40.2199 63.632C40.5646 63.4853 40.9313 63.412 41.3199 63.412C42.0826 63.412 42.6546 63.6173 43.0359 64.028C43.4246 64.4313 43.6189 64.9703 43.6189 65.645V69H42.7939L42.7389 68.021C42.5849 68.329 42.3576 68.593 42.0569 68.813C41.7636 69.0257 41.3676 69.132 40.8689 69.132ZM41.0119 68.351C41.3639 68.351 41.6646 68.2593 41.9139 68.076C42.1706 67.8927 42.3649 67.6543 42.4969 67.361C42.6289 67.0677 42.6949 66.7597 42.6949 66.437V66.426H41.2979C40.7553 66.426 40.3703 66.5213 40.1429 66.712C39.9229 66.8953 39.8129 67.1263 39.8129 67.405C39.8129 67.691 39.9156 67.922 40.1209 68.098C40.3336 68.2667 40.6306 68.351 41.0119 68.351ZM46.374 69L44.306 63.544H45.274L46.913 68.109L48.563 63.544H49.509L47.441 69H46.374ZM52.711 69.132C52.1904 69.132 51.7284 69.0147 51.325 68.78C50.9217 68.538 50.6027 68.2043 50.368 67.779C50.1407 67.3537 50.027 66.8513 50.027 66.272C50.027 65.7 50.1407 65.2013 50.368 64.776C50.5954 64.3433 50.9107 64.0097 51.314 63.775C51.7247 63.533 52.1977 63.412 52.733 63.412C53.261 63.412 53.7157 63.533 54.097 63.775C54.4857 64.0097 54.7827 64.3213 54.988 64.71C55.1934 65.0987 55.296 65.5167 55.296 65.964C55.296 66.0447 55.2924 66.1253 55.285 66.206C55.285 66.2867 55.285 66.3783 55.285 66.481H50.94C50.962 66.899 51.0574 67.2473 51.226 67.526C51.402 67.7973 51.6184 68.0027 51.875 68.142C52.139 68.2813 52.4177 68.351 52.711 68.351C53.0924 68.351 53.4114 68.263 53.668 68.087C53.9247 67.911 54.1117 67.6727 54.229 67.372H55.142C54.9954 67.878 54.713 68.2997 54.295 68.637C53.8844 68.967 53.3564 69.132 52.711 69.132ZM52.711 64.193C52.271 64.193 51.8787 64.3287 51.534 64.6C51.1967 64.864 51.0024 65.2527 50.951 65.766H54.383C54.361 65.2747 54.1924 64.8897 53.877 64.611C53.5617 64.3323 53.173 64.193 52.711 64.193ZM61.5879 69C61.0892 69 60.6969 68.879 60.4109 68.637C60.1249 68.395 59.9819 67.9587 59.9819 67.328V64.325H59.0359V63.544H59.9819L60.1029 62.235H60.9059V63.544H62.5119V64.325H60.9059V67.328C60.9059 67.6727 60.9755 67.9073 61.1149 68.032C61.2542 68.1493 61.4999 68.208 61.8519 68.208H62.4239V69H61.5879ZM63.6858 69V61.08H64.6098V64.479C64.7931 64.1417 65.0534 63.8813 65.3908 63.698C65.7281 63.5073 66.0948 63.412 66.4908 63.412C67.1214 63.412 67.6274 63.61 68.0088 64.006C68.3901 64.3947 68.5808 64.996 68.5808 65.81V69H67.6678V65.909C67.6678 64.7723 67.2094 64.204 66.2928 64.204C65.8161 64.204 65.4164 64.3763 65.0938 64.721C64.7711 65.0583 64.6098 65.5423 64.6098 66.173V69H63.6858ZM72.4337 69.132C71.913 69.132 71.451 69.0147 71.0477 68.78C70.6443 68.538 70.3253 68.2043 70.0907 67.779C69.8633 67.3537 69.7497 66.8513 69.7497 66.272C69.7497 65.7 69.8633 65.2013 70.0907 64.776C70.318 64.3433 70.6333 64.0097 71.0367 63.775C71.4473 63.533 71.9203 63.412 72.4557 63.412C72.9837 63.412 73.4383 63.533 73.8197 63.775C74.2083 64.0097 74.5053 64.3213 74.7107 64.71C74.916 65.0987 75.0187 65.5167 75.0187 65.964C75.0187 66.0447 75.015 66.1253 75.0077 66.206C75.0077 66.2867 75.0077 66.3783 75.0077 66.481H70.6627C70.6847 66.899 70.78 67.2473 70.9487 67.526C71.1247 67.7973 71.341 68.0027 71.5977 68.142C71.8617 68.2813 72.1403 68.351 72.4337 68.351C72.815 68.351 73.134 68.263 73.3907 68.087C73.6473 67.911 73.8343 67.6727 73.9517 67.372H74.8647C74.718 67.878 74.4357 68.2997 74.0177 68.637C73.607 68.967 73.079 69.132 72.4337 69.132ZM72.4337 64.193C71.9937 64.193 71.6013 64.3287 71.2567 64.6C70.9193 64.864 70.725 65.2527 70.6737 65.766H74.1057C74.0837 65.2747 73.915 64.8897 73.5997 64.611C73.2843 64.3323 72.8957 64.193 72.4337 64.193ZM80.9695 69.132C80.5148 69.132 80.1372 69.055 79.8365 68.901C79.5358 68.747 79.3122 68.5417 79.1655 68.285C79.0188 68.0283 78.9455 67.7497 78.9455 67.449C78.9455 66.8917 79.1582 66.4627 79.5835 66.162C80.0088 65.8613 80.5882 65.711 81.3215 65.711H82.7955V65.645C82.7955 65.1683 82.6708 64.809 82.4215 64.567C82.1722 64.3177 81.8385 64.193 81.4205 64.193C81.0612 64.193 80.7495 64.2847 80.4855 64.468C80.2288 64.644 80.0675 64.9043 80.0015 65.249H79.0555C79.0922 64.853 79.2242 64.5193 79.4515 64.248C79.6862 63.9767 79.9758 63.7713 80.3205 63.632C80.6652 63.4853 81.0318 63.412 81.4205 63.412C82.1832 63.412 82.7552 63.6173 83.1365 64.028C83.5252 64.4313 83.7195 64.9703 83.7195 65.645V69H82.8945L82.8395 68.021C82.6855 68.329 82.4582 68.593 82.1575 68.813C81.8642 69.0257 81.4682 69.132 80.9695 69.132ZM81.1125 68.351C81.4645 68.351 81.7652 68.2593 82.0145 68.076C82.2712 67.8927 82.4655 67.6543 82.5975 67.361C82.7295 67.0677 82.7955 66.7597 82.7955 66.437V66.426H81.3985C80.8558 66.426 80.4708 66.5213 80.2435 66.712C80.0235 66.8953 79.9135 67.1263 79.9135 67.405C79.9135 67.691 80.0162 67.922 80.2215 68.098C80.4342 68.2667 80.7312 68.351 81.1125 68.351ZM88.0207 69.132C87.5733 69.132 87.1737 69.0403 86.8217 68.857C86.477 68.6737 86.213 68.417 86.0297 68.087L85.9417 69H85.1057V61.08H86.0297V64.446C86.2057 64.182 86.455 63.9437 86.7777 63.731C87.1077 63.5183 87.5257 63.412 88.0317 63.412C88.5743 63.412 89.0473 63.5367 89.4507 63.786C89.854 64.0353 90.1657 64.3763 90.3857 64.809C90.613 65.2417 90.7267 65.733 90.7267 66.283C90.7267 66.833 90.613 67.3243 90.3857 67.757C90.1657 68.1823 89.8503 68.5197 89.4397 68.769C89.0363 69.011 88.5633 69.132 88.0207 69.132ZM87.9217 68.329C88.2883 68.329 88.611 68.2447 88.8897 68.076C89.1683 67.9 89.3883 67.658 89.5497 67.35C89.711 67.042 89.7917 66.6827 89.7917 66.272C89.7917 65.8613 89.711 65.502 89.5497 65.194C89.3883 64.886 89.1683 64.6477 88.8897 64.479C88.611 64.303 88.2883 64.215 87.9217 64.215C87.555 64.215 87.2323 64.303 86.9537 64.479C86.675 64.6477 86.455 64.886 86.2937 65.194C86.1323 65.502 86.0517 65.8613 86.0517 66.272C86.0517 66.6827 86.1323 67.042 86.2937 67.35C86.455 67.658 86.675 67.9 86.9537 68.076C87.2323 68.2447 87.555 68.329 87.9217 68.329ZM92.5739 62.334C92.3906 62.334 92.2366 62.2753 92.1119 62.158C91.9946 62.0333 91.9359 61.8793 91.9359 61.696C91.9359 61.52 91.9946 61.3733 92.1119 61.256C92.2366 61.1387 92.3906 61.08 92.5739 61.08C92.7499 61.08 92.9002 61.1387 93.0249 61.256C93.1496 61.3733 93.2119 61.52 93.2119 61.696C93.2119 61.8793 93.1496 62.0333 93.0249 62.158C92.9002 62.2753 92.7499 62.334 92.5739 62.334ZM92.1119 69V63.544H93.0359V69H92.1119ZM94.6447 69V61.08H95.5687V69H94.6447ZM97.6442 62.334C97.4609 62.334 97.3069 62.2753 97.1822 62.158C97.0649 62.0333 97.0062 61.8793 97.0062 61.696C97.0062 61.52 97.0649 61.3733 97.1822 61.256C97.3069 61.1387 97.4609 61.08 97.6442 61.08C97.8202 61.08 97.9706 61.1387 98.0952 61.256C98.2199 61.3733 98.2822 61.52 98.2822 61.696C98.2822 61.8793 98.2199 62.0333 98.0952 62.158C97.9706 62.2753 97.8202 62.334 97.6442 62.334ZM97.1822 69V63.544H98.1062V69H97.1822ZM101.871 69C101.372 69 100.98 68.879 100.694 68.637C100.408 68.395 100.265 67.9587 100.265 67.328V64.325H99.3191V63.544H100.265L100.386 62.235H101.189V63.544H102.795V64.325H101.189V67.328C101.189 67.6727 101.259 67.9073 101.398 68.032C101.537 68.1493 101.783 68.208 102.135 68.208H102.707V69H101.871ZM104.563 71.42L105.916 68.472H105.597L103.43 63.544H104.431L106.235 67.79L108.149 63.544H109.106L105.531 71.42H104.563ZM115.148 69C114.65 69 114.257 68.879 113.971 68.637C113.685 68.395 113.542 67.9587 113.542 67.328V64.325H112.596V63.544H113.542L113.663 62.235H114.466V63.544H116.072V64.325H114.466V67.328C114.466 67.6727 114.536 67.9073 114.675 68.032C114.815 68.1493 115.06 68.208 115.412 68.208H115.984V69H115.148ZM119.582 69.132C119.069 69.132 118.607 69.0147 118.196 68.78C117.785 68.5453 117.459 68.2153 117.217 67.79C116.982 67.3573 116.865 66.8513 116.865 66.272C116.865 65.6927 116.986 65.1903 117.228 64.765C117.47 64.3323 117.796 63.9987 118.207 63.764C118.625 63.5293 119.091 63.412 119.604 63.412C120.117 63.412 120.579 63.5293 120.99 63.764C121.401 63.9987 121.723 64.3323 121.958 64.765C122.2 65.1903 122.321 65.6927 122.321 66.272C122.321 66.8513 122.2 67.3573 121.958 67.79C121.716 68.2153 121.386 68.5453 120.968 68.78C120.557 69.0147 120.095 69.132 119.582 69.132ZM119.582 68.34C119.897 68.34 120.191 68.263 120.462 68.109C120.733 67.955 120.953 67.724 121.122 67.416C121.291 67.108 121.375 66.7267 121.375 66.272C121.375 65.8173 121.291 65.436 121.122 65.128C120.961 64.82 120.744 64.589 120.473 64.435C120.202 64.281 119.912 64.204 119.604 64.204C119.289 64.204 118.995 64.281 118.724 64.435C118.453 64.589 118.233 64.82 118.064 65.128C117.895 65.436 117.811 65.8173 117.811 66.272C117.811 66.7267 117.895 67.108 118.064 67.416C118.233 67.724 118.449 67.955 118.713 68.109C118.984 68.263 119.274 68.34 119.582 68.34ZM128.09 69L126.022 63.544H126.99L128.629 68.109L130.279 63.544H131.225L129.157 69H128.09ZM132.814 62.334C132.631 62.334 132.477 62.2753 132.352 62.158C132.235 62.0333 132.176 61.8793 132.176 61.696C132.176 61.52 132.235 61.3733 132.352 61.256C132.477 61.1387 132.631 61.08 132.814 61.08C132.99 61.08 133.14 61.1387 133.265 61.256C133.39 61.3733 133.452 61.52 133.452 61.696C133.452 61.8793 133.39 62.0333 133.265 62.158C133.14 62.2753 132.99 62.334 132.814 62.334ZM132.352 69V63.544H133.276V69H132.352ZM137.338 69.132C136.817 69.132 136.355 69.0147 135.952 68.78C135.549 68.538 135.23 68.2043 134.995 67.779C134.768 67.3537 134.654 66.8513 134.654 66.272C134.654 65.7 134.768 65.2013 134.995 64.776C135.222 64.3433 135.538 64.0097 135.941 63.775C136.352 63.533 136.825 63.412 137.36 63.412C137.888 63.412 138.343 63.533 138.724 63.775C139.113 64.0097 139.41 64.3213 139.615 64.71C139.82 65.0987 139.923 65.5167 139.923 65.964C139.923 66.0447 139.919 66.1253 139.912 66.206C139.912 66.2867 139.912 66.3783 139.912 66.481H135.567C135.589 66.899 135.684 67.2473 135.853 67.526C136.029 67.7973 136.245 68.0027 136.502 68.142C136.766 68.2813 137.045 68.351 137.338 68.351C137.719 68.351 138.038 68.263 138.295 68.087C138.552 67.911 138.739 67.6727 138.856 67.372H139.769C139.622 67.878 139.34 68.2997 138.922 68.637C138.511 68.967 137.983 69.132 137.338 69.132ZM137.338 64.193C136.898 64.193 136.506 64.3287 136.161 64.6C135.824 64.864 135.629 65.2527 135.578 65.766H139.01C138.988 65.2747 138.819 64.8897 138.504 64.611C138.189 64.3323 137.8 64.193 137.338 64.193ZM142.033 69L140.438 63.544H141.362L142.517 67.823L143.793 63.544H144.838L146.125 67.823L147.269 63.544H148.204L146.609 69H145.663L144.321 64.501L142.979 69H142.033ZM154.227 69.132C153.574 69.132 153.032 68.967 152.599 68.637C152.166 68.307 151.913 67.8597 151.84 67.295H152.786C152.845 67.581 152.995 67.8303 153.237 68.043C153.486 68.2483 153.82 68.351 154.238 68.351C154.627 68.351 154.913 68.2703 155.096 68.109C155.279 67.9403 155.371 67.7423 155.371 67.515C155.371 67.185 155.25 66.965 155.008 66.855C154.773 66.745 154.44 66.646 154.007 66.558C153.714 66.4993 153.42 66.415 153.127 66.305C152.834 66.195 152.588 66.041 152.39 65.843C152.192 65.6377 152.093 65.37 152.093 65.04C152.093 64.5633 152.269 64.1747 152.621 63.874C152.98 63.566 153.464 63.412 154.073 63.412C154.652 63.412 155.125 63.5587 155.492 63.852C155.866 64.138 156.082 64.5487 156.141 65.084H155.228C155.191 64.8053 155.07 64.589 154.865 64.435C154.667 64.2737 154.399 64.193 154.062 64.193C153.732 64.193 153.475 64.2627 153.292 64.402C153.116 64.5413 153.028 64.7247 153.028 64.952C153.028 65.172 153.142 65.3443 153.369 65.469C153.604 65.5937 153.919 65.7 154.315 65.788C154.652 65.8613 154.971 65.953 155.272 66.063C155.58 66.1657 155.829 66.3233 156.02 66.536C156.218 66.7413 156.317 67.042 156.317 67.438C156.324 67.9293 156.137 68.3363 155.756 68.659C155.382 68.9743 154.872 69.132 154.227 69.132ZM158.198 62.334C158.015 62.334 157.861 62.2753 157.736 62.158C157.619 62.0333 157.56 61.8793 157.56 61.696C157.56 61.52 157.619 61.3733 157.736 61.256C157.861 61.1387 158.015 61.08 158.198 61.08C158.374 61.08 158.524 61.1387 158.649 61.256C158.774 61.3733 158.836 61.52 158.836 61.696C158.836 61.8793 158.774 62.0333 158.649 62.158C158.524 62.2753 158.374 62.334 158.198 62.334ZM157.736 69V63.544H158.66V69H157.736ZM162.425 69C161.926 69 161.534 68.879 161.248 68.637C160.962 68.395 160.819 67.9587 160.819 67.328V64.325H159.873V63.544H160.819L160.94 62.235H161.743V63.544H163.349V64.325H161.743V67.328C161.743 67.6727 161.812 67.9073 161.952 68.032C162.091 68.1493 162.337 68.208 162.689 68.208H163.261V69H162.425ZM166.825 69.132C166.305 69.132 165.843 69.0147 165.439 68.78C165.036 68.538 164.717 68.2043 164.482 67.779C164.255 67.3537 164.141 66.8513 164.141 66.272C164.141 65.7 164.255 65.2013 164.482 64.776C164.71 64.3433 165.025 64.0097 165.428 63.775C165.839 63.533 166.312 63.412 166.847 63.412C167.375 63.412 167.83 63.533 168.211 63.775C168.6 64.0097 168.897 64.3213 169.102 64.71C169.308 65.0987 169.41 65.5167 169.41 65.964C169.41 66.0447 169.407 66.1253 169.399 66.206C169.399 66.2867 169.399 66.3783 169.399 66.481H165.054C165.076 66.899 165.172 67.2473 165.34 67.526C165.516 67.7973 165.733 68.0027 165.989 68.142C166.253 68.2813 166.532 68.351 166.825 68.351C167.207 68.351 167.526 68.263 167.782 68.087C168.039 67.911 168.226 67.6727 168.343 67.372H169.256C169.11 67.878 168.827 68.2997 168.409 68.637C167.999 68.967 167.471 69.132 166.825 69.132ZM166.825 64.193C166.385 64.193 165.993 64.3287 165.648 64.6C165.311 64.864 165.117 65.2527 165.065 65.766H168.497C168.475 65.2747 168.307 64.8897 167.991 64.611C167.676 64.3323 167.287 64.193 166.825 64.193ZM172.725 69.132C172.072 69.132 171.53 68.967 171.097 68.637C170.664 68.307 170.411 67.8597 170.338 67.295H171.284C171.343 67.581 171.493 67.8303 171.735 68.043C171.984 68.2483 172.318 68.351 172.736 68.351C173.125 68.351 173.411 68.2703 173.594 68.109C173.777 67.9403 173.869 67.7423 173.869 67.515C173.869 67.185 173.748 66.965 173.506 66.855C173.271 66.745 172.938 66.646 172.505 66.558C172.212 66.4993 171.918 66.415 171.625 66.305C171.332 66.195 171.086 66.041 170.888 65.843C170.69 65.6377 170.591 65.37 170.591 65.04C170.591 64.5633 170.767 64.1747 171.119 63.874C171.478 63.566 171.962 63.412 172.571 63.412C173.15 63.412 173.623 63.5587 173.99 63.852C174.364 64.138 174.58 64.5487 174.639 65.084H173.726C173.689 64.8053 173.568 64.589 173.363 64.435C173.165 64.2737 172.897 64.193 172.56 64.193C172.23 64.193 171.973 64.2627 171.79 64.402C171.614 64.5413 171.526 64.7247 171.526 64.952C171.526 65.172 171.64 65.3443 171.867 65.469C172.102 65.5937 172.417 65.7 172.813 65.788C173.15 65.8613 173.469 65.953 173.77 66.063C174.078 66.1657 174.327 66.3233 174.518 66.536C174.716 66.7413 174.815 67.042 174.815 67.438C174.822 67.9293 174.635 68.3363 174.254 68.659C173.88 68.9743 173.37 69.132 172.725 69.132ZM33.056 83V78.325H32.231V77.544H33.056V76.598C33.056 76.07 33.188 75.685 33.452 75.443C33.716 75.201 34.101 75.08 34.607 75.08H35.157V75.872H34.75C34.4713 75.872 34.2733 75.9307 34.156 76.048C34.0387 76.158 33.98 76.3487 33.98 76.62V77.544H35.322V78.325H33.98V83H33.056ZM38.6932 83.132C38.1799 83.132 37.7179 83.0147 37.3072 82.78C36.8966 82.5453 36.5702 82.2153 36.3282 81.79C36.0936 81.3573 35.9762 80.8513 35.9762 80.272C35.9762 79.6927 36.0972 79.1903 36.3392 78.765C36.5812 78.3323 36.9076 77.9987 37.3182 77.764C37.7362 77.5293 38.2019 77.412 38.7152 77.412C39.2286 77.412 39.6906 77.5293 40.1012 77.764C40.5119 77.9987 40.8346 78.3323 41.0692 78.765C41.3112 79.1903 41.4322 79.6927 41.4322 80.272C41.4322 80.8513 41.3112 81.3573 41.0692 81.79C40.8272 82.2153 40.4972 82.5453 40.0792 82.78C39.6686 83.0147 39.2066 83.132 38.6932 83.132ZM38.6932 82.34C39.0086 82.34 39.3019 82.263 39.5732 82.109C39.8446 81.955 40.0646 81.724 40.2332 81.416C40.4019 81.108 40.4862 80.7267 40.4862 80.272C40.4862 79.8173 40.4019 79.436 40.2332 79.128C40.0719 78.82 39.8556 78.589 39.5842 78.435C39.3129 78.281 39.0232 78.204 38.7152 78.204C38.3999 78.204 38.1066 78.281 37.8352 78.435C37.5639 78.589 37.3439 78.82 37.1752 79.128C37.0066 79.436 36.9222 79.8173 36.9222 80.272C36.9222 80.7267 37.0066 81.108 37.1752 81.416C37.3439 81.724 37.5602 81.955 37.8242 82.109C38.0956 82.263 38.3852 82.34 38.6932 82.34ZM42.717 83V77.544H43.553L43.63 78.589C43.7987 78.2297 44.0553 77.9437 44.4 77.731C44.7447 77.5183 45.17 77.412 45.676 77.412V78.38H45.423C45.1003 78.38 44.8033 78.4387 44.532 78.556C44.2607 78.666 44.0443 78.8567 43.883 79.128C43.7217 79.3993 43.641 79.7733 43.641 80.25V83H42.717ZM49.6242 85.42V77.544H50.4602L50.5482 78.446C50.7242 78.182 50.9736 77.9437 51.2962 77.731C51.6262 77.5183 52.0442 77.412 52.5502 77.412C53.0929 77.412 53.5659 77.5367 53.9692 77.786C54.3726 78.0353 54.6842 78.3763 54.9042 78.809C55.1316 79.2417 55.2452 79.733 55.2452 80.283C55.2452 80.833 55.1316 81.3243 54.9042 81.757C54.6842 82.1823 54.3689 82.5197 53.9582 82.769C53.5549 83.011 53.0819 83.132 52.5392 83.132C52.0919 83.132 51.6922 83.0403 51.3402 82.857C50.9956 82.6737 50.7316 82.417 50.5482 82.087V85.42H49.6242ZM52.4402 82.329C52.8069 82.329 53.1296 82.2447 53.4082 82.076C53.6869 81.9 53.9069 81.658 54.0682 81.35C54.2296 81.042 54.3102 80.6827 54.3102 80.272C54.3102 79.8613 54.2296 79.502 54.0682 79.194C53.9069 78.886 53.6869 78.6477 53.4082 78.479C53.1296 78.303 52.8069 78.215 52.4402 78.215C52.0736 78.215 51.7509 78.303 51.4722 78.479C51.1936 78.6477 50.9736 78.886 50.8122 79.194C50.6509 79.502 50.5702 79.8613 50.5702 80.272C50.5702 80.6827 50.6509 81.042 50.8122 81.35C50.9736 81.658 51.1936 81.9 51.4722 82.076C51.7509 82.2447 52.0736 82.329 52.4402 82.329ZM56.5315 83V77.544H57.3675L57.4445 78.589C57.6131 78.2297 57.8698 77.9437 58.2145 77.731C58.5591 77.5183 58.9845 77.412 59.4905 77.412V78.38H59.2375C58.9148 78.38 58.6178 78.4387 58.3465 78.556C58.0751 78.666 57.8588 78.8567 57.6975 79.128C57.5361 79.3993 57.4555 79.7733 57.4555 80.25V83H56.5315ZM62.7765 83.132C62.2558 83.132 61.7938 83.0147 61.3905 82.78C60.9871 82.538 60.6681 82.2043 60.4335 81.779C60.2061 81.3537 60.0925 80.8513 60.0925 80.272C60.0925 79.7 60.2061 79.2013 60.4335 78.776C60.6608 78.3433 60.9761 78.0097 61.3795 77.775C61.7901 77.533 62.2631 77.412 62.7985 77.412C63.3265 77.412 63.7811 77.533 64.1625 77.775C64.5511 78.0097 64.8481 78.3213 65.0535 78.71C65.2588 79.0987 65.3615 79.5167 65.3615 79.964C65.3615 80.0447 65.3578 80.1253 65.3505 80.206C65.3505 80.2867 65.3505 80.3783 65.3505 80.481H61.0055C61.0275 80.899 61.1228 81.2473 61.2915 81.526C61.4675 81.7973 61.6838 82.0027 61.9405 82.142C62.2045 82.2813 62.4831 82.351 62.7765 82.351C63.1578 82.351 63.4768 82.263 63.7335 82.087C63.9901 81.911 64.1771 81.6727 64.2945 81.372H65.2075C65.0608 81.878 64.7785 82.2997 64.3605 82.637C63.9498 82.967 63.4218 83.132 62.7765 83.132ZM62.7765 78.193C62.3365 78.193 61.9441 78.3287 61.5995 78.6C61.2621 78.864 61.0678 79.2527 61.0165 79.766H64.4485C64.4265 79.2747 64.2578 78.8897 63.9425 78.611C63.6271 78.3323 63.2385 78.193 62.7765 78.193ZM67.9443 83L65.8763 77.544H66.8443L68.4833 82.109L70.1333 77.544H71.0793L69.0113 83H67.9443ZM72.6686 76.334C72.4853 76.334 72.3313 76.2753 72.2066 76.158C72.0893 76.0333 72.0306 75.8793 72.0306 75.696C72.0306 75.52 72.0893 75.3733 72.2066 75.256C72.3313 75.1387 72.4853 75.08 72.6686 75.08C72.8446 75.08 72.995 75.1387 73.1196 75.256C73.2443 75.3733 73.3066 75.52 73.3066 75.696C73.3066 75.8793 73.2443 76.0333 73.1196 76.158C72.995 76.2753 72.8446 76.334 72.6686 76.334ZM72.2066 83V77.544H73.1306V83H72.2066ZM77.2255 83.132C76.7121 83.132 76.2501 83.0147 75.8395 82.78C75.4288 82.5453 75.1025 82.2153 74.8605 81.79C74.6258 81.3573 74.5085 80.8513 74.5085 80.272C74.5085 79.6927 74.6295 79.1903 74.8715 78.765C75.1135 78.3323 75.4398 77.9987 75.8505 77.764C76.2685 77.5293 76.7341 77.412 77.2475 77.412C77.7608 77.412 78.2228 77.5293 78.6335 77.764C79.0441 77.9987 79.3668 78.3323 79.6015 78.765C79.8435 79.1903 79.9645 79.6927 79.9645 80.272C79.9645 80.8513 79.8435 81.3573 79.6015 81.79C79.3595 82.2153 79.0295 82.5453 78.6115 82.78C78.2008 83.0147 77.7388 83.132 77.2255 83.132ZM77.2255 82.34C77.5408 82.34 77.8341 82.263 78.1055 82.109C78.3768 81.955 78.5968 81.724 78.7655 81.416C78.9341 81.108 79.0185 80.7267 79.0185 80.272C79.0185 79.8173 78.9341 79.436 78.7655 79.128C78.6041 78.82 78.3878 78.589 78.1165 78.435C77.8451 78.281 77.5555 78.204 77.2475 78.204C76.9321 78.204 76.6388 78.281 76.3675 78.435C76.0961 78.589 75.8761 78.82 75.7075 79.128C75.5388 79.436 75.4545 79.8173 75.4545 80.272C75.4545 80.7267 75.5388 81.108 75.7075 81.416C75.8761 81.724 76.0925 81.955 76.3565 82.109C76.6278 82.263 76.9175 82.34 77.2255 82.34ZM83.2402 83.132C82.5949 83.132 82.0816 82.9377 81.7002 82.549C81.3189 82.153 81.1282 81.548 81.1282 80.734V77.544H82.0522V80.635C82.0522 81.7717 82.5179 82.34 83.4492 82.34C83.9259 82.34 84.3182 82.1713 84.6262 81.834C84.9416 81.4893 85.0992 81.0017 85.0992 80.371V77.544H86.0232V83H85.1872L85.1212 82.021C84.9526 82.3657 84.6996 82.637 84.3622 82.835C84.0322 83.033 83.6582 83.132 83.2402 83.132ZM89.6342 83.132C88.9815 83.132 88.4388 82.967 88.0062 82.637C87.5735 82.307 87.3205 81.8597 87.2472 81.295H88.1932C88.2518 81.581 88.4022 81.8303 88.6442 82.043C88.8935 82.2483 89.2272 82.351 89.6452 82.351C90.0338 82.351 90.3198 82.2703 90.5032 82.109C90.6865 81.9403 90.7782 81.7423 90.7782 81.515C90.7782 81.185 90.6572 80.965 90.4152 80.855C90.1805 80.745 89.8468 80.646 89.4142 80.558C89.1208 80.4993 88.8275 80.415 88.5342 80.305C88.2408 80.195 87.9952 80.041 87.7972 79.843C87.5992 79.6377 87.5002 79.37 87.5002 79.04C87.5002 78.5633 87.6762 78.1747 88.0282 77.874C88.3875 77.566 88.8715 77.412 89.4802 77.412C90.0595 77.412 90.5325 77.5587 90.8992 77.852C91.2732 78.138 91.4895 78.5487 91.5482 79.084H90.6352C90.5985 78.8053 90.4775 78.589 90.2722 78.435C90.0742 78.2737 89.8065 78.193 89.4692 78.193C89.1392 78.193 88.8825 78.2627 88.6992 78.402C88.5232 78.5413 88.4352 78.7247 88.4352 78.952C88.4352 79.172 88.5488 79.3443 88.7762 79.469C89.0108 79.5937 89.3262 79.7 89.7222 79.788C90.0595 79.8613 90.3785 79.953 90.6792 80.063C90.9872 80.1657 91.2365 80.3233 91.4272 80.536C91.6252 80.7413 91.7242 81.042 91.7242 81.438C91.7315 81.9293 91.5445 82.3363 91.1632 82.659C90.7892 82.9743 90.2795 83.132 89.6342 83.132ZM96.5493 85.42L97.9023 82.472H97.5833L95.4163 77.544H96.4173L98.2213 81.79L100.135 77.544H101.092L97.5173 85.42H96.5493ZM104.005 83.132C103.484 83.132 103.022 83.0147 102.619 82.78C102.216 82.538 101.897 82.2043 101.662 81.779C101.435 81.3537 101.321 80.8513 101.321 80.272C101.321 79.7 101.435 79.2013 101.662 78.776C101.889 78.3433 102.205 78.0097 102.608 77.775C103.019 77.533 103.492 77.412 104.027 77.412C104.555 77.412 105.01 77.533 105.391 77.775C105.78 78.0097 106.077 78.3213 106.282 78.71C106.487 79.0987 106.59 79.5167 106.59 79.964C106.59 80.0447 106.586 80.1253 106.579 80.206C106.579 80.2867 106.579 80.3783 106.579 80.481H102.234C102.256 80.899 102.351 81.2473 102.52 81.526C102.696 81.7973 102.912 82.0027 103.169 82.142C103.433 82.2813 103.712 82.351 104.005 82.351C104.386 82.351 104.705 82.263 104.962 82.087C105.219 81.911 105.406 81.6727 105.523 81.372H106.436C106.289 81.878 106.007 82.2997 105.589 82.637C105.178 82.967 104.65 83.132 104.005 83.132ZM104.005 78.193C103.565 78.193 103.173 78.3287 102.828 78.6C102.491 78.864 102.296 79.2527 102.245 79.766H105.677C105.655 79.2747 105.486 78.8897 105.171 78.611C104.856 78.3323 104.467 78.193 104.005 78.193ZM109.63 83.132C109.175 83.132 108.797 83.055 108.497 82.901C108.196 82.747 107.972 82.5417 107.826 82.285C107.679 82.0283 107.606 81.7497 107.606 81.449C107.606 80.8917 107.818 80.4627 108.244 80.162C108.669 79.8613 109.248 79.711 109.982 79.711H111.456V79.645C111.456 79.1683 111.331 78.809 111.082 78.567C110.832 78.3177 110.499 78.193 110.081 78.193C109.721 78.193 109.41 78.2847 109.146 78.468C108.889 78.644 108.728 78.9043 108.662 79.249H107.716C107.752 78.853 107.884 78.5193 108.112 78.248C108.346 77.9767 108.636 77.7713 108.981 77.632C109.325 77.4853 109.692 77.412 110.081 77.412C110.843 77.412 111.415 77.6173 111.797 78.028C112.185 78.4313 112.38 78.9703 112.38 79.645V83H111.555L111.5 82.021C111.346 82.329 111.118 82.593 110.818 82.813C110.524 83.0257 110.128 83.132 109.63 83.132ZM109.773 82.351C110.125 82.351 110.425 82.2593 110.675 82.076C110.931 81.8927 111.126 81.6543 111.258 81.361C111.39 81.0677 111.456 80.7597 111.456 80.437V80.426H110.059C109.516 80.426 109.131 80.5213 108.904 80.712C108.684 80.8953 108.574 81.1263 108.574 81.405C108.574 81.691 108.676 81.922 108.882 82.098C109.094 82.2667 109.391 82.351 109.773 82.351ZM113.766 83V77.544H114.602L114.679 78.589C114.848 78.2297 115.104 77.9437 115.449 77.731C115.794 77.5183 116.219 77.412 116.725 77.412V78.38H116.472C116.149 78.38 115.852 78.4387 115.581 78.556C115.31 78.666 115.093 78.8567 114.932 79.128C114.771 79.3993 114.69 79.7733 114.69 80.25V83H113.766ZM119.852 83.132C119.199 83.132 118.657 82.967 118.224 82.637C117.791 82.307 117.538 81.8597 117.465 81.295H118.411C118.47 81.581 118.62 81.8303 118.862 82.043C119.111 82.2483 119.445 82.351 119.863 82.351C120.252 82.351 120.538 82.2703 120.721 82.109C120.904 81.9403 120.996 81.7423 120.996 81.515C120.996 81.185 120.875 80.965 120.633 80.855C120.398 80.745 120.065 80.646 119.632 80.558C119.339 80.4993 119.045 80.415 118.752 80.305C118.459 80.195 118.213 80.041 118.015 79.843C117.817 79.6377 117.718 79.37 117.718 79.04C117.718 78.5633 117.894 78.1747 118.246 77.874C118.605 77.566 119.089 77.412 119.698 77.412C120.277 77.412 120.75 77.5587 121.117 77.852C121.491 78.138 121.707 78.5487 121.766 79.084H120.853C120.816 78.8053 120.695 78.589 120.49 78.435C120.292 78.2737 120.024 78.193 119.687 78.193C119.357 78.193 119.1 78.2627 118.917 78.402C118.741 78.5413 118.653 78.7247 118.653 78.952C118.653 79.172 118.767 79.3443 118.994 79.469C119.229 79.5937 119.544 79.7 119.94 79.788C120.277 79.8613 120.596 79.953 120.897 80.063C121.205 80.1657 121.454 80.3233 121.645 80.536C121.843 80.7413 121.942 81.042 121.942 81.438C121.949 81.9293 121.762 82.3363 121.381 82.659C121.007 82.9743 120.497 83.132 119.852 83.132Z" fill="black"/>
</g>
<defs>
<filter id="filter0_d_162_5914" x="16" y="0" width="192" height="102" filterUnits="userSpaceOnUse" color-interpolation-filters="sRGB">
<feFlood flood-opacity="0" result="BackgroundImageFix"/>
<feColorMatrix in="SourceAlpha" type="matrix" values="0 0 0 0 0 0 0 0 0 0 0 0 0 0 0 0 0 0 127 0" result="hardAlpha"/>
<feOffset/>
<feGaussianBlur stdDeviation="4"/>
<feComposite in2="hardAlpha" operator="out"/>
<feColorMatrix type="matrix" values="0 0 0 0 0 0 0 0 0 0 0 0 0 0 0 0 0 0 0.15 0"/>
<feBlend mode="normal" in2="BackgroundImageFix" result="effect1_dropShadow_162_5914"/>
<feBlend mode="normal" in="SourceGraphic" in2="effect1_dropShadow_162_5914" result="shape"/>
</filter>
</defs>
</svg>
