<svg width="208" height="74" viewBox="0 0 208 74" fill="none" xmlns="http://www.w3.org/2000/svg">
<circle cx="4" cy="37" r="4" fill="#005271"/>
<line x1="8" y1="36.5" x2="24" y2="36.5" stroke="#005271" stroke-dasharray="2 2"/>
<g filter="url(#filter0_d_162_5944)">
<rect x="24" y="8" width="176" height="58" rx="4" fill="white" shape-rendering="crispEdges"/>
<path d="M35.597 27.132C35.069 27.132 34.5887 27.0293 34.156 26.824C33.7307 26.6113 33.3897 26.285 33.133 25.845C32.8763 25.405 32.748 24.844 32.748 24.162V19.3H33.672V24.173C33.672 24.921 33.8517 25.4637 34.211 25.801C34.5703 26.1383 35.0397 26.307 35.619 26.307C36.1983 26.307 36.664 26.1383 37.016 25.801C37.368 25.4637 37.544 24.921 37.544 24.173V19.3H38.468V24.162C38.468 24.844 38.3397 25.405 38.083 25.845C37.8263 26.285 37.4817 26.6113 37.049 26.824C36.6163 27.0293 36.1323 27.132 35.597 27.132ZM42.0678 27.132C41.4151 27.132 40.8724 26.967 40.4398 26.637C40.0071 26.307 39.7541 25.8597 39.6808 25.295H40.6268C40.6854 25.581 40.8358 25.8303 41.0778 26.043C41.3271 26.2483 41.6608 26.351 42.0788 26.351C42.4674 26.351 42.7534 26.2703 42.9368 26.109C43.1201 25.9403 43.2118 25.7423 43.2118 25.515C43.2118 25.185 43.0908 24.965 42.8488 24.855C42.6141 24.745 42.2804 24.646 41.8478 24.558C41.5544 24.4993 41.2611 24.415 40.9678 24.305C40.6744 24.195 40.4288 24.041 40.2308 23.843C40.0328 23.6377 39.9338 23.37 39.9338 23.04C39.9338 22.5633 40.1098 22.1747 40.4618 21.874C40.8211 21.566 41.3051 21.412 41.9138 21.412C42.4931 21.412 42.9661 21.5587 43.3328 21.852C43.7068 22.138 43.9231 22.5487 43.9818 23.084H43.0688C43.0321 22.8053 42.9111 22.589 42.7058 22.435C42.5078 22.2737 42.2401 22.193 41.9028 22.193C41.5728 22.193 41.3161 22.2627 41.1328 22.402C40.9568 22.5413 40.8688 22.7247 40.8688 22.952C40.8688 23.172 40.9824 23.3443 41.2098 23.469C41.4444 23.5937 41.7598 23.7 42.1558 23.788C42.4931 23.8613 42.8121 23.953 43.1128 24.063C43.4208 24.1657 43.6701 24.3233 43.8608 24.536C44.0588 24.7413 44.1578 25.042 44.1578 25.438C44.1651 25.9293 43.9781 26.3363 43.5968 26.659C43.2228 26.9743 42.7131 27.132 42.0678 27.132ZM47.9308 27.132C47.4101 27.132 46.9481 27.0147 46.5448 26.78C46.1414 26.538 45.8224 26.2043 45.5878 25.779C45.3604 25.3537 45.2468 24.8513 45.2468 24.272C45.2468 23.7 45.3604 23.2013 45.5878 22.776C45.8151 22.3433 46.1304 22.0097 46.5338 21.775C46.9444 21.533 47.4174 21.412 47.9527 21.412C48.4808 21.412 48.9354 21.533 49.3168 21.775C49.7054 22.0097 50.0024 22.3213 50.2078 22.71C50.4131 23.0987 50.5158 23.5167 50.5158 23.964C50.5158 24.0447 50.5121 24.1253 50.5048 24.206C50.5048 24.2867 50.5048 24.3783 50.5048 24.481H46.1598C46.1818 24.899 46.2771 25.2473 46.4458 25.526C46.6218 25.7973 46.8381 26.0027 47.0948 26.142C47.3588 26.2813 47.6374 26.351 47.9308 26.351C48.3121 26.351 48.6311 26.263 48.8878 26.087C49.1444 25.911 49.3314 25.6727 49.4488 25.372H50.3618C50.2151 25.878 49.9328 26.2997 49.5148 26.637C49.1041 26.967 48.5761 27.132 47.9308 27.132ZM47.9308 22.193C47.4908 22.193 47.0984 22.3287 46.7538 22.6C46.4164 22.864 46.2221 23.2527 46.1707 23.766H49.6028C49.5808 23.2747 49.4121 22.8897 49.0968 22.611C48.7814 22.3323 48.3928 22.193 47.9308 22.193ZM51.7404 27V21.544H52.5764L52.6534 22.589C52.8221 22.2297 53.0788 21.9437 53.4234 21.731C53.7681 21.5183 54.1934 21.412 54.6994 21.412V22.38H54.4464C54.1238 22.38 53.8268 22.4387 53.5554 22.556C53.2841 22.666 53.0678 22.8567 52.9064 23.128C52.7451 23.3993 52.6644 23.7733 52.6644 24.25V27H51.7404ZM57.8265 27.132C57.1739 27.132 56.6312 26.967 56.1985 26.637C55.7659 26.307 55.5129 25.8597 55.4395 25.295H56.3855C56.4442 25.581 56.5945 25.8303 56.8365 26.043C57.0859 26.2483 57.4195 26.351 57.8375 26.351C58.2262 26.351 58.5122 26.2703 58.6955 26.109C58.8789 25.9403 58.9705 25.7423 58.9705 25.515C58.9705 25.185 58.8495 24.965 58.6075 24.855C58.3729 24.745 58.0392 24.646 57.6065 24.558C57.3132 24.4993 57.0199 24.415 56.7265 24.305C56.4332 24.195 56.1875 24.041 55.9895 23.843C55.7915 23.6377 55.6925 23.37 55.6925 23.04C55.6925 22.5633 55.8685 22.1747 56.2205 21.874C56.5799 21.566 57.0639 21.412 57.6725 21.412C58.2519 21.412 58.7249 21.5587 59.0915 21.852C59.4655 22.138 59.6819 22.5487 59.7405 23.084H58.8275C58.7909 22.8053 58.6699 22.589 58.4645 22.435C58.2665 22.2737 57.9989 22.193 57.6615 22.193C57.3315 22.193 57.0749 22.2627 56.8915 22.402C56.7155 22.5413 56.6275 22.7247 56.6275 22.952C56.6275 23.172 56.7412 23.3443 56.9685 23.469C57.2032 23.5937 57.5185 23.7 57.9145 23.788C58.2519 23.8613 58.5709 23.953 58.8715 24.063C59.1795 24.1657 59.4289 24.3233 59.6195 24.536C59.8175 24.7413 59.9165 25.042 59.9165 25.438C59.9239 25.9293 59.7369 26.3363 59.3555 26.659C58.9815 26.9743 58.4719 27.132 57.8265 27.132ZM66.6557 27.132C66.135 27.132 65.6657 27.0147 65.2477 26.78C64.837 26.538 64.5107 26.2043 64.2687 25.779C64.034 25.3463 63.9167 24.844 63.9167 24.272C63.9167 23.7 64.034 23.2013 64.2687 22.776C64.5107 22.3433 64.837 22.0097 65.2477 21.775C65.6657 21.533 66.135 21.412 66.6557 21.412C67.301 21.412 67.8437 21.5807 68.2837 21.918C68.731 22.2553 69.0133 22.7063 69.1307 23.271H68.1847C68.1113 22.9337 67.9317 22.6733 67.6457 22.49C67.3597 22.2993 67.026 22.204 66.6447 22.204C66.3367 22.204 66.047 22.281 65.7757 22.435C65.5043 22.589 65.2843 22.82 65.1157 23.128C64.947 23.436 64.8627 23.8173 64.8627 24.272C64.8627 24.7267 64.947 25.108 65.1157 25.416C65.2843 25.724 65.5043 25.9587 65.7757 26.12C66.047 26.274 66.3367 26.351 66.6447 26.351C67.026 26.351 67.3597 26.2593 67.6457 26.076C67.9317 25.8853 68.1113 25.6177 68.1847 25.273H69.1307C69.0207 25.823 68.742 26.2703 68.2947 26.615C67.8473 26.9597 67.301 27.132 66.6557 27.132ZM72.2361 27.132C71.7814 27.132 71.4038 27.055 71.1031 26.901C70.8024 26.747 70.5788 26.5417 70.4321 26.285C70.2854 26.0283 70.2121 25.7497 70.2121 25.449C70.2121 24.8917 70.4248 24.4627 70.8501 24.162C71.2754 23.8613 71.8548 23.711 72.5881 23.711H74.0621V23.645C74.0621 23.1683 73.9374 22.809 73.6881 22.567C73.4388 22.3177 73.1051 22.193 72.6871 22.193C72.3278 22.193 72.0161 22.2847 71.7521 22.468C71.4954 22.644 71.3341 22.9043 71.2681 23.249H70.3221C70.3588 22.853 70.4908 22.5193 70.7181 22.248C70.9528 21.9767 71.2424 21.7713 71.5871 21.632C71.9318 21.4853 72.2984 21.412 72.6871 21.412C73.4498 21.412 74.0218 21.6173 74.4031 22.028C74.7918 22.4313 74.9861 22.9703 74.9861 23.645V27H74.1611L74.1061 26.021C73.9521 26.329 73.7248 26.593 73.4241 26.813C73.1308 27.0257 72.7348 27.132 72.2361 27.132ZM72.3791 26.351C72.7311 26.351 73.0318 26.2593 73.2811 26.076C73.5378 25.8927 73.7321 25.6543 73.8641 25.361C73.9961 25.0677 74.0621 24.7597 74.0621 24.437V24.426H72.6651C72.1224 24.426 71.7374 24.5213 71.5101 24.712C71.2901 24.8953 71.1801 25.1263 71.1801 25.405C71.1801 25.691 71.2828 25.922 71.4881 26.098C71.7008 26.2667 71.9978 26.351 72.3791 26.351ZM76.3723 27V21.544H77.2083L77.2633 22.523C77.4393 22.1783 77.6923 21.907 78.0223 21.709C78.3523 21.511 78.7263 21.412 79.1443 21.412C79.7896 21.412 80.3029 21.61 80.6843 22.006C81.0729 22.3947 81.2673 22.996 81.2673 23.81V27H80.3433V23.909C80.3433 22.7723 79.8739 22.204 78.9353 22.204C78.4659 22.204 78.0736 22.3763 77.7583 22.721C77.4503 23.0583 77.2963 23.5423 77.2963 24.173V27H76.3723ZM87.6683 27.132C87.0157 27.132 86.473 26.967 86.0403 26.637C85.6077 26.307 85.3547 25.8597 85.2813 25.295H86.2273C86.286 25.581 86.4363 25.8303 86.6783 26.043C86.9277 26.2483 87.2613 26.351 87.6793 26.351C88.068 26.351 88.354 26.2703 88.5373 26.109C88.7207 25.9403 88.8123 25.7423 88.8123 25.515C88.8123 25.185 88.6913 24.965 88.4493 24.855C88.2147 24.745 87.881 24.646 87.4483 24.558C87.155 24.4993 86.8617 24.415 86.5683 24.305C86.275 24.195 86.0293 24.041 85.8313 23.843C85.6333 23.6377 85.5343 23.37 85.5343 23.04C85.5343 22.5633 85.7103 22.1747 86.0623 21.874C86.4217 21.566 86.9057 21.412 87.5143 21.412C88.0937 21.412 88.5667 21.5587 88.9333 21.852C89.3073 22.138 89.5237 22.5487 89.5823 23.084H88.6693C88.6327 22.8053 88.5117 22.589 88.3063 22.435C88.1083 22.2737 87.8407 22.193 87.5033 22.193C87.1733 22.193 86.9167 22.2627 86.7333 22.402C86.5573 22.5413 86.4693 22.7247 86.4693 22.952C86.4693 23.172 86.583 23.3443 86.8103 23.469C87.045 23.5937 87.3603 23.7 87.7563 23.788C88.0937 23.8613 88.4127 23.953 88.7133 24.063C89.0213 24.1657 89.2707 24.3233 89.4613 24.536C89.6593 24.7413 89.7583 25.042 89.7583 25.438C89.7657 25.9293 89.5787 26.3363 89.1973 26.659C88.8233 26.9743 88.3137 27.132 87.6683 27.132ZM93.5313 27.132C93.0107 27.132 92.5487 27.0147 92.1453 26.78C91.742 26.538 91.423 26.2043 91.1883 25.779C90.961 25.3537 90.8473 24.8513 90.8473 24.272C90.8473 23.7 90.961 23.2013 91.1883 22.776C91.4157 22.3433 91.731 22.0097 92.1343 21.775C92.545 21.533 93.018 21.412 93.5533 21.412C94.0813 21.412 94.536 21.533 94.9173 21.775C95.306 22.0097 95.603 22.3213 95.8083 22.71C96.0137 23.0987 96.1163 23.5167 96.1163 23.964C96.1163 24.0447 96.1127 24.1253 96.1053 24.206C96.1053 24.2867 96.1053 24.3783 96.1053 24.481H91.7603C91.7823 24.899 91.8777 25.2473 92.0463 25.526C92.2223 25.7973 92.4387 26.0027 92.6953 26.142C92.9593 26.2813 93.238 26.351 93.5313 26.351C93.9127 26.351 94.2317 26.263 94.4883 26.087C94.745 25.911 94.932 25.6727 95.0493 25.372H95.9623C95.8157 25.878 95.5333 26.2997 95.1153 26.637C94.7047 26.967 94.1767 27.132 93.5313 27.132ZM93.5313 22.193C93.0913 22.193 92.699 22.3287 92.3543 22.6C92.017 22.864 91.8227 23.2527 91.7713 23.766H95.2033C95.1813 23.2747 95.0127 22.8897 94.6973 22.611C94.382 22.3323 93.9933 22.193 93.5313 22.193ZM99.794 27.132C99.2734 27.132 98.8114 27.0147 98.408 26.78C98.0047 26.538 97.6857 26.2043 97.451 25.779C97.2237 25.3537 97.11 24.8513 97.11 24.272C97.11 23.7 97.2237 23.2013 97.451 22.776C97.6784 22.3433 97.9937 22.0097 98.397 21.775C98.8077 21.533 99.2807 21.412 99.816 21.412C100.344 21.412 100.799 21.533 101.18 21.775C101.569 22.0097 101.866 22.3213 102.071 22.71C102.276 23.0987 102.379 23.5167 102.379 23.964C102.379 24.0447 102.375 24.1253 102.368 24.206C102.368 24.2867 102.368 24.3783 102.368 24.481H98.023C98.045 24.899 98.1404 25.2473 98.309 25.526C98.485 25.7973 98.7014 26.0027 98.958 26.142C99.222 26.2813 99.5007 26.351 99.794 26.351C100.175 26.351 100.494 26.263 100.751 26.087C101.008 25.911 101.195 25.6727 101.312 25.372H102.225C102.078 25.878 101.796 26.2997 101.378 26.637C100.967 26.967 100.439 27.132 99.794 27.132ZM99.794 22.193C99.354 22.193 98.9617 22.3287 98.617 22.6C98.2797 22.864 98.0854 23.2527 98.034 23.766H101.466C101.444 23.2747 101.275 22.8897 100.96 22.611C100.645 22.3323 100.256 22.193 99.794 22.193ZM107.615 27L106.02 21.544H106.944L108.099 25.823L109.375 21.544H110.42L111.707 25.823L112.851 21.544H113.786L112.191 27H111.245L109.903 22.501L108.561 27H107.615ZM114.808 27V19.08H115.732V22.479C115.915 22.1417 116.175 21.8813 116.513 21.698C116.85 21.5073 117.217 21.412 117.613 21.412C118.243 21.412 118.749 21.61 119.131 22.006C119.512 22.3947 119.703 22.996 119.703 23.81V27H118.79V23.909C118.79 22.7723 118.331 22.204 117.415 22.204C116.938 22.204 116.538 22.3763 116.216 22.721C115.893 23.0583 115.732 23.5423 115.732 24.173V27H114.808ZM123.556 27.132C123.035 27.132 122.573 27.0147 122.17 26.78C121.766 26.538 121.447 26.2043 121.213 25.779C120.985 25.3537 120.872 24.8513 120.872 24.272C120.872 23.7 120.985 23.2013 121.213 22.776C121.44 22.3433 121.755 22.0097 122.159 21.775C122.569 21.533 123.042 21.412 123.578 21.412C124.106 21.412 124.56 21.533 124.942 21.775C125.33 22.0097 125.627 22.3213 125.833 22.71C126.038 23.0987 126.141 23.5167 126.141 23.964C126.141 24.0447 126.137 24.1253 126.13 24.206C126.13 24.2867 126.13 24.3783 126.13 24.481H121.785C121.807 24.899 121.902 25.2473 122.071 25.526C122.247 25.7973 122.463 26.0027 122.72 26.142C122.984 26.2813 123.262 26.351 123.556 26.351C123.937 26.351 124.256 26.263 124.513 26.087C124.769 25.911 124.956 25.6727 125.074 25.372H125.987C125.84 25.878 125.558 26.2997 125.14 26.637C124.729 26.967 124.201 27.132 123.556 27.132ZM123.556 22.193C123.116 22.193 122.723 22.3287 122.379 22.6C122.041 22.864 121.847 23.2527 121.796 23.766H125.228C125.206 23.2747 125.037 22.8897 124.722 22.611C124.406 22.3323 124.018 22.193 123.556 22.193ZM127.365 27V21.544H128.201L128.256 22.523C128.432 22.1783 128.685 21.907 129.015 21.709C129.345 21.511 129.719 21.412 130.137 21.412C130.783 21.412 131.296 21.61 131.677 22.006C132.066 22.3947 132.26 22.996 132.26 23.81V27H131.336V23.909C131.336 22.7723 130.867 22.204 129.928 22.204C129.459 22.204 129.067 22.3763 128.751 22.721C128.443 23.0583 128.289 23.5423 128.289 24.173V27H127.365ZM139.025 27.132C138.504 27.132 138.042 27.0147 137.639 26.78C137.235 26.538 136.916 26.2043 136.682 25.779C136.454 25.3537 136.341 24.8513 136.341 24.272C136.341 23.7 136.454 23.2013 136.682 22.776C136.909 22.3433 137.224 22.0097 137.628 21.775C138.038 21.533 138.511 21.412 139.046 21.412C139.575 21.412 140.029 21.533 140.411 21.775C140.799 22.0097 141.096 22.3213 141.302 22.71C141.507 23.0987 141.61 23.5167 141.61 23.964C141.61 24.0447 141.606 24.1253 141.599 24.206C141.599 24.2867 141.599 24.3783 141.599 24.481H137.254C137.276 24.899 137.371 25.2473 137.54 25.526C137.716 25.7973 137.932 26.0027 138.189 26.142C138.453 26.2813 138.731 26.351 139.025 26.351C139.406 26.351 139.725 26.263 139.982 26.087C140.238 25.911 140.425 25.6727 140.543 25.372H141.456C141.309 25.878 141.027 26.2997 140.609 26.637C140.198 26.967 139.67 27.132 139.025 27.132ZM139.025 22.193C138.585 22.193 138.192 22.3287 137.848 22.6C137.51 22.864 137.316 23.2527 137.264 23.766H140.697C140.675 23.2747 140.506 22.8897 140.191 22.611C139.875 22.3323 139.487 22.193 139.025 22.193ZM144.192 27L142.124 21.544H143.092L144.731 26.109L146.381 21.544H147.327L145.259 27H144.192ZM150.529 27.132C150.009 27.132 149.547 27.0147 149.143 26.78C148.74 26.538 148.421 26.2043 148.186 25.779C147.959 25.3537 147.845 24.8513 147.845 24.272C147.845 23.7 147.959 23.2013 148.186 22.776C148.414 22.3433 148.729 22.0097 149.132 21.775C149.543 21.533 150.016 21.412 150.551 21.412C151.079 21.412 151.534 21.533 151.915 21.775C152.304 22.0097 152.601 22.3213 152.806 22.71C153.012 23.0987 153.114 23.5167 153.114 23.964C153.114 24.0447 153.111 24.1253 153.103 24.206C153.103 24.2867 153.103 24.3783 153.103 24.481H148.758C148.78 24.899 148.876 25.2473 149.044 25.526C149.22 25.7973 149.437 26.0027 149.693 26.142C149.957 26.2813 150.236 26.351 150.529 26.351C150.911 26.351 151.23 26.263 151.486 26.087C151.743 25.911 151.93 25.6727 152.047 25.372H152.96C152.814 25.878 152.531 26.2997 152.113 26.637C151.703 26.967 151.175 27.132 150.529 27.132ZM150.529 22.193C150.089 22.193 149.697 22.3287 149.352 22.6C149.015 22.864 148.821 23.2527 148.769 23.766H152.201C152.179 23.2747 152.011 22.8897 151.695 22.611C151.38 22.3323 150.991 22.193 150.529 22.193ZM154.339 27V21.544H155.175L155.23 22.523C155.406 22.1783 155.659 21.907 155.989 21.709C156.319 21.511 156.693 21.412 157.111 21.412C157.756 21.412 158.27 21.61 158.651 22.006C159.04 22.3947 159.234 22.996 159.234 23.81V27H158.31V23.909C158.31 22.7723 157.841 22.204 156.902 22.204C156.433 22.204 156.04 22.3763 155.725 22.721C155.417 23.0583 155.263 23.5423 155.263 24.173V27H154.339ZM162.79 27C162.291 27 161.899 26.879 161.613 26.637C161.327 26.395 161.184 25.9587 161.184 25.328V22.325H160.238V21.544H161.184L161.305 20.235H162.108V21.544H163.714V22.325H162.108V25.328C162.108 25.6727 162.178 25.9073 162.317 26.032C162.456 26.1493 162.702 26.208 163.054 26.208H163.626V27H162.79ZM166.978 27.132C166.325 27.132 165.783 26.967 165.35 26.637C164.917 26.307 164.664 25.8597 164.591 25.295H165.537C165.596 25.581 165.746 25.8303 165.988 26.043C166.237 26.2483 166.571 26.351 166.989 26.351C167.378 26.351 167.664 26.2703 167.847 26.109C168.03 25.9403 168.122 25.7423 168.122 25.515C168.122 25.185 168.001 24.965 167.759 24.855C167.524 24.745 167.191 24.646 166.758 24.558C166.465 24.4993 166.171 24.415 165.878 24.305C165.585 24.195 165.339 24.041 165.141 23.843C164.943 23.6377 164.844 23.37 164.844 23.04C164.844 22.5633 165.02 22.1747 165.372 21.874C165.731 21.566 166.215 21.412 166.824 21.412C167.403 21.412 167.876 21.5587 168.243 21.852C168.617 22.138 168.833 22.5487 168.892 23.084H167.979C167.942 22.8053 167.821 22.589 167.616 22.435C167.418 22.2737 167.15 22.193 166.813 22.193C166.483 22.193 166.226 22.2627 166.043 22.402C165.867 22.5413 165.779 22.7247 165.779 22.952C165.779 23.172 165.893 23.3443 166.12 23.469C166.355 23.5937 166.67 23.7 167.066 23.788C167.403 23.8613 167.722 23.953 168.023 24.063C168.331 24.1657 168.58 24.3233 168.771 24.536C168.969 24.7413 169.068 25.042 169.068 25.438C169.075 25.9293 168.888 26.3363 168.507 26.659C168.133 26.9743 167.623 27.132 166.978 27.132ZM35.245 41.132C34.7317 41.132 34.2697 41.0147 33.859 40.78C33.4483 40.5453 33.122 40.2153 32.88 39.79C32.6453 39.3573 32.528 38.8513 32.528 38.272C32.528 37.6927 32.649 37.1903 32.891 36.765C33.133 36.3323 33.4593 35.9987 33.87 35.764C34.288 35.5293 34.7537 35.412 35.267 35.412C35.7803 35.412 36.2423 35.5293 36.653 35.764C37.0637 35.9987 37.3863 36.3323 37.621 36.765C37.863 37.1903 37.984 37.6927 37.984 38.272C37.984 38.8513 37.863 39.3573 37.621 39.79C37.379 40.2153 37.049 40.5453 36.631 40.78C36.2203 41.0147 35.7583 41.132 35.245 41.132ZM35.245 40.34C35.5603 40.34 35.8537 40.263 36.125 40.109C36.3963 39.955 36.6163 39.724 36.785 39.416C36.9537 39.108 37.038 38.7267 37.038 38.272C37.038 37.8173 36.9537 37.436 36.785 37.128C36.6237 36.82 36.4073 36.589 36.136 36.435C35.8647 36.281 35.575 36.204 35.267 36.204C34.9517 36.204 34.6583 36.281 34.387 36.435C34.1157 36.589 33.8957 36.82 33.727 37.128C33.5583 37.436 33.474 37.8173 33.474 38.272C33.474 38.7267 33.5583 39.108 33.727 39.416C33.8957 39.724 34.112 39.955 34.376 40.109C34.6473 40.263 34.937 40.34 35.245 40.34ZM41.7768 41.132C41.2561 41.132 40.7868 41.0147 40.3688 40.78C39.9581 40.538 39.6318 40.2043 39.3898 39.779C39.1551 39.3463 39.0378 38.844 39.0378 38.272C39.0378 37.7 39.1551 37.2013 39.3898 36.776C39.6318 36.3433 39.9581 36.0097 40.3688 35.775C40.7868 35.533 41.2561 35.412 41.7768 35.412C42.4221 35.412 42.9648 35.5807 43.4048 35.918C43.8521 36.2553 44.1344 36.7063 44.2518 37.271H43.3058C43.2324 36.9337 43.0528 36.6733 42.7668 36.49C42.4808 36.2993 42.1471 36.204 41.7658 36.204C41.4578 36.204 41.1681 36.281 40.8968 36.435C40.6254 36.589 40.4054 36.82 40.2368 37.128C40.0681 37.436 39.9838 37.8173 39.9838 38.272C39.9838 38.7267 40.0681 39.108 40.2368 39.416C40.4054 39.724 40.6254 39.9587 40.8968 40.12C41.1681 40.274 41.4578 40.351 41.7658 40.351C42.1471 40.351 42.4808 40.2593 42.7668 40.076C43.0528 39.8853 43.2324 39.6177 43.3058 39.273H44.2518C44.1418 39.823 43.8631 40.2703 43.4158 40.615C42.9684 40.9597 42.4221 41.132 41.7768 41.132ZM48.0502 41.132C47.5295 41.132 47.0602 41.0147 46.6422 40.78C46.2315 40.538 45.9052 40.2043 45.6632 39.779C45.4285 39.3463 45.3112 38.844 45.3112 38.272C45.3112 37.7 45.4285 37.2013 45.6632 36.776C45.9052 36.3433 46.2315 36.0097 46.6422 35.775C47.0602 35.533 47.5295 35.412 48.0502 35.412C48.6955 35.412 49.2382 35.5807 49.6782 35.918C50.1255 36.2553 50.4079 36.7063 50.5252 37.271H49.5792C49.5059 36.9337 49.3262 36.6733 49.0402 36.49C48.7542 36.2993 48.4205 36.204 48.0392 36.204C47.7312 36.204 47.4415 36.281 47.1702 36.435C46.8989 36.589 46.6789 36.82 46.5102 37.128C46.3415 37.436 46.2572 37.8173 46.2572 38.272C46.2572 38.7267 46.3415 39.108 46.5102 39.416C46.6789 39.724 46.8989 39.9587 47.1702 40.12C47.4415 40.274 47.7312 40.351 48.0392 40.351C48.4205 40.351 48.7542 40.2593 49.0402 40.076C49.3262 39.8853 49.5059 39.6177 49.5792 39.273H50.5252C50.4152 39.823 50.1365 40.2703 49.6892 40.615C49.2419 40.9597 48.6955 41.132 48.0502 41.132ZM53.8066 41.132C53.1613 41.132 52.648 40.9377 52.2666 40.549C51.8853 40.153 51.6946 39.548 51.6946 38.734V35.544H52.6186V38.635C52.6186 39.7717 53.0843 40.34 54.0156 40.34C54.4923 40.34 54.8846 40.1713 55.1926 39.834C55.508 39.4893 55.6656 39.0017 55.6656 38.371V35.544H56.5896V41H55.7536L55.6876 40.021C55.519 40.3657 55.266 40.637 54.9286 40.835C54.5986 41.033 54.2246 41.132 53.8066 41.132ZM58.1106 41V35.544H58.9466L59.0236 36.589C59.1922 36.2297 59.4489 35.9437 59.7936 35.731C60.1382 35.5183 60.5636 35.412 61.0696 35.412V36.38H60.8166C60.4939 36.38 60.1969 36.4387 59.9256 36.556C59.6542 36.666 59.4379 36.8567 59.2766 37.128C59.1152 37.3993 59.0346 37.7733 59.0346 38.25V41H58.1106ZM61.0259 42.309L61.6639 39.878H62.6209L61.6639 42.309H61.0259ZM68.4441 41.132C67.9895 41.132 67.6118 41.055 67.3111 40.901C67.0105 40.747 66.7868 40.5417 66.6401 40.285C66.4935 40.0283 66.4201 39.7497 66.4201 39.449C66.4201 38.8917 66.6328 38.4627 67.0581 38.162C67.4835 37.8613 68.0628 37.711 68.7961 37.711H70.2701V37.645C70.2701 37.1683 70.1455 36.809 69.8961 36.567C69.6468 36.3177 69.3131 36.193 68.8951 36.193C68.5358 36.193 68.2241 36.2847 67.9601 36.468C67.7035 36.644 67.5421 36.9043 67.4761 37.249H66.5301C66.5668 36.853 66.6988 36.5193 66.9261 36.248C67.1608 35.9767 67.4505 35.7713 67.7951 35.632C68.1398 35.4853 68.5065 35.412 68.8951 35.412C69.6578 35.412 70.2298 35.6173 70.6111 36.028C70.9998 36.4313 71.1941 36.9703 71.1941 37.645V41H70.3691L70.3141 40.021C70.1601 40.329 69.9328 40.593 69.6321 40.813C69.3388 41.0257 68.9428 41.132 68.4441 41.132ZM68.5871 40.351C68.9391 40.351 69.2398 40.2593 69.4891 40.076C69.7458 39.8927 69.9401 39.6543 70.0721 39.361C70.2041 39.0677 70.2701 38.7597 70.2701 38.437V38.426H68.8731C68.3305 38.426 67.9455 38.5213 67.7181 38.712C67.4981 38.8953 67.3881 39.1263 67.3881 39.405C67.3881 39.691 67.4908 39.922 67.6961 40.098C67.9088 40.2667 68.2058 40.351 68.5871 40.351ZM72.5803 41V35.544H73.4163L73.4713 36.523C73.6473 36.1783 73.9003 35.907 74.2303 35.709C74.5603 35.511 74.9343 35.412 75.3523 35.412C75.9976 35.412 76.511 35.61 76.8923 36.006C77.281 36.3947 77.4753 36.996 77.4753 37.81V41H76.5513V37.909C76.5513 36.7723 76.082 36.204 75.1433 36.204C74.674 36.204 74.2816 36.3763 73.9663 36.721C73.6583 37.0583 73.5043 37.5423 73.5043 38.173V41H72.5803ZM81.3502 41.132C80.8075 41.132 80.3309 41.0073 79.9202 40.758C79.5169 40.5087 79.2015 40.1677 78.9742 39.735C78.7542 39.3023 78.6442 38.811 78.6442 38.261C78.6442 37.711 78.7579 37.2233 78.9852 36.798C79.2125 36.3653 79.5279 36.028 79.9312 35.786C80.3345 35.5367 80.8112 35.412 81.3612 35.412C81.8085 35.412 82.2045 35.5037 82.5492 35.687C82.8939 35.8703 83.1615 36.127 83.3522 36.457V33.08H84.2762V41H83.4402L83.3522 40.098C83.1762 40.362 82.9232 40.6003 82.5932 40.813C82.2632 41.0257 81.8489 41.132 81.3502 41.132ZM81.4492 40.329C81.8159 40.329 82.1385 40.2447 82.4172 40.076C82.7032 39.9 82.9232 39.658 83.0772 39.35C83.2385 39.042 83.3192 38.6827 83.3192 38.272C83.3192 37.8613 83.2385 37.502 83.0772 37.194C82.9232 36.886 82.7032 36.6477 82.4172 36.479C82.1385 36.303 81.8159 36.215 81.4492 36.215C81.0899 36.215 80.7672 36.303 80.4812 36.479C80.2025 36.6477 79.9825 36.886 79.8212 37.194C79.6672 37.502 79.5902 37.8613 79.5902 38.272C79.5902 38.6827 79.6672 39.042 79.8212 39.35C79.9825 39.658 80.2025 39.9 80.4812 40.076C80.7672 40.2447 81.0899 40.329 81.4492 40.329ZM88.6936 43.42V35.544H89.5296L89.6176 36.446C89.7936 36.182 90.0429 35.9437 90.3656 35.731C90.6956 35.5183 91.1136 35.412 91.6196 35.412C92.1622 35.412 92.6352 35.5367 93.0386 35.786C93.4419 36.0353 93.7536 36.3763 93.9736 36.809C94.2009 37.2417 94.3146 37.733 94.3146 38.283C94.3146 38.833 94.2009 39.3243 93.9736 39.757C93.7536 40.1823 93.4382 40.5197 93.0276 40.769C92.6242 41.011 92.1512 41.132 91.6086 41.132C91.1612 41.132 90.7616 41.0403 90.4096 40.857C90.0649 40.6737 89.8009 40.417 89.6176 40.087V43.42H88.6936ZM91.5096 40.329C91.8762 40.329 92.1989 40.2447 92.4776 40.076C92.7562 39.9 92.9762 39.658 93.1376 39.35C93.2989 39.042 93.3796 38.6827 93.3796 38.272C93.3796 37.8613 93.2989 37.502 93.1376 37.194C92.9762 36.886 92.7562 36.6477 92.4776 36.479C92.1989 36.303 91.8762 36.215 91.5096 36.215C91.1429 36.215 90.8202 36.303 90.5416 36.479C90.2629 36.6477 90.0429 36.886 89.8816 37.194C89.7202 37.502 89.6396 37.8613 89.6396 38.272C89.6396 38.6827 89.7202 39.042 89.8816 39.35C90.0429 39.658 90.2629 39.9 90.5416 40.076C90.8202 40.2447 91.1429 40.329 91.5096 40.329ZM95.6008 41V33.08H96.5248V41H95.6008ZM99.8543 41.132C99.3996 41.132 99.0219 41.055 98.7213 40.901C98.4206 40.747 98.1969 40.5417 98.0503 40.285C97.9036 40.0283 97.8303 39.7497 97.8303 39.449C97.8303 38.8917 98.0429 38.4627 98.4683 38.162C98.8936 37.8613 99.4729 37.711 100.206 37.711H101.68V37.645C101.68 37.1683 101.556 36.809 101.306 36.567C101.057 36.3177 100.723 36.193 100.305 36.193C99.9459 36.193 99.6343 36.2847 99.3703 36.468C99.1136 36.644 98.9523 36.9043 98.8863 37.249H97.9403C97.9769 36.853 98.1089 36.5193 98.3363 36.248C98.5709 35.9767 98.8606 35.7713 99.2053 35.632C99.5499 35.4853 99.9166 35.412 100.305 35.412C101.068 35.412 101.64 35.6173 102.021 36.028C102.41 36.4313 102.604 36.9703 102.604 37.645V41H101.779L101.724 40.021C101.57 40.329 101.343 40.593 101.042 40.813C100.749 41.0257 100.353 41.132 99.8543 41.132ZM99.9973 40.351C100.349 40.351 100.65 40.2593 100.899 40.076C101.156 39.8927 101.35 39.6543 101.482 39.361C101.614 39.0677 101.68 38.7597 101.68 38.437V38.426H100.283C99.7406 38.426 99.3556 38.5213 99.1283 38.712C98.9083 38.8953 98.7983 39.1263 98.7983 39.405C98.7983 39.691 98.9009 39.922 99.1063 40.098C99.3189 40.2667 99.6159 40.351 99.9973 40.351ZM103.99 41V35.544H104.826L104.881 36.523C105.057 36.1783 105.31 35.907 105.64 35.709C105.97 35.511 106.344 35.412 106.762 35.412C107.408 35.412 107.921 35.61 108.302 36.006C108.691 36.3947 108.885 36.996 108.885 37.81V41H107.961V37.909C107.961 36.7723 107.492 36.204 106.553 36.204C106.084 36.204 105.692 36.3763 105.376 36.721C105.068 37.0583 104.914 37.5423 104.914 38.173V41H103.99ZM115.353 41C114.854 41 114.462 40.879 114.176 40.637C113.89 40.395 113.747 39.9587 113.747 39.328V36.325H112.8V35.544H113.747L113.868 34.235H114.671V35.544H116.277V36.325H114.671V39.328C114.671 39.6727 114.74 39.9073 114.88 40.032C115.019 40.1493 115.265 40.208 115.617 40.208H116.189V41H115.353ZM119.786 41.132C119.273 41.132 118.811 41.0147 118.4 40.78C117.989 40.5453 117.663 40.2153 117.421 39.79C117.186 39.3573 117.069 38.8513 117.069 38.272C117.069 37.6927 117.19 37.1903 117.432 36.765C117.674 36.3323 118 35.9987 118.411 35.764C118.829 35.5293 119.295 35.412 119.808 35.412C120.321 35.412 120.783 35.5293 121.194 35.764C121.605 35.9987 121.927 36.3323 122.162 36.765C122.404 37.1903 122.525 37.6927 122.525 38.272C122.525 38.8513 122.404 39.3573 122.162 39.79C121.92 40.2153 121.59 40.5453 121.172 40.78C120.761 41.0147 120.299 41.132 119.786 41.132ZM119.786 40.34C120.101 40.34 120.395 40.263 120.666 40.109C120.937 39.955 121.157 39.724 121.326 39.416C121.495 39.108 121.579 38.7267 121.579 38.272C121.579 37.8173 121.495 37.436 121.326 37.128C121.165 36.82 120.948 36.589 120.677 36.435C120.406 36.281 120.116 36.204 119.808 36.204C119.493 36.204 119.199 36.281 118.928 36.435C118.657 36.589 118.437 36.82 118.268 37.128C118.099 37.436 118.015 37.8173 118.015 38.272C118.015 38.7267 118.099 39.108 118.268 39.416C118.437 39.724 118.653 39.955 118.917 40.109C119.188 40.263 119.478 40.34 119.786 40.34ZM128.536 41.132C128.081 41.132 127.704 41.055 127.403 40.901C127.102 40.747 126.879 40.5417 126.732 40.285C126.585 40.0283 126.512 39.7497 126.512 39.449C126.512 38.8917 126.725 38.4627 127.15 38.162C127.575 37.8613 128.155 37.711 128.888 37.711H130.362V37.645C130.362 37.1683 130.237 36.809 129.988 36.567C129.739 36.3177 129.405 36.193 128.987 36.193C128.628 36.193 128.316 36.2847 128.052 36.468C127.795 36.644 127.634 36.9043 127.568 37.249H126.622C126.659 36.853 126.791 36.5193 127.018 36.248C127.253 35.9767 127.542 35.7713 127.887 35.632C128.232 35.4853 128.598 35.412 128.987 35.412C129.75 35.412 130.322 35.6173 130.703 36.028C131.092 36.4313 131.286 36.9703 131.286 37.645V41H130.461L130.406 40.021C130.252 40.329 130.025 40.593 129.724 40.813C129.431 41.0257 129.035 41.132 128.536 41.132ZM128.679 40.351C129.031 40.351 129.332 40.2593 129.581 40.076C129.838 39.8927 130.032 39.6543 130.164 39.361C130.296 39.0677 130.362 38.7597 130.362 38.437V38.426H128.965C128.422 38.426 128.037 38.5213 127.81 38.712C127.59 38.8953 127.48 39.1263 127.48 39.405C127.48 39.691 127.583 39.922 127.788 40.098C128.001 40.2667 128.298 40.351 128.679 40.351ZM134.678 41C134.179 41 133.787 40.879 133.501 40.637C133.215 40.395 133.072 39.9587 133.072 39.328V36.325H132.126V35.544H133.072L133.193 34.235H133.996V35.544H135.602V36.325H133.996V39.328C133.996 39.6727 134.065 39.9073 134.205 40.032C134.344 40.1493 134.59 40.208 134.942 40.208H135.514V41H134.678ZM138.932 41C138.433 41 138.041 40.879 137.755 40.637C137.469 40.395 137.326 39.9587 137.326 39.328V36.325H136.38V35.544H137.326L137.447 34.235H138.25V35.544H139.856V36.325H138.25V39.328C138.25 39.6727 138.319 39.9073 138.459 40.032C138.598 40.1493 138.844 40.208 139.196 40.208H139.768V41H138.932ZM143.332 41.132C142.811 41.132 142.349 41.0147 141.946 40.78C141.543 40.538 141.224 40.2043 140.989 39.779C140.762 39.3537 140.648 38.8513 140.648 38.272C140.648 37.7 140.762 37.2013 140.989 36.776C141.216 36.3433 141.532 36.0097 141.935 35.775C142.346 35.533 142.819 35.412 143.354 35.412C143.882 35.412 144.337 35.533 144.718 35.775C145.107 36.0097 145.404 36.3213 145.609 36.71C145.814 37.0987 145.917 37.5167 145.917 37.964C145.917 38.0447 145.913 38.1253 145.906 38.206C145.906 38.2867 145.906 38.3783 145.906 38.481H141.561C141.583 38.899 141.678 39.2473 141.847 39.526C142.023 39.7973 142.239 40.0027 142.496 40.142C142.76 40.2813 143.039 40.351 143.332 40.351C143.713 40.351 144.032 40.263 144.289 40.087C144.546 39.911 144.733 39.6727 144.85 39.372H145.763C145.616 39.878 145.334 40.2997 144.916 40.637C144.505 40.967 143.977 41.132 143.332 41.132ZM143.332 36.193C142.892 36.193 142.5 36.3287 142.155 36.6C141.818 36.864 141.623 37.2527 141.572 37.766H145.004C144.982 37.2747 144.813 36.8897 144.498 36.611C144.183 36.3323 143.794 36.193 143.332 36.193ZM147.142 41V35.544H147.978L148.033 36.523C148.209 36.1783 148.462 35.907 148.792 35.709C149.122 35.511 149.496 35.412 149.914 35.412C150.559 35.412 151.072 35.61 151.454 36.006C151.842 36.3947 152.037 36.996 152.037 37.81V41H151.113V37.909C151.113 36.7723 150.643 36.204 149.705 36.204C149.235 36.204 148.843 36.3763 148.528 36.721C148.22 37.0583 148.066 37.5423 148.066 38.173V41H147.142ZM155.912 41.132C155.369 41.132 154.892 41.0073 154.482 40.758C154.078 40.5087 153.763 40.1677 153.536 39.735C153.316 39.3023 153.206 38.811 153.206 38.261C153.206 37.711 153.319 37.2233 153.547 36.798C153.774 36.3653 154.089 36.028 154.493 35.786C154.896 35.5367 155.373 35.412 155.923 35.412C156.37 35.412 156.766 35.5037 157.111 35.687C157.455 35.8703 157.723 36.127 157.914 36.457V33.08H158.838V41H158.002L157.914 40.098C157.738 40.362 157.485 40.6003 157.155 40.813C156.825 41.0257 156.41 41.132 155.912 41.132ZM156.011 40.329C156.377 40.329 156.7 40.2447 156.979 40.076C157.265 39.9 157.485 39.658 157.639 39.35C157.8 39.042 157.881 38.6827 157.881 38.272C157.881 37.8613 157.8 37.502 157.639 37.194C157.485 36.886 157.265 36.6477 156.979 36.479C156.7 36.303 156.377 36.215 156.011 36.215C155.651 36.215 155.329 36.303 155.043 36.479C154.764 36.6477 154.544 36.886 154.383 37.194C154.229 37.502 154.152 37.8613 154.152 38.272C154.152 38.6827 154.229 39.042 154.383 39.35C154.544 39.658 154.764 39.9 155.043 40.076C155.329 40.2447 155.651 40.329 156.011 40.329ZM34.849 55.132C34.1963 55.132 33.6537 54.967 33.221 54.637C32.7883 54.307 32.5353 53.8597 32.462 53.295H33.408C33.4667 53.581 33.617 53.8303 33.859 54.043C34.1083 54.2483 34.442 54.351 34.86 54.351C35.2487 54.351 35.5347 54.2703 35.718 54.109C35.9013 53.9403 35.993 53.7423 35.993 53.515C35.993 53.185 35.872 52.965 35.63 52.855C35.3953 52.745 35.0617 52.646 34.629 52.558C34.3357 52.4993 34.0423 52.415 33.749 52.305C33.4557 52.195 33.21 52.041 33.012 51.843C32.814 51.6377 32.715 51.37 32.715 51.04C32.715 50.5633 32.891 50.1747 33.243 49.874C33.6023 49.566 34.0863 49.412 34.695 49.412C35.2743 49.412 35.7473 49.5587 36.114 49.852C36.488 50.138 36.7043 50.5487 36.763 51.084H35.85C35.8133 50.8053 35.6923 50.589 35.487 50.435C35.289 50.2737 35.0213 50.193 34.684 50.193C34.354 50.193 34.0973 50.2627 33.914 50.402C33.738 50.5413 33.65 50.7247 33.65 50.952C33.65 51.172 33.7637 51.3443 33.991 51.469C34.2257 51.5937 34.541 51.7 34.937 51.788C35.2743 51.8613 35.5933 51.953 35.894 52.063C36.202 52.1657 36.4513 52.3233 36.642 52.536C36.84 52.7413 36.939 53.042 36.939 53.438C36.9463 53.9293 36.7593 54.3363 36.378 54.659C36.004 54.9743 35.4943 55.132 34.849 55.132ZM38.259 57.42V49.544H39.095L39.183 50.446C39.359 50.182 39.6083 49.9437 39.931 49.731C40.261 49.5183 40.679 49.412 41.185 49.412C41.7277 49.412 42.2007 49.5367 42.604 49.786C43.0073 50.0353 43.319 50.3763 43.539 50.809C43.7663 51.2417 43.88 51.733 43.88 52.283C43.88 52.833 43.7663 53.3243 43.539 53.757C43.319 54.1823 43.0037 54.5197 42.593 54.769C42.1897 55.011 41.7167 55.132 41.174 55.132C40.7267 55.132 40.327 55.0403 39.975 54.857C39.6303 54.6737 39.3663 54.417 39.183 54.087V57.42H38.259ZM41.075 54.329C41.4417 54.329 41.7643 54.2447 42.043 54.076C42.3217 53.9 42.5417 53.658 42.703 53.35C42.8643 53.042 42.945 52.6827 42.945 52.272C42.945 51.8613 42.8643 51.502 42.703 51.194C42.5417 50.886 42.3217 50.6477 42.043 50.479C41.7643 50.303 41.4417 50.215 41.075 50.215C40.7083 50.215 40.3857 50.303 40.107 50.479C39.8283 50.6477 39.6083 50.886 39.447 51.194C39.2857 51.502 39.205 51.8613 39.205 52.272C39.205 52.6827 39.2857 53.042 39.447 53.35C39.6083 53.658 39.8283 53.9 40.107 54.076C40.3857 54.2447 40.7083 54.329 41.075 54.329ZM47.6192 55.132C47.0986 55.132 46.6366 55.0147 46.2332 54.78C45.8299 54.538 45.5109 54.2043 45.2762 53.779C45.0489 53.3537 44.9352 52.8513 44.9352 52.272C44.9352 51.7 45.0489 51.2013 45.2762 50.776C45.5036 50.3433 45.8189 50.0097 46.2222 49.775C46.6329 49.533 47.1059 49.412 47.6412 49.412C48.1692 49.412 48.6239 49.533 49.0052 49.775C49.3939 50.0097 49.6909 50.3213 49.8962 50.71C50.1016 51.0987 50.2042 51.5167 50.2042 51.964C50.2042 52.0447 50.2006 52.1253 50.1932 52.206C50.1932 52.2867 50.1932 52.3783 50.1932 52.481H45.8482C45.8702 52.899 45.9656 53.2473 46.1342 53.526C46.3102 53.7973 46.5266 54.0027 46.7832 54.142C47.0472 54.2813 47.3259 54.351 47.6192 54.351C48.0006 54.351 48.3196 54.263 48.5762 54.087C48.8329 53.911 49.0199 53.6727 49.1372 53.372H50.0502C49.9036 53.878 49.6212 54.2997 49.2032 54.637C48.7926 54.967 48.2646 55.132 47.6192 55.132ZM47.6192 50.193C47.1792 50.193 46.7869 50.3287 46.4422 50.6C46.1049 50.864 45.9106 51.2527 45.8592 51.766H49.2912C49.2692 51.2747 49.1006 50.8897 48.7852 50.611C48.4699 50.3323 48.0812 50.193 47.6192 50.193ZM53.9369 55.132C53.4163 55.132 52.9469 55.0147 52.5289 54.78C52.1183 54.538 51.7919 54.2043 51.5499 53.779C51.3153 53.3463 51.1979 52.844 51.1979 52.272C51.1979 51.7 51.3153 51.2013 51.5499 50.776C51.7919 50.3433 52.1183 50.0097 52.5289 49.775C52.9469 49.533 53.4163 49.412 53.9369 49.412C54.5823 49.412 55.1249 49.5807 55.5649 49.918C56.0123 50.2553 56.2946 50.7063 56.4119 51.271H55.4659C55.3926 50.9337 55.2129 50.6733 54.9269 50.49C54.6409 50.2993 54.3073 50.204 53.9259 50.204C53.6179 50.204 53.3283 50.281 53.0569 50.435C52.7856 50.589 52.5656 50.82 52.3969 51.128C52.2283 51.436 52.1439 51.8173 52.1439 52.272C52.1439 52.7267 52.2283 53.108 52.3969 53.416C52.5656 53.724 52.7856 53.9587 53.0569 54.12C53.3283 54.274 53.6179 54.351 53.9259 54.351C54.3073 54.351 54.6409 54.2593 54.9269 54.076C55.2129 53.8853 55.3926 53.6177 55.4659 53.273H56.4119C56.3019 53.823 56.0233 54.2703 55.5759 54.615C55.1286 54.9597 54.5823 55.132 53.9369 55.132ZM58.2634 48.334C58.08 48.334 57.926 48.2753 57.8014 48.158C57.684 48.0333 57.6254 47.8793 57.6254 47.696C57.6254 47.52 57.684 47.3733 57.8014 47.256C57.926 47.1387 58.08 47.08 58.2634 47.08C58.4394 47.08 58.5897 47.1387 58.7144 47.256C58.839 47.3733 58.9014 47.52 58.9014 47.696C58.9014 47.8793 58.839 48.0333 58.7144 48.158C58.5897 48.2753 58.4394 48.334 58.2634 48.334ZM57.8014 55V49.544H58.7254V55H57.8014ZM60.6312 55V50.325H59.8062V49.544H60.6312V48.598C60.6312 48.07 60.7632 47.685 61.0272 47.443C61.2912 47.201 61.6762 47.08 62.1822 47.08H62.7322V47.872H62.3252C62.0465 47.872 61.8485 47.9307 61.7312 48.048C61.6139 48.158 61.5552 48.3487 61.5552 48.62V49.544H64.9432V55H64.0192V50.325H61.5552V55H60.6312ZM64.4922 48.499C64.3162 48.499 64.1659 48.4403 64.0412 48.323C63.9165 48.1983 63.8542 48.0443 63.8542 47.861C63.8542 47.685 63.9165 47.5383 64.0412 47.421C64.1659 47.3037 64.3162 47.245 64.4922 47.245C64.6755 47.245 64.8259 47.3037 64.9432 47.421C65.0679 47.5383 65.1302 47.685 65.1302 47.861C65.1302 48.0443 65.0679 48.1983 64.9432 48.323C64.8259 48.4403 64.6755 48.499 64.4922 48.499ZM69.0834 55.132C68.5627 55.132 68.0934 55.0147 67.6754 54.78C67.2647 54.538 66.9384 54.2043 66.6964 53.779C66.4617 53.3463 66.3444 52.844 66.3444 52.272C66.3444 51.7 66.4617 51.2013 66.6964 50.776C66.9384 50.3433 67.2647 50.0097 67.6754 49.775C68.0934 49.533 68.5627 49.412 69.0834 49.412C69.7287 49.412 70.2714 49.5807 70.7114 49.918C71.1587 50.2553 71.4411 50.7063 71.5584 51.271H70.6124C70.5391 50.9337 70.3594 50.6733 70.0734 50.49C69.7874 50.2993 69.4537 50.204 69.0724 50.204C68.7644 50.204 68.4747 50.281 68.2034 50.435C67.9321 50.589 67.7121 50.82 67.5434 51.128C67.3747 51.436 67.2904 51.8173 67.2904 52.272C67.2904 52.7267 67.3747 53.108 67.5434 53.416C67.7121 53.724 67.9321 53.9587 68.2034 54.12C68.4747 54.274 68.7644 54.351 69.0724 54.351C69.4537 54.351 69.7874 54.2593 70.0734 54.076C70.3594 53.8853 70.5391 53.6177 70.6124 53.273H71.5584C71.4484 53.823 71.1697 54.2703 70.7224 54.615C70.2751 54.9597 69.7287 55.132 69.0834 55.132ZM76.86 55L75.265 49.544H76.189L77.344 53.823L78.62 49.544H79.665L80.952 53.823L82.096 49.544H83.031L81.436 55H80.49L79.148 50.501L77.806 55H76.86ZM86.3348 55.132C85.8215 55.132 85.3595 55.0147 84.9488 54.78C84.5382 54.5453 84.2118 54.2153 83.9698 53.79C83.7352 53.3573 83.6178 52.8513 83.6178 52.272C83.6178 51.6927 83.7388 51.1903 83.9808 50.765C84.2228 50.3323 84.5492 49.9987 84.9598 49.764C85.3778 49.5293 85.8435 49.412 86.3568 49.412C86.8702 49.412 87.3322 49.5293 87.7428 49.764C88.1535 49.9987 88.4762 50.3323 88.7108 50.765C88.9528 51.1903 89.0738 51.6927 89.0738 52.272C89.0738 52.8513 88.9528 53.3573 88.7108 53.79C88.4688 54.2153 88.1388 54.5453 87.7208 54.78C87.3102 55.0147 86.8482 55.132 86.3348 55.132ZM86.3348 54.34C86.6502 54.34 86.9435 54.263 87.2148 54.109C87.4862 53.955 87.7062 53.724 87.8748 53.416C88.0435 53.108 88.1278 52.7267 88.1278 52.272C88.1278 51.8173 88.0435 51.436 87.8748 51.128C87.7135 50.82 87.4972 50.589 87.2258 50.435C86.9545 50.281 86.6648 50.204 86.3568 50.204C86.0415 50.204 85.7482 50.281 85.4768 50.435C85.2055 50.589 84.9855 50.82 84.8168 51.128C84.6482 51.436 84.5638 51.8173 84.5638 52.272C84.5638 52.7267 84.6482 53.108 84.8168 53.416C84.9855 53.724 85.2018 53.955 85.4658 54.109C85.7372 54.263 86.0268 54.34 86.3348 54.34ZM90.3586 55V49.544H91.1946L91.2716 50.589C91.4403 50.2297 91.6969 49.9437 92.0416 49.731C92.3863 49.5183 92.8116 49.412 93.3176 49.412V50.38H93.0646C92.7419 50.38 92.4449 50.4387 92.1736 50.556C91.9023 50.666 91.6859 50.8567 91.5246 51.128C91.3633 51.3993 91.2826 51.7733 91.2826 52.25V55H90.3586ZM94.3547 55V47.08H95.2787V51.843L97.5117 49.544H98.6447L96.2247 52.008L98.9527 55H97.7757L95.2787 52.173V55H94.3547ZM101.665 55.132C101.013 55.132 100.47 54.967 100.037 54.637C99.6047 54.307 99.3517 53.8597 99.2784 53.295H100.224C100.283 53.581 100.433 53.8303 100.675 54.043C100.925 54.2483 101.258 54.351 101.676 54.351C102.065 54.351 102.351 54.2703 102.534 54.109C102.718 53.9403 102.809 53.7423 102.809 53.515C102.809 53.185 102.688 52.965 102.446 52.855C102.212 52.745 101.878 52.646 101.445 52.558C101.152 52.4993 100.859 52.415 100.565 52.305C100.272 52.195 100.026 52.041 99.8284 51.843C99.6304 51.6377 99.5314 51.37 99.5314 51.04C99.5314 50.5633 99.7074 50.1747 100.059 49.874C100.419 49.566 100.903 49.412 101.511 49.412C102.091 49.412 102.564 49.5587 102.93 49.852C103.304 50.138 103.521 50.5487 103.579 51.084H102.666C102.63 50.8053 102.509 50.589 102.303 50.435C102.105 50.2737 101.838 50.193 101.5 50.193C101.17 50.193 100.914 50.2627 100.73 50.402C100.554 50.5413 100.466 50.7247 100.466 50.952C100.466 51.172 100.58 51.3443 100.807 51.469C101.042 51.5937 101.357 51.7 101.753 51.788C102.091 51.8613 102.41 51.953 102.71 52.063C103.018 52.1657 103.268 52.3233 103.458 52.536C103.656 52.7413 103.755 53.042 103.755 53.438C103.763 53.9293 103.576 54.3363 103.194 54.659C102.82 54.9743 102.311 55.132 101.665 55.132ZM105.075 55V47.08H105.999V50.479C106.183 50.1417 106.443 49.8813 106.78 49.698C107.118 49.5073 107.484 49.412 107.88 49.412C108.511 49.412 109.017 49.61 109.398 50.006C109.78 50.3947 109.97 50.996 109.97 51.81V55H109.057V51.909C109.057 50.7723 108.599 50.204 107.682 50.204C107.206 50.204 106.806 50.3763 106.483 50.721C106.161 51.0583 105.999 51.5423 105.999 52.173V55H105.075ZM113.856 55.132C113.343 55.132 112.881 55.0147 112.47 54.78C112.06 54.5453 111.733 54.2153 111.491 53.79C111.257 53.3573 111.139 52.8513 111.139 52.272C111.139 51.6927 111.26 51.1903 111.502 50.765C111.744 50.3323 112.071 49.9987 112.481 49.764C112.899 49.5293 113.365 49.412 113.878 49.412C114.392 49.412 114.854 49.5293 115.264 49.764C115.675 49.9987 115.998 50.3323 116.232 50.765C116.474 51.1903 116.595 51.6927 116.595 52.272C116.595 52.8513 116.474 53.3573 116.232 53.79C115.99 54.2153 115.66 54.5453 115.242 54.78C114.832 55.0147 114.37 55.132 113.856 55.132ZM113.856 54.34C114.172 54.34 114.465 54.263 114.736 54.109C115.008 53.955 115.228 53.724 115.396 53.416C115.565 53.108 115.649 52.7267 115.649 52.272C115.649 51.8173 115.565 51.436 115.396 51.128C115.235 50.82 115.019 50.589 114.747 50.435C114.476 50.281 114.186 50.204 113.878 50.204C113.563 50.204 113.27 50.281 112.998 50.435C112.727 50.589 112.507 50.82 112.338 51.128C112.17 51.436 112.085 51.8173 112.085 52.272C112.085 52.7267 112.17 53.108 112.338 53.416C112.507 53.724 112.723 53.955 112.987 54.109C113.259 54.263 113.548 54.34 113.856 54.34ZM117.88 57.42V49.544H118.716L118.804 50.446C118.98 50.182 119.229 49.9437 119.552 49.731C119.882 49.5183 120.3 49.412 120.806 49.412C121.349 49.412 121.822 49.5367 122.225 49.786C122.628 50.0353 122.94 50.3763 123.16 50.809C123.387 51.2417 123.501 51.733 123.501 52.283C123.501 52.833 123.387 53.3243 123.16 53.757C122.94 54.1823 122.625 54.5197 122.214 54.769C121.811 55.011 121.338 55.132 120.795 55.132C120.348 55.132 119.948 55.0403 119.596 54.857C119.251 54.6737 118.987 54.417 118.804 54.087V57.42H117.88ZM120.696 54.329C121.063 54.329 121.385 54.2447 121.664 54.076C121.943 53.9 122.163 53.658 122.324 53.35C122.485 53.042 122.566 52.6827 122.566 52.272C122.566 51.8613 122.485 51.502 122.324 51.194C122.163 50.886 121.943 50.6477 121.664 50.479C121.385 50.303 121.063 50.215 120.696 50.215C120.329 50.215 120.007 50.303 119.728 50.479C119.449 50.6477 119.229 50.886 119.068 51.194C118.907 51.502 118.826 51.8613 118.826 52.272C118.826 52.6827 118.907 53.042 119.068 53.35C119.229 53.658 119.449 53.9 119.728 54.076C120.007 54.2447 120.329 54.329 120.696 54.329ZM126.877 55.132C126.225 55.132 125.682 54.967 125.249 54.637C124.817 54.307 124.564 53.8597 124.49 53.295H125.436C125.495 53.581 125.645 53.8303 125.887 54.043C126.137 54.2483 126.47 54.351 126.888 54.351C127.277 54.351 127.563 54.2703 127.746 54.109C127.93 53.9403 128.021 53.7423 128.021 53.515C128.021 53.185 127.9 52.965 127.658 52.855C127.424 52.745 127.09 52.646 126.657 52.558C126.364 52.4993 126.071 52.415 125.777 52.305C125.484 52.195 125.238 52.041 125.04 51.843C124.842 51.6377 124.743 51.37 124.743 51.04C124.743 50.5633 124.919 50.1747 125.271 49.874C125.631 49.566 126.115 49.412 126.723 49.412C127.303 49.412 127.776 49.5587 128.142 49.852C128.516 50.138 128.733 50.5487 128.791 51.084H127.878C127.842 50.8053 127.721 50.589 127.515 50.435C127.317 50.2737 127.05 50.193 126.712 50.193C126.382 50.193 126.126 50.2627 125.942 50.402C125.766 50.5413 125.678 50.7247 125.678 50.952C125.678 51.172 125.792 51.3443 126.019 51.469C126.254 51.5937 126.569 51.7 126.965 51.788C127.303 51.8613 127.622 51.953 127.922 52.063C128.23 52.1657 128.48 52.3233 128.67 52.536C128.868 52.7413 128.967 53.042 128.967 53.438C128.975 53.9293 128.788 54.3363 128.406 54.659C128.032 54.9743 127.523 55.132 126.877 55.132Z" fill="black"/>
</g>
<defs>
<filter id="filter0_d_162_5944" x="16" y="0" width="192" height="74" filterUnits="userSpaceOnUse" color-interpolation-filters="sRGB">
<feFlood flood-opacity="0" result="BackgroundImageFix"/>
<feColorMatrix in="SourceAlpha" type="matrix" values="0 0 0 0 0 0 0 0 0 0 0 0 0 0 0 0 0 0 127 0" result="hardAlpha"/>
<feOffset/>
<feGaussianBlur stdDeviation="4"/>
<feComposite in2="hardAlpha" operator="out"/>
<feColorMatrix type="matrix" values="0 0 0 0 0 0 0 0 0 0 0 0 0 0 0 0 0 0 0.15 0"/>
<feBlend mode="normal" in2="BackgroundImageFix" result="effect1_dropShadow_162_5944"/>
<feBlend mode="normal" in="SourceGraphic" in2="effect1_dropShadow_162_5944" result="shape"/>
</filter>
</defs>
</svg>
