<svg width="40" height="40" viewBox="0 0 40 40" fill="none" xmlns="http://www.w3.org/2000/svg">
<path d="M12.0657 20.2407L12.0657 14.5025L0.0493162 26.5393L2.88824 29.442L12.0657 20.2407ZM39.447 16.6543C38.5567 12.1489 35.1914 8.78666 34.8051 8.41121L26.5459 -1.27266e-07L21.8255 4.72955L21.4896 5.06578L21.4896 10.804L26.5235 5.76624L31.2214 10.5462L31.9381 11.2747L31.9885 11.3251C31.9997 11.3364 32.3021 11.6334 32.7333 12.1489C33.618 13.208 35.0234 15.1805 35.4714 17.4444C36.1433 20.8291 36.4793 24.7685 32.7333 29.5765L32.7333 35.5053C33.086 35.1971 33.31 34.9785 33.3884 34.9001C36.7369 31.6051 38.7583 28.2764 39.559 24.7181C40.2589 21.6304 39.8949 18.907 39.447 16.6543ZM14.4343 34.3621L14.3055 34.3005L14.2439 34.2836C14.1543 34.2388 13.8183 34.0651 13.2024 33.6168C12.8944 33.3927 12.5193 33.1069 12.0713 32.7314C11.3882 32.1654 10.5371 31.4033 9.50118 30.3947L7.17739 28.0187L4.31048 30.8878L6.61745 33.247L6.65106 33.2806C10.2235 36.7773 12.0657 37.7748 12.7377 38.055C15.1902 39.2318 17.4916 39.7921 19.5914 39.949C20.756 40.0387 21.8535 40.0051 22.8838 39.8874C22.9734 39.8762 23.0574 39.865 23.147 39.8538L23.147 35.7406C20.6889 36.1609 17.7324 35.9648 14.4343 34.3621Z" fill="white"/>
<path d="M19.4587 7.09326L19.4587 31.5872L14.0889 31.5872L14.0889 12.4728L14.632 11.9293L14.9176 11.6435L16.5414 10.0184L17.6389 8.91448L17.9973 8.55584L19.1004 7.45751L19.4587 7.09326Z" fill="white"/>
<path d="M30.7087 12.5747L30.7087 37.0182C30.6863 37.035 30.664 37.0519 30.636 37.0631C30.3896 37.22 30.1264 37.3825 29.852 37.545C29.7624 37.5954 29.6672 37.6514 29.5721 37.7019C29.3201 37.842 29.0625 37.9765 28.7937 38.111C28.5418 38.2342 28.2842 38.3575 28.0154 38.4752C27.8698 38.5368 27.7243 38.6041 27.5731 38.6657C27.3771 38.7442 27.1755 38.8226 26.9683 38.9011C26.8059 38.9627 26.6435 39.0188 26.4756 39.0748C26.1452 39.1869 25.798 39.2933 25.4341 39.3886C25.3501 39.411 25.2605 39.4334 25.1709 39.4559L25.1709 12.5747L30.7087 12.5747Z" fill="white"/>
<path d="M25.1658 19.025L19.46 19.025L19.46 24.5727L25.1658 24.5727L25.1658 19.025Z" fill="white"/>
</svg>
