<svg width="100" height="98" viewBox="0 0 100 98" fill="none" xmlns="http://www.w3.org/2000/svg">
<path fill-rule="evenodd" clip-rule="evenodd" d="M49.3506 0C61.0623 0 70.7624 8.61255 72.4629 19.8496C73.8131 19.6071 75.2034 19.4805 76.6234 19.4805C89.5339 19.4805 100 29.9466 100 42.8571C100 51.5428 95.263 59.1221 88.2316 63.1525C89.9414 66.4006 90.9091 70.1003 90.9091 74.026C90.9091 86.9365 80.443 97.4026 67.5325 97.4026C60.5505 97.4026 54.2834 94.3417 50 89.4886C45.7166 94.3417 39.4495 97.4026 32.4675 97.4026C19.557 97.4026 9.09091 86.9365 9.09091 74.026C9.09091 70.1003 10.0586 66.4006 11.7684 63.1525C4.73696 59.1221 0 51.5428 0 42.8571C0 29.9466 10.4661 19.4805 23.3766 19.4805C24.3557 19.4805 25.3208 19.5407 26.2682 19.6576C28.0496 8.51457 37.7058 0 49.3506 0Z" fill="#E72D2D"/>
</svg>
