<svg width="93" height="135" viewBox="0 0 93 135" fill="none" xmlns="http://www.w3.org/2000/svg">
<ellipse cx="33.125" cy="72.7844" rx="33.125" ry="11.25" fill="#E5E5E5"/>
<path d="M5.23895 69.0937H18.4502H24.6003H64.7817L66.25 71.5344L66.2841 90.2896V102.015C79.2221 102.015 82.001 94.1981 81.7732 90.2896C81.2265 80.9093 71.2194 78.8056 66.2841 79.1814L66.25 70.9094C87.9347 69.8271 92.7826 82.0217 92.4789 89.1622C93.2078 110.088 75.5472 113.686 66.2841 112.784C67.013 129.561 56.1859 133.884 51.0228 134.034H16.4002C4.19116 134.034 0.379634 123.512 0 118.25V73.378C1.09335 69.7702 3.9482 69.0185 5.23895 69.0937Z" fill="#E5E5E5"/>
<ellipse cx="33.125" cy="73.4094" rx="30.625" ry="8.125" fill="#8CBA69"/>
<path d="M26.6273 61.592C26.3722 62.0686 26.2502 62.4646 26.2502 62.7846C26.0517 62.5861 26.0423 62.1795 26.6273 61.592C27.369 60.207 29.2354 58.1415 32.5002 55.2846C37.5 50.9094 35.0002 47.7846 32.5002 46.5346C30.0002 45.2846 10.6252 47.7846 7.50017 42.7846C4.37517 37.7846 11.2502 30.9096 25.0002 30.2846C38.7502 29.6596 55.625 24.6596 53.75 15.9096C52.9167 14.2429 49.5 10.1596 42.5 7.15958C33.75 3.40958 32.5002 1.53458 32.5002 0.284581C32.5002 -0.965419 31.875 2.15958 40.625 4.65958C49.375 7.15958 55 10.9094 55.625 12.7844C56.25 14.6594 62.5 26.5344 41.25 32.1594C33.9583 33.2011 18.5 35.6594 15 37.1594C10.625 39.0344 7.49983 40.2843 20 41.5344C32.5002 42.7846 37.5 44.0344 38.125 47.7844C38.75 51.5344 37.4998 56.5344 31.25 59.0344C28.6319 60.0817 27.2705 60.9462 26.6273 61.592Z" fill="#DADADA"/>
</svg>
