<svg width="141" height="180" viewBox="0 0 141 180" fill="none" xmlns="http://www.w3.org/2000/svg">
<g filter="url(#filter0_d_696_1111)">
<path d="M26.0302 86.0982C26.0431 85.9196 26.0671 85.7423 26.1024 85.5663C27.4315 78.9449 44.3139 76.7497 63.8102 80.6631C79.25 83.7623 91.6989 89.7632 95.5509 95.4148L95.9297 95.4909L96.9724 98.4061L92.9967 118.401L90.4885 130.897C104.276 133.664 108.91 125.928 109.503 121.714C110.927 111.601 100.713 107.218 95.3729 106.563L97.1061 97.74C120.447 101.225 123.005 115.258 121.154 122.803C117.454 145.259 97.8634 145.316 88.1847 142.373C85.3728 160.408 72.9094 162.699 67.3751 161.755L30.4777 154.349C17.4666 151.737 15.6556 139.707 16.3765 134.019L25.9754 86.1988C25.9936 86.165 26.0119 86.1314 26.0302 86.0982Z" fill="#DADADA"/>
<path d="M56.8733 79.3346C56.4995 79.7879 56.2847 80.1838 56.2163 80.5248C56.0472 80.2708 56.1242 79.8355 56.8733 79.3346C57.96 78.0172 60.3908 76.2152 64.4813 73.869C70.7455 70.276 68.7499 66.4111 66.353 64.5442C63.9562 62.6772 42.7735 61.1969 40.5127 55.1999C38.252 49.2029 47.0494 43.3469 61.8364 45.6222C76.6235 47.8975 95.6765 46.1787 95.5501 36.4528C95.0186 34.4984 92.2509 29.4159 85.4328 24.7214C76.9101 18.8532 75.9792 16.5877 76.2466 15.2556C76.514 13.9234 75.1793 17.12 83.9694 21.656C92.7594 26.192 97.9518 31.3915 98.2168 33.5234C98.4818 35.6553 102.602 49.6474 78.7528 51.0963C70.7592 50.6466 53.7594 49.9597 49.7086 50.8095C44.6451 51.8718 41.0472 52.5352 54.1012 56.5415C67.1552 60.5478 72.2162 62.9493 72.08 67.0793C71.9439 71.2094 69.542 76.2705 62.3468 77.5978C59.3326 78.1538 57.6968 78.7839 56.8733 79.3346Z" fill="#DADADA"/>
<path d="M80.984 162.533C85.458 159.619 89.2697 154.719 91.2629 147.192C96.2727 148.044 102.476 148.039 108.311 145.86C116.254 142.894 122.976 136.082 125.076 123.6C126.174 118.959 125.921 112.431 121.884 106.499C117.98 100.762 110.941 96.1648 99.685 94.113L98.9344 92.0142L97.7978 91.7861C95.0815 88.6183 90.7198 85.8063 85.7263 83.4612C81.4105 81.4344 76.3192 79.6164 70.744 78.1587C71.6044 77.4634 72.3615 76.6882 73.0163 75.8476C75.1425 73.1179 75.9872 69.9622 76.0779 67.2111C76.2199 62.9016 73.3557 60.1634 69.9956 58.2764C67.6696 56.9701 64.5426 55.7365 60.6409 54.4286C61.3042 54.438 61.9813 54.4502 62.6676 54.4647C68.3643 54.5851 74.5642 54.867 78.5281 55.09L78.7617 55.1031L78.9953 55.0889C91.636 54.321 98.312 50.1021 101.125 44.3147C102.453 41.5829 102.703 38.8928 102.639 36.8403C102.582 35.0121 102.176 32.9456 102.186 33.03C101.981 31.3792 101.032 29.9369 100.283 28.9658C99.4203 27.8463 98.2758 26.6677 96.929 25.4853C94.2247 23.1111 90.4513 20.4997 85.8037 18.1014C81.7911 16.0308 80.5461 14.496 80.2418 14.0389C80.2032 13.9808 80.1785 13.9387 80.1642 13.9125C80.1487 13.8568 80.1333 13.8019 80.1255 13.7767L80.124 13.7722C80.108 13.7204 80.0358 13.4867 79.9028 13.2118C79.8401 13.0823 79.6698 12.7421 79.3587 12.3731C79.1194 12.0893 78.2468 11.1234 76.6921 10.97C74.8917 10.7924 73.7245 11.8127 73.2738 12.3334C72.8447 12.8292 72.6468 13.3089 72.5842 13.4651C72.4442 13.8143 72.3854 14.1117 72.374 14.1697L72.3728 14.1755C72.356 14.2594 72.334 14.4021 72.3224 14.4805C71.8475 16.8707 72.8702 18.9934 74.5143 20.8998C76.1227 22.7649 78.8303 25.0318 83.1643 28.016C88.6064 31.763 90.8749 35.5643 91.5123 37.0256C91.3949 37.7167 90.9888 38.3814 90.0216 39.1037C88.6855 40.1016 86.4975 40.9973 83.4775 41.6205C77.4813 42.8577 69.5242 42.758 62.4447 41.6687C54.5072 40.4474 47.6952 41.3215 42.9576 43.749C40.5838 44.9654 38.5252 46.6848 37.2974 48.9424C36.0148 51.3009 35.7867 54.0028 36.7699 56.6109C37.4046 58.2947 38.5849 59.5289 39.7288 60.4124C40.8863 61.3063 42.2351 62.0182 43.5808 62.5995C46.2653 63.759 49.4872 64.6289 52.4845 65.3189C54.4948 65.7816 56.5696 66.1983 58.3893 66.5637C59.2637 66.7393 60.0793 66.9031 60.8005 67.0545C61.9654 67.2991 62.8837 67.51 63.5546 67.7005C63.8002 67.7702 63.9774 67.8274 64.0982 67.8705C64.3022 68.0554 64.4603 68.2432 64.5621 68.4058C64.615 68.4903 64.6419 68.5499 64.6552 68.5855C64.6364 68.6273 64.5986 68.6967 64.5257 68.7962C64.2948 69.1117 63.7338 69.6865 62.4911 70.3993C59.4381 72.1504 56.9814 73.7702 55.268 75.2847C48.7229 74.5613 42.6643 74.5427 37.6278 75.1975C33.9672 75.6735 30.6162 76.534 27.9717 77.9056C25.3693 79.2553 22.8511 81.4386 22.1806 84.7791C22.1772 84.796 22.1739 84.813 22.1706 84.83L22.1703 84.8305L22.0536 85.4116L12.4548 133.232L12.4264 133.373L12.4083 133.516C11.9701 136.973 12.2873 142.22 14.6881 147.103C17.1808 152.172 21.8705 156.701 29.6905 158.27L66.5878 165.677L66.6449 165.688L66.7023 165.698C70.3259 166.316 75.8723 165.862 80.984 162.533ZM80.11 15.0552C80.1101 15.0552 80.1109 15.0567 80.1123 15.0598C80.1107 15.0567 80.11 15.0552 80.11 15.0552ZM96.9199 119.181L98.4546 111.462C99.8339 111.992 101.258 112.737 102.471 113.711C104.667 115.473 106.016 117.79 105.542 121.156C105.38 122.314 104.577 124.267 102.617 125.67C101.212 126.675 98.9188 127.603 95.2563 127.469L96.9185 119.188L96.9199 119.181ZM80.1478 13.8804C80.1478 13.8804 80.1482 13.8814 80.149 13.8832C80.1481 13.8814 80.1477 13.8805 80.1478 13.8804ZM64.2684 67.9378C64.2681 67.938 64.2594 67.9342 64.2435 67.9263C64.2608 67.9338 64.2687 67.9377 64.2684 67.9378ZM64.6675 68.6261C64.6674 68.6262 64.6672 68.625 64.6668 68.6224C64.6673 68.6248 64.6675 68.626 64.6675 68.6261ZM64.6678 68.5543C64.6695 68.5429 64.6715 68.5369 64.6721 68.5368C64.6727 68.5367 64.6719 68.5424 64.6678 68.5543Z" stroke="white" stroke-width="8"/>
</g>
<ellipse cx="61.2698" cy="93.3183" rx="33.288" ry="8.83152" transform="rotate(11.35 61.2698 93.3183)" fill="#8CBA69"/>
<defs>
<filter id="filter0_d_696_1111" x="0.242065" y="0.948303" width="137.392" height="178.984" filterUnits="userSpaceOnUse" color-interpolation-filters="sRGB">
<feFlood flood-opacity="0" result="BackgroundImageFix"/>
<feColorMatrix in="SourceAlpha" type="matrix" values="0 0 0 0 0 0 0 0 0 0 0 0 0 0 0 0 0 0 127 0" result="hardAlpha"/>
<feOffset dy="2"/>
<feGaussianBlur stdDeviation="4"/>
<feComposite in2="hardAlpha" operator="out"/>
<feColorMatrix type="matrix" values="0 0 0 0 0 0 0 0 0 0 0 0 0 0 0 0 0 0 0.25 0"/>
<feBlend mode="normal" in2="BackgroundImageFix" result="effect1_dropShadow_696_1111"/>
<feBlend mode="normal" in="SourceGraphic" in2="effect1_dropShadow_696_1111" result="shape"/>
</filter>
</defs>
</svg>
