<svg width="80" height="83" viewBox="0 0 80 83" fill="none" xmlns="http://www.w3.org/2000/svg">
<path d="M38.0335 2.26711C38.4377 0.0864935 41.5623 0.0864964 41.9665 2.26711L45.2304 19.8738C45.5195 21.4337 47.4227 22.0521 48.5735 20.9601L61.563 8.6344C63.1718 7.10785 65.6996 8.9444 64.7449 10.9462L57.0364 27.1087C56.3535 28.5407 57.5297 30.1596 59.1026 29.9526L76.8562 27.6159C79.055 27.3265 80.0205 30.2981 78.0715 31.3564L62.3351 39.9013C60.941 40.6584 60.941 42.6595 62.3351 43.4165L78.0715 51.9614C80.0205 53.0197 79.055 55.9913 76.8562 55.7019L59.1026 53.3653C57.5297 53.1582 56.3535 54.7772 57.0364 56.2091L64.7449 72.3717C65.6996 74.3735 63.1718 76.21 61.563 74.6835L48.5735 62.3578C47.4227 61.2658 45.5195 61.8842 45.2304 63.444L41.9665 81.0508C41.5623 83.2314 38.4377 83.2314 38.0335 81.0508L34.7696 63.444C34.4805 61.8842 32.5773 61.2658 31.4265 62.3578L18.437 74.6835C16.8282 76.21 14.3004 74.3735 15.2551 72.3717L22.9636 56.2091C23.6465 54.7772 22.4703 53.1582 20.8974 53.3653L3.14382 55.7019C0.945023 55.9913 -0.0205069 53.0197 1.92846 51.9614L17.6649 43.4165C19.059 42.6595 19.059 40.6584 17.6649 39.9013L1.92846 31.3564C-0.0205088 30.2981 0.945026 27.3265 3.14383 27.6159L20.8974 29.9526C22.4703 30.1596 23.6465 28.5407 22.9636 27.1087L15.2551 10.9461C14.3004 8.9444 16.8282 7.10785 18.437 8.6344L31.4265 20.9601C32.5773 22.0521 34.4805 21.4337 34.7696 19.8738L38.0335 2.26711Z" fill="#1E46CC"/>
</svg>
