<svg width="100" height="96" viewBox="0 0 100 96" fill="none" xmlns="http://www.w3.org/2000/svg">
<g id="Frame 277131831">
<path id="Star 1" d="M39.9536 7.91954C43.1158 -1.81261 56.8842 -1.8126 60.0464 7.91956L64.4669 21.5246C65.8811 25.877 69.937 28.8237 74.5133 28.8237H88.8185C99.0515 28.8237 103.306 41.9183 95.0275 47.9331L83.4543 56.3414C79.752 59.0313 78.2028 63.7993 79.617 68.1517L84.0375 81.7567C87.1997 91.4889 76.0608 99.5817 67.7822 93.5669L56.209 85.1585C52.5067 82.4687 47.4933 82.4687 43.791 85.1586L32.2178 93.567C23.9392 99.5817 12.8003 91.4889 15.9625 81.7567L20.383 68.1517C21.7972 63.7993 20.248 59.0313 16.5457 56.3414L4.97249 47.9331C-3.30617 41.9183 0.948515 28.8237 11.1815 28.8237H25.4867C30.063 28.8237 34.1189 25.877 35.5331 21.5246L39.9536 7.91954Z" fill="#F7CEFA"/>
</g>
</svg>
