<svg width="862" height="783" viewBox="0 0 862 783" fill="none" xmlns="http://www.w3.org/2000/svg">
<path d="M400 0V704" stroke="#E0E0E0" stroke-width="2"/>
<path d="M528 0V704" stroke="#E0E0E0" stroke-width="2"/>
<path d="M784 0V704" stroke="#E0E0E0" stroke-width="2"/>
<path d="M656 0V704" stroke="#E0E0E0" stroke-width="2"/>
<rect x="272" y="22" width="320" height="96" fill="#1B454F"/>
<rect x="272" y="166" width="492" height="96" fill="#1B454F"/>
<rect x="272" y="310" width="202" height="96" fill="#1B454F"/>
<rect x="272" y="454" width="58" height="96" fill="#1B454F"/>
<rect x="272" y="598" width="28" height="96" fill="#1B454F"/>
<path d="M30.6728 78V61.2H41.3528V63.264H33.2168V68.496H40.6328V70.512H33.2168V75.936H41.3528V78H30.6728ZM43.1357 78L47.3597 72.048L43.1357 66.096H45.8477L49.0397 70.656L52.2077 66.096H54.9437L50.7197 72.048L54.9437 78H52.2077L49.0397 73.44L45.8477 78H43.1357ZM62.0063 78C60.8383 78 59.9103 77.72 59.2223 77.16C58.5343 76.584 58.1903 75.568 58.1903 74.112V68.232H56.1503V66.096H58.1903L58.5023 63.072H60.7343V66.096H64.0943V68.232H60.7343V74.112C60.7343 74.768 60.8703 75.224 61.1423 75.48C61.4303 75.72 61.9183 75.84 62.6063 75.84H63.9743V78H62.0063ZM66.7174 78V66.096H68.9974L69.2134 68.352C69.6294 67.568 70.2054 66.952 70.9414 66.504C71.6934 66.04 72.5974 65.808 73.6534 65.808V68.472H72.9574C72.2534 68.472 71.6214 68.592 71.0614 68.832C70.5174 69.056 70.0774 69.448 69.7414 70.008C69.4214 70.552 69.2614 71.312 69.2614 72.288V78H66.7174ZM81.0744 78.288C79.9064 78.288 78.8664 78.032 77.9544 77.52C77.0584 76.992 76.3544 76.264 75.8424 75.336C75.3304 74.408 75.0744 73.328 75.0744 72.096C75.0744 70.848 75.3224 69.752 75.8184 68.808C76.3304 67.864 77.0344 67.128 77.9304 66.6C78.8424 66.072 79.8984 65.808 81.0984 65.808C82.2664 65.808 83.2824 66.072 84.1464 66.6C85.0104 67.112 85.6824 67.8 86.1624 68.664C86.6424 69.528 86.8824 70.48 86.8824 71.52C86.8824 71.68 86.8744 71.856 86.8584 72.048C86.8584 72.224 86.8504 72.424 86.8344 72.648H77.5704C77.6504 73.8 78.0264 74.68 78.6984 75.288C79.3864 75.88 80.1784 76.176 81.0744 76.176C81.7944 76.176 82.3944 76.016 82.8744 75.696C83.3704 75.36 83.7384 74.912 83.9784 74.352H86.5224C86.2024 75.472 85.5624 76.408 84.6024 77.16C83.6584 77.912 82.4824 78.288 81.0744 78.288ZM81.0744 67.896C80.2264 67.896 79.4744 68.152 78.8184 68.664C78.1624 69.16 77.7624 69.912 77.6184 70.92H84.3384C84.2904 69.992 83.9624 69.256 83.3544 68.712C82.7464 68.168 81.9864 67.896 81.0744 67.896ZM89.5221 78V66.096H91.7781L91.9941 67.776C92.3781 67.168 92.8821 66.688 93.5061 66.336C94.1461 65.984 94.8821 65.808 95.7141 65.808C97.6021 65.808 98.9141 66.552 99.6501 68.04C100.082 67.352 100.658 66.808 101.378 66.408C102.114 66.008 102.906 65.808 103.754 65.808C105.242 65.808 106.41 66.256 107.258 67.152C108.106 68.048 108.53 69.384 108.53 71.16V78H105.986V71.424C105.986 69.12 105.106 67.968 103.346 67.968C102.45 67.968 101.714 68.304 101.138 68.976C100.578 69.648 100.298 70.608 100.298 71.856V78H97.7541V71.424C97.7541 69.12 96.8661 67.968 95.0901 67.968C94.2101 67.968 93.4821 68.304 92.9061 68.976C92.3461 69.648 92.0661 70.608 92.0661 71.856V78H89.5221ZM117.074 78.288C115.906 78.288 114.866 78.032 113.954 77.52C113.058 76.992 112.354 76.264 111.842 75.336C111.33 74.408 111.074 73.328 111.074 72.096C111.074 70.848 111.322 69.752 111.818 68.808C112.33 67.864 113.034 67.128 113.93 66.6C114.842 66.072 115.898 65.808 117.098 65.808C118.266 65.808 119.282 66.072 120.146 66.6C121.01 67.112 121.682 67.8 122.162 68.664C122.642 69.528 122.882 70.48 122.882 71.52C122.882 71.68 122.874 71.856 122.858 72.048C122.858 72.224 122.85 72.424 122.834 72.648H113.57C113.65 73.8 114.026 74.68 114.698 75.288C115.386 75.88 116.178 76.176 117.074 76.176C117.794 76.176 118.394 76.016 118.874 75.696C119.37 75.36 119.738 74.912 119.978 74.352H122.522C122.202 75.472 121.562 76.408 120.602 77.16C119.658 77.912 118.482 78.288 117.074 78.288ZM117.074 67.896C116.226 67.896 115.474 68.152 114.818 68.664C114.162 69.16 113.762 69.912 113.618 70.92H120.338C120.29 69.992 119.962 69.256 119.354 68.712C118.746 68.168 117.986 67.896 117.074 67.896ZM125.522 78V60.72H128.066V78H125.522ZM132.68 83.28L135.536 77.016H134.84L130.136 66.096H132.896L136.544 74.904L140.36 66.096H143.048L135.368 83.28H132.68ZM151.186 78V60.72H153.73V78H151.186ZM158.392 63.84C157.912 63.84 157.512 63.696 157.192 63.408C156.888 63.104 156.736 62.728 156.736 62.28C156.736 61.832 156.888 61.464 157.192 61.176C157.512 60.872 157.912 60.72 158.392 60.72C158.872 60.72 159.264 60.872 159.568 61.176C159.888 61.464 160.048 61.832 160.048 62.28C160.048 62.728 159.888 63.104 159.568 63.408C159.264 63.696 158.872 63.84 158.392 63.84ZM157.12 78V66.096H159.664V78H157.12ZM163.022 78V60.72H165.566V71.016L170.126 66.096H173.174L168.11 71.496L173.918 78H170.702L165.566 71.904V78H163.022ZM180.543 78.288C179.375 78.288 178.335 78.032 177.423 77.52C176.527 76.992 175.823 76.264 175.311 75.336C174.799 74.408 174.543 73.328 174.543 72.096C174.543 70.848 174.791 69.752 175.287 68.808C175.799 67.864 176.503 67.128 177.399 66.6C178.311 66.072 179.367 65.808 180.567 65.808C181.735 65.808 182.751 66.072 183.615 66.6C184.479 67.112 185.151 67.8 185.631 68.664C186.111 69.528 186.351 70.48 186.351 71.52C186.351 71.68 186.343 71.856 186.327 72.048C186.327 72.224 186.319 72.424 186.303 72.648H177.039C177.119 73.8 177.495 74.68 178.167 75.288C178.855 75.88 179.647 76.176 180.543 76.176C181.263 76.176 181.863 76.016 182.343 75.696C182.839 75.36 183.207 74.912 183.447 74.352H185.991C185.671 75.472 185.031 76.408 184.071 77.16C183.127 77.912 181.951 78.288 180.543 78.288ZM180.543 67.896C179.695 67.896 178.943 68.152 178.287 68.664C177.631 69.16 177.231 69.912 177.087 70.92H183.807C183.759 69.992 183.431 69.256 182.823 68.712C182.215 68.168 181.455 67.896 180.543 67.896ZM188.991 78V60.72H191.535V78H188.991ZM196.148 83.28L199.004 77.016H198.308L193.604 66.096H196.364L200.012 74.904L203.828 66.096H206.516L198.836 83.28H196.148Z" fill="black"/>
<path d="M146.134 222V205.2H148.678V219.984H156.31V222H146.134ZM160.392 207.84C159.912 207.84 159.512 207.696 159.192 207.408C158.888 207.104 158.736 206.728 158.736 206.28C158.736 205.832 158.888 205.464 159.192 205.176C159.512 204.872 159.912 204.72 160.392 204.72C160.872 204.72 161.264 204.872 161.568 205.176C161.888 205.464 162.048 205.832 162.048 206.28C162.048 206.728 161.888 207.104 161.568 207.408C161.264 207.696 160.872 207.84 160.392 207.84ZM159.12 222V210.096H161.664V222H159.12ZM165.022 222V204.72H167.566V215.016L172.126 210.096H175.174L170.11 215.496L175.918 222H172.702L167.566 215.904V222H165.022ZM182.543 222.288C181.375 222.288 180.335 222.032 179.423 221.52C178.527 220.992 177.823 220.264 177.311 219.336C176.799 218.408 176.543 217.328 176.543 216.096C176.543 214.848 176.791 213.752 177.287 212.808C177.799 211.864 178.503 211.128 179.399 210.6C180.311 210.072 181.367 209.808 182.567 209.808C183.735 209.808 184.751 210.072 185.615 210.6C186.479 211.112 187.151 211.8 187.631 212.664C188.111 213.528 188.351 214.48 188.351 215.52C188.351 215.68 188.343 215.856 188.327 216.048C188.327 216.224 188.319 216.424 188.303 216.648H179.039C179.119 217.8 179.495 218.68 180.167 219.288C180.855 219.88 181.647 220.176 182.543 220.176C183.263 220.176 183.863 220.016 184.343 219.696C184.839 219.36 185.207 218.912 185.447 218.352H187.991C187.671 219.472 187.031 220.408 186.071 221.16C185.127 221.912 183.951 222.288 182.543 222.288ZM182.543 211.896C181.695 211.896 180.943 212.152 180.287 212.664C179.631 213.16 179.231 213.912 179.087 214.92H185.807C185.759 213.992 185.431 213.256 184.823 212.712C184.215 212.168 183.455 211.896 182.543 211.896ZM190.991 222V204.72H193.535V222H190.991ZM198.148 227.28L201.004 221.016H200.308L195.604 210.096H198.364L202.012 218.904L205.828 210.096H208.516L200.836 227.28H198.148Z" fill="black"/>
<path d="M130.618 366V349.2H133.162L141.586 361.848V349.2H144.13V366H141.586L133.162 353.352V366H130.618ZM153.012 366.288C151.844 366.288 150.804 366.032 149.892 365.52C148.996 364.992 148.292 364.264 147.78 363.336C147.268 362.408 147.012 361.328 147.012 360.096C147.012 358.848 147.26 357.752 147.756 356.808C148.268 355.864 148.972 355.128 149.868 354.6C150.78 354.072 151.836 353.808 153.036 353.808C154.204 353.808 155.22 354.072 156.084 354.6C156.948 355.112 157.62 355.8 158.1 356.664C158.58 357.528 158.82 358.48 158.82 359.52C158.82 359.68 158.812 359.856 158.796 360.048C158.796 360.224 158.788 360.424 158.772 360.648H149.508C149.588 361.8 149.964 362.68 150.636 363.288C151.324 363.88 152.116 364.176 153.012 364.176C153.732 364.176 154.332 364.016 154.812 363.696C155.308 363.36 155.676 362.912 155.916 362.352H158.46C158.14 363.472 157.5 364.408 156.54 365.16C155.596 365.912 154.42 366.288 153.012 366.288ZM153.012 355.896C152.164 355.896 151.412 356.152 150.756 356.664C150.1 357.16 149.7 357.912 149.556 358.92H156.276C156.228 357.992 155.9 357.256 155.292 356.712C154.684 356.168 153.924 355.896 153.012 355.896ZM165.852 366.288C164.412 366.288 163.276 365.84 162.444 364.944C161.628 364.048 161.22 362.712 161.22 360.936V354.096H163.764V360.672C163.764 362.976 164.708 364.128 166.596 364.128C167.54 364.128 168.316 363.792 168.924 363.12C169.532 362.448 169.836 361.488 169.836 360.24V354.096H172.38V366H170.124L169.932 363.912C169.564 364.648 169.02 365.232 168.3 365.664C167.596 366.08 166.78 366.288 165.852 366.288ZM180.608 366C179.44 366 178.512 365.72 177.824 365.16C177.136 364.584 176.792 363.568 176.792 362.112V356.232H174.752V354.096H176.792L177.104 351.072H179.336V354.096H182.696V356.232H179.336V362.112C179.336 362.768 179.472 363.224 179.744 363.48C180.032 363.72 180.52 363.84 181.208 363.84H182.576V366H180.608ZM185.319 366V354.096H187.599L187.815 356.352C188.231 355.568 188.807 354.952 189.543 354.504C190.295 354.04 191.199 353.808 192.255 353.808V356.472H191.559C190.855 356.472 190.223 356.592 189.663 356.832C189.119 357.056 188.679 357.448 188.343 358.008C188.023 358.552 187.863 359.312 187.863 360.288V366H185.319ZM198.468 366.288C197.46 366.288 196.628 366.12 195.972 365.784C195.316 365.448 194.828 365.008 194.508 364.464C194.188 363.904 194.028 363.296 194.028 362.64C194.028 361.488 194.476 360.576 195.372 359.904C196.268 359.232 197.548 358.896 199.212 358.896H202.332V358.68C202.332 357.752 202.076 357.056 201.564 356.592C201.068 356.128 200.42 355.896 199.62 355.896C198.916 355.896 198.3 356.072 197.772 356.424C197.26 356.76 196.948 357.264 196.836 357.936H194.292C194.372 357.072 194.66 356.336 195.156 355.728C195.668 355.104 196.308 354.632 197.076 354.312C197.86 353.976 198.716 353.808 199.644 353.808C201.308 353.808 202.596 354.248 203.508 355.128C204.42 355.992 204.876 357.176 204.876 358.68V366H202.668L202.452 363.96C202.116 364.616 201.628 365.168 200.988 365.616C200.348 366.064 199.508 366.288 198.468 366.288ZM198.972 364.224C199.66 364.224 200.236 364.064 200.7 363.744C201.18 363.408 201.548 362.968 201.804 362.424C202.076 361.88 202.244 361.28 202.308 360.624H199.476C198.468 360.624 197.748 360.8 197.316 361.152C196.9 361.504 196.692 361.944 196.692 362.472C196.692 363.016 196.892 363.448 197.292 363.768C197.708 364.072 198.268 364.224 198.972 364.224ZM207.842 366V348.72H210.386V366H207.842Z" fill="black"/>
<path d="M128.383 510.288C127.183 510.288 126.095 510.056 125.119 509.592C124.159 509.112 123.391 508.384 122.815 507.408C122.255 506.432 121.975 505.192 121.975 503.688V493.2H124.519V503.712C124.519 505.184 124.871 506.264 125.575 506.952C126.279 507.64 127.231 507.984 128.431 507.984C129.615 507.984 130.559 507.64 131.263 506.952C131.967 506.264 132.319 505.184 132.319 503.712V493.2H134.863V503.688C134.863 505.192 134.567 506.432 133.975 507.408C133.399 508.384 132.615 509.112 131.623 509.592C130.647 510.056 129.567 510.288 128.383 510.288ZM138.03 510V498.096H140.286L140.478 500.184C140.846 499.448 141.382 498.872 142.086 498.456C142.806 498.024 143.63 497.808 144.558 497.808C145.998 497.808 147.126 498.256 147.942 499.152C148.774 500.048 149.19 501.384 149.19 503.16V510H146.67V503.424C146.67 501.12 145.726 499.968 143.838 499.968C142.894 499.968 142.11 500.304 141.486 500.976C140.878 501.648 140.574 502.608 140.574 503.856V510H138.03ZM152.186 510V492.72H154.73V510H152.186ZM159.392 495.84C158.912 495.84 158.512 495.696 158.192 495.408C157.888 495.104 157.736 494.728 157.736 494.28C157.736 493.832 157.888 493.464 158.192 493.176C158.512 492.872 158.912 492.72 159.392 492.72C159.872 492.72 160.264 492.872 160.568 493.176C160.888 493.464 161.048 493.832 161.048 494.28C161.048 494.728 160.888 495.104 160.568 495.408C160.264 495.696 159.872 495.84 159.392 495.84ZM158.12 510V498.096H160.664V510H158.12ZM164.022 510V492.72H166.566V503.016L171.126 498.096H174.174L169.11 503.496L174.918 510H171.702L166.566 503.904V510H164.022ZM181.543 510.288C180.375 510.288 179.335 510.032 178.423 509.52C177.527 508.992 176.823 508.264 176.311 507.336C175.799 506.408 175.543 505.328 175.543 504.096C175.543 502.848 175.791 501.752 176.287 500.808C176.799 499.864 177.503 499.128 178.399 498.6C179.311 498.072 180.367 497.808 181.567 497.808C182.735 497.808 183.751 498.072 184.615 498.6C185.479 499.112 186.151 499.8 186.631 500.664C187.111 501.528 187.351 502.48 187.351 503.52C187.351 503.68 187.343 503.856 187.327 504.048C187.327 504.224 187.319 504.424 187.303 504.648H178.039C178.119 505.8 178.495 506.68 179.167 507.288C179.855 507.88 180.647 508.176 181.543 508.176C182.263 508.176 182.863 508.016 183.343 507.696C183.839 507.36 184.207 506.912 184.447 506.352H186.991C186.671 507.472 186.031 508.408 185.071 509.16C184.127 509.912 182.951 510.288 181.543 510.288ZM181.543 499.896C180.695 499.896 179.943 500.152 179.287 500.664C178.631 501.16 178.231 501.912 178.087 502.92H184.807C184.759 501.992 184.431 501.256 183.823 500.712C183.215 500.168 182.455 499.896 181.543 499.896ZM189.991 510V492.72H192.535V510H189.991ZM197.148 515.28L200.004 509.016H199.308L194.604 498.096H197.364L201.012 506.904L204.828 498.096H207.516L199.836 515.28H197.148Z" fill="black"/>
<path d="M2.36025 654V637.2H13.0403V639.264H4.90425V644.496H12.3203V646.512H4.90425V651.936H13.0403V654H2.36025ZM14.8232 654L19.0472 648.048L14.8232 642.096H17.5352L20.7272 646.656L23.8952 642.096H26.6312L22.4072 648.048L26.6312 654H23.8952L20.7272 649.44L17.5352 654H14.8232ZM33.6938 654C32.5258 654 31.5978 653.72 30.9098 653.16C30.2218 652.584 29.8778 651.568 29.8778 650.112V644.232H27.8378V642.096H29.8778L30.1898 639.072H32.4218V642.096H35.7818V644.232H32.4218V650.112C32.4218 650.768 32.5578 651.224 32.8298 651.48C33.1178 651.72 33.6058 651.84 34.2938 651.84H35.6618V654H33.6938ZM38.4049 654V642.096H40.6849L40.9009 644.352C41.3169 643.568 41.8929 642.952 42.6289 642.504C43.3809 642.04 44.2849 641.808 45.3409 641.808V644.472H44.6449C43.9409 644.472 43.3089 644.592 42.7489 644.832C42.2049 645.056 41.7649 645.448 41.4289 646.008C41.1089 646.552 40.9489 647.312 40.9489 648.288V654H38.4049ZM52.7619 654.288C51.5939 654.288 50.5539 654.032 49.6419 653.52C48.7459 652.992 48.0419 652.264 47.5299 651.336C47.0179 650.408 46.7619 649.328 46.7619 648.096C46.7619 646.848 47.0099 645.752 47.5059 644.808C48.0179 643.864 48.7219 643.128 49.6179 642.6C50.5299 642.072 51.5859 641.808 52.7859 641.808C53.9539 641.808 54.9699 642.072 55.8339 642.6C56.6979 643.112 57.3699 643.8 57.8499 644.664C58.3299 645.528 58.5699 646.48 58.5699 647.52C58.5699 647.68 58.5619 647.856 58.5459 648.048C58.5459 648.224 58.5379 648.424 58.5219 648.648H49.2579C49.3379 649.8 49.7139 650.68 50.3859 651.288C51.0739 651.88 51.8659 652.176 52.7619 652.176C53.4819 652.176 54.0819 652.016 54.5619 651.696C55.0579 651.36 55.4259 650.912 55.6659 650.352H58.2099C57.8899 651.472 57.2499 652.408 56.2899 653.16C55.3459 653.912 54.1699 654.288 52.7619 654.288ZM52.7619 643.896C51.9139 643.896 51.1619 644.152 50.5059 644.664C49.8499 645.16 49.4499 645.912 49.3059 646.92H56.0259C55.9779 645.992 55.6499 645.256 55.0419 644.712C54.4339 644.168 53.6739 643.896 52.7619 643.896ZM61.2096 654V642.096H63.4656L63.6816 643.776C64.0656 643.168 64.5696 642.688 65.1936 642.336C65.8336 641.984 66.5696 641.808 67.4016 641.808C69.2896 641.808 70.6016 642.552 71.3376 644.04C71.7696 643.352 72.3456 642.808 73.0656 642.408C73.8016 642.008 74.5936 641.808 75.4416 641.808C76.9296 641.808 78.0976 642.256 78.9456 643.152C79.7936 644.048 80.2176 645.384 80.2176 647.16V654H77.6736V647.424C77.6736 645.12 76.7936 643.968 75.0336 643.968C74.1376 643.968 73.4016 644.304 72.8256 644.976C72.2656 645.648 71.9856 646.608 71.9856 647.856V654H69.4416V647.424C69.4416 645.12 68.5536 643.968 66.7776 643.968C65.8976 643.968 65.1696 644.304 64.5936 644.976C64.0336 645.648 63.7536 646.608 63.7536 647.856V654H61.2096ZM88.7619 654.288C87.5939 654.288 86.5539 654.032 85.6419 653.52C84.7459 652.992 84.0419 652.264 83.5299 651.336C83.0179 650.408 82.7619 649.328 82.7619 648.096C82.7619 646.848 83.0099 645.752 83.5059 644.808C84.0179 643.864 84.7219 643.128 85.6179 642.6C86.5299 642.072 87.5859 641.808 88.7859 641.808C89.9539 641.808 90.9699 642.072 91.8339 642.6C92.6979 643.112 93.3699 643.8 93.8499 644.664C94.3299 645.528 94.5699 646.48 94.5699 647.52C94.5699 647.68 94.5619 647.856 94.5459 648.048C94.5459 648.224 94.5379 648.424 94.5219 648.648H85.2579C85.3379 649.8 85.7139 650.68 86.3859 651.288C87.0739 651.88 87.8659 652.176 88.7619 652.176C89.4819 652.176 90.0819 652.016 90.5619 651.696C91.0579 651.36 91.4259 650.912 91.6659 650.352H94.2099C93.8899 651.472 93.2499 652.408 92.2899 653.16C91.3459 653.912 90.1699 654.288 88.7619 654.288ZM88.7619 643.896C87.9139 643.896 87.1619 644.152 86.5059 644.664C85.8499 645.16 85.4499 645.912 85.3059 646.92H92.0259C91.9779 645.992 91.6499 645.256 91.0419 644.712C90.4339 644.168 89.6739 643.896 88.7619 643.896ZM97.2096 654V636.72H99.7536V654H97.2096ZM104.367 659.28L107.223 653.016H106.527L101.823 642.096H104.583L108.231 650.904L112.047 642.096H114.735L107.055 659.28H104.367ZM127.266 654.288C125.826 654.288 124.69 653.84 123.858 652.944C123.042 652.048 122.634 650.712 122.634 648.936V642.096H125.178V648.672C125.178 650.976 126.122 652.128 128.01 652.128C128.954 652.128 129.73 651.792 130.338 651.12C130.946 650.448 131.25 649.488 131.25 648.24V642.096H133.794V654H131.538L131.346 651.912C130.978 652.648 130.434 653.232 129.714 653.664C129.01 654.08 128.194 654.288 127.266 654.288ZM137.03 654V642.096H139.286L139.478 644.184C139.846 643.448 140.382 642.872 141.086 642.456C141.806 642.024 142.63 641.808 143.558 641.808C144.998 641.808 146.126 642.256 146.942 643.152C147.774 644.048 148.19 645.384 148.19 647.16V654H145.67V647.424C145.67 645.12 144.726 643.968 142.838 643.968C141.894 643.968 141.11 644.304 140.486 644.976C139.878 645.648 139.574 646.608 139.574 647.856V654H137.03ZM151.186 654V636.72H153.73V654H151.186ZM158.392 639.84C157.912 639.84 157.512 639.696 157.192 639.408C156.888 639.104 156.736 638.728 156.736 638.28C156.736 637.832 156.888 637.464 157.192 637.176C157.512 636.872 157.912 636.72 158.392 636.72C158.872 636.72 159.264 636.872 159.568 637.176C159.888 637.464 160.048 637.832 160.048 638.28C160.048 638.728 159.888 639.104 159.568 639.408C159.264 639.696 158.872 639.84 158.392 639.84ZM157.12 654V642.096H159.664V654H157.12ZM163.022 654V636.72H165.566V647.016L170.126 642.096H173.174L168.11 647.496L173.918 654H170.702L165.566 647.904V654H163.022ZM180.543 654.288C179.375 654.288 178.335 654.032 177.423 653.52C176.527 652.992 175.823 652.264 175.311 651.336C174.799 650.408 174.543 649.328 174.543 648.096C174.543 646.848 174.791 645.752 175.287 644.808C175.799 643.864 176.503 643.128 177.399 642.6C178.311 642.072 179.367 641.808 180.567 641.808C181.735 641.808 182.751 642.072 183.615 642.6C184.479 643.112 185.151 643.8 185.631 644.664C186.111 645.528 186.351 646.48 186.351 647.52C186.351 647.68 186.343 647.856 186.327 648.048C186.327 648.224 186.319 648.424 186.303 648.648H177.039C177.119 649.8 177.495 650.68 178.167 651.288C178.855 651.88 179.647 652.176 180.543 652.176C181.263 652.176 181.863 652.016 182.343 651.696C182.839 651.36 183.207 650.912 183.447 650.352H185.991C185.671 651.472 185.031 652.408 184.071 653.16C183.127 653.912 181.951 654.288 180.543 654.288ZM180.543 643.896C179.695 643.896 178.943 644.152 178.287 644.664C177.631 645.16 177.231 645.912 177.087 646.92H183.807C183.759 645.992 183.431 645.256 182.823 644.712C182.215 644.168 181.455 643.896 180.543 643.896ZM188.991 654V636.72H191.535V654H188.991ZM196.148 659.28L199.004 653.016H198.308L193.604 642.096H196.364L200.012 650.904L203.828 642.096H206.516L198.836 659.28H196.148Z" fill="black"/>
<path d="M272 0V704" stroke="#828282" stroke-width="2"/>
<path d="M392.944 767.216C392.192 767.216 391.512 767.048 390.904 766.712C390.312 766.376 389.84 765.904 389.488 765.296C389.136 764.672 388.96 763.928 388.96 763.064C388.96 762.216 389.136 761.488 389.488 760.88C389.84 760.256 390.32 759.776 390.928 759.44C391.536 759.104 392.216 758.936 392.968 758.936C393.704 758.936 394.368 759.104 394.96 759.44C395.568 759.776 396.048 760.256 396.4 760.88C396.752 761.488 396.928 762.216 396.928 763.064C396.928 763.928 396.752 764.672 396.4 765.296C396.048 765.904 395.568 766.376 394.96 766.712C394.368 767.048 393.696 767.216 392.944 767.216ZM391.744 776L401.368 759.2H403.864L394.264 776H391.744ZM392.944 765.392C393.456 765.392 393.896 765.2 394.264 764.816C394.648 764.416 394.84 763.832 394.84 763.064C394.84 762.296 394.656 761.72 394.288 761.336C393.92 760.936 393.472 760.736 392.944 760.736C392.432 760.736 391.984 760.936 391.6 761.336C391.216 761.72 391.024 762.296 391.024 763.064C391.024 763.832 391.208 764.416 391.576 764.816C391.96 765.2 392.416 765.392 392.944 765.392ZM402.808 776.288C402.056 776.288 401.376 776.12 400.768 775.784C400.176 775.448 399.704 774.976 399.352 774.368C399 773.744 398.824 773 398.824 772.136C398.824 771.288 399 770.552 399.352 769.928C399.704 769.304 400.184 768.824 400.792 768.488C401.4 768.152 402.08 767.984 402.832 767.984C403.568 767.984 404.232 768.152 404.824 768.488C405.432 768.824 405.912 769.304 406.264 769.928C406.616 770.552 406.792 771.288 406.792 772.136C406.792 773 406.616 773.744 406.264 774.368C405.912 774.976 405.432 775.448 404.824 775.784C404.232 776.12 403.56 776.288 402.808 776.288ZM402.808 774.44C403.32 774.44 403.76 774.248 404.128 773.864C404.512 773.48 404.704 772.904 404.704 772.136C404.704 771.368 404.52 770.792 404.152 770.408C403.784 770.008 403.336 769.808 402.808 769.808C402.296 769.808 401.848 770.008 401.464 770.408C401.08 770.792 400.888 771.368 400.888 772.136C400.888 772.904 401.072 773.48 401.44 773.864C401.824 774.248 402.28 774.44 402.808 774.44ZM420.981 776.288C419.845 776.288 418.821 776.032 417.909 775.52C417.013 774.992 416.301 774.264 415.773 773.336C415.245 772.392 414.981 771.296 414.981 770.048C414.981 768.8 415.245 767.712 415.773 766.784C416.317 765.84 417.045 765.112 417.957 764.6C418.869 764.072 419.885 763.808 421.005 763.808C422.141 763.808 423.157 764.072 424.053 764.6C424.965 765.112 425.685 765.84 426.213 766.784C426.757 767.712 427.029 768.8 427.029 770.048C427.029 771.296 426.757 772.392 426.213 773.336C425.685 774.264 424.965 774.992 424.053 775.52C423.141 776.032 422.117 776.288 420.981 776.288ZM420.981 774.104C421.589 774.104 422.149 773.952 422.661 773.648C423.189 773.344 423.613 772.896 423.933 772.304C424.253 771.696 424.413 770.944 424.413 770.048C424.413 769.152 424.253 768.408 423.933 767.816C423.629 767.208 423.213 766.752 422.685 766.448C422.173 766.144 421.613 765.992 421.005 765.992C420.397 765.992 419.829 766.144 419.301 766.448C418.789 766.752 418.373 767.208 418.053 767.816C417.733 768.408 417.573 769.152 417.573 770.048C417.573 770.944 417.733 771.696 418.053 772.304C418.373 772.896 418.789 773.344 419.301 773.648C419.813 773.952 420.373 774.104 420.981 774.104ZM434.172 776.288C432.732 776.288 431.596 775.84 430.764 774.944C429.948 774.048 429.54 772.712 429.54 770.936V764.096H432.084V770.672C432.084 772.976 433.028 774.128 434.916 774.128C435.86 774.128 436.636 773.792 437.244 773.12C437.852 772.448 438.156 771.488 438.156 770.24V764.096H440.7V776H438.444L438.252 773.912C437.884 774.648 437.34 775.232 436.62 775.664C435.916 776.08 435.1 776.288 434.172 776.288ZM448.928 776C447.76 776 446.832 775.72 446.144 775.16C445.456 774.584 445.112 773.568 445.112 772.112V766.232H443.072V764.096H445.112L445.424 761.072H447.656V764.096H451.016V766.232H447.656V772.112C447.656 772.768 447.792 773.224 448.064 773.48C448.352 773.72 448.84 773.84 449.528 773.84H450.896V776H448.928ZM465.254 776.288C464.118 776.288 463.094 776.032 462.182 775.52C461.286 774.992 460.574 774.264 460.046 773.336C459.518 772.392 459.254 771.296 459.254 770.048C459.254 768.8 459.518 767.712 460.046 766.784C460.59 765.84 461.318 765.112 462.23 764.6C463.142 764.072 464.158 763.808 465.278 763.808C466.414 763.808 467.43 764.072 468.326 764.6C469.238 765.112 469.958 765.84 470.486 766.784C471.03 767.712 471.302 768.8 471.302 770.048C471.302 771.296 471.03 772.392 470.486 773.336C469.958 774.264 469.238 774.992 468.326 775.52C467.414 776.032 466.39 776.288 465.254 776.288ZM465.254 774.104C465.862 774.104 466.422 773.952 466.934 773.648C467.462 773.344 467.886 772.896 468.206 772.304C468.526 771.696 468.686 770.944 468.686 770.048C468.686 769.152 468.526 768.408 468.206 767.816C467.902 767.208 467.486 766.752 466.958 766.448C466.446 766.144 465.886 765.992 465.278 765.992C464.67 765.992 464.102 766.144 463.574 766.448C463.062 766.752 462.646 767.208 462.326 767.816C462.006 768.408 461.846 769.152 461.846 770.048C461.846 770.944 462.006 771.696 462.326 772.304C462.646 772.896 463.062 773.344 463.574 773.648C464.086 773.952 464.646 774.104 465.254 774.104ZM474.653 776V766.232H472.949V764.096H474.653V762.368C474.653 761.072 474.973 760.144 475.613 759.584C476.269 759.008 477.189 758.72 478.373 758.72H479.621V760.88H478.757C478.197 760.88 477.797 761 477.557 761.24C477.317 761.464 477.197 761.848 477.197 762.392V764.096H479.933V766.232H477.197V776H474.653ZM493.869 776.288C492.781 776.288 491.789 776.096 490.893 775.712C490.013 775.312 489.309 774.712 488.781 773.912C488.253 773.112 487.973 772.112 487.941 770.912H490.461C490.493 771.808 490.797 772.568 491.373 773.192C491.965 773.8 492.797 774.104 493.869 774.104C494.893 774.104 495.677 773.824 496.221 773.264C496.765 772.688 497.037 771.976 497.037 771.128C497.037 770.104 496.669 769.344 495.933 768.848C495.213 768.352 494.325 768.104 493.269 768.104H492.021V765.992H493.293C494.237 765.992 494.997 765.768 495.573 765.32C496.165 764.872 496.461 764.24 496.461 763.424C496.461 762.736 496.229 762.176 495.765 761.744C495.317 761.312 494.677 761.096 493.845 761.096C492.981 761.096 492.301 761.352 491.805 761.864C491.309 762.36 491.037 762.984 490.989 763.736H488.469C488.501 762.76 488.741 761.912 489.189 761.192C489.653 760.472 490.285 759.912 491.085 759.512C491.885 759.112 492.805 758.912 493.845 758.912C494.965 758.912 495.901 759.112 496.653 759.512C497.421 759.896 497.997 760.424 498.381 761.096C498.781 761.752 498.981 762.472 498.981 763.256C498.981 764.152 498.733 764.936 498.237 765.608C497.741 766.28 497.077 766.728 496.245 766.952C497.205 767.16 497.997 767.632 498.621 768.368C499.245 769.088 499.557 770.024 499.557 771.176C499.557 772.104 499.341 772.96 498.909 773.744C498.477 774.512 497.837 775.128 496.989 775.592C496.141 776.056 495.101 776.288 493.869 776.288ZM508.432 776.288C507.312 776.288 506.296 776.088 505.384 775.688C504.488 775.272 503.768 774.696 503.224 773.96C502.696 773.224 502.432 772.36 502.432 771.368C502.432 770.36 502.712 769.456 503.272 768.656C503.848 767.856 504.608 767.312 505.552 767.024C504.704 766.688 504.048 766.2 503.584 765.56C503.12 764.904 502.888 764.184 502.888 763.4C502.888 762.584 503.104 761.84 503.536 761.168C503.968 760.48 504.592 759.936 505.408 759.536C506.24 759.12 507.248 758.912 508.432 758.912C509.616 758.912 510.616 759.12 511.432 759.536C512.264 759.936 512.896 760.48 513.328 761.168C513.76 761.84 513.976 762.584 513.976 763.4C513.976 764.168 513.736 764.888 513.256 765.56C512.792 766.216 512.136 766.704 511.288 767.024C512.232 767.328 512.984 767.88 513.544 768.68C514.12 769.464 514.408 770.36 514.408 771.368C514.408 772.36 514.144 773.224 513.616 773.96C513.088 774.696 512.368 775.272 511.456 775.688C510.56 776.088 509.552 776.288 508.432 776.288ZM508.432 766.208C509.36 766.208 510.088 765.968 510.616 765.488C511.16 765.008 511.432 764.392 511.432 763.64C511.432 762.792 511.168 762.144 510.64 761.696C510.112 761.248 509.376 761.024 508.432 761.024C507.488 761.024 506.752 761.248 506.224 761.696C505.696 762.144 505.432 762.792 505.432 763.64C505.432 764.392 505.696 765.008 506.224 765.488C506.752 765.968 507.488 766.208 508.432 766.208ZM508.432 774.128C509.584 774.128 510.448 773.856 511.024 773.312C511.6 772.752 511.888 772.04 511.888 771.176C511.888 770.216 511.576 769.48 510.952 768.968C510.344 768.44 509.504 768.176 508.432 768.176C507.36 768.176 506.512 768.44 505.888 768.968C505.264 769.48 504.952 770.216 504.952 771.176C504.952 772.04 505.24 772.752 505.816 773.312C506.408 773.856 507.28 774.128 508.432 774.128ZM523.53 776V764.096H525.81L526.026 766.352C526.442 765.568 527.018 764.952 527.754 764.504C528.506 764.04 529.41 763.808 530.466 763.808V766.472H529.77C529.066 766.472 528.434 766.592 527.874 766.832C527.33 767.056 526.89 767.448 526.554 768.008C526.234 768.552 526.074 769.312 526.074 770.288V776H523.53ZM537.887 776.288C536.719 776.288 535.679 776.032 534.767 775.52C533.871 774.992 533.167 774.264 532.655 773.336C532.143 772.408 531.887 771.328 531.887 770.096C531.887 768.848 532.135 767.752 532.631 766.808C533.143 765.864 533.847 765.128 534.743 764.6C535.655 764.072 536.711 763.808 537.911 763.808C539.079 763.808 540.095 764.072 540.959 764.6C541.823 765.112 542.495 765.8 542.975 766.664C543.455 767.528 543.695 768.48 543.695 769.52C543.695 769.68 543.687 769.856 543.671 770.048C543.671 770.224 543.663 770.424 543.647 770.648H534.383C534.463 771.8 534.839 772.68 535.511 773.288C536.199 773.88 536.991 774.176 537.887 774.176C538.607 774.176 539.207 774.016 539.687 773.696C540.183 773.36 540.551 772.912 540.791 772.352H543.335C543.015 773.472 542.375 774.408 541.415 775.16C540.471 775.912 539.295 776.288 537.887 776.288ZM537.887 765.896C537.039 765.896 536.287 766.152 535.631 766.664C534.975 767.16 534.575 767.912 534.431 768.92H541.151C541.103 767.992 540.775 767.256 540.167 766.712C539.559 766.168 538.799 765.896 537.887 765.896ZM551.087 776.288C549.583 776.288 548.343 775.92 547.367 775.184C546.391 774.448 545.831 773.472 545.687 772.256H548.255C548.383 772.8 548.687 773.272 549.167 773.672C549.647 774.056 550.279 774.248 551.063 774.248C551.831 774.248 552.391 774.088 552.743 773.768C553.095 773.448 553.271 773.08 553.271 772.664C553.271 772.056 553.023 771.648 552.527 771.44C552.047 771.216 551.375 771.016 550.511 770.84C549.839 770.696 549.167 770.504 548.495 770.264C547.839 770.024 547.287 769.688 546.839 769.256C546.407 768.808 546.191 768.208 546.191 767.456C546.191 766.416 546.591 765.552 547.391 764.864C548.191 764.16 549.311 763.808 550.751 763.808C552.079 763.808 553.151 764.128 553.967 764.768C554.799 765.408 555.287 766.312 555.431 767.48H552.983C552.903 766.968 552.663 766.568 552.263 766.28C551.879 765.992 551.359 765.848 550.703 765.848C550.063 765.848 549.567 765.984 549.215 766.256C548.863 766.512 548.687 766.848 548.687 767.264C548.687 767.68 548.927 768.008 549.407 768.248C549.903 768.488 550.551 768.704 551.351 768.896C552.151 769.072 552.887 769.28 553.559 769.52C554.247 769.744 554.799 770.08 555.215 770.528C555.631 770.976 555.839 771.632 555.839 772.496C555.855 773.584 555.431 774.488 554.567 775.208C553.719 775.928 552.559 776.288 551.087 776.288ZM558.616 781.28V764.096H560.896L561.16 765.944C561.544 765.384 562.072 764.888 562.744 764.456C563.416 764.024 564.28 763.808 565.336 763.808C566.488 763.808 567.504 764.08 568.384 764.624C569.264 765.168 569.952 765.912 570.448 766.856C570.96 767.8 571.216 768.872 571.216 770.072C571.216 771.272 570.96 772.344 570.448 773.288C569.952 774.216 569.264 774.952 568.384 775.496C567.504 776.024 566.48 776.288 565.312 776.288C564.384 776.288 563.56 776.104 562.84 775.736C562.136 775.368 561.576 774.848 561.16 774.176V781.28H558.616ZM564.88 774.08C565.968 774.08 566.864 773.712 567.568 772.976C568.272 772.224 568.624 771.248 568.624 770.048C568.624 769.264 568.464 768.568 568.144 767.96C567.824 767.352 567.384 766.88 566.824 766.544C566.264 766.192 565.616 766.016 564.88 766.016C563.792 766.016 562.896 766.392 562.192 767.144C561.504 767.896 561.16 768.864 561.16 770.048C561.16 771.248 561.504 772.224 562.192 772.976C562.896 773.712 563.792 774.08 564.88 774.08ZM579.535 776.288C578.399 776.288 577.375 776.032 576.463 775.52C575.567 774.992 574.855 774.264 574.327 773.336C573.799 772.392 573.535 771.296 573.535 770.048C573.535 768.8 573.799 767.712 574.327 766.784C574.871 765.84 575.599 765.112 576.511 764.6C577.423 764.072 578.439 763.808 579.559 763.808C580.695 763.808 581.711 764.072 582.607 764.6C583.519 765.112 584.239 765.84 584.767 766.784C585.311 767.712 585.583 768.8 585.583 770.048C585.583 771.296 585.311 772.392 584.767 773.336C584.239 774.264 583.519 774.992 582.607 775.52C581.695 776.032 580.671 776.288 579.535 776.288ZM579.535 774.104C580.143 774.104 580.703 773.952 581.215 773.648C581.743 773.344 582.167 772.896 582.487 772.304C582.807 771.696 582.967 770.944 582.967 770.048C582.967 769.152 582.807 768.408 582.487 767.816C582.183 767.208 581.767 766.752 581.239 766.448C580.727 766.144 580.167 765.992 579.559 765.992C578.951 765.992 578.383 766.144 577.855 766.448C577.343 766.752 576.927 767.208 576.607 767.816C576.287 768.408 576.127 769.152 576.127 770.048C576.127 770.944 576.287 771.696 576.607 772.304C576.927 772.896 577.343 773.344 577.855 773.648C578.367 773.952 578.927 774.104 579.535 774.104ZM588.335 776V764.096H590.591L590.783 766.184C591.151 765.448 591.687 764.872 592.391 764.456C593.111 764.024 593.935 763.808 594.863 763.808C596.303 763.808 597.431 764.256 598.247 765.152C599.079 766.048 599.495 767.384 599.495 769.16V776H596.975V769.424C596.975 767.12 596.031 765.968 594.143 765.968C593.199 765.968 592.415 766.304 591.791 766.976C591.183 767.648 590.879 768.608 590.879 769.856V776H588.335ZM607.915 776.288C606.763 776.288 605.747 776.016 604.867 775.472C603.987 774.928 603.299 774.184 602.803 773.24C602.307 772.296 602.059 771.224 602.059 770.024C602.059 768.824 602.307 767.76 602.803 766.832C603.299 765.888 603.987 765.152 604.867 764.624C605.763 764.08 606.787 763.808 607.939 763.808C608.883 763.808 609.707 763.992 610.411 764.36C611.131 764.728 611.691 765.248 612.091 765.92V758.72H614.635V776H612.355L612.091 774.152C611.707 774.712 611.179 775.208 610.507 775.64C609.835 776.072 608.971 776.288 607.915 776.288ZM608.371 774.08C609.459 774.08 610.347 773.704 611.035 772.952C611.739 772.2 612.091 771.232 612.091 770.048C612.091 768.848 611.739 767.88 611.035 767.144C610.347 766.392 609.459 766.016 608.371 766.016C607.283 766.016 606.387 766.392 605.683 767.144C604.979 767.88 604.627 768.848 604.627 770.048C604.627 770.832 604.787 771.528 605.107 772.136C605.427 772.744 605.867 773.224 606.427 773.576C607.003 773.912 607.651 774.08 608.371 774.08ZM623.41 776.288C622.242 776.288 621.202 776.032 620.29 775.52C619.394 774.992 618.69 774.264 618.178 773.336C617.666 772.408 617.41 771.328 617.41 770.096C617.41 768.848 617.658 767.752 618.154 766.808C618.666 765.864 619.37 765.128 620.266 764.6C621.178 764.072 622.234 763.808 623.434 763.808C624.602 763.808 625.618 764.072 626.482 764.6C627.346 765.112 628.018 765.8 628.498 766.664C628.978 767.528 629.218 768.48 629.218 769.52C629.218 769.68 629.21 769.856 629.194 770.048C629.194 770.224 629.186 770.424 629.17 770.648H619.906C619.986 771.8 620.362 772.68 621.034 773.288C621.722 773.88 622.514 774.176 623.41 774.176C624.13 774.176 624.73 774.016 625.21 773.696C625.706 773.36 626.074 772.912 626.314 772.352H628.858C628.538 773.472 627.898 774.408 626.938 775.16C625.994 775.912 624.818 776.288 623.41 776.288ZM623.41 765.896C622.562 765.896 621.81 766.152 621.154 766.664C620.498 767.16 620.098 767.912 619.954 768.92H626.674C626.626 767.992 626.298 767.256 625.69 766.712C625.082 766.168 624.322 765.896 623.41 765.896ZM631.858 776V764.096H634.114L634.306 766.184C634.674 765.448 635.21 764.872 635.914 764.456C636.634 764.024 637.458 763.808 638.386 763.808C639.826 763.808 640.954 764.256 641.77 765.152C642.602 766.048 643.018 767.384 643.018 769.16V776H640.498V769.424C640.498 767.12 639.554 765.968 637.666 765.968C636.722 765.968 635.938 766.304 635.314 766.976C634.706 767.648 634.402 768.608 634.402 769.856V776H631.858ZM651.006 776C649.838 776 648.91 775.72 648.222 775.16C647.534 774.584 647.19 773.568 647.19 772.112V766.232H645.15V764.096H647.19L647.502 761.072H649.734V764.096H653.094V766.232H649.734V772.112C649.734 772.768 649.87 773.224 650.142 773.48C650.43 773.72 650.918 773.84 651.606 773.84H652.974V776H651.006ZM660.469 776.288C658.965 776.288 657.725 775.92 656.749 775.184C655.773 774.448 655.213 773.472 655.069 772.256H657.637C657.765 772.8 658.069 773.272 658.549 773.672C659.029 774.056 659.661 774.248 660.445 774.248C661.213 774.248 661.773 774.088 662.125 773.768C662.477 773.448 662.653 773.08 662.653 772.664C662.653 772.056 662.405 771.648 661.909 771.44C661.429 771.216 660.757 771.016 659.893 770.84C659.221 770.696 658.549 770.504 657.877 770.264C657.221 770.024 656.669 769.688 656.221 769.256C655.789 768.808 655.573 768.208 655.573 767.456C655.573 766.416 655.973 765.552 656.773 764.864C657.573 764.16 658.693 763.808 660.133 763.808C661.461 763.808 662.533 764.128 663.349 764.768C664.181 765.408 664.669 766.312 664.813 767.48H662.365C662.285 766.968 662.045 766.568 661.645 766.28C661.261 765.992 660.741 765.848 660.085 765.848C659.445 765.848 658.949 765.984 658.597 766.256C658.245 766.512 658.069 766.848 658.069 767.264C658.069 767.68 658.309 768.008 658.789 768.248C659.285 768.488 659.933 768.704 660.733 768.896C661.533 769.072 662.269 769.28 662.941 769.52C663.629 769.744 664.181 770.08 664.597 770.528C665.013 770.976 665.221 771.632 665.221 772.496C665.237 773.584 664.813 774.488 663.949 775.208C663.101 775.928 661.941 776.288 660.469 776.288Z" fill="black"/>
<path d="M641.368 78V76.176C642.456 75.312 643.496 74.44 644.488 73.56C645.48 72.68 646.36 71.816 647.128 70.968C647.912 70.104 648.528 69.264 648.976 68.448C649.424 67.616 649.648 66.816 649.648 66.048C649.648 65.536 649.56 65.056 649.384 64.608C649.208 64.144 648.92 63.776 648.52 63.504C648.12 63.216 647.584 63.072 646.912 63.072C645.904 63.072 645.144 63.392 644.632 64.032C644.136 64.672 643.896 65.44 643.912 66.336H641.44C641.456 65.152 641.704 64.16 642.184 63.36C642.68 62.56 643.336 61.952 644.152 61.536C644.984 61.12 645.92 60.912 646.96 60.912C648.544 60.912 649.808 61.36 650.752 62.256C651.712 63.136 652.192 64.368 652.192 65.952C652.192 66.896 651.96 67.832 651.496 68.76C651.048 69.688 650.456 70.584 649.72 71.448C649 72.296 648.224 73.096 647.392 73.848C646.56 74.6 645.768 75.28 645.016 75.888H652.696V78H641.368ZM660.891 78.288C659.787 78.288 658.843 78.072 658.059 77.64C657.275 77.208 656.659 76.632 656.211 75.912C655.779 75.192 655.515 74.408 655.419 73.56H657.795C657.939 74.392 658.283 75.032 658.827 75.48C659.371 75.928 660.067 76.152 660.915 76.152C662.083 76.152 663.043 75.608 663.795 74.52C664.563 73.416 664.971 71.728 665.019 69.456C664.635 70.16 664.035 70.76 663.219 71.256C662.419 71.752 661.491 72 660.435 72C659.491 72 658.603 71.776 657.771 71.328C656.939 70.88 656.267 70.256 655.755 69.456C655.243 68.64 654.987 67.68 654.987 66.576C654.987 65.6 655.227 64.68 655.707 63.816C656.187 62.952 656.859 62.256 657.723 61.728C658.603 61.184 659.643 60.912 660.843 60.912C662.075 60.912 663.115 61.144 663.963 61.608C664.811 62.072 665.491 62.688 666.003 63.456C666.515 64.224 666.883 65.088 667.107 66.048C667.347 67.008 667.467 67.992 667.467 69C667.467 70.856 667.203 72.48 666.675 73.872C666.163 75.264 665.419 76.352 664.443 77.136C663.467 77.904 662.283 78.288 660.891 78.288ZM661.011 69.816C661.683 69.816 662.283 69.664 662.811 69.36C663.339 69.056 663.755 68.656 664.059 68.16C664.379 67.648 664.539 67.088 664.539 66.48C664.539 65.824 664.379 65.248 664.059 64.752C663.755 64.24 663.331 63.84 662.787 63.552C662.259 63.264 661.659 63.12 660.987 63.12C660.315 63.12 659.715 63.264 659.187 63.552C658.659 63.84 658.235 64.24 657.915 64.752C657.611 65.248 657.459 65.816 657.459 66.456C657.459 67.48 657.795 68.296 658.467 68.904C659.139 69.512 659.987 69.816 661.011 69.816ZM673.655 69.216C672.903 69.216 672.223 69.048 671.615 68.712C671.023 68.376 670.551 67.904 670.199 67.296C669.847 66.672 669.671 65.928 669.671 65.064C669.671 64.216 669.847 63.488 670.199 62.88C670.551 62.256 671.031 61.776 671.639 61.44C672.247 61.104 672.927 60.936 673.679 60.936C674.415 60.936 675.079 61.104 675.671 61.44C676.279 61.776 676.759 62.256 677.111 62.88C677.463 63.488 677.639 64.216 677.639 65.064C677.639 65.928 677.463 66.672 677.111 67.296C676.759 67.904 676.279 68.376 675.671 68.712C675.079 69.048 674.407 69.216 673.655 69.216ZM672.455 78L682.079 61.2H684.575L674.975 78H672.455ZM673.655 67.392C674.167 67.392 674.607 67.2 674.975 66.816C675.359 66.416 675.551 65.832 675.551 65.064C675.551 64.296 675.367 63.72 674.999 63.336C674.631 62.936 674.183 62.736 673.655 62.736C673.143 62.736 672.695 62.936 672.311 63.336C671.927 63.72 671.735 64.296 671.735 65.064C671.735 65.832 671.919 66.416 672.287 66.816C672.671 67.2 673.127 67.392 673.655 67.392ZM683.519 78.288C682.767 78.288 682.087 78.12 681.479 77.784C680.887 77.448 680.415 76.976 680.063 76.368C679.711 75.744 679.535 75 679.535 74.136C679.535 73.288 679.711 72.552 680.063 71.928C680.415 71.304 680.895 70.824 681.503 70.488C682.111 70.152 682.791 69.984 683.543 69.984C684.279 69.984 684.943 70.152 685.535 70.488C686.143 70.824 686.623 71.304 686.975 71.928C687.327 72.552 687.503 73.288 687.503 74.136C687.503 75 687.327 75.744 686.975 76.368C686.623 76.976 686.143 77.448 685.535 77.784C684.943 78.12 684.271 78.288 683.519 78.288ZM683.519 76.44C684.031 76.44 684.471 76.248 684.839 75.864C685.223 75.48 685.415 74.904 685.415 74.136C685.415 73.368 685.231 72.792 684.863 72.408C684.495 72.008 684.047 71.808 683.519 71.808C683.007 71.808 682.559 72.008 682.175 72.408C681.791 72.792 681.599 73.368 681.599 74.136C681.599 74.904 681.783 75.48 682.151 75.864C682.535 76.248 682.991 76.44 683.519 76.44Z" fill="black"/>
<path d="M821.36 222V218.64H812.936V216.624L820.952 205.2H823.88V216.432H826.232V218.64H823.88V222H821.36ZM815.696 216.432H821.504V208.008L815.696 216.432ZM834.513 222.288C833.329 222.288 832.305 222.08 831.441 221.664C830.577 221.232 829.889 220.648 829.377 219.912C828.881 219.16 828.577 218.312 828.465 217.368H830.961C831.121 218.168 831.521 218.832 832.161 219.36C832.801 219.872 833.593 220.128 834.537 220.128C835.241 220.128 835.849 219.96 836.361 219.624C836.873 219.272 837.273 218.808 837.561 218.232C837.849 217.656 837.993 217.008 837.993 216.288C837.993 215.152 837.673 214.248 837.033 213.576C836.393 212.888 835.585 212.544 834.609 212.544C833.777 212.544 833.065 212.744 832.473 213.144C831.881 213.528 831.449 214.016 831.177 214.608H828.753L830.193 205.2H839.265V207.432H832.113L831.249 211.92C831.617 211.504 832.121 211.16 832.761 210.888C833.417 210.6 834.153 210.456 834.969 210.456C836.105 210.456 837.081 210.72 837.897 211.248C838.713 211.76 839.337 212.456 839.769 213.336C840.217 214.216 840.441 215.192 840.441 216.264C840.441 217.384 840.201 218.4 839.721 219.312C839.241 220.224 838.553 220.952 837.657 221.496C836.777 222.024 835.729 222.288 834.513 222.288ZM846.686 213.216C845.934 213.216 845.254 213.048 844.646 212.712C844.054 212.376 843.582 211.904 843.23 211.296C842.878 210.672 842.702 209.928 842.702 209.064C842.702 208.216 842.878 207.488 843.23 206.88C843.582 206.256 844.062 205.776 844.67 205.44C845.278 205.104 845.958 204.936 846.71 204.936C847.446 204.936 848.11 205.104 848.702 205.44C849.31 205.776 849.79 206.256 850.142 206.88C850.494 207.488 850.67 208.216 850.67 209.064C850.67 209.928 850.494 210.672 850.142 211.296C849.79 211.904 849.31 212.376 848.702 212.712C848.11 213.048 847.438 213.216 846.686 213.216ZM845.486 222L855.11 205.2H857.606L848.006 222H845.486ZM846.686 211.392C847.198 211.392 847.638 211.2 848.006 210.816C848.39 210.416 848.582 209.832 848.582 209.064C848.582 208.296 848.398 207.72 848.03 207.336C847.662 206.936 847.214 206.736 846.686 206.736C846.174 206.736 845.726 206.936 845.342 207.336C844.958 207.72 844.766 208.296 844.766 209.064C844.766 209.832 844.95 210.416 845.318 210.816C845.702 211.2 846.158 211.392 846.686 211.392ZM856.55 222.288C855.798 222.288 855.118 222.12 854.51 221.784C853.918 221.448 853.446 220.976 853.094 220.368C852.742 219.744 852.566 219 852.566 218.136C852.566 217.288 852.742 216.552 853.094 215.928C853.446 215.304 853.926 214.824 854.534 214.488C855.142 214.152 855.822 213.984 856.574 213.984C857.31 213.984 857.974 214.152 858.566 214.488C859.174 214.824 859.654 215.304 860.006 215.928C860.358 216.552 860.534 217.288 860.534 218.136C860.534 219 860.358 219.744 860.006 220.368C859.654 220.976 859.174 221.448 858.566 221.784C857.974 222.12 857.302 222.288 856.55 222.288ZM856.55 220.44C857.062 220.44 857.502 220.248 857.87 219.864C858.254 219.48 858.446 218.904 858.446 218.136C858.446 217.368 858.262 216.792 857.894 216.408C857.526 216.008 857.078 215.808 856.55 215.808C856.038 215.808 855.59 216.008 855.206 216.408C854.822 216.792 854.63 217.368 854.63 218.136C854.63 218.904 854.814 219.48 855.182 219.864C855.566 220.248 856.022 220.44 856.55 220.44Z" fill="black"/>
<path d="M525.432 366V352.08L522.72 352.704V350.832L526.44 349.2H528.072V366H525.432ZM537.125 366.288C536.021 366.288 535.077 366.072 534.293 365.64C533.509 365.208 532.893 364.632 532.445 363.912C532.013 363.192 531.749 362.408 531.653 361.56H534.029C534.173 362.392 534.517 363.032 535.061 363.48C535.605 363.928 536.301 364.152 537.149 364.152C538.317 364.152 539.277 363.608 540.029 362.52C540.797 361.416 541.205 359.728 541.253 357.456C540.869 358.16 540.269 358.76 539.453 359.256C538.653 359.752 537.725 360 536.669 360C535.725 360 534.837 359.776 534.005 359.328C533.173 358.88 532.501 358.256 531.989 357.456C531.477 356.64 531.221 355.68 531.221 354.576C531.221 353.6 531.461 352.68 531.941 351.816C532.421 350.952 533.093 350.256 533.957 349.728C534.837 349.184 535.877 348.912 537.077 348.912C538.309 348.912 539.349 349.144 540.197 349.608C541.045 350.072 541.725 350.688 542.237 351.456C542.749 352.224 543.117 353.088 543.341 354.048C543.581 355.008 543.701 355.992 543.701 357C543.701 358.856 543.437 360.48 542.909 361.872C542.397 363.264 541.653 364.352 540.677 365.136C539.701 365.904 538.517 366.288 537.125 366.288ZM537.245 357.816C537.917 357.816 538.517 357.664 539.045 357.36C539.573 357.056 539.989 356.656 540.293 356.16C540.613 355.648 540.773 355.088 540.773 354.48C540.773 353.824 540.613 353.248 540.293 352.752C539.989 352.24 539.565 351.84 539.021 351.552C538.493 351.264 537.893 351.12 537.221 351.12C536.549 351.12 535.949 351.264 535.421 351.552C534.893 351.84 534.469 352.24 534.149 352.752C533.845 353.248 533.693 353.816 533.693 354.456C533.693 355.48 534.029 356.296 534.701 356.904C535.373 357.512 536.221 357.816 537.245 357.816ZM549.889 357.216C549.137 357.216 548.457 357.048 547.849 356.712C547.257 356.376 546.785 355.904 546.433 355.296C546.081 354.672 545.905 353.928 545.905 353.064C545.905 352.216 546.081 351.488 546.433 350.88C546.785 350.256 547.265 349.776 547.873 349.44C548.481 349.104 549.161 348.936 549.913 348.936C550.649 348.936 551.313 349.104 551.905 349.44C552.513 349.776 552.993 350.256 553.345 350.88C553.697 351.488 553.873 352.216 553.873 353.064C553.873 353.928 553.697 354.672 553.345 355.296C552.993 355.904 552.513 356.376 551.905 356.712C551.313 357.048 550.641 357.216 549.889 357.216ZM548.689 366L558.313 349.2H560.809L551.209 366H548.689ZM549.889 355.392C550.401 355.392 550.841 355.2 551.209 354.816C551.593 354.416 551.785 353.832 551.785 353.064C551.785 352.296 551.601 351.72 551.233 351.336C550.865 350.936 550.417 350.736 549.889 350.736C549.377 350.736 548.929 350.936 548.545 351.336C548.161 351.72 547.969 352.296 547.969 353.064C547.969 353.832 548.153 354.416 548.521 354.816C548.905 355.2 549.361 355.392 549.889 355.392ZM559.753 366.288C559.001 366.288 558.321 366.12 557.713 365.784C557.121 365.448 556.649 364.976 556.297 364.368C555.945 363.744 555.769 363 555.769 362.136C555.769 361.288 555.945 360.552 556.297 359.928C556.649 359.304 557.129 358.824 557.737 358.488C558.345 358.152 559.025 357.984 559.777 357.984C560.513 357.984 561.177 358.152 561.769 358.488C562.377 358.824 562.857 359.304 563.209 359.928C563.561 360.552 563.737 361.288 563.737 362.136C563.737 363 563.561 363.744 563.209 364.368C562.857 364.976 562.377 365.448 561.769 365.784C561.177 366.12 560.505 366.288 559.753 366.288ZM559.753 364.44C560.265 364.44 560.705 364.248 561.073 363.864C561.457 363.48 561.649 362.904 561.649 362.136C561.649 361.368 561.465 360.792 561.097 360.408C560.729 360.008 560.281 359.808 559.753 359.808C559.241 359.808 558.793 360.008 558.409 360.408C558.025 360.792 557.833 361.368 557.833 362.136C557.833 362.904 558.017 363.48 558.385 363.864C558.769 364.248 559.225 364.44 559.753 364.44Z" fill="black"/>
<path d="M385.56 510.288C384.376 510.288 383.352 510.08 382.488 509.664C381.624 509.232 380.936 508.648 380.424 507.912C379.928 507.16 379.624 506.312 379.512 505.368H382.008C382.168 506.168 382.568 506.832 383.208 507.36C383.848 507.872 384.64 508.128 385.584 508.128C386.288 508.128 386.896 507.96 387.408 507.624C387.92 507.272 388.32 506.808 388.608 506.232C388.896 505.656 389.04 505.008 389.04 504.288C389.04 503.152 388.72 502.248 388.08 501.576C387.44 500.888 386.632 500.544 385.656 500.544C384.824 500.544 384.112 500.744 383.52 501.144C382.928 501.528 382.496 502.016 382.224 502.608H379.8L381.24 493.2H390.312V495.432H383.16L382.296 499.92C382.664 499.504 383.168 499.16 383.808 498.888C384.464 498.6 385.2 498.456 386.016 498.456C387.152 498.456 388.128 498.72 388.944 499.248C389.76 499.76 390.384 500.456 390.816 501.336C391.264 502.216 391.488 503.192 391.488 504.264C391.488 505.384 391.248 506.4 390.768 507.312C390.288 508.224 389.6 508.952 388.704 509.496C387.824 510.024 386.776 510.288 385.56 510.288ZM397.733 501.216C396.981 501.216 396.301 501.048 395.693 500.712C395.101 500.376 394.629 499.904 394.277 499.296C393.925 498.672 393.749 497.928 393.749 497.064C393.749 496.216 393.925 495.488 394.277 494.88C394.629 494.256 395.109 493.776 395.717 493.44C396.325 493.104 397.005 492.936 397.757 492.936C398.493 492.936 399.157 493.104 399.749 493.44C400.357 493.776 400.837 494.256 401.189 494.88C401.541 495.488 401.717 496.216 401.717 497.064C401.717 497.928 401.541 498.672 401.189 499.296C400.837 499.904 400.357 500.376 399.749 500.712C399.157 501.048 398.485 501.216 397.733 501.216ZM396.533 510L406.157 493.2H408.653L399.053 510H396.533ZM397.733 499.392C398.245 499.392 398.685 499.2 399.053 498.816C399.437 498.416 399.629 497.832 399.629 497.064C399.629 496.296 399.445 495.72 399.077 495.336C398.709 494.936 398.261 494.736 397.733 494.736C397.221 494.736 396.773 494.936 396.389 495.336C396.005 495.72 395.813 496.296 395.813 497.064C395.813 497.832 395.997 498.416 396.365 498.816C396.749 499.2 397.205 499.392 397.733 499.392ZM407.597 510.288C406.845 510.288 406.165 510.12 405.557 509.784C404.965 509.448 404.493 508.976 404.141 508.368C403.789 507.744 403.613 507 403.613 506.136C403.613 505.288 403.789 504.552 404.141 503.928C404.493 503.304 404.973 502.824 405.581 502.488C406.189 502.152 406.869 501.984 407.621 501.984C408.357 501.984 409.021 502.152 409.613 502.488C410.221 502.824 410.701 503.304 411.053 503.928C411.405 504.552 411.581 505.288 411.581 506.136C411.581 507 411.405 507.744 411.053 508.368C410.701 508.976 410.221 509.448 409.613 509.784C409.021 510.12 408.349 510.288 407.597 510.288ZM407.597 508.44C408.109 508.44 408.549 508.248 408.917 507.864C409.301 507.48 409.493 506.904 409.493 506.136C409.493 505.368 409.309 504.792 408.941 504.408C408.573 504.008 408.125 503.808 407.597 503.808C407.085 503.808 406.637 504.008 406.253 504.408C405.869 504.792 405.677 505.368 405.677 506.136C405.677 506.904 405.861 507.48 406.229 507.864C406.613 508.248 407.069 508.44 407.597 508.44Z" fill="black"/>
<path d="M349.368 654V652.176C350.456 651.312 351.496 650.44 352.488 649.56C353.48 648.68 354.36 647.816 355.128 646.968C355.912 646.104 356.528 645.264 356.976 644.448C357.424 643.616 357.648 642.816 357.648 642.048C357.648 641.536 357.56 641.056 357.384 640.608C357.208 640.144 356.92 639.776 356.52 639.504C356.12 639.216 355.584 639.072 354.912 639.072C353.904 639.072 353.144 639.392 352.632 640.032C352.136 640.672 351.896 641.44 351.912 642.336H349.44C349.456 641.152 349.704 640.16 350.184 639.36C350.68 638.56 351.336 637.952 352.152 637.536C352.984 637.12 353.92 636.912 354.96 636.912C356.544 636.912 357.808 637.36 358.752 638.256C359.712 639.136 360.192 640.368 360.192 641.952C360.192 642.896 359.96 643.832 359.496 644.76C359.048 645.688 358.456 646.584 357.72 647.448C357 648.296 356.224 649.096 355.392 649.848C354.56 650.6 353.768 651.28 353.016 651.888H360.696V654H349.368ZM366.678 645.216C365.926 645.216 365.246 645.048 364.638 644.712C364.046 644.376 363.574 643.904 363.222 643.296C362.87 642.672 362.694 641.928 362.694 641.064C362.694 640.216 362.87 639.488 363.222 638.88C363.574 638.256 364.054 637.776 364.662 637.44C365.27 637.104 365.95 636.936 366.702 636.936C367.438 636.936 368.102 637.104 368.694 637.44C369.302 637.776 369.782 638.256 370.134 638.88C370.486 639.488 370.662 640.216 370.662 641.064C370.662 641.928 370.486 642.672 370.134 643.296C369.782 643.904 369.302 644.376 368.694 644.712C368.102 645.048 367.43 645.216 366.678 645.216ZM365.478 654L375.102 637.2H377.598L367.998 654H365.478ZM366.678 643.392C367.19 643.392 367.63 643.2 367.998 642.816C368.382 642.416 368.574 641.832 368.574 641.064C368.574 640.296 368.39 639.72 368.022 639.336C367.654 638.936 367.206 638.736 366.678 638.736C366.166 638.736 365.718 638.936 365.334 639.336C364.95 639.72 364.758 640.296 364.758 641.064C364.758 641.832 364.942 642.416 365.31 642.816C365.694 643.2 366.15 643.392 366.678 643.392ZM376.542 654.288C375.79 654.288 375.11 654.12 374.502 653.784C373.91 653.448 373.438 652.976 373.086 652.368C372.734 651.744 372.558 651 372.558 650.136C372.558 649.288 372.734 648.552 373.086 647.928C373.438 647.304 373.918 646.824 374.526 646.488C375.134 646.152 375.814 645.984 376.566 645.984C377.302 645.984 377.966 646.152 378.558 646.488C379.166 646.824 379.646 647.304 379.998 647.928C380.35 648.552 380.526 649.288 380.526 650.136C380.526 651 380.35 651.744 379.998 652.368C379.646 652.976 379.166 653.448 378.558 653.784C377.966 654.12 377.294 654.288 376.542 654.288ZM376.542 652.44C377.054 652.44 377.494 652.248 377.862 651.864C378.246 651.48 378.438 650.904 378.438 650.136C378.438 649.368 378.254 648.792 377.886 648.408C377.518 648.008 377.07 647.808 376.542 647.808C376.03 647.808 375.582 648.008 375.198 648.408C374.814 648.792 374.622 649.368 374.622 650.136C374.622 650.904 374.806 651.48 375.174 651.864C375.558 652.248 376.014 652.44 376.542 652.44Z" fill="black"/>
</svg>
