<svg width="14" height="15" viewBox="0 0 14 15" fill="none" xmlns="http://www.w3.org/2000/svg">
<rect x="0.5" y="0.552002" width="13" height="13" rx="6.5" stroke="#D70000"/>
<path d="M6.43323 8.568L6.28923 2.652H7.65723L7.51323 8.568H6.43323ZM7.00923 11.124C6.76123 11.124 6.55723 11.048 6.39723 10.896C6.24523 10.736 6.16923 10.548 6.16923 10.332C6.16923 10.108 6.24523 9.92 6.39723 9.768C6.55723 9.608 6.76123 9.528 7.00923 9.528C7.24123 9.528 7.43323 9.608 7.58523 9.768C7.74523 9.92 7.82523 10.108 7.82523 10.332C7.82523 10.548 7.74523 10.736 7.58523 10.896C7.43323 11.048 7.24123 11.124 7.00923 11.124Z" fill="#D70000"/>
</svg>
