<svg width="20" height="24" viewBox="0 0 20 24" fill="none" xmlns="http://www.w3.org/2000/svg">
<g id="linkedin-in-brands-solid">
<path id="Vector" d="M4.47768 20.5713H0.330357V7.21861H4.47768V20.5713ZM2.40179 5.39718C1.07589 5.39718 0 4.29897 0 2.97307C0 2.33608 0.253045 1.72518 0.703467 1.27476C1.15389 0.824334 1.76479 0.571289 2.40179 0.571289C3.03878 0.571289 3.64968 0.824334 4.1001 1.27476C4.55053 1.72518 4.80357 2.33608 4.80357 2.97307C4.80357 4.29897 3.72768 5.39718 2.40179 5.39718ZM19.9955 20.5713H15.8571V14.0713C15.8571 12.5222 15.8259 10.5356 13.7009 10.5356C11.5446 10.5356 11.2143 12.2186 11.2143 13.9597V20.5713H7.07143V7.21861H11.0491V9.04004H11.1071C11.6607 7.99093 13.0134 6.88379 15.0313 6.88379C19.2277 6.88379 20 9.64718 20 13.2365V20.5713H19.9955Z" fill="black" fill-opacity="0.8"/>
</g>
</svg>
