<svg xmlns="http://www.w3.org/2000/svg" width="80" height="84" viewBox="0 0 80 84" fill="none">
<path d="M38.0335 2.60817C38.4377 0.427558 41.5623 0.427561 41.9665 2.60817L45.2304 20.2149C45.5195 21.7748 47.4227 22.3932 48.5735 21.3012L61.563 8.97546C63.1718 7.44891 65.6996 9.28546 64.7449 11.2872L57.0364 27.4498C56.3535 28.8817 57.5297 30.5007 59.1026 30.2937L76.8562 27.957C79.055 27.6676 80.0205 30.6392 78.0715 31.6975L62.3351 40.2424C60.941 40.9994 60.941 43.0006 62.3351 43.7576L78.0715 52.3025C80.0205 53.3608 79.055 56.3324 76.8562 56.043L59.1026 53.7063C57.5297 53.4993 56.3535 55.1183 57.0364 56.5502L64.7449 72.7128C65.6996 74.7145 63.1718 76.5511 61.563 75.0245L48.5735 62.6988C47.4227 61.6068 45.5195 62.2252 45.2304 63.7851L41.9665 81.3918C41.5623 83.5724 38.4377 83.5724 38.0335 81.3918L34.7696 63.7851C34.4805 62.2252 32.5773 61.6068 31.4265 62.6988L18.437 75.0245C16.8282 76.5511 14.3004 74.7145 15.2551 72.7128L22.9636 56.5502C23.6465 55.1183 22.4703 53.4993 20.8974 53.7063L3.14382 56.043C0.945023 56.3324 -0.0205069 53.3608 1.92846 52.3025L17.6649 43.7576C19.059 43.0006 19.059 40.9994 17.6649 40.2424L1.92846 31.6975C-0.0205088 30.6392 0.945026 27.6676 3.14383 27.957L20.8974 30.2937C22.4703 30.5007 23.6465 28.8817 22.9636 27.4498L15.2551 11.2872C14.3004 9.28546 16.8282 7.44891 18.437 8.97546L31.4265 21.3012C32.5773 22.3932 34.4805 21.7748 34.7696 20.2149L38.0335 2.60817Z" fill="#E36DE5"/>
</svg>