<svg width="26" height="20" viewBox="0 0 26 20" fill="none" xmlns="http://www.w3.org/2000/svg">
<g id="envelope-regular" clip-path="url(#clip0_475_2736)">
<path id="Vector" d="M3.625 2.96875C3.19531 2.96875 2.84375 3.32031 2.84375 3.75V4.8291L11.2666 11.7432C12.2773 12.5732 13.7275 12.5732 14.7383 11.7432L23.1562 4.8291V3.75C23.1562 3.32031 22.8047 2.96875 22.375 2.96875H3.625ZM2.84375 7.86133V16.25C2.84375 16.6797 3.19531 17.0312 3.625 17.0312H22.375C22.8047 17.0312 23.1562 16.6797 23.1562 16.25V7.86133L16.2227 13.5547C14.3477 15.0928 11.6475 15.0928 9.77734 13.5547L2.84375 7.86133ZM0.5 3.75C0.5 2.02637 1.90137 0.625 3.625 0.625H22.375C24.0986 0.625 25.5 2.02637 25.5 3.75V16.25C25.5 17.9736 24.0986 19.375 22.375 19.375H3.625C1.90137 19.375 0.5 17.9736 0.5 16.25V3.75Z" fill="black"/>
</g>
<defs>
<clipPath id="clip0_475_2736">
<rect width="25" height="20" fill="white" transform="translate(0.5)"/>
</clipPath>
</defs>
</svg>
