<svg width="100" height="100" viewBox="0 0 100 100" fill="none" xmlns="http://www.w3.org/2000/svg">
<path id="Union" fill-rule="evenodd" clip-rule="evenodd" d="M40.1066 6.94783C43.4494 -2.31594 56.5506 -2.31594 59.8934 6.94783L64.7631 20.4428L66.2624 24.1911C67.8462 28.1507 72.6597 31.9909 75.2666 33.6883L93.052 40.106C102.316 43.4488 102.316 56.5501 93.052 59.8929L75.7285 66.144V66.2623C71.5052 67.6701 68.4595 71.1387 66.9609 73.4665L59.8934 93.0524C56.5506 102.316 43.4494 102.316 40.1066 93.0524L33.2315 73.9997C31.0447 70.6726 27.9344 68.0794 26.0527 66.7867L6.94798 59.8929C-2.31585 56.5501 -2.31582 43.4488 6.948 40.106L26.5156 33.0452C29.6183 31.3023 32.0147 28.1126 33.2059 26.0714L40.1066 6.94783Z" fill="#BEDDEF"/>
</svg>
