<svg width="118" height="118" viewBox="0 0 118 118" fill="none" xmlns="http://www.w3.org/2000/svg">
<g filter="url(#filter0_d_709_1787)">
<mask id="path-1-outside-1_709_1787" maskUnits="userSpaceOnUse" x="-0.372208" y="-2.76367" width="119.818" height="119.818" fill="black">
<rect fill="white" x="-0.372208" y="-2.76367" width="119.818" height="119.818"/>
<path fill-rule="evenodd" clip-rule="evenodd" d="M46.0743 19.9035C47.1146 13.687 55.3632 12.1817 58.5322 17.6301L66.6459 31.5799L68.3666 34.3183C70.1819 37.2073 74.5225 39.5385 76.8177 40.4997L96.3356 43.7656C102.552 44.8059 104.057 53.0545 98.609 56.2235L81.8417 65.9759L81.8587 66.0689C78.7392 67.7822 76.8409 70.9463 75.995 72.9937L72.4755 94.026C71.4352 100.243 63.1866 101.748 60.0176 96.2995L49.5284 78.2654C47.329 75.9589 44.5064 74.3634 42.8389 73.6159L22.2142 70.1647C15.9977 69.1245 14.4924 60.8759 19.9408 57.7069L38.356 46.996C40.5463 45.1804 41.9741 42.3287 42.6194 40.5504L46.0743 19.9035Z"/>
</mask>
<path fill-rule="evenodd" clip-rule="evenodd" d="M46.0743 19.9035C47.1146 13.687 55.3632 12.1817 58.5322 17.6301L66.6459 31.5799L68.3666 34.3183C70.1819 37.2073 74.5225 39.5385 76.8177 40.4997L96.3356 43.7656C102.552 44.8059 104.057 53.0545 98.609 56.2235L81.8417 65.9759L81.8587 66.0689C78.7392 67.7822 76.8409 70.9463 75.995 72.9937L72.4755 94.026C71.4352 100.243 63.1866 101.748 60.0176 96.2995L49.5284 78.2654C47.329 75.9589 44.5064 74.3634 42.8389 73.6159L22.2142 70.1647C15.9977 69.1245 14.4924 60.8759 19.9408 57.7069L38.356 46.996C40.5463 45.1804 41.9741 42.3287 42.6194 40.5504L46.0743 19.9035Z" fill="#BEDDEF"/>
<path d="M58.5322 17.6301L65.4475 13.6079L65.4475 13.6079L58.5322 17.6301ZM46.0743 19.9035L38.1841 18.5832L38.1841 18.5832L46.0743 19.9035ZM66.6459 31.5799L59.7306 35.6021L59.7994 35.7204L59.8722 35.8363L66.6459 31.5799ZM68.3666 34.3183L61.5929 38.5746L61.5929 38.5746L68.3666 34.3183ZM76.8177 40.4997L73.7275 47.8787L74.5828 48.2369L75.4974 48.39L76.8177 40.4997ZM96.3356 43.7656L95.0153 51.6559L95.0153 51.6559L96.3356 43.7656ZM98.609 56.2235L94.5869 49.3082L98.609 56.2235ZM81.8417 65.9759L77.8195 59.0605L72.9631 61.8852L73.9717 67.4121L81.8417 65.9759ZM81.8587 66.0689L85.7099 73.0809L90.7639 70.3051L89.7287 64.6327L81.8587 66.0689ZM75.995 72.9937L68.6012 69.9388L68.2545 70.7779L68.1047 71.6733L75.995 72.9937ZM72.4755 94.026L80.3658 95.3464L80.3658 95.3464L72.4755 94.026ZM60.0176 96.2995L53.1023 100.322L53.1023 100.322L60.0176 96.2995ZM49.5284 78.2654L56.4437 74.2432L55.9693 73.4275L55.3181 72.7446L49.5284 78.2654ZM42.8389 73.6159L46.1116 66.3159L45.1733 65.8953L44.1592 65.7256L42.8389 73.6159ZM22.2142 70.1647L20.8939 78.055L20.8939 78.055L22.2142 70.1647ZM19.9408 57.7069L23.963 64.6222L23.963 64.6222L19.9408 57.7069ZM38.356 46.996L42.3782 53.9113L42.9511 53.5781L43.4614 53.1551L38.356 46.996ZM42.6194 40.5504L50.1396 43.2792L50.389 42.5919L50.5097 41.8707L42.6194 40.5504ZM65.4475 13.6079C58.5123 1.68435 40.4606 4.97847 38.1841 18.5832L53.9646 21.2239C53.9382 21.3817 53.8166 21.6789 53.5539 21.9311C53.3302 22.1458 53.1066 22.2323 52.9412 22.2625C52.7758 22.2927 52.5361 22.2907 52.2509 22.1689C51.9161 22.0258 51.6973 21.7907 51.6169 21.6524L65.4475 13.6079ZM73.5612 27.5577L65.4475 13.6079L51.6169 21.6523L59.7306 35.6021L73.5612 27.5577ZM59.8722 35.8363L61.5929 38.5746L75.1403 30.0619L73.4197 27.3236L59.8722 35.8363ZM61.5929 38.5746C63.3873 41.4304 66.0208 43.4881 67.9801 44.792C70.067 46.1808 72.1881 47.2341 73.7275 47.8787L79.908 33.1206C79.1521 32.8041 77.9553 32.2112 76.8443 31.4718C76.3003 31.1098 75.8602 30.7677 75.5357 30.4702C75.1962 30.1591 75.1084 30.0111 75.1403 30.0619L61.5929 38.5746ZM97.6559 35.8753L78.138 32.6094L75.4974 48.39L95.0153 51.6559L97.6559 35.8753ZM102.631 63.1389C114.555 56.2036 111.261 38.1519 97.6559 35.8753L95.0153 51.6559C94.8575 51.6295 94.5602 51.5079 94.3081 51.2452C94.0934 51.0215 94.0069 50.7979 93.9767 50.6325C93.9465 50.4671 93.9484 50.2274 94.0703 49.9422C94.2134 49.6074 94.4485 49.3886 94.5869 49.3082L102.631 63.1389ZM85.8639 72.8912L102.631 63.1389L94.5869 49.3082L77.8195 59.0605L85.8639 72.8912ZM73.9717 67.4121L73.9887 67.5051L89.7287 64.6327L89.7118 64.5397L73.9717 67.4121ZM78.0075 59.0569C72.6322 62.0091 69.788 67.0665 68.6012 69.9388L83.3887 76.0486C83.5815 75.5821 83.9325 74.9111 84.4148 74.2842C84.899 73.6549 85.3557 73.2754 85.7099 73.0809L78.0075 59.0569ZM80.3658 95.3464L83.8853 74.314L68.1047 71.6733L64.5852 92.7057L80.3658 95.3464ZM53.1023 100.322C60.0375 112.245 78.0892 108.951 80.3658 95.3464L64.5852 92.7057C64.6116 92.5479 64.7332 92.2506 64.9959 91.9985C65.2197 91.7838 65.4432 91.6973 65.6086 91.6671C65.7741 91.6369 66.0138 91.6388 66.2989 91.7607C66.6337 91.9038 66.8525 92.1389 66.933 92.2772L53.1023 100.322ZM42.613 82.2877L53.1023 100.322L66.933 92.2772L56.4437 74.2432L42.613 82.2877ZM55.3181 72.7446C52.1678 69.441 48.3551 67.3217 46.1116 66.3159L39.5663 80.9159C40.0336 81.1254 40.7798 81.5093 41.5936 82.0435C42.4128 82.5814 43.1607 83.1802 43.7387 83.7862L55.3181 72.7446ZM20.8939 78.055L41.5186 81.5062L44.1592 65.7256L23.5346 62.2744L20.8939 78.055ZM15.9186 50.7915C3.99493 57.7267 7.28917 75.7785 20.8939 78.055L23.5346 62.2744C23.6924 62.3008 23.9896 62.4225 24.2417 62.6852C24.4565 62.9089 24.543 63.1325 24.5732 63.2979C24.6034 63.4633 24.6014 63.703 24.4795 63.9882C24.3364 64.323 24.1013 64.5418 23.963 64.6222L15.9186 50.7915ZM34.3338 40.0806L15.9186 50.7915L23.963 64.6222L42.3782 53.9113L34.3338 40.0806ZM43.4614 53.1551C47.2282 50.0328 49.2788 45.6513 50.1396 43.2792L35.0992 37.8216C34.9375 38.267 34.643 38.9306 34.2439 39.5826C33.8304 40.2582 33.4648 40.6594 33.2506 40.8368L43.4614 53.1551ZM38.1841 18.5832L34.7291 39.2301L50.5097 41.8707L53.9646 21.2239L38.1841 18.5832Z" fill="white" mask="url(#path-1-outside-1_709_1787)"/>
</g>
<defs>
<filter id="filter0_d_709_1787" x="0.584534" y="0.273804" width="117.381" height="117.382" filterUnits="userSpaceOnUse" color-interpolation-filters="sRGB">
<feFlood flood-opacity="0" result="BackgroundImageFix"/>
<feColorMatrix in="SourceAlpha" type="matrix" values="0 0 0 0 0 0 0 0 0 0 0 0 0 0 0 0 0 0 127 0" result="hardAlpha"/>
<feOffset dy="2"/>
<feGaussianBlur stdDeviation="4"/>
<feComposite in2="hardAlpha" operator="out"/>
<feColorMatrix type="matrix" values="0 0 0 0 0 0 0 0 0 0 0 0 0 0 0 0 0 0 0.25 0"/>
<feBlend mode="normal" in2="BackgroundImageFix" result="effect1_dropShadow_709_1787"/>
<feBlend mode="normal" in="SourceGraphic" in2="effect1_dropShadow_709_1787" result="shape"/>
</filter>
</defs>
</svg>
