<svg width="112" height="111" viewBox="0 0 112 111" fill="none" xmlns="http://www.w3.org/2000/svg">
<g filter="url(#filter0_d_709_1794)">
<mask id="path-1-outside-1_709_1794" maskUnits="userSpaceOnUse" x="8" y="6.68921" width="97" height="94" fill="black">
<rect fill="white" x="8" y="6.68921" width="97" height="94"/>
<path fill-rule="evenodd" clip-rule="evenodd" d="M55.4805 14.6892C64.8497 14.6892 72.6097 21.5791 73.9703 30.5685C75.0505 30.3745 76.1628 30.2732 77.2989 30.2732C87.6273 30.2732 96.0001 38.646 96.0001 48.9745C96.0001 55.923 92.2105 61.9865 86.5853 65.2108C87.9533 67.8094 88.7275 70.7692 88.7275 73.9099C88.7275 84.2383 80.3547 92.6112 70.0263 92.6112C64.4405 92.6112 59.4268 90.1623 56 86.2796C52.5733 90.1624 47.5595 92.6113 41.9737 92.6113C31.6453 92.6113 23.2725 84.2384 23.2725 73.91C23.2725 70.7693 24.0467 67.8094 25.4147 65.2107C19.7896 61.9864 16 55.923 16 48.9745C16 38.646 24.3728 30.2732 34.7012 30.2732C35.4846 30.2732 36.2567 30.3214 37.0147 30.4149C38.44 21.5007 46.1648 14.6892 55.4805 14.6892Z"/>
</mask>
<path fill-rule="evenodd" clip-rule="evenodd" d="M55.4805 14.6892C64.8497 14.6892 72.6097 21.5791 73.9703 30.5685C75.0505 30.3745 76.1628 30.2732 77.2989 30.2732C87.6273 30.2732 96.0001 38.646 96.0001 48.9745C96.0001 55.923 92.2105 61.9865 86.5853 65.2108C87.9533 67.8094 88.7275 70.7692 88.7275 73.9099C88.7275 84.2383 80.3547 92.6112 70.0263 92.6112C64.4405 92.6112 59.4268 90.1623 56 86.2796C52.5733 90.1624 47.5595 92.6113 41.9737 92.6113C31.6453 92.6113 23.2725 84.2384 23.2725 73.91C23.2725 70.7693 24.0467 67.8094 25.4147 65.2107C19.7896 61.9864 16 55.923 16 48.9745C16 38.646 24.3728 30.2732 34.7012 30.2732C35.4846 30.2732 36.2567 30.3214 37.0147 30.4149C38.44 21.5007 46.1648 14.6892 55.4805 14.6892Z" fill="#F6534A"/>
<path d="M73.9703 30.5685L66.0603 31.7657L67.2909 39.8966L75.3848 38.4425L73.9703 30.5685ZM86.5853 65.2108L82.607 58.2701L75.9112 62.1081L79.5063 68.9374L86.5853 65.2108ZM56 86.2796L61.9981 80.9859L56 74.1898L50.0019 80.986L56 86.2796ZM25.4147 65.2107L32.4937 68.9374L36.0888 62.1081L29.3931 58.2701L25.4147 65.2107ZM37.0147 30.4149L36.0351 38.3547L43.6958 39.2998L44.9144 31.6779L37.0147 30.4149ZM81.8802 29.3714C79.9365 16.5293 68.8649 6.68921 55.4805 6.68921V22.6892C60.8345 22.6892 65.2829 26.6288 66.0603 31.7657L81.8802 29.3714ZM77.2989 22.2732C75.6864 22.2732 74.1006 22.4171 72.5557 22.6946L75.3848 38.4425C76.0003 38.3319 76.6393 38.2732 77.2989 38.2732V22.2732ZM104 48.9745C104 34.2278 92.0456 22.2732 77.2989 22.2732V38.2732C83.209 38.2732 88.0001 43.0643 88.0001 48.9745H104ZM90.5637 72.1515C98.5743 67.5598 104 58.9057 104 48.9745H88.0001C88.0001 52.9404 85.8467 56.4132 82.607 58.2701L90.5637 72.1515ZM96.7275 73.9099C96.7275 69.4398 95.6227 65.2042 93.6644 61.4842L79.5063 68.9374C80.2839 70.4146 80.7275 72.0986 80.7275 73.9099H96.7275ZM70.0263 100.611C84.7729 100.611 96.7275 88.6566 96.7275 73.9099H80.7275C80.7275 79.8201 75.9364 84.6112 70.0263 84.6112V100.611ZM50.002 91.5734C54.8829 97.1037 62.0499 100.611 70.0263 100.611V84.6112C66.8311 84.6112 63.9706 83.2209 61.9981 80.9859L50.002 91.5734ZM41.9737 100.611C49.9501 100.611 57.1172 97.1037 61.9981 91.5733L50.0019 80.986C48.0294 83.221 45.1689 84.6113 41.9737 84.6113V100.611ZM15.2725 73.91C15.2725 88.6567 27.227 100.611 41.9737 100.611V84.6113C36.0636 84.6113 31.2725 79.8202 31.2725 73.91H15.2725ZM18.3357 61.4841C16.3773 65.2041 15.2725 69.4398 15.2725 73.91H31.2725C31.2725 72.0987 31.716 70.4146 32.4937 68.9374L18.3357 61.4841ZM8 48.9745C8 58.9056 13.4257 67.5597 21.4363 72.1514L29.3931 58.2701C26.1534 56.4131 24 52.9404 24 48.9745H8ZM34.7012 22.2732C19.9545 22.2732 8 34.2278 8 48.9745H24C24 43.0643 28.7911 38.2732 34.7012 38.2732V22.2732ZM37.9943 22.4751C36.9121 22.3416 35.8128 22.2732 34.7012 22.2732V38.2732C35.1563 38.2732 35.6013 38.3012 36.0351 38.3547L37.9943 22.4751ZM55.4805 6.68921C42.1721 6.68921 31.1511 16.4177 29.1151 29.1518L44.9144 31.6779C45.7289 26.5836 50.1575 22.6892 55.4805 22.6892V6.68921Z" fill="white" mask="url(#path-1-outside-1_709_1794)"/>
</g>
<defs>
<filter id="filter0_d_709_1794" x="0" y="0.689209" width="112" height="109.922" filterUnits="userSpaceOnUse" color-interpolation-filters="sRGB">
<feFlood flood-opacity="0" result="BackgroundImageFix"/>
<feColorMatrix in="SourceAlpha" type="matrix" values="0 0 0 0 0 0 0 0 0 0 0 0 0 0 0 0 0 0 127 0" result="hardAlpha"/>
<feOffset dy="2"/>
<feGaussianBlur stdDeviation="4"/>
<feComposite in2="hardAlpha" operator="out"/>
<feColorMatrix type="matrix" values="0 0 0 0 0 0 0 0 0 0 0 0 0 0 0 0 0 0 0.25 0"/>
<feBlend mode="normal" in2="BackgroundImageFix" result="effect1_dropShadow_709_1794"/>
<feBlend mode="normal" in="SourceGraphic" in2="effect1_dropShadow_709_1794" result="shape"/>
</filter>
</defs>
</svg>
