<svg width="112" height="116" viewBox="0 0 112 116" fill="none" xmlns="http://www.w3.org/2000/svg">
<g filter="url(#filter0_d_709_1801)">
<mask id="path-1-outside-1_709_1801" maskUnits="userSpaceOnUse" x="4.66139" y="3.46144" width="102.672" height="105.455" fill="black">
<rect fill="white" x="4.66139" y="3.46144" width="102.672" height="105.455"/>
<path fill-rule="evenodd" clip-rule="evenodd" d="M76.5532 27.7618C76.6195 21.2412 68.8581 15.4871 58.8928 14.7903C48.9276 14.0935 40.4409 18.7113 39.5991 25.1777L39.5845 25.1767C38.8937 28.0624 39.0441 35.7013 45.1722 43.1713C41.4676 40.0899 32.9847 34.5929 27.67 36.2898C21.7288 37.2272 16.7111 44.5862 16.0633 53.8496C15.3524 64.0171 20.1741 72.6455 26.847 73.185C29.9511 73.5224 35.5266 72.6847 43.4368 67.9888C40.2674 71.3532 34.2364 79.277 35.4669 84.0574L35.4673 84.0574C34.9977 90.7761 42.8957 96.8016 53.1081 97.5157C63.3207 98.2298 71.9805 93.3621 72.4503 86.6433C72.4504 86.6424 72.4505 86.6416 72.4505 86.6407C72.967 83.9038 72.5583 76.6733 66.7943 69.6221C69.6947 72.4329 77.0732 77.8715 83.3836 77.1391L83.3877 77.0805C89.7039 76.7643 95.1889 69.1442 95.8682 59.43C96.5475 49.7157 92.1763 41.4064 85.9656 40.2143L85.9697 40.1562C83.1346 39.6389 76.0356 39.8226 69.9033 44.556C72.0035 42.7584 75.6576 37.6136 76.4934 28.669C76.5104 28.5298 76.5238 28.3897 76.5337 28.2488C76.5375 28.194 76.5408 28.1393 76.5435 28.0846C76.5519 27.9778 76.5598 27.8706 76.5673 27.7628L76.5532 27.7618Z"/>
</mask>
<path fill-rule="evenodd" clip-rule="evenodd" d="M76.5532 27.7618C76.6195 21.2412 68.8581 15.4871 58.8928 14.7903C48.9276 14.0935 40.4409 18.7113 39.5991 25.1777L39.5845 25.1767C38.8937 28.0624 39.0441 35.7013 45.1722 43.1713C41.4676 40.0899 32.9847 34.5929 27.67 36.2898C21.7288 37.2272 16.7111 44.5862 16.0633 53.8496C15.3524 64.0171 20.1741 72.6455 26.847 73.185C29.9511 73.5224 35.5266 72.6847 43.4368 67.9888C40.2674 71.3532 34.2364 79.277 35.4669 84.0574L35.4673 84.0574C34.9977 90.7761 42.8957 96.8016 53.1081 97.5157C63.3207 98.2298 71.9805 93.3621 72.4503 86.6433C72.4504 86.6424 72.4505 86.6416 72.4505 86.6407C72.967 83.9038 72.5583 76.6733 66.7943 69.6221C69.6947 72.4329 77.0732 77.8715 83.3836 77.1391L83.3877 77.0805C89.7039 76.7643 95.1889 69.1442 95.8682 59.43C96.5475 49.7157 92.1763 41.4064 85.9656 40.2143L85.9697 40.1562C83.1346 39.6389 76.0356 39.8226 69.9033 44.556C72.0035 42.7584 75.6576 37.6136 76.4934 28.669C76.5104 28.5298 76.5238 28.3897 76.5337 28.2488C76.5375 28.194 76.5408 28.1393 76.5435 28.0846C76.5519 27.9778 76.5598 27.8706 76.5673 27.7628L76.5532 27.7618Z" fill="#4185F4"/>
<path d="M76.5532 27.7618L68.5536 27.6804L68.4769 35.2166L75.9951 35.7423L76.5532 27.7618ZM39.5991 25.1777L39.0411 33.1583L46.5593 33.684L47.5322 26.2105L39.5991 25.1777ZM39.5845 25.1767L40.1425 17.1962L33.382 16.7235L31.8043 23.3143L39.5845 25.1767ZM45.1722 43.1713L40.0563 49.3218L51.3573 38.0974L45.1722 43.1713ZM27.67 36.2898L28.9168 44.1921L29.5208 44.0968L30.1033 43.9108L27.67 36.2898ZM26.847 73.185L27.7113 65.2319L27.6016 65.2199L27.4917 65.2111L26.847 73.185ZM43.4368 67.9888L49.2599 73.4744L39.353 61.1097L43.4368 67.9888ZM35.4669 84.0574L27.7195 86.0517L29.1569 91.6357L34.9089 92.0379L35.4669 84.0574ZM35.4673 84.0574L43.4478 84.6153L44.0056 76.635L36.0253 76.0769L35.4673 84.0574ZM72.4505 86.6407L64.5892 85.1574L64.5026 85.6165L64.47 86.0827L72.4505 86.6407ZM66.7943 69.6221L72.3617 63.8772L60.6004 74.6853L66.7943 69.6221ZM83.3836 77.1391L84.3058 85.0858L90.9009 84.3204L91.3641 77.6972L83.3836 77.1391ZM83.3877 77.0805L82.9878 69.0905L75.9021 69.4451L75.4072 76.5224L83.3877 77.0805ZM85.9656 40.2143L77.9851 39.6563L77.4902 46.7336L84.4576 48.0709L85.9656 40.2143ZM85.9697 40.1562L93.9502 40.7143L94.4497 33.5714L87.4056 32.2861L85.9697 40.1562ZM69.9033 44.556L64.7014 38.4782L74.7916 50.8888L69.9033 44.556ZM76.4934 28.669L68.5523 27.6997L68.5386 27.8121L68.5281 27.9248L76.4934 28.669ZM76.5435 28.0846L68.5678 27.4611L68.559 27.5738L68.5534 27.6867L76.5435 28.0846ZM76.5673 27.7628L84.5478 28.3209L85.1059 20.3404L77.1254 19.7823L76.5673 27.7628ZM84.5528 27.8432C84.6205 21.1866 80.7085 15.9502 76.2294 12.6509C71.6747 9.29599 65.7416 7.24968 59.4509 6.80978L58.3348 22.7708C62.0093 23.0278 64.9395 24.2069 66.7403 25.5333C67.6263 26.186 68.1131 26.7784 68.35 27.1762C68.4644 27.3682 68.5136 27.502 68.5344 27.5741C68.5539 27.6422 68.5537 27.6729 68.5536 27.6804L84.5528 27.8432ZM59.4509 6.80978C53.1602 6.36989 47 7.57057 42.0227 10.259C37.128 12.9028 32.5254 17.5438 31.666 24.145L47.5322 26.2105C47.5331 26.203 47.5371 26.1725 47.566 26.1079C47.5966 26.0394 47.6639 25.9137 47.8039 25.7394C48.0939 25.3785 48.6584 24.8596 49.6267 24.3366C51.5945 23.2737 54.6603 22.5139 58.3348 22.7708L59.4509 6.80978ZM39.0264 33.1572L39.0411 33.1583L40.1572 17.1972L40.1425 17.1962L39.0264 33.1572ZM51.3573 38.0974C49.1421 35.3971 48.092 32.7799 47.6281 30.7073C47.3935 29.6595 47.311 28.7591 47.304 28.0732C47.2965 27.3475 47.3742 26.9993 47.3647 27.0392L31.8043 23.3143C30.547 28.5666 31.2279 38.7868 38.9871 48.2452L51.3573 38.0974ZM30.1033 43.9108C29.6885 44.0432 29.7281 43.8923 30.5346 44.056C31.2975 44.2108 32.3331 44.565 33.5844 45.1611C36.1077 46.3631 38.5981 48.1089 40.0563 49.3218L50.2881 37.0209C48.0417 35.1524 44.4384 32.6089 40.4654 30.7163C36.9788 29.0554 31.0332 26.8181 25.2367 28.6688L30.1033 43.9108ZM26.4233 28.3876C20.5639 29.312 16.1016 33.1985 13.2267 37.5077C10.2938 41.9039 8.49268 47.4303 8.08283 53.2915L24.0439 54.4076C24.2817 51.0055 25.3134 48.2207 26.5366 46.3873C27.8178 44.4667 28.835 44.205 28.9168 44.1921L26.4233 28.3876ZM8.08283 53.2915C7.63434 59.7052 8.89121 65.9924 11.7004 71.0263C14.4695 75.9883 19.3491 80.6049 26.2022 81.159L27.4917 65.2111C27.4821 65.2103 27.4591 65.2082 27.4081 65.1878C27.3528 65.1657 27.2392 65.1114 27.0741 64.9865C26.7303 64.7263 26.2087 64.1908 25.6721 63.2293C24.5799 61.2722 23.7814 58.1614 24.0439 54.4076L8.08283 53.2915ZM39.353 61.1097C32.3902 65.2431 28.5572 65.3238 27.7113 65.2319L25.9827 81.1382C31.3451 81.7209 38.663 80.1263 47.5206 74.868L39.353 61.1097ZM43.2144 82.0632C43.4142 82.8392 43.1829 83.0562 43.4078 82.3094C43.607 81.6475 44.0253 80.7001 44.7115 79.5242C46.0878 77.1657 47.9874 74.8251 49.2599 73.4744L37.6136 62.5033C35.7168 64.5169 33.0162 67.8204 30.8923 71.46C29.8284 73.2831 28.7716 75.4233 28.0871 77.6967C27.4281 79.8853 26.9045 82.8854 27.7195 86.0517L43.2144 82.0632ZM36.0253 76.0769L36.025 76.0769L34.9089 92.0379L34.9092 92.038L36.0253 76.0769ZM53.6662 89.5352C49.8947 89.2714 46.9168 88.0377 45.1343 86.6779C44.2588 86.01 43.8078 85.4195 43.604 85.0478C43.5063 84.8696 43.4706 84.7526 43.4577 84.6979C43.4458 84.6476 43.4471 84.626 43.4478 84.6153L27.4867 83.4996C27.0039 90.4072 30.8901 95.9355 35.4296 99.3987C40.0318 102.91 46.1091 105.046 52.5501 105.496L53.6662 89.5352ZM64.4698 86.0853C64.4691 86.096 64.4673 86.1176 64.4486 86.1657C64.4281 86.2181 64.3766 86.3289 64.255 86.4919C64.0014 86.8315 63.4726 87.3535 62.5128 87.8931C60.5584 88.9916 57.4378 89.7989 53.6662 89.5352L52.5501 105.496C58.9911 105.947 65.3066 104.677 70.3528 101.841C75.33 99.0429 79.9478 94.109 80.4308 87.2014L64.4698 86.0853ZM64.47 86.0827C64.47 86.0831 64.4699 86.0835 64.4699 86.084C64.4699 86.0844 64.4699 86.0848 64.4698 86.0853L80.4308 87.2014C80.4309 87.2009 80.4309 87.2005 80.4309 87.2001C80.431 87.1996 80.431 87.1992 80.431 87.1988L64.47 86.0827ZM60.6004 74.6853C62.6773 77.2261 63.7209 79.7085 64.2166 81.6904C64.4665 82.6895 64.5732 83.5471 64.6042 84.1983C64.637 84.889 64.5789 85.2123 64.5892 85.1574L80.3118 88.1241C81.2568 83.1159 80.2792 73.4782 72.9881 64.559L60.6004 74.6853ZM82.4613 69.1925C81.7184 69.2787 80.06 68.9937 77.6143 67.6717C75.338 66.4412 73.3515 64.8364 72.3617 63.8772L61.2269 75.3671C63.1375 77.2187 66.2904 79.7385 70.0061 81.747C73.5523 83.6639 78.7383 85.7319 84.3058 85.0858L82.4613 69.1925ZM75.4072 76.5224L75.4031 76.5811L91.3641 77.6972L91.3682 77.6385L75.4072 76.5224ZM83.7876 85.0705C90.1707 84.751 95.1207 80.8335 98.262 76.4149C101.463 71.913 103.42 66.1257 103.849 59.988L87.8877 58.8719C87.6376 62.4485 86.5124 65.3284 85.2216 67.1441C84.5854 68.0389 83.9939 68.5596 83.5733 68.8307C83.3691 68.9622 83.219 69.0267 83.1287 69.0574C83.0418 69.087 82.9983 69.0899 82.9878 69.0905L83.7876 85.0705ZM103.849 59.988C104.278 53.8503 103.145 47.847 100.603 42.9435C98.1067 38.1307 93.7501 33.5624 87.4736 32.3577L84.4576 48.0709C84.4679 48.0729 84.5107 48.0818 84.5926 48.1232C84.6777 48.1663 84.8174 48.2509 85.0013 48.4096C85.3801 48.7366 85.8934 49.3346 86.3988 50.3092C87.4244 52.2869 88.1378 55.2954 87.8877 58.8719L103.849 59.988ZM77.9892 39.5982L77.9851 39.6563L93.9461 40.7724L93.9502 40.7143L77.9892 39.5982ZM74.7916 50.8888C76.7046 49.4122 78.8091 48.6142 80.7257 48.235C82.7275 47.8389 84.1933 47.9642 84.5337 48.0263L87.4056 32.2861C82.8589 31.4566 73.3214 31.8116 65.0151 38.2231L74.7916 50.8888ZM68.5281 27.9248C68.1984 31.4531 67.3328 34.0393 66.4803 35.7895C66.0513 36.6702 65.6284 37.3337 65.2833 37.7975C64.9243 38.2801 64.6993 38.48 64.7014 38.4782L75.1053 50.6338C78.9943 47.3052 83.4569 40.1347 84.4587 29.4132L68.5281 27.9248ZM84.4344 29.6382C84.4681 29.3625 84.4947 29.0853 84.5142 28.8068L68.5532 27.6907C68.5529 27.6941 68.5526 27.697 68.5523 27.6997L84.4344 29.6382ZM84.5142 28.8068C84.5218 28.6985 84.5282 28.5903 84.5336 28.4824L68.5534 27.6867C68.5533 27.6882 68.5533 27.6895 68.5532 27.6907L84.5142 28.8068ZM68.5868 27.2048C68.5808 27.2907 68.5745 27.3762 68.5678 27.4611L84.5192 28.708C84.5292 28.5795 84.5388 28.4504 84.5478 28.3209L68.5868 27.2048ZM75.9951 35.7423L76.0093 35.7433L77.1254 19.7823L77.1112 19.7813L75.9951 35.7423Z" fill="white" mask="url(#path-1-outside-1_709_1801)"/>
</g>
<defs>
<filter id="filter0_d_709_1801" x="-0.00610352" y="0.720947" width="111.944" height="114.864" filterUnits="userSpaceOnUse" color-interpolation-filters="sRGB">
<feFlood flood-opacity="0" result="BackgroundImageFix"/>
<feColorMatrix in="SourceAlpha" type="matrix" values="0 0 0 0 0 0 0 0 0 0 0 0 0 0 0 0 0 0 127 0" result="hardAlpha"/>
<feOffset dy="2"/>
<feGaussianBlur stdDeviation="4"/>
<feComposite in2="hardAlpha" operator="out"/>
<feColorMatrix type="matrix" values="0 0 0 0 0 0 0 0 0 0 0 0 0 0 0 0 0 0 0.25 0"/>
<feBlend mode="normal" in2="BackgroundImageFix" result="effect1_dropShadow_709_1801"/>
<feBlend mode="normal" in="SourceGraphic" in2="effect1_dropShadow_709_1801" result="shape"/>
</filter>
</defs>
</svg>
