<svg width="100" height="104" viewBox="0 0 100 104" fill="none" xmlns="http://www.w3.org/2000/svg">
<path fill-rule="evenodd" clip-rule="evenodd" d="M73.1523 14.6343C72.666 6.49795 62.4863 0 49.9998 0C37.5132 0 27.3336 6.49795 26.8472 14.6343H26.8293C26.2195 18.2929 27.0732 27.8051 35.3659 36.5856C30.4774 33.0659 19.4186 26.9502 12.9397 29.5315C5.61396 31.2196 -0.000244141 40.8329 -0.000244141 52.4393C-0.000244141 65.1851 6.77038 75.5273 15.143 75.6095C19.0451 75.7563 25.9204 74.2224 35.3659 67.6831C31.7072 72.1547 24.8778 82.5612 26.829 88.4148C26.829 88.4149 26.829 88.4149 26.829 88.415C26.829 96.8339 37.2029 103.659 49.9998 103.659C62.7966 103.659 73.1705 96.8339 73.1705 88.415C73.1705 88.4148 73.1705 88.4147 73.1705 88.4145C73.5769 84.959 72.4385 75.9756 64.6339 67.6831C68.4957 70.9352 78.1705 77.0734 85.9754 75.61V75.5369C93.8241 74.5926 99.9998 64.6122 99.9998 52.4393C99.9998 40.2664 93.8241 30.2859 85.9754 29.3416V29.2685C82.395 28.8707 73.559 29.7187 66.3251 36.1557C68.7881 33.7302 72.8981 26.9923 73.1576 15.7584C73.1662 15.5876 73.1705 15.4161 73.1705 15.2439C73.1705 15.1797 73.1699 15.1156 73.1687 15.0516C73.1699 14.9132 73.1705 14.7741 73.1705 14.6343H73.1523Z" fill="#E2F5C2"/>
</svg>
