<svg width="117" height="117" viewBox="0 0 117 117" fill="none" xmlns="http://www.w3.org/2000/svg">
<g filter="url(#filter0_d_709_1811)">
<path d="M45.857 22.1351C47.1943 13.4369 58.8808 11.5315 62.9116 19.3545L68.5465 30.2906C70.3491 33.7892 74.1995 35.7291 78.0839 35.0958L90.226 33.1162C98.9117 31.7001 104.335 42.2258 98.1407 48.4768L89.4811 57.2153C86.7108 60.0108 86.0556 64.2722 87.8583 67.7708L93.4931 78.7069C97.524 86.5299 89.1893 94.9405 81.3301 90.9809L70.3433 85.4455C66.8285 83.6746 62.5732 84.3684 59.803 87.1639L51.1433 95.9025C44.9488 102.153 34.3743 96.8257 35.7115 88.1275L37.5809 75.9679C38.1789 72.078 36.2042 68.2454 32.6894 66.4745L21.7026 60.9391C13.8434 56.9794 15.6426 45.2761 24.3283 43.86L36.4705 41.8804C40.3548 41.2471 43.3896 38.1846 43.9877 34.2947L45.857 22.1351Z" fill="#D5CEFF"/>
<path d="M66.4674 17.5224C60.6617 6.25483 43.8295 8.99919 41.9035 21.5272L40.0341 33.6869C39.6994 35.864 38.0008 37.578 35.8268 37.9325L23.6847 39.9121C11.1745 41.9518 8.58313 58.8082 19.9028 64.5113L30.8896 70.0468C32.8568 71.0379 33.9621 73.183 33.6274 75.3601L31.758 87.5197C29.8319 100.048 45.0626 107.721 53.9846 98.718L62.6442 89.9795C64.1947 88.4149 66.5763 88.0266 68.5435 89.0177L79.5303 94.5531C90.8501 100.256 102.855 88.1423 97.0489 76.8748L91.414 65.9387C90.4051 63.9806 90.7718 61.5955 92.3223 60.0309L100.982 51.2924C109.904 42.289 102.092 27.1287 89.5824 29.1683L77.4402 31.1479C75.2662 31.5024 73.1112 30.4166 72.1022 28.4585L66.4674 17.5224Z" stroke="white" stroke-width="8"/>
</g>
<defs>
<filter id="filter0_d_709_1811" x="0.696777" y="0.421143" width="116.136" height="116.23" filterUnits="userSpaceOnUse" color-interpolation-filters="sRGB">
<feFlood flood-opacity="0" result="BackgroundImageFix"/>
<feColorMatrix in="SourceAlpha" type="matrix" values="0 0 0 0 0 0 0 0 0 0 0 0 0 0 0 0 0 0 127 0" result="hardAlpha"/>
<feOffset dy="2"/>
<feGaussianBlur stdDeviation="4"/>
<feComposite in2="hardAlpha" operator="out"/>
<feColorMatrix type="matrix" values="0 0 0 0 0 0 0 0 0 0 0 0 0 0 0 0 0 0 0.25 0"/>
<feBlend mode="normal" in2="BackgroundImageFix" result="effect1_dropShadow_709_1811"/>
<feBlend mode="normal" in="SourceGraphic" in2="effect1_dropShadow_709_1811" result="shape"/>
</filter>
</defs>
</svg>
