<svg width="112" height="115" viewBox="0 0 112 115" fill="none" xmlns="http://www.w3.org/2000/svg">
<g filter="url(#filter0_d_709_1807)">
<path d="M54.0335 16.2974C54.4377 14.1168 57.5623 14.1168 57.9665 16.2974L61.2304 33.9041C61.5195 35.464 63.4227 36.0824 64.5735 34.9904L77.563 22.6647C79.1718 21.1381 81.6996 22.9747 80.7449 24.9764L73.0364 41.139C72.3535 42.5709 73.5297 44.1899 75.1026 43.9829L92.8562 41.6462C95.055 41.3568 96.0205 44.3284 94.0715 45.3867L78.3351 53.9316C76.941 54.6886 76.941 56.6898 78.3351 57.4468L94.0715 65.9917C96.0205 67.05 95.055 70.0216 92.8562 69.7322L75.1026 67.3955C73.5297 67.1885 72.3535 68.8075 73.0364 70.2394L80.7449 86.402C81.6996 88.4037 79.1718 90.2403 77.563 88.7137L64.5735 76.388C63.4227 75.2961 61.5195 75.9144 61.2304 77.4743L57.9665 95.081C57.5623 97.2617 54.4377 97.2617 54.0335 95.081L50.7696 77.4743C50.4805 75.9144 48.5773 75.2961 47.4265 76.388L34.437 88.7138C32.8282 90.2403 30.3004 88.4037 31.2551 86.402L38.9636 70.2394C39.6465 68.8075 38.4703 67.1885 36.8974 67.3955L19.1438 69.7322C16.945 70.0216 15.9795 67.05 17.9285 65.9917L33.6649 57.4468C35.059 56.6898 35.059 54.6886 33.6649 53.9316L17.9285 45.3867C15.9795 44.3284 16.945 41.3568 19.1438 41.6462L36.8974 43.9829C38.4703 44.1899 39.6465 42.5709 38.9636 41.139L31.2551 24.9764C30.3004 22.9747 32.8282 21.1381 34.437 22.6647L47.4265 34.9904C48.5773 36.0824 50.4805 35.464 50.7696 33.9041L54.0335 16.2974Z" fill="#E36DE5"/>
<path d="M61.8995 15.5683C60.6868 9.02649 51.3132 9.02644 50.1005 15.5683L47.508 29.5535L37.1903 19.7631C32.364 15.1834 24.7806 20.6931 27.6447 26.6983L33.7676 39.5365L19.6658 37.6804C13.0694 36.8122 10.1728 45.727 16.0197 48.9019L28.5193 55.6892L16.0197 62.4765C10.1729 65.6514 13.0693 74.5662 19.6658 73.698L33.7676 71.842L27.6447 84.6801C24.7806 90.6853 32.364 96.195 37.1903 91.6153L47.508 81.8249L50.1005 95.8101C51.3132 102.352 60.6868 102.352 61.8995 95.8101L64.492 81.8249L74.8097 91.6153C79.636 96.195 87.2194 90.6854 84.3553 84.6801L78.2324 71.842L92.3342 73.698C98.9305 74.5662 101.827 65.6514 95.9803 62.4765L83.4807 55.6892L95.9803 48.9019C101.827 45.7271 98.9307 36.8122 92.3342 37.6804L78.2324 39.5365L84.3553 26.6983C87.2194 20.6931 79.636 15.1834 74.8097 19.7631L77.563 22.6647L74.8097 19.7631L64.492 29.5535L61.8995 15.5683Z" stroke="white" stroke-width="8"/>
</g>
<defs>
<filter id="filter0_d_709_1807" x="0.852417" y="0.661865" width="110.295" height="114.055" filterUnits="userSpaceOnUse" color-interpolation-filters="sRGB">
<feFlood flood-opacity="0" result="BackgroundImageFix"/>
<feColorMatrix in="SourceAlpha" type="matrix" values="0 0 0 0 0 0 0 0 0 0 0 0 0 0 0 0 0 0 127 0" result="hardAlpha"/>
<feOffset dy="2"/>
<feGaussianBlur stdDeviation="4"/>
<feComposite in2="hardAlpha" operator="out"/>
<feColorMatrix type="matrix" values="0 0 0 0 0 0 0 0 0 0 0 0 0 0 0 0 0 0 0.25 0"/>
<feBlend mode="normal" in2="BackgroundImageFix" result="effect1_dropShadow_709_1807"/>
<feBlend mode="normal" in="SourceGraphic" in2="effect1_dropShadow_709_1807" result="shape"/>
</filter>
</defs>
</svg>
